<svg width="64" height="64" viewBox="0 0 64 64" fill="none" xmlns="http://www.w3.org/2000/svg">
<g filter="url(#filter0_i_2029_22321)">
<path d="M1 32C1 10.61 10.61 1 32 1C53.39 1 63 10.61 63 32C63 53.39 53.39 63 32 63C10.61 63 1 53.39 1 32Z" fill="#0099FF"/>
</g>
<path d="M2 32C2 21.4323 4.37621 13.9955 9.18586 9.18586C13.9955 4.37621 21.4323 2 32 2C42.5677 2 50.0045 4.37621 54.8141 9.18586C59.6238 13.9955 62 21.4323 62 32C62 42.5677 59.6238 50.0045 54.8141 54.8141C50.0045 59.6238 42.5677 62 32 62C21.4323 62 13.9955 59.6238 9.18586 54.8141C4.37621 50.0045 2 42.5677 2 32Z" stroke="url(#paint0_linear_2029_22321)" stroke-width="2" style="mix-blend-mode:overlay"/>
<mask id="mask0_2029_22321" style="mask-type:alpha" maskUnits="userSpaceOnUse" x="0" y="0" width="64" height="64">
<path d="M1 32C1 21.0873 3.45371 13.4005 8.42711 8.42711C13.4005 3.45371 21.0873 1 32 1C42.9127 1 50.5995 3.45371 55.5729 8.42711C60.5463 13.4005 63 21.0873 63 32C63 42.9127 60.5463 50.5995 55.5729 55.5729C50.5995 60.5463 42.9127 63 32 63C21.0873 63 13.4005 60.5463 8.42711 55.5729C3.45371 50.5995 1 42.9127 1 32Z" fill="#0099FF"/>
<path d="M1 32C1 21.0873 3.45371 13.4005 8.42711 8.42711C13.4005 3.45371 21.0873 1 32 1C42.9127 1 50.5995 3.45371 55.5729 8.42711C60.5463 13.4005 63 21.0873 63 32C63 42.9127 60.5463 50.5995 55.5729 55.5729C50.5995 60.5463 42.9127 63 32 63C21.0873 63 13.4005 60.5463 8.42711 55.5729C3.45371 50.5995 1 42.9127 1 32Z" stroke="url(#paint1_linear_2029_22321)" stroke-width="2"/>
</mask>
<g mask="url(#mask0_2029_22321)">
<g filter="url(#filter1_ddii_2029_22321)">
<path fill-rule="evenodd" clip-rule="evenodd" d="M42 23H22V32C22 32.2652 22.1054 32.5196 22.2929 32.7071C22.4804 32.8946 22.7348 33 23 33H41C41.2652 33 41.5196 32.8946 41.7071 32.7071C41.8946 32.5196 42 32.2652 42 32V23ZM41 15H37V13H35V15H29V13H27V15H23C22.7348 15 22.4804 15.1054 22.2929 15.2929C22.1054 15.4804 22 15.7348 22 16V21H42V16C42 15.7348 41.8946 15.4804 41.7071 15.2929C41.5196 15.1054 41.2652 15 41 15ZM32 30V26H26V30H32Z" fill="white"/>
</g>
<path d="M13.7379 43.092H17.9139V44.376H13.7379V43.092ZM13.8579 46.692H18.5979V48H12.2979V39.6H18.4299V40.908H13.8579V46.692ZM21.815 48L19.067 41.592H20.627L22.991 47.244H22.223L24.671 41.592H26.111L23.363 48H21.815ZM29.8847 48.084C29.1727 48.084 28.5487 47.944 28.0127 47.664C27.4847 47.376 27.0727 46.984 26.7767 46.488C26.4887 45.992 26.3447 45.428 26.3447 44.796C26.3447 44.156 26.4847 43.592 26.7647 43.104C27.0527 42.608 27.4447 42.22 27.9407 41.94C28.4447 41.66 29.0167 41.52 29.6567 41.52C30.2807 41.52 30.8367 41.656 31.3247 41.928C31.8127 42.2 32.1967 42.584 32.4767 43.08C32.7567 43.576 32.8967 44.16 32.8967 44.832C32.8967 44.896 32.8927 44.968 32.8847 45.048C32.8847 45.128 32.8807 45.204 32.8727 45.276H27.5327V44.28H32.0807L31.4927 44.592C31.5007 44.224 31.4247 43.9 31.2647 43.62C31.1047 43.34 30.8847 43.12 30.6047 42.96C30.3327 42.8 30.0167 42.72 29.6567 42.72C29.2887 42.72 28.9647 42.8 28.6847 42.96C28.4127 43.12 28.1967 43.344 28.0367 43.632C27.8847 43.912 27.8087 44.244 27.8087 44.628V44.868C27.8087 45.252 27.8967 45.592 28.0727 45.888C28.2487 46.184 28.4967 46.412 28.8167 46.572C29.1367 46.732 29.5047 46.812 29.9207 46.812C30.2807 46.812 30.6047 46.756 30.8927 46.644C31.1807 46.532 31.4367 46.356 31.6607 46.116L32.4647 47.04C32.1767 47.376 31.8127 47.636 31.3727 47.82C30.9407 47.996 30.4447 48.084 29.8847 48.084ZM37.9735 41.52C38.4855 41.52 38.9415 41.62 39.3415 41.82C39.7495 42.02 40.0695 42.328 40.3015 42.744C40.5335 43.152 40.6495 43.68 40.6495 44.328V48H39.1495V44.52C39.1495 43.952 39.0135 43.528 38.7415 43.248C38.4775 42.968 38.1055 42.828 37.6255 42.828C37.2735 42.828 36.9615 42.9 36.6895 43.044C36.4175 43.188 36.2055 43.404 36.0535 43.692C35.9095 43.972 35.8375 44.328 35.8375 44.76V48H34.3375V41.592H35.7655V43.32L35.5135 42.792C35.7375 42.384 36.0615 42.072 36.4855 41.856C36.9175 41.632 37.4135 41.52 37.9735 41.52ZM44.9644 48.084C44.2604 48.084 43.7164 47.904 43.3324 47.544C42.9484 47.176 42.7564 46.636 42.7564 45.924V40.176H44.2564V45.888C44.2564 46.192 44.3324 46.428 44.4844 46.596C44.6444 46.764 44.8644 46.848 45.1444 46.848C45.4804 46.848 45.7604 46.76 45.9844 46.584L46.4044 47.652C46.2284 47.796 46.0124 47.904 45.7564 47.976C45.5004 48.048 45.2364 48.084 44.9644 48.084ZM41.7004 42.84V41.64H45.9724V42.84H41.7004ZM49.6183 48.084C49.0823 48.084 48.5663 48.016 48.0703 47.88C47.5823 47.736 47.1943 47.564 46.9063 47.364L47.4823 46.224C47.7703 46.408 48.1143 46.56 48.5143 46.68C48.9143 46.8 49.3143 46.86 49.7143 46.86C50.1863 46.86 50.5263 46.796 50.7343 46.668C50.9503 46.54 51.0583 46.368 51.0583 46.152C51.0583 45.976 50.9863 45.844 50.8423 45.756C50.6983 45.66 50.5103 45.588 50.2783 45.54C50.0463 45.492 49.7863 45.448 49.4983 45.408C49.2183 45.368 48.9343 45.316 48.6463 45.252C48.3663 45.18 48.1103 45.08 47.8783 44.952C47.6463 44.816 47.4583 44.636 47.3143 44.412C47.1703 44.188 47.0983 43.892 47.0983 43.524C47.0983 43.116 47.2143 42.764 47.4463 42.468C47.6783 42.164 48.0023 41.932 48.4183 41.772C48.8423 41.604 49.3423 41.52 49.9183 41.52C50.3503 41.52 50.7863 41.568 51.2263 41.664C51.6663 41.76 52.0303 41.896 52.3183 42.072L51.7423 43.212C51.4383 43.028 51.1303 42.904 50.8183 42.84C50.5143 42.768 50.2103 42.732 49.9063 42.732C49.4503 42.732 49.1103 42.8 48.8863 42.936C48.6703 43.072 48.5623 43.244 48.5623 43.452C48.5623 43.644 48.6343 43.788 48.7783 43.884C48.9223 43.98 49.1103 44.056 49.3423 44.112C49.5743 44.168 49.8303 44.216 50.1103 44.256C50.3983 44.288 50.6823 44.34 50.9623 44.412C51.2423 44.484 51.4983 44.584 51.7303 44.712C51.9703 44.832 52.1623 45.004 52.3063 45.228C52.4503 45.452 52.5223 45.744 52.5223 46.104C52.5223 46.504 52.4023 46.852 52.1623 47.148C51.9303 47.444 51.5983 47.676 51.1663 47.844C50.7343 48.004 50.2183 48.084 49.6183 48.084Z" fill="white"/>
</g>
<defs>
<filter id="filter0_i_2029_22321" x="1" y="1" width="64" height="64" filterUnits="userSpaceOnUse" color-interpolation-filters="sRGB">
<feFlood flood-opacity="0" result="BackgroundImageFix"/>
<feBlend mode="normal" in="SourceGraphic" in2="BackgroundImageFix" result="shape"/>
<feColorMatrix in="SourceAlpha" type="matrix" values="0 0 0 0 0 0 0 0 0 0 0 0 0 0 0 0 0 0 127 0" result="hardAlpha"/>
<feOffset dx="2" dy="2"/>
<feGaussianBlur stdDeviation="2"/>
<feComposite in2="hardAlpha" operator="arithmetic" k2="-1" k3="1"/>
<feColorMatrix type="matrix" values="0 0 0 0 0.0666667 0 0 0 0 0.0980392 0 0 0 0 0.117647 0 0 0 0.1 0"/>
<feBlend mode="normal" in2="shape" result="effect1_innerShadow_2029_22321"/>
</filter>
<filter id="filter1_ddii_2029_22321" x="8.85714" y="0.857143" width="47.1429" height="47.1429" filterUnits="userSpaceOnUse" color-interpolation-filters="sRGB">
<feFlood flood-opacity="0" result="BackgroundImageFix"/>
<feColorMatrix in="SourceAlpha" type="matrix" values="0 0 0 0 0 0 0 0 0 0 0 0 0 0 0 0 0 0 127 0" result="hardAlpha"/>
<feOffset dx="2.57143" dy="2.57143"/>
<feGaussianBlur stdDeviation="4.71429"/>
<feComposite in2="hardAlpha" operator="out"/>
<feColorMatrix type="matrix" values="0 0 0 0 0.321569 0 0 0 0 0.435294 0 0 0 0 1 0 0 0 1 0"/>
<feBlend mode="normal" in2="BackgroundImageFix" result="effect1_dropShadow_2029_22321"/>
<feColorMatrix in="SourceAlpha" type="matrix" values="0 0 0 0 0 0 0 0 0 0 0 0 0 0 0 0 0 0 127 0" result="hardAlpha"/>
<feOffset dx="-2.57143" dy="-2.57143"/>
<feGaussianBlur stdDeviation="4.28571"/>
<feComposite in2="hardAlpha" operator="out"/>
<feColorMatrix type="matrix" values="0 0 0 0 1 0 0 0 0 1 0 0 0 0 1 0 0 0 0.4 0"/>
<feBlend mode="normal" in2="effect1_dropShadow_2029_22321" result="effect2_dropShadow_2029_22321"/>
<feBlend mode="normal" in="SourceGraphic" in2="effect2_dropShadow_2029_22321" result="shape"/>
<feColorMatrix in="SourceAlpha" type="matrix" values="0 0 0 0 0 0 0 0 0 0 0 0 0 0 0 0 0 0 127 0" result="hardAlpha"/>
<feOffset dy="-1.28571"/>
<feGaussianBlur stdDeviation="0.985714"/>
<feComposite in2="hardAlpha" operator="arithmetic" k2="-1" k3="1"/>
<feColorMatrix type="matrix" values="0 0 0 0 0 0 0 0 0 0.598039 0 0 0 0 1 0 0 0 0.4 0"/>
<feBlend mode="normal" in2="shape" result="effect3_innerShadow_2029_22321"/>
<feColorMatrix in="SourceAlpha" type="matrix" values="0 0 0 0 0 0 0 0 0 0 0 0 0 0 0 0 0 0 127 0" result="hardAlpha"/>
<feOffset dy="-0.428571"/>
<feGaussianBlur stdDeviation="0.557143"/>
<feComposite in2="hardAlpha" operator="arithmetic" k2="-1" k3="1"/>
<feColorMatrix type="matrix" values="0 0 0 0 1 0 0 0 0 1 0 0 0 0 1 0 0 0 0.6 0"/>
<feBlend mode="normal" in2="effect3_innerShadow_2029_22321" result="effect4_innerShadow_2029_22321"/>
</filter>
<linearGradient id="paint0_linear_2029_22321" x1="11.54" y1="17.74" x2="58.04" y2="74.78" gradientUnits="userSpaceOnUse">
<stop stop-color="#11191E" stop-opacity="0.4"/>
<stop offset="0.992881" stop-color="white"/>
</linearGradient>
<linearGradient id="paint1_linear_2029_22321" x1="10.88" y1="17.28" x2="58.88" y2="76.16" gradientUnits="userSpaceOnUse">
<stop stop-color="#11191E" stop-opacity="0.4"/>
<stop offset="0.992881" stop-color="white"/>
</linearGradient>
</defs>
</svg>
