<svg width="64" height="64" viewBox="0 0 64 64" fill="none" xmlns="http://www.w3.org/2000/svg">
<g filter="url(#filter0_i_2029_22352)">
<path d="M1 32C1 10.61 10.61 1 32 1C53.39 1 63 10.61 63 32C63 53.39 53.39 63 32 63C10.61 63 1 53.39 1 32Z" fill="#0099FF"/>
</g>
<path d="M2 32C2 21.4323 4.37621 13.9955 9.18586 9.18586C13.9955 4.37621 21.4323 2 32 2C42.5677 2 50.0045 4.37621 54.8141 9.18586C59.6238 13.9955 62 21.4323 62 32C62 42.5677 59.6238 50.0045 54.8141 54.8141C50.0045 59.6238 42.5677 62 32 62C21.4323 62 13.9955 59.6238 9.18586 54.8141C4.37621 50.0045 2 42.5677 2 32Z" stroke="url(#paint0_linear_2029_22352)" stroke-width="2" style="mix-blend-mode:overlay"/>
<mask id="mask0_2029_22352" style="mask-type:alpha" maskUnits="userSpaceOnUse" x="0" y="0" width="64" height="64">
<path d="M1 32C1 21.0873 3.45371 13.4005 8.42711 8.42711C13.4005 3.45371 21.0873 1 32 1C42.9127 1 50.5995 3.45371 55.5729 8.42711C60.5463 13.4005 63 21.0873 63 32C63 42.9127 60.5463 50.5995 55.5729 55.5729C50.5995 60.5463 42.9127 63 32 63C21.0873 63 13.4005 60.5463 8.42711 55.5729C3.45371 50.5995 1 42.9127 1 32Z" fill="#0099FF"/>
<path d="M1 32C1 21.0873 3.45371 13.4005 8.42711 8.42711C13.4005 3.45371 21.0873 1 32 1C42.9127 1 50.5995 3.45371 55.5729 8.42711C60.5463 13.4005 63 21.0873 63 32C63 42.9127 60.5463 50.5995 55.5729 55.5729C50.5995 60.5463 42.9127 63 32 63C21.0873 63 13.4005 60.5463 8.42711 55.5729C3.45371 50.5995 1 42.9127 1 32Z" stroke="url(#paint1_linear_2029_22352)" stroke-width="2"/>
</mask>
<g mask="url(#mask0_2029_22352)">
<g filter="url(#filter1_ddii_2029_22352)">
<path d="M28.5714 16V15C28.5714 14.7348 28.6918 14.4804 28.9062 14.2929C29.1205 14.1054 29.4112 14 29.7143 14H34.2857C34.5888 14 34.8795 14.1054 35.0938 14.2929C35.3082 14.4804 35.4286 14.7348 35.4286 15V16H38.8571C39.1602 16 39.4509 16.1054 39.6653 16.2929C39.8796 16.4804 40 16.7348 40 17V33C40 33.2652 39.8796 33.5196 39.6653 33.7071C39.4509 33.8946 39.1602 34 38.8571 34H25.1429C24.8398 34 24.5491 33.8946 24.3347 33.7071C24.1204 33.5196 24 33.2652 24 33V17C24 16.7348 24.1204 16.4804 24.3347 16.2929C24.5491 16.1054 24.8398 16 25.1429 16H28.5714ZM33.1429 24V19L27.4286 26H30.8571V31L36.5714 24H33.1429Z" fill="white"/>
</g>
<path d="M13.3878 48V39.6H16.8438C17.5878 39.6 18.2238 39.72 18.7518 39.96C19.2878 40.2 19.6998 40.544 19.9878 40.992C20.2758 41.44 20.4198 41.972 20.4198 42.588C20.4198 43.204 20.2758 43.736 19.9878 44.184C19.6998 44.632 19.2878 44.976 18.7518 45.216C18.2238 45.456 17.5878 45.576 16.8438 45.576H14.2518L14.9478 44.844V48H13.3878ZM14.9478 45.012L14.2518 44.256H16.7718C17.4598 44.256 17.9758 44.112 18.3198 43.824C18.6718 43.528 18.8478 43.116 18.8478 42.588C18.8478 42.052 18.6718 41.64 18.3198 41.352C17.9758 41.064 17.4598 40.92 16.7718 40.92H14.2518L14.9478 40.152V45.012ZM24.6902 48.084C24.0342 48.084 23.4502 47.944 22.9382 47.664C22.4262 47.376 22.0222 46.984 21.7262 46.488C21.4302 45.992 21.2822 45.428 21.2822 44.796C21.2822 44.156 21.4302 43.592 21.7262 43.104C22.0222 42.608 22.4262 42.22 22.9382 41.94C23.4502 41.66 24.0342 41.52 24.6902 41.52C25.3542 41.52 25.9422 41.66 26.4542 41.94C26.9742 42.22 27.3782 42.604 27.6662 43.092C27.9622 43.58 28.1102 44.148 28.1102 44.796C28.1102 45.428 27.9622 45.992 27.6662 46.488C27.3782 46.984 26.9742 47.376 26.4542 47.664C25.9422 47.944 25.3542 48.084 24.6902 48.084ZM24.6902 46.8C25.0582 46.8 25.3862 46.72 25.6742 46.56C25.9622 46.4 26.1862 46.168 26.3462 45.864C26.5142 45.56 26.5982 45.204 26.5982 44.796C26.5982 44.38 26.5142 44.024 26.3462 43.728C26.1862 43.424 25.9622 43.192 25.6742 43.032C25.3862 42.872 25.0622 42.792 24.7022 42.792C24.3342 42.792 24.0062 42.872 23.7182 43.032C23.4382 43.192 23.2142 43.424 23.0462 43.728C22.8782 44.024 22.7942 44.38 22.7942 44.796C22.7942 45.204 22.8782 45.56 23.0462 45.864C23.2142 46.168 23.4382 46.4 23.7182 46.56C24.0062 46.72 24.3302 46.8 24.6902 46.8ZM30.7848 48L28.4328 41.592H29.8488L31.8648 47.244H31.1928L33.3048 41.592H34.5648L36.6168 47.244H35.9568L38.0328 41.592H39.3648L37.0008 48H35.5608L33.6888 42.996H34.1328L32.2248 48H30.7848ZM43.2323 48.084C42.5203 48.084 41.8963 47.944 41.3603 47.664C40.8323 47.376 40.4203 46.984 40.1243 46.488C39.8363 45.992 39.6923 45.428 39.6923 44.796C39.6923 44.156 39.8323 43.592 40.1123 43.104C40.4003 42.608 40.7923 42.22 41.2883 41.94C41.7923 41.66 42.3643 41.52 43.0043 41.52C43.6283 41.52 44.1843 41.656 44.6723 41.928C45.1603 42.2 45.5443 42.584 45.8243 43.08C46.1043 43.576 46.2443 44.16 46.2443 44.832C46.2443 44.896 46.2403 44.968 46.2323 45.048C46.2323 45.128 46.2283 45.204 46.2203 45.276H40.8803V44.28H45.4283L44.8403 44.592C44.8483 44.224 44.7723 43.9 44.6123 43.62C44.4523 43.34 44.2323 43.12 43.9523 42.96C43.6803 42.8 43.3643 42.72 43.0043 42.72C42.6363 42.72 42.3123 42.8 42.0323 42.96C41.7603 43.12 41.5443 43.344 41.3843 43.632C41.2323 43.912 41.1563 44.244 41.1563 44.628V44.868C41.1563 45.252 41.2443 45.592 41.4203 45.888C41.5963 46.184 41.8443 46.412 42.1643 46.572C42.4843 46.732 42.8523 46.812 43.2683 46.812C43.6283 46.812 43.9523 46.756 44.2403 46.644C44.5283 46.532 44.7843 46.356 45.0083 46.116L45.8123 47.04C45.5243 47.376 45.1603 47.636 44.7203 47.82C44.2883 47.996 43.7923 48.084 43.2323 48.084ZM47.6852 48V41.592H49.1132V43.356L48.9452 42.84C49.1372 42.408 49.4372 42.08 49.8452 41.856C50.2612 41.632 50.7772 41.52 51.3932 41.52V42.948C51.3292 42.932 51.2692 42.924 51.2132 42.924C51.1572 42.916 51.1012 42.912 51.0452 42.912C50.4772 42.912 50.0252 43.08 49.6892 43.416C49.3532 43.744 49.1852 44.236 49.1852 44.892V48H47.6852Z" fill="white"/>
</g>
<defs>
<filter id="filter0_i_2029_22352" x="1" y="1" width="64" height="64" filterUnits="userSpaceOnUse" color-interpolation-filters="sRGB">
<feFlood flood-opacity="0" result="BackgroundImageFix"/>
<feBlend mode="normal" in="SourceGraphic" in2="BackgroundImageFix" result="shape"/>
<feColorMatrix in="SourceAlpha" type="matrix" values="0 0 0 0 0 0 0 0 0 0 0 0 0 0 0 0 0 0 127 0" result="hardAlpha"/>
<feOffset dx="2" dy="2"/>
<feGaussianBlur stdDeviation="2"/>
<feComposite in2="hardAlpha" operator="arithmetic" k2="-1" k3="1"/>
<feColorMatrix type="matrix" values="0 0 0 0 0.0666667 0 0 0 0 0.0980392 0 0 0 0 0.117647 0 0 0 0.1 0"/>
<feBlend mode="normal" in2="shape" result="effect1_innerShadow_2029_22352"/>
</filter>
<filter id="filter1_ddii_2029_22352" x="8.85714" y="0.857143" width="47.1429" height="47.1429" filterUnits="userSpaceOnUse" color-interpolation-filters="sRGB">
<feFlood flood-opacity="0" result="BackgroundImageFix"/>
<feColorMatrix in="SourceAlpha" type="matrix" values="0 0 0 0 0 0 0 0 0 0 0 0 0 0 0 0 0 0 127 0" result="hardAlpha"/>
<feOffset dx="2.57143" dy="2.57143"/>
<feGaussianBlur stdDeviation="4.71429"/>
<feComposite in2="hardAlpha" operator="out"/>
<feColorMatrix type="matrix" values="0 0 0 0 0.321569 0 0 0 0 0.435294 0 0 0 0 1 0 0 0 1 0"/>
<feBlend mode="normal" in2="BackgroundImageFix" result="effect1_dropShadow_2029_22352"/>
<feColorMatrix in="SourceAlpha" type="matrix" values="0 0 0 0 0 0 0 0 0 0 0 0 0 0 0 0 0 0 127 0" result="hardAlpha"/>
<feOffset dx="-2.57143" dy="-2.57143"/>
<feGaussianBlur stdDeviation="4.28571"/>
<feComposite in2="hardAlpha" operator="out"/>
<feColorMatrix type="matrix" values="0 0 0 0 1 0 0 0 0 1 0 0 0 0 1 0 0 0 0.4 0"/>
<feBlend mode="normal" in2="effect1_dropShadow_2029_22352" result="effect2_dropShadow_2029_22352"/>
<feBlend mode="normal" in="SourceGraphic" in2="effect2_dropShadow_2029_22352" result="shape"/>
<feColorMatrix in="SourceAlpha" type="matrix" values="0 0 0 0 0 0 0 0 0 0 0 0 0 0 0 0 0 0 127 0" result="hardAlpha"/>
<feOffset dy="-1.28571"/>
<feGaussianBlur stdDeviation="0.985714"/>
<feComposite in2="hardAlpha" operator="arithmetic" k2="-1" k3="1"/>
<feColorMatrix type="matrix" values="0 0 0 0 0 0 0 0 0 0.598039 0 0 0 0 1 0 0 0 0.4 0"/>
<feBlend mode="normal" in2="shape" result="effect3_innerShadow_2029_22352"/>
<feColorMatrix in="SourceAlpha" type="matrix" values="0 0 0 0 0 0 0 0 0 0 0 0 0 0 0 0 0 0 127 0" result="hardAlpha"/>
<feOffset dy="-0.428571"/>
<feGaussianBlur stdDeviation="0.557143"/>
<feComposite in2="hardAlpha" operator="arithmetic" k2="-1" k3="1"/>
<feColorMatrix type="matrix" values="0 0 0 0 1 0 0 0 0 1 0 0 0 0 1 0 0 0 0.6 0"/>
<feBlend mode="normal" in2="effect3_innerShadow_2029_22352" result="effect4_innerShadow_2029_22352"/>
</filter>
<linearGradient id="paint0_linear_2029_22352" x1="11.54" y1="17.74" x2="58.04" y2="74.78" gradientUnits="userSpaceOnUse">
<stop stop-color="#11191E" stop-opacity="0.4"/>
<stop offset="0.992881" stop-color="white"/>
</linearGradient>
<linearGradient id="paint1_linear_2029_22352" x1="10.88" y1="17.28" x2="58.88" y2="76.16" gradientUnits="userSpaceOnUse">
<stop stop-color="#11191E" stop-opacity="0.4"/>
<stop offset="0.992881" stop-color="white"/>
</linearGradient>
</defs>
</svg>
