<svg width="64" height="64" viewBox="0 0 64 64" fill="none" xmlns="http://www.w3.org/2000/svg">
<g filter="url(#filter0_i_2029_22290)">
<path d="M1 32C1 10.61 10.61 1 32 1C53.39 1 63 10.61 63 32C63 53.39 53.39 63 32 63C10.61 63 1 53.39 1 32Z" fill="#0099FF"/>
</g>
<path d="M2 32C2 21.4323 4.37621 13.9955 9.18586 9.18586C13.9955 4.37621 21.4323 2 32 2C42.5677 2 50.0045 4.37621 54.8141 9.18586C59.6238 13.9955 62 21.4323 62 32C62 42.5677 59.6238 50.0045 54.8141 54.8141C50.0045 59.6238 42.5677 62 32 62C21.4323 62 13.9955 59.6238 9.18586 54.8141C4.37621 50.0045 2 42.5677 2 32Z" stroke="url(#paint0_linear_2029_22290)" stroke-width="2" style="mix-blend-mode:overlay"/>
<mask id="mask0_2029_22290" style="mask-type:alpha" maskUnits="userSpaceOnUse" x="0" y="0" width="64" height="64">
<path d="M1 32C1 21.0873 3.45371 13.4005 8.42711 8.42711C13.4005 3.45371 21.0873 1 32 1C42.9127 1 50.5995 3.45371 55.5729 8.42711C60.5463 13.4005 63 21.0873 63 32C63 42.9127 60.5463 50.5995 55.5729 55.5729C50.5995 60.5463 42.9127 63 32 63C21.0873 63 13.4005 60.5463 8.42711 55.5729C3.45371 50.5995 1 42.9127 1 32Z" fill="#0099FF"/>
<path d="M1 32C1 21.0873 3.45371 13.4005 8.42711 8.42711C13.4005 3.45371 21.0873 1 32 1C42.9127 1 50.5995 3.45371 55.5729 8.42711C60.5463 13.4005 63 21.0873 63 32C63 42.9127 60.5463 50.5995 55.5729 55.5729C50.5995 60.5463 42.9127 63 32 63C21.0873 63 13.4005 60.5463 8.42711 55.5729C3.45371 50.5995 1 42.9127 1 32Z" stroke="url(#paint1_linear_2029_22290)" stroke-width="2"/>
</mask>
<g mask="url(#mask0_2029_22290)">
<g filter="url(#filter1_ddii_2029_22290)">
<path d="M25.4616 19.9543C25.5317 19.8421 25.6047 19.7317 25.6805 19.6232H38.3195C38.3954 19.7314 38.468 19.8428 38.5384 19.9543L40.7604 18.6672L41.8604 20.5791L39.4261 21.9899C39.6043 22.6411 39.7 23.3289 39.7 24.0386V25.1425H43V27.3502H39.7C39.7 28.4022 39.491 29.4056 39.1104 30.3196L41.8604 31.9136L40.7604 33.8255L37.9818 32.2161C36.7621 33.7278 35.0186 34.7217 33.1 34.9989V26.2464H30.9V35C28.9813 34.7226 27.2377 33.7283 26.0182 32.2161L23.2396 33.8255L22.1396 31.9136L24.8896 30.3207C24.4991 29.3795 24.2987 28.3698 24.3 27.3502H21V25.1425H24.3V24.0386C24.3 23.3289 24.3957 22.6422 24.5739 21.9899L22.1396 20.5791L23.2396 18.6672L25.4616 19.9543ZM27.6 17.4155C27.6 16.2444 28.0636 15.1213 28.8887 14.2933C29.7139 13.4652 30.833 13 32 13C33.167 13 34.2861 13.4652 35.1113 14.2933C35.9364 15.1213 36.4 16.2444 36.4 17.4155H27.6Z" fill="white"/>
</g>
<path d="M14.8392 43.464H19.0272V44.784H14.8392V43.464ZM14.9712 48H13.4112V39.6H19.5432V40.908H14.9712V48ZM24.6449 48V46.704L24.5609 46.428V44.16C24.5609 43.72 24.4289 43.38 24.1649 43.14C23.9009 42.892 23.5009 42.768 22.9649 42.768C22.6049 42.768 22.2489 42.824 21.8969 42.936C21.5529 43.048 21.2609 43.204 21.0209 43.404L20.4329 42.312C20.7769 42.048 21.1849 41.852 21.6569 41.724C22.1369 41.588 22.6329 41.52 23.1449 41.52C24.0729 41.52 24.7889 41.744 25.2929 42.192C25.8049 42.632 26.0609 43.316 26.0609 44.244V48H24.6449ZM22.6289 48.084C22.1489 48.084 21.7289 48.004 21.3689 47.844C21.0089 47.676 20.7289 47.448 20.5289 47.16C20.3369 46.864 20.2409 46.532 20.2409 46.164C20.2409 45.804 20.3249 45.48 20.4929 45.192C20.6689 44.904 20.9529 44.676 21.3449 44.508C21.7369 44.34 22.2569 44.256 22.9049 44.256H24.7649V45.252H23.0129C22.5009 45.252 22.1569 45.336 21.9809 45.504C21.8049 45.664 21.7169 45.864 21.7169 46.104C21.7169 46.376 21.8249 46.592 22.0409 46.752C22.2569 46.912 22.5569 46.992 22.9409 46.992C23.3089 46.992 23.6369 46.908 23.9249 46.74C24.2209 46.572 24.4329 46.324 24.5609 45.996L24.8129 46.896C24.6689 47.272 24.4089 47.564 24.0329 47.772C23.6649 47.98 23.1969 48.084 22.6289 48.084ZM30.9377 48.084C30.2657 48.084 29.6657 47.944 29.1377 47.664C28.6177 47.376 28.2097 46.984 27.9137 46.488C27.6177 45.992 27.4697 45.428 27.4697 44.796C27.4697 44.156 27.6177 43.592 27.9137 43.104C28.2097 42.608 28.6177 42.22 29.1377 41.94C29.6657 41.66 30.2657 41.52 30.9377 41.52C31.5617 41.52 32.1097 41.648 32.5817 41.904C33.0617 42.152 33.4257 42.52 33.6737 43.008L32.5217 43.68C32.3297 43.376 32.0937 43.152 31.8137 43.008C31.5417 42.864 31.2457 42.792 30.9257 42.792C30.5577 42.792 30.2257 42.872 29.9297 43.032C29.6337 43.192 29.4017 43.424 29.2337 43.728C29.0657 44.024 28.9817 44.38 28.9817 44.796C28.9817 45.212 29.0657 45.572 29.2337 45.876C29.4017 46.172 29.6337 46.4 29.9297 46.56C30.2257 46.72 30.5577 46.8 30.9257 46.8C31.2457 46.8 31.5417 46.728 31.8137 46.584C32.0937 46.44 32.3297 46.216 32.5217 45.912L33.6737 46.584C33.4257 47.064 33.0617 47.436 32.5817 47.7C32.1097 47.956 31.5617 48.084 30.9377 48.084ZM37.4644 48.084C36.7604 48.084 36.2164 47.904 35.8324 47.544C35.4484 47.176 35.2564 46.636 35.2564 45.924V40.176H36.7564V45.888C36.7564 46.192 36.8324 46.428 36.9844 46.596C37.1444 46.764 37.3644 46.848 37.6444 46.848C37.9804 46.848 38.2604 46.76 38.4844 46.584L38.9044 47.652C38.7284 47.796 38.5124 47.904 38.2564 47.976C38.0004 48.048 37.7364 48.084 37.4644 48.084ZM34.2004 42.84V41.64H38.4724V42.84H34.2004ZM42.8074 48.084C42.1514 48.084 41.5674 47.944 41.0554 47.664C40.5434 47.376 40.1394 46.984 39.8434 46.488C39.5474 45.992 39.3994 45.428 39.3994 44.796C39.3994 44.156 39.5474 43.592 39.8434 43.104C40.1394 42.608 40.5434 42.22 41.0554 41.94C41.5674 41.66 42.1514 41.52 42.8074 41.52C43.4714 41.52 44.0594 41.66 44.5714 41.94C45.0914 42.22 45.4954 42.604 45.7834 43.092C46.0794 43.58 46.2274 44.148 46.2274 44.796C46.2274 45.428 46.0794 45.992 45.7834 46.488C45.4954 46.984 45.0914 47.376 44.5714 47.664C44.0594 47.944 43.4714 48.084 42.8074 48.084ZM42.8074 46.8C43.1754 46.8 43.5034 46.72 43.7914 46.56C44.0794 46.4 44.3034 46.168 44.4634 45.864C44.6314 45.56 44.7154 45.204 44.7154 44.796C44.7154 44.38 44.6314 44.024 44.4634 43.728C44.3034 43.424 44.0794 43.192 43.7914 43.032C43.5034 42.872 43.1794 42.792 42.8194 42.792C42.4514 42.792 42.1234 42.872 41.8354 43.032C41.5554 43.192 41.3314 43.424 41.1634 43.728C40.9954 44.024 40.9114 44.38 40.9114 44.796C40.9114 45.204 40.9954 45.56 41.1634 45.864C41.3314 46.168 41.5554 46.4 41.8354 46.56C42.1234 46.72 42.4474 46.8 42.8074 46.8ZM47.6617 48V41.592H49.0897V43.356L48.9217 42.84C49.1137 42.408 49.4137 42.08 49.8217 41.856C50.2377 41.632 50.7537 41.52 51.3697 41.52V42.948C51.3057 42.932 51.2457 42.924 51.1897 42.924C51.1337 42.916 51.0777 42.912 51.0217 42.912C50.4537 42.912 50.0017 43.08 49.6657 43.416C49.3297 43.744 49.1617 44.236 49.1617 44.892V48H47.6617Z" fill="white"/>
</g>
<defs>
<filter id="filter0_i_2029_22290" x="1" y="1" width="64" height="64" filterUnits="userSpaceOnUse" color-interpolation-filters="sRGB">
<feFlood flood-opacity="0" result="BackgroundImageFix"/>
<feBlend mode="normal" in="SourceGraphic" in2="BackgroundImageFix" result="shape"/>
<feColorMatrix in="SourceAlpha" type="matrix" values="0 0 0 0 0 0 0 0 0 0 0 0 0 0 0 0 0 0 127 0" result="hardAlpha"/>
<feOffset dx="2" dy="2"/>
<feGaussianBlur stdDeviation="2"/>
<feComposite in2="hardAlpha" operator="arithmetic" k2="-1" k3="1"/>
<feColorMatrix type="matrix" values="0 0 0 0 0.0666667 0 0 0 0 0.0980392 0 0 0 0 0.117647 0 0 0 0.1 0"/>
<feBlend mode="normal" in2="shape" result="effect1_innerShadow_2029_22290"/>
</filter>
<filter id="filter1_ddii_2029_22290" x="8.85714" y="0.857143" width="47.1429" height="47.1429" filterUnits="userSpaceOnUse" color-interpolation-filters="sRGB">
<feFlood flood-opacity="0" result="BackgroundImageFix"/>
<feColorMatrix in="SourceAlpha" type="matrix" values="0 0 0 0 0 0 0 0 0 0 0 0 0 0 0 0 0 0 127 0" result="hardAlpha"/>
<feOffset dx="2.57143" dy="2.57143"/>
<feGaussianBlur stdDeviation="4.71429"/>
<feComposite in2="hardAlpha" operator="out"/>
<feColorMatrix type="matrix" values="0 0 0 0 0.321569 0 0 0 0 0.435294 0 0 0 0 1 0 0 0 1 0"/>
<feBlend mode="normal" in2="BackgroundImageFix" result="effect1_dropShadow_2029_22290"/>
<feColorMatrix in="SourceAlpha" type="matrix" values="0 0 0 0 0 0 0 0 0 0 0 0 0 0 0 0 0 0 127 0" result="hardAlpha"/>
<feOffset dx="-2.57143" dy="-2.57143"/>
<feGaussianBlur stdDeviation="4.28571"/>
<feComposite in2="hardAlpha" operator="out"/>
<feColorMatrix type="matrix" values="0 0 0 0 1 0 0 0 0 1 0 0 0 0 1 0 0 0 0.4 0"/>
<feBlend mode="normal" in2="effect1_dropShadow_2029_22290" result="effect2_dropShadow_2029_22290"/>
<feBlend mode="normal" in="SourceGraphic" in2="effect2_dropShadow_2029_22290" result="shape"/>
<feColorMatrix in="SourceAlpha" type="matrix" values="0 0 0 0 0 0 0 0 0 0 0 0 0 0 0 0 0 0 127 0" result="hardAlpha"/>
<feOffset dy="-1.28571"/>
<feGaussianBlur stdDeviation="0.985714"/>
<feComposite in2="hardAlpha" operator="arithmetic" k2="-1" k3="1"/>
<feColorMatrix type="matrix" values="0 0 0 0 0 0 0 0 0 0.598039 0 0 0 0 1 0 0 0 0.4 0"/>
<feBlend mode="normal" in2="shape" result="effect3_innerShadow_2029_22290"/>
<feColorMatrix in="SourceAlpha" type="matrix" values="0 0 0 0 0 0 0 0 0 0 0 0 0 0 0 0 0 0 127 0" result="hardAlpha"/>
<feOffset dy="-0.428571"/>
<feGaussianBlur stdDeviation="0.557143"/>
<feComposite in2="hardAlpha" operator="arithmetic" k2="-1" k3="1"/>
<feColorMatrix type="matrix" values="0 0 0 0 1 0 0 0 0 1 0 0 0 0 1 0 0 0 0.6 0"/>
<feBlend mode="normal" in2="effect3_innerShadow_2029_22290" result="effect4_innerShadow_2029_22290"/>
</filter>
<linearGradient id="paint0_linear_2029_22290" x1="11.54" y1="17.74" x2="58.04" y2="74.78" gradientUnits="userSpaceOnUse">
<stop stop-color="#11191E" stop-opacity="0.4"/>
<stop offset="0.992881" stop-color="white"/>
</linearGradient>
<linearGradient id="paint1_linear_2029_22290" x1="10.88" y1="17.28" x2="58.88" y2="76.16" gradientUnits="userSpaceOnUse">
<stop stop-color="#11191E" stop-opacity="0.4"/>
<stop offset="0.992881" stop-color="white"/>
</linearGradient>
</defs>
</svg>
