<svg width="64" height="64" viewBox="0 0 64 64" fill="none" xmlns="http://www.w3.org/2000/svg">
<g filter="url(#filter0_i_2029_22259)">
<path d="M1 32C1 10.61 10.61 1 32 1C53.39 1 63 10.61 63 32C63 53.39 53.39 63 32 63C10.61 63 1 53.39 1 32Z" fill="#0099FF"/>
</g>
<path d="M2 32C2 21.4323 4.37621 13.9955 9.18586 9.18586C13.9955 4.37621 21.4323 2 32 2C42.5677 2 50.0045 4.37621 54.8141 9.18586C59.6238 13.9955 62 21.4323 62 32C62 42.5677 59.6238 50.0045 54.8141 54.8141C50.0045 59.6238 42.5677 62 32 62C21.4323 62 13.9955 59.6238 9.18586 54.8141C4.37621 50.0045 2 42.5677 2 32Z" stroke="url(#paint0_linear_2029_22259)" stroke-width="2" style="mix-blend-mode:overlay"/>
<mask id="mask0_2029_22259" style="mask-type:alpha" maskUnits="userSpaceOnUse" x="0" y="0" width="64" height="64">
<path d="M1 32C1 21.0873 3.45371 13.4005 8.42711 8.42711C13.4005 3.45371 21.0873 1 32 1C42.9127 1 50.5995 3.45371 55.5729 8.42711C60.5463 13.4005 63 21.0873 63 32C63 42.9127 60.5463 50.5995 55.5729 55.5729C50.5995 60.5463 42.9127 63 32 63C21.0873 63 13.4005 60.5463 8.42711 55.5729C3.45371 50.5995 1 42.9127 1 32Z" fill="#0099FF"/>
<path d="M1 32C1 21.0873 3.45371 13.4005 8.42711 8.42711C13.4005 3.45371 21.0873 1 32 1C42.9127 1 50.5995 3.45371 55.5729 8.42711C60.5463 13.4005 63 21.0873 63 32C63 42.9127 60.5463 50.5995 55.5729 55.5729C50.5995 60.5463 42.9127 63 32 63C21.0873 63 13.4005 60.5463 8.42711 55.5729C3.45371 50.5995 1 42.9127 1 32Z" stroke="url(#paint1_linear_2029_22259)" stroke-width="2"/>
</mask>
<g mask="url(#mask0_2029_22259)">
<g filter="url(#filter1_ddii_2029_22259)">
<path d="M33 23V18L28 25H31V30L36 23H33ZM32 34C26.477 34 22 29.523 22 24C22 18.477 26.477 14 32 14C37.523 14 42 18.477 42 24C42 29.523 37.523 34 32 34Z" fill="white"/>
</g>
<path d="M12.6071 43.092H16.7831V44.376H12.6071V43.092ZM12.7271 46.692H17.4671V48H11.1671V39.6H17.2991V40.908H12.7271V46.692ZM22.6981 41.52C23.2101 41.52 23.6661 41.62 24.0661 41.82C24.4741 42.02 24.7941 42.328 25.0261 42.744C25.2581 43.152 25.3741 43.68 25.3741 44.328V48H23.8741V44.52C23.8741 43.952 23.7381 43.528 23.4661 43.248C23.2021 42.968 22.8301 42.828 22.3501 42.828C21.9981 42.828 21.6861 42.9 21.4141 43.044C21.1421 43.188 20.9301 43.404 20.7781 43.692C20.6341 43.972 20.5621 44.328 20.5621 44.76V48H19.0621V41.592H20.4901V43.32L20.2381 42.792C20.4621 42.384 20.7861 42.072 21.2101 41.856C21.6421 41.632 22.1381 41.52 22.6981 41.52ZM30.3007 48.084C29.5887 48.084 28.9647 47.944 28.4287 47.664C27.9007 47.376 27.4887 46.984 27.1927 46.488C26.9047 45.992 26.7607 45.428 26.7607 44.796C26.7607 44.156 26.9007 43.592 27.1807 43.104C27.4687 42.608 27.8607 42.22 28.3567 41.94C28.8607 41.66 29.4327 41.52 30.0727 41.52C30.6967 41.52 31.2527 41.656 31.7407 41.928C32.2287 42.2 32.6127 42.584 32.8927 43.08C33.1727 43.576 33.3127 44.16 33.3127 44.832C33.3127 44.896 33.3087 44.968 33.3007 45.048C33.3007 45.128 33.2967 45.204 33.2887 45.276H27.9487V44.28H32.4967L31.9087 44.592C31.9167 44.224 31.8407 43.9 31.6807 43.62C31.5207 43.34 31.3007 43.12 31.0207 42.96C30.7487 42.8 30.4327 42.72 30.0727 42.72C29.7047 42.72 29.3807 42.8 29.1007 42.96C28.8287 43.12 28.6127 43.344 28.4527 43.632C28.3007 43.912 28.2247 44.244 28.2247 44.628V44.868C28.2247 45.252 28.3127 45.592 28.4887 45.888C28.6647 46.184 28.9127 46.412 29.2327 46.572C29.5527 46.732 29.9207 46.812 30.3367 46.812C30.6967 46.812 31.0207 46.756 31.3087 46.644C31.5967 46.532 31.8527 46.356 32.0767 46.116L32.8807 47.04C32.5927 47.376 32.2287 47.636 31.7887 47.82C31.3567 47.996 30.8607 48.084 30.3007 48.084ZM34.7535 48V41.592H36.1815V43.356L36.0135 42.84C36.2055 42.408 36.5055 42.08 36.9135 41.856C37.3295 41.632 37.8455 41.52 38.4615 41.52V42.948C38.3975 42.932 38.3375 42.924 38.2815 42.924C38.2255 42.916 38.1695 42.912 38.1135 42.912C37.5455 42.912 37.0935 43.08 36.7575 43.416C36.4215 43.744 36.2535 44.236 36.2535 44.892V48H34.7535ZM42.5794 50.412C41.9874 50.412 41.4074 50.332 40.8394 50.172C40.2794 50.02 39.8194 49.796 39.4594 49.5L40.1314 48.372C40.4114 48.604 40.7634 48.788 41.1874 48.924C41.6194 49.068 42.0554 49.14 42.4954 49.14C43.1994 49.14 43.7154 48.976 44.0434 48.648C44.3714 48.328 44.5354 47.844 44.5354 47.196V46.056L44.6554 44.604L44.6074 43.152V41.592H46.0354V47.028C46.0354 48.188 45.7394 49.04 45.1474 49.584C44.5554 50.136 43.6994 50.412 42.5794 50.412ZM42.3874 47.712C41.7794 47.712 41.2274 47.584 40.7314 47.328C40.2434 47.064 39.8554 46.7 39.5674 46.236C39.2874 45.772 39.1474 45.228 39.1474 44.604C39.1474 43.988 39.2874 43.448 39.5674 42.984C39.8554 42.52 40.2434 42.16 40.7314 41.904C41.2274 41.648 41.7794 41.52 42.3874 41.52C42.9314 41.52 43.4194 41.628 43.8514 41.844C44.2834 42.06 44.6274 42.396 44.8834 42.852C45.1474 43.308 45.2794 43.892 45.2794 44.604C45.2794 45.316 45.1474 45.904 44.8834 46.368C44.6274 46.824 44.2834 47.164 43.8514 47.388C43.4194 47.604 42.9314 47.712 42.3874 47.712ZM42.6154 46.44C42.9914 46.44 43.3274 46.364 43.6234 46.212C43.9194 46.052 44.1474 45.836 44.3074 45.564C44.4754 45.284 44.5594 44.964 44.5594 44.604C44.5594 44.244 44.4754 43.928 44.3074 43.656C44.1474 43.376 43.9194 43.164 43.6234 43.02C43.3274 42.868 42.9914 42.792 42.6154 42.792C42.2394 42.792 41.8994 42.868 41.5954 43.02C41.2994 43.164 41.0674 43.376 40.8994 43.656C40.7394 43.928 40.6594 44.244 40.6594 44.604C40.6594 44.964 40.7394 45.284 40.8994 45.564C41.0674 45.836 41.2994 46.052 41.5954 46.212C41.8994 46.364 42.2394 46.44 42.6154 46.44ZM48.5354 50.412C48.2234 50.412 47.9114 50.36 47.5994 50.256C47.2874 50.152 47.0274 50.008 46.8194 49.824L47.4194 48.72C47.5714 48.856 47.7434 48.964 47.9354 49.044C48.1274 49.124 48.3234 49.164 48.5234 49.164C48.7954 49.164 49.0154 49.096 49.1834 48.96C49.3514 48.824 49.5074 48.596 49.6514 48.276L50.0234 47.436L50.1434 47.256L52.5674 41.592H54.0074L51.0074 48.516C50.8074 48.996 50.5834 49.376 50.3354 49.656C50.0954 49.936 49.8234 50.132 49.5194 50.244C49.2234 50.356 48.8954 50.412 48.5354 50.412ZM49.8554 48.228L46.9634 41.592H48.5234L50.8754 47.124L49.8554 48.228Z" fill="white"/>
</g>
<defs>
<filter id="filter0_i_2029_22259" x="1" y="1" width="64" height="64" filterUnits="userSpaceOnUse" color-interpolation-filters="sRGB">
<feFlood flood-opacity="0" result="BackgroundImageFix"/>
<feBlend mode="normal" in="SourceGraphic" in2="BackgroundImageFix" result="shape"/>
<feColorMatrix in="SourceAlpha" type="matrix" values="0 0 0 0 0 0 0 0 0 0 0 0 0 0 0 0 0 0 127 0" result="hardAlpha"/>
<feOffset dx="2" dy="2"/>
<feGaussianBlur stdDeviation="2"/>
<feComposite in2="hardAlpha" operator="arithmetic" k2="-1" k3="1"/>
<feColorMatrix type="matrix" values="0 0 0 0 0.0666667 0 0 0 0 0.0980392 0 0 0 0 0.117647 0 0 0 0.1 0"/>
<feBlend mode="normal" in2="shape" result="effect1_innerShadow_2029_22259"/>
</filter>
<filter id="filter1_ddii_2029_22259" x="8.85714" y="0.857143" width="47.1429" height="47.1429" filterUnits="userSpaceOnUse" color-interpolation-filters="sRGB">
<feFlood flood-opacity="0" result="BackgroundImageFix"/>
<feColorMatrix in="SourceAlpha" type="matrix" values="0 0 0 0 0 0 0 0 0 0 0 0 0 0 0 0 0 0 127 0" result="hardAlpha"/>
<feOffset dx="2.57143" dy="2.57143"/>
<feGaussianBlur stdDeviation="4.71429"/>
<feComposite in2="hardAlpha" operator="out"/>
<feColorMatrix type="matrix" values="0 0 0 0 0.321569 0 0 0 0 0.435294 0 0 0 0 1 0 0 0 1 0"/>
<feBlend mode="normal" in2="BackgroundImageFix" result="effect1_dropShadow_2029_22259"/>
<feColorMatrix in="SourceAlpha" type="matrix" values="0 0 0 0 0 0 0 0 0 0 0 0 0 0 0 0 0 0 127 0" result="hardAlpha"/>
<feOffset dx="-2.57143" dy="-2.57143"/>
<feGaussianBlur stdDeviation="4.28571"/>
<feComposite in2="hardAlpha" operator="out"/>
<feColorMatrix type="matrix" values="0 0 0 0 1 0 0 0 0 1 0 0 0 0 1 0 0 0 0.4 0"/>
<feBlend mode="normal" in2="effect1_dropShadow_2029_22259" result="effect2_dropShadow_2029_22259"/>
<feBlend mode="normal" in="SourceGraphic" in2="effect2_dropShadow_2029_22259" result="shape"/>
<feColorMatrix in="SourceAlpha" type="matrix" values="0 0 0 0 0 0 0 0 0 0 0 0 0 0 0 0 0 0 127 0" result="hardAlpha"/>
<feOffset dy="-1.28571"/>
<feGaussianBlur stdDeviation="0.985714"/>
<feComposite in2="hardAlpha" operator="arithmetic" k2="-1" k3="1"/>
<feColorMatrix type="matrix" values="0 0 0 0 0 0 0 0 0 0.598039 0 0 0 0 1 0 0 0 0.4 0"/>
<feBlend mode="normal" in2="shape" result="effect3_innerShadow_2029_22259"/>
<feColorMatrix in="SourceAlpha" type="matrix" values="0 0 0 0 0 0 0 0 0 0 0 0 0 0 0 0 0 0 127 0" result="hardAlpha"/>
<feOffset dy="-0.428571"/>
<feGaussianBlur stdDeviation="0.557143"/>
<feComposite in2="hardAlpha" operator="arithmetic" k2="-1" k3="1"/>
<feColorMatrix type="matrix" values="0 0 0 0 1 0 0 0 0 1 0 0 0 0 1 0 0 0 0.6 0"/>
<feBlend mode="normal" in2="effect3_innerShadow_2029_22259" result="effect4_innerShadow_2029_22259"/>
</filter>
<linearGradient id="paint0_linear_2029_22259" x1="11.54" y1="17.74" x2="58.04" y2="74.78" gradientUnits="userSpaceOnUse">
<stop stop-color="#11191E" stop-opacity="0.4"/>
<stop offset="0.992881" stop-color="white"/>
</linearGradient>
<linearGradient id="paint1_linear_2029_22259" x1="10.88" y1="17.28" x2="58.88" y2="76.16" gradientUnits="userSpaceOnUse">
<stop stop-color="#11191E" stop-opacity="0.4"/>
<stop offset="0.992881" stop-color="white"/>
</linearGradient>
</defs>
</svg>
