<svg width="19" height="19" viewBox="0 0 19 19" fill="none" xmlns="http://www.w3.org/2000/svg">
<path id="Vector" d="M3.64989 12.3317H0.427898C0.343936 12.3317 0.263341 12.3648 0.203551 12.4237C0.143761 12.4826 0.109581 12.5628 0.108398 12.6467V18.5327C0.108398 18.7127 0.252399 18.8567 0.427898 18.8567H17.7889C17.9644 18.8567 18.1084 18.7127 18.1084 18.5327V12.6512C18.109 12.6089 18.1011 12.5669 18.0854 12.5276C18.0696 12.4883 18.0461 12.4525 18.0164 12.4224C17.9867 12.3922 17.9512 12.3683 17.9122 12.352C17.8731 12.3356 17.8312 12.3272 17.7889 12.3272H14.5714C14.529 12.3272 14.4871 12.3356 14.4481 12.352C14.409 12.3683 14.3736 12.3922 14.3438 12.4224C14.3141 12.4525 14.2907 12.4883 14.2749 12.5276C14.2591 12.5669 14.2513 12.6089 14.2519 12.6512V14.6177C14.2519 14.7977 14.1079 14.9417 13.9279 14.9417H4.29789C4.25517 14.9423 4.21277 14.9344 4.17319 14.9183C4.13361 14.9022 4.09765 14.8784 4.06744 14.8482C4.03723 14.818 4.01339 14.782 3.99732 14.7424C3.98125 14.7028 3.97329 14.6604 3.97389 14.6177V12.6512C3.97449 12.6089 3.96667 12.5669 3.95088 12.5276C3.93509 12.4883 3.91165 12.4525 3.88192 12.4224C3.85219 12.3922 3.81677 12.3683 3.77771 12.352C3.73865 12.3356 3.69673 12.3272 3.65439 12.3272L3.64989 12.3317ZM8.65388 1.04574L3.76239 6.01373C3.49239 6.28373 3.49239 6.76073 3.90639 7.05773C3.9595 7.09362 4.02229 7.11246 4.08639 7.11173H6.50289V11.9627C6.50289 12.1382 6.64689 12.2822 6.82239 12.2822H11.4079C11.5879 12.2822 11.7274 12.1382 11.7274 11.9627V7.11173H14.0134C14.1396 7.11065 14.2627 7.0725 14.3674 7.002C14.472 6.9315 14.5537 6.83177 14.6021 6.71523C14.6506 6.59869 14.6637 6.47047 14.6398 6.34654C14.6159 6.22261 14.5561 6.10844 14.4679 6.01823L9.56739 1.04574C9.50757 0.985464 9.43641 0.937626 9.35802 0.90498C9.27963 0.872335 9.19555 0.85553 9.11063 0.85553C9.02572 0.85553 8.94164 0.872335 8.86325 0.90498C8.78486 0.937626 8.7137 0.985464 8.65388 1.04574Z" fill="url(#paint0_linear_7551_31599)"/>
<defs>
<linearGradient id="paint0_linear_7551_31599" x1="1.5052" y1="9.73705" x2="18.0952" y2="9.73705" gradientUnits="userSpaceOnUse">
<stop stop-color="#4C90CD"/>
<stop offset="0.15" stop-color="#4677BA"/>
<stop offset="0.34" stop-color="#415DA8"/>
<stop offset="0.53" stop-color="#3D4B9B"/>
<stop offset="0.74" stop-color="#3A4093"/>
<stop offset="0.97" stop-color="#3A3D91"/>
<stop offset="1" stop-color="#3A3D91"/>
</linearGradient>
</defs>
</svg>
