<svg width="24" height="24" viewBox="0 0 24 24" fill="none" xmlns="http://www.w3.org/2000/svg">
<path d="M11.3204 10.2907H10.6686V9.0477H11.3204C11.5679 9.0477 11.7498 9.10328 11.866 9.21444C11.9873 9.3256 12.0479 9.47718 12.0479 9.66918C12.0479 9.86118 11.9873 10.0128 11.866 10.1239C11.7498 10.2351 11.5679 10.2907 11.3204 10.2907Z" fill="url(#paint0_linear_7565_85931)"/>
<path fill-rule="evenodd" clip-rule="evenodd" d="M2.52637 4.44731V19.6052C2.52637 20.1284 2.95049 20.5526 3.47369 20.5526L14.2891 20.5532C14.0355 19.9728 13.8947 19.3317 13.8947 18.6578C13.8947 16.0417 16.0155 13.921 18.6316 13.921C19.698 13.921 20.682 14.2734 21.4737 14.8681V4.44731C21.4737 3.92409 21.0496 3.49994 20.5264 3.49994H3.47374C2.95052 3.49994 2.52637 3.92409 2.52637 4.44731ZM17.2635 13.0949C16.834 13.0949 16.4374 13.0292 16.0736 12.8978C15.7149 12.7614 15.4016 12.5694 15.1338 12.3218C14.8711 12.0742 14.6664 11.7812 14.5199 11.4426C14.3734 11.1041 14.3001 10.7302 14.3001 10.321C14.3001 9.9117 14.3734 9.53781 14.5199 9.19928C14.6664 8.86076 14.8736 8.5677 15.1414 8.32012C15.4092 8.07254 15.725 7.88307 16.0888 7.7517C16.4576 7.61528 16.8618 7.54707 17.3014 7.54707C17.8269 7.54707 18.2942 7.63549 18.7035 7.81233C19.1178 7.98918 19.4589 8.24181 19.7266 8.57023L18.5822 9.57823C18.4155 9.38623 18.2336 9.24223 18.0365 9.14623C17.8445 9.04518 17.6298 8.99465 17.3923 8.99465C17.1953 8.99465 17.0159 9.02497 16.8542 9.0856C16.6976 9.14623 16.5637 9.23465 16.4525 9.35086C16.3414 9.46707 16.2555 9.60602 16.1949 9.7677C16.1342 9.92939 16.1039 10.1138 16.1039 10.321C16.1039 10.518 16.1342 10.6999 16.1949 10.8667C16.2555 11.0283 16.3414 11.1673 16.4525 11.2835C16.5637 11.3997 16.6951 11.4907 16.8466 11.5563C17.0033 11.617 17.1776 11.6473 17.3696 11.6473C17.5717 11.6473 17.7688 11.6144 17.9608 11.5488C17.9808 11.5414 18.001 11.5334 18.0214 11.525V10.177H19.5751V12.4203C19.2517 12.6376 18.8829 12.8043 18.4685 12.9205C18.0542 13.0368 17.6525 13.0949 17.2635 13.0949ZM8.87993 12.9736V7.66833H11.434C11.9292 7.66833 12.3561 7.74918 12.7149 7.91086C13.0787 8.07254 13.3591 8.30497 13.5561 8.60812C13.7532 8.90623 13.8517 9.25991 13.8517 9.66918C13.8517 10.0784 13.7532 10.4321 13.5561 10.7302C13.3591 11.0283 13.0787 11.2608 12.7149 11.4275C12.3561 11.5892 11.9292 11.67 11.434 11.67H10.6686V12.9736H8.87993ZM4.74775 12.8978C5.08122 13.0292 5.45512 13.0949 5.86943 13.0949C6.58185 13.0949 7.12501 12.9155 7.4989 12.5568C7.8728 12.198 8.05975 11.6549 8.05975 10.9273V7.66833H4.49006V9.01739H6.29385V11.0334C6.29385 11.473 6.10185 11.6928 5.71785 11.6928C5.57133 11.6928 5.42985 11.6498 5.29343 11.5639C5.15701 11.473 5.01806 11.3416 4.87659 11.1698L3.91406 12.3067C4.13638 12.5643 4.41427 12.7614 4.74775 12.8978Z" fill="url(#paint1_linear_7565_85931)"/>
<path d="M17.9206 18.0264V15.8159L21.4733 18.658L17.9206 21.5001V19.2895H15.7891V18.0264H17.9206Z" fill="url(#paint2_linear_7565_85931)"/>
<defs>
<linearGradient id="paint0_linear_7565_85931" x1="3.99668" y1="12.3809" x2="21.4599" y2="12.3809" gradientUnits="userSpaceOnUse">
<stop stop-color="#4C90CD"/>
<stop offset="0.15" stop-color="#4677BA"/>
<stop offset="0.34" stop-color="#415DA8"/>
<stop offset="0.53" stop-color="#3D4B9B"/>
<stop offset="0.74" stop-color="#3A4093"/>
<stop offset="0.97" stop-color="#3A3D91"/>
<stop offset="1" stop-color="#3A3D91"/>
</linearGradient>
<linearGradient id="paint1_linear_7565_85931" x1="3.99668" y1="12.3809" x2="21.4599" y2="12.3809" gradientUnits="userSpaceOnUse">
<stop stop-color="#4C90CD"/>
<stop offset="0.15" stop-color="#4677BA"/>
<stop offset="0.34" stop-color="#415DA8"/>
<stop offset="0.53" stop-color="#3D4B9B"/>
<stop offset="0.74" stop-color="#3A4093"/>
<stop offset="0.97" stop-color="#3A3D91"/>
<stop offset="1" stop-color="#3A3D91"/>
</linearGradient>
<linearGradient id="paint2_linear_7565_85931" x1="3.99668" y1="12.3809" x2="21.4599" y2="12.3809" gradientUnits="userSpaceOnUse">
<stop stop-color="#4C90CD"/>
<stop offset="0.15" stop-color="#4677BA"/>
<stop offset="0.34" stop-color="#415DA8"/>
<stop offset="0.53" stop-color="#3D4B9B"/>
<stop offset="0.74" stop-color="#3A4093"/>
<stop offset="0.97" stop-color="#3A3D91"/>
<stop offset="1" stop-color="#3A3D91"/>
</linearGradient>
</defs>
</svg>
