<svg width="24" height="24" viewBox="0 0 24 24" fill="none" xmlns="http://www.w3.org/2000/svg">
<path d="M5.99557 10.3818H5.37809V9.20425H5.99557C6.23012 9.20425 6.40244 9.2569 6.51253 9.36221C6.62741 9.46751 6.68485 9.61111 6.68485 9.79301C6.68485 9.9749 6.62741 10.1185 6.51253 10.2238C6.40244 10.3291 6.23012 10.3818 5.99557 10.3818Z" fill="url(#paint0_linear_7565_85937)"/>
<path fill-rule="evenodd" clip-rule="evenodd" d="M3.0249 4.84641V19.2065C3.0249 19.7021 3.4267 20.1039 3.92236 20.104L14.1684 20.1045C13.928 19.5546 13.7947 18.9473 13.7947 18.3088C13.7947 15.8304 15.8038 13.8213 18.2822 13.8213C19.2925 13.8213 20.2249 14.1552 20.9749 14.7186V4.84641C20.9749 4.35074 20.5731 3.94891 20.0774 3.94891H3.9224C3.42673 3.94891 3.0249 4.35074 3.0249 4.84641ZM16.1992 12.8518C16.5438 12.9763 16.9196 13.0385 17.3264 13.0385C17.695 13.0385 18.0756 12.9835 18.4681 12.8734C18.8606 12.7633 19.21 12.6053 19.5163 12.3995V10.2742H18.0444V11.5513C18.0252 11.5593 18.006 11.5668 17.987 11.5738C17.8051 11.636 17.6184 11.6671 17.427 11.6671C17.2451 11.6671 17.0799 11.6384 16.9315 11.581C16.7879 11.5188 16.6635 11.4326 16.5582 11.3225C16.4529 11.2124 16.3715 11.0808 16.3141 10.9276C16.2566 10.7696 16.2279 10.5973 16.2279 10.4106C16.2279 10.2144 16.2566 10.0397 16.3141 9.88651C16.3715 9.73333 16.4529 9.6017 16.5582 9.49161C16.6635 9.38151 16.7903 9.29775 16.9387 9.24031C17.0919 9.18287 17.2618 9.15415 17.4485 9.15415C17.6735 9.15415 17.8769 9.20201 18.0588 9.29775C18.2455 9.38869 18.4178 9.52511 18.5758 9.70701L19.6599 8.75207C19.4062 8.44093 19.0831 8.2016 18.6906 8.03407C18.3029 7.86653 17.8602 7.78277 17.3623 7.78277C16.9459 7.78277 16.563 7.84739 16.2135 7.97663C15.8689 8.10108 15.5697 8.28058 15.316 8.51513C15.0623 8.74967 14.8661 9.0273 14.7273 9.34801C14.5885 9.66871 14.5191 10.0229 14.5191 10.4106C14.5191 10.7984 14.5885 11.1526 14.7273 11.4733C14.8661 11.794 15.06 12.0716 15.3089 12.3062C15.5626 12.5407 15.8593 12.7226 16.1992 12.8518ZM8.94961 7.89749V12.9235H10.601V10.6381L12.5109 12.9235H13.9038V7.89749H12.2524V10.1829L10.3425 7.89749H8.94961ZM3.68361 12.9235V7.89749H6.10327C6.57237 7.89749 6.97684 7.97407 7.31669 8.12724C7.66133 8.28042 7.92699 8.50061 8.11367 8.78781C8.30035 9.07022 8.39369 9.40529 8.39369 9.79301C8.39369 10.1807 8.30035 10.5158 8.11367 10.7982C7.92699 11.0806 7.66133 11.3008 7.31669 11.4588C6.97684 11.6119 6.57237 11.6885 6.10327 11.6885H5.37809V12.9235H3.68361Z" fill="url(#paint1_linear_7565_85937)"/>
<path d="M17.9208 18.0264V15.8159L21.4735 18.658L17.9208 21.5001V19.2896H15.7893V18.0264H17.9208Z" fill="url(#paint2_linear_7565_85937)"/>
<defs>
<linearGradient id="paint0_linear_7565_85937" x1="4.45651" y1="12.6084" x2="21.46" y2="12.6084" gradientUnits="userSpaceOnUse">
<stop stop-color="#4C90CD"/>
<stop offset="0.15" stop-color="#4677BA"/>
<stop offset="0.34" stop-color="#415DA8"/>
<stop offset="0.53" stop-color="#3D4B9B"/>
<stop offset="0.74" stop-color="#3A4093"/>
<stop offset="0.97" stop-color="#3A3D91"/>
<stop offset="1" stop-color="#3A3D91"/>
</linearGradient>
<linearGradient id="paint1_linear_7565_85937" x1="4.45651" y1="12.6084" x2="21.46" y2="12.6084" gradientUnits="userSpaceOnUse">
<stop stop-color="#4C90CD"/>
<stop offset="0.15" stop-color="#4677BA"/>
<stop offset="0.34" stop-color="#415DA8"/>
<stop offset="0.53" stop-color="#3D4B9B"/>
<stop offset="0.74" stop-color="#3A4093"/>
<stop offset="0.97" stop-color="#3A3D91"/>
<stop offset="1" stop-color="#3A3D91"/>
</linearGradient>
<linearGradient id="paint2_linear_7565_85937" x1="4.45651" y1="12.6084" x2="21.46" y2="12.6084" gradientUnits="userSpaceOnUse">
<stop stop-color="#4C90CD"/>
<stop offset="0.15" stop-color="#4677BA"/>
<stop offset="0.34" stop-color="#415DA8"/>
<stop offset="0.53" stop-color="#3D4B9B"/>
<stop offset="0.74" stop-color="#3A4093"/>
<stop offset="0.97" stop-color="#3A3D91"/>
<stop offset="1" stop-color="#3A3D91"/>
</linearGradient>
</defs>
</svg>
