<svg width="20" height="20" viewBox="0 0 20 20" fill="none" xmlns="http://www.w3.org/2000/svg">
<path id="Vector" d="M16.8812 17.2468C18.6045 15.6133 19.69 13.4197 19.9431 11.0588C20.1961 8.69784 19.6003 6.32394 18.2624 4.36235C16.9244 2.40076 14.9318 0.979653 12.6414 0.353615C10.3509 -0.272423 7.91246 -0.0624829 5.76276 0.945825L7.15471 3.45136C8.24104 2.97921 9.42779 2.78482 10.608 2.88571C11.7882 2.9866 12.9247 3.37959 13.9151 4.02926C14.9056 4.67893 15.7188 5.56486 16.2814 6.6072C16.8441 7.64953 17.1385 8.8155 17.1382 10H12.8553L16.8812 17.2468ZM14.2372 19.0542L12.8453 16.5486C11.759 17.0208 10.5722 17.2152 9.39202 17.1143C8.21183 17.0134 7.0753 16.6204 6.08487 15.9707C5.09443 15.3211 4.28123 14.4351 3.71857 13.3928C3.15591 12.3505 2.86147 11.1845 2.8618 10H7.14472L3.11877 2.75323C1.39545 4.38666 0.310026 6.58033 0.0569469 8.94125C-0.196132 11.3022 0.399672 13.6761 1.73762 15.6376C3.07557 17.5992 5.06824 19.0203 7.35865 19.6464C9.64906 20.2724 12.0875 20.0625 14.2372 19.0542Z" fill="url(#paint0_linear_7551_32372)"/>
<defs>
<linearGradient id="paint0_linear_7551_32372" x1="1.552" y1="9.86771" x2="19.9854" y2="9.86771" gradientUnits="userSpaceOnUse">
<stop stop-color="#4C90CD"/>
<stop offset="0.15" stop-color="#4677BA"/>
<stop offset="0.34" stop-color="#415DA8"/>
<stop offset="0.53" stop-color="#3D4B9B"/>
<stop offset="0.74" stop-color="#3A4093"/>
<stop offset="0.97" stop-color="#3A3D91"/>
<stop offset="1" stop-color="#3A3D91"/>
</linearGradient>
</defs>
</svg>
