<?xml version="1.0" standalone="no"?><!DOCTYPE svg PUBLIC "-//W3C//DTD SVG 1.1//EN" "http://www.w3.org/Graphics/SVG/1.1/DTD/svg11.dtd"><svg t="1734508211194" class="icon" viewBox="0 0 1024 1024" version="1.1" xmlns="http://www.w3.org/2000/svg" p-id="1903" xmlns:xlink="http://www.w3.org/1999/xlink" width="200" height="200"><path d="M180.906667 382.293333c-6.826667-3.413333-13.653333-3.413333-20.48 0l-122.88 92.16L170.666667 580.266667l133.12-105.813334-122.88-92.16zM17.066667 907.946667c0 6.826667 3.413333 10.24 6.826666 13.653333l129.706667 95.573333v-409.6l-136.533333-109.226666v409.6zM187.733333 1020.586667l129.706667-95.573334c3.413333-3.413333 6.826667-6.826667 6.826667-13.653333v-409.6l-136.533334 109.226667v409.6zM522.24 6.826667c-6.826667-3.413333-13.653333-3.413333-20.48 0L378.88 98.986667 512 204.8l133.12-105.813333-122.88-92.16zM358.4 907.946667c0 6.826667 3.413333 10.24 6.826667 13.653333l129.706666 95.573333v-785.066666l-136.533333-109.226667v785.066667zM529.066667 1020.586667l129.706666-95.573334c3.413333-3.413333 6.826667-6.826667 6.826667-13.653333V126.293333l-136.533333 109.226667v785.066667zM699.733333 907.946667c0 6.826667 3.413333 10.24 6.826667 13.653333l129.706667 95.573333v-580.266666l-136.533334-105.813334v576.853334zM863.573333 211.626667c-6.826667-3.413333-13.653333-3.413333-20.48 0l-122.88 92.16L853.333333 409.6l133.12-105.813333-122.88-92.16zM870.4 440.32v580.266667l129.706667-95.573334c3.413333-3.413333 6.826667-6.826667 6.826666-13.653333v-580.266667l-136.533333 109.226667z" fill="" p-id="1904"></path></svg>