<svg width="24" height="24" viewBox="0 0 24 24" fill="none" xmlns="http://www.w3.org/2000/svg">
<mask id="mask0_16142_67122" style="mask-type:alpha" maskUnits="userSpaceOnUse" x="0" y="0" width="24" height="24">
<path d="M12 0.533203C16.0721 0.533203 18.9047 1.44965 20.7275 3.27246C22.5504 5.09527 23.4668 7.92787 23.4668 12C23.4668 16.0721 22.5504 18.9047 20.7275 20.7275C18.9047 22.5504 16.0721 23.4668 12 23.4668C7.92787 23.4668 5.09527 22.5504 3.27246 20.7275C1.44965 18.9047 0.533203 16.0721 0.533203 12C0.533203 7.92787 1.44965 5.09527 3.27246 3.27246C5.09527 1.44965 7.92787 0.533203 12 0.533203Z" fill="#0099FF"/>
<path d="M12 0.533203C16.0721 0.533203 18.9047 1.44965 20.7275 3.27246C22.5504 5.09527 23.4668 7.92787 23.4668 12C23.4668 16.0721 22.5504 18.9047 20.7275 20.7275C18.9047 22.5504 16.0721 23.4668 12 23.4668C7.92787 23.4668 5.09527 22.5504 3.27246 20.7275C1.44965 18.9047 0.533203 16.0721 0.533203 12C0.533203 7.92787 1.44965 5.09527 3.27246 3.27246C5.09527 1.44965 7.92787 0.533203 12 0.533203Z" stroke="url(#paint0_linear_16142_67122)" stroke-width="1.06667"/>
</mask>
<g mask="url(#mask0_16142_67122)">
<g filter="url(#filter0_di_16142_67122)">
<path d="M1.98869 6.53111C2.75648 4.41967 4.41967 2.75648 6.53111 1.98869V1.98869C6.99813 1.81886 7.48069 1.69528 7.97185 1.61972L9.09252 1.44731C11.0195 1.15085 12.9805 1.15085 14.9075 1.44731L16.0281 1.61972C16.5193 1.69528 17.0019 1.81886 17.4689 1.98869V1.98869C19.5803 2.75648 21.2435 4.41967 22.0113 6.53111V6.53111C22.1811 6.99813 22.3047 7.48069 22.3803 7.97185L22.5857 9.30694C22.86 11.0899 22.8353 12.906 22.5126 14.6808L22.4072 15.2606C22.3137 15.7748 22.1769 16.2803 21.9982 16.7715L21.873 17.1161C21.1815 19.0175 19.8199 20.6012 18.0437 21.5701V21.5701C17.1988 22.031 16.2802 22.3415 15.3289 22.4879L14.2293 22.657C12.7518 22.8843 11.2482 22.8843 9.7707 22.657L8.6711 22.4879C7.71982 22.3415 6.80122 22.031 5.95628 21.5701V21.5701C4.18007 20.6012 2.81848 19.0175 2.12705 17.1161L2.00175 16.7715C1.82313 16.2803 1.68633 15.7748 1.59283 15.2606L1.48742 14.6808C1.16473 12.906 1.14002 11.0898 1.41432 9.30694L1.61972 7.97185C1.69528 7.48069 1.81886 6.99813 1.98869 6.53111V6.53111Z" fill="#0099FF"/>
<path d="M9.16895 1.94141C11.0453 1.65278 12.9547 1.65278 14.8311 1.94141L15.9521 2.11426C16.4109 2.18485 16.8616 2.30035 17.2979 2.45898C19.2703 3.17624 20.8238 4.7297 21.541 6.70215C21.6996 7.13839 21.8152 7.58906 21.8857 8.04785L22.0918 9.38281C22.3576 11.1108 22.3333 12.8717 22.0205 14.5918L21.915 15.1709C21.8266 15.6574 21.6973 16.1358 21.5283 16.6006L21.4033 16.9453C20.7536 18.7322 19.4738 20.2203 17.8047 21.1309C17.0106 21.564 16.1469 21.8566 15.2529 21.9941L14.1533 22.1631C12.7262 22.3826 11.2738 22.3826 9.84668 22.1631L8.74707 21.9941C7.85305 21.8566 6.9894 21.564 6.19531 21.1309C4.52622 20.2203 3.24645 18.7322 2.59668 16.9453L2.47168 16.6006C2.30268 16.1358 2.17342 15.6574 2.08496 15.1709L1.97949 14.5918C1.66674 12.8717 1.64236 11.1108 1.9082 9.38281L2.11426 8.04785C2.18485 7.58906 2.30035 7.13839 2.45898 6.70215C3.17624 4.7297 4.7297 3.17624 6.70215 2.45898C7.13839 2.30035 7.58906 2.18485 8.04785 2.11426L9.16895 1.94141Z" stroke="url(#paint1_linear_16142_67122)" style="mix-blend-mode:overlay"/>
</g>
<g filter="url(#filter1_ddii_16142_67122)">
<path d="M16.2605 6.78445C16.306 6.81426 16.3394 6.85977 16.3546 6.91262C16.3698 6.96548 16.3659 7.02216 16.3434 7.07229L16.3298 7.09715L15.3237 8.72815C15.3191 8.7349 15.3172 8.74322 15.3184 8.75136C15.3196 8.75951 15.3239 8.76685 15.3304 8.77184C16.5082 9.74893 17.2692 11.2279 17.3016 12.8879L17.3029 12.9989V13.0088C17.3029 13.0382 17.302 13.0675 17.3003 13.0968V13.1145C17.3003 16.1238 16.0123 17.25 11.9559 17.25C7.89952 17.25 6.61207 16.1238 6.61207 13.1145C6.6118 12.7243 6.6525 12.3352 6.73347 11.9538C6.9718 10.7022 7.63412 9.57592 8.60459 8.77184C8.60941 8.7681 8.61308 8.76304 8.61517 8.75724C8.61726 8.75145 8.61769 8.74517 8.6164 8.73914L8.61127 8.72815L7.63849 7.14765C7.61609 7.11155 7.6036 7.06998 7.60232 7.02728C7.60103 6.98459 7.611 6.94232 7.63118 6.90488C7.65136 6.86745 7.68102 6.83621 7.71706 6.81443C7.75311 6.79265 7.79422 6.78113 7.83613 6.78105C7.88412 6.78105 7.94187 6.81062 7.97627 6.84882L7.99115 6.86845L8.96752 8.45234C8.97753 8.46909 8.9973 8.47249 9.01373 8.46255C9.88881 7.86744 10.9174 7.55027 11.9693 7.55115C13.0609 7.55115 14.077 7.8874 14.9215 8.46255C14.9318 8.4704 14.9487 8.46988 14.96 8.46072L14.9677 8.45234L15.9538 6.8551C15.9856 6.80458 16.0355 6.76883 16.093 6.75561C16.1504 6.74239 16.2106 6.75275 16.2605 6.78445ZM15.5678 12.4138C15.5302 12.2397 15.4265 12.0879 15.2794 11.9914C15.1324 11.895 14.9539 11.8618 14.7829 11.8991C13.912 12.0943 12.9092 12.195 11.8769 12.195C10.8938 12.195 9.92747 12.1008 9.08944 11.926C8.91803 11.8907 8.73989 11.9261 8.59402 12.0245C8.44816 12.1228 8.34647 12.2761 8.31122 12.4507C8.27652 12.6255 8.3112 12.8072 8.40767 12.9559C8.50413 13.1047 8.65451 13.2084 8.82584 13.2443C9.75242 13.4393 10.8048 13.54 11.8769 13.54C13.0016 13.54 14.1032 13.4259 15.0632 13.214C15.4194 13.1334 15.6471 12.777 15.5678 12.4138ZM18.3947 11.8991C18.4838 12.5315 18.2892 13.0829 17.9625 13.13C17.6327 13.1771 17.5239 12.6694 17.4348 12.037C17.3457 11.4048 17.3162 10.8869 17.6427 10.8398C17.9692 10.7927 18.3057 11.2669 18.3947 11.8991ZM6.35514 10.8367C6.68163 10.8838 6.65211 11.4048 6.56304 12.037C6.47398 12.6692 6.36515 13.1771 6.03508 13.13C5.71193 13.0795 5.51737 12.5281 5.60336 11.8959C5.68908 11.2637 6.02892 10.7896 6.3554 10.8367H6.35514Z" fill="white"/>
</g>
</g>
<defs>
<filter id="filter0_di_16142_67122" x="-0.107747" y="0.557943" width="24.2155" height="24.2692" filterUnits="userSpaceOnUse" color-interpolation-filters="sRGB">
<feFlood flood-opacity="0" result="BackgroundImageFix"/>
<feColorMatrix in="SourceAlpha" type="matrix" values="0 0 0 0 0 0 0 0 0 0 0 0 0 0 0 0 0 0 127 0" result="hardAlpha"/>
<feOffset dy="0.666667"/>
<feGaussianBlur stdDeviation="0.666667"/>
<feComposite in2="hardAlpha" operator="out"/>
<feColorMatrix type="matrix" values="0 0 0 0 0.0666667 0 0 0 0 0.0980392 0 0 0 0 0.117647 0 0 0 0.05 0"/>
<feBlend mode="normal" in2="BackgroundImageFix" result="effect1_dropShadow_16142_67122"/>
<feBlend mode="normal" in="SourceGraphic" in2="effect1_dropShadow_16142_67122" result="shape"/>
<feColorMatrix in="SourceAlpha" type="matrix" values="0 0 0 0 0 0 0 0 0 0 0 0 0 0 0 0 0 0 127 0" result="hardAlpha"/>
<feOffset dx="1.06667" dy="1.06667"/>
<feGaussianBlur stdDeviation="1.06667"/>
<feComposite in2="hardAlpha" operator="arithmetic" k2="-1" k3="1"/>
<feColorMatrix type="matrix" values="0 0 0 0 0.0666667 0 0 0 0 0.0980392 0 0 0 0 0.117647 0 0 0 0.1 0"/>
<feBlend mode="normal" in2="shape" result="effect2_innerShadow_16142_67122"/>
</filter>
<filter id="filter1_ddii_16142_67122" x="-2.42857" y="-2.42857" width="29.4286" height="29.4286" filterUnits="userSpaceOnUse" color-interpolation-filters="sRGB">
<feFlood flood-opacity="0" result="BackgroundImageFix"/>
<feColorMatrix in="SourceAlpha" type="matrix" values="0 0 0 0 0 0 0 0 0 0 0 0 0 0 0 0 0 0 127 0" result="hardAlpha"/>
<feOffset dx="1.71429" dy="1.71429"/>
<feGaussianBlur stdDeviation="3.14286"/>
<feComposite in2="hardAlpha" operator="out"/>
<feColorMatrix type="matrix" values="0 0 0 0 0.321569 0 0 0 0 0.435294 0 0 0 0 1 0 0 0 1 0"/>
<feBlend mode="normal" in2="BackgroundImageFix" result="effect1_dropShadow_16142_67122"/>
<feColorMatrix in="SourceAlpha" type="matrix" values="0 0 0 0 0 0 0 0 0 0 0 0 0 0 0 0 0 0 127 0" result="hardAlpha"/>
<feOffset dx="-1.71429" dy="-1.71429"/>
<feGaussianBlur stdDeviation="2.85714"/>
<feComposite in2="hardAlpha" operator="out"/>
<feColorMatrix type="matrix" values="0 0 0 0 1 0 0 0 0 1 0 0 0 0 1 0 0 0 0.4 0"/>
<feBlend mode="normal" in2="effect1_dropShadow_16142_67122" result="effect2_dropShadow_16142_67122"/>
<feBlend mode="normal" in="SourceGraphic" in2="effect2_dropShadow_16142_67122" result="shape"/>
<feColorMatrix in="SourceAlpha" type="matrix" values="0 0 0 0 0 0 0 0 0 0 0 0 0 0 0 0 0 0 127 0" result="hardAlpha"/>
<feOffset dy="-0.857143"/>
<feGaussianBlur stdDeviation="0.657143"/>
<feComposite in2="hardAlpha" operator="arithmetic" k2="-1" k3="1"/>
<feColorMatrix type="matrix" values="0 0 0 0 0 0 0 0 0 0.598039 0 0 0 0 1 0 0 0 0.4 0"/>
<feBlend mode="normal" in2="shape" result="effect3_innerShadow_16142_67122"/>
<feColorMatrix in="SourceAlpha" type="matrix" values="0 0 0 0 0 0 0 0 0 0 0 0 0 0 0 0 0 0 127 0" result="hardAlpha"/>
<feOffset dy="-0.285714"/>
<feGaussianBlur stdDeviation="0.371429"/>
<feComposite in2="hardAlpha" operator="arithmetic" k2="-1" k3="1"/>
<feColorMatrix type="matrix" values="0 0 0 0 1 0 0 0 0 1 0 0 0 0 1 0 0 0 0.6 0"/>
<feBlend mode="normal" in2="effect3_innerShadow_16142_67122" result="effect4_innerShadow_16142_67122"/>
</filter>
<linearGradient id="paint0_linear_16142_67122" x1="4.08" y1="6.48" x2="22.08" y2="28.56" gradientUnits="userSpaceOnUse">
<stop stop-color="#11191E" stop-opacity="0.4"/>
<stop offset="1" stop-color="white"/>
</linearGradient>
<linearGradient id="paint1_linear_16142_67122" x1="4.74" y1="6.94" x2="21.24" y2="27.18" gradientUnits="userSpaceOnUse">
<stop stop-color="#11191E" stop-opacity="0.4"/>
<stop offset="1" stop-color="white"/>
</linearGradient>
</defs>
</svg>
