<svg width="40" height="40" viewBox="0 0 40 40" fill="none" xmlns="http://www.w3.org/2000/svg">
<g clip-path="url(#clip0_15091_38354)">
<mask id="mask0_15091_38354" style="mask-type:alpha" maskUnits="userSpaceOnUse" x="0" y="0" width="40" height="40">
<path d="M20 0.799805C26.7982 0.799805 31.5477 2.32891 34.6094 5.39062C37.6711 8.45234 39.2002 13.2018 39.2002 20C39.2002 26.7982 37.6711 31.5477 34.6094 34.6094C31.5477 37.6711 26.7982 39.2002 20 39.2002C13.2018 39.2002 8.45234 37.6711 5.39062 34.6094C2.32891 31.5477 0.799805 26.7982 0.799805 20C0.799805 13.2018 2.32891 8.45234 5.39062 5.39062C8.45234 2.32891 13.2018 0.799805 20 0.799805Z" fill="#0099FF"/>
<path d="M20 0.799805C26.7982 0.799805 31.5477 2.32891 34.6094 5.39062C37.6711 8.45234 39.2002 13.2018 39.2002 20C39.2002 26.7982 37.6711 31.5477 34.6094 34.6094C31.5477 37.6711 26.7982 39.2002 20 39.2002C13.2018 39.2002 8.45234 37.6711 5.39062 34.6094C2.32891 31.5477 0.799805 26.7982 0.799805 20C0.799805 13.2018 2.32891 8.45234 5.39062 5.39062C8.45234 2.32891 13.2018 0.799805 20 0.799805Z" stroke="url(#paint0_linear_15091_38354)" stroke-width="1.6"/>
</mask>
<g mask="url(#mask0_15091_38354)">
<g filter="url(#filter0_di_15091_38354)">
<path d="M3.31444 10.8855C4.5941 7.36644 7.36607 4.59447 10.8851 3.3148C11.6635 3.03176 12.4678 2.82579 13.2864 2.69985L15.1542 2.4125C18.3658 1.9184 21.6341 1.9184 24.8458 2.4125L26.7135 2.69985C27.5321 2.82579 28.3364 3.03176 29.1148 3.3148C32.6338 4.59447 35.4058 7.36644 36.6855 10.8855C36.9685 11.6639 37.1745 12.4681 37.3004 13.2867L37.6428 15.5119C38.0999 18.4834 38.0587 21.5103 37.5209 24.4683L37.3452 25.4346C37.1894 26.2917 36.9614 27.1341 36.6637 27.9528L36.4549 28.5271C35.3025 31.6962 33.0332 34.3357 30.0728 35.9505C28.6646 36.7186 27.1336 37.2362 25.5481 37.4801L23.7155 37.762C21.2529 38.1409 18.747 38.1409 16.2845 37.762L14.4518 37.4801C12.8663 37.2362 11.3353 36.7186 9.92709 35.9505C6.96674 34.3357 4.69743 31.6962 3.54504 28.5271L3.33621 27.9528C3.0385 27.1341 2.81051 26.2917 2.65468 25.4346L2.47899 24.4683C1.94117 21.5103 1.9 18.4834 2.35715 15.5119L2.69948 13.2867C2.82542 12.4681 3.03139 11.6639 3.31444 10.8855Z" fill="#0099FF"/>
<path d="M15.2682 3.15332C18.4042 2.67086 21.596 2.67085 24.7321 3.15332L26.5992 3.44141C27.3692 3.55986 28.1259 3.75334 28.858 4.01953C32.1686 5.22337 34.7772 7.83104 35.9811 11.1416C36.2473 11.8737 36.4407 12.6304 36.5592 13.4004L36.901 15.626C37.3455 18.5151 37.3057 21.458 36.7828 24.334L36.6071 25.3008C36.4588 26.1161 36.2418 26.9175 35.9586 27.6963L35.7496 28.2705C34.6597 31.2679 32.5135 33.7647 29.7135 35.292C28.3816 36.0185 26.9337 36.5086 25.4342 36.7393L23.6012 37.0205C21.2143 37.3877 18.7849 37.3877 16.3981 37.0205L14.566 36.7393C13.0665 36.5086 11.6177 36.0185 10.2858 35.292C7.48596 33.7647 5.33955 31.2678 4.24963 28.2705L4.04065 27.6963C3.75747 26.9175 3.54047 26.1161 3.39221 25.3008L3.21643 24.334C2.69357 21.4581 2.6538 18.515 3.09827 15.626L3.44104 13.4004C3.55952 12.6304 3.75294 11.8737 4.01917 11.1416C5.22302 7.83115 7.83078 5.22338 11.1412 4.01953C11.8733 3.75331 12.6301 3.55989 13.4 3.44141L15.2682 3.15332Z" stroke="url(#paint1_linear_15091_38354)" stroke-width="1.5" style="mix-blend-mode:overlay"/>
</g>
<g filter="url(#filter1_ddii_15091_38354)">
<path d="M21.8245 10.2773C21.9855 10.2773 22.1403 10.3414 22.2542 10.4551C22.3681 10.569 22.4329 10.7237 22.4329 10.8848C22.4329 11.0459 22.3682 11.2005 22.2542 11.3145C22.1403 11.4284 21.9857 11.4932 21.8245 11.4932H21.2171V12.793C22.872 13.032 24.42 13.7537 25.6673 14.8672C26.9144 15.9806 27.8063 17.4366 28.2308 19.0537C28.6552 20.6708 28.5936 22.3775 28.054 23.96C27.5144 25.5424 26.5206 26.9312 25.1966 27.9521L25.9271 28.6836C25.9836 28.74 26.0283 28.8072 26.0589 28.8809C26.0895 28.9545 26.1057 29.0335 26.1058 29.1133C26.1059 29.193 26.0893 29.272 26.0589 29.3457C26.0284 29.4195 25.9844 29.4875 25.9281 29.5439C25.8717 29.6004 25.8045 29.6452 25.7308 29.6758C25.6572 29.7064 25.5781 29.7216 25.4984 29.7217C25.4185 29.7218 25.3387 29.7063 25.265 29.6758C25.1914 29.6453 25.1241 29.6002 25.0677 29.5439L24.1605 28.6377C22.8906 29.3505 21.4585 29.7239 20.0023 29.7217C18.5459 29.7239 17.1131 29.3506 15.8431 28.6377L14.9368 29.5439C14.8804 29.6003 14.8133 29.6453 14.7396 29.6758C14.6659 29.7062 14.5869 29.7217 14.5072 29.7217C14.4275 29.7216 14.3483 29.7063 14.2747 29.6758C14.2012 29.6452 14.1338 29.6003 14.0775 29.5439C14.0211 29.4875 13.9761 29.4195 13.9456 29.3457C13.9153 29.272 13.8997 29.193 13.8997 29.1133C13.8998 29.0336 13.9151 28.9545 13.9456 28.8809C13.9763 28.8071 14.022 28.74 14.0784 28.6836L14.8099 27.9521C13.4858 26.9313 12.4913 25.5433 11.9515 23.9609C11.4117 22.3785 11.3504 20.6719 11.7747 19.0547C12.199 17.4375 13.0902 15.9808 14.3372 14.8672C15.5842 13.7537 17.1319 13.0323 18.7865 12.793V11.4932H18.179C18.0993 11.4931 18.0203 11.4768 17.9466 11.4463C17.8729 11.4158 17.8057 11.3709 17.7493 11.3145C17.693 11.2581 17.648 11.1908 17.6175 11.1172C17.5871 11.0436 17.5716 10.9644 17.5716 10.8848C17.5717 10.8051 17.587 10.726 17.6175 10.6523C17.648 10.5787 17.6929 10.5115 17.7493 10.4551C17.8058 10.3987 17.8729 10.3538 17.9466 10.3232C18.0202 10.2928 18.0993 10.2774 18.179 10.2773H21.8245ZM24.1829 18.4258C23.7066 17.9934 23.2083 18.2095 22.8363 18.5791L18.9427 21.4141L17.0296 20.5508C16.6386 20.1603 16.0513 20.23 15.8587 20.4219C15.6664 20.6116 15.4074 21.1352 15.9017 21.6865L18.595 24.3623C18.6908 24.458 18.818 24.5058 18.9427 24.5059C19.073 24.506 19.198 24.454 19.2904 24.3623C19.2904 24.3623 24.0026 19.8048 24.2015 19.5215C24.4903 19.11 24.4944 18.7088 24.1829 18.4258ZM13.4232 11.4922C13.84 11.507 14.25 11.6073 14.6263 11.7871C15.0026 11.967 15.3374 12.223 15.6107 12.5381C13.7639 13.4759 12.2633 14.9765 11.3255 16.8232C11.0105 16.5499 10.7544 16.2152 10.5745 15.8389C10.3948 15.4627 10.2944 15.0534 10.2796 14.6367C10.2649 14.2199 10.3359 13.8041 10.4886 13.416C10.6413 13.0281 10.8726 12.6757 11.1673 12.3809C11.4622 12.0859 11.8153 11.8549 12.2034 11.7021C12.5914 11.5494 13.0065 11.4775 13.4232 11.4922ZM26.5804 11.4922C26.9972 11.4774 27.413 11.5494 27.8011 11.7021C28.1891 11.8549 28.5414 12.086 28.8363 12.3809C29.1311 12.6758 29.3622 13.028 29.515 13.416C29.6677 13.8041 29.7397 14.2199 29.7249 14.6367C29.7101 15.0534 29.6088 15.4627 29.429 15.8389C29.2492 16.215 28.9939 16.55 28.679 16.8232C27.7412 14.9763 26.2398 13.4758 24.3929 12.5381C24.6662 12.223 25.0019 11.967 25.3783 11.7871C25.7544 11.6074 26.1637 11.507 26.5804 11.4922Z" fill="white"/>
</g>
</g>
</g>
<defs>
<filter id="filter0_di_15091_38354" x="0.0424805" y="1.04199" width="39.915" height="40.0039" filterUnits="userSpaceOnUse" color-interpolation-filters="sRGB">
<feFlood flood-opacity="0" result="BackgroundImageFix"/>
<feColorMatrix in="SourceAlpha" type="matrix" values="0 0 0 0 0 0 0 0 0 0 0 0 0 0 0 0 0 0 127 0" result="hardAlpha"/>
<feOffset dy="1"/>
<feGaussianBlur stdDeviation="1"/>
<feComposite in2="hardAlpha" operator="out"/>
<feColorMatrix type="matrix" values="0 0 0 0 0.0666667 0 0 0 0 0.0980392 0 0 0 0 0.117647 0 0 0 0.05 0"/>
<feBlend mode="normal" in2="BackgroundImageFix" result="effect1_dropShadow_15091_38354"/>
<feBlend mode="normal" in="SourceGraphic" in2="effect1_dropShadow_15091_38354" result="shape"/>
<feColorMatrix in="SourceAlpha" type="matrix" values="0 0 0 0 0 0 0 0 0 0 0 0 0 0 0 0 0 0 127 0" result="hardAlpha"/>
<feOffset dx="1.6" dy="1.6"/>
<feGaussianBlur stdDeviation="1.6"/>
<feComposite in2="hardAlpha" operator="arithmetic" k2="-1" k3="1"/>
<feColorMatrix type="matrix" values="0 0 0 0 0.0666667 0 0 0 0 0.0980392 0 0 0 0 0.117647 0 0 0 0.1 0"/>
<feBlend mode="normal" in2="shape" result="effect2_innerShadow_15091_38354"/>
</filter>
<filter id="filter1_ddii_15091_38354" x="-2.80948" y="-2.80985" width="46.4762" height="46.4759" filterUnits="userSpaceOnUse" color-interpolation-filters="sRGB">
<feFlood flood-opacity="0" result="BackgroundImageFix"/>
<feColorMatrix in="SourceAlpha" type="matrix" values="0 0 0 0 0 0 0 0 0 0 0 0 0 0 0 0 0 0 127 0" result="hardAlpha"/>
<feOffset dx="2.57143" dy="2.57143"/>
<feGaussianBlur stdDeviation="4.71429"/>
<feComposite in2="hardAlpha" operator="out"/>
<feColorMatrix type="matrix" values="0 0 0 0 0.321569 0 0 0 0 0.435294 0 0 0 0 1 0 0 0 1 0"/>
<feBlend mode="normal" in2="BackgroundImageFix" result="effect1_dropShadow_15091_38354"/>
<feColorMatrix in="SourceAlpha" type="matrix" values="0 0 0 0 0 0 0 0 0 0 0 0 0 0 0 0 0 0 127 0" result="hardAlpha"/>
<feOffset dx="-2.57143" dy="-2.57143"/>
<feGaussianBlur stdDeviation="4.28571"/>
<feComposite in2="hardAlpha" operator="out"/>
<feColorMatrix type="matrix" values="0 0 0 0 1 0 0 0 0 1 0 0 0 0 1 0 0 0 0.4 0"/>
<feBlend mode="normal" in2="effect1_dropShadow_15091_38354" result="effect2_dropShadow_15091_38354"/>
<feBlend mode="normal" in="SourceGraphic" in2="effect2_dropShadow_15091_38354" result="shape"/>
<feColorMatrix in="SourceAlpha" type="matrix" values="0 0 0 0 0 0 0 0 0 0 0 0 0 0 0 0 0 0 127 0" result="hardAlpha"/>
<feOffset dy="-1.28571"/>
<feGaussianBlur stdDeviation="0.985714"/>
<feComposite in2="hardAlpha" operator="arithmetic" k2="-1" k3="1"/>
<feColorMatrix type="matrix" values="0 0 0 0 0 0 0 0 0 0.598039 0 0 0 0 1 0 0 0 0.4 0"/>
<feBlend mode="normal" in2="shape" result="effect3_innerShadow_15091_38354"/>
<feColorMatrix in="SourceAlpha" type="matrix" values="0 0 0 0 0 0 0 0 0 0 0 0 0 0 0 0 0 0 127 0" result="hardAlpha"/>
<feOffset dy="-0.428571"/>
<feGaussianBlur stdDeviation="0.557143"/>
<feComposite in2="hardAlpha" operator="arithmetic" k2="-1" k3="1"/>
<feColorMatrix type="matrix" values="0 0 0 0 1 0 0 0 0 1 0 0 0 0 1 0 0 0 0.6 0"/>
<feBlend mode="normal" in2="effect3_innerShadow_15091_38354" result="effect4_innerShadow_15091_38354"/>
</filter>
<linearGradient id="paint0_linear_15091_38354" x1="6.8" y1="10.8" x2="36.8" y2="47.6" gradientUnits="userSpaceOnUse">
<stop stop-color="#11191E" stop-opacity="0.4"/>
<stop offset="1" stop-color="white"/>
</linearGradient>
<linearGradient id="paint1_linear_15091_38354" x1="7.89996" y1="11.567" x2="35.4" y2="45.3003" gradientUnits="userSpaceOnUse">
<stop stop-color="#11191E" stop-opacity="0.4"/>
<stop offset="1" stop-color="white"/>
</linearGradient>
<clipPath id="clip0_15091_38354">
<rect width="40" height="40" fill="white"/>
</clipPath>
</defs>
</svg>
