<svg width="22" height="22" viewBox="0 0 22 22" fill="none" xmlns="http://www.w3.org/2000/svg">
<rect width="22" height="22" rx="11" fill="#0099FF"/>
<path d="M14.2785 10.3827H11.159V7.26316C11.159 7.04879 10.9852 6.875 10.7708 6.875C10.5565 6.875 10.3827 7.04879 10.3827 7.26316V10.3827H7.26316C7.04879 10.3827 6.875 10.5565 6.875 10.7708C6.875 10.9852 7.04879 11.159 7.26316 11.159H10.3827V14.2785C10.3827 14.4929 10.5565 14.6667 10.7708 14.6667C10.9852 14.6667 11.159 14.4929 11.159 14.2785V11.159H14.2785C14.4929 11.159 14.6667 10.9852 14.6667 10.7708C14.6667 10.5565 14.4929 10.3827 14.2785 10.3827Z" fill="white"/>
</svg>
