<svg width="16" height="16" viewBox="0 0 16 16" fill="none" xmlns="http://www.w3.org/2000/svg">
<path d="M8.42135 6.02215C8.54164 5.96894 10.1656 5.96894 10.346 6.02215V7.13967C10.1656 7.13967 8.60179 7.19288 8.42135 7.13967V6.02215ZM5.83506 6.02215C6.0155 6.02215 7.5793 5.96894 7.75974 6.02215V7.13967C7.63945 7.19288 6.07565 7.19288 5.83506 7.13967V6.02215ZM11.0076 6.02215H12.6917L12.4511 7.13967H10.9475V6.02215H11.0076ZM5.17345 7.13967H3.6698C3.60965 6.98002 3.60965 6.76716 3.5495 6.5543L3.42921 5.96894H5.11331V7.08645L5.17345 7.13967ZM8.42135 3.52104C8.48149 3.46783 9.08296 3.46783 9.1431 3.52104C9.20325 3.57426 9.1431 3.46783 9.1431 3.57426V4.21284C9.02281 4.26606 8.54164 4.26606 8.3612 4.21284V3.84033C8.3612 3.78712 8.30106 3.52104 8.3612 3.52104H8.42135ZM6.97784 3.52104C7.03799 3.46783 7.5793 3.46783 7.69959 3.52104C7.75974 3.57426 7.75974 3.78712 7.75974 3.84033V4.21284C7.63945 4.26606 7.09813 4.26606 6.97784 4.21284V3.84033C6.97784 3.78712 6.91769 3.52104 7.03799 3.52104H6.97784ZM10.5265 4.21284H9.86486V3.84033C9.86486 3.78712 9.80471 3.57426 9.86486 3.52104C9.98515 3.46783 10.2859 3.52104 10.4663 3.52104H10.6468L10.5265 4.21284ZM5.47418 3.52104C5.53433 3.46783 5.47418 3.52104 5.53433 3.52104H6.25608C6.31623 3.57426 6.25608 3.46783 6.31623 3.57426V4.21284H5.77491C5.65462 4.21284 5.65462 4.21284 5.65462 4.15962L5.53433 3.52104H5.47418ZM7.69959 2.13745V2.88246C7.63945 2.93568 6.43652 2.93568 6.31623 2.88246H4.93287C4.57199 2.93568 4.63214 3.20175 4.69228 3.41461C4.81257 3.94676 5.05316 4.90464 5.17345 5.33036H3.85024C3.42921 5.33036 2.8879 5.27714 2.70746 5.49C2.58716 5.64965 2.7676 6.28823 2.82775 6.50109L3.18863 8.47005C3.36907 9.42792 3.24877 9.64078 3.85024 9.64078H5.77491V13.153C5.77491 14.9623 5.59448 14.643 7.03799 14.643C7.51916 14.643 9.80471 14.6962 9.98515 14.643C10.2859 14.5898 10.2257 14.2705 10.2257 14.0044V9.64078H12.391C12.5113 9.64078 12.5714 9.53435 12.6316 9.42792C12.6917 9.26827 13.1128 6.76716 13.1729 6.44787C13.233 6.23501 13.4135 5.59643 13.2932 5.43679C13.1128 5.22393 12.5714 5.27714 12.1504 5.27714H10.8873L11.3685 3.30818C11.4287 3.14854 11.4888 2.82925 11.1279 2.77603H8.42135C8.3612 2.6696 8.42135 2.45674 8.42135 2.35031V1.97781H8.48149C8.66193 1.97781 9.02281 2.03102 9.20325 1.92459C9.38369 1.87138 9.50398 1.71173 9.38369 1.49887C9.2634 1.28601 8.48149 1.33923 8.12062 1.33923H7.39886C7.15828 1.33923 6.97784 1.33923 6.85755 1.49887C6.73725 1.71173 6.91769 1.87138 7.03799 1.92459C7.15828 1.97781 7.45901 1.92459 7.63945 1.92459C7.75974 1.92459 7.75974 1.92459 7.75974 2.03102L7.69959 2.13745Z" fill="#71797E"/>
</svg>
