<svg width="16" height="16" viewBox="0 0 16 16" fill="none" xmlns="http://www.w3.org/2000/svg">
<path d="M14.3176 10.3517L12.9829 9.02448V5.75401C13.0007 4.53955 12.5735 3.35975 11.7803 2.43246C10.9871 1.50516 9.8814 0.892988 8.66739 0.70898C7.96283 0.617222 7.24658 0.675113 6.56643 0.878792C5.88628 1.08247 5.25788 1.42725 4.72315 1.89013C4.18842 2.35301 3.75966 2.92335 3.46548 3.56308C3.1713 4.20282 3.01846 4.89724 3.01717 5.60002V9.02448L1.68247 10.3517C1.51482 10.5203 1.40113 10.734 1.35562 10.9661C1.3101 11.1982 1.33478 11.4384 1.42656 11.6567C1.51834 11.875 1.67316 12.0617 1.87166 12.1935C2.07016 12.3253 2.30354 12.3963 2.54261 12.3976H5.03404V12.6469C5.06868 13.3914 5.40031 14.0919 5.95627 14.5949C6.51222 15.098 7.24716 15.3626 8.00004 15.3308C8.75292 15.3626 9.48786 15.098 10.0438 14.5949C10.5998 14.0919 10.9314 13.3914 10.966 12.6469V12.3976H13.4575C13.6965 12.3963 13.9299 12.3253 14.1284 12.1935C14.3269 12.0617 14.4817 11.875 14.5735 11.6567C14.6653 11.4384 14.69 11.1982 14.6445 10.9661C14.599 10.734 14.4853 10.5203 14.3176 10.3517ZM9.48304 12.6469C9.44192 12.9996 9.26477 13.3231 8.98851 13.5498C8.71225 13.7766 8.35817 13.8892 8.00004 13.8642C7.64191 13.8892 7.28783 13.7766 7.01157 13.5498C6.73531 13.3231 6.55816 12.9996 6.51704 12.6469V12.3976H9.48304V12.6469Z" fill="white"/>
</svg>
