<svg width="40" height="40" viewBox="0 0 40 40" fill="none" xmlns="http://www.w3.org/2000/svg">
<g clip-path="url(#clip0_14442_65901)">
<mask id="mask0_14442_65901" style="mask-type:alpha" maskUnits="userSpaceOnUse" x="0" y="0" width="40" height="40">
<path d="M20 0.799805C26.7982 0.799805 31.5477 2.32891 34.6094 5.39062C37.6711 8.45234 39.2002 13.2018 39.2002 20C39.2002 26.7982 37.6711 31.5477 34.6094 34.6094C31.5477 37.6711 26.7982 39.2002 20 39.2002C13.2018 39.2002 8.45234 37.6711 5.39062 34.6094C2.32891 31.5477 0.799805 26.7982 0.799805 20C0.799805 13.2018 2.32891 8.45234 5.39062 5.39062C8.45234 2.32891 13.2018 0.799805 20 0.799805Z" fill="#0099FF"/>
<path d="M20 0.799805C26.7982 0.799805 31.5477 2.32891 34.6094 5.39062C37.6711 8.45234 39.2002 13.2018 39.2002 20C39.2002 26.7982 37.6711 31.5477 34.6094 34.6094C31.5477 37.6711 26.7982 39.2002 20 39.2002C13.2018 39.2002 8.45234 37.6711 5.39062 34.6094C2.32891 31.5477 0.799805 26.7982 0.799805 20C0.799805 13.2018 2.32891 8.45234 5.39062 5.39062C8.45234 2.32891 13.2018 0.799805 20 0.799805Z" stroke="url(#paint0_linear_14442_65901)" stroke-width="1.6"/>
</mask>
<g mask="url(#mask0_14442_65901)">
<g filter="url(#filter0_di_14442_65901)">
<path d="M3.31456 10.8855C4.59422 7.36644 7.3662 4.59447 10.8853 3.3148V3.3148C11.6636 3.03176 12.4679 2.82579 13.2865 2.69985L15.1543 2.4125C18.3659 1.9184 21.6342 1.9184 24.8459 2.4125L26.7137 2.69985C27.5323 2.82579 28.3365 3.03176 29.1149 3.3148V3.3148C32.634 4.59447 35.4059 7.36644 36.6856 10.8855V10.8855C36.9686 11.6639 37.1746 12.4681 37.3006 13.2867L37.6429 15.5119C38.1 18.4834 38.0589 21.5103 37.521 24.4683L37.3454 25.4346C37.1895 26.2917 36.9615 27.1341 36.6638 27.9528L36.455 28.5271C35.3026 31.6962 33.0333 34.3357 30.0729 35.9505V35.9505C28.6647 36.7186 27.1337 37.2362 25.5483 37.4801L23.7156 37.762C21.2531 38.1409 18.7471 38.1409 16.2846 37.762L14.4519 37.4801C12.8665 37.2362 11.3354 36.7186 9.92721 35.9505V35.9505C6.96686 34.3357 4.69755 31.6962 3.54516 28.5271L3.33633 27.9528C3.03862 27.1341 2.81063 26.2917 2.6548 25.4346L2.47911 24.4683C1.9413 21.5103 1.90012 18.4834 2.35728 15.5119L2.69961 13.2867C2.82555 12.4681 3.03152 11.6639 3.31456 10.8855V10.8855Z" fill="#FF8401"/>
<path d="M15.2683 3.15332C18.4044 2.67086 21.5961 2.67085 24.7322 3.15332L26.5994 3.44141C27.1771 3.53029 27.7474 3.66152 28.3054 3.83398L28.8582 4.01953C32.0654 5.18582 34.6135 7.66986 35.864 10.834L35.9812 11.1416C36.1809 11.6909 36.3398 12.254 36.4568 12.8262L36.5593 13.4004L36.9011 15.626C37.3456 18.5151 37.3058 21.458 36.783 24.334L36.6072 25.3008C36.4589 26.1161 36.2419 26.9175 35.9587 27.6963L35.7498 28.2705C34.6598 31.2679 32.5136 33.7647 29.7136 35.292C28.3817 36.0185 26.9338 36.5086 25.4343 36.7393L23.6013 37.0205C21.2144 37.3877 18.7851 37.3877 16.3982 37.0205L14.5662 36.7393C13.254 36.5374 11.9808 36.1373 10.7908 35.5537L10.2859 35.292C7.66116 33.8602 5.61069 31.5766 4.46655 28.8271L4.24976 28.2705L4.04077 27.6963C3.75759 26.9175 3.54059 26.1161 3.39233 25.3008L3.21655 24.334C2.69369 21.4581 2.65392 18.515 3.09839 15.626L3.44116 13.4004C3.53003 12.8229 3.66137 12.2531 3.83374 11.6953L4.01929 11.1416C5.22314 7.83115 7.8309 5.22338 11.1414 4.01953C11.8735 3.75331 12.6302 3.55989 13.4001 3.44141L15.2683 3.15332Z" stroke="url(#paint1_linear_14442_65901)" stroke-width="1.5" style="mix-blend-mode:overlay"/>
</g>
<g filter="url(#filter1_ddii_14442_65901)">
<path d="M28.9451 25.5831C27.5094 22.9439 26.0829 20.3006 24.6657 17.6533L22.8802 14.3282C22.5081 13.6423 22.1399 12.9564 21.7639 12.2745C21.6325 12.0343 21.453 11.8245 21.2369 11.6587C21.0207 11.493 20.7728 11.3748 20.5089 11.3119C20.0524 11.196 19.5704 11.2438 19.1447 11.447C18.7189 11.6503 18.3757 11.9965 18.1732 12.4269L11.0474 25.6313C10.9121 25.8613 10.8229 26.1161 10.7849 26.381C10.7468 26.646 10.7607 26.916 10.8257 27.1755C10.9372 27.6402 11.2048 28.0512 11.5825 28.338C11.9602 28.6249 12.4246 28.7698 12.8962 28.7478H27.0884C27.3867 28.7502 27.683 28.6986 27.9633 28.5954C28.2269 28.4926 28.4658 28.3338 28.6638 28.1297C28.8618 27.9256 29.0144 27.681 29.1114 27.4122C29.2163 27.1133 29.2558 26.7949 29.227 26.4791C29.1983 26.1632 29.1021 25.8575 28.9451 25.5831ZM20.8177 25.8198H19.1867C19.1178 25.8255 19.0485 25.8164 18.9833 25.7929C18.9182 25.7694 18.8588 25.7321 18.809 25.6836C18.7592 25.635 18.7201 25.5762 18.6945 25.5112C18.6688 25.4462 18.6571 25.3763 18.6602 25.3064V23.5896C18.6577 23.5214 18.6696 23.4534 18.6948 23.3902C18.7201 23.3269 18.7583 23.2697 18.8069 23.2224C18.8554 23.1751 18.9133 23.1387 18.9767 23.1156C19.0401 23.0924 19.1076 23.0831 19.1748 23.0883H20.8296C20.8983 23.0824 20.9675 23.0916 21.0324 23.1151C21.0973 23.1386 21.1565 23.176 21.2061 23.2246C21.2556 23.2732 21.2942 23.3321 21.3194 23.3971C21.3446 23.4621 21.3558 23.5319 21.3521 23.6017V25.2943C21.3571 25.366 21.3466 25.4379 21.3212 25.5051C21.2959 25.5722 21.2564 25.6329 21.2055 25.683C21.1546 25.733 21.0935 25.7712 21.0265 25.7948C20.9595 25.8184 20.8883 25.827 20.8177 25.8198ZM21.4432 19.1976L21.3363 21.8368C21.3416 21.9026 21.3328 21.9688 21.3105 22.0309C21.2881 22.0929 21.2528 22.1493 21.2069 22.1962C21.161 22.243 21.1057 22.2793 21.0446 22.3024C20.9836 22.3256 20.9183 22.335 20.8533 22.3302H19.159C18.8304 22.3302 18.68 22.1697 18.6641 21.8288C18.6166 20.5052 18.5651 19.1775 18.5216 17.8499C18.5132 17.7734 18.5208 17.696 18.544 17.6227C18.5672 17.5494 18.6054 17.4819 18.6562 17.4247C18.7087 17.3733 18.7707 17.3331 18.8386 17.3062C18.9066 17.2793 18.9792 17.2664 19.0521 17.2683H20.9365C21.0831 17.2644 21.2253 17.3192 21.3323 17.4207C21.4353 17.5296 21.4921 17.675 21.4907 17.8258L21.4432 19.1976Z" fill="white"/>
</g>
</g>
</g>
<defs>
<filter id="filter0_di_14442_65901" x="0.0424805" y="1.04199" width="39.915" height="40.0039" filterUnits="userSpaceOnUse" color-interpolation-filters="sRGB">
<feFlood flood-opacity="0" result="BackgroundImageFix"/>
<feColorMatrix in="SourceAlpha" type="matrix" values="0 0 0 0 0 0 0 0 0 0 0 0 0 0 0 0 0 0 127 0" result="hardAlpha"/>
<feOffset dy="1"/>
<feGaussianBlur stdDeviation="1"/>
<feComposite in2="hardAlpha" operator="out"/>
<feColorMatrix type="matrix" values="0 0 0 0 0.0666667 0 0 0 0 0.0980392 0 0 0 0 0.117647 0 0 0 0.05 0"/>
<feBlend mode="normal" in2="BackgroundImageFix" result="effect1_dropShadow_14442_65901"/>
<feBlend mode="normal" in="SourceGraphic" in2="effect1_dropShadow_14442_65901" result="shape"/>
<feColorMatrix in="SourceAlpha" type="matrix" values="0 0 0 0 0 0 0 0 0 0 0 0 0 0 0 0 0 0 127 0" result="hardAlpha"/>
<feOffset dx="1.6" dy="1.6"/>
<feGaussianBlur stdDeviation="1.6"/>
<feComposite in2="hardAlpha" operator="arithmetic" k2="-1" k3="1"/>
<feColorMatrix type="matrix" values="0 0 0 0 0.0666667 0 0 0 0 0.0980392 0 0 0 0 0.117647 0 0 0 0.1 0"/>
<feBlend mode="normal" in2="shape" result="effect2_innerShadow_14442_65901"/>
</filter>
<filter id="filter1_ddii_14442_65901" x="-2.8096" y="-2.80985" width="46.4761" height="46.4759" filterUnits="userSpaceOnUse" color-interpolation-filters="sRGB">
<feFlood flood-opacity="0" result="BackgroundImageFix"/>
<feColorMatrix in="SourceAlpha" type="matrix" values="0 0 0 0 0 0 0 0 0 0 0 0 0 0 0 0 0 0 127 0" result="hardAlpha"/>
<feOffset dx="2.57143" dy="2.57143"/>
<feGaussianBlur stdDeviation="4.71429"/>
<feComposite in2="hardAlpha" operator="out"/>
<feColorMatrix type="matrix" values="0 0 0 0 1 0 0 0 0 0.266667 0 0 0 0 0 0 0 0 1 0"/>
<feBlend mode="normal" in2="BackgroundImageFix" result="effect1_dropShadow_14442_65901"/>
<feColorMatrix in="SourceAlpha" type="matrix" values="0 0 0 0 0 0 0 0 0 0 0 0 0 0 0 0 0 0 127 0" result="hardAlpha"/>
<feOffset dx="-2.57143" dy="-2.57143"/>
<feGaussianBlur stdDeviation="4.28571"/>
<feComposite in2="hardAlpha" operator="out"/>
<feColorMatrix type="matrix" values="0 0 0 0 1 0 0 0 0 1 0 0 0 0 1 0 0 0 0.4 0"/>
<feBlend mode="normal" in2="effect1_dropShadow_14442_65901" result="effect2_dropShadow_14442_65901"/>
<feBlend mode="normal" in="SourceGraphic" in2="effect2_dropShadow_14442_65901" result="shape"/>
<feColorMatrix in="SourceAlpha" type="matrix" values="0 0 0 0 0 0 0 0 0 0 0 0 0 0 0 0 0 0 127 0" result="hardAlpha"/>
<feOffset dy="-1.28571"/>
<feGaussianBlur stdDeviation="0.985714"/>
<feComposite in2="hardAlpha" operator="arithmetic" k2="-1" k3="1"/>
<feColorMatrix type="matrix" values="0 0 0 0 1 0 0 0 0 0.517647 0 0 0 0 0.00392157 0 0 0 0.4 0"/>
<feBlend mode="normal" in2="shape" result="effect3_innerShadow_14442_65901"/>
<feColorMatrix in="SourceAlpha" type="matrix" values="0 0 0 0 0 0 0 0 0 0 0 0 0 0 0 0 0 0 127 0" result="hardAlpha"/>
<feOffset dy="-0.428571"/>
<feGaussianBlur stdDeviation="0.557143"/>
<feComposite in2="hardAlpha" operator="arithmetic" k2="-1" k3="1"/>
<feColorMatrix type="matrix" values="0 0 0 0 1 0 0 0 0 1 0 0 0 0 1 0 0 0 0.6 0"/>
<feBlend mode="normal" in2="effect3_innerShadow_14442_65901" result="effect4_innerShadow_14442_65901"/>
</filter>
<linearGradient id="paint0_linear_14442_65901" x1="6.8" y1="10.8" x2="36.8" y2="47.6" gradientUnits="userSpaceOnUse">
<stop stop-color="#11191E" stop-opacity="0.4"/>
<stop offset="1" stop-color="white"/>
</linearGradient>
<linearGradient id="paint1_linear_14442_65901" x1="7.90008" y1="11.567" x2="35.4001" y2="45.3003" gradientUnits="userSpaceOnUse">
<stop stop-color="#11191E" stop-opacity="0.4"/>
<stop offset="1" stop-color="white"/>
</linearGradient>
<clipPath id="clip0_14442_65901">
<rect width="40" height="40" fill="white"/>
</clipPath>
</defs>
</svg>
