<svg width="16" height="16" viewBox="0 0 16 16" fill="none" xmlns="http://www.w3.org/2000/svg">
<rect width="16" height="16" rx="8" fill="#FF384C"/>
<path d="M4.51871 11.1111V8.44442C4.51871 7.50143 4.88549 6.59706 5.53836 5.93026C6.19123 5.26346 7.0767 4.88886 8 4.88886C8.9233 4.88886 9.80877 5.26346 10.4616 5.93026C11.1145 6.59706 11.4813 7.50143 11.4813 8.44442V11.1111H11.9164V12H4.08355V11.1111H4.51871ZM5.38903 8.44442H6.25936C6.25936 7.97292 6.44274 7.52074 6.76918 7.18734C7.09561 6.85394 7.53835 6.66664 8 6.66664V5.77775C7.30753 5.77775 6.64342 6.0587 6.15377 6.5588C5.66412 7.0589 5.38903 7.73717 5.38903 8.44442ZM7.56484 3.11108H8.43516V4.44442H7.56484V3.11108ZM11.3847 4.35908L12 4.98753L11.0775 5.9302L10.4617 5.30175L11.3847 4.35908ZM4 4.98753L4.61532 4.35908L5.53829 5.30131L4.92341 5.93064L4 4.98753Z" fill="white"/>
</svg>
