<svg width="24" height="24" viewBox="0 0 24 24" fill="none" xmlns="http://www.w3.org/2000/svg">
<path d="M10.2542 10.4699L9.88423 2.08789L11.8172 2.60589L14.6272 11.6409L19.8882 13.0509C20.0785 13.1018 20.2569 13.1898 20.4132 13.3097C20.5695 13.4296 20.7007 13.5791 20.7992 13.7497C20.8977 13.9202 20.9617 14.1085 20.9874 14.3038C21.0132 14.4991 21.0002 14.6976 20.9492 14.8879C20.8983 15.0782 20.8103 15.2566 20.6904 15.4129C20.5706 15.5692 20.4211 15.7003 20.2505 15.7988C20.0799 15.8974 19.8916 15.9613 19.6963 15.9871C19.501 16.0128 19.3025 15.9998 19.1122 15.9489L4.14023 11.9369L4.91623 9.03889L5.15823 9.10389L6.07223 12.4539L3.44523 11.7509C3.22996 11.693 3.04023 11.5648 2.90615 11.3867C2.77208 11.2086 2.70136 10.9908 2.70523 10.7679L2.79523 5.36489L4.24423 5.75289L5.15823 9.10389L10.2542 10.4699ZM4.00023 18.9999H20.0002V20.9999H4.00023V18.9999Z" fill="#0099FF"/>
</svg>
