<svg width="16" height="16" viewBox="0 0 16 16" fill="none" xmlns="http://www.w3.org/2000/svg">
<g id="endContent">
<rect id="Rectangle 10" opacity="0.1" x="1.33331" y="1.3335" width="13.3333" height="13.3333" rx="6.66667" fill="#11191E"/>
<path id="&#231;&#159;&#169;&#229;&#189;&#162;" fill-rule="evenodd" clip-rule="evenodd" d="M9.83751 8.08974C10.1069 8.49376 10.2415 8.69578 10.2315 8.8633C10.2228 9.00924 10.1507 9.14405 10.0341 9.23225C9.90025 9.3335 9.65745 9.3335 9.17187 9.3335L6.82817 9.3335C6.34259 9.3335 6.0998 9.3335 5.96596 9.23225C5.84937 9.14405 5.77721 9.00924 5.7685 8.8633C5.7585 8.69578 5.89318 8.49376 6.16253 8.08974L7.33438 6.33196C7.55694 5.99811 7.66822 5.83119 7.80849 5.77302C7.93111 5.72217 8.06893 5.72217 8.19156 5.77302C8.33182 5.83119 8.4431 5.99811 8.66566 6.33196L9.83751 8.08974Z" fill="#11191E"/>
</g>
</svg>
