<svg width="16" height="16" viewBox="0 0 16 16" fill="none" xmlns="http://www.w3.org/2000/svg">
<path d="M6.24155 2C7.84966 2 9.15793 3.38857 9.15793 5.09497C9.15877 5.56339 9.05845 6.02587 8.86457 6.44734C8.67069 6.86881 8.38834 7.23821 8.03892 7.52754L7.94299 7.60743L8.05616 7.65509C8.76146 7.95305 9.39202 8.41862 9.89874 9.01554C9.25744 9.26926 8.76314 9.69749 8.38656 10.2114C7.6295 11.2441 7.36544 12.6481 7.36544 13.6602C7.36544 13.7775 7.38137 13.8913 7.41064 13.9997H1.76095C1.64727 13.9992 1.53841 13.9512 1.45824 13.8663C1.37807 13.7813 1.33314 13.6663 1.33331 13.5464V12.4901C1.33331 10.3506 2.54761 8.45257 4.42661 7.65543L4.53978 7.60777L4.44417 7.52789C4.09467 7.23857 3.81219 6.8692 3.61815 6.44774C3.42411 6.02629 3.32358 5.5638 3.32418 5.09531C3.32418 3.38857 4.63311 2 6.24122 2H6.24155ZM10.5586 13.4456C10.5586 13.6434 10.6034 13.8317 10.6841 14H9.90004C10.1397 13.747 10.3449 13.5402 10.5586 13.4456ZM11.4834 7.86526C11.5975 7.81763 11.7221 7.80539 11.8425 7.83C11.9629 7.8546 12.0742 7.91502 12.1631 8.00411L14.4837 10.3678C14.7276 10.6153 14.7276 11.0151 14.4837 11.2582L12.1628 13.6218C12.0739 13.7109 11.9626 13.7714 11.8422 13.7961C11.7218 13.8207 11.5972 13.8086 11.4831 13.761C11.2522 13.6609 11.0987 13.4353 11.0987 13.1789V12.3663C10.5215 12.4966 10.1368 12.8919 9.57289 13.4699L9.23078 13.8128C9.11255 13.933 8.95469 14.0001 8.79046 14C8.70916 14 8.62786 13.9825 8.55111 13.952C8.32022 13.8522 8.17063 13.6263 8.17063 13.3698C8.17063 11.9665 8.79501 9.61589 11.0987 9.4856V8.45154C11.0987 8.19543 11.2525 7.96503 11.4834 7.86526Z" fill="#11191E"/>
</svg>
