<svg width="16" height="16" viewBox="0 0 16 16" xmlns="http://www.w3.org/2000/svg">
<path d="M6.24161 2C7.84972 2 9.158 3.38857 9.158 5.09497C9.15884 5.56339 9.05851 6.02587 8.86463 6.44734C8.67075 6.86881 8.3884 7.23821 8.03898 7.52754L7.94305 7.60743L8.05622 7.65509C8.76152 7.95305 9.39208 8.41862 9.8988 9.01554C9.25751 9.26926 8.7632 9.69749 8.38662 10.2114C7.62956 11.2441 7.3655 12.6481 7.3655 13.6602C7.3655 13.7775 7.38143 13.8913 7.4107 13.9997H1.76101C1.64733 13.9992 1.53847 13.9512 1.4583 13.8663C1.37813 13.7813 1.3332 13.6663 1.33337 13.5464V12.4901C1.33337 10.3506 2.54767 8.45257 4.42667 7.65543L4.53984 7.60777L4.44423 7.52789C4.09473 7.23857 3.81226 6.8692 3.61821 6.44774C3.42417 6.02629 3.32364 5.5638 3.32424 5.09531C3.32424 3.38857 4.63317 2 6.24128 2H6.24161ZM10.5586 13.4456C10.5586 13.6434 10.6035 13.8317 10.6842 14H9.9001C10.1398 13.747 10.345 13.5402 10.5586 13.4456ZM11.4835 7.86526C11.5975 7.81763 11.7221 7.80539 11.8426 7.83C11.963 7.8546 12.0742 7.91502 12.1632 8.00411L14.4838 10.3678C14.7277 10.6153 14.7277 11.0151 14.4838 11.2582L12.1628 13.6218C12.0739 13.7109 11.9627 13.7714 11.8423 13.7961C11.7219 13.8207 11.5973 13.8086 11.4832 13.761C11.2523 13.6609 11.0988 13.4353 11.0988 13.1789V12.3663C10.5216 12.4966 10.1368 12.8919 9.57295 13.4699L9.23084 13.8128C9.11261 13.933 8.95475 14.0001 8.79052 14C8.70922 14 8.62792 13.9825 8.55117 13.952C8.32028 13.8522 8.17069 13.6263 8.17069 13.3698C8.17069 11.9665 8.79507 9.61589 11.0988 9.4856V8.45154C11.0988 8.19543 11.2526 7.96503 11.4835 7.86526Z"/>
</svg>
