<?xml version="1.0" standalone="no"?><!DOCTYPE svg PUBLIC "-//W3C//DTD SVG 1.1//EN" "http://www.w3.org/Graphics/SVG/1.1/DTD/svg11.dtd"><svg t="1749694533884" class="icon" viewBox="0 0 1024 1024" version="1.1" xmlns="http://www.w3.org/2000/svg" p-id="13338" xmlns:xlink="http://www.w3.org/1999/xlink" width="200" height="200"><path d="M554.154667 619.221333c198.613333 0 359.509333 153.386667 359.509333 342.784h-81.493333c0-141.824-129.28-265.514667-278.058667-265.514666v-77.226667z m258.858666-298.794666c0 141.653333-114.773333 256.426667-256.170666 256.426666a256.341333 256.341333 0 0 1-256.170667-256.426666c0-141.653333 114.773333-256.426667 256.170667-256.426667a256.341333 256.341333 0 0 1 256.170666 256.426667z m-436.864 0c0 91.776 67.456 172.8 180.693334 172.8 105.130667 0 177.92-86.4 177.92-172.8 0-99.84-86.229333-170.026667-177.92-170.026667-113.237333 0-180.693333 78.250667-180.693334 170.026667z" fill="#8a8a8a" p-id="13339"></path><path d="M327.936 956.245333L512 755.456 327.936 554.666667v112.938666C220.842667 667.605333 85.333333 721.365333 85.333333 981.333333c43.52-157.781333 229.248-141.653333 242.602667-141.653333v116.565333z" fill="#8a8a8a" p-id="13340"></path></svg>