<svg width="40" height="40" viewBox="0 0 40 40" fill="none" xmlns="http://www.w3.org/2000/svg">
<g clip-path="url(#clip0_14574_78392)">
<mask id="mask0_14574_78392" style="mask-type:alpha" maskUnits="userSpaceOnUse" x="0" y="0" width="40" height="40">
<path d="M20 0.799805C26.7982 0.799805 31.5477 2.32891 34.6094 5.39062C37.6711 8.45234 39.2002 13.2018 39.2002 20C39.2002 26.7982 37.6711 31.5477 34.6094 34.6094C31.5477 37.6711 26.7982 39.2002 20 39.2002C13.2018 39.2002 8.45234 37.6711 5.39062 34.6094C2.32891 31.5477 0.799805 26.7982 0.799805 20C0.799805 13.2018 2.32891 8.45234 5.39062 5.39062C8.45234 2.32891 13.2018 0.799805 20 0.799805Z" fill="#0099FF"/>
<path d="M20 0.799805C26.7982 0.799805 31.5477 2.32891 34.6094 5.39062C37.6711 8.45234 39.2002 13.2018 39.2002 20C39.2002 26.7982 37.6711 31.5477 34.6094 34.6094C31.5477 37.6711 26.7982 39.2002 20 39.2002C13.2018 39.2002 8.45234 37.6711 5.39062 34.6094C2.32891 31.5477 0.799805 26.7982 0.799805 20C0.799805 13.2018 2.32891 8.45234 5.39062 5.39062C8.45234 2.32891 13.2018 0.799805 20 0.799805Z" stroke="url(#paint0_linear_14574_78392)" stroke-width="1.6"/>
</mask>
<g mask="url(#mask0_14574_78392)">
<g filter="url(#filter0_di_14574_78392)">
<path d="M3.31447 10.8845C4.59414 7.36546 7.36611 4.59349 10.8852 3.31383V3.31383C11.6636 3.03078 12.4678 2.82481 13.2864 2.69887L15.1542 2.41152C18.3658 1.91742 21.6342 1.91743 24.8458 2.41152L26.7136 2.69887C27.5322 2.82481 28.3364 3.03078 29.1148 3.31383V3.31383C32.6339 4.59349 35.4059 7.36546 36.6855 10.8845V10.8845C36.9686 11.6629 37.1745 12.4672 37.3005 13.2858L37.6428 15.5109C38.1 18.4824 38.0588 21.5094 37.521 24.4673L37.3453 25.4336C37.1894 26.2907 36.9615 27.1331 36.6637 27.9518L36.4549 28.5261C35.3025 31.6952 33.0332 34.3348 30.0729 35.9495V35.9495C28.6646 36.7176 27.1336 37.2352 25.5482 37.4791L23.7155 37.7611C21.253 38.1399 18.747 38.1399 16.2845 37.7611L14.4518 37.4791C12.8664 37.2352 11.3354 36.7176 9.92713 35.9495V35.9495C6.96678 34.3348 4.69747 31.6952 3.54508 28.5261L3.33625 27.9518C3.03854 27.1331 2.81055 26.2907 2.65471 25.4336L2.47903 24.4673C1.94121 21.5094 1.90004 18.4824 2.35719 15.5109L2.69952 13.2858C2.82546 12.4672 3.03143 11.6629 3.31447 10.8845V10.8845Z" fill="#0099FF"/>
<path d="M15.2682 3.15234C18.4043 2.66988 21.5961 2.66988 24.7321 3.15234L26.5993 3.44043C27.177 3.52931 27.7474 3.66055 28.3053 3.83301L28.8581 4.01855C32.0654 5.18484 34.6134 7.66888 35.8639 10.833L35.9811 11.1406C36.1809 11.6899 36.3397 12.2531 36.4567 12.8252L36.5592 13.3994L36.901 15.625C37.3455 18.5141 37.3058 21.457 36.7829 24.333L36.6071 25.2998C36.4588 26.1152 36.2419 26.9165 35.9587 27.6953L35.7497 28.2695C34.6597 31.2669 32.5135 33.7637 29.7135 35.291C28.3816 36.0175 26.9338 36.5076 25.4342 36.7383L23.6012 37.0195C21.2144 37.3867 18.785 37.3867 16.3981 37.0195L14.5661 36.7383C13.2539 36.5364 11.9807 36.1363 10.7907 35.5527L10.2858 35.291C7.66108 33.8592 5.6106 31.5756 4.46647 28.8262L4.24967 28.2695L4.04069 27.6953C3.7575 26.9165 3.54051 26.1151 3.39225 25.2998L3.21647 24.333C2.6936 21.4571 2.65384 18.5141 3.0983 15.625L3.44108 13.3994C3.52995 12.8219 3.66128 12.2521 3.83366 11.6943L4.0192 11.1406C5.22306 7.83017 7.83082 5.22241 11.1413 4.01855C11.8734 3.75233 12.6301 3.55891 13.4001 3.44043L15.2682 3.15234Z" stroke="url(#paint1_linear_14574_78392)" stroke-width="1.5" style="mix-blend-mode:overlay"/>
</g>
<g filter="url(#filter1_ddii_14574_78392)">
<path d="M17.4356 11.25C19.7808 11.25 21.6887 13.275 21.6887 15.7635C21.6899 16.4466 21.5436 17.1211 21.2609 17.7357C20.9781 18.3504 20.5664 18.8891 20.0568 19.311L19.9169 19.4275L20.0819 19.497C21.1105 19.9315 22.0301 20.6105 22.769 21.481C21.8338 21.851 21.1129 22.4755 20.5638 23.225C19.4597 24.731 19.0746 26.7785 19.0746 28.2545C19.0746 28.4255 19.0979 28.5915 19.1405 28.7495H10.9014C10.7356 28.7488 10.5769 28.6789 10.46 28.555C10.343 28.431 10.2775 28.2633 10.2778 28.0885V26.548C10.2778 23.428 12.0486 20.66 14.7888 19.4975L14.9539 19.428L14.8144 19.3115C14.3048 18.8896 13.8928 18.3509 13.6098 17.7363C13.3269 17.1217 13.1802 16.4472 13.1811 15.764C13.1811 13.275 15.09 11.25 17.4351 11.25H17.4356ZM23.7313 27.9415C23.7313 28.23 23.7967 28.5045 23.9143 28.75H22.7709C23.1204 28.381 23.4197 28.0795 23.7313 27.9415ZM25.08 19.8035C25.2464 19.734 25.4281 19.7162 25.6037 19.7521C25.7793 19.788 25.9415 19.8761 26.0712 20.006L29.4555 23.453C29.8111 23.814 29.8111 24.397 29.4555 24.7515L26.0707 28.1985C25.9411 28.3285 25.7789 28.4166 25.6033 28.4526C25.4276 28.4886 25.2459 28.4708 25.0796 28.4015C24.7428 28.2555 24.519 27.9265 24.519 27.5525V26.3675C23.6772 26.5575 23.1162 27.134 22.2938 27.977L21.7949 28.477C21.6225 28.6523 21.3923 28.7501 21.1528 28.75C21.0342 28.75 20.9157 28.7245 20.8037 28.68C20.467 28.5345 20.2489 28.205 20.2489 27.831C20.2489 25.7845 21.1594 22.3565 24.519 22.1665V20.6585C24.519 20.285 24.7433 19.949 25.08 19.8035Z" fill="white"/>
</g>
</g>
</g>
<defs>
<filter id="filter0_di_14574_78392" x="0.0424881" y="1.04102" width="39.915" height="40.0039" filterUnits="userSpaceOnUse" color-interpolation-filters="sRGB">
<feFlood flood-opacity="0" result="BackgroundImageFix"/>
<feColorMatrix in="SourceAlpha" type="matrix" values="0 0 0 0 0 0 0 0 0 0 0 0 0 0 0 0 0 0 127 0" result="hardAlpha"/>
<feOffset dy="1"/>
<feGaussianBlur stdDeviation="1"/>
<feComposite in2="hardAlpha" operator="out"/>
<feColorMatrix type="matrix" values="0 0 0 0 0.0666667 0 0 0 0 0.0980392 0 0 0 0 0.117647 0 0 0 0.05 0"/>
<feBlend mode="normal" in2="BackgroundImageFix" result="effect1_dropShadow_14574_78392"/>
<feBlend mode="normal" in="SourceGraphic" in2="effect1_dropShadow_14574_78392" result="shape"/>
<feColorMatrix in="SourceAlpha" type="matrix" values="0 0 0 0 0 0 0 0 0 0 0 0 0 0 0 0 0 0 127 0" result="hardAlpha"/>
<feOffset dx="1.6" dy="1.6"/>
<feGaussianBlur stdDeviation="1.6"/>
<feComposite in2="hardAlpha" operator="arithmetic" k2="-1" k3="1"/>
<feColorMatrix type="matrix" values="0 0 0 0 0.0666667 0 0 0 0 0.0980392 0 0 0 0 0.117647 0 0 0 0.1 0"/>
<feBlend mode="normal" in2="shape" result="effect2_innerShadow_14574_78392"/>
</filter>
<filter id="filter1_ddii_14574_78392" x="-2.80952" y="-2.80887" width="46.4762" height="46.4768" filterUnits="userSpaceOnUse" color-interpolation-filters="sRGB">
<feFlood flood-opacity="0" result="BackgroundImageFix"/>
<feColorMatrix in="SourceAlpha" type="matrix" values="0 0 0 0 0 0 0 0 0 0 0 0 0 0 0 0 0 0 127 0" result="hardAlpha"/>
<feOffset dx="2.57143" dy="2.57143"/>
<feGaussianBlur stdDeviation="4.71429"/>
<feComposite in2="hardAlpha" operator="out"/>
<feColorMatrix type="matrix" values="0 0 0 0 0.321569 0 0 0 0 0.435294 0 0 0 0 1 0 0 0 1 0"/>
<feBlend mode="normal" in2="BackgroundImageFix" result="effect1_dropShadow_14574_78392"/>
<feColorMatrix in="SourceAlpha" type="matrix" values="0 0 0 0 0 0 0 0 0 0 0 0 0 0 0 0 0 0 127 0" result="hardAlpha"/>
<feOffset dx="-2.57143" dy="-2.57143"/>
<feGaussianBlur stdDeviation="4.28571"/>
<feComposite in2="hardAlpha" operator="out"/>
<feColorMatrix type="matrix" values="0 0 0 0 1 0 0 0 0 1 0 0 0 0 1 0 0 0 0.4 0"/>
<feBlend mode="normal" in2="effect1_dropShadow_14574_78392" result="effect2_dropShadow_14574_78392"/>
<feBlend mode="normal" in="SourceGraphic" in2="effect2_dropShadow_14574_78392" result="shape"/>
<feColorMatrix in="SourceAlpha" type="matrix" values="0 0 0 0 0 0 0 0 0 0 0 0 0 0 0 0 0 0 127 0" result="hardAlpha"/>
<feOffset dy="-1.28571"/>
<feGaussianBlur stdDeviation="0.985714"/>
<feComposite in2="hardAlpha" operator="arithmetic" k2="-1" k3="1"/>
<feColorMatrix type="matrix" values="0 0 0 0 0 0 0 0 0 0.598039 0 0 0 0 1 0 0 0 0.4 0"/>
<feBlend mode="normal" in2="shape" result="effect3_innerShadow_14574_78392"/>
<feColorMatrix in="SourceAlpha" type="matrix" values="0 0 0 0 0 0 0 0 0 0 0 0 0 0 0 0 0 0 127 0" result="hardAlpha"/>
<feOffset dy="-0.428571"/>
<feGaussianBlur stdDeviation="0.557143"/>
<feComposite in2="hardAlpha" operator="arithmetic" k2="-1" k3="1"/>
<feColorMatrix type="matrix" values="0 0 0 0 1 0 0 0 0 1 0 0 0 0 1 0 0 0 0.6 0"/>
<feBlend mode="normal" in2="effect3_innerShadow_14574_78392" result="effect4_innerShadow_14574_78392"/>
</filter>
<linearGradient id="paint0_linear_14574_78392" x1="6.8" y1="10.8" x2="36.8" y2="47.6" gradientUnits="userSpaceOnUse">
<stop stop-color="#11191E" stop-opacity="0.4"/>
<stop offset="1" stop-color="white"/>
</linearGradient>
<linearGradient id="paint1_linear_14574_78392" x1="7.9" y1="11.566" x2="35.4" y2="45.2993" gradientUnits="userSpaceOnUse">
<stop stop-color="#11191E" stop-opacity="0.4"/>
<stop offset="1" stop-color="white"/>
</linearGradient>
<clipPath id="clip0_14574_78392">
<rect width="40" height="40" fill="white"/>
</clipPath>
</defs>
</svg>
