<?xml version="1.0" standalone="no"?><!DOCTYPE svg PUBLIC "-//W3C//DTD SVG 1.1//EN" "http://www.w3.org/Graphics/SVG/1.1/DTD/svg11.dtd"><svg t="1741852076269" class="icon" viewBox="0 0 1024 1024" version="1.1" xmlns="http://www.w3.org/2000/svg" p-id="29345" xmlns:xlink="http://www.w3.org/1999/xlink" width="200" height="200"><path d="M640.45 416.474c17.673 0 32 14.327 32 32 0 17.496-14.042 31.713-31.47 31.995l-0.53 0.005-394.5-0.001V840.7l73.314-73.371c12.491-12.502 32.753-12.51 45.254-0.018 12.377 12.367 12.509 32.348 0.39 44.877l-0.372 0.378-127.95 128.052-0.06 0.062-0.269 0.264 0.33-0.326a32.641 32.641 0 0 1-0.67 0.65 27.23 27.23 0 0 1-0.684 0.627c-0.2 0.18-0.402 0.357-0.606 0.53l-0.057 0.048a31.833 31.833 0 0 1-5.526 3.753l-0.115 0.06c-0.25 0.134-0.503 0.263-0.756 0.39l-0.144 0.07a28.695 28.695 0 0 1-0.5 0.24l-0.113 0.052A31.863 31.863 0 0 1 214.479 950h-0.634l-0.325-0.003 0.43 0.003a32.63 32.63 0 0 1-1.649-0.042l-0.148-0.008a31.833 31.833 0 0 1-9.827-2.127l-0.168-0.066a16.216 16.216 0 0 1-0.525-0.213l-0.051-0.022a31.85 31.85 0 0 1-9.858-6.5l-0.033-0.032-0.045-0.043-0.27-0.266-0.062-0.063-127.95-128.052c-12.492-12.502-12.484-32.763 0.018-45.255 12.376-12.367 32.358-12.483 44.877-0.353l0.377 0.371 73.314 73.372V448.474c0-17.497 14.042-31.713 31.47-32h427.03zM811.5 75.004l-0.45-0.004a32.632 32.632 0 0 1 1.649 0.042l0.148 0.008c3.45 0.19 6.754 0.928 9.827 2.127l0.168 0.066a16.225 16.225 0 0 1 0.525 0.213l0.051 0.022a31.85 31.85 0 0 1 9.858 6.5l0.033 0.032c0.108 0.105 0.212 0.206 0.315 0.309l0.062 0.063 127.95 128.052c12.492 12.502 12.484 32.763-0.018 45.255-12.376 12.367-32.358 12.483-44.877 0.353l-0.377-0.371-73.314-73.373v477.597c0 17.496-14.042 31.713-31.47 32H384.55c-17.673 0-32-14.327-32-32 0-17.497 14.042-31.713 31.47-31.996l0.53-0.004 394.499-0.001 0.001-445.596-73.314 73.373c-12.366 12.377-32.348 12.508-44.877 0.39l-0.377-0.372c-12.377-12.367-12.509-32.348-0.39-44.877l0.372-0.378 127.95-128.052 0.06-0.062 0.269-0.264-0.33 0.326a32.64 32.64 0 0 1 0.67-0.65 27.238 27.238 0 0 1 0.684-0.627c0.206-0.187 0.415-0.368 0.626-0.546 0.012-0.01 0.025-0.02 0.037-0.032l-0.037 0.032a31.871 31.871 0 0 1 5.563-3.785l0.115-0.06c0.25-0.134 0.503-0.263 0.756-0.39l0.144-0.07a28.698 28.698 0 0 1 0.5-0.24l0.113-0.052A31.863 31.863 0 0 1 810.521 75h0.77l0.209 0.003z" p-id="29346" fill="#8a8a8a"></path></svg>