<svg width="40" height="40" viewBox="0 0 40 40" fill="none" xmlns="http://www.w3.org/2000/svg">
<path d="M4.99902 3.37566C5.43 3.37566 5.84333 3.54686 6.14807 3.85161C6.45282 4.15635 6.62402 4.56968 6.62402 5.00066V33.3757H34.999C35.3885 33.3756 35.765 33.5154 36.06 33.7696C36.3551 34.0238 36.549 34.3755 36.6065 34.7607L36.624 35.0007C36.624 35.4316 36.4528 35.845 36.1481 36.1497C35.8433 36.4544 35.43 36.6257 34.999 36.6257H4.99902C4.56805 36.6257 4.15472 36.4544 3.84997 36.1497C3.54523 35.845 3.37402 35.4316 3.37402 35.0007V5.00066C3.37402 4.56968 3.54523 4.15635 3.84997 3.85161C4.15472 3.54686 4.56805 3.37566 4.99902 3.37566Z" fill="#0099FF"/>
<path d="M31.4772 21.7427C31.9288 21.5478 32.4389 21.5382 32.8976 21.716C33.3562 21.8937 33.7266 22.2446 33.929 22.6929C34.1313 23.1412 34.1494 23.6511 33.9793 24.1127C33.8092 24.5742 33.4646 24.9504 33.0197 25.1602L25.1897 28.6927C24.7959 28.8713 24.3526 28.9084 23.9347 28.7977L17.4172 27.0577L11.0547 31.3977C10.6835 31.6509 10.2338 31.7624 9.78734 31.7119C9.34089 31.6615 8.92741 31.4524 8.62216 31.1227L8.44966 30.9052C8.31073 30.7016 8.21332 30.4725 8.16301 30.2312C8.11269 29.9899 8.11046 29.741 8.15643 29.4988C8.20241 29.2566 8.2957 29.0259 8.43095 28.8198C8.5662 28.6137 8.74077 28.4362 8.94466 28.2977L16.0147 23.4777C16.2374 23.3258 16.4903 23.2237 16.756 23.1784C17.0218 23.1331 17.2942 23.1457 17.5547 23.2152L24.2547 24.9977L31.4797 21.7427H31.4772Z" fill="#7FCCFF"/>
<path d="M30.8172 6.2927C30.9765 6.10474 31.1712 5.94999 31.3902 5.83728C31.6092 5.72456 31.8483 5.6561 32.0938 5.63578C32.3393 5.61547 32.5864 5.64371 32.821 5.71889C33.0556 5.79407 33.273 5.91472 33.461 6.07395C33.649 6.23317 33.8037 6.42786 33.9164 6.6469C34.0291 6.86593 34.0976 7.10502 34.1179 7.35052C34.1382 7.59601 34.11 7.8431 34.0348 8.07768C33.9596 8.31227 33.839 8.52974 33.6797 8.7177L25.8498 17.9702C25.6054 18.2585 25.2796 18.4663 24.9151 18.5662C24.5507 18.6661 24.1645 18.6536 23.8072 18.5302L18.0747 16.5552L11.7097 30.6202C11.523 31.0333 11.193 31.3647 10.7807 31.5531C10.3684 31.7416 9.90179 31.7743 9.46725 31.6452L9.22975 31.5552C8.77705 31.3501 8.42429 30.9737 8.24897 30.5087C8.07365 30.0437 8.09011 29.5281 8.29475 29.0752L15.3647 13.4552C15.5573 13.0294 15.9019 12.6908 16.3311 12.5058C16.7602 12.3208 17.243 12.3028 17.6847 12.4552L23.8147 14.5702L30.8197 6.2952L30.8172 6.2927Z" fill="#0099FF"/>
</svg>
