<svg width="24" height="24" viewBox="0 0 24 24" fill="none" xmlns="http://www.w3.org/2000/svg">
<path d="M3.87921 3.00037C4.11252 3.00037 4.33628 3.09305 4.50125 3.25802C4.66623 3.423 4.75891 3.64675 4.75891 3.88007V19.241H20.1198C20.3306 19.2409 20.5345 19.3166 20.6942 19.4542C20.8539 19.5918 20.9589 19.7822 20.99 19.9907L20.9995 20.1207C20.9995 20.354 20.9068 20.5777 20.7419 20.7427C20.5769 20.9077 20.3531 21.0004 20.1198 21.0004H3.87921C3.6459 21.0004 3.42215 20.9077 3.25717 20.7427C3.09219 20.5777 2.99951 20.354 2.99951 20.1207V3.88007C2.99951 3.64675 3.09219 3.423 3.25717 3.25802C3.42215 3.09305 3.6459 3.00037 3.87921 3.00037Z" fill="#71797E"/>
<path d="M18.2129 12.9435C18.4574 12.838 18.7335 12.8328 18.9818 12.9291C19.2301 13.0253 19.4306 13.2152 19.5402 13.4579C19.6497 13.7006 19.6595 13.9767 19.5674 14.2265C19.4753 14.4764 19.2888 14.68 19.0479 14.7936L14.8091 16.7059C14.596 16.8026 14.356 16.8227 14.1297 16.7628L10.6014 15.8208L7.15709 18.1703C6.95617 18.3074 6.71271 18.3677 6.47102 18.3404C6.22933 18.3131 6.00549 18.1999 5.84025 18.0214L5.74686 17.9037C5.67165 17.7934 5.61892 17.6695 5.59168 17.5388C5.56444 17.4082 5.56323 17.2734 5.58812 17.1423C5.61301 17.0112 5.66351 16.8863 5.73673 16.7747C5.80995 16.6632 5.90445 16.5671 6.01483 16.4921L9.8422 13.8828C9.96278 13.8006 10.0997 13.7453 10.2435 13.7208C10.3874 13.6962 10.5349 13.703 10.6759 13.7407L14.303 14.7056L18.2142 12.9435H18.2129Z" fill="#A2AAAF"/>
<path d="M17.8559 4.57942C17.9421 4.47767 18.0475 4.39389 18.1661 4.33287C18.2847 4.27186 18.4141 4.23479 18.547 4.2238C18.6799 4.2128 18.8137 4.22809 18.9406 4.26879C19.0676 4.30948 19.1854 4.3748 19.2871 4.461C19.3889 4.5472 19.4726 4.65259 19.5337 4.77117C19.5947 4.88974 19.6317 5.01917 19.6427 5.15207C19.6537 5.28497 19.6385 5.41874 19.5978 5.54573C19.5571 5.67272 19.4917 5.79045 19.4055 5.8922L15.1667 10.9011C15.0345 11.0572 14.8581 11.1696 14.6608 11.2237C14.4635 11.2778 14.2544 11.271 14.061 11.2042L10.9577 10.1351L7.51201 17.7492C7.41092 17.9728 7.23224 18.1522 7.00905 18.2542C6.78586 18.3563 6.53326 18.374 6.29802 18.3041L6.16945 18.2554C5.92438 18.1443 5.73341 17.9406 5.6385 17.6888C5.54359 17.4371 5.55251 17.158 5.66329 16.9128L9.49065 8.45686C9.59488 8.22634 9.78144 8.04305 10.0138 7.94291C10.2461 7.84277 10.5074 7.833 10.7466 7.91551L14.0651 9.06047L17.8573 4.58077L17.8559 4.57942Z" fill="#71797E"/>
</svg>
