<svg width="21" height="21" viewBox="0 0 21 21" fill="none" xmlns="http://www.w3.org/2000/svg">
<circle cx="10.5" cy="10.5" r="10.5" fill="#DDEFFF"/>
<path d="M13.4334 9.62782H12.2439C11.9886 9.62782 11.2662 9.75896 11.0218 9.59931C10.9729 9.41685 11.1305 9.08614 11.1739 8.92648C11.2988 8.46463 11.4183 8.00848 11.5433 7.54092L12.0756 5.52814C12.1462 5.26586 11.8203 5.15182 11.6845 5.35139L7.38266 11.5494C7.28489 11.6919 7.42068 11.8915 7.57277 11.8915H9.31631C9.4358 11.8915 9.89749 11.8117 9.97353 11.9314C10.0441 12.0283 9.90835 12.3305 9.88119 12.4389C9.5553 13.6249 9.24026 14.8109 8.92523 15.9969C8.85462 16.2591 9.18052 16.3732 9.31631 16.1736L13.6127 9.97564C13.7159 9.82739 13.5855 9.62782 13.4334 9.62782Z" fill="#0099FF"/>
</svg>
