<svg width="16" height="16" viewBox="0 0 16 16" fill="none" xmlns="http://www.w3.org/2000/svg">
<g id="endContent">
<path id="Vector (Stroke)" fill-rule="evenodd" clip-rule="evenodd" d="M13.1363 2.93327C13.3078 2.76581 13.5207 2.66675 13.763 2.66675C14.0135 2.66675 14.2294 2.77592 14.3966 2.95718C14.5641 3.13878 14.6576 3.36479 14.6662 3.61812C14.6749 3.87394 14.5943 4.1076 14.4353 4.30031C14.4307 4.30587 14.426 4.3113 14.4211 4.31659L6.24873 13.2075C6.17479 13.288 6.07273 13.3334 5.96606 13.3334C5.85939 13.3334 5.75732 13.288 5.68339 13.2075L1.59721 8.76205C1.59388 8.75844 1.59063 8.75476 1.58743 8.75102C1.3671 8.49301 1.28317 8.17314 1.36322 7.83285C1.44444 7.48762 1.66796 7.24447 1.9945 7.14604C2.14727 7.09999 2.30994 7.08985 2.47222 7.1354C2.63452 7.18095 2.77049 7.27492 2.88069 7.39481L5.96574 10.7511L13.121 2.94912C13.1259 2.94369 13.1311 2.93841 13.1363 2.93327Z" fill="#11191E"/>
</g>
</svg>
