<svg width="24" height="24" viewBox="0 0 24 24" fill="none" xmlns="http://www.w3.org/2000/svg">
<mask id="mask0_16142_67108" style="mask-type:alpha" maskUnits="userSpaceOnUse" x="0" y="0" width="24" height="24">
<path d="M12 0.533203C16.0721 0.533203 18.9047 1.44965 20.7275 3.27246C22.5504 5.09527 23.4668 7.92787 23.4668 12C23.4668 16.0721 22.5504 18.9047 20.7275 20.7275C18.9047 22.5504 16.0721 23.4668 12 23.4668C7.92787 23.4668 5.09527 22.5504 3.27246 20.7275C1.44965 18.9047 0.533203 16.0721 0.533203 12C0.533203 7.92787 1.44965 5.09527 3.27246 3.27246C5.09527 1.44965 7.92787 0.533203 12 0.533203Z" fill="#0099FF"/>
<path d="M12 0.533203C16.0721 0.533203 18.9047 1.44965 20.7275 3.27246C22.5504 5.09527 23.4668 7.92787 23.4668 12C23.4668 16.0721 22.5504 18.9047 20.7275 20.7275C18.9047 22.5504 16.0721 23.4668 12 23.4668C7.92787 23.4668 5.09527 22.5504 3.27246 20.7275C1.44965 18.9047 0.533203 16.0721 0.533203 12C0.533203 7.92787 1.44965 5.09527 3.27246 3.27246C5.09527 1.44965 7.92787 0.533203 12 0.533203Z" stroke="url(#paint0_linear_16142_67108)" stroke-width="1.06667"/>
</mask>
<g mask="url(#mask0_16142_67108)">
<g filter="url(#filter0_di_16142_67108)">
<path d="M1.98869 6.53111C2.75648 4.41967 4.41967 2.75648 6.53111 1.98869V1.98869C6.99813 1.81886 7.48069 1.69528 7.97185 1.61972L9.09252 1.44731C11.0195 1.15085 12.9805 1.15085 14.9075 1.44731L16.0281 1.61972C16.5193 1.69528 17.0019 1.81886 17.4689 1.98869V1.98869C19.5803 2.75648 21.2435 4.41967 22.0113 6.53111V6.53111C22.1811 6.99813 22.3047 7.48069 22.3803 7.97185L22.5857 9.30694C22.86 11.0899 22.8353 12.906 22.5126 14.6808L22.4072 15.2606C22.3137 15.7748 22.1769 16.2803 21.9982 16.7715L21.873 17.1161C21.1815 19.0175 19.8199 20.6012 18.0437 21.5701V21.5701C17.1988 22.031 16.2802 22.3415 15.3289 22.4879L14.2293 22.657C12.7518 22.8843 11.2482 22.8843 9.7707 22.657L8.6711 22.4879C7.71982 22.3415 6.80122 22.031 5.95628 21.5701V21.5701C4.18007 20.6012 2.81848 19.0175 2.12705 17.1161L2.00175 16.7715C1.82313 16.2803 1.68633 15.7748 1.59283 15.2606L1.48742 14.6808C1.16473 12.906 1.14002 11.0898 1.41432 9.30694L1.61972 7.97185C1.69528 7.48069 1.81886 6.99813 1.98869 6.53111V6.53111Z" fill="#0099FF"/>
<path d="M9.16895 1.94141C11.0453 1.65278 12.9547 1.65278 14.8311 1.94141L15.9521 2.11426C16.4109 2.18485 16.8616 2.30035 17.2979 2.45898C19.2703 3.17624 20.8238 4.7297 21.541 6.70215C21.6996 7.13839 21.8152 7.58906 21.8857 8.04785L22.0918 9.38281C22.3576 11.1108 22.3333 12.8717 22.0205 14.5918L21.915 15.1709C21.8266 15.6574 21.6973 16.1358 21.5283 16.6006L21.4033 16.9453C20.7536 18.7322 19.4738 20.2203 17.8047 21.1309C17.0106 21.564 16.1469 21.8566 15.2529 21.9941L14.1533 22.1631C12.7262 22.3826 11.2738 22.3826 9.84668 22.1631L8.74707 21.9941C7.85305 21.8566 6.9894 21.564 6.19531 21.1309C4.52622 20.2203 3.24645 18.7322 2.59668 16.9453L2.47168 16.6006C2.30268 16.1358 2.17342 15.6574 2.08496 15.1709L1.97949 14.5918C1.66674 12.8717 1.64236 11.1108 1.9082 9.38281L2.11426 8.04785C2.18485 7.58906 2.30035 7.13839 2.45898 6.70215C3.17624 4.7297 4.7297 3.17624 6.70215 2.45898C7.13839 2.30035 7.58906 2.18485 8.04785 2.11426L9.16895 1.94141Z" stroke="url(#paint1_linear_16142_67108)" style="mix-blend-mode:overlay"/>
</g>
<g filter="url(#filter1_ddii_16142_67108)">
<path d="M15.3877 12.3301H8.60265C8.41832 12.3301 8.26899 12.4715 8.26666 12.6442C8.23633 14.6994 7.89801 15.8324 7.40103 16.8734C7.23303 17.2099 7.38703 17.6115 7.74401 17.7686C7.83734 17.8112 7.94001 17.8337 8.04267 17.8337H8.49065C8.8873 17.8337 9.20696 17.5308 9.20696 17.1583C9.19964 17.13 9.19826 17.1006 9.2029 17.0718C9.20753 17.043 9.21808 17.0154 9.23393 16.9905C9.24979 16.9657 9.27063 16.9441 9.29524 16.9271C9.31985 16.9101 9.34774 16.8979 9.37728 16.8914C9.43667 16.8768 9.49965 16.8853 9.55251 16.9152C9.60538 16.945 9.64386 16.9937 9.6596 17.0506C9.66894 17.0865 9.66894 17.1224 9.6596 17.1583V17.6138C9.6596 17.7349 9.7646 17.8337 9.89293 17.8337H10.3596C10.7562 17.8337 11.0759 17.5308 11.0759 17.1583C11.0686 17.13 11.0672 17.1006 11.0718 17.0718C11.0765 17.043 11.087 17.0154 11.1029 16.9905C11.1187 16.9657 11.1396 16.9441 11.1642 16.9271C11.1888 16.9101 11.2167 16.8979 11.2462 16.8914C11.3056 16.8768 11.3686 16.8853 11.4214 16.9152C11.4743 16.945 11.5128 16.9937 11.5285 17.0506C11.5379 17.0865 11.5379 17.1224 11.5285 17.1583V17.6138C11.5285 17.7349 11.6335 17.8337 11.7619 17.8337H11.7852C12.1748 17.8269 12.4875 17.5263 12.4875 17.1583C12.4802 17.13 12.4788 17.1006 12.4834 17.0718C12.4881 17.043 12.4986 17.0154 12.5145 16.9905C12.5303 16.9657 12.5512 16.9441 12.5758 16.9271C12.6004 16.9101 12.6283 16.8979 12.6578 16.8914C12.7172 16.8768 12.7802 16.8853 12.833 16.9152C12.8859 16.945 12.9244 16.9937 12.9401 17.0506C12.9495 17.0865 12.9495 17.1224 12.9401 17.1583C12.9401 17.5308 13.2598 17.8337 13.6541 17.8337H15.957C16.3513 17.8314 16.6687 17.5285 16.6663 17.1561C16.6663 17.0596 16.643 16.9631 16.5987 16.8734C16.0924 15.8324 15.754 14.7039 15.7237 12.6442C15.7214 12.4715 15.572 12.3301 15.3877 12.3301ZM11.7712 6.16699C10.8052 6.1984 10.5019 7.43911 10.5066 7.48847L10.1869 8.79424C10.2196 9.05449 10.4529 9.24968 10.7306 9.24968H11.0595C11.1879 9.24968 11.2929 9.3484 11.2929 9.46956C11.2929 9.59071 11.1879 9.68943 11.0595 9.68943H9.44961C8.79397 9.68943 8.26199 10.1897 8.25966 10.8067V11.5651C8.25966 11.7446 8.41365 11.8904 8.60498 11.8904H15.3714C15.5627 11.8904 15.7167 11.7446 15.7167 11.5651V10.8112C15.7167 10.192 15.1847 9.68943 14.5267 9.68943H13.3485C13.1735 9.68943 13.0311 9.55481 13.0311 9.38879C13.0311 9.37981 13.0311 9.36859 13.0335 9.35962L13.2388 7.53558C13.3251 6.86699 12.8211 6.25898 12.1142 6.17597C12.0768 6.17148 11.8085 6.16924 11.7712 6.16699Z" fill="white"/>
</g>
</g>
<defs>
<filter id="filter0_di_16142_67108" x="-0.107747" y="0.557943" width="24.2155" height="24.2692" filterUnits="userSpaceOnUse" color-interpolation-filters="sRGB">
<feFlood flood-opacity="0" result="BackgroundImageFix"/>
<feColorMatrix in="SourceAlpha" type="matrix" values="0 0 0 0 0 0 0 0 0 0 0 0 0 0 0 0 0 0 127 0" result="hardAlpha"/>
<feOffset dy="0.666667"/>
<feGaussianBlur stdDeviation="0.666667"/>
<feComposite in2="hardAlpha" operator="out"/>
<feColorMatrix type="matrix" values="0 0 0 0 0.0666667 0 0 0 0 0.0980392 0 0 0 0 0.117647 0 0 0 0.05 0"/>
<feBlend mode="normal" in2="BackgroundImageFix" result="effect1_dropShadow_16142_67108"/>
<feBlend mode="normal" in="SourceGraphic" in2="effect1_dropShadow_16142_67108" result="shape"/>
<feColorMatrix in="SourceAlpha" type="matrix" values="0 0 0 0 0 0 0 0 0 0 0 0 0 0 0 0 0 0 127 0" result="hardAlpha"/>
<feOffset dx="1.06667" dy="1.06667"/>
<feGaussianBlur stdDeviation="1.06667"/>
<feComposite in2="hardAlpha" operator="arithmetic" k2="-1" k3="1"/>
<feColorMatrix type="matrix" values="0 0 0 0 0.0666667 0 0 0 0 0.0980392 0 0 0 0 0.117647 0 0 0 0.1 0"/>
<feBlend mode="normal" in2="shape" result="effect2_innerShadow_16142_67108"/>
</filter>
<filter id="filter1_ddii_16142_67108" x="-2.42857" y="-2.42857" width="29.4286" height="29.4286" filterUnits="userSpaceOnUse" color-interpolation-filters="sRGB">
<feFlood flood-opacity="0" result="BackgroundImageFix"/>
<feColorMatrix in="SourceAlpha" type="matrix" values="0 0 0 0 0 0 0 0 0 0 0 0 0 0 0 0 0 0 127 0" result="hardAlpha"/>
<feOffset dx="1.71429" dy="1.71429"/>
<feGaussianBlur stdDeviation="3.14286"/>
<feComposite in2="hardAlpha" operator="out"/>
<feColorMatrix type="matrix" values="0 0 0 0 0.321569 0 0 0 0 0.435294 0 0 0 0 1 0 0 0 1 0"/>
<feBlend mode="normal" in2="BackgroundImageFix" result="effect1_dropShadow_16142_67108"/>
<feColorMatrix in="SourceAlpha" type="matrix" values="0 0 0 0 0 0 0 0 0 0 0 0 0 0 0 0 0 0 127 0" result="hardAlpha"/>
<feOffset dx="-1.71429" dy="-1.71429"/>
<feGaussianBlur stdDeviation="2.85714"/>
<feComposite in2="hardAlpha" operator="out"/>
<feColorMatrix type="matrix" values="0 0 0 0 1 0 0 0 0 1 0 0 0 0 1 0 0 0 0.4 0"/>
<feBlend mode="normal" in2="effect1_dropShadow_16142_67108" result="effect2_dropShadow_16142_67108"/>
<feBlend mode="normal" in="SourceGraphic" in2="effect2_dropShadow_16142_67108" result="shape"/>
<feColorMatrix in="SourceAlpha" type="matrix" values="0 0 0 0 0 0 0 0 0 0 0 0 0 0 0 0 0 0 127 0" result="hardAlpha"/>
<feOffset dy="-0.857143"/>
<feGaussianBlur stdDeviation="0.657143"/>
<feComposite in2="hardAlpha" operator="arithmetic" k2="-1" k3="1"/>
<feColorMatrix type="matrix" values="0 0 0 0 0 0 0 0 0 0.598039 0 0 0 0 1 0 0 0 0.4 0"/>
<feBlend mode="normal" in2="shape" result="effect3_innerShadow_16142_67108"/>
<feColorMatrix in="SourceAlpha" type="matrix" values="0 0 0 0 0 0 0 0 0 0 0 0 0 0 0 0 0 0 127 0" result="hardAlpha"/>
<feOffset dy="-0.285714"/>
<feGaussianBlur stdDeviation="0.371429"/>
<feComposite in2="hardAlpha" operator="arithmetic" k2="-1" k3="1"/>
<feColorMatrix type="matrix" values="0 0 0 0 1 0 0 0 0 1 0 0 0 0 1 0 0 0 0.6 0"/>
<feBlend mode="normal" in2="effect3_innerShadow_16142_67108" result="effect4_innerShadow_16142_67108"/>
</filter>
<linearGradient id="paint0_linear_16142_67108" x1="4.08" y1="6.48" x2="22.08" y2="28.56" gradientUnits="userSpaceOnUse">
<stop stop-color="#11191E" stop-opacity="0.4"/>
<stop offset="1" stop-color="white"/>
</linearGradient>
<linearGradient id="paint1_linear_16142_67108" x1="4.74" y1="6.94" x2="21.24" y2="27.18" gradientUnits="userSpaceOnUse">
<stop stop-color="#11191E" stop-opacity="0.4"/>
<stop offset="1" stop-color="white"/>
</linearGradient>
</defs>
</svg>
