<svg width="21" height="21" viewBox="0 0 21 21" fill="none" xmlns="http://www.w3.org/2000/svg">
<circle cx="10.5" cy="10.5" r="10.5" fill="#DDEFFF"/>
<path d="M13.0005 8.98992H11.5002V4.98429C11.4956 4.72168 11.3883 4.47137 11.2012 4.28727C11.0142 4.10316 10.7624 4 10.5001 4C10.2379 4 9.98607 4.10316 9.79902 4.28727C9.61197 4.47137 9.50461 4.72168 9.50007 4.98429V8.99052H8.00006C7.86877 8.99046 7.73875 9.01631 7.61744 9.06658C7.49613 9.11685 7.3859 9.19057 7.29304 9.28351C7.20019 9.37646 7.12653 9.48681 7.07627 9.60828C7.02602 9.72974 7.00015 9.85993 7.00015 9.9914V10.9929H14.0001V9.9914C14.0001 9.85991 13.9743 9.7297 13.9241 9.60821C13.8739 9.48671 13.8003 9.37632 13.7074 9.28332C13.6146 9.19032 13.5044 9.11654 13.3831 9.0662C13.2618 9.01586 13.1318 8.98994 13.0005 8.98992ZM7 16H15C14.6825 15.6827 14.4307 15.3057 14.2591 14.8906C14.0875 14.4755 13.9995 14.0306 14.0001 13.5814V11.744H7V16Z" fill="#0099FF"/>
</svg>
