<svg width="44" height="40" viewBox="0 0 44 40" fill="none" xmlns="http://www.w3.org/2000/svg">
<g filter="url(#filter0_i_1208_29946)">
<path d="M2 20C2 6.2 8.2 0 22 0C35.8 0 42 6.2 42 20C42 33.8 35.8 40 22 40C8.2 40 2 33.8 2 20Z" fill="#0099FF"/>
</g>
<path d="M3 20C3 13.2273 4.52371 8.5405 7.53211 5.53211C10.5405 2.52371 15.2273 1 22 1C28.7727 1 33.4595 2.52371 36.4679 5.53211C39.4763 8.5405 41 13.2273 41 20C41 26.7727 39.4763 31.4595 36.4679 34.4679C33.4595 37.4763 28.7727 39 22 39C15.2273 39 10.5405 37.4763 7.53211 34.4679C4.52371 31.4595 3 26.7727 3 20Z" stroke="url(#paint0_linear_1208_29946)" stroke-width="2" style="mix-blend-mode:overlay"/>
<g filter="url(#filter1_ddii_1208_29946)">
<path d="M15.8049 12.5C16.814 12.5 17.7818 12.9116 18.4954 13.6441C19.2089 14.3767 19.6098 15.3703 19.6098 16.4063C19.6098 16.6457 19.5172 16.8753 19.3523 17.0445C19.1874 17.2138 18.9638 17.3089 18.7306 17.3089C18.4974 17.3089 18.2738 17.2138 18.1089 17.0445C17.9441 16.8753 17.8514 16.6457 17.8514 16.4063C17.8569 16.1269 17.808 15.8492 17.7076 15.5894C17.6072 15.3297 17.4573 15.0931 17.2668 14.8936C17.0763 14.694 16.8489 14.5355 16.5979 14.4272C16.347 14.319 16.0775 14.2633 15.8053 14.2633C15.5331 14.2633 15.2637 14.319 15.0127 14.4272C14.7618 14.5355 14.5344 14.694 14.3438 14.8936C14.1533 15.0931 14.0034 15.3297 13.903 15.5894C13.8027 15.8492 13.7537 16.1269 13.7592 16.4063V23.3372C13.7537 23.6166 13.8027 23.8943 13.903 24.1541C14.0034 24.4138 14.1533 24.6504 14.3438 24.8499C14.5344 25.0495 14.7618 25.208 15.0127 25.3163C15.2637 25.4245 15.5331 25.4802 15.8053 25.4802C16.0775 25.4802 16.347 25.4245 16.5979 25.3163C16.8489 25.208 17.0763 25.0495 17.2668 24.8499C17.4573 24.6504 17.6072 24.4138 17.7076 24.1541C17.808 23.8943 17.8569 23.6166 17.8514 23.3372C17.8514 23.0978 17.9441 22.8682 18.1089 22.699C18.2738 22.5297 18.4974 22.4346 18.7306 22.4346C18.9638 22.4346 19.1874 22.5297 19.3523 22.699C19.5172 22.8682 19.6098 23.0978 19.6098 23.3372C19.6098 24.3732 19.2089 25.3668 18.4954 26.0994C17.7818 26.832 16.814 27.2435 15.8049 27.2435C14.7958 27.2435 13.828 26.832 13.1144 26.0994C12.4009 25.3668 12 24.3732 12 23.3372V16.4063C12.0011 15.3706 12.4023 14.3777 13.1156 13.6454C13.8289 12.913 14.7961 12.5011 15.8049 12.5ZM24.3567 12.5C25.3655 12.5011 26.3327 12.913 27.046 13.6454C27.7593 14.3777 28.1605 15.3706 28.1616 16.4063V23.3372C28.1616 24.3732 27.7608 25.3668 27.0472 26.0994C26.3336 26.832 25.3659 27.2435 24.3567 27.2435C23.3476 27.2435 22.3798 26.832 21.6663 26.0994C20.9527 25.3668 20.5518 24.3732 20.5518 23.3372V16.4063C20.5529 15.3706 20.9541 14.3777 21.6675 13.6454C22.3808 12.913 23.3479 12.5011 24.3567 12.5ZM24.3567 25.4383C24.8993 25.4376 25.4195 25.216 25.8031 24.8222C26.1868 24.4283 26.4026 23.8942 26.4033 23.3372V16.4063C26.4087 16.1269 26.3598 15.8492 26.2594 15.5894C26.159 15.3297 26.0092 15.0931 25.8186 14.8936C25.6281 14.694 25.4007 14.5355 25.1497 14.4272C24.8988 14.319 24.6293 14.2633 24.3571 14.2633C24.085 14.2633 23.8155 14.319 23.5645 14.4272C23.3136 14.5355 23.0862 14.694 22.8956 14.8936C22.7051 15.0931 22.5553 15.3297 22.4549 15.5894C22.3545 15.8492 22.3056 16.1269 22.311 16.4063V23.3372C22.3117 23.8941 22.5274 24.428 22.9109 24.8219C23.2943 25.2157 23.8143 25.4374 24.3567 25.4383ZM30.4482 21.1414C30.5415 21.1414 30.6346 21.1498 30.7265 21.1666C31.0735 21.2208 31.3909 21.3981 31.6236 21.6678C31.8563 21.9374 31.9895 22.2824 32 22.6425V22.6575C31.9821 23.1043 31.8489 23.5382 31.6139 23.9146L31.0604 25.0503C30.8971 25.4064 30.7216 25.7743 30.5527 26.1398L31.3216 26.159C31.4948 26.159 31.6609 26.2297 31.7834 26.3554C31.9059 26.4811 31.9747 26.6517 31.9747 26.8295C31.9747 27.0073 31.9059 27.1778 31.7834 27.3036C31.6609 27.4293 31.4948 27.5 31.3216 27.5H29.5192C29.4065 27.5013 29.2954 27.4727 29.1967 27.4169C29.098 27.3611 29.0151 27.28 28.9559 27.1816C28.8967 27.0831 28.8634 26.9706 28.8591 26.8551C28.8548 26.7395 28.8797 26.6247 28.9314 26.5219C29.1282 26.1029 29.3314 25.6637 29.529 25.2346C29.6449 24.9832 29.76 24.7318 29.8751 24.4804L30.4645 23.2777C30.579 23.0989 30.6562 22.8978 30.6914 22.6869C30.6871 22.6404 30.6677 22.5968 30.6363 22.5631C30.6049 22.5293 30.5634 22.5074 30.5184 22.5008L30.4939 22.4958C30.4382 22.4807 30.3792 22.4861 30.3271 22.5113C30.275 22.5364 30.2332 22.5796 30.209 22.6332C30.14 22.7968 30.0106 22.9256 29.8492 22.9912C29.6877 23.0568 29.5075 23.0539 29.3482 22.9831C29.1888 22.9123 29.0634 22.7795 28.9995 22.6137C28.9356 22.448 28.9384 22.263 29.0073 22.0994C29.1319 21.814 29.3342 21.5718 29.5899 21.4018C29.8455 21.2318 30.1436 21.1414 30.4482 21.1414Z" fill="white"/>
</g>
<defs>
<filter id="filter0_i_1208_29946" x="2" y="0" width="42" height="42" filterUnits="userSpaceOnUse" color-interpolation-filters="sRGB">
<feFlood flood-opacity="0" result="BackgroundImageFix"/>
<feBlend mode="normal" in="SourceGraphic" in2="BackgroundImageFix" result="shape"/>
<feColorMatrix in="SourceAlpha" type="matrix" values="0 0 0 0 0 0 0 0 0 0 0 0 0 0 0 0 0 0 127 0" result="hardAlpha"/>
<feOffset dx="2" dy="2"/>
<feGaussianBlur stdDeviation="2"/>
<feComposite in2="hardAlpha" operator="arithmetic" k2="-1" k3="1"/>
<feColorMatrix type="matrix" values="0 0 0 0 0.0666667 0 0 0 0 0.0980392 0 0 0 0 0.117647 0 0 0 0.1 0"/>
<feBlend mode="normal" in2="shape" result="effect1_innerShadow_1208_29946"/>
</filter>
<filter id="filter1_ddii_1208_29946" x="-1.14286" y="-3.14286" width="47.1429" height="47.1429" filterUnits="userSpaceOnUse" color-interpolation-filters="sRGB">
<feFlood flood-opacity="0" result="BackgroundImageFix"/>
<feColorMatrix in="SourceAlpha" type="matrix" values="0 0 0 0 0 0 0 0 0 0 0 0 0 0 0 0 0 0 127 0" result="hardAlpha"/>
<feOffset dx="2.57143" dy="2.57143"/>
<feGaussianBlur stdDeviation="4.71429"/>
<feComposite in2="hardAlpha" operator="out"/>
<feColorMatrix type="matrix" values="0 0 0 0 0.321569 0 0 0 0 0.435294 0 0 0 0 1 0 0 0 1 0"/>
<feBlend mode="normal" in2="BackgroundImageFix" result="effect1_dropShadow_1208_29946"/>
<feColorMatrix in="SourceAlpha" type="matrix" values="0 0 0 0 0 0 0 0 0 0 0 0 0 0 0 0 0 0 127 0" result="hardAlpha"/>
<feOffset dx="-2.57143" dy="-2.57143"/>
<feGaussianBlur stdDeviation="4.28571"/>
<feComposite in2="hardAlpha" operator="out"/>
<feColorMatrix type="matrix" values="0 0 0 0 1 0 0 0 0 1 0 0 0 0 1 0 0 0 0.4 0"/>
<feBlend mode="normal" in2="effect1_dropShadow_1208_29946" result="effect2_dropShadow_1208_29946"/>
<feBlend mode="normal" in="SourceGraphic" in2="effect2_dropShadow_1208_29946" result="shape"/>
<feColorMatrix in="SourceAlpha" type="matrix" values="0 0 0 0 0 0 0 0 0 0 0 0 0 0 0 0 0 0 127 0" result="hardAlpha"/>
<feOffset dy="-1.28571"/>
<feGaussianBlur stdDeviation="0.985714"/>
<feComposite in2="hardAlpha" operator="arithmetic" k2="-1" k3="1"/>
<feColorMatrix type="matrix" values="0 0 0 0 0 0 0 0 0 0.598039 0 0 0 0 1 0 0 0 0.4 0"/>
<feBlend mode="normal" in2="shape" result="effect3_innerShadow_1208_29946"/>
<feColorMatrix in="SourceAlpha" type="matrix" values="0 0 0 0 0 0 0 0 0 0 0 0 0 0 0 0 0 0 127 0" result="hardAlpha"/>
<feOffset dy="-0.428571"/>
<feGaussianBlur stdDeviation="0.557143"/>
<feComposite in2="hardAlpha" operator="arithmetic" k2="-1" k3="1"/>
<feColorMatrix type="matrix" values="0 0 0 0 1 0 0 0 0 1 0 0 0 0 1 0 0 0 0.6 0"/>
<feBlend mode="normal" in2="effect3_innerShadow_1208_29946" result="effect4_innerShadow_1208_29946"/>
</filter>
<linearGradient id="paint0_linear_1208_29946" x1="8.8" y1="10.8" x2="38.8" y2="47.6" gradientUnits="userSpaceOnUse">
<stop stop-color="#11191E" stop-opacity="0.4"/>
<stop offset="0.992881" stop-color="white"/>
</linearGradient>
</defs>
</svg>
