<svg width="24" height="24" viewBox="0 0 24 24" fill="none" xmlns="http://www.w3.org/2000/svg">
<rect x="2" y="2" width="20" height="20" rx="10" fill="#11191E" fill-opacity="0.1"/>
<path fill-rule="evenodd" clip-rule="evenodd" d="M11.2438 15.1708C10.8397 15.4402 10.6377 15.5749 10.4702 15.5649C10.3243 15.5561 10.1894 15.484 10.1012 15.3674C10 15.2336 10 14.9908 10 14.5052L10 9.49481C10 9.00923 10 8.76644 10.1012 8.63261C10.1894 8.51601 10.3243 8.44386 10.4702 8.43515C10.6377 8.42515 10.8397 8.55982 11.2438 8.82917L15.0015 11.3344C15.3354 11.5569 15.5023 11.6682 15.5605 11.8085C15.6113 11.9311 15.6113 12.0689 15.5605 12.1915C15.5023 12.3318 15.3354 12.4431 15.0015 12.6656L11.2438 15.1708Z" fill="#11191E"/>
</svg>
