<svg width="24" height="24" viewBox="0 0 24 24" fill="none" xmlns="http://www.w3.org/2000/svg">
<rect x="2" y="2" width="20" height="20" rx="10" fill="#11191E"/>
<path fill-rule="evenodd" clip-rule="evenodd" d="M8.82917 11.2438C8.55982 10.8397 8.42515 10.6377 8.43515 10.4702C8.44386 10.3243 8.51601 10.1894 8.63261 10.1012C8.76644 10 9.00923 10 9.49481 10L14.5052 10C14.9908 10 15.2336 10 15.3674 10.1012C15.484 10.1894 15.5561 10.3243 15.5649 10.4702C15.5749 10.6377 15.4402 10.8397 15.1708 11.2438L12.6656 15.0015C12.4431 15.3354 12.3318 15.5023 12.1915 15.5605C12.0689 15.6113 11.9311 15.6113 11.8085 15.5605C11.6682 15.5023 11.5569 15.3354 11.3344 15.0015L8.82917 11.2438Z" fill="white"/>
</svg>
