<svg width="24" height="24" viewBox="0 0 24 24" fill="none" xmlns="http://www.w3.org/2000/svg">
<path d="M21.4042 8.64833C20.3815 8.56767 18.4927 7.36466 18.0199 6.96328C17.9416 6.88251 17.8624 6.88251 17.7841 6.88251C17.2331 6.88251 14.7922 6.80296 14.0847 6.96328C13.2967 7.12357 13.7695 7.60457 13.9272 7.68534C13.9272 7.68534 16.6028 7.84561 17.3907 7.92637C18.1775 8.00592 18.8861 8.56767 18.6492 9.45111C18.4133 10.1732 17.6265 10.2527 17.6265 10.2527H14.2412C13.5337 10.2527 11.2504 10.413 10.4636 10.6541C8.73123 11.2158 7.78681 10.6541 7.78681 10.6541L1.17484 6.96328C0.781448 6.64262 1.17484 6.08093 1.17484 6.08093C1.17484 6.08093 3.37882 3.99447 3.92985 3.27241C4.32324 2.71074 4.79602 3.19174 4.79602 3.19174C4.79602 3.19174 6.84245 4.47542 7.47276 4.8768C8.25954 5.35889 9.67674 4.79611 10.3049 4.3947C10.9352 3.99447 11.8014 3.51232 12.1948 3.27241C12.2741 3.19174 12.4317 3.19174 12.5882 3.19174L17.6265 3.83415C17.7841 3.83415 17.8624 3.91378 18.0199 3.99447C18.4927 4.47656 19.1219 5.03711 21.2476 6.32087C22.1128 6.88251 22.8213 7.12357 22.9778 7.68534C23.1365 8.4073 22.4268 8.72798 21.4042 8.64833ZM16.2887 13.9805C16.2874 12.5643 17.4147 11.415 18.8068 11.413C19.4755 11.4137 20.1165 11.6845 20.589 12.166C21.0614 12.6475 21.3265 13.3002 21.3259 13.9805C21.3265 14.6608 21.0614 15.3135 20.589 15.795C20.1165 16.2765 19.4755 16.5473 18.8068 16.5479C17.4147 16.5461 16.2874 15.3968 16.2887 13.9805ZM6.49539 17.992C6.49539 16.8854 7.37697 15.9874 8.46353 15.9874C9.55016 15.9874 10.4317 16.8843 10.4317 17.9931C10.4317 19.1008 9.55016 20 8.46353 20C8.20474 19.9998 7.94852 19.9478 7.70951 19.8468C7.47051 19.7459 7.25341 19.598 7.07062 19.4116C6.88784 19.2252 6.74295 19.004 6.64425 18.7606C6.54555 18.5172 6.49496 18.2564 6.49539 17.9931V17.992Z" fill="#41494E"/>
<path d="M15.681 17.8411C14.5945 17.8411 13.7129 18.7392 13.7129 19.8457V19.8469C13.7124 20.1101 13.763 20.3709 13.8617 20.6143C13.9604 20.8577 14.1053 21.0789 14.2881 21.2653C14.4709 21.4517 14.688 21.5996 14.927 21.7005C15.166 21.8015 15.4222 21.8536 15.681 21.8537C16.7676 21.8537 17.6492 20.9545 17.6492 19.8468C17.6492 18.738 16.7676 17.8411 15.681 17.8411Z" fill="#41494E"/>
</svg>
