<svg width="40" height="40" viewBox="0 0 40 40" fill="none" xmlns="http://www.w3.org/2000/svg">
<g filter="url(#filter0_i_12704_231122)">
<path d="M1 20.0001C1 6.89012 6.89 1.00012 20 1.00012C33.11 1.00012 39 6.89012 39 20.0001C39 33.1101 33.11 39.0001 20 39.0001C6.89 39.0001 1 33.1101 1 20.0001Z" fill="#0099FF"/>
</g>
<path d="M20 2.00012C26.4277 2.00012 30.8643 3.44649 33.709 6.29114C36.5536 9.13579 38 13.5724 38 20.0001C38 26.4279 36.5536 30.8645 33.709 33.7091C30.8643 36.5538 26.4277 38.0001 20 38.0001C13.5723 38.0001 9.13566 36.5538 6.29102 33.7091C3.44637 30.8645 2 26.4279 2 20.0001C2 13.5724 3.44637 9.13579 6.29102 6.29114C9.13566 3.44649 13.5723 2.00012 20 2.00012Z" stroke="url(#paint0_linear_12704_231122)" stroke-width="2" style="mix-blend-mode:overlay"/>
<mask id="mask0_12704_231122" style="mask-type:alpha" maskUnits="userSpaceOnUse" x="0" y="0" width="40" height="41">
<path d="M20 1.00012C26.7727 1.00012 31.4594 2.52395 34.4678 5.53235C37.4762 8.54075 39 13.2274 39 20.0001C39 26.7729 37.4762 31.4595 34.4678 34.4679C31.4594 37.4763 26.7727 39.0001 20 39.0001C13.2273 39.0001 8.54062 37.4763 5.53223 34.4679C2.52383 31.4595 1 26.7729 1 20.0001C1 13.2274 2.52383 8.54075 5.53223 5.53235C8.54062 2.52395 13.2273 1.00012 20 1.00012Z" fill="#0099FF"/>
<path d="M20 1.00012C26.7727 1.00012 31.4594 2.52395 34.4678 5.53235C37.4762 8.54075 39 13.2274 39 20.0001C39 26.7729 37.4762 31.4595 34.4678 34.4679C31.4594 37.4763 26.7727 39.0001 20 39.0001C13.2273 39.0001 8.54062 37.4763 5.53223 34.4679C2.52383 31.4595 1 26.7729 1 20.0001C1 13.2274 2.52383 8.54075 5.53223 5.53235C8.54062 2.52395 13.2273 1.00012 20 1.00012Z" stroke="url(#paint1_linear_12704_231122)" stroke-width="2"/>
</mask>
<g mask="url(#mask0_12704_231122)">
<g filter="url(#filter1_ddii_12704_231122)">
<path d="M16.8075 24.9948C18.1683 24.8759 19.4019 25.8871 19.5233 27.2741C19.6446 28.661 18.6518 29.8664 17.245 29.9899C15.884 30.109 14.6506 29.0979 14.5292 27.7106C14.4081 26.3235 15.4466 25.1139 16.8075 24.9948ZM23.2333 24.9948C24.5938 25.1142 25.6326 26.3238 25.5116 27.7106C25.3903 29.0978 24.2029 30.1128 22.7958 29.9899C21.4348 29.8708 20.3961 28.6613 20.5175 27.2741C20.639 25.887 21.8723 24.8757 23.2333 24.9948ZM15.4774 10.0124C16.8292 9.89471 18.049 10.847 18.1679 12.2038L17.8827 21.4049C18.0385 22.6704 17.5484 23.8159 16.6923 23.8913C15.8371 23.966 15.1991 22.919 15.0917 21.693L13.206 12.5934C13.0912 11.2799 14.1265 10.1306 15.4774 10.0124ZM24.5243 10.0094C25.876 10.1281 26.9121 11.2768 26.7939 12.6334L24.9149 21.6461C24.8487 22.9193 24.1675 23.9625 23.3114 23.8883C22.4562 23.8135 22.0089 22.6711 22.1161 21.445L21.8398 12.1559C21.955 10.8427 23.1735 9.89126 24.5243 10.0094Z" fill="white"/>
</g>
</g>
<defs>
<filter id="filter0_i_12704_231122" x="1" y="1.00012" width="40" height="40" filterUnits="userSpaceOnUse" color-interpolation-filters="sRGB">
<feFlood flood-opacity="0" result="BackgroundImageFix"/>
<feBlend mode="normal" in="SourceGraphic" in2="BackgroundImageFix" result="shape"/>
<feColorMatrix in="SourceAlpha" type="matrix" values="0 0 0 0 0 0 0 0 0 0 0 0 0 0 0 0 0 0 127 0" result="hardAlpha"/>
<feOffset dx="2" dy="2"/>
<feGaussianBlur stdDeviation="2"/>
<feComposite in2="hardAlpha" operator="arithmetic" k2="-1" k3="1"/>
<feColorMatrix type="matrix" values="0 0 0 0 0.0666667 0 0 0 0 0.0980392 0 0 0 0 0.117647 0 0 0 0.1 0"/>
<feBlend mode="normal" in2="shape" result="effect1_innerShadow_12704_231122"/>
</filter>
<filter id="filter1_ddii_12704_231122" x="-3.14286" y="-3.14273" width="47.1429" height="47.1429" filterUnits="userSpaceOnUse" color-interpolation-filters="sRGB">
<feFlood flood-opacity="0" result="BackgroundImageFix"/>
<feColorMatrix in="SourceAlpha" type="matrix" values="0 0 0 0 0 0 0 0 0 0 0 0 0 0 0 0 0 0 127 0" result="hardAlpha"/>
<feOffset dx="2.57143" dy="2.57143"/>
<feGaussianBlur stdDeviation="4.71429"/>
<feComposite in2="hardAlpha" operator="out"/>
<feColorMatrix type="matrix" values="0 0 0 0 0.321569 0 0 0 0 0.435294 0 0 0 0 1 0 0 0 1 0"/>
<feBlend mode="normal" in2="BackgroundImageFix" result="effect1_dropShadow_12704_231122"/>
<feColorMatrix in="SourceAlpha" type="matrix" values="0 0 0 0 0 0 0 0 0 0 0 0 0 0 0 0 0 0 127 0" result="hardAlpha"/>
<feOffset dx="-2.57143" dy="-2.57143"/>
<feGaussianBlur stdDeviation="4.28571"/>
<feComposite in2="hardAlpha" operator="out"/>
<feColorMatrix type="matrix" values="0 0 0 0 1 0 0 0 0 1 0 0 0 0 1 0 0 0 0.4 0"/>
<feBlend mode="normal" in2="effect1_dropShadow_12704_231122" result="effect2_dropShadow_12704_231122"/>
<feBlend mode="normal" in="SourceGraphic" in2="effect2_dropShadow_12704_231122" result="shape"/>
<feColorMatrix in="SourceAlpha" type="matrix" values="0 0 0 0 0 0 0 0 0 0 0 0 0 0 0 0 0 0 127 0" result="hardAlpha"/>
<feOffset dy="-1.28571"/>
<feGaussianBlur stdDeviation="0.985714"/>
<feComposite in2="hardAlpha" operator="arithmetic" k2="-1" k3="1"/>
<feColorMatrix type="matrix" values="0 0 0 0 0 0 0 0 0 0.598039 0 0 0 0 1 0 0 0 0.4 0"/>
<feBlend mode="normal" in2="shape" result="effect3_innerShadow_12704_231122"/>
<feColorMatrix in="SourceAlpha" type="matrix" values="0 0 0 0 0 0 0 0 0 0 0 0 0 0 0 0 0 0 127 0" result="hardAlpha"/>
<feOffset dy="-0.428571"/>
<feGaussianBlur stdDeviation="0.557143"/>
<feComposite in2="hardAlpha" operator="arithmetic" k2="-1" k3="1"/>
<feColorMatrix type="matrix" values="0 0 0 0 1 0 0 0 0 1 0 0 0 0 1 0 0 0 0.6 0"/>
<feBlend mode="normal" in2="effect3_innerShadow_12704_231122" result="effect4_innerShadow_12704_231122"/>
</filter>
<linearGradient id="paint0_linear_12704_231122" x1="7.46" y1="11.2601" x2="35.96" y2="46.2201" gradientUnits="userSpaceOnUse">
<stop stop-color="#11191E" stop-opacity="0.4"/>
<stop offset="0.992881" stop-color="white"/>
</linearGradient>
<linearGradient id="paint1_linear_12704_231122" x1="6.8" y1="10.8001" x2="36.8" y2="47.6001" gradientUnits="userSpaceOnUse">
<stop stop-color="#11191E" stop-opacity="0.4"/>
<stop offset="0.992881" stop-color="white"/>
</linearGradient>
</defs>
</svg>
