<svg width="24" height="24" viewBox="0 0 24 24" xmlns="http://www.w3.org/2000/svg">
<g clip-path="url(#clip0_15007_76982)">
<mask id="mask0_15007_76982" style="mask-type:alpha" maskUnits="userSpaceOnUse" x="0" y="0" width="24" height="24">
<path d="M12 0.480469C16.0789 0.480469 18.9286 1.39734 20.7656 3.23438C22.6027 5.07141 23.5195 7.92109 23.5195 12C23.5195 16.0789 22.6027 18.9286 20.7656 20.7656C18.9286 22.6027 16.0789 23.5195 12 23.5195C7.92109 23.5195 5.07141 22.6027 3.23438 20.7656C1.39734 18.9286 0.480469 16.0789 0.480469 12C0.480469 7.92109 1.39734 5.07141 3.23438 3.23438C5.07141 1.39734 7.92109 0.480469 12 0.480469Z" />
<path d="M12 0.480469C16.0789 0.480469 18.9286 1.39734 20.7656 3.23438C22.6027 5.07141 23.5195 7.92109 23.5195 12C23.5195 16.0789 22.6027 18.9286 20.7656 20.7656C18.9286 22.6027 16.0789 23.5195 12 23.5195C7.92109 23.5195 5.07141 22.6027 3.23438 20.7656C1.39734 18.9286 0.480469 16.0789 0.480469 12C0.480469 7.92109 1.39734 5.07141 3.23438 3.23438C5.07141 1.39734 7.92109 0.480469 12 0.480469Z" stroke="url(#paint0_linear_15007_76982)" stroke-width="0.96"/>
</mask>
<g mask="url(#mask0_15007_76982)">
<g filter="url(#filter0_di_15007_76982)">
<path d="M1.98869 6.53111C2.75648 4.41967 4.41967 2.75648 6.53111 1.98869V1.98869C6.99813 1.81886 7.48069 1.69528 7.97185 1.61972L9.09252 1.44731C11.0195 1.15085 12.9805 1.15085 14.9075 1.44731L16.0282 1.61972C16.5193 1.69528 17.0019 1.81886 17.4689 1.98869V1.98869C19.5803 2.75648 21.2435 4.41967 22.0113 6.53111V6.53111C22.1811 6.99813 22.3047 7.48069 22.3803 7.97185L22.5857 9.30694C22.86 11.0899 22.8353 12.906 22.5126 14.6808L22.4072 15.2606C22.3137 15.7748 22.1769 16.2803 21.9982 16.7715L21.873 17.1161C21.1815 19.0175 19.8199 20.6013 18.0437 21.5701V21.5701C17.1988 22.031 16.2802 22.3415 15.3289 22.4879L14.2293 22.657C12.7518 22.8843 11.2482 22.8843 9.7707 22.657L8.6711 22.4879C7.71982 22.3415 6.80122 22.031 5.95628 21.5701V21.5701C4.18007 20.6013 2.81848 19.0175 2.12705 17.1161L2.00175 16.7715C1.82313 16.2803 1.68633 15.7748 1.59283 15.2606L1.48742 14.6808C1.16473 12.906 1.14002 11.0898 1.41432 9.30694L1.61972 7.97185C1.69528 7.48069 1.81886 6.99813 1.98869 6.53111V6.53111Z" />
<path d="M9.16504 1.92188C11.0437 1.63286 12.9563 1.63286 14.835 1.92188L15.9551 2.09375C16.4151 2.16452 16.8673 2.28041 17.3047 2.43945C19.2827 3.15873 20.8413 4.7173 21.5605 6.69531C21.7196 7.13274 21.8355 7.58489 21.9062 8.04492L22.1113 9.37988C22.3775 11.11 22.3532 12.8724 22.04 14.5947L21.9346 15.1748C21.8459 15.6624 21.7162 16.1417 21.5469 16.6074L21.4219 16.9521C20.7704 18.7437 19.487 20.2356 17.8135 21.1484C17.0174 21.5826 16.1521 21.8758 15.2559 22.0137L14.1562 22.1826C12.7272 22.4025 11.2728 22.4025 9.84375 22.1826L8.74414 22.0137C7.84791 21.8758 6.98259 21.5826 6.18652 21.1484C4.51298 20.2356 3.22962 18.7437 2.57812 16.9521L2.45312 16.6074C2.28376 16.1417 2.15409 15.6624 2.06543 15.1748L1.95996 14.5947C1.64684 12.8724 1.62249 11.11 1.88867 9.37988L2.09375 8.04492C2.16452 7.58489 2.28041 7.13274 2.43945 6.69531C3.15873 4.7173 4.7173 3.15873 6.69531 2.43945C7.13274 2.28041 7.58489 2.16452 8.04492 2.09375L9.16504 1.92188Z" stroke="url(#paint1_linear_15007_76982)" stroke-width="0.96" style="mix-blend-mode:overlay"/>
</g>
<g filter="url(#filter1_ddii_15007_76982)">
<path d="M17.4857 10.0449C16.8892 9.99781 15.7874 9.29605 15.5116 9.06191C15.4659 9.0148 15.4197 9.0148 15.374 9.0148C15.0526 9.0148 13.6288 8.96839 13.2161 9.06191C12.7564 9.15542 13.0322 9.436 13.1242 9.48312C13.1242 9.48312 14.685 9.5766 15.1446 9.62372C15.6035 9.67012 16.0169 9.99781 15.8787 10.5131C15.7411 10.9344 15.2821 10.9808 15.2821 10.9808H13.3073C12.8946 10.9808 11.5627 11.0743 11.1037 11.2149C10.0932 11.5426 9.54229 11.2149 9.54229 11.2149L5.6853 9.06191C5.45582 8.87486 5.6853 8.54721 5.6853 8.54721C5.6853 8.54721 6.97096 7.33011 7.29239 6.9089C7.52187 6.58127 7.79766 6.86185 7.79766 6.86185C7.79766 6.86185 8.99141 7.61066 9.35909 7.8448C9.81805 8.12602 10.6447 7.79773 11.0112 7.56358C11.3789 7.33011 11.8841 7.04886 12.1136 6.9089C12.1599 6.86185 12.2518 6.86185 12.3431 6.86185L15.2821 7.23659C15.374 7.23659 15.4197 7.28304 15.5116 7.33011C15.7874 7.61133 16.1544 7.93832 17.3944 8.68717C17.8991 9.0148 18.3124 9.15542 18.4037 9.48312C18.4963 9.90426 18.0823 10.0913 17.4857 10.0449ZM14.5017 13.1553C14.501 12.3291 15.1585 11.6587 15.9706 11.6576C16.3607 11.658 16.7346 11.816 17.0102 12.0968C17.2858 12.3777 17.4404 12.7584 17.4401 13.1553C17.4404 13.5522 17.2858 13.9329 17.0102 14.2138C16.7346 14.4946 16.3607 14.6526 15.9706 14.653C15.1585 14.6519 14.501 13.9814 14.5017 13.1553ZM8.78896 15.4953C8.78896 14.8498 9.30322 14.326 9.93704 14.326C10.5709 14.326 11.0851 14.8492 11.0851 15.496C11.0851 16.1421 10.5709 16.6667 9.93704 16.6667C9.78608 16.6666 9.63662 16.6362 9.4972 16.5773C9.35778 16.5184 9.23114 16.4321 9.12451 16.3234C9.01789 16.2147 8.93337 16.0857 8.87579 15.9437C8.81822 15.8017 8.78871 15.6496 8.78896 15.496V15.4953Z" fill="white"/>
<path d="M14.1472 15.4073C13.5134 15.4073 12.9992 15.9312 12.9992 16.5767V16.5773C12.9989 16.7309 13.0284 16.883 13.086 17.025C13.1436 17.167 13.2281 17.296 13.3347 17.4048C13.4413 17.5135 13.568 17.5998 13.7074 17.6586C13.8468 17.7175 13.9963 17.7479 14.1472 17.748C14.7811 17.748 15.2953 17.2235 15.2953 16.5773C15.2953 15.9305 14.7811 15.4073 14.1472 15.4073Z" fill="white"/>
</g>
</g>
</g>
<defs>
<filter id="filter0_di_15007_76982" x="0.0255249" y="0.624609" width="23.949" height="24.0035" filterUnits="userSpaceOnUse" color-interpolation-filters="sRGB">
<feFlood flood-opacity="0" result="BackgroundImageFix"/>
<feColorMatrix in="SourceAlpha" type="matrix" values="0 0 0 0 0 0 0 0 0 0 0 0 0 0 0 0 0 0 127 0" result="hardAlpha"/>
<feOffset dy="0.6"/>
<feGaussianBlur stdDeviation="0.6"/>
<feComposite in2="hardAlpha" operator="out"/>
<feColorMatrix type="matrix" values="0 0 0 0 0.0666667 0 0 0 0 0.0980392 0 0 0 0 0.117647 0 0 0 0.05 0"/>
<feBlend mode="normal" in2="BackgroundImageFix" result="effect1_dropShadow_15007_76982"/>
<feBlend mode="normal" in="SourceGraphic" in2="effect1_dropShadow_15007_76982" result="shape"/>
<feColorMatrix in="SourceAlpha" type="matrix" values="0 0 0 0 0 0 0 0 0 0 0 0 0 0 0 0 0 0 127 0" result="hardAlpha"/>
<feOffset dx="0.96" dy="0.96"/>
<feGaussianBlur stdDeviation="0.96"/>
<feComposite in2="hardAlpha" operator="arithmetic" k2="-1" k3="1"/>
<feColorMatrix type="matrix" values="0 0 0 0 0.0666667 0 0 0 0 0.0980392 0 0 0 0 0.117647 0 0 0 0.2 0"/>
<feBlend mode="normal" in2="shape" result="effect2_innerShadow_15007_76982"/>
</filter>
<filter id="filter1_ddii_15007_76982" x="-1.68571" y="-1.68571" width="27.8857" height="27.8857" filterUnits="userSpaceOnUse" color-interpolation-filters="sRGB">
<feFlood flood-opacity="0" result="BackgroundImageFix"/>
<feColorMatrix in="SourceAlpha" type="matrix" values="0 0 0 0 0 0 0 0 0 0 0 0 0 0 0 0 0 0 127 0" result="hardAlpha"/>
<feOffset dx="1.54286" dy="1.54286"/>
<feGaussianBlur stdDeviation="2.82857"/>
<feComposite in2="hardAlpha" operator="out"/>
<feColorMatrix type="matrix" values="0 0 0 0 1 0 0 0 0 0.219608 0 0 0 0 0.298039 0 0 0 1 0"/>
<feBlend mode="normal" in2="BackgroundImageFix" result="effect1_dropShadow_15007_76982"/>
<feColorMatrix in="SourceAlpha" type="matrix" values="0 0 0 0 0 0 0 0 0 0 0 0 0 0 0 0 0 0 127 0" result="hardAlpha"/>
<feOffset dx="-1.54286" dy="-1.54286"/>
<feGaussianBlur stdDeviation="2.57143"/>
<feComposite in2="hardAlpha" operator="out"/>
<feColorMatrix type="matrix" values="0 0 0 0 1 0 0 0 0 1 0 0 0 0 1 0 0 0 0.4 0"/>
<feBlend mode="normal" in2="effect1_dropShadow_15007_76982" result="effect2_dropShadow_15007_76982"/>
<feBlend mode="normal" in="SourceGraphic" in2="effect2_dropShadow_15007_76982" result="shape"/>
<feColorMatrix in="SourceAlpha" type="matrix" values="0 0 0 0 0 0 0 0 0 0 0 0 0 0 0 0 0 0 127 0" result="hardAlpha"/>
<feOffset dy="-0.771429"/>
<feGaussianBlur stdDeviation="0.591429"/>
<feComposite in2="hardAlpha" operator="arithmetic" k2="-1" k3="1"/>
<feColorMatrix type="matrix" values="0 0 0 0 1 0 0 0 0 0.219608 0 0 0 0 0.298039 0 0 0 0.4 0"/>
<feBlend mode="normal" in2="shape" result="effect3_innerShadow_15007_76982"/>
<feColorMatrix in="SourceAlpha" type="matrix" values="0 0 0 0 0 0 0 0 0 0 0 0 0 0 0 0 0 0 127 0" result="hardAlpha"/>
<feOffset dy="-0.257143"/>
<feGaussianBlur stdDeviation="0.334286"/>
<feComposite in2="hardAlpha" operator="arithmetic" k2="-1" k3="1"/>
<feColorMatrix type="matrix" values="0 0 0 0 1 0 0 0 0 1 0 0 0 0 1 0 0 0 0.6 0"/>
<feBlend mode="normal" in2="effect3_innerShadow_15007_76982" result="effect4_innerShadow_15007_76982"/>
</filter>
<linearGradient id="paint0_linear_15007_76982" x1="4.08" y1="6.48" x2="22.08" y2="28.56" gradientUnits="userSpaceOnUse">
<stop stop-color="#11191E" stop-opacity="0.4"/>
<stop offset="1" stop-color="white"/>
</linearGradient>
<linearGradient id="paint1_linear_15007_76982" x1="4.74" y1="6.94" x2="20.5937" y2="21.625" gradientUnits="userSpaceOnUse">
<stop stop-color="#11191E"/>
<stop offset="1" stop-color="white"/>
</linearGradient>
<clipPath id="clip0_15007_76982">
<rect width="24" height="24" fill="white"/>
</clipPath>
</defs>
</svg>
