<svg width="40" height="40" viewBox="0 0 40 40" fill="none" xmlns="http://www.w3.org/2000/svg">
<g clip-path="url(#clip0_13652_124819)">
<mask id="mask0_13652_124819" style="mask-type:alpha" maskUnits="userSpaceOnUse" x="0" y="0" width="40" height="40">
<path d="M20 0.799805C26.7982 0.799805 31.5477 2.32891 34.6094 5.39062C37.6711 8.45234 39.2002 13.2018 39.2002 20C39.2002 26.7982 37.6711 31.5477 34.6094 34.6094C31.5477 37.6711 26.7982 39.2002 20 39.2002C13.2018 39.2002 8.45234 37.6711 5.39062 34.6094C2.32891 31.5477 0.799805 26.7982 0.799805 20C0.799805 13.2018 2.32891 8.45234 5.39062 5.39062C8.45234 2.32891 13.2018 0.799805 20 0.799805Z" fill="#0099FF"/>
<path d="M20 0.799805C26.7982 0.799805 31.5477 2.32891 34.6094 5.39062C37.6711 8.45234 39.2002 13.2018 39.2002 20C39.2002 26.7982 37.6711 31.5477 34.6094 34.6094C31.5477 37.6711 26.7982 39.2002 20 39.2002C13.2018 39.2002 8.45234 37.6711 5.39062 34.6094C2.32891 31.5477 0.799805 26.7982 0.799805 20C0.799805 13.2018 2.32891 8.45234 5.39062 5.39062C8.45234 2.32891 13.2018 0.799805 20 0.799805Z" stroke="url(#paint0_linear_13652_124819)" stroke-width="1.6"/>
</mask>
<g mask="url(#mask0_13652_124819)">
<g filter="url(#filter0_di_13652_124819)">
<path d="M3.31383 10.885C4.59349 7.36595 7.36546 4.59398 10.8845 3.31431V3.31431C11.6629 3.03127 12.4672 2.8253 13.2858 2.69936L15.1535 2.41201C18.3652 1.91791 21.6335 1.91791 24.8452 2.41201L26.7129 2.69936C27.5315 2.8253 28.3358 3.03127 29.1142 3.31431V3.31431C32.6332 4.59398 35.4052 7.36595 36.6849 10.885V10.885C36.9679 11.6634 37.1739 12.4677 37.2998 13.2863L37.6422 15.5114C38.0993 18.4829 38.0581 21.5098 37.5203 24.4678L37.3446 25.4341C37.1888 26.2912 36.9608 27.1336 36.6631 27.9523L36.4543 28.5266C35.3019 31.6957 33.0326 34.3352 30.0722 35.95V35.95C28.664 36.7181 27.133 37.2357 25.5475 37.4796L23.7148 37.7616C21.2523 38.1404 18.7464 38.1404 16.2838 37.7616L14.4512 37.4796C12.8657 37.2357 11.3347 36.7181 9.92648 35.95V35.95C6.96613 34.3352 4.69682 31.6957 3.54443 28.5266L3.3356 27.9523C3.03789 27.1336 2.8099 26.2912 2.65407 25.4341L2.47838 24.4678C1.94056 21.5098 1.89939 18.4829 2.35654 15.5114L2.69887 13.2863C2.82481 12.4677 3.03078 11.6634 3.31383 10.885V10.885Z" fill="#0099FF"/>
<path d="M15.2676 3.15283C18.4036 2.67037 21.5954 2.67036 24.7314 3.15283L26.5986 3.44092C27.1764 3.5298 27.7467 3.66104 28.3047 3.8335L28.8574 4.01904C32.0647 5.18533 34.6128 7.66937 35.8633 10.8335L35.9805 11.1411C36.1802 11.6904 36.3391 12.2536 36.4561 12.8257L36.5586 13.3999L36.9004 15.6255C37.3449 18.5146 37.3051 21.4575 36.7822 24.3335L36.6064 25.3003C36.4582 26.1157 36.2412 26.917 35.958 27.6958L35.749 28.27C34.6591 31.2674 32.5129 33.7642 29.7129 35.2915C28.381 36.018 26.9331 36.5081 25.4336 36.7388L23.6006 37.02C21.2137 37.3872 18.7843 37.3872 16.3975 37.02L14.5654 36.7388C13.2532 36.5369 11.9801 36.1368 10.79 35.5532L10.2852 35.2915C7.66043 33.8597 5.60995 31.5761 4.46582 28.8267L4.24902 28.27L4.04004 27.6958C3.75686 26.917 3.53986 26.1156 3.3916 25.3003L3.21582 24.3335C2.69296 21.4576 2.65319 18.5146 3.09766 15.6255L3.44043 13.3999C3.5293 12.8224 3.66064 12.2526 3.83301 11.6948L4.01855 11.1411C5.22241 7.83066 7.83017 5.2229 11.1406 4.01904C11.8727 3.75282 12.6295 3.5594 13.3994 3.44092L15.2676 3.15283Z" stroke="url(#paint1_linear_13652_124819)" stroke-width="1.5" style="mix-blend-mode:overlay"/>
</g>
<g filter="url(#filter1_ddii_13652_124819)">
<path fill-rule="evenodd" clip-rule="evenodd" d="M25.8333 10.2778C26.0911 10.2778 26.3384 10.3805 26.5207 10.5646C26.7031 10.7487 26.8056 10.9991 26.8056 11.2595V20.3798L26.6385 20.357L26.5672 20.3485L26.422 20.3314L26.2748 20.3162L26.2008 20.3096L26.0508 20.2963L25.8998 20.2858L25.8229 20.2811L25.7469 20.2773L25.5922 20.2706L25.4355 20.2659L25.2779 20.2621H24.9608L24.8032 20.2659L24.6475 20.2706L24.4927 20.2773L24.4158 20.2811L24.3389 20.2858L24.188 20.2963L24.038 20.3096L23.9639 20.3162L23.8167 20.3314L23.6724 20.3485L23.5291 20.3665L23.3876 20.3865L23.3183 20.3979L23.1806 20.4207L23.0458 20.4453L22.9119 20.471L22.7818 20.4985L22.6537 20.5279L22.5283 20.5583L22.4666 20.5735L22.3461 20.6067L22.2862 20.6229L22.1125 20.6761C22.0491 20.6963 21.9868 20.7165 21.9264 20.7378L21.8362 20.77L21.7318 20.8099L21.6805 20.8308L21.5818 20.8726C21.3931 20.9543 21.2229 21.0425 21.0748 21.1365L21.0206 21.1717L20.9485 21.222C20.6334 21.4488 20.4404 21.7043 20.4035 21.9758C20.4008 21.9823 20.3987 21.9898 20.3978 21.9967L20.3969 22.0072V29.1317C20.3969 29.28 20.4434 29.4241 20.5307 29.5618L20.4149 29.6283C20.2857 29.6898 20.144 29.7223 20 29.7223C19.8081 29.7223 19.6204 29.6646 19.4607 29.5571L17.6226 28.319C17.4629 28.2115 17.2752 28.1538 17.0833 28.1538C16.8914 28.1538 16.7037 28.2115 16.5441 28.319L14.7059 29.5571C14.5463 29.6646 14.3586 29.7223 14.1667 29.7223C13.9748 29.7223 13.7871 29.6646 13.6274 29.5571L11.6829 28.2478C11.5498 28.1581 11.4404 28.0362 11.3649 27.8937C11.2894 27.7511 11.25 27.592 11.25 27.4303V11.2595C11.25 10.9991 11.3525 10.7487 11.5348 10.5646C11.7171 10.3805 11.9645 10.2778 12.2222 10.2778H25.8333ZM14.6528 19.1171C14.5314 19.1168 14.414 19.1617 14.3243 19.2443C14.2345 19.327 14.1786 19.4411 14.1676 19.5633C14.1566 19.6856 14.1918 19.8075 14.2654 19.9051C14.339 20.0027 14.4459 20.0694 14.5654 20.0912L14.6528 20.0988H19.5139C19.6428 20.0988 19.7664 20.0466 19.8576 19.9545C19.9486 19.8625 19.9999 19.738 20 19.6079C20 19.4777 19.9487 19.3525 19.8576 19.2604C19.7664 19.1684 19.6428 19.1171 19.5139 19.1171H14.6528ZM14.6528 16.17C14.5313 16.1698 14.4141 16.2156 14.3243 16.2982C14.2345 16.3809 14.1786 16.495 14.1676 16.6172C14.1567 16.7394 14.1919 16.8614 14.2654 16.959C14.339 17.0565 14.446 17.1224 14.5654 17.1442L14.6528 17.1527H23.4028C23.5317 17.1527 23.6553 17.1005 23.7465 17.0084C23.8376 16.9163 23.8889 16.7911 23.8889 16.6609C23.8888 16.5309 23.8375 16.4063 23.7465 16.3143C23.6553 16.2223 23.5317 16.17 23.4028 16.17H14.6528ZM14.6528 13.2239C14.5313 13.2237 14.4141 13.2694 14.3243 13.3521C14.2346 13.4347 14.1787 13.5481 14.1676 13.6702C14.1566 13.7924 14.1918 13.9143 14.2654 14.012C14.339 14.1096 14.4459 14.1762 14.5654 14.1981L14.6528 14.2056H23.4028C23.4666 14.2056 23.5299 14.1933 23.5889 14.1686C23.6478 14.144 23.7014 14.1078 23.7465 14.0623C23.7916 14.0167 23.8274 13.9623 23.8519 13.9028C23.8763 13.8432 23.8889 13.7793 23.8889 13.7148C23.8889 13.6503 23.8763 13.5864 23.8519 13.5268C23.8274 13.4673 23.7916 13.4129 23.7465 13.3673C23.7014 13.3218 23.6478 13.2856 23.5889 13.261C23.5299 13.2363 23.4666 13.2239 23.4028 13.2239H14.6528Z" fill="white"/>
<path d="M28.6418 27.4104C28.6835 27.3801 28.7498 27.4058 28.75 27.4636V28.3152C28.7497 29.094 27.0084 29.7223 24.8611 29.7223C22.7139 29.7223 20.9723 29.094 20.9722 28.3152V27.4636C20.9725 27.4033 21.0601 27.3731 21.0975 27.4275C21.5346 28.0312 23.051 28.4785 24.8611 28.4785C26.6713 28.4785 28.1886 28.0312 28.6256 27.4275L28.6418 27.4104Z" fill="white"/>
<path d="M28.6256 25.3748C28.6632 25.3211 28.75 25.3515 28.75 25.4118V26.2635C28.7498 27.0428 27.0084 27.6705 24.8611 27.6705C22.714 27.6705 20.9724 27.0427 20.9722 26.2635V25.4118C20.9722 25.3514 21.06 25.3205 21.0975 25.3748C21.5345 25.979 23.0509 26.4268 24.8611 26.4268C26.6713 26.4268 28.1886 25.9791 28.6256 25.3748Z" fill="white"/>
<path d="M28.6256 23.4607C28.6632 23.4071 28.75 23.4375 28.75 23.4978V24.3494C28.7498 25.1288 27.0084 25.7574 24.8611 25.7574C22.714 25.7574 20.9724 25.1287 20.9722 24.3494V23.4978C20.9722 23.4373 21.06 23.4064 21.0975 23.4607C21.5345 24.0649 23.0509 24.5127 24.8611 24.5127C26.6713 24.5127 28.1886 24.0651 28.6256 23.4607Z" fill="white"/>
<path d="M24.8611 20.9723C27.0085 20.9723 28.7493 21.6147 28.75 22.4078C28.75 23.2012 27.0089 23.8443 24.8611 23.8443C22.7133 23.8443 20.9722 23.2012 20.9722 22.4078C20.9729 21.6147 22.7137 20.9723 24.8611 20.9723Z" fill="white"/>
</g>
</g>
</g>
<defs>
<filter id="filter0_di_13652_124819" x="0.0410156" y="1.0415" width="39.916" height="40.0044" filterUnits="userSpaceOnUse" color-interpolation-filters="sRGB">
<feFlood flood-opacity="0" result="BackgroundImageFix"/>
<feColorMatrix in="SourceAlpha" type="matrix" values="0 0 0 0 0 0 0 0 0 0 0 0 0 0 0 0 0 0 127 0" result="hardAlpha"/>
<feOffset dy="1"/>
<feGaussianBlur stdDeviation="1"/>
<feComposite in2="hardAlpha" operator="out"/>
<feColorMatrix type="matrix" values="0 0 0 0 0.0666667 0 0 0 0 0.0980392 0 0 0 0 0.117647 0 0 0 0.05 0"/>
<feBlend mode="normal" in2="BackgroundImageFix" result="effect1_dropShadow_13652_124819"/>
<feBlend mode="normal" in="SourceGraphic" in2="effect1_dropShadow_13652_124819" result="shape"/>
<feColorMatrix in="SourceAlpha" type="matrix" values="0 0 0 0 0 0 0 0 0 0 0 0 0 0 0 0 0 0 127 0" result="hardAlpha"/>
<feOffset dx="1.6" dy="1.6"/>
<feGaussianBlur stdDeviation="1.6"/>
<feComposite in2="hardAlpha" operator="arithmetic" k2="-1" k3="1"/>
<feColorMatrix type="matrix" values="0 0 0 0 0.0666667 0 0 0 0 0.0980392 0 0 0 0 0.117647 0 0 0 0.1 0"/>
<feBlend mode="normal" in2="shape" result="effect2_innerShadow_13652_124819"/>
</filter>
<filter id="filter1_ddii_13652_124819" x="-2.80887" y="-2.80936" width="46.4768" height="46.4764" filterUnits="userSpaceOnUse" color-interpolation-filters="sRGB">
<feFlood flood-opacity="0" result="BackgroundImageFix"/>
<feColorMatrix in="SourceAlpha" type="matrix" values="0 0 0 0 0 0 0 0 0 0 0 0 0 0 0 0 0 0 127 0" result="hardAlpha"/>
<feOffset dx="2.57143" dy="2.57143"/>
<feGaussianBlur stdDeviation="4.71429"/>
<feComposite in2="hardAlpha" operator="out"/>
<feColorMatrix type="matrix" values="0 0 0 0 0.321569 0 0 0 0 0.435294 0 0 0 0 1 0 0 0 1 0"/>
<feBlend mode="normal" in2="BackgroundImageFix" result="effect1_dropShadow_13652_124819"/>
<feColorMatrix in="SourceAlpha" type="matrix" values="0 0 0 0 0 0 0 0 0 0 0 0 0 0 0 0 0 0 127 0" result="hardAlpha"/>
<feOffset dx="-2.57143" dy="-2.57143"/>
<feGaussianBlur stdDeviation="4.28571"/>
<feComposite in2="hardAlpha" operator="out"/>
<feColorMatrix type="matrix" values="0 0 0 0 1 0 0 0 0 1 0 0 0 0 1 0 0 0 0.4 0"/>
<feBlend mode="normal" in2="effect1_dropShadow_13652_124819" result="effect2_dropShadow_13652_124819"/>
<feBlend mode="normal" in="SourceGraphic" in2="effect2_dropShadow_13652_124819" result="shape"/>
<feColorMatrix in="SourceAlpha" type="matrix" values="0 0 0 0 0 0 0 0 0 0 0 0 0 0 0 0 0 0 127 0" result="hardAlpha"/>
<feOffset dy="-1.28571"/>
<feGaussianBlur stdDeviation="0.985714"/>
<feComposite in2="hardAlpha" operator="arithmetic" k2="-1" k3="1"/>
<feColorMatrix type="matrix" values="0 0 0 0 0 0 0 0 0 0.598039 0 0 0 0 1 0 0 0 0.4 0"/>
<feBlend mode="normal" in2="shape" result="effect3_innerShadow_13652_124819"/>
<feColorMatrix in="SourceAlpha" type="matrix" values="0 0 0 0 0 0 0 0 0 0 0 0 0 0 0 0 0 0 127 0" result="hardAlpha"/>
<feOffset dy="-0.428571"/>
<feGaussianBlur stdDeviation="0.557143"/>
<feComposite in2="hardAlpha" operator="arithmetic" k2="-1" k3="1"/>
<feColorMatrix type="matrix" values="0 0 0 0 1 0 0 0 0 1 0 0 0 0 1 0 0 0 0.6 0"/>
<feBlend mode="normal" in2="effect3_innerShadow_13652_124819" result="effect4_innerShadow_13652_124819"/>
</filter>
<linearGradient id="paint0_linear_13652_124819" x1="6.8" y1="10.8" x2="36.8" y2="47.6" gradientUnits="userSpaceOnUse">
<stop stop-color="#11191E" stop-opacity="0.4"/>
<stop offset="1" stop-color="white"/>
</linearGradient>
<linearGradient id="paint1_linear_13652_124819" x1="7.89935" y1="11.5665" x2="35.3993" y2="45.2998" gradientUnits="userSpaceOnUse">
<stop stop-color="#11191E" stop-opacity="0.4"/>
<stop offset="1" stop-color="white"/>
</linearGradient>
<clipPath id="clip0_13652_124819">
<rect width="40" height="40" fill="white"/>
</clipPath>
</defs>
</svg>
