<svg width="24" height="24" viewBox="0 0 24 24" fill="none" xmlns="http://www.w3.org/2000/svg">
<mask id="mask0_16142_67115" style="mask-type:alpha" maskUnits="userSpaceOnUse" x="0" y="0" width="24" height="24">
<path d="M12 0.533203C16.0721 0.533203 18.9047 1.44965 20.7275 3.27246C22.5504 5.09527 23.4668 7.92787 23.4668 12C23.4668 16.0721 22.5504 18.9047 20.7275 20.7275C18.9047 22.5504 16.0721 23.4668 12 23.4668C7.92787 23.4668 5.09527 22.5504 3.27246 20.7275C1.44965 18.9047 0.533203 16.0721 0.533203 12C0.533203 7.92787 1.44965 5.09527 3.27246 3.27246C5.09527 1.44965 7.92787 0.533203 12 0.533203Z" fill="#0099FF"/>
<path d="M12 0.533203C16.0721 0.533203 18.9047 1.44965 20.7275 3.27246C22.5504 5.09527 23.4668 7.92787 23.4668 12C23.4668 16.0721 22.5504 18.9047 20.7275 20.7275C18.9047 22.5504 16.0721 23.4668 12 23.4668C7.92787 23.4668 5.09527 22.5504 3.27246 20.7275C1.44965 18.9047 0.533203 16.0721 0.533203 12C0.533203 7.92787 1.44965 5.09527 3.27246 3.27246C5.09527 1.44965 7.92787 0.533203 12 0.533203Z" stroke="url(#paint0_linear_16142_67115)" stroke-width="1.06667"/>
</mask>
<g mask="url(#mask0_16142_67115)">
<g filter="url(#filter0_di_16142_67115)">
<path d="M1.98869 6.53111C2.75648 4.41967 4.41967 2.75648 6.53111 1.98869V1.98869C6.99813 1.81886 7.48069 1.69528 7.97185 1.61972L9.09252 1.44731C11.0195 1.15085 12.9805 1.15085 14.9075 1.44731L16.0281 1.61972C16.5193 1.69528 17.0019 1.81886 17.4689 1.98869V1.98869C19.5803 2.75648 21.2435 4.41967 22.0113 6.53111V6.53111C22.1811 6.99813 22.3047 7.48069 22.3803 7.97185L22.5857 9.30694C22.86 11.0899 22.8353 12.906 22.5126 14.6808L22.4072 15.2606C22.3137 15.7748 22.1769 16.2803 21.9982 16.7715L21.873 17.1161C21.1815 19.0175 19.8199 20.6012 18.0437 21.5701V21.5701C17.1988 22.031 16.2802 22.3415 15.3289 22.4879L14.2293 22.657C12.7518 22.8843 11.2482 22.8843 9.7707 22.657L8.6711 22.4879C7.71982 22.3415 6.80122 22.031 5.95628 21.5701V21.5701C4.18007 20.6012 2.81848 19.0175 2.12705 17.1161L2.00175 16.7715C1.82313 16.2803 1.68633 15.7748 1.59283 15.2606L1.48742 14.6808C1.16473 12.906 1.14002 11.0898 1.41432 9.30694L1.61972 7.97185C1.69528 7.48069 1.81886 6.99813 1.98869 6.53111V6.53111Z" fill="#0099FF"/>
<path d="M9.16895 1.94141C11.0453 1.65278 12.9547 1.65278 14.8311 1.94141L15.9521 2.11426C16.4109 2.18485 16.8616 2.30035 17.2979 2.45898C19.2703 3.17624 20.8238 4.7297 21.541 6.70215C21.6996 7.13839 21.8152 7.58906 21.8857 8.04785L22.0918 9.38281C22.3576 11.1108 22.3333 12.8717 22.0205 14.5918L21.915 15.1709C21.8266 15.6574 21.6973 16.1358 21.5283 16.6006L21.4033 16.9453C20.7536 18.7322 19.4738 20.2203 17.8047 21.1309C17.0106 21.564 16.1469 21.8566 15.2529 21.9941L14.1533 22.1631C12.7262 22.3826 11.2738 22.3826 9.84668 22.1631L8.74707 21.9941C7.85305 21.8566 6.9894 21.564 6.19531 21.1309C4.52622 20.2203 3.24645 18.7322 2.59668 16.9453L2.47168 16.6006C2.30268 16.1358 2.17342 15.6574 2.08496 15.1709L1.97949 14.5918C1.66674 12.8717 1.64236 11.1108 1.9082 9.38281L2.11426 8.04785C2.18485 7.58906 2.30035 7.13839 2.45898 6.70215C3.17624 4.7297 4.7297 3.17624 6.70215 2.45898C7.13839 2.30035 7.58906 2.18485 8.04785 2.11426L9.16895 1.94141Z" stroke="url(#paint1_linear_16142_67115)" style="mix-blend-mode:overlay"/>
</g>
<g filter="url(#filter1_ddii_16142_67115)">
<path d="M15.0283 5.58301C13.1418 5.58301 11.6403 7.17867 11.6403 9.11242C11.6403 10.5954 12.5643 12.2707 13.3536 13.4164C13.9568 14.31 14.5984 15.0518 14.8876 15.3832C14.9257 15.423 14.9578 15.4556 15.0283 15.4556C15.0668 15.4556 15.1374 15.4158 15.1695 15.3832C15.4903 15.0518 16.0935 14.304 16.7031 13.4164C17.4859 12.2639 18.4163 10.5958 18.4163 9.11242C18.4163 7.17867 16.8828 5.58301 15.0283 5.58301ZM15.0283 10.7722C14.6011 10.772 14.1915 10.5929 13.8894 10.2742C13.5874 9.95547 13.4176 9.52329 13.4174 9.0726C13.4176 8.62186 13.5874 8.18965 13.8894 7.87089C14.1915 7.55214 14.6011 7.37292 15.0283 7.3726C15.4556 7.37292 15.8652 7.55214 16.1673 7.87089C16.4693 8.18965 16.6391 8.62186 16.6393 9.0726C16.6391 9.52329 16.4693 9.95547 16.1672 10.2742C15.8652 10.5929 15.4555 10.772 15.0283 10.7722ZM11.7173 14.4159L6.58401 13.8202L7.33476 11.1847C7.35615 11.1119 7.39856 11.0479 7.45606 11.0016C7.51357 10.9553 7.58332 10.9292 7.65559 10.9267H11.4671C11.6456 11.4372 11.8601 11.933 12.1088 12.4097L11.7173 14.4163V14.4159ZM10.9987 17.8326H5.93592C5.82684 17.8326 5.72417 17.7932 5.65359 17.6873C5.58301 17.6144 5.58301 17.5021 5.58301 17.3894L6.29526 14.8667L11.4992 15.4624L10.9987 17.833V17.8326ZM17.3127 13.4494L17.7747 15.118L16.2411 14.9328C16.5234 14.6015 16.8126 14.1913 17.1334 13.7473C17.1715 13.6414 17.2421 13.5621 17.3127 13.4494ZM18.057 16.1971L18.3778 17.3496C18.3778 17.3894 18.4163 17.4224 18.4163 17.4623C18.4159 17.5115 18.4062 17.5602 18.3879 17.6055C18.3696 17.6508 18.343 17.6918 18.3096 17.7262C18.2762 17.7606 18.2367 17.7877 18.1934 17.806C18.15 17.8242 18.1037 17.8333 18.057 17.8326H12.0703L12.5323 15.5683L18.057 16.1975V16.1971Z" fill="white"/>
</g>
</g>
<defs>
<filter id="filter0_di_16142_67115" x="-0.107747" y="0.557943" width="24.2155" height="24.2692" filterUnits="userSpaceOnUse" color-interpolation-filters="sRGB">
<feFlood flood-opacity="0" result="BackgroundImageFix"/>
<feColorMatrix in="SourceAlpha" type="matrix" values="0 0 0 0 0 0 0 0 0 0 0 0 0 0 0 0 0 0 127 0" result="hardAlpha"/>
<feOffset dy="0.666667"/>
<feGaussianBlur stdDeviation="0.666667"/>
<feComposite in2="hardAlpha" operator="out"/>
<feColorMatrix type="matrix" values="0 0 0 0 0.0666667 0 0 0 0 0.0980392 0 0 0 0 0.117647 0 0 0 0.05 0"/>
<feBlend mode="normal" in2="BackgroundImageFix" result="effect1_dropShadow_16142_67115"/>
<feBlend mode="normal" in="SourceGraphic" in2="effect1_dropShadow_16142_67115" result="shape"/>
<feColorMatrix in="SourceAlpha" type="matrix" values="0 0 0 0 0 0 0 0 0 0 0 0 0 0 0 0 0 0 127 0" result="hardAlpha"/>
<feOffset dx="1.06667" dy="1.06667"/>
<feGaussianBlur stdDeviation="1.06667"/>
<feComposite in2="hardAlpha" operator="arithmetic" k2="-1" k3="1"/>
<feColorMatrix type="matrix" values="0 0 0 0 0.0666667 0 0 0 0 0.0980392 0 0 0 0 0.117647 0 0 0 0.1 0"/>
<feBlend mode="normal" in2="shape" result="effect2_innerShadow_16142_67115"/>
</filter>
<filter id="filter1_ddii_16142_67115" x="-2.42857" y="-2.42857" width="29.4286" height="29.4286" filterUnits="userSpaceOnUse" color-interpolation-filters="sRGB">
<feFlood flood-opacity="0" result="BackgroundImageFix"/>
<feColorMatrix in="SourceAlpha" type="matrix" values="0 0 0 0 0 0 0 0 0 0 0 0 0 0 0 0 0 0 127 0" result="hardAlpha"/>
<feOffset dx="1.71429" dy="1.71429"/>
<feGaussianBlur stdDeviation="3.14286"/>
<feComposite in2="hardAlpha" operator="out"/>
<feColorMatrix type="matrix" values="0 0 0 0 0.321569 0 0 0 0 0.435294 0 0 0 0 1 0 0 0 1 0"/>
<feBlend mode="normal" in2="BackgroundImageFix" result="effect1_dropShadow_16142_67115"/>
<feColorMatrix in="SourceAlpha" type="matrix" values="0 0 0 0 0 0 0 0 0 0 0 0 0 0 0 0 0 0 127 0" result="hardAlpha"/>
<feOffset dx="-1.71429" dy="-1.71429"/>
<feGaussianBlur stdDeviation="2.85714"/>
<feComposite in2="hardAlpha" operator="out"/>
<feColorMatrix type="matrix" values="0 0 0 0 1 0 0 0 0 1 0 0 0 0 1 0 0 0 0.4 0"/>
<feBlend mode="normal" in2="effect1_dropShadow_16142_67115" result="effect2_dropShadow_16142_67115"/>
<feBlend mode="normal" in="SourceGraphic" in2="effect2_dropShadow_16142_67115" result="shape"/>
<feColorMatrix in="SourceAlpha" type="matrix" values="0 0 0 0 0 0 0 0 0 0 0 0 0 0 0 0 0 0 127 0" result="hardAlpha"/>
<feOffset dy="-0.857143"/>
<feGaussianBlur stdDeviation="0.657143"/>
<feComposite in2="hardAlpha" operator="arithmetic" k2="-1" k3="1"/>
<feColorMatrix type="matrix" values="0 0 0 0 0 0 0 0 0 0.598039 0 0 0 0 1 0 0 0 0.4 0"/>
<feBlend mode="normal" in2="shape" result="effect3_innerShadow_16142_67115"/>
<feColorMatrix in="SourceAlpha" type="matrix" values="0 0 0 0 0 0 0 0 0 0 0 0 0 0 0 0 0 0 127 0" result="hardAlpha"/>
<feOffset dy="-0.285714"/>
<feGaussianBlur stdDeviation="0.371429"/>
<feComposite in2="hardAlpha" operator="arithmetic" k2="-1" k3="1"/>
<feColorMatrix type="matrix" values="0 0 0 0 1 0 0 0 0 1 0 0 0 0 1 0 0 0 0.6 0"/>
<feBlend mode="normal" in2="effect3_innerShadow_16142_67115" result="effect4_innerShadow_16142_67115"/>
</filter>
<linearGradient id="paint0_linear_16142_67115" x1="4.08" y1="6.48" x2="22.08" y2="28.56" gradientUnits="userSpaceOnUse">
<stop stop-color="#11191E" stop-opacity="0.4"/>
<stop offset="1" stop-color="white"/>
</linearGradient>
<linearGradient id="paint1_linear_16142_67115" x1="4.74" y1="6.94" x2="21.24" y2="27.18" gradientUnits="userSpaceOnUse">
<stop stop-color="#11191E" stop-opacity="0.4"/>
<stop offset="1" stop-color="white"/>
</linearGradient>
</defs>
</svg>
