<svg width="40" height="40" viewBox="0 0 40 40" fill="none" xmlns="http://www.w3.org/2000/svg">
<g clip-path="url(#clip0_17594_400109)">
<mask id="mask0_17594_400109" style="mask-type:alpha" maskUnits="userSpaceOnUse" x="0" y="0" width="40" height="40">
<path d="M20 0.799805C26.7982 0.799805 31.5477 2.32891 34.6094 5.39062C37.6711 8.45234 39.2002 13.2018 39.2002 20C39.2002 26.7982 37.6711 31.5477 34.6094 34.6094C31.5477 37.6711 26.7982 39.2002 20 39.2002C13.2018 39.2002 8.45234 37.6711 5.39062 34.6094C2.32891 31.5477 0.799805 26.7982 0.799805 20C0.799805 13.2018 2.32891 8.45234 5.39062 5.39062C8.45234 2.32891 13.2018 0.799805 20 0.799805Z" fill="#0099FF"/>
<path d="M20 0.799805C26.7982 0.799805 31.5477 2.32891 34.6094 5.39062C37.6711 8.45234 39.2002 13.2018 39.2002 20C39.2002 26.7982 37.6711 31.5477 34.6094 34.6094C31.5477 37.6711 26.7982 39.2002 20 39.2002C13.2018 39.2002 8.45234 37.6711 5.39062 34.6094C2.32891 31.5477 0.799805 26.7982 0.799805 20C0.799805 13.2018 2.32891 8.45234 5.39062 5.39062C8.45234 2.32891 13.2018 0.799805 20 0.799805Z" stroke="url(#paint0_linear_17594_400109)" stroke-width="1.6"/>
</mask>
<g mask="url(#mask0_17594_400109)">
<g filter="url(#filter0_di_17594_400109)">
<path d="M3.31444 10.8845C4.5941 7.36546 7.36607 4.59349 10.8851 3.31383C11.6635 3.03078 12.4678 2.82481 13.2864 2.69887L15.1542 2.41152C18.3658 1.91742 21.6341 1.91743 24.8458 2.41152L26.7135 2.69887C27.5321 2.82481 28.3364 3.03078 29.1148 3.31383C32.6338 4.59349 35.4058 7.36546 36.6855 10.8845C36.9685 11.6629 37.1745 12.4672 37.3004 13.2858L37.6428 15.5109C38.0999 18.4824 38.0587 21.5094 37.5209 24.4673L37.3452 25.4336C37.1894 26.2907 36.9614 27.1331 36.6637 27.9518L36.4549 28.5261C35.3025 31.6952 33.0332 34.3348 30.0728 35.9495C28.6646 36.7176 27.1336 37.2352 25.5481 37.4791L23.7155 37.7611C21.2529 38.1399 18.747 38.1399 16.2845 37.7611L14.4518 37.4791C12.8663 37.2352 11.3353 36.7176 9.92709 35.9495C6.96674 34.3348 4.69743 31.6952 3.54504 28.5261L3.33621 27.9518C3.0385 27.1331 2.81051 26.2907 2.65468 25.4336L2.47899 24.4673C1.94117 21.5094 1.9 18.4824 2.35715 15.5109L2.69948 13.2858C2.82542 12.4672 3.03139 11.6629 3.31444 10.8845Z" fill="#FF8401"/>
<path d="M15.2682 3.15234C18.4042 2.66988 21.596 2.66988 24.7321 3.15234L26.5992 3.44043C27.3692 3.55888 28.1259 3.75236 28.858 4.01855C32.1686 5.2224 34.7772 7.83007 35.9811 11.1406C36.2473 11.8728 36.4407 12.6294 36.5592 13.3994L36.901 15.625C37.3455 18.5141 37.3057 21.457 36.7828 24.333L36.6071 25.2998C36.4588 26.1152 36.2418 26.9165 35.9586 27.6953L35.7496 28.2695C34.6597 31.2669 32.5135 33.7637 29.7135 35.291C28.3816 36.0175 26.9337 36.5076 25.4342 36.7383L23.6012 37.0195C21.2143 37.3867 18.7849 37.3867 16.3981 37.0195L14.566 36.7383C13.0665 36.5076 11.6177 36.0175 10.2858 35.291C7.48596 33.7637 5.33955 31.2668 4.24963 28.2695L4.04065 27.6953C3.75747 26.9165 3.54047 26.1151 3.39221 25.2998L3.21643 24.333C2.69357 21.4571 2.6538 18.5141 3.09827 15.625L3.44104 13.3994C3.55952 12.6295 3.75294 11.8727 4.01917 11.1406C5.22302 7.83017 7.83078 5.22241 11.1412 4.01855C11.8733 3.75233 12.6301 3.55891 13.4 3.44043L15.2682 3.15234Z" stroke="url(#paint1_linear_17594_400109)" stroke-width="1.5" style="mix-blend-mode:overlay"/>
</g>
<g filter="url(#filter1_ddii_17594_400109)">
<path d="M28.7471 22.4307C28.9191 22.4307 29.0912 22.4603 29.2529 22.5195C29.415 22.5789 29.5665 22.6677 29.6963 22.7832C29.826 22.8988 29.932 23.04 30.0049 23.2002C30.0761 23.3571 30.1126 23.5278 30.1104 23.7012L30.1113 28.3672C30.1113 28.4173 30.104 28.46 30.0967 28.4912C30.0821 28.5962 30.0503 28.6877 30.0469 28.6992C30.0463 28.701 30.0443 28.7071 30.042 28.7158C30.0397 28.7244 30.0353 28.7415 30.0303 28.7588C30.02 28.7946 30.0007 28.8545 29.9658 28.9199C29.9307 28.986 29.8908 29.0373 29.8682 29.0645C29.8572 29.0776 29.8461 29.0915 29.8408 29.0977C29.834 29.1055 29.8291 29.1094 29.8291 29.1094L29.8271 29.1123C29.8159 29.1261 29.7597 29.1989 29.6836 29.2695C29.6644 29.2911 29.6367 29.3215 29.5986 29.3496C29.5279 29.4016 29.458 29.4291 29.4346 29.4385C29.4289 29.4407 29.4227 29.4432 29.4199 29.4443L29.416 29.4463C29.3699 29.4721 29.2862 29.5183 29.1895 29.5488L29.1885 29.5479C29.0927 29.5781 28.9975 29.5889 28.9453 29.5947L28.9414 29.5967C28.9387 29.5973 28.9301 29.6001 28.9238 29.6016C28.8969 29.608 28.829 29.623 28.7461 29.623C28.7035 29.623 28.6675 29.6179 28.6426 29.6133L28.6211 29.6074C28.5277 29.5968 28.4462 29.5788 28.4219 29.5732L28.418 29.5723C28.3889 29.5655 28.4112 29.5716 28.3516 29.5586C28.3166 29.551 28.2588 29.5367 28.1953 29.5107C28.1321 29.4849 28.0822 29.4548 28.0518 29.4355C27.999 29.4022 28.0223 29.4168 27.9971 29.4014L27.9922 29.3984C27.9769 29.3889 27.9077 29.3452 27.835 29.2881C27.8278 29.2836 27.8187 29.2778 27.8096 29.2715C27.7874 29.2561 27.7565 29.2325 27.7246 29.1992L25.6445 27.0371V28.3975C25.636 28.7496 25.4693 29.0677 25.209 29.29C24.9509 29.5104 24.6173 29.6249 24.2812 29.625C23.945 29.625 23.6108 29.5105 23.3525 29.29C23.0923 29.0677 22.9255 28.7496 22.917 28.3975V23.7188C22.9171 23.3618 23.0796 23.0358 23.3408 22.8076C23.6003 22.5812 23.9405 22.464 24.2812 22.4639C24.6666 22.464 25.0049 22.6165 25.25 22.8496L25.3018 22.8896L25.3076 22.8975L25.3135 22.9033L27.3828 25.0527V23.7012C27.3806 23.5278 27.4171 23.3571 27.4883 23.2002C27.5611 23.0399 27.6681 22.8988 27.7979 22.7832C27.9275 22.6678 28.0783 22.5789 28.2402 22.5195C28.4022 22.4602 28.5748 22.4307 28.7471 22.4307ZM28.6162 29.6074H28.6133L28.6113 29.6064L28.6162 29.6074ZM19.1445 11.4473C19.5702 11.2441 20.0523 11.1958 20.5088 11.3115C20.7726 11.3745 21.0212 11.4934 21.2373 11.6592C21.4531 11.8248 21.6324 12.0345 21.7637 12.2744C22.1397 12.9561 22.5078 13.6424 22.8799 14.3281L24.666 17.6533C25.4364 19.0923 26.2095 20.5302 26.9854 21.9668C26.9081 22.1933 26.8652 22.4361 26.8672 22.6846C26.8675 22.7196 26.8683 22.7403 26.8672 22.7754C26.8427 23.5285 26.124 22.7437 25.5977 22.2041C25.5918 22.1981 25.5878 22.1944 25.582 22.1885C25.5606 22.1664 25.5497 22.152 25.5273 22.1309C25.507 22.1117 25.4925 22.1037 25.4727 22.084C25.163 21.7754 24.759 21.5602 24.3008 21.5098C24.22 21.5009 24.174 21.498 24.0928 21.498C23.6039 21.4983 23.1082 21.6836 22.7227 22.0547C22.3332 22.4298 22.0791 22.9775 22.0791 23.5898C22.0791 25.6228 22.0391 26.8182 22.0732 28.748H12.7197C12.31 28.7311 11.9134 28.5887 11.583 28.3379C11.2054 28.0512 10.9378 27.6403 10.8262 27.1758C10.7612 26.9164 10.7472 26.6457 10.7852 26.3809C10.8232 26.1161 10.9127 25.8607 11.0479 25.6309L18.1729 12.4268C18.3753 11.9965 18.719 11.6505 19.1445 11.4473ZM30.0762 28.5596C30.0762 28.5596 30.0774 28.5567 30.0791 28.5518V28.5488C30.0772 28.5542 30.0762 28.5596 30.0762 28.5596ZM19.1748 23.0879C19.1076 23.0828 19.0399 23.0921 18.9766 23.1152C18.9132 23.1383 18.8552 23.1754 18.8066 23.2227C18.7583 23.2699 18.7205 23.3275 18.6953 23.3906C18.6702 23.4538 18.6577 23.5218 18.6602 23.5898V25.3066C18.6572 25.3764 18.6687 25.4468 18.6943 25.5117C18.72 25.5764 18.759 25.6352 18.8086 25.6836C18.8584 25.7321 18.9183 25.7695 18.9834 25.793C19.0484 25.8164 19.1178 25.826 19.1865 25.8203H20.8174C20.8878 25.8275 20.9595 25.8185 21.0264 25.7949C21.0933 25.7713 21.1542 25.7326 21.2051 25.6826C21.2559 25.6326 21.296 25.5719 21.3213 25.5049C21.3465 25.4379 21.3574 25.3654 21.3525 25.2939V23.6016C21.3561 23.532 21.3444 23.4623 21.3193 23.3975C21.2942 23.3325 21.2555 23.2732 21.2061 23.2246C21.1566 23.176 21.0971 23.1387 21.0322 23.1152C20.9675 23.0918 20.8986 23.0822 20.8301 23.0879H19.1748ZM25.1973 22.8115C25.1944 22.8098 25.1911 22.8071 25.1904 22.8066L25.1875 22.8057C25.1885 22.8063 25.1932 22.8091 25.1973 22.8115ZM19.0518 17.2686C18.979 17.2668 18.9067 17.2798 18.8389 17.3066C18.771 17.3335 18.7087 17.3735 18.6562 17.4248C18.6056 17.482 18.5671 17.5499 18.5439 17.623C18.5209 17.696 18.5131 17.7734 18.5215 17.8496C18.565 19.1772 18.6166 20.5056 18.6641 21.8291C18.68 22.1697 18.8308 22.3301 19.1592 22.3301H20.8535C20.9184 22.3349 20.984 22.3258 21.0449 22.3027C21.1058 22.2796 21.1612 22.243 21.207 22.1963C21.2528 22.1496 21.2882 22.0931 21.3105 22.0312C21.3328 21.9693 21.3412 21.9026 21.3359 21.8369L21.4434 19.1973L21.4902 17.8262C21.4917 17.6754 21.4349 17.5298 21.332 17.4209C21.225 17.3194 21.0831 17.2647 20.9365 17.2686H19.0518ZM25.3984 22.0254C25.402 22.0283 25.4049 22.0299 25.4082 22.0332L25.4102 22.0352C25.4051 22.0307 25.3992 22.0271 25.3936 22.0234C25.3959 22.0241 25.3977 22.0249 25.3984 22.0254ZM25.3779 22.0127C25.3829 22.0164 25.3883 22.02 25.3936 22.0234C25.3856 22.021 25.3706 22.0164 25.3652 22.001C25.3634 21.9955 25.3733 22.0093 25.3779 22.0127Z" fill="white"/>
</g>
</g>
</g>
<defs>
<filter id="filter0_di_17594_400109" x="0.0424805" y="1.04102" width="39.915" height="40.0039" filterUnits="userSpaceOnUse" color-interpolation-filters="sRGB">
<feFlood flood-opacity="0" result="BackgroundImageFix"/>
<feColorMatrix in="SourceAlpha" type="matrix" values="0 0 0 0 0 0 0 0 0 0 0 0 0 0 0 0 0 0 127 0" result="hardAlpha"/>
<feOffset dy="1"/>
<feGaussianBlur stdDeviation="1"/>
<feComposite in2="hardAlpha" operator="out"/>
<feColorMatrix type="matrix" values="0 0 0 0 0.0666667 0 0 0 0 0.0980392 0 0 0 0 0.117647 0 0 0 0.05 0"/>
<feBlend mode="normal" in2="BackgroundImageFix" result="effect1_dropShadow_17594_400109"/>
<feBlend mode="normal" in="SourceGraphic" in2="effect1_dropShadow_17594_400109" result="shape"/>
<feColorMatrix in="SourceAlpha" type="matrix" values="0 0 0 0 0 0 0 0 0 0 0 0 0 0 0 0 0 0 127 0" result="hardAlpha"/>
<feOffset dx="1.6" dy="1.6"/>
<feGaussianBlur stdDeviation="1.6"/>
<feComposite in2="hardAlpha" operator="arithmetic" k2="-1" k3="1"/>
<feColorMatrix type="matrix" values="0 0 0 0 0.0666667 0 0 0 0 0.0980392 0 0 0 0 0.117647 0 0 0 0.1 0"/>
<feBlend mode="normal" in2="shape" result="effect2_innerShadow_17594_400109"/>
</filter>
<filter id="filter1_ddii_17594_400109" x="-2.80948" y="-2.80887" width="46.4762" height="46.4768" filterUnits="userSpaceOnUse" color-interpolation-filters="sRGB">
<feFlood flood-opacity="0" result="BackgroundImageFix"/>
<feColorMatrix in="SourceAlpha" type="matrix" values="0 0 0 0 0 0 0 0 0 0 0 0 0 0 0 0 0 0 127 0" result="hardAlpha"/>
<feOffset dx="2.57143" dy="2.57143"/>
<feGaussianBlur stdDeviation="4.71429"/>
<feComposite in2="hardAlpha" operator="out"/>
<feColorMatrix type="matrix" values="0 0 0 0 1 0 0 0 0 0.266667 0 0 0 0 0 0 0 0 1 0"/>
<feBlend mode="normal" in2="BackgroundImageFix" result="effect1_dropShadow_17594_400109"/>
<feColorMatrix in="SourceAlpha" type="matrix" values="0 0 0 0 0 0 0 0 0 0 0 0 0 0 0 0 0 0 127 0" result="hardAlpha"/>
<feOffset dx="-2.57143" dy="-2.57143"/>
<feGaussianBlur stdDeviation="4.28571"/>
<feComposite in2="hardAlpha" operator="out"/>
<feColorMatrix type="matrix" values="0 0 0 0 1 0 0 0 0 1 0 0 0 0 1 0 0 0 0.4 0"/>
<feBlend mode="normal" in2="effect1_dropShadow_17594_400109" result="effect2_dropShadow_17594_400109"/>
<feBlend mode="normal" in="SourceGraphic" in2="effect2_dropShadow_17594_400109" result="shape"/>
<feColorMatrix in="SourceAlpha" type="matrix" values="0 0 0 0 0 0 0 0 0 0 0 0 0 0 0 0 0 0 127 0" result="hardAlpha"/>
<feOffset dy="-1.28571"/>
<feGaussianBlur stdDeviation="0.985714"/>
<feComposite in2="hardAlpha" operator="arithmetic" k2="-1" k3="1"/>
<feColorMatrix type="matrix" values="0 0 0 0 1 0 0 0 0 0.517647 0 0 0 0 0.00392157 0 0 0 0.4 0"/>
<feBlend mode="normal" in2="shape" result="effect3_innerShadow_17594_400109"/>
<feColorMatrix in="SourceAlpha" type="matrix" values="0 0 0 0 0 0 0 0 0 0 0 0 0 0 0 0 0 0 127 0" result="hardAlpha"/>
<feOffset dy="-0.428571"/>
<feGaussianBlur stdDeviation="0.557143"/>
<feComposite in2="hardAlpha" operator="arithmetic" k2="-1" k3="1"/>
<feColorMatrix type="matrix" values="0 0 0 0 1 0 0 0 0 1 0 0 0 0 1 0 0 0 0.6 0"/>
<feBlend mode="normal" in2="effect3_innerShadow_17594_400109" result="effect4_innerShadow_17594_400109"/>
</filter>
<linearGradient id="paint0_linear_17594_400109" x1="6.8" y1="10.8" x2="36.8" y2="47.6" gradientUnits="userSpaceOnUse">
<stop stop-color="#11191E" stop-opacity="0.4"/>
<stop offset="1" stop-color="white"/>
</linearGradient>
<linearGradient id="paint1_linear_17594_400109" x1="7.89996" y1="11.566" x2="35.4" y2="45.2993" gradientUnits="userSpaceOnUse">
<stop stop-color="#11191E" stop-opacity="0.4"/>
<stop offset="1" stop-color="white"/>
</linearGradient>
<clipPath id="clip0_17594_400109">
<rect width="40" height="40" fill="white"/>
</clipPath>
</defs>
</svg>
