<svg width="50" height="50" viewBox="0 0 50 50" fill="none" xmlns="http://www.w3.org/2000/svg">
<g id="Group 43749">
<g id="Group 42955">
<g id="Group 42475">
<g id="Rectangle 2114">
<g filter="url(#filter0_i_6916_46510)">
<rect width="49.8077" height="49.8077" rx="16" fill="#DEF2FF"/>
</g>
<rect x="1" y="1" width="47.8077" height="47.8077" rx="15" stroke="url(#paint0_linear_6916_46510)" stroke-width="2" style="mix-blend-mode:overlay"/>
</g>
</g>
</g>
<path id="Vector" d="M34.2093 18.0769C35.1988 18.0769 36 18.88 36 19.8718V33.2051C36 33.6812 35.8113 34.1377 35.4755 34.4743C35.1397 34.8109 34.6842 35 34.2093 35H15.7907C15.3158 35 14.8603 34.8109 14.5245 34.4743C14.1887 34.1377 14 33.6812 14 33.2051V19.8718C14 18.88 14.8012 18.0769 15.7907 18.0769H34.2093ZM34.2093 19.6154H15.7907C15.7229 19.6154 15.6578 19.6424 15.6098 19.6905C15.5618 19.7386 15.5349 19.8038 15.5349 19.8718V33.2051C15.5349 33.3467 15.6495 33.4615 15.7907 33.4615H34.2093C34.2771 33.4615 34.3422 33.4345 34.3902 33.3864C34.4382 33.3384 34.4651 33.2731 34.4651 33.2051V19.8718C34.4651 19.8038 34.4382 19.7386 34.3902 19.6905C34.3422 19.6424 34.2771 19.6154 34.2093 19.6154ZM24.8854 21.441C25.1801 21.4656 25.4257 21.5641 25.5362 21.8595C25.5485 21.921 25.573 22.5241 25.573 22.5241C26.101 22.6349 26.7027 22.8072 27.157 23.0656C27.5131 23.2872 27.7587 23.5579 27.7464 23.9887C27.7341 24.2226 27.55 24.481 27.3167 24.5056C27.0588 24.5303 26.8255 24.3703 26.6167 24.2595C26.3343 24.1364 25.9414 23.9641 25.573 23.9272V25.6256C25.9168 25.7241 26.3343 25.9087 26.6045 26.0195C27.5131 26.3887 27.9552 27.2995 27.9183 28.2226C27.9121 28.5189 27.8496 28.8113 27.7341 29.0841C27.5991 29.3056 27.4394 29.5149 27.243 29.6749C27.0465 29.8472 26.8132 29.9703 26.5431 30.0933C26.2238 30.1842 25.9 30.2581 25.573 30.3149C25.5362 30.3149 25.5607 30.8195 25.573 30.8687C25.573 30.9918 25.5362 31.1395 25.4871 31.2256C25.1801 31.6564 24.3328 31.6072 24.1978 31.041C24.1609 30.9795 24.1609 30.3641 24.1487 30.3641C23.768 30.3149 23.2154 30.2287 22.8348 30.0933C22.3436 29.8964 21.7051 29.6872 21.4964 29.1703C21.3245 28.7887 21.3981 28.1979 21.877 28.0872C22.2208 27.9887 22.5033 28.3703 22.798 28.5179C23.1663 28.6656 23.7312 28.801 24.1487 28.8626V26.721C23.854 26.6226 23.4242 26.5364 23.2032 26.4749C22.9944 26.3887 22.8225 26.3395 22.6874 26.2656C22.3593 26.1437 22.0822 25.9137 21.9016 25.6133C21.7373 25.3204 21.6526 24.9894 21.656 24.6533C21.656 24.3333 21.7297 24.0379 21.8279 23.7918C21.9261 23.5456 22.098 23.3241 22.3068 23.1518C22.5033 22.9549 22.7611 22.8318 23.0558 22.7087C23.3382 22.5856 23.8171 22.5241 24.1487 22.4872C24.1487 22.2656 24.1118 21.9826 24.2469 21.7979C24.4433 21.5272 24.5661 21.4164 24.8854 21.441ZM25.573 27.1518C25.573 27.7179 25.6099 28.3087 25.5976 28.8872C26.101 28.9487 26.6167 28.5672 26.5553 28.0133C26.5062 27.5826 25.9905 27.2626 25.573 27.1518ZM24.1487 23.9149C23.6084 23.9395 23.1909 24.161 23.2768 24.7149C23.2891 24.8379 23.3996 25.0226 23.5347 25.121C23.682 25.2195 23.9031 25.2687 24.1487 25.3056V23.9149ZM33.186 15C33.3805 15.0001 33.5677 15.0741 33.7097 15.2072C33.8518 15.3402 33.9382 15.5224 33.9515 15.7168C33.9647 15.9112 33.9038 16.1035 33.7811 16.2547C33.6584 16.4059 33.483 16.5047 33.2904 16.5313L33.186 16.5385H16.814C16.6195 16.5384 16.4323 16.4644 16.2903 16.3313C16.1482 16.1983 16.0618 16.0161 16.0485 15.8217C16.0353 15.6272 16.0962 15.435 16.2189 15.2838C16.3416 15.1326 16.517 15.0337 16.7096 15.0072L16.814 15H33.186Z" fill="#0099FF"/>
</g>
<defs>
<filter id="filter0_i_6916_46510" x="0" y="0" width="51.8076" height="51.8086" filterUnits="userSpaceOnUse" color-interpolation-filters="sRGB">
<feFlood flood-opacity="0" result="BackgroundImageFix"/>
<feBlend mode="normal" in="SourceGraphic" in2="BackgroundImageFix" result="shape"/>
<feColorMatrix in="SourceAlpha" type="matrix" values="0 0 0 0 0 0 0 0 0 0 0 0 0 0 0 0 0 0 127 0" result="hardAlpha"/>
<feOffset dx="2" dy="2"/>
<feGaussianBlur stdDeviation="2"/>
<feComposite in2="hardAlpha" operator="arithmetic" k2="-1" k3="1"/>
<feColorMatrix type="matrix" values="0 0 0 0 0.0666667 0 0 0 0 0.0980392 0 0 0 0 0.117647 0 0 0 0.1 0"/>
<feBlend mode="normal" in2="shape" result="effect1_innerShadow_6916_46510"/>
</filter>
<linearGradient id="paint0_linear_6916_46510" x1="8.46731" y1="13.4481" x2="45.8231" y2="59.2712" gradientUnits="userSpaceOnUse">
<stop stop-color="#11191E" stop-opacity="0.4"/>
<stop offset="1" stop-color="white"/>
</linearGradient>
</defs>
</svg>
