<svg width="19" height="14" viewBox="0 0 19 14" fill="none" xmlns="http://www.w3.org/2000/svg">
<path id="Vector" d="M18.7961 13.9995L14.2261 13.4355C14.1931 13.4293 14.1623 13.4144 14.1368 13.3923C14.1113 13.3701 14.0921 13.3415 14.0811 13.3093C14.07 13.2772 14.0676 13.2426 14.074 13.2092C14.0805 13.1758 14.0955 13.1447 14.1176 13.1191L15.4737 11.7435L10.2935 6.48882L7.96107 8.85481C7.89092 8.92055 7.79892 8.95706 7.70342 8.95706C7.60791 8.95706 7.51592 8.92055 7.44577 8.85481L0.014506 1.37168C0.00555422 1.34988 0.000945365 1.32651 0.000945365 1.3029C0.000945365 1.27929 0.00555422 1.25591 0.014506 1.23412C0.00496822 1.21492 0 1.19372 0 1.17222C0 1.15072 0.00496822 1.12952 0.014506 1.11032L1.04512 0.0511227C1.08019 0.0182533 1.12619 0 1.17395 0C1.2217 0 1.2677 0.0182533 1.30277 0.0511227L7.70342 6.48882L10.0359 4.12283C10.0688 4.08701 10.1087 4.05845 10.1531 4.03892C10.1974 4.0194 10.2452 4.00932 10.2935 4.00932C10.3418 4.00932 10.3896 4.0194 10.434 4.03892C10.4783 4.05845 10.5182 4.08701 10.5512 4.12283L16.7755 10.423L18.1316 9.04739H18.3214C18.3478 9.03795 18.3765 9.03795 18.4028 9.04739C18.4131 9.07863 18.4131 9.11244 18.4028 9.14368L18.9995 13.7931C19.0015 13.8208 18.9976 13.8485 18.9881 13.8745C18.9786 13.9004 18.9637 13.924 18.9444 13.9436C18.9251 13.9632 18.9018 13.9783 18.8762 13.988C18.8506 13.9976 18.8233 14.0015 18.7961 13.9995Z" fill="#FF384C"/>
</svg>
