<svg width="40" height="40" viewBox="0 0 40 40" fill="none" xmlns="http://www.w3.org/2000/svg">
<g filter="url(#filter0_i_4632_31693)">
<path d="M1 20C1 6.89 6.89 1 20 1C33.11 1 39 6.89 39 20C39 33.11 33.11 39 20 39C6.89 39 1 33.11 1 20Z" fill="#0099FF"/>
</g>
<path d="M2 20C2 13.5723 3.44621 9.1355 6.29086 6.29086C9.1355 3.44621 13.5723 2 20 2C26.4277 2 30.8645 3.44621 33.7091 6.29086C36.5538 9.1355 38 13.5723 38 20C38 26.4277 36.5538 30.8645 33.7091 33.7091C30.8645 36.5538 26.4277 38 20 38C13.5723 38 9.1355 36.5538 6.29086 33.7091C3.44621 30.8645 2 26.4277 2 20Z" stroke="url(#paint0_linear_4632_31693)" stroke-width="2" style="mix-blend-mode:overlay"/>
<mask id="mask0_4632_31693" style="mask-type:alpha" maskUnits="userSpaceOnUse" x="0" y="0" width="40" height="40">
<path d="M1 20C1 13.2273 2.52371 8.5405 5.53211 5.53211C8.5405 2.52371 13.2273 1 20 1C26.7727 1 31.4595 2.52371 34.4679 5.53211C37.4763 8.5405 39 13.2273 39 20C39 26.7727 37.4763 31.4595 34.4679 34.4679C31.4595 37.4763 26.7727 39 20 39C13.2273 39 8.5405 37.4763 5.53211 34.4679C2.52371 31.4595 1 26.7727 1 20Z" fill="#0099FF"/>
<path d="M1 20C1 13.2273 2.52371 8.5405 5.53211 5.53211C8.5405 2.52371 13.2273 1 20 1C26.7727 1 31.4595 2.52371 34.4679 5.53211C37.4763 8.5405 39 13.2273 39 20C39 26.7727 37.4763 31.4595 34.4679 34.4679C31.4595 37.4763 26.7727 39 20 39C13.2273 39 8.5405 37.4763 5.53211 34.4679C2.52371 31.4595 1 26.7727 1 20Z" stroke="url(#paint1_linear_4632_31693)" stroke-width="2"/>
</mask>
<g mask="url(#mask0_4632_31693)">
<g filter="url(#filter1_ddii_4632_31693)">
<path d="M22.7274 15.7019C22.7274 15.7019 22.7301 15.701 22.731 15.7001C22.731 15.7001 22.731 15.7001 22.7319 15.7001C22.7301 15.7001 22.7292 15.701 22.7274 15.7019ZM22.7986 15.655C22.7986 15.655 22.8004 15.655 22.8004 15.6532C22.8004 15.6532 22.8004 15.6532 22.7995 15.6523C22.7995 15.6523 22.7995 15.6541 22.7995 15.655M17.8473 15.341C19.0563 15.5431 20.2761 15.8507 21.3163 15.8904C20.2788 15.848 19.0635 15.5422 17.8591 15.341C17.3205 15.2508 16.7846 15.1813 16.2676 15.166C16.7809 15.1822 17.3132 15.2508 17.8473 15.3401M22.2762 12.2483C22.066 12.2483 21.8486 12.2356 21.624 12.214C21.6555 12.2898 21.6925 12.3863 21.7376 12.5081C21.0682 12.7057 21.1449 12.7544 20.9672 13.2506C22.0209 13.7297 22.8329 14.4632 23.0251 15.4745C23.7126 14.8502 24.1402 13.671 24.1357 11.6104C23.6747 12.0868 23.0287 12.2483 22.2762 12.2483ZM12.9782 12.7815C12.8798 12.9294 12.8031 13.081 12.7436 13.2335C12.4901 13.7125 12.3448 14.2584 12.343 14.8385V15.2408L12.3313 18.6981C12.3313 18.5862 12.3394 18.4761 12.3502 18.367C12.3502 18.358 12.352 18.3489 12.353 18.3399V18.164L12.3548 17.7616C12.3566 17.1815 12.5018 16.6357 12.7553 16.1566C12.8149 16.0032 12.8907 15.8525 12.9899 15.7046C13.7234 14.6057 14.6824 14.2818 15.803 14.2818C16.3641 14.2818 16.9659 14.363 17.6001 14.4695C18.5105 14.6923 19.4226 14.9224 20.4222 15.2399C20.7389 15.3202 21.2171 15.4186 21.6619 15.4186C21.8315 15.4186 21.9966 15.4041 22.1454 15.369C21.6519 14.8737 20.8796 14.2575 20.5585 13.9931C20.5097 13.9525 20.4709 13.9209 20.4457 13.8984C20.4466 13.8975 20.4484 13.8957 20.4493 13.8939C20.4448 13.8912 20.4403 13.8885 20.4358 13.8857C20.4655 13.7125 20.5043 13.5483 20.5503 13.3931C20.5783 13.2984 20.6099 13.2055 20.6442 13.1171C20.6604 13.1234 20.6776 13.1306 20.6938 13.1369C20.6261 12.8599 20.5314 12.5839 20.2968 12.029C20.3176 12.0335 20.3383 12.038 20.3591 12.0426C20.3573 12.038 20.3555 12.0326 20.3537 12.0281C19.8809 11.9415 19.3946 11.8414 18.9074 11.7538C18.5565 11.6745 18.1983 11.5951 17.8483 11.5103C17.2357 11.4074 16.6267 11.3325 16.0448 11.3325C14.8223 11.3325 13.7225 11.6663 12.9764 12.7842" fill="white"/>
<path d="M22.5199 15.7778C22.5551 15.7679 22.5893 15.7571 22.6236 15.7454C22.6272 15.7435 22.6299 15.7417 22.6326 15.7399C22.5857 15.7571 22.5415 15.7706 22.5199 15.7778ZM12.9908 15.7048C12.8916 15.8527 12.8158 16.0043 12.7563 16.1568C12.5027 16.6358 12.3575 17.1817 12.3557 17.7618V18.1641L12.3539 18.3401V18.396C12.3782 18.156 12.427 17.9233 12.4973 17.6995C12.5632 17.4794 12.648 17.2674 12.7545 17.068C12.814 16.9155 12.8898 16.7639 12.989 16.616C13.7352 15.4981 14.8349 15.1652 16.0574 15.1652C16.1278 15.1652 16.1982 15.1661 16.2694 15.1688C16.7864 15.1842 17.3223 15.2537 17.8609 15.3439C19.0644 15.5451 20.2797 15.8509 21.3181 15.8933C21.3975 15.8969 21.4751 15.8978 21.5518 15.8978C21.8946 15.8978 22.2158 15.8644 22.5063 15.7823C22.4288 15.666 22.3015 15.5234 22.1473 15.3691C21.9984 15.4043 21.8333 15.4188 21.6637 15.4188C21.2189 15.4188 20.7407 15.3204 20.4241 15.2401C19.4244 14.9225 18.5114 14.6925 17.602 14.4696C16.9677 14.3632 16.366 14.282 15.8048 14.282C14.6843 14.282 13.7252 14.6059 12.9917 15.7048" fill="white"/>
<path d="M13.0937 17.8834C12.9953 18.0314 12.9186 18.183 12.8591 18.3354C12.6056 18.8145 12.4603 19.3603 12.4585 19.9413V20.3437L12.4468 23.801C12.4468 23.6891 12.4549 23.579 12.4657 23.4699V23.238L12.4675 22.8356C12.4693 22.2555 12.6146 21.7097 12.8681 21.2306C12.9276 21.0781 13.0034 20.9265 13.1027 20.7786C13.7008 19.8818 14.4506 19.5011 15.3149 19.391C15.5909 19.3468 15.8769 19.3269 16.1711 19.3269H16.172C16.7449 19.3269 17.3448 19.4 17.9475 19.5002C17.9565 19.502 17.9655 19.5029 17.9755 19.5047C18.0115 19.5336 18.0521 19.5615 18.0955 19.5877C18.3273 19.6138 18.6196 19.6373 18.9273 19.6373C19.3865 19.6373 19.8782 19.5859 20.2526 19.4154C20.2526 19.4154 18.3851 18.2669 17.9664 16.6113C17.3538 16.5085 16.7449 16.4336 16.1629 16.4336C14.9405 16.4336 13.8407 16.7674 13.0946 17.8852" fill="white"/>
<path d="M19.9386 20.9536C19.9486 20.9536 19.9576 20.9518 19.9675 20.9509C19.9657 20.9509 19.9648 20.9509 19.963 20.9509C19.9558 20.9527 19.9477 20.9536 19.9386 20.9545M12.8699 21.2305C12.6164 21.7096 12.4711 22.2554 12.4693 22.8356V23.2379L12.4675 23.4698V23.2379L12.4693 22.8356C12.4711 22.2554 12.6164 21.7096 12.8699 21.2305C12.9295 21.0781 13.0052 20.9265 13.1045 20.7785C13.0061 20.9265 12.9295 21.0781 12.8699 21.2305ZM16.172 19.3269C15.8787 19.3269 15.5918 19.3468 15.3158 19.391C15.5107 19.3657 15.7109 19.3549 15.9175 19.3549C16.4471 19.3549 17.0128 19.427 17.6074 19.5245C17.6038 19.5218 17.6001 19.5182 17.5965 19.5155C17.5965 19.5155 17.7959 19.5543 18.0964 19.5876C18.0531 19.5606 18.0125 19.5335 17.9764 19.5046C17.9673 19.5028 17.9583 19.5019 17.9484 19.5001C17.3457 19.4 16.7458 19.3269 16.1729 19.3269H16.172Z" fill="white"/>
<path d="M15.3158 19.3911C14.4515 19.5011 13.7027 19.8819 13.1036 20.7787C13.0053 20.9266 12.9286 21.0782 12.8691 21.2307C12.6155 21.7097 12.4703 22.2556 12.4685 22.8357V23.238L12.4667 23.4699C12.5127 23.017 12.6444 22.5885 12.8483 22.2041C12.9079 22.0517 12.9836 21.9001 13.0829 21.7521C13.829 20.6343 14.9288 20.3014 16.1513 20.3014C16.7332 20.3014 17.3422 20.3772 17.9548 20.4791C18.5484 20.6018 19.2305 20.7606 19.9396 20.9537C19.9486 20.9537 19.9567 20.9519 19.964 20.9501C19.9468 20.9483 19.9288 20.9465 19.9116 20.9438C19.871 20.9257 18.8795 20.4899 17.989 19.8286C17.8591 19.7321 17.7301 19.6302 17.6074 19.5246C17.0129 19.4272 16.4472 19.355 15.9176 19.355C15.7119 19.355 15.5107 19.3658 15.3158 19.3911Z" fill="white"/>
<path fill-rule="evenodd" clip-rule="evenodd" d="M23.5177 16.5276C22.3899 17.6914 20.1588 16.9778 17.9655 16.6106C18.3842 18.2661 20.2517 19.4146 20.2517 19.4146C19.3026 19.8468 17.5947 19.5148 17.5947 19.5148C18.5574 20.3484 19.8629 20.9231 19.9098 20.9439C21.8721 21.1811 23.5267 20.5009 23.5168 16.5276" fill="white"/>
<path d="M21.4038 11.9676C21.1403 12.2139 20.9157 12.5198 20.7434 12.8861C20.7307 12.8653 20.719 12.8446 20.7073 12.8229C20.5738 12.5811 20.4646 12.315 20.3608 12.0398C20.3401 12.0353 20.3193 12.0308 20.2986 12.0263C20.5332 12.582 20.6288 12.8572 20.6956 13.1342C20.7876 13.1712 20.8787 13.21 20.968 13.2506C21.1458 12.7553 21.0691 12.7065 21.7385 12.5081C21.6925 12.3863 21.6564 12.2897 21.6248 12.2139C21.5445 12.0209 21.4985 11.9631 21.4317 11.9631C21.4227 11.9631 21.4128 11.964 21.4029 11.9658" fill="white"/>
<path d="M20.683 19.447C20.5459 19.447 20.4024 19.4371 20.2518 19.4155C19.8774 19.586 19.3857 19.6374 18.9264 19.6374C18.2218 19.6374 17.5957 19.5156 17.5957 19.5156C17.7193 19.623 17.8492 19.7258 17.98 19.8233L17.9882 19.8287C18.8786 20.49 19.8701 20.9257 19.9107 20.9438C19.9279 20.9456 19.9459 20.9483 19.9631 20.9501C20.1661 20.9727 20.3664 20.9862 20.5612 20.9862C21.4102 20.9862 22.1644 20.7435 22.6994 20.0371L22.7265 20.0001C23.2191 19.3252 23.5168 18.2417 23.5186 16.569V16.5266C23.5186 16.5266 23.0089 19.4452 20.6839 19.4452" fill="white"/>
<path d="M12.5226 28.0259V28.0494C12.519 29.1158 13.3797 29.9819 14.4452 29.9855C15.5098 29.9891 16.3759 29.1275 16.3795 28.062V28.0494C16.3858 25.9211 16.1395 21.9992 18.4311 21.4218L16.3768 21.4182C12.5677 21.5247 12.5289 25.9067 12.5226 28.0259Z" fill="white"/>
<path d="M22.6416 15.7345C22.6705 15.7246 22.6994 15.7138 22.7273 15.702C22.7292 15.702 22.731 15.7002 22.7319 15.7002C22.7544 15.6858 22.777 15.6714 22.7986 15.656C22.7986 15.656 22.7986 15.6542 22.7986 15.6533C22.7941 15.6488 22.7887 15.6434 22.7833 15.6389C22.7481 15.6641 22.7003 15.6975 22.6398 15.7345M20.5576 13.9915C20.8787 14.2558 21.651 14.8729 22.1445 15.3673C22.232 15.3466 22.3141 15.3186 22.389 15.2825C21.8657 14.8341 21.1665 14.3371 20.4493 13.8923L20.4436 13.8994L20.5576 13.9915Z" fill="white"/>
<path d="M22.1462 15.3683C22.3005 15.5225 22.4277 15.666 22.5053 15.7815C22.5098 15.7806 22.5152 15.7788 22.5198 15.7779C22.5414 15.7715 22.5856 15.7571 22.6325 15.74C22.6352 15.7382 22.6388 15.7364 22.6415 15.7345C22.702 15.6976 22.7507 15.6642 22.785 15.6389C22.6605 15.5198 22.5288 15.4016 22.3907 15.2834C22.3159 15.3195 22.2338 15.3475 22.1462 15.3683Z" fill="white"/>
<path d="M27.7137 10.1155C26.6906 10.4764 26.0329 11.0059 25.7415 11.7052C26.0329 12.0336 26.2368 12.4143 26.3649 12.8293C26.3622 12.8338 26.3604 12.8383 26.3577 12.8419C26.8232 12.0146 26.991 10.8923 27.7128 10.1155H27.7137Z" fill="white"/>
<path d="M25.5891 11.5455C25.6423 11.5969 25.6938 11.6501 25.7416 11.7052C26.033 11.0069 26.6907 10.4764 27.7138 10.1155C26.6402 10.3762 25.9319 10.8535 25.5891 11.5455Z" fill="white"/>
<path d="M23.977 15.9249C23.977 15.9249 23.977 15.9249 23.9761 15.9258L23.977 15.9249ZM25.4097 13.6351C25.4097 13.6351 25.4178 13.6306 25.4214 13.6279C25.4178 13.6306 25.4133 13.6324 25.4097 13.6351ZM26.5158 13.4339C25.3528 13.8074 24.2215 14.5391 24.0591 15.841C24.032 15.8689 24.004 15.8969 23.977 15.9249C24.6365 15.2464 25.517 14.5734 26.6204 13.9057C26.5934 13.7406 26.5582 13.5827 26.5158 13.4339ZM26.514 13.4267C26.514 13.4267 26.514 13.4249 26.514 13.424C26.514 13.424 26.514 13.4258 26.514 13.4267Z" fill="white"/>
<path d="M23.9768 15.9238C24.0039 15.8949 24.0318 15.867 24.0598 15.839C24.2231 14.5362 25.3545 13.8045 26.5165 13.4319C26.5156 13.4283 26.5147 13.4256 26.5138 13.422C26.4849 13.3219 26.4533 13.2262 26.4182 13.1333C25.0513 13.6566 23.9976 14.5696 23.9768 15.9238Z" fill="white"/>
<path d="M24.6653 11.3624C24.7817 11.4057 24.8963 11.4562 25.0063 11.5131C24.8367 11.4256 24.659 11.3543 24.4758 11.2983C24.5399 11.3173 24.603 11.3389 24.6653 11.3624Z" fill="white"/>
<path d="M24.668 10.9339C24.8583 11.0178 25.0424 11.1189 25.2147 11.2388C25.3509 11.3336 25.4754 11.4364 25.5891 11.5456C25.932 10.8536 26.6402 10.3763 27.7138 10.1156C27.3827 10.0407 27.0642 10.0046 26.7629 10.0046C25.8291 10.0046 25.0694 10.3502 24.668 10.9339Z" fill="white"/>
<path d="M25.3365 11.7114C25.3365 11.7114 25.3319 11.7078 25.3292 11.7069C25.3319 11.7087 25.3337 11.7105 25.3365 11.7114ZM25.6522 11.9667C25.5521 11.8738 25.4465 11.789 25.3365 11.7114C25.7424 11.9947 26.0844 12.389 26.3226 12.9041C26.3343 12.8834 26.3469 12.8635 26.3577 12.8428C26.3604 12.8383 26.3623 12.8347 26.365 12.8301C26.2368 12.4151 26.032 12.0335 25.7415 11.706C25.7064 11.7908 25.6766 11.8774 25.6522 11.9667ZM25.3292 11.7069C25.3292 11.7069 25.3265 11.7051 25.3247 11.7042C25.3265 11.7051 25.3274 11.706 25.3292 11.7069ZM25.3247 11.7042C25.3247 11.7042 25.3211 11.7015 25.3184 11.7006C25.3202 11.7015 25.322 11.7033 25.3247 11.7042ZM25.3184 11.7006C25.3184 11.7006 25.3148 11.6979 25.313 11.697C25.3148 11.6979 25.3166 11.6997 25.3184 11.7006ZM25.313 11.697C25.313 11.697 25.3094 11.6943 25.3076 11.6934C25.3094 11.6943 25.3112 11.6961 25.313 11.697ZM25.3076 11.6934C25.3076 11.6934 25.3031 11.6907 25.3013 11.6889C25.3031 11.6907 25.3058 11.6916 25.3076 11.6934ZM25.3013 11.6889C25.3013 11.6889 25.2986 11.6871 25.2968 11.6862C25.2986 11.6871 25.2995 11.688 25.3013 11.6889ZM25.2968 11.6862C25.2968 11.6862 25.2895 11.6816 25.2859 11.6789C25.2895 11.6816 25.2931 11.6835 25.2968 11.6862ZM25.2859 11.6789C25.2859 11.6789 25.2832 11.6771 25.2823 11.6762C25.2832 11.6762 25.285 11.678 25.2859 11.6789ZM25.2823 11.6762C25.2823 11.6762 25.2778 11.6735 25.2751 11.6717C25.2769 11.6735 25.2796 11.6744 25.2823 11.6762ZM25.2751 11.6717C25.2751 11.6717 25.2715 11.669 25.2697 11.6681C25.2715 11.669 25.2733 11.6708 25.2751 11.6717ZM25.2697 11.6681C25.2697 11.6681 25.2661 11.6654 25.2643 11.6645C25.2661 11.6654 25.2679 11.6672 25.2697 11.6681ZM25.2643 11.6645C25.2643 11.6645 25.2562 11.6591 25.2525 11.6573C25.2562 11.66 25.2607 11.6618 25.2643 11.6645ZM25.2525 11.6573C25.2525 11.6573 25.2498 11.6555 25.2489 11.6555C25.2498 11.6555 25.2516 11.6573 25.2525 11.6573ZM25.248 11.6546C25.248 11.6546 25.2462 11.6528 25.2453 11.6528C25.2462 11.6528 25.2471 11.6537 25.248 11.6546ZM25.2435 11.6519C25.2435 11.6519 25.2417 11.6519 25.2417 11.6501C25.2417 11.6501 25.2435 11.651 25.2435 11.6519ZM25.2399 11.6492C25.2399 11.6492 25.2399 11.6492 25.239 11.6492C25.239 11.6492 25.239 11.6492 25.2399 11.6492Z" fill="white"/>
<path d="M25.239 11.6465C25.239 11.6465 25.239 11.6465 25.2399 11.6465C25.2399 11.6465 25.2408 11.6465 25.2417 11.6474C25.2417 11.6474 25.2436 11.6483 25.2436 11.6492C25.2436 11.6492 25.2436 11.6492 25.2445 11.6492C25.2454 11.6492 25.2463 11.6501 25.2472 11.651C25.2481 11.651 25.2499 11.6528 25.2508 11.6528C25.3915 11.7439 25.525 11.8477 25.6504 11.9641C25.6748 11.8747 25.7046 11.7872 25.7398 11.7033C25.691 11.6483 25.6405 11.5951 25.5873 11.5436C25.544 11.6302 25.507 11.7205 25.4754 11.8134C25.3284 11.6961 25.1705 11.596 25.0054 11.5103C25.0848 11.5509 25.1624 11.596 25.2381 11.6438" fill="white"/>
<path d="M24.4947 11.2523C24.4947 11.2523 24.4938 11.255 24.4929 11.2568C24.4929 11.2568 24.492 11.2595 24.4911 11.2613C24.4911 11.2613 24.4911 11.2613 24.4911 11.2622C24.4911 11.2631 24.4902 11.2649 24.4893 11.2658C24.4893 11.2658 24.4893 11.2658 24.4893 11.2676C24.4893 11.2676 24.4893 11.2694 24.4884 11.2703C24.4884 11.2703 24.4884 11.2712 24.4884 11.2721C24.4884 11.273 24.4884 11.2739 24.4866 11.2758C24.4866 11.2758 24.4866 11.2767 24.4866 11.2776V11.2794C24.4866 11.2794 24.4866 11.2803 24.4866 11.2812C24.4866 11.2821 24.4857 11.283 24.4857 11.2848C24.4857 11.2848 24.4857 11.2857 24.4857 11.2866C24.4857 11.2866 24.4857 11.2884 24.4848 11.2893C24.4848 11.2893 24.4848 11.2902 24.4848 11.2911C24.4848 11.292 24.4848 11.2938 24.483 11.2947C24.483 11.2947 24.483 11.2956 24.483 11.2965C24.483 11.2974 24.4821 11.2992 24.4812 11.3001C24.6643 11.3551 24.8421 11.4264 25.0117 11.5148C25.1768 11.6005 25.3347 11.7007 25.4817 11.818C25.5133 11.725 25.5503 11.6348 25.5936 11.5482C25.4799 11.4381 25.3554 11.3353 25.2192 11.2415C25.0469 11.1215 24.8628 11.0204 24.6725 10.9365C24.6382 10.987 24.5994 11.0313 24.5696 11.0854C24.5398 11.1395 24.5227 11.2 24.4992 11.255" fill="white"/>
<path d="M20.3545 12.0265C20.3563 12.031 20.3581 12.0364 20.3599 12.0409C20.4646 12.3161 20.5728 12.5831 20.7064 12.824C20.7046 12.8204 20.7019 12.8159 20.7001 12.8123C20.8309 12.3982 21.0375 12.0183 21.3307 11.6917C21.0438 10.9916 20.3897 10.4566 19.3684 10.0903C19.8727 10.6398 20.1019 11.3597 20.3536 12.0265" fill="white"/>
<path d="M21.3317 11.6917C21.3804 11.6375 21.4318 11.5843 21.485 11.5329C21.1458 10.8382 20.4403 10.3573 19.3694 10.0894C20.3898 10.4566 21.0448 10.9907 21.3317 11.6908" fill="white"/>
<path d="M22.0498 11.5121C22.0498 11.5121 22.057 11.5085 22.0597 11.5067C22.0561 11.5085 22.0525 11.5103 22.0498 11.5121ZM22.0597 11.5067C22.0597 11.5067 22.0597 11.5067 22.0606 11.5067C22.0606 11.5067 22.0606 11.5067 22.0597 11.5067ZM22.0606 11.5067C22.1734 11.449 22.2889 11.3993 22.408 11.356C22.4702 11.3335 22.5334 11.3127 22.5975 11.2938C22.4116 11.3488 22.2312 11.4192 22.0606 11.5076M22.5966 11.2902C22.5966 11.2902 22.5966 11.2902 22.5966 11.2893C22.5966 11.2893 22.5966 11.2893 22.5966 11.2902ZM22.5929 11.2803C22.5929 11.2803 22.5929 11.2803 22.5929 11.2794C22.5929 11.2794 22.5929 11.2794 22.5929 11.2803ZM22.5911 11.2748C22.5911 11.2748 22.5911 11.2748 22.5911 11.2739C22.5911 11.2739 22.5911 11.2739 22.5911 11.2748ZM19.3694 10.0903C20.4412 10.3582 21.1458 10.8391 21.485 11.5338C21.5996 11.4246 21.7241 11.3227 21.8613 11.2288C22.0345 11.1097 22.2185 11.0096 22.4098 10.9275C22.0083 10.3366 21.2414 9.9856 20.2968 9.9856C20.0027 9.9856 19.6924 10.0199 19.3694 10.0912" fill="white"/>
<path d="M21.5589 11.8325C21.5589 11.8325 21.5607 11.8316 21.5616 11.8307C21.5616 11.8307 21.5598 11.8316 21.5589 11.8325ZM21.5616 11.8307C21.5616 11.8307 21.5661 11.8271 21.5688 11.8253C21.5661 11.8271 21.5643 11.8289 21.5616 11.8307ZM21.5688 11.8253C21.5688 11.8253 21.5716 11.8225 21.5734 11.8216C21.5716 11.8225 21.5706 11.8243 21.5688 11.8253ZM21.5734 11.8216C21.5734 11.8216 21.5806 11.8162 21.5842 11.8126C21.5806 11.8153 21.577 11.818 21.5734 11.8216ZM21.5842 11.8126C21.5842 11.8126 21.5851 11.8117 21.586 11.8108C21.586 11.8108 21.5851 11.8117 21.5842 11.8126ZM21.586 11.8108C21.586 11.8108 21.5905 11.8072 21.5932 11.8054C21.5905 11.8072 21.5887 11.809 21.586 11.8108ZM21.5932 11.8054C21.5932 11.8054 21.5977 11.8018 21.6004 11.8C21.5977 11.8018 21.5959 11.8036 21.5932 11.8054ZM21.6004 11.8C21.6004 11.8 21.6013 11.7991 21.6022 11.7982C21.6022 11.7982 21.6013 11.7991 21.6004 11.8ZM21.6022 11.7982C21.6446 11.7648 21.6879 11.7332 21.733 11.7026C21.6888 11.7332 21.6455 11.7648 21.6022 11.7982ZM21.733 11.7026C21.733 11.7026 21.7348 11.7016 21.7358 11.7007C21.7348 11.7007 21.7339 11.7016 21.733 11.7026ZM21.7376 11.6998C21.7376 11.6998 21.7394 11.6989 21.7394 11.698C21.7394 11.698 21.7376 11.6989 21.7376 11.6998ZM21.7421 11.6971C21.7421 11.6971 21.7421 11.6971 21.743 11.6971C21.743 11.6971 21.743 11.6971 21.7421 11.6971ZM20.7009 12.8132C20.7009 12.8132 20.7054 12.8213 20.7072 12.8249C20.719 12.8456 20.7307 12.8673 20.7433 12.888C20.9157 12.5208 21.1412 12.2159 21.4037 11.9696C21.4543 11.9227 21.5066 11.8767 21.5598 11.8334C21.512 11.8722 21.4651 11.9119 21.42 11.9543C21.3965 11.8649 21.3668 11.7774 21.3325 11.6926C21.0393 12.0183 20.8326 12.399 20.7018 12.8132" fill="white"/>
<path d="M21.595 11.8035C21.5643 11.7097 21.5273 11.6195 21.4849 11.5329C21.4308 11.5843 21.3803 11.6366 21.3315 11.6916C21.3658 11.7765 21.3956 11.8631 21.4191 11.9533C21.5183 11.8613 21.623 11.7783 21.733 11.7025C21.7339 11.7025 21.7348 11.7016 21.7357 11.7007C21.7357 11.7007 21.7366 11.7007 21.7366 11.6998C21.7366 11.6998 21.7384 11.6989 21.7384 11.698C21.7384 11.698 21.7393 11.6971 21.7402 11.6962C21.7402 11.6962 21.7402 11.6962 21.7411 11.6962C21.8395 11.6294 21.9405 11.569 22.0461 11.5139C21.8873 11.596 21.7357 11.6926 21.5941 11.8035" fill="white"/>
<path d="M21.8613 11.2281C21.7242 11.3219 21.5997 11.4238 21.4851 11.533C21.5275 11.6196 21.5645 11.7098 21.5952 11.8037C21.7377 11.6927 21.8893 11.5962 22.0472 11.5141C22.0472 11.5141 22.049 11.5141 22.0499 11.5123C22.2249 11.422 22.409 11.349 22.5984 11.293C22.5984 11.293 22.5975 11.2903 22.5966 11.2885C22.5966 11.2885 22.5966 11.2885 22.5966 11.2876C22.5966 11.2858 22.5957 11.2849 22.5948 11.284C22.5948 11.2831 22.5948 11.2822 22.5939 11.2804C22.5939 11.2804 22.5939 11.2804 22.5939 11.2795C22.5939 11.2786 22.593 11.2768 22.5921 11.2759C22.5921 11.2759 22.5921 11.2759 22.5921 11.275C22.5921 11.2741 22.5921 11.2723 22.5912 11.2714C22.5912 11.2696 22.5903 11.2687 22.5894 11.2669C22.5425 11.1478 22.482 11.035 22.4108 10.9294C22.2195 11.0124 22.0354 11.1117 21.8622 11.2308" fill="white"/>
<path d="M23.0694 15.9211C23.0694 15.9211 23.0694 15.9202 23.0685 15.9202L23.0694 15.9211ZM23.0685 15.9202C23.0432 15.8932 23.0171 15.8661 22.99 15.8399C23.0162 15.867 23.0423 15.8941 23.0685 15.9202ZM20.4368 13.8849C20.4368 13.8849 20.4458 13.8903 20.4503 13.893C20.4774 13.9101 20.5053 13.9264 20.5324 13.9435C21.2487 14.3883 21.8686 14.8349 22.3918 15.2833C22.5299 15.4015 22.6616 15.5205 22.7861 15.6387C22.7915 15.6432 22.796 15.6487 22.8014 15.6532C22.8014 15.6532 22.8023 15.6532 22.8023 15.6541C22.8655 15.7145 22.9268 15.775 22.9873 15.8354C22.833 14.5317 21.7062 13.7928 20.5459 13.413C20.5477 13.4058 20.5504 13.3986 20.5522 13.3914C20.5062 13.5465 20.4674 13.7116 20.4377 13.884" fill="white"/>
<path d="M20.5512 13.3915C20.5494 13.3987 20.5467 13.4059 20.5449 13.4131C21.7052 13.793 22.832 14.5319 22.9863 15.8355C22.9872 15.8364 22.989 15.8382 22.9899 15.8391C23.0169 15.8662 23.0431 15.8933 23.0693 15.9203V15.9176C23.0557 14.5652 22.0083 13.6459 20.6451 13.1145C20.6108 13.2029 20.5792 13.2949 20.5512 13.3906" fill="white"/>
<path d="M23.9768 15.9238L23.9786 15.922C23.9786 15.922 23.9777 15.9229 23.9768 15.9238ZM23.0692 15.9211C23.0692 15.9211 23.0683 15.9202 23.0674 15.9193L23.0692 15.9211ZM20.645 13.1153C22.0082 13.6476 23.0566 14.5669 23.0692 15.9211C23.2343 16.0925 23.385 16.2658 23.5212 16.4381C23.6593 16.2667 23.8108 16.0953 23.9768 15.9247C23.9976 14.5714 25.0514 13.6575 26.4182 13.1342C25.9148 11.8017 24.7735 11.1846 23.5375 11.1521C22.3024 11.1774 21.1566 11.7872 20.645 13.1162" fill="white"/>
<path fill-rule="evenodd" clip-rule="evenodd" d="M23.9769 15.9238L23.0693 15.9211C23.2344 16.0926 23.3842 16.2658 23.5213 16.4381C23.6594 16.2667 23.8109 16.0953 23.9769 15.9238Z" fill="white"/>
</g>
</g>
<defs>
<filter id="filter0_i_4632_31693" x="1" y="1" width="40" height="40" filterUnits="userSpaceOnUse" color-interpolation-filters="sRGB">
<feFlood flood-opacity="0" result="BackgroundImageFix"/>
<feBlend mode="normal" in="SourceGraphic" in2="BackgroundImageFix" result="shape"/>
<feColorMatrix in="SourceAlpha" type="matrix" values="0 0 0 0 0 0 0 0 0 0 0 0 0 0 0 0 0 0 127 0" result="hardAlpha"/>
<feOffset dx="2" dy="2"/>
<feGaussianBlur stdDeviation="2"/>
<feComposite in2="hardAlpha" operator="arithmetic" k2="-1" k3="1"/>
<feColorMatrix type="matrix" values="0 0 0 0 0.0666667 0 0 0 0 0.0980392 0 0 0 0 0.117647 0 0 0 0.1 0"/>
<feBlend mode="normal" in2="shape" result="effect1_innerShadow_4632_31693"/>
</filter>
<filter id="filter1_ddii_4632_31693" x="-3.14286" y="-3.14286" width="47.1429" height="47.1429" filterUnits="userSpaceOnUse" color-interpolation-filters="sRGB">
<feFlood flood-opacity="0" result="BackgroundImageFix"/>
<feColorMatrix in="SourceAlpha" type="matrix" values="0 0 0 0 0 0 0 0 0 0 0 0 0 0 0 0 0 0 127 0" result="hardAlpha"/>
<feOffset dx="2.57143" dy="2.57143"/>
<feGaussianBlur stdDeviation="4.71429"/>
<feComposite in2="hardAlpha" operator="out"/>
<feColorMatrix type="matrix" values="0 0 0 0 0.321569 0 0 0 0 0.435294 0 0 0 0 1 0 0 0 1 0"/>
<feBlend mode="normal" in2="BackgroundImageFix" result="effect1_dropShadow_4632_31693"/>
<feColorMatrix in="SourceAlpha" type="matrix" values="0 0 0 0 0 0 0 0 0 0 0 0 0 0 0 0 0 0 127 0" result="hardAlpha"/>
<feOffset dx="-2.57143" dy="-2.57143"/>
<feGaussianBlur stdDeviation="4.28571"/>
<feComposite in2="hardAlpha" operator="out"/>
<feColorMatrix type="matrix" values="0 0 0 0 1 0 0 0 0 1 0 0 0 0 1 0 0 0 0.4 0"/>
<feBlend mode="normal" in2="effect1_dropShadow_4632_31693" result="effect2_dropShadow_4632_31693"/>
<feBlend mode="normal" in="SourceGraphic" in2="effect2_dropShadow_4632_31693" result="shape"/>
<feColorMatrix in="SourceAlpha" type="matrix" values="0 0 0 0 0 0 0 0 0 0 0 0 0 0 0 0 0 0 127 0" result="hardAlpha"/>
<feOffset dy="-1.28571"/>
<feGaussianBlur stdDeviation="0.985714"/>
<feComposite in2="hardAlpha" operator="arithmetic" k2="-1" k3="1"/>
<feColorMatrix type="matrix" values="0 0 0 0 0 0 0 0 0 0.598039 0 0 0 0 1 0 0 0 0.4 0"/>
<feBlend mode="normal" in2="shape" result="effect3_innerShadow_4632_31693"/>
<feColorMatrix in="SourceAlpha" type="matrix" values="0 0 0 0 0 0 0 0 0 0 0 0 0 0 0 0 0 0 127 0" result="hardAlpha"/>
<feOffset dy="-0.428571"/>
<feGaussianBlur stdDeviation="0.557143"/>
<feComposite in2="hardAlpha" operator="arithmetic" k2="-1" k3="1"/>
<feColorMatrix type="matrix" values="0 0 0 0 1 0 0 0 0 1 0 0 0 0 1 0 0 0 0.6 0"/>
<feBlend mode="normal" in2="effect3_innerShadow_4632_31693" result="effect4_innerShadow_4632_31693"/>
</filter>
<linearGradient id="paint0_linear_4632_31693" x1="7.46" y1="11.26" x2="35.96" y2="46.22" gradientUnits="userSpaceOnUse">
<stop stop-color="#11191E" stop-opacity="0.4"/>
<stop offset="1" stop-color="white"/>
</linearGradient>
<linearGradient id="paint1_linear_4632_31693" x1="6.8" y1="10.8" x2="36.8" y2="47.6" gradientUnits="userSpaceOnUse">
<stop stop-color="#11191E" stop-opacity="0.4"/>
<stop offset="1" stop-color="white"/>
</linearGradient>
</defs>
</svg>
