<svg width="24" height="24" viewBox="0 0 24 24" fill="none" xmlns="http://www.w3.org/2000/svg">
<path d="M10.4778 11.632L5.96782 4.55999L7.89882 4.04199L14.8498 10.462L20.1118 9.05199C20.4961 8.94909 20.9056 9.00306 21.2501 9.20204C21.5946 9.40101 21.8459 9.72869 21.9488 10.113C22.0517 10.4973 21.9978 10.9067 21.7988 11.2512C21.5998 11.5957 21.2721 11.8471 20.8878 11.95L5.91582 15.96L5.13982 13.062L5.38082 12.997L7.84782 15.442L5.22182 16.146C5.00649 16.2037 4.77803 16.1879 4.57275 16.1009C4.36747 16.0139 4.19714 15.8608 4.08882 15.666L1.46582 10.94L2.91482 10.552L5.38082 12.997L10.4778 11.631V11.632ZM3.99982 19H19.9998V21H3.99982V19Z" fill="#944DFF"/>
</svg>
