<svg width="40" height="40" viewBox="0 0 40 40" xmlns="http://www.w3.org/2000/svg">
<g clip-path="url(#clip0_13140_41178)">
<mask id="mask0_13140_41178" style="mask-type:alpha" maskUnits="userSpaceOnUse" x="0" y="0" width="40" height="40">
<path d="M20 0.799805C26.7982 0.799805 31.5477 2.32891 34.6094 5.39062C37.6711 8.45234 39.2002 13.2018 39.2002 20C39.2002 26.7982 37.6711 31.5477 34.6094 34.6094C31.5477 37.6711 26.7982 39.2002 20 39.2002C13.2018 39.2002 8.45234 37.6711 5.39062 34.6094C2.32891 31.5477 0.799805 26.7982 0.799805 20C0.799805 13.2018 2.32891 8.45234 5.39062 5.39062C8.45234 2.32891 13.2018 0.799805 20 0.799805Z"/>
<path d="M20 0.799805C26.7982 0.799805 31.5477 2.32891 34.6094 5.39062C37.6711 8.45234 39.2002 13.2018 39.2002 20C39.2002 26.7982 37.6711 31.5477 34.6094 34.6094C31.5477 37.6711 26.7982 39.2002 20 39.2002C13.2018 39.2002 8.45234 37.6711 5.39062 34.6094C2.32891 31.5477 0.799805 26.7982 0.799805 20C0.799805 13.2018 2.32891 8.45234 5.39062 5.39062C8.45234 2.32891 13.2018 0.799805 20 0.799805Z" />
</mask>
<g mask="url(#mask0_13140_41178)">
<g>
<path d="M3.3148 10.8851C4.59447 7.36607 7.36644 4.5941 10.8855 3.31444C11.6639 3.03139 12.4681 2.82542 13.2867 2.69948L15.1545 2.41213C18.3662 1.91804 21.6345 1.91804 24.8461 2.41214L26.7139 2.69948C27.5325 2.82542 28.3368 3.03139 29.1151 3.31444C32.6342 4.5941 35.4062 7.36607 36.6858 10.8851C36.9689 11.6635 37.1749 12.4678 37.3008 13.2864L37.6431 15.5115C38.1003 18.483 38.0591 21.51 37.5213 24.4679L37.3456 25.4342C37.1898 26.2913 36.9618 27.1337 36.6641 27.9524L36.4552 28.5267C35.3028 31.6958 33.0335 34.3354 30.0732 35.9501C28.665 36.7182 27.1339 37.2358 25.5485 37.4797L23.7158 37.7617C21.2533 38.1405 18.7473 38.1405 16.2848 37.7617L14.4521 37.4797C12.8667 37.2358 11.3357 36.7182 9.92745 35.9501C6.96711 34.3354 4.6978 31.6958 3.54541 28.5267L3.33658 27.9524C3.03887 27.1337 2.81088 26.2913 2.65504 25.4342L2.47935 24.4679C1.94154 21.51 1.90036 18.483 2.35752 15.5115L2.69985 13.2864C2.82579 12.4678 3.03176 11.6635 3.3148 10.8851Z"/>
<path d="M15.2686 3.15295C18.2086 2.70064 21.1974 2.67317 24.1436 3.06897L24.7324 3.15295L26.5996 3.44104C27.1774 3.52992 27.7477 3.66116 28.3057 3.83362L28.8584 4.01917C32.0657 5.18545 34.6138 7.66949 35.8643 10.8336L35.9814 11.1412C36.1812 11.6905 36.3401 12.2537 36.457 12.8258L36.5596 13.4L36.9014 15.6256C37.3181 18.3341 37.3096 21.09 36.876 23.7936L36.7832 24.3336L36.6074 25.3004C36.4962 25.912 36.3466 26.5158 36.1592 27.108L35.959 27.6959L35.75 28.2701C34.7282 31.0801 32.7782 33.4501 30.2314 34.9938L29.7139 35.2916C28.5484 35.9273 27.2941 36.3821 25.9941 36.6403L25.4346 36.7389L23.6016 37.0201C21.3638 37.3644 19.0891 37.3859 16.8467 37.0846L16.3984 37.0201L14.5664 36.7389C13.2542 36.537 11.981 36.137 10.791 35.5533L10.2861 35.2916C7.66141 33.8598 5.61093 31.5762 4.4668 28.8268L4.25 28.2701L4.04102 27.6959C3.82859 27.1117 3.65343 26.5148 3.5166 25.9088L3.39258 25.3004L3.2168 24.3336C2.72659 21.6373 2.66151 18.8821 3.02148 16.1676L3.09863 15.6256L3.44141 13.4C3.53027 12.8225 3.66161 12.2527 3.83398 11.6949L4.01953 11.1412C5.18582 7.93407 7.66996 5.38685 10.834 4.13635L11.1416 4.01917C11.6909 3.81943 12.2541 3.66055 12.8262 3.54358L13.4004 3.44104L15.2686 3.15295Z"/>
</g>
<g>
<path d="M24.8612 10.2778V12.2223L20.9723 12.2213V14.1667H23.889V16.1112C26.0376 16.1112 27.7779 17.8514 27.7779 20.0001V27.7778C27.7779 28.8521 26.9077 29.7223 25.8334 29.7223H14.1668C13.0925 29.7223 12.2223 28.8521 12.2223 27.7778V20.0001C12.2223 17.8514 13.9626 16.1112 16.1112 16.1112V14.1667H19.0279V12.2213L15.6251 12.2223C15.0126 12.2223 14.2932 12.6987 13.4862 13.7778L11.9307 12.6112C13.0682 11.0945 14.2932 10.2778 15.6251 10.2778H24.8612ZM20.9723 20.0001H19.0279V21.9445H17.0834V23.8889H19.0269L19.0279 25.8334H20.9723L20.9714 23.8889H22.9168V21.9445H20.9723V20.0001Z" fill="white"/>
</g>
</g>
</g>
<defs>
<filter id="filter0_di_13140_41178" x="0.0429688" y="1.0415" width="39.915" height="40.0043" filterUnits="userSpaceOnUse" color-interpolation-filters="sRGB">
<feFlood flood-opacity="0" result="BackgroundImageFix"/>
<feColorMatrix in="SourceAlpha" type="matrix" values="0 0 0 0 0 0 0 0 0 0 0 0 0 0 0 0 0 0 127 0" result="hardAlpha"/>
<feOffset dy="1"/>
<feGaussianBlur stdDeviation="1"/>
<feComposite in2="hardAlpha" operator="out"/>
<feColorMatrix type="matrix" values="0 0 0 0 0.0666667 0 0 0 0 0.0980392 0 0 0 0 0.117647 0 0 0 0.05 0"/>
<feBlend mode="normal" in2="BackgroundImageFix" result="effect1_dropShadow_13140_41178"/>
<feBlend mode="normal" in="SourceGraphic" in2="effect1_dropShadow_13140_41178" result="shape"/>
<feColorMatrix in="SourceAlpha" type="matrix" values="0 0 0 0 0 0 0 0 0 0 0 0 0 0 0 0 0 0 127 0" result="hardAlpha"/>
<feOffset dx="1.6" dy="1.6"/>
<feGaussianBlur stdDeviation="1.6"/>
<feComposite in2="hardAlpha" operator="arithmetic" k2="-1" k3="1"/>
<feColorMatrix type="matrix" values="0 0 0 0 0.0666667 0 0 0 0 0.0980392 0 0 0 0 0.117647 0 0 0 0.1 0"/>
<feBlend mode="normal" in2="shape" result="effect2_innerShadow_13140_41178"/>
</filter>
<filter id="filter1_ddii_13140_41178" x="-2.80985" y="-2.80948" width="46.4759" height="46.4762" filterUnits="userSpaceOnUse" color-interpolation-filters="sRGB">
<feFlood flood-opacity="0" result="BackgroundImageFix"/>
<feColorMatrix in="SourceAlpha" type="matrix" values="0 0 0 0 0 0 0 0 0 0 0 0 0 0 0 0 0 0 127 0" result="hardAlpha"/>
<feOffset dx="2.57143" dy="2.57143"/>
<feGaussianBlur stdDeviation="4.71429"/>
<feComposite in2="hardAlpha" operator="out"/>
<feColorMatrix type="matrix" values="0 0 0 0 1 0 0 0 0 0.517647 0 0 0 0 0.00392157 0 0 0 1 0"/>
<feBlend mode="normal" in2="BackgroundImageFix" result="effect1_dropShadow_13140_41178"/>
<feColorMatrix in="SourceAlpha" type="matrix" values="0 0 0 0 0 0 0 0 0 0 0 0 0 0 0 0 0 0 127 0" result="hardAlpha"/>
<feOffset dx="-2.57143" dy="-2.57143"/>
<feGaussianBlur stdDeviation="4.28571"/>
<feComposite in2="hardAlpha" operator="out"/>
<feColorMatrix type="matrix" values="0 0 0 0 1 0 0 0 0 1 0 0 0 0 1 0 0 0 0.4 0"/>
<feBlend mode="normal" in2="effect1_dropShadow_13140_41178" result="effect2_dropShadow_13140_41178"/>
<feBlend mode="normal" in="SourceGraphic" in2="effect2_dropShadow_13140_41178" result="shape"/>
<feColorMatrix in="SourceAlpha" type="matrix" values="0 0 0 0 0 0 0 0 0 0 0 0 0 0 0 0 0 0 127 0" result="hardAlpha"/>
<feOffset dy="-1.28571"/>
<feGaussianBlur stdDeviation="0.985714"/>
<feComposite in2="hardAlpha" operator="arithmetic" k2="-1" k3="1"/>
<feColorMatrix type="matrix" values="0 0 0 0 1 0 0 0 0 0.517647 0 0 0 0 0.00392157 0 0 0 0.4 0"/>
<feBlend mode="normal" in2="shape" result="effect3_innerShadow_13140_41178"/>
<feColorMatrix in="SourceAlpha" type="matrix" values="0 0 0 0 0 0 0 0 0 0 0 0 0 0 0 0 0 0 127 0" result="hardAlpha"/>
<feOffset dy="-0.428571"/>
<feGaussianBlur stdDeviation="0.557143"/>
<feComposite in2="hardAlpha" operator="arithmetic" k2="-1" k3="1"/>
<feColorMatrix type="matrix" values="0 0 0 0 1 0 0 0 0 1 0 0 0 0 1 0 0 0 0.6 0"/>
<feBlend mode="normal" in2="effect3_innerShadow_13140_41178" result="effect4_innerShadow_13140_41178"/>
</filter>
<linearGradient id="paint0_linear_13140_41178" x1="6.8" y1="10.8" x2="36.8" y2="47.6" gradientUnits="userSpaceOnUse">
<stop stop-color="#11191E" stop-opacity="0.4"/>
<stop offset="1" stop-color="white"/>
</linearGradient>
<linearGradient id="paint1_linear_13140_41178" x1="7.90032" y1="11.5666" x2="35.4003" y2="45.3" gradientUnits="userSpaceOnUse">
<stop stop-color="#11191E" stop-opacity="0.4"/>
<stop offset="1" stop-color="white"/>
</linearGradient>
<clipPath id="clip0_13140_41178">
<rect width="40" height="40" fill="white"/>
</clipPath>
</defs>
</svg>
