<svg width="16" height="16" viewBox="0 0 16 16" fill="none" xmlns="http://www.w3.org/2000/svg">
<g id="Droplist">
<rect id="Rectangle 10" opacity="0.1" x="1.33301" y="1.33325" width="13.3333" height="13.3333" rx="6.66667" fill="white"/>
<path id="&#231;&#159;&#169;&#229;&#189;&#162;" fill-rule="evenodd" clip-rule="evenodd" d="M6.16218 7.91051C5.89283 7.50648 5.75815 7.30447 5.76816 7.13695C5.77687 6.99101 5.84902 6.8562 5.96561 6.76799C6.09945 6.66675 6.34224 6.66675 6.82782 6.66675L9.17153 6.66675C9.65711 6.66675 9.8999 6.66675 10.0337 6.76799C10.1503 6.85619 10.2225 6.99101 10.2312 7.13695C10.2412 7.30446 10.1065 7.50648 9.83717 7.91051L8.66532 9.66829C8.44275 10.0021 8.33147 10.1691 8.19121 10.2272C8.06858 10.2781 7.93077 10.2781 7.80814 10.2272C7.66788 10.1691 7.5566 10.0021 7.33403 9.66829L6.16218 7.91051Z" fill="white"/>
</g>
</svg>
