<svg width="40" height="40" viewBox="0 0 40 40" fill="none" xmlns="http://www.w3.org/2000/svg">
<g clip-path="url(#clip0_13652_124775)">
<mask id="mask0_13652_124775" style="mask-type:alpha" maskUnits="userSpaceOnUse" x="0" y="0" width="40" height="40">
<path d="M20 0.799805C26.7982 0.799805 31.5477 2.32891 34.6094 5.39062C37.6711 8.45234 39.2002 13.2018 39.2002 20C39.2002 26.7982 37.6711 31.5477 34.6094 34.6094C31.5477 37.6711 26.7982 39.2002 20 39.2002C13.2018 39.2002 8.45234 37.6711 5.39062 34.6094C2.32891 31.5477 0.799805 26.7982 0.799805 20C0.799805 13.2018 2.32891 8.45234 5.39062 5.39062C8.45234 2.32891 13.2018 0.799805 20 0.799805Z" fill="#0099FF"/>
<path d="M20 0.799805C26.7982 0.799805 31.5477 2.32891 34.6094 5.39062C37.6711 8.45234 39.2002 13.2018 39.2002 20C39.2002 26.7982 37.6711 31.5477 34.6094 34.6094C31.5477 37.6711 26.7982 39.2002 20 39.2002C13.2018 39.2002 8.45234 37.6711 5.39062 34.6094C2.32891 31.5477 0.799805 26.7982 0.799805 20C0.799805 13.2018 2.32891 8.45234 5.39062 5.39062C8.45234 2.32891 13.2018 0.799805 20 0.799805Z" stroke="url(#paint0_linear_13652_124775)" stroke-width="1.6"/>
</mask>
<g mask="url(#mask0_13652_124775)">
<g filter="url(#filter0_di_13652_124775)">
<path d="M3.31383 10.885C4.59349 7.36595 7.36546 4.59398 10.8845 3.31431V3.31431C11.6629 3.03127 12.4672 2.8253 13.2858 2.69936L15.1535 2.41201C18.3652 1.91791 21.6335 1.91791 24.8452 2.41201L26.7129 2.69936C27.5315 2.8253 28.3358 3.03127 29.1142 3.31431V3.31431C32.6332 4.59398 35.4052 7.36595 36.6849 10.885V10.885C36.9679 11.6634 37.1739 12.4677 37.2998 13.2863L37.6422 15.5114C38.0993 18.4829 38.0581 21.5098 37.5203 24.4678L37.3446 25.4341C37.1888 26.2912 36.9608 27.1336 36.6631 27.9523L36.4543 28.5266C35.3019 31.6957 33.0326 34.3352 30.0722 35.95V35.95C28.664 36.7181 27.133 37.2357 25.5475 37.4796L23.7148 37.7616C21.2523 38.1404 18.7464 38.1404 16.2838 37.7616L14.4512 37.4796C12.8657 37.2357 11.3347 36.7181 9.92648 35.95V35.95C6.96613 34.3352 4.69682 31.6957 3.54443 28.5266L3.3356 27.9523C3.03789 27.1336 2.8099 26.2912 2.65407 25.4341L2.47838 24.4678C1.94056 21.5098 1.89939 18.4829 2.35654 15.5114L2.69887 13.2863C2.82481 12.4677 3.03078 11.6634 3.31383 10.885V10.885Z" fill="#0099FF"/>
<path d="M15.2676 3.15283C18.4036 2.67037 21.5954 2.67036 24.7314 3.15283L26.5986 3.44092C27.1764 3.5298 27.7467 3.66104 28.3047 3.8335L28.8574 4.01904C32.0647 5.18533 34.6128 7.66937 35.8633 10.8335L35.9805 11.1411C36.1802 11.6904 36.3391 12.2536 36.4561 12.8257L36.5586 13.3999L36.9004 15.6255C37.3449 18.5146 37.3051 21.4575 36.7822 24.3335L36.6064 25.3003C36.4582 26.1157 36.2412 26.917 35.958 27.6958L35.749 28.27C34.6591 31.2674 32.5129 33.7642 29.7129 35.2915C28.381 36.018 26.9331 36.5081 25.4336 36.7388L23.6006 37.02C21.2137 37.3872 18.7843 37.3872 16.3975 37.02L14.5654 36.7388C13.2532 36.5369 11.9801 36.1368 10.79 35.5532L10.2852 35.2915C7.66043 33.8597 5.60995 31.5761 4.46582 28.8267L4.24902 28.27L4.04004 27.6958C3.75686 26.917 3.53986 26.1156 3.3916 25.3003L3.21582 24.3335C2.69296 21.4576 2.65319 18.5146 3.09766 15.6255L3.44043 13.3999C3.5293 12.8224 3.66064 12.2526 3.83301 11.6948L4.01855 11.1411C5.22241 7.83066 7.83017 5.2229 11.1406 4.01904C11.8727 3.75282 12.6295 3.5594 13.3994 3.44092L15.2676 3.15283Z" stroke="url(#paint1_linear_13652_124775)" stroke-width="1.5" style="mix-blend-mode:overlay"/>
</g>
<g filter="url(#filter1_ddii_13652_124775)">
<path d="M24.3204 17.4799C24.9435 17.4799 25.5485 17.5646 26.1171 17.7188H26.1201V11.7176C26.1201 10.9221 25.4698 10.2778 24.6803 10.2778H11.7191C10.9266 10.2778 10.2793 10.9251 10.2793 11.7176V26.8386C10.2793 27.6341 10.9296 28.2784 11.7191 28.2784H18.7396C18.7396 28.2784 18.7427 28.2784 18.7396 28.2754C17.9472 27.1592 17.4783 25.795 17.4783 24.3189C17.4783 20.544 20.5424 17.4799 24.3204 17.4799ZM13.3706 13.3692C13.5037 13.2361 13.6882 13.1605 13.8818 13.1605H22.5237C22.7142 13.1605 22.8987 13.2361 23.0349 13.3692C23.171 13.5053 23.2466 13.6868 23.2466 13.8804C23.2466 14.074 23.171 14.2554 23.0349 14.3916C22.8987 14.5277 22.7173 14.6033 22.5237 14.6033H13.8788C13.6882 14.6033 13.5037 14.5277 13.3676 14.3916C13.2315 14.2554 13.1559 14.0739 13.1559 13.8804C13.1619 13.6898 13.2375 13.5053 13.3706 13.3692ZM15.8298 23.0304C15.6967 23.1635 15.5122 23.2391 15.3186 23.2391H13.8788C13.6882 23.2391 13.5037 23.1635 13.3676 23.0304C13.2315 22.8973 13.1559 22.7128 13.1559 22.5192C13.1559 22.3256 13.2315 22.1441 13.3676 22.008C13.5037 21.8749 13.6852 21.7963 13.8788 21.7993H15.3186C15.5092 21.7993 15.6937 21.8749 15.8298 22.008C15.9659 22.1441 16.0415 22.3256 16.0415 22.5192C16.0385 22.7128 15.9599 22.9003 15.8298 23.0304ZM16.7584 18.9227H13.8939C13.5007 18.9227 13.165 18.6111 13.1589 18.2179C13.1498 17.8126 13.4735 17.4829 13.8788 17.4829H16.7433C17.1516 17.4829 17.4904 17.8126 17.4813 18.2209C17.4723 18.6111 17.1516 18.9227 16.7584 18.9227ZM24.3174 18.9166C20.9266 18.9166 18.2708 22.0322 19.0512 25.5561C19.4958 27.5645 21.0718 29.1405 23.0802 29.5851C26.6071 30.3655 29.7227 27.7097 29.7227 24.3189C29.7227 21.3365 27.3028 18.9166 24.3174 18.9166ZM27.1183 23.3117L24.1298 26.3032C23.8818 26.5512 23.4825 26.5512 23.2345 26.3032L21.7402 24.8089C21.4922 24.5609 21.4922 24.1616 21.7402 23.9136C21.9883 23.6656 22.3906 23.6656 22.6356 23.9136L23.6791 24.9572H23.6822L26.223 22.4163C26.471 22.1683 26.8733 22.1683 27.1183 22.4163C27.3664 22.6613 27.3664 23.0636 27.1183 23.3117Z" fill="white"/>
</g>
</g>
</g>
<defs>
<filter id="filter0_di_13652_124775" x="0.0410156" y="1.0415" width="39.916" height="40.0044" filterUnits="userSpaceOnUse" color-interpolation-filters="sRGB">
<feFlood flood-opacity="0" result="BackgroundImageFix"/>
<feColorMatrix in="SourceAlpha" type="matrix" values="0 0 0 0 0 0 0 0 0 0 0 0 0 0 0 0 0 0 127 0" result="hardAlpha"/>
<feOffset dy="1"/>
<feGaussianBlur stdDeviation="1"/>
<feComposite in2="hardAlpha" operator="out"/>
<feColorMatrix type="matrix" values="0 0 0 0 0.0666667 0 0 0 0 0.0980392 0 0 0 0 0.117647 0 0 0 0.05 0"/>
<feBlend mode="normal" in2="BackgroundImageFix" result="effect1_dropShadow_13652_124775"/>
<feBlend mode="normal" in="SourceGraphic" in2="effect1_dropShadow_13652_124775" result="shape"/>
<feColorMatrix in="SourceAlpha" type="matrix" values="0 0 0 0 0 0 0 0 0 0 0 0 0 0 0 0 0 0 127 0" result="hardAlpha"/>
<feOffset dx="1.6" dy="1.6"/>
<feGaussianBlur stdDeviation="1.6"/>
<feComposite in2="hardAlpha" operator="arithmetic" k2="-1" k3="1"/>
<feColorMatrix type="matrix" values="0 0 0 0 0.0666667 0 0 0 0 0.0980392 0 0 0 0 0.117647 0 0 0 0.1 0"/>
<feBlend mode="normal" in2="shape" result="effect2_innerShadow_13652_124775"/>
</filter>
<filter id="filter1_ddii_13652_124775" x="-2.80887" y="-2.80936" width="46.4768" height="46.4764" filterUnits="userSpaceOnUse" color-interpolation-filters="sRGB">
<feFlood flood-opacity="0" result="BackgroundImageFix"/>
<feColorMatrix in="SourceAlpha" type="matrix" values="0 0 0 0 0 0 0 0 0 0 0 0 0 0 0 0 0 0 127 0" result="hardAlpha"/>
<feOffset dx="2.57143" dy="2.57143"/>
<feGaussianBlur stdDeviation="4.71429"/>
<feComposite in2="hardAlpha" operator="out"/>
<feColorMatrix type="matrix" values="0 0 0 0 0.321569 0 0 0 0 0.435294 0 0 0 0 1 0 0 0 1 0"/>
<feBlend mode="normal" in2="BackgroundImageFix" result="effect1_dropShadow_13652_124775"/>
<feColorMatrix in="SourceAlpha" type="matrix" values="0 0 0 0 0 0 0 0 0 0 0 0 0 0 0 0 0 0 127 0" result="hardAlpha"/>
<feOffset dx="-2.57143" dy="-2.57143"/>
<feGaussianBlur stdDeviation="4.28571"/>
<feComposite in2="hardAlpha" operator="out"/>
<feColorMatrix type="matrix" values="0 0 0 0 1 0 0 0 0 1 0 0 0 0 1 0 0 0 0.4 0"/>
<feBlend mode="normal" in2="effect1_dropShadow_13652_124775" result="effect2_dropShadow_13652_124775"/>
<feBlend mode="normal" in="SourceGraphic" in2="effect2_dropShadow_13652_124775" result="shape"/>
<feColorMatrix in="SourceAlpha" type="matrix" values="0 0 0 0 0 0 0 0 0 0 0 0 0 0 0 0 0 0 127 0" result="hardAlpha"/>
<feOffset dy="-1.28571"/>
<feGaussianBlur stdDeviation="0.985714"/>
<feComposite in2="hardAlpha" operator="arithmetic" k2="-1" k3="1"/>
<feColorMatrix type="matrix" values="0 0 0 0 0 0 0 0 0 0.598039 0 0 0 0 1 0 0 0 0.4 0"/>
<feBlend mode="normal" in2="shape" result="effect3_innerShadow_13652_124775"/>
<feColorMatrix in="SourceAlpha" type="matrix" values="0 0 0 0 0 0 0 0 0 0 0 0 0 0 0 0 0 0 127 0" result="hardAlpha"/>
<feOffset dy="-0.428571"/>
<feGaussianBlur stdDeviation="0.557143"/>
<feComposite in2="hardAlpha" operator="arithmetic" k2="-1" k3="1"/>
<feColorMatrix type="matrix" values="0 0 0 0 1 0 0 0 0 1 0 0 0 0 1 0 0 0 0.6 0"/>
<feBlend mode="normal" in2="effect3_innerShadow_13652_124775" result="effect4_innerShadow_13652_124775"/>
</filter>
<linearGradient id="paint0_linear_13652_124775" x1="6.8" y1="10.8" x2="36.8" y2="47.6" gradientUnits="userSpaceOnUse">
<stop stop-color="#11191E" stop-opacity="0.4"/>
<stop offset="1" stop-color="white"/>
</linearGradient>
<linearGradient id="paint1_linear_13652_124775" x1="7.89935" y1="11.5665" x2="35.3993" y2="45.2998" gradientUnits="userSpaceOnUse">
<stop stop-color="#11191E" stop-opacity="0.4"/>
<stop offset="1" stop-color="white"/>
</linearGradient>
<clipPath id="clip0_13652_124775">
<rect width="40" height="40" fill="white"/>
</clipPath>
</defs>
</svg>
