<svg width="24" height="24" viewBox="0 0 24 24" fill="none" xmlns="http://www.w3.org/2000/svg">
<rect opacity="0.1" x="2" y="2" width="20" height="20" rx="10" fill="#0099FF"/>
<path fill-rule="evenodd" clip-rule="evenodd" d="M15.1708 12.7562C15.4402 13.1603 15.5749 13.3623 15.5649 13.5298C15.5561 13.6757 15.484 13.8106 15.3674 13.8988C15.2336 14 14.9908 14 14.5052 14L9.49481 14C9.00923 14 8.76644 14 8.63261 13.8988C8.51601 13.8106 8.44386 13.6757 8.43515 13.5298C8.42515 13.3623 8.55982 13.1603 8.82917 12.7562L11.3344 8.99846C11.5569 8.66462 11.6682 8.49769 11.8085 8.43953C11.9311 8.38867 12.0689 8.38867 12.1915 8.43953C12.3318 8.49769 12.4431 8.66462 12.6656 8.99846L15.1708 12.7562Z" fill="#0099FF"/>
</svg>
