<svg width="24" height="24" viewBox="0 0 24 24" fill="#41494E" xmlns="http://www.w3.org/2000/svg">
<path d="M22 20.3571C22 20.7118 21.6996 21 21.33 21H2.67001C2.30035 21 2 20.7118 2 20.3571C2 20.0025 2.30035 19.7143 2.67001 19.7143H7.89914V18.2734H5.67349C5.46556 18.2734 5.27302 18.1847 5.14983 18.0295C5.02663 17.8744 4.98041 17.6748 5.02663 17.4827L8.53065 3.48769C8.59996 3.19951 8.86948 3 9.17753 3C9.48558 3 9.7551 3.19951 9.82441 3.48769L11.4571 9.99748C10.3481 10.9581 9.64729 12.3546 9.64729 13.8989C9.64729 14.7856 9.87831 15.6501 10.325 16.426C10.3558 16.4704 10.3866 16.5147 10.4097 16.5664C10.8256 17.2462 11.4032 17.8299 12.0886 18.2659H10.4637V19.7068H13.8368V17.6748C12.181 17.1502 10.9874 15.6575 10.9874 13.8989C10.9874 11.7044 12.851 9.91623 15.1383 9.91623C17.4255 9.91623 19.2892 11.7044 19.2892 13.8989C19.2892 15.6575 18.0955 17.1501 16.4397 17.6748V19.7068H21.3531C21.5302 19.7068 21.6996 19.7733 21.8228 19.8915C21.923 20.0245 21.9999 20.1871 21.9999 20.357L22 20.3571Z"/>
</svg>
