<svg width="50" height="50" viewBox="0 0 50 50" fill="none" xmlns="http://www.w3.org/2000/svg">
<g id="Group 44388">
<g id="Rectangle 2114">
<g filter="url(#filter0_i_8601_37296)">
<rect width="49.8077" height="49.8077" rx="16" fill="#DEF2FF"/>
</g>
<rect x="1" y="1" width="47.8077" height="47.8077" rx="15" stroke="url(#paint0_linear_8601_37296)" stroke-width="2" style="mix-blend-mode:overlay"/>
</g>
<path id="Vector" d="M23.8039 18.6321L20.6694 15.4648C20.5184 15.312 20.3403 15.1924 20.1456 15.1129C19.9498 15.0333 19.7412 14.9951 19.5316 15.0005C19.3219 15.006 19.1154 15.0552 18.9236 15.1452C18.7327 15.2349 18.5604 15.3639 18.4167 15.5247L15.4357 18.8547C15.2924 19.0149 15.1803 19.2036 15.1059 19.41C15.0309 19.6178 14.9959 19.8395 15.0004 20.0602L15.0002 20.0614L15.0004 20.0656C15.0059 20.2882 15.0521 20.5076 15.1366 20.7115C15.2206 20.9136 15.3415 21.096 15.4922 21.2482L18.6266 24.4154C18.7777 24.5683 18.9557 24.688 19.1506 24.7675C19.3464 24.8472 19.555 24.8853 19.7646 24.8798C19.9741 24.8743 20.1806 24.8251 20.3723 24.7351C20.5632 24.6454 20.7355 24.5164 20.8793 24.3555L23.8599 21.0256C24.0035 20.8654 24.1159 20.6765 24.1905 20.4699C24.2657 20.2613 24.3007 20.0392 24.2956 19.8185V19.8134C24.2901 19.5913 24.2439 19.3725 24.1596 19.1692C24.0756 18.967 23.9547 18.7844 23.8039 18.6321ZM32.3098 15.5046H27.3409C26.8756 15.5046 26.4527 15.7065 26.1466 16.0317C25.8406 16.3569 25.6506 16.806 25.6506 17.3004V22.5797C25.6506 23.0742 25.8406 23.5233 26.1466 23.8485C26.4527 24.1737 26.8756 24.3756 27.3409 24.3756H32.3098C32.7751 24.3756 33.1979 24.1737 33.5039 23.8485C33.81 23.5233 34 23.0742 34 22.5797V17.3004C34 16.8062 33.81 16.3569 33.5039 16.0317C33.1979 15.7065 32.7751 15.5046 32.3098 15.5046ZM27.3409 16.7695H32.3098C32.4469 16.7695 32.5717 16.8293 32.6625 16.9257C32.7532 17.0222 32.8095 17.155 32.8095 17.3004V22.5797C32.8095 22.7254 32.7532 22.8581 32.6625 22.9544C32.5717 23.0509 32.4469 23.1107 32.3098 23.1107H27.3409C27.2039 23.1107 27.0789 23.0509 26.9881 22.9544C26.8974 22.8581 26.841 22.7254 26.841 22.5797V17.3004C26.841 17.1548 26.8974 17.0222 26.9881 16.9257C27.0789 16.8293 27.2039 16.7695 27.3409 16.7695ZM32.3098 26.1289H27.3409C26.8756 26.1289 26.4527 26.3307 26.1466 26.6559C25.8406 26.9811 25.6506 27.4303 25.6506 27.9247V33.204C25.6506 33.6984 25.8406 34.1477 26.1466 34.473C26.4527 34.7981 26.8756 35 27.3409 35H32.3098C32.7751 35 33.1979 34.7981 33.5039 34.473C33.81 34.1478 34 33.6984 34 33.204V27.9247C34 27.4304 33.81 26.9811 33.5039 26.6559C33.1979 26.3307 32.7751 26.1289 32.3098 26.1289ZM27.3409 27.3938H32.3098C32.4469 27.3938 32.5717 27.4536 32.6625 27.55C32.7532 27.6464 32.8095 27.7793 32.8095 27.9247V33.204C32.8095 33.3496 32.7532 33.4825 32.6625 33.5789C32.5717 33.6753 32.4469 33.7351 32.3098 33.7351H27.3409C27.2039 33.7351 27.0789 33.6753 26.9881 33.5789C26.8974 33.4825 26.841 33.3496 26.841 33.204V27.9247C26.841 27.7791 26.8974 27.6464 26.9881 27.55C27.0789 27.4536 27.2039 27.3938 27.3409 27.3938ZM22.1324 26.1289H17.1636C16.6984 26.1289 16.2754 26.3307 15.9695 26.6559C15.6633 26.9811 15.4734 27.4304 15.4734 27.9247V33.204C15.4734 33.6984 15.6633 34.1477 15.9695 34.473C16.2754 34.7981 16.6982 35 17.1636 35H22.1324C22.5976 35 23.0204 34.7981 23.3266 34.473C23.6325 34.1478 23.8226 33.6984 23.8226 33.204V27.9247C23.8226 27.4304 23.6325 26.9811 23.3266 26.6559C23.0204 26.3307 22.5976 26.1289 22.1324 26.1289ZM17.1636 27.3938H22.1324C22.2694 27.3938 22.3942 27.4536 22.4851 27.55C22.5757 27.6464 22.632 27.7793 22.632 27.9247V33.204C22.632 33.3496 22.5757 33.4825 22.4851 33.5789C22.3942 33.6753 22.2694 33.7351 22.1324 33.7351H17.1636C17.0265 33.7351 16.9016 33.6753 16.811 33.5789C16.7201 33.4825 16.6638 33.3496 16.6638 33.204V27.9247C16.6638 27.7793 16.7201 27.6464 16.811 27.55C16.9016 27.4536 17.0266 27.3938 17.1636 27.3938ZM19.7865 16.4506L22.921 19.6179C22.9507 19.6482 22.9746 19.6842 22.9915 19.7241C23.008 19.764 23.0172 19.807 23.0187 19.8506V19.8512C23.0196 19.8945 23.0125 19.9376 22.9978 19.978C22.9829 20.0188 22.9608 20.0562 22.9325 20.0881L22.9323 20.088L19.951 23.4175C19.9229 23.449 19.8891 23.4742 19.8518 23.4917C19.8142 23.5093 19.7738 23.5189 19.7328 23.5199C19.692 23.5208 19.6499 23.5135 19.6109 23.4977C19.5728 23.4824 19.5379 23.4593 19.5083 23.4296L16.3748 20.2626C16.344 20.2312 16.32 20.195 16.3039 20.1566V20.1563C16.2875 20.1176 16.2784 20.0759 16.277 20.0335H16.2774V20.0298L16.277 20.028C16.2761 19.985 16.2833 19.9423 16.2981 19.9022V19.902C16.3123 19.8628 16.3346 19.8254 16.3639 19.7926L19.3448 16.4627C19.3729 16.4314 19.4066 16.4064 19.4438 16.3889C19.4814 16.3713 19.5219 16.3616 19.563 16.3605C19.6039 16.3597 19.6456 16.367 19.6847 16.3828C19.7225 16.3978 19.757 16.4208 19.7863 16.4503L19.7865 16.4506Z" fill="#0099FF"/>
</g>
<defs>
<filter id="filter0_i_8601_37296" x="0" y="0" width="51.8076" height="51.8086" filterUnits="userSpaceOnUse" color-interpolation-filters="sRGB">
<feFlood flood-opacity="0" result="BackgroundImageFix"/>
<feBlend mode="normal" in="SourceGraphic" in2="BackgroundImageFix" result="shape"/>
<feColorMatrix in="SourceAlpha" type="matrix" values="0 0 0 0 0 0 0 0 0 0 0 0 0 0 0 0 0 0 127 0" result="hardAlpha"/>
<feOffset dx="2" dy="2"/>
<feGaussianBlur stdDeviation="2"/>
<feComposite in2="hardAlpha" operator="arithmetic" k2="-1" k3="1"/>
<feColorMatrix type="matrix" values="0 0 0 0 0.0666667 0 0 0 0 0.0980392 0 0 0 0 0.117647 0 0 0 0.1 0"/>
<feBlend mode="normal" in2="shape" result="effect1_innerShadow_8601_37296"/>
</filter>
<linearGradient id="paint0_linear_8601_37296" x1="8.46731" y1="13.4481" x2="45.8231" y2="59.2712" gradientUnits="userSpaceOnUse">
<stop stop-color="#11191E" stop-opacity="0.4"/>
<stop offset="1" stop-color="white"/>
</linearGradient>
</defs>
</svg>
