<svg width="24" height="24" viewBox="0 0 24 24" fill="none" xmlns="http://www.w3.org/2000/svg">
<g clip-path="url(#clip0_3877_1594)">
<mask id="mask0_3877_1594" style="mask-type:alpha" maskUnits="userSpaceOnUse" x="0" y="0" width="24" height="24">
<path d="M0 0H24V24H0V0Z" fill="black"/>
</mask>
<g mask="url(#mask0_3877_1594)">
<path d="M13 18V20H19V22H13C12.4696 22 11.9609 21.7893 11.5858 21.4142C11.2107 21.0391 11 20.5304 11 20V18H7.5C6.43913 18 5.42172 17.5786 4.67157 16.8284C3.92143 16.0783 3.5 15.0609 3.5 14V10H20.5V14C20.5 15.0609 20.0786 16.0783 19.3284 16.8284C18.5783 17.5786 17.5609 18 16.5 18H13ZM17.5 6H19.5C19.7652 6 20.0196 6.10536 20.2071 6.29289C20.3946 6.48043 20.5 6.73478 20.5 7V9H3.5V7C3.5 6.73478 3.60536 6.48043 3.79289 6.29289C3.98043 6.10536 4.23478 6 4.5 6H6.5V2H8.5V6H15.5V2H17.5V6ZM12 14.5C12.2652 14.5 12.5196 14.3946 12.7071 14.2071C12.8946 14.0196 13 13.7652 13 13.5C13 13.2348 12.8946 12.9804 12.7071 12.7929C12.5196 12.6054 12.2652 12.5 12 12.5C11.7348 12.5 11.4804 12.6054 11.2929 12.7929C11.1054 12.9804 11 13.2348 11 13.5C11 13.7652 11.1054 14.0196 11.2929 14.2071C11.4804 14.3946 11.7348 14.5 12 14.5ZM11 2H13V5H11V2Z" fill="#71797E"/>
</g>
</g>
<defs>
<clipPath id="clip0_3877_1594">
<rect width="24" height="24" fill="white"/>
</clipPath>
</defs>
</svg>
