<svg width="24" height="24" viewBox="0 0 24 24" fill="none" xmlns="http://www.w3.org/2000/svg">
<g clip-path="url(#clip0_3877_1614)">
<path fill-rule="evenodd" clip-rule="evenodd" d="M3.30887 4H20.6862C21.4102 4 21.995 4.65562 21.995 5.46734V14.1465C21.995 14.9582 21.4102 15.6138 20.6862 15.6138H18.6665V13.5221H5.33329V15.6138H3.30887C2.58481 15.6138 2 14.9582 2 14.1465V5.46734C2 4.65562 2.58481 4 3.30887 4ZM3.86583 11.0276H12.7494V8.46758H3.86583V11.0276ZM8.66676 14.7178H7.27435V19.4735H8.66676V14.7178ZM17.322 14.7178H15.9296V19.4735H17.322V14.7178ZM12.9498 14.7178H11.5574V19.9995H12.9498V14.7178Z" fill="#71797E"/>
</g>
<defs>
<clipPath id="clip0_3877_1614">
<rect width="24" height="24" fill="white"/>
</clipPath>
</defs>
</svg>
