<svg width="24" height="24" viewBox="0 0 24 24" fill="none" xmlns="http://www.w3.org/2000/svg">
<g clip-path="url(#clip0_3877_1584)">
<mask id="mask0_3877_1584" style="mask-type:alpha" maskUnits="userSpaceOnUse" x="0" y="0" width="24" height="24">
<path d="M0 0H24V24H0V0Z" fill="black"/>
</mask>
<g mask="url(#mask0_3877_1584)">
<path d="M14 18V20L16 21V22H8.00004L7.99604 21.004L10 20V18H2.99204C2.86073 17.9992 2.73086 17.9725 2.60988 17.9215C2.4889 17.8704 2.37919 17.7959 2.28703 17.7024C2.19488 17.6088 2.12209 17.498 2.07284 17.3763C2.02359 17.2546 1.99885 17.1243 2.00004 16.993V4.007C2.00004 3.451 2.45504 3 2.99204 3H21.008C21.556 3 22 3.449 22 4.007V16.993C22 17.549 21.545 18 21.008 18H14ZM4.00004 14V16H20V14H4.00004Z" fill="#71797E"/>
</g>
</g>
<defs>
<clipPath id="clip0_3877_1584">
<rect width="24" height="24" fill="white"/>
</clipPath>
</defs>
</svg>
