<svg width="16" height="16" viewBox="0 0 16 16" fill="none" xmlns="http://www.w3.org/2000/svg">
<path d="M4.29344 4.28922V4.28922C4.58558 4.28922 4.82241 4.52605 4.82241 4.8182V5.33428C4.84471 6.0527 5.33453 6.71015 5.91337 7.2312C6.3268 7.60335 6.32665 8.29938 5.9119 8.67007C5.33491 9.18577 4.84465 9.83567 4.82241 10.5477V11.1782C4.82241 11.4723 4.58395 11.7108 4.2898 11.7108V11.7108C4.19236 11.7176 4.10109 11.7622 4.03444 11.8355C3.96778 11.9087 3.93071 12.0052 3.93071 12.1054C3.93071 12.2056 3.96778 12.3021 4.03444 12.3753C4.10109 12.4486 4.19236 12.4931 4.2898 12.5H11.5236C11.6256 12.5 11.7234 12.4584 11.7955 12.3844C11.8677 12.3104 11.9082 12.21 11.9082 12.1054C11.9082 12.0007 11.8677 11.9004 11.7955 11.8264C11.7234 11.7524 11.6256 11.7108 11.5236 11.7108V11.7108C11.2458 11.7108 11.0206 11.4856 11.0206 11.2078V10.5893C11.0224 10.5755 11.0224 10.5616 11.0206 10.5477C10.9945 9.8374 10.469 9.18109 9.86765 8.66514C9.44214 8.30007 9.43847 7.59888 9.86445 7.23436C10.4671 6.71867 10.9943 6.06911 11.02 5.35911C11.0218 5.34178 11.0218 5.32429 11.02 5.30695V4.79278C11.02 4.51467 11.2455 4.28922 11.5236 4.28922V4.28922C11.6256 4.28922 11.7234 4.24765 11.7955 4.17364C11.8677 4.09964 11.9082 3.99927 11.9082 3.89461C11.9082 3.78995 11.8677 3.68958 11.7955 3.61558C11.7234 3.54158 11.6256 3.5 11.5236 3.5H4.29283C4.19082 3.5 4.09299 3.54158 4.02086 3.61558C3.94873 3.68958 3.9082 3.78995 3.9082 3.89461C3.9082 3.99927 3.94873 4.09964 4.02086 4.17364C4.09299 4.24765 4.19082 4.28922 4.29283 4.28922H4.29344ZM7.92727 9.19439C7.92727 9.19456 7.92713 9.1947 7.92696 9.1947C7.82506 9.19462 7.72735 9.15305 7.6553 9.07912C7.58316 9.00512 7.54264 8.90475 7.54264 8.80009C7.54264 8.69543 7.58316 8.59506 7.6553 8.52106C7.72743 8.44705 7.82526 8.40548 7.92727 8.40548C8.0292 8.40548 8.12695 8.44702 8.19903 8.52097C8.2711 8.59491 8.31159 8.6952 8.31159 8.79978C8.31159 8.90435 8.2711 9.00465 8.19903 9.07859C8.12703 9.15246 8.0294 9.194 7.92758 9.19408C7.92741 9.19408 7.92727 9.19422 7.92727 9.19439V9.19439ZM6.04438 4.38609H9.81258C10.0123 4.40472 10.1648 4.57672 10.1648 4.78225C10.1648 4.98385 10.4792 5.76727 9.01162 7.1167C8.95423 7.16947 8.88751 7.21266 8.81505 7.24141C8.62499 7.31682 8.22375 7.46108 7.92727 7.46474C7.59928 7.46861 7.148 7.30383 6.96427 7.23068C6.90889 7.20863 6.85665 7.17806 6.81004 7.1409C5.55092 6.13699 5.69153 4.98405 5.69153 4.78225C5.69153 4.57672 5.84405 4.40534 6.04378 4.38609H6.04438Z" fill="#0099FF"/>
</svg>
