<svg width="56" height="49" viewBox="0 0 56 49" fill="none" xmlns="http://www.w3.org/2000/svg">
<rect x="0.75" y="0.147949" width="54.75" height="48" fill="#FF384C"/>
<rect x="1.25" y="0.647949" width="53.75" height="47" stroke="#D3DBE0" stroke-opacity="0.4"/>
<g filter="url(#filter0_ddii_8983_109845)">
<path d="M27.7607 30.3639C26.8847 30.3639 26.0147 30.2499 25.1507 30.0219C24.2867 29.7819 23.5547 29.4459 22.9547 29.0139L24.0887 26.7819C24.5687 27.1299 25.1267 27.4059 25.7627 27.6099C26.3987 27.8139 27.0407 27.9159 27.6887 27.9159C28.4207 27.9159 28.9967 27.7719 29.4167 27.4839C29.8367 27.1959 30.0467 26.7999 30.0467 26.2959C30.0467 25.8159 29.8607 25.4379 29.4887 25.1619C29.1167 24.8859 28.5167 24.7479 27.6887 24.7479H26.3567V22.8219L29.8667 18.8439L30.1907 19.8879H23.5847V17.5479H32.4047V19.4379L28.9127 23.4159L27.4367 22.5699H28.2827C29.8307 22.5699 31.0007 22.9179 31.7927 23.6139C32.5847 24.3099 32.9807 25.2039 32.9807 26.2959C32.9807 27.0039 32.7947 27.6699 32.4227 28.2939C32.0507 28.9059 31.4807 29.4039 30.7127 29.7879C29.9447 30.1719 28.9607 30.3639 27.7607 30.3639Z" fill="white"/>
</g>
<defs>
<filter id="filter0_ddii_8983_109845" x="11.8118" y="6.40499" width="33.1689" height="35.9588" filterUnits="userSpaceOnUse" color-interpolation-filters="sRGB">
<feFlood flood-opacity="0" result="BackgroundImageFix"/>
<feColorMatrix in="SourceAlpha" type="matrix" values="0 0 0 0 0 0 0 0 0 0 0 0 0 0 0 0 0 0 127 0" result="hardAlpha"/>
<feOffset dx="2.57143" dy="2.57143"/>
<feGaussianBlur stdDeviation="4.71429"/>
<feComposite in2="hardAlpha" operator="out"/>
<feColorMatrix type="matrix" values="0 0 0 0 1 0 0 0 0 0.219608 0 0 0 0 0.298039 0 0 0 1 0"/>
<feBlend mode="normal" in2="BackgroundImageFix" result="effect1_dropShadow_8983_109845"/>
<feColorMatrix in="SourceAlpha" type="matrix" values="0 0 0 0 0 0 0 0 0 0 0 0 0 0 0 0 0 0 127 0" result="hardAlpha"/>
<feOffset dx="-2.57143" dy="-2.57143"/>
<feGaussianBlur stdDeviation="4.28571"/>
<feComposite in2="hardAlpha" operator="out"/>
<feColorMatrix type="matrix" values="0 0 0 0 1 0 0 0 0 1 0 0 0 0 1 0 0 0 0.4 0"/>
<feBlend mode="normal" in2="effect1_dropShadow_8983_109845" result="effect2_dropShadow_8983_109845"/>
<feBlend mode="normal" in="SourceGraphic" in2="effect2_dropShadow_8983_109845" result="shape"/>
<feColorMatrix in="SourceAlpha" type="matrix" values="0 0 0 0 0 0 0 0 0 0 0 0 0 0 0 0 0 0 127 0" result="hardAlpha"/>
<feOffset dy="-1.28571"/>
<feGaussianBlur stdDeviation="0.985714"/>
<feComposite in2="hardAlpha" operator="arithmetic" k2="-1" k3="1"/>
<feColorMatrix type="matrix" values="0 0 0 0 1 0 0 0 0 0.219608 0 0 0 0 0.298039 0 0 0 0.4 0"/>
<feBlend mode="normal" in2="shape" result="effect3_innerShadow_8983_109845"/>
<feColorMatrix in="SourceAlpha" type="matrix" values="0 0 0 0 0 0 0 0 0 0 0 0 0 0 0 0 0 0 127 0" result="hardAlpha"/>
<feOffset dy="-0.428571"/>
<feGaussianBlur stdDeviation="0.557143"/>
<feComposite in2="hardAlpha" operator="arithmetic" k2="-1" k3="1"/>
<feColorMatrix type="matrix" values="0 0 0 0 1 0 0 0 0 1 0 0 0 0 1 0 0 0 0.6 0"/>
<feBlend mode="normal" in2="effect3_innerShadow_8983_109845" result="effect4_innerShadow_8983_109845"/>
</filter>
</defs>
</svg>
