<svg width="55" height="49" viewBox="0 0 55 49" fill="none" xmlns="http://www.w3.org/2000/svg">
<rect y="0.147949" width="54.75" height="48" fill="white"/>
<rect x="0.5" y="0.647949" width="53.75" height="47" stroke="#D3DBE0" stroke-opacity="0.4"/>
<path d="M27.7602 30.3639C26.7282 30.3639 25.8042 30.1119 24.9882 29.6079C24.1722 29.0919 23.5302 28.3479 23.0622 27.3759C22.5942 26.4039 22.3602 25.2279 22.3602 23.8479C22.3602 22.4679 22.5942 21.2919 23.0622 20.3199C23.5302 19.3479 24.1722 18.6099 24.9882 18.1059C25.8042 17.5899 26.7282 17.3319 27.7602 17.3319C28.8042 17.3319 29.7282 17.5899 30.5322 18.1059C31.3482 18.6099 31.9902 19.3479 32.4582 20.3199C32.9262 21.2919 33.1602 22.4679 33.1602 23.8479C33.1602 25.2279 32.9262 26.4039 32.4582 27.3759C31.9902 28.3479 31.3482 29.0919 30.5322 29.6079C29.7282 30.1119 28.8042 30.3639 27.7602 30.3639ZM27.7602 27.8979C28.2522 27.8979 28.6782 27.7599 29.0382 27.4839C29.4102 27.2079 29.6982 26.7699 29.9022 26.1699C30.1182 25.5699 30.2262 24.7959 30.2262 23.8479C30.2262 22.8999 30.1182 22.1259 29.9022 21.5259C29.6982 20.9259 29.4102 20.4879 29.0382 20.2119C28.6782 19.9359 28.2522 19.7979 27.7602 19.7979C27.2802 19.7979 26.8542 19.9359 26.4822 20.2119C26.1222 20.4879 25.8342 20.9259 25.6182 21.5259C25.4142 22.1259 25.3122 22.8999 25.3122 23.8479C25.3122 24.7959 25.4142 25.5699 25.6182 26.1699C25.8342 26.7699 26.1222 27.2079 26.4822 27.4839C26.8542 27.7599 27.2802 27.8979 27.7602 27.8979Z" fill="#71797E"/>
</svg>
