<svg width="15" height="16" viewBox="0 0 15 16" fill="none" xmlns="http://www.w3.org/2000/svg">
<path d="M7.08747 14.1967L7.08746 14.1967C6.86356 14.4206 6.86356 14.7841 7.08746 15.008C7.31136 15.2319 7.67486 15.2319 7.89876 15.008L13.9305 8.97621C13.9306 8.97617 13.9306 8.97613 13.9307 8.97608C14.1564 8.75216 14.1563 8.38852 13.9324 8.16461C13.7085 7.94071 13.345 7.9407 13.1211 8.1646C13.1211 8.1646 13.1211 8.1646 13.1211 8.16461L7.08747 14.1967Z" fill="#0099FF" stroke="#0099FF" stroke-width="0.2"/>
<path d="M7.91446 14.1984L1.87923 8.16314C1.65533 7.93924 1.29183 7.93924 1.06793 8.16314C0.844025 8.38704 0.844025 8.75054 1.06793 8.97444L7.10316 15.0097C7.32706 15.2336 7.69056 15.2336 7.91446 15.0097C8.13836 14.7858 8.13836 14.4223 7.91446 14.1984Z" fill="#0099FF" stroke="#0099FF" stroke-width="0.2"/>
<path d="M7.08747 7.02382L7.08746 7.02383C6.86356 7.24773 6.86356 7.61123 7.08746 7.83513C7.31136 8.05903 7.67486 8.05903 7.89876 7.83513L13.9305 1.80336C13.9306 1.80331 13.9306 1.80327 13.9307 1.80323C14.1564 1.5793 14.1563 1.21567 13.9324 0.991754C13.7085 0.767856 13.345 0.767853 13.1211 0.991745C13.1211 0.991748 13.1211 0.991751 13.1211 0.991754L7.08747 7.02382Z" fill="#0099FF" stroke="#0099FF" stroke-width="0.2"/>
<path d="M7.91446 7.02553L1.87923 0.990289C1.65533 0.766388 1.29183 0.766388 1.06793 0.990289C0.844025 1.21419 0.844025 1.57769 1.06793 1.80159L7.10316 7.83683C7.32706 8.06073 7.69056 8.06073 7.91446 7.83683C8.13836 7.61293 8.13836 7.24943 7.91446 7.02553Z" fill="#0099FF" stroke="#0099FF" stroke-width="0.2"/>
</svg>
