<svg width="40" height="40" viewBox="0 0 40 40" fill="none" xmlns="http://www.w3.org/2000/svg">
<g clip-path="url(#clip0_17594_400110)">
<mask id="mask0_17594_400110" style="mask-type:alpha" maskUnits="userSpaceOnUse" x="0" y="0" width="40" height="40">
<path d="M20 0.799805C26.7982 0.799805 31.5477 2.32891 34.6094 5.39062C37.6711 8.45234 39.2002 13.2018 39.2002 20C39.2002 26.7982 37.6711 31.5477 34.6094 34.6094C31.5477 37.6711 26.7982 39.2002 20 39.2002C13.2018 39.2002 8.45234 37.6711 5.39062 34.6094C2.32891 31.5477 0.799805 26.7982 0.799805 20C0.799805 13.2018 2.32891 8.45234 5.39062 5.39062C8.45234 2.32891 13.2018 0.799805 20 0.799805Z" fill="#0099FF"/>
<path d="M20 0.799805C26.7982 0.799805 31.5477 2.32891 34.6094 5.39062C37.6711 8.45234 39.2002 13.2018 39.2002 20C39.2002 26.7982 37.6711 31.5477 34.6094 34.6094C31.5477 37.6711 26.7982 39.2002 20 39.2002C13.2018 39.2002 8.45234 37.6711 5.39062 34.6094C2.32891 31.5477 0.799805 26.7982 0.799805 20C0.799805 13.2018 2.32891 8.45234 5.39062 5.39062C8.45234 2.32891 13.2018 0.799805 20 0.799805Z" stroke="url(#paint0_linear_17594_400110)" stroke-width="1.6"/>
</mask>
<g mask="url(#mask0_17594_400110)">
<g filter="url(#filter0_di_17594_400110)">
<path d="M3.31444 10.8845C4.5941 7.36546 7.36607 4.59349 10.8851 3.31383C11.6635 3.03078 12.4678 2.82481 13.2864 2.69887L15.1542 2.41152C18.3658 1.91742 21.6341 1.91743 24.8458 2.41152L26.7135 2.69887C27.5321 2.82481 28.3364 3.03078 29.1148 3.31383C32.6338 4.59349 35.4058 7.36546 36.6855 10.8845C36.9685 11.6629 37.1745 12.4672 37.3004 13.2858L37.6428 15.5109C38.0999 18.4824 38.0587 21.5094 37.5209 24.4673L37.3452 25.4336C37.1894 26.2907 36.9614 27.1331 36.6637 27.9518L36.4549 28.5261C35.3025 31.6952 33.0332 34.3348 30.0728 35.9495C28.6646 36.7176 27.1336 37.2352 25.5481 37.4791L23.7155 37.7611C21.2529 38.1399 18.747 38.1399 16.2845 37.7611L14.4518 37.4791C12.8663 37.2352 11.3353 36.7176 9.92709 35.9495C6.96674 34.3348 4.69743 31.6952 3.54504 28.5261L3.33621 27.9518C3.0385 27.1331 2.81051 26.2907 2.65468 25.4336L2.47899 24.4673C1.94117 21.5094 1.9 18.4824 2.35715 15.5109L2.69948 13.2858C2.82542 12.4672 3.03139 11.6629 3.31444 10.8845Z" fill="#FF384C"/>
<path d="M15.276 3.20215C18.407 2.72048 21.5933 2.72046 24.7242 3.20215L26.5914 3.48926C27.3583 3.60724 28.1123 3.80028 28.8414 4.06543C32.1381 5.26422 34.7344 7.86152 35.9332 11.1582C36.1983 11.8873 36.3914 12.6405 36.5094 13.4072L36.8522 15.6328C37.2958 18.5164 37.2559 21.4538 36.734 24.3242L36.5582 25.29C36.4105 26.1028 36.1941 26.9024 35.9117 27.6787L35.7028 28.2529C34.617 31.2387 32.4791 33.7257 29.6901 35.2471C28.3632 35.9708 26.9202 36.4587 25.4264 36.6885L23.5934 36.9707C21.2116 37.3371 18.7876 37.3371 16.4059 36.9707L14.5739 36.6885C13.08 36.4587 11.637 35.9708 10.3102 35.2471C7.52092 33.7256 5.38232 31.2388 4.29651 28.2529L4.0885 27.6787C3.80619 26.9024 3.58979 26.1028 3.44202 25.29L3.26624 24.3242C2.74433 21.4537 2.70446 18.5164 3.14807 15.6328L3.48987 13.4072C3.60783 12.6405 3.80096 11.8872 4.06604 11.1582C5.26483 7.86152 7.86213 5.26422 11.1588 4.06543C11.8878 3.80035 12.6411 3.60722 13.4078 3.48926L15.276 3.20215Z" stroke="url(#paint1_linear_17594_400110)" stroke-width="1.6" style="mix-blend-mode:overlay"/>
</g>
<g filter="url(#filter1_ddii_17594_400110)">
<path d="M17.0834 11.251H22.9164V9.30664H24.8607V11.251H28.7504C29.0081 11.2511 29.2556 11.3529 29.4379 11.5352C29.6201 11.7174 29.722 11.9649 29.722 12.2227V27.7783C29.722 28.0361 29.6201 28.2835 29.4379 28.4658C29.2556 28.6481 29.0081 28.7509 28.7504 28.751H11.2504C10.9926 28.751 10.7452 28.6481 10.5629 28.4658C10.3805 28.2835 10.2777 28.0362 10.2777 27.7783V12.2227C10.2778 11.9649 10.3806 11.7174 10.5629 11.5352C10.7452 11.353 10.9926 11.251 11.2504 11.251H15.139V9.30664H17.0834V11.251ZM12.222 26.8066H27.7777V17.084H12.222V26.8066ZM20.7289 21.2158H22.9164L19.2709 26.3203V22.6738H17.0834L20.7289 17.5703V21.2158Z" fill="white"/>
</g>
</g>
</g>
<defs>
<filter id="filter0_di_17594_400110" x="0.0424805" y="1.04102" width="39.915" height="40.0039" filterUnits="userSpaceOnUse" color-interpolation-filters="sRGB">
<feFlood flood-opacity="0" result="BackgroundImageFix"/>
<feColorMatrix in="SourceAlpha" type="matrix" values="0 0 0 0 0 0 0 0 0 0 0 0 0 0 0 0 0 0 127 0" result="hardAlpha"/>
<feOffset dy="1"/>
<feGaussianBlur stdDeviation="1"/>
<feComposite in2="hardAlpha" operator="out"/>
<feColorMatrix type="matrix" values="0 0 0 0 0.0666667 0 0 0 0 0.0980392 0 0 0 0 0.117647 0 0 0 0.05 0"/>
<feBlend mode="normal" in2="BackgroundImageFix" result="effect1_dropShadow_17594_400110"/>
<feBlend mode="normal" in="SourceGraphic" in2="effect1_dropShadow_17594_400110" result="shape"/>
<feColorMatrix in="SourceAlpha" type="matrix" values="0 0 0 0 0 0 0 0 0 0 0 0 0 0 0 0 0 0 127 0" result="hardAlpha"/>
<feOffset dx="1.6" dy="1.6"/>
<feGaussianBlur stdDeviation="1.6"/>
<feComposite in2="hardAlpha" operator="arithmetic" k2="-1" k3="1"/>
<feColorMatrix type="matrix" values="0 0 0 0 0.0666667 0 0 0 0 0.0980392 0 0 0 0 0.117647 0 0 0 0.2 0"/>
<feBlend mode="normal" in2="shape" result="effect2_innerShadow_17594_400110"/>
</filter>
<filter id="filter1_ddii_17594_400110" x="-2.80948" y="-2.80887" width="46.4762" height="46.4768" filterUnits="userSpaceOnUse" color-interpolation-filters="sRGB">
<feFlood flood-opacity="0" result="BackgroundImageFix"/>
<feColorMatrix in="SourceAlpha" type="matrix" values="0 0 0 0 0 0 0 0 0 0 0 0 0 0 0 0 0 0 127 0" result="hardAlpha"/>
<feOffset dx="2.57143" dy="2.57143"/>
<feGaussianBlur stdDeviation="4.71429"/>
<feComposite in2="hardAlpha" operator="out"/>
<feColorMatrix type="matrix" values="0 0 0 0 1 0 0 0 0 0.219608 0 0 0 0 0.298039 0 0 0 1 0"/>
<feBlend mode="normal" in2="BackgroundImageFix" result="effect1_dropShadow_17594_400110"/>
<feColorMatrix in="SourceAlpha" type="matrix" values="0 0 0 0 0 0 0 0 0 0 0 0 0 0 0 0 0 0 127 0" result="hardAlpha"/>
<feOffset dx="-2.57143" dy="-2.57143"/>
<feGaussianBlur stdDeviation="4.28571"/>
<feComposite in2="hardAlpha" operator="out"/>
<feColorMatrix type="matrix" values="0 0 0 0 1 0 0 0 0 1 0 0 0 0 1 0 0 0 0.4 0"/>
<feBlend mode="normal" in2="effect1_dropShadow_17594_400110" result="effect2_dropShadow_17594_400110"/>
<feBlend mode="normal" in="SourceGraphic" in2="effect2_dropShadow_17594_400110" result="shape"/>
<feColorMatrix in="SourceAlpha" type="matrix" values="0 0 0 0 0 0 0 0 0 0 0 0 0 0 0 0 0 0 127 0" result="hardAlpha"/>
<feOffset dy="-1.28571"/>
<feGaussianBlur stdDeviation="0.985714"/>
<feComposite in2="hardAlpha" operator="arithmetic" k2="-1" k3="1"/>
<feColorMatrix type="matrix" values="0 0 0 0 1 0 0 0 0 0.219608 0 0 0 0 0.298039 0 0 0 0.4 0"/>
<feBlend mode="normal" in2="shape" result="effect3_innerShadow_17594_400110"/>
<feColorMatrix in="SourceAlpha" type="matrix" values="0 0 0 0 0 0 0 0 0 0 0 0 0 0 0 0 0 0 127 0" result="hardAlpha"/>
<feOffset dy="-0.428571"/>
<feGaussianBlur stdDeviation="0.557143"/>
<feComposite in2="hardAlpha" operator="arithmetic" k2="-1" k3="1"/>
<feColorMatrix type="matrix" values="0 0 0 0 1 0 0 0 0 1 0 0 0 0 1 0 0 0 0.6 0"/>
<feBlend mode="normal" in2="effect3_innerShadow_17594_400110" result="effect4_innerShadow_17594_400110"/>
</filter>
<linearGradient id="paint0_linear_17594_400110" x1="6.8" y1="10.8" x2="36.8" y2="47.6" gradientUnits="userSpaceOnUse">
<stop stop-color="#11191E" stop-opacity="0.4"/>
<stop offset="1" stop-color="white"/>
</linearGradient>
<linearGradient id="paint1_linear_17594_400110" x1="7.89996" y1="11.566" x2="34.3229" y2="36.041" gradientUnits="userSpaceOnUse">
<stop stop-color="#11191E"/>
<stop offset="1" stop-color="white"/>
</linearGradient>
<clipPath id="clip0_17594_400110">
<rect width="40" height="40" fill="white"/>
</clipPath>
</defs>
</svg>
