<svg width="50" height="50" viewBox="0 0 50 50" fill="none" xmlns="http://www.w3.org/2000/svg">
<g id="Group 43750">
<g id="Group 43751">
<g id="Rectangle 2114">
<g filter="url(#filter0_i_6916_46516)">
<rect width="49.8077" height="49.8077" rx="16" fill="#DEF2FF"/>
</g>
<rect x="1" y="1" width="47.8077" height="47.8077" rx="15" stroke="url(#paint0_linear_6916_46516)" stroke-width="2" style="mix-blend-mode:overlay"/>
</g>
<path id="Vector" d="M35.2082 19.7014V18.0137C35.2082 17.2144 34.8907 16.4479 34.3255 15.8827C33.7604 15.3175 32.9938 15 32.1945 15H18.0137C17.2144 15 16.4479 15.3175 15.8827 15.8827C15.3175 16.4479 15 17.2144 15 18.0137V19.7014C14.9998 20.1126 15.0843 20.5195 15.2483 20.8966C15.4124 21.2737 15.6524 21.613 15.9534 21.8932C15.6524 22.1733 15.4124 22.5126 15.2483 22.8897C15.0843 23.2668 14.9998 23.6737 15 24.0849V25.7726C14.9998 26.1839 15.0843 26.5907 15.2483 26.9678C15.4124 27.345 15.6524 27.6842 15.9534 27.9644C15.6524 28.2446 15.4124 28.5838 15.2483 28.9609C15.0843 29.338 14.9998 29.7449 15 30.1562V31.8438C14.9986 32.2405 15.0755 32.6336 15.2263 33.0005C15.3771 33.3674 15.5988 33.7009 15.8788 33.9819C16.1588 34.2629 16.4915 34.4859 16.8579 34.638C17.2242 34.7902 17.617 34.8685 18.0137 34.8685H25.8274C26.0454 34.8685 26.2545 34.7819 26.4086 34.6278C26.5627 34.4736 26.6493 34.2646 26.6493 34.0466C26.6493 33.8286 26.5627 33.6195 26.4086 33.4654C26.2545 33.3113 26.0454 33.2247 25.8274 33.2247H18.0137C17.6504 33.2247 17.302 33.0803 17.0451 32.8234C16.7882 32.5665 16.6439 32.2181 16.6439 31.8548V30.1562C16.6439 29.7929 16.7882 29.4444 17.0451 29.1875C17.302 28.9306 17.6504 28.7863 18.0137 28.7863H26.1343C26.3523 28.7863 26.5613 28.6997 26.7155 28.5456C26.8696 28.3914 26.9562 28.1824 26.9562 27.9644C26.9562 27.7464 26.8696 27.5373 26.7155 27.3832C26.5613 27.2291 26.3523 27.1425 26.1343 27.1425H18.0137C17.6504 27.1425 17.302 26.9981 17.0451 26.7412C16.7882 26.4843 16.6439 26.1359 16.6439 25.7726V24.0849C16.6439 23.7216 16.7882 23.3732 17.0451 23.1163C17.302 22.8594 17.6504 22.7151 18.0137 22.7151H32.1945C32.5578 22.7151 32.9063 22.8594 33.1632 23.1163C33.4201 23.3732 33.5644 23.7216 33.5644 24.0849V25.7726C33.5644 26.1359 33.4201 26.4843 33.1632 26.7412C32.9063 26.9981 32.5578 27.1425 32.1945 27.1425C31.9766 27.1425 31.7675 27.2291 31.6134 27.3832C31.4592 27.5373 31.3726 27.7464 31.3726 27.9644C31.3726 28.1824 31.4592 28.3914 31.6134 28.5456C31.7675 28.6997 31.9766 28.7863 32.1945 28.7863C32.5578 28.7863 32.9063 28.9306 33.1632 29.1875C33.4201 29.4444 33.5644 29.7929 33.5644 30.1562V31.8438C33.5644 32.2071 33.4201 32.5556 33.1632 32.8125C32.9063 33.0694 32.5578 33.2137 32.1945 33.2137C31.9766 33.2137 31.7675 33.3003 31.6134 33.4544C31.4592 33.6086 31.3726 33.8176 31.3726 34.0356C31.3726 34.2536 31.4592 34.4627 31.6134 34.6168C31.7675 34.7709 31.9766 34.8575 32.1945 34.8575C32.9938 34.8575 33.7604 34.54 34.3255 33.9748C34.8907 33.4097 35.2082 32.6431 35.2082 31.8438V30.1562C35.2085 29.7449 35.124 29.338 34.9599 28.9609C34.7959 28.5838 34.5558 28.2446 34.2548 27.9644C34.5558 27.6842 34.7959 27.345 34.9599 26.9678C35.124 26.5907 35.2085 26.1839 35.2082 25.7726V24.0849C35.2085 23.6737 35.124 23.2668 34.9599 22.8897C34.7959 22.5126 34.5558 22.1733 34.2548 21.8932C34.5558 21.613 34.7959 21.2737 34.9599 20.8966C35.124 20.5195 35.2085 20.1126 35.2082 19.7014ZM18.0137 21.0712C17.6504 21.0712 17.302 20.9269 17.0451 20.67C16.7882 20.4131 16.6439 20.0647 16.6439 19.7014V18.0137C16.6439 17.6504 16.7882 17.302 17.0451 17.0451C17.302 16.7882 17.6504 16.6438 18.0137 16.6438H32.1945C32.5578 16.6438 32.9063 16.7882 33.1632 17.0451C33.4201 17.302 33.5644 17.6504 33.5644 18.0137V19.7014C33.5644 20.0647 33.4201 20.4131 33.1632 20.67C32.9063 20.9269 32.5578 21.0712 32.1945 21.0712H18.0137Z" fill="#0099FF"/>
<path id="Vector_2" d="M30.6929 16.9141H22.9121C22.6941 16.9141 22.4851 17.0007 22.3309 17.1548C22.1768 17.3089 22.0902 17.518 22.0902 17.736C22.0902 17.954 22.1768 18.163 22.3309 18.3172C22.4851 18.4713 22.6941 18.5579 22.9121 18.5579H30.6929C30.9109 18.5579 31.12 18.4713 31.2741 18.3172C31.4283 18.163 31.5149 17.954 31.5149 17.736C31.5149 17.518 31.4283 17.3089 31.2741 17.1548C31.12 17.0007 30.9109 16.9141 30.6929 16.9141ZM19.6244 17.1552C19.5081 17.2699 19.4291 17.417 19.3978 17.5774C19.3665 17.7377 19.3844 17.9038 19.4491 18.0538C19.4882 18.1497 19.5481 18.2358 19.6244 18.3058C19.7399 18.4209 19.8871 18.499 20.0471 18.5302C20.2071 18.5615 20.3728 18.5444 20.5231 18.4812C20.5974 18.4332 20.6639 18.374 20.7203 18.3058C20.798 18.2327 20.858 18.1427 20.8957 18.0428C20.958 17.8942 20.9745 17.7304 20.9433 17.5723C20.9121 17.4142 20.8345 17.269 20.7203 17.1552C20.5666 17.0268 20.3727 16.9564 20.1724 16.9564C19.9721 16.9564 19.7782 17.0268 19.6244 17.1552ZM19.6244 23.4127C19.5081 23.5274 19.4291 23.6745 19.3978 23.8349C19.3665 23.9952 19.3844 24.1613 19.4491 24.3113C19.4868 24.4112 19.5467 24.5012 19.6244 24.5743C19.7399 24.6894 19.8871 24.7675 20.0471 24.7987C20.2071 24.8299 20.3728 24.8129 20.5231 24.7497C20.5974 24.7017 20.6639 24.6425 20.7203 24.5743C20.798 24.5012 20.858 24.4112 20.8957 24.3113C20.9604 24.1613 20.9782 23.9952 20.947 23.8349C20.9157 23.6745 20.8367 23.5274 20.7203 23.4127C20.5666 23.2843 20.3727 23.214 20.1724 23.214C19.9721 23.214 19.7782 23.2843 19.6244 23.4127ZM19.6244 29.4182C19.5081 29.5329 19.4291 29.68 19.3978 29.8404C19.3665 30.0007 19.3844 30.1668 19.4491 30.3168C19.4868 30.4167 19.5467 30.5066 19.6244 30.5798C19.7399 30.6949 19.8871 30.773 20.0471 30.8042C20.2071 30.8354 20.3728 30.8184 20.5231 30.7552C20.5974 30.7071 20.6639 30.648 20.7203 30.5798C20.8048 30.5228 20.8759 30.448 20.9286 30.3606C20.9994 30.202 21.0174 30.0247 20.9799 29.8551C20.9424 29.6854 20.8514 29.5322 20.7203 29.4182C20.5666 29.2898 20.3727 29.2194 20.1724 29.2194C19.9721 29.2194 19.7782 29.2898 19.6244 29.4182ZM29.1916 30.8209C29.4096 30.8209 29.6186 30.7343 29.7727 30.5802C29.9269 30.426 30.0135 30.217 30.0135 29.999V23.6319C30.0135 23.4139 29.9269 23.2048 29.7727 23.0507C29.6186 22.8965 29.4096 22.81 29.1916 22.81C28.9736 22.81 28.7645 22.8965 28.6104 23.0507C28.4562 23.2048 28.3696 23.4139 28.3696 23.6319V29.999C28.3696 30.217 28.4562 30.426 28.6104 30.5802C28.7645 30.7343 28.9736 30.8209 29.1916 30.8209Z" fill="#0099FF"/>
<path id="Vector_3" d="M28.0957 32.9045C28.0957 33.1951 28.2112 33.4739 28.4167 33.6794C28.6222 33.8849 28.9009 34.0004 29.1916 34.0004C29.4822 34.0004 29.761 33.8849 29.9665 33.6794C30.172 33.4739 30.2875 33.1951 30.2875 32.9045C30.2875 32.6138 30.172 32.3351 29.9665 32.1296C29.761 31.9241 29.4822 31.8086 29.1916 31.8086C28.9009 31.8086 28.6222 31.9241 28.4167 32.1296C28.2112 32.3351 28.0957 32.6138 28.0957 32.9045Z" fill="#0099FF"/>
</g>
</g>
<defs>
<filter id="filter0_i_6916_46516" x="0" y="0" width="51.8076" height="51.8086" filterUnits="userSpaceOnUse" color-interpolation-filters="sRGB">
<feFlood flood-opacity="0" result="BackgroundImageFix"/>
<feBlend mode="normal" in="SourceGraphic" in2="BackgroundImageFix" result="shape"/>
<feColorMatrix in="SourceAlpha" type="matrix" values="0 0 0 0 0 0 0 0 0 0 0 0 0 0 0 0 0 0 127 0" result="hardAlpha"/>
<feOffset dx="2" dy="2"/>
<feGaussianBlur stdDeviation="2"/>
<feComposite in2="hardAlpha" operator="arithmetic" k2="-1" k3="1"/>
<feColorMatrix type="matrix" values="0 0 0 0 0.0666667 0 0 0 0 0.0980392 0 0 0 0 0.117647 0 0 0 0.1 0"/>
<feBlend mode="normal" in2="shape" result="effect1_innerShadow_6916_46516"/>
</filter>
<linearGradient id="paint0_linear_6916_46516" x1="8.46731" y1="13.4481" x2="45.8231" y2="59.2712" gradientUnits="userSpaceOnUse">
<stop stop-color="#11191E" stop-opacity="0.4"/>
<stop offset="1" stop-color="white"/>
</linearGradient>
</defs>
</svg>
