<svg width="16" height="16" viewBox="0 0 16 16" fill="none" xmlns="http://www.w3.org/2000/svg">
<rect opacity="0.1" x="1.33333" y="1.3335" width="13.3333" height="13.3333" rx="6.66667" fill="white"/>
<path fill-rule="evenodd" clip-rule="evenodd" d="M7.91043 9.83733C7.5064 10.1067 7.30439 10.2414 7.13687 10.2314C6.99093 10.2226 6.85612 10.1505 6.76792 10.0339C6.66667 9.90006 6.66667 9.65727 6.66667 9.17169L6.66667 6.82799C6.66667 6.3424 6.66667 6.09961 6.76792 5.96578C6.85612 5.84918 6.99093 5.77703 7.13687 5.76832C7.30439 5.75832 7.5064 5.89299 7.91043 6.16234L9.66821 7.3342C10.0021 7.55676 10.169 7.66804 10.2271 7.8083C10.278 7.93093 10.278 8.06875 10.2271 8.19137C10.169 8.33163 10.0021 8.44292 9.66821 8.66548L7.91043 9.83733Z" fill="white"/>
</svg>
