<svg width="16" height="16" viewBox="0 0 16 16" fill="none" xmlns="http://www.w3.org/2000/svg">
<rect opacity="0.1" x="1.33334" y="1.3335" width="13.3333" height="13.3333" rx="6.66667" fill="white"/>
<path fill-rule="evenodd" clip-rule="evenodd" d="M8.08958 6.16267C8.4936 5.89332 8.69562 5.75864 8.86314 5.76864C9.00907 5.77736 9.14389 5.84951 9.23209 5.9661C9.33334 6.09994 9.33334 6.34273 9.33334 6.82831L9.33334 9.17201C9.33334 9.6576 9.33334 9.90039 9.23209 10.0342C9.14389 10.1508 9.00907 10.223 8.86314 10.2317C8.69562 10.2417 8.4936 10.107 8.08958 9.83766L6.3318 8.6658C5.99795 8.44324 5.83103 8.33196 5.77286 8.1917C5.72201 8.06907 5.72201 7.93125 5.77286 7.80863C5.83103 7.66837 5.99795 7.55708 6.3318 7.33452L8.08958 6.16267Z" fill="white"/>
</svg>
