<svg width="44" height="42" viewBox="0 0 44 42" fill="none" xmlns="http://www.w3.org/2000/svg">
<g filter="url(#filter0_i_1248_18532)">
<path d="M1.5 21C1.5 7.2 7.7 1 21.5 1C35.3 1 41.5 7.2 41.5 21C41.5 34.8 35.3 41 21.5 41C7.7 41 1.5 34.8 1.5 21Z" fill="#0099FF"/>
</g>
<path d="M2.5 21C2.5 14.2273 4.02371 9.5405 7.03211 6.53211C10.0405 3.52371 14.7273 2 21.5 2C28.2727 2 32.9595 3.52371 35.9679 6.53211C38.9763 9.5405 40.5 14.2273 40.5 21C40.5 27.7727 38.9763 32.4595 35.9679 35.4679C32.9595 38.4763 28.2727 40 21.5 40C14.7273 40 10.0405 38.4763 7.03211 35.4679C4.02371 32.4595 2.5 27.7727 2.5 21Z" stroke="url(#paint0_linear_1248_18532)" stroke-width="2" style="mix-blend-mode:overlay"/>
<g filter="url(#filter1_ddii_1248_18532)">
<path d="M13.5 14V28H29.5V14H13.5ZM12.5 12H30.5C30.7652 12 31.0196 12.1054 31.2071 12.2929C31.3946 12.4804 31.5 12.7348 31.5 13V29C31.5 29.2652 31.3946 29.5196 31.2071 29.7071C31.0196 29.8946 30.7652 30 30.5 30H12.5C12.2348 30 11.9804 29.8946 11.7929 29.7071C11.6054 29.5196 11.5 29.2652 11.5 29V13C11.5 12.7348 11.6054 12.4804 11.7929 12.2929C11.9804 12.1054 12.2348 12 12.5 12ZM24.293 18.793L22.5 17H27.5V22L25.707 20.207L21.843 24.071L19.722 21.95L16.893 24.778L15.479 23.364L19.722 19.121L21.843 21.243L24.293 18.793Z" fill="white"/>
</g>
<defs>
<filter id="filter0_i_1248_18532" x="1.5" y="1" width="42" height="42" filterUnits="userSpaceOnUse" color-interpolation-filters="sRGB">
<feFlood flood-opacity="0" result="BackgroundImageFix"/>
<feBlend mode="normal" in="SourceGraphic" in2="BackgroundImageFix" result="shape"/>
<feColorMatrix in="SourceAlpha" type="matrix" values="0 0 0 0 0 0 0 0 0 0 0 0 0 0 0 0 0 0 127 0" result="hardAlpha"/>
<feOffset dx="2" dy="2"/>
<feGaussianBlur stdDeviation="2"/>
<feComposite in2="hardAlpha" operator="arithmetic" k2="-1" k3="1"/>
<feColorMatrix type="matrix" values="0 0 0 0 0.0666667 0 0 0 0 0.0980392 0 0 0 0 0.117647 0 0 0 0.1 0"/>
<feBlend mode="normal" in2="shape" result="effect1_innerShadow_1248_18532"/>
</filter>
<filter id="filter1_ddii_1248_18532" x="-1.64286" y="-2.14286" width="47.1429" height="47.1429" filterUnits="userSpaceOnUse" color-interpolation-filters="sRGB">
<feFlood flood-opacity="0" result="BackgroundImageFix"/>
<feColorMatrix in="SourceAlpha" type="matrix" values="0 0 0 0 0 0 0 0 0 0 0 0 0 0 0 0 0 0 127 0" result="hardAlpha"/>
<feOffset dx="2.57143" dy="2.57143"/>
<feGaussianBlur stdDeviation="4.71429"/>
<feComposite in2="hardAlpha" operator="out"/>
<feColorMatrix type="matrix" values="0 0 0 0 0.321569 0 0 0 0 0.435294 0 0 0 0 1 0 0 0 1 0"/>
<feBlend mode="normal" in2="BackgroundImageFix" result="effect1_dropShadow_1248_18532"/>
<feColorMatrix in="SourceAlpha" type="matrix" values="0 0 0 0 0 0 0 0 0 0 0 0 0 0 0 0 0 0 127 0" result="hardAlpha"/>
<feOffset dx="-2.57143" dy="-2.57143"/>
<feGaussianBlur stdDeviation="4.28571"/>
<feComposite in2="hardAlpha" operator="out"/>
<feColorMatrix type="matrix" values="0 0 0 0 1 0 0 0 0 1 0 0 0 0 1 0 0 0 0.4 0"/>
<feBlend mode="normal" in2="effect1_dropShadow_1248_18532" result="effect2_dropShadow_1248_18532"/>
<feBlend mode="normal" in="SourceGraphic" in2="effect2_dropShadow_1248_18532" result="shape"/>
<feColorMatrix in="SourceAlpha" type="matrix" values="0 0 0 0 0 0 0 0 0 0 0 0 0 0 0 0 0 0 127 0" result="hardAlpha"/>
<feOffset dy="-1.28571"/>
<feGaussianBlur stdDeviation="0.985714"/>
<feComposite in2="hardAlpha" operator="arithmetic" k2="-1" k3="1"/>
<feColorMatrix type="matrix" values="0 0 0 0 0 0 0 0 0 0.598039 0 0 0 0 1 0 0 0 0.4 0"/>
<feBlend mode="normal" in2="shape" result="effect3_innerShadow_1248_18532"/>
<feColorMatrix in="SourceAlpha" type="matrix" values="0 0 0 0 0 0 0 0 0 0 0 0 0 0 0 0 0 0 127 0" result="hardAlpha"/>
<feOffset dy="-0.428571"/>
<feGaussianBlur stdDeviation="0.557143"/>
<feComposite in2="hardAlpha" operator="arithmetic" k2="-1" k3="1"/>
<feColorMatrix type="matrix" values="0 0 0 0 1 0 0 0 0 1 0 0 0 0 1 0 0 0 0.6 0"/>
<feBlend mode="normal" in2="effect3_innerShadow_1248_18532" result="effect4_innerShadow_1248_18532"/>
</filter>
<linearGradient id="paint0_linear_1248_18532" x1="8.3" y1="11.8" x2="38.3" y2="48.6" gradientUnits="userSpaceOnUse">
<stop stop-color="#11191E" stop-opacity="0.4"/>
<stop offset="0.992881" stop-color="white"/>
</linearGradient>
</defs>
</svg>
