<svg width="16" height="16" viewBox="0 0 16 16" fill="none" xmlns="http://www.w3.org/2000/svg">
<rect width="16" height="16" rx="8" fill="#0099FF"/>
<path d="M4.39064 4.00018C4.49434 4.00018 4.59378 4.04138 4.6671 4.1147C4.74043 4.18802 4.78162 4.28747 4.78162 4.39116V11.2182H11.6087C11.7024 11.2182 11.793 11.2518 11.864 11.313C11.935 11.3742 11.9816 11.4588 11.9955 11.5515L11.9997 11.6092C11.9997 11.7129 11.9585 11.8123 11.8851 11.8857C11.8118 11.959 11.7124 12.0002 11.6087 12.0002H4.39064C4.28695 12.0002 4.1875 11.959 4.11418 11.8857C4.04086 11.8123 3.99966 11.7129 3.99966 11.6092V4.39116C3.99966 4.28747 4.04086 4.18802 4.11418 4.1147C4.1875 4.04138 4.28695 4.00018 4.39064 4.00018Z" fill="white"/>
<path d="M10.7613 8.41936C10.87 8.37247 10.9927 8.37017 11.1031 8.41293C11.2134 8.4557 11.3025 8.54012 11.3512 8.64798C11.3999 8.75585 11.4043 8.87853 11.3633 8.98958C11.3224 9.10063 11.2395 9.19114 11.1324 9.24162L9.24853 10.0915C9.1538 10.1345 9.04713 10.1434 8.94658 10.1168L7.37846 9.69816L5.84763 10.7424C5.75833 10.8033 5.65013 10.8301 5.54271 10.818C5.43529 10.8058 5.33581 10.7555 5.26237 10.6762L5.22086 10.6239C5.18743 10.5749 5.164 10.5198 5.15189 10.4617C5.13979 10.4036 5.13925 10.3438 5.15031 10.2855C5.16137 10.2272 5.18382 10.1717 5.21636 10.1221C5.2489 10.0725 5.2909 10.0298 5.33996 9.9965L7.04101 8.8368C7.0946 8.80026 7.15544 8.7757 7.21938 8.7648C7.28333 8.7539 7.34887 8.75692 7.41154 8.77365L9.02357 9.20252L10.7619 8.41936H10.7613Z" fill="white"/>
<path d="M10.6025 4.70195C10.6408 4.65673 10.6877 4.61949 10.7404 4.59238C10.7931 4.56526 10.8506 4.54878 10.9097 4.5439C10.9687 4.53901 11.0282 4.5458 11.0846 4.56389C11.1411 4.58198 11.1934 4.61101 11.2386 4.64932C11.2838 4.68763 11.3211 4.73447 11.3482 4.78717C11.3753 4.83987 11.3918 4.8974 11.3967 4.95646C11.4016 5.01553 11.3948 5.07498 11.3767 5.13142C11.3586 5.18786 11.3296 5.24019 11.2912 5.28541L9.40733 7.51157C9.34854 7.58094 9.27016 7.63093 9.18247 7.65497C9.09477 7.67902 9.00186 7.676 8.91591 7.64631L7.53666 7.17112L6.00523 10.5552C5.9603 10.6546 5.88089 10.7343 5.78169 10.7797C5.6825 10.825 5.57023 10.8329 5.46568 10.8018L5.40854 10.7801C5.29962 10.7308 5.21474 10.6402 5.17256 10.5284C5.13038 10.4165 5.13434 10.2924 5.18357 10.1835L6.88463 6.42526C6.93095 6.3228 7.01386 6.24134 7.11712 6.19684C7.22038 6.15233 7.33653 6.14799 7.44282 6.18466L8.91771 6.69353L10.6031 4.70255L10.6025 4.70195Z" fill="white"/>
</svg>
