<svg width="16" height="16" viewBox="0 0 16 16" fill="none" xmlns="http://www.w3.org/2000/svg">
<path d="M9.69336 2.00037C9.50424 2.32688 9.38036 2.69598 9.34473 3.09119H4.45508C4.41945 3.09119 4.38353 3.09813 4.35059 3.11169C4.3175 3.1254 4.28704 3.14594 4.26172 3.17126C4.2366 3.19642 4.2168 3.22634 4.20312 3.25916C4.18952 3.29208 4.18169 3.32802 4.18164 3.36365V13.4545H4.72754V3.63708H9.35156C9.4746 4.72165 10.2479 5.60662 11.2725 5.89685V7.18201C11.2726 7.25421 11.3015 7.32431 11.3525 7.37537C11.4036 7.42625 11.4738 7.45447 11.5459 7.45447C11.6179 7.4543 11.6873 7.4262 11.7383 7.37537C11.7893 7.32431 11.8183 7.25421 11.8184 7.18201V5.9906C11.8783 5.99465 11.939 6.00037 12 6.00037C12.3196 6.00033 12.6252 5.94044 12.9092 5.83728V13.4545H13.1816C13.2538 13.4546 13.3239 13.4835 13.375 13.5345C13.4259 13.5857 13.4551 13.6557 13.4551 13.7279C13.4549 13.7999 13.4259 13.8693 13.375 13.9203C13.3239 13.9713 13.2538 14.0003 13.1816 14.0004H2.81836C2.74619 14.0004 2.67612 13.9712 2.625 13.9203C2.57421 13.8693 2.54606 13.7999 2.5459 13.7279C2.5459 13.6556 2.57393 13.5857 2.625 13.5345C2.67615 13.4834 2.74603 13.4545 2.81836 13.4545H3.09082V2.68201C3.09107 2.50136 3.16331 2.32833 3.29102 2.20056C3.41875 2.07283 3.59183 2.00067 3.77246 2.00037H9.69336ZM11.5459 9.09119C11.4736 9.09119 11.4037 9.12012 11.3525 9.17126C11.3016 9.22231 11.2726 9.29152 11.2725 9.36365V12.6371C11.2727 12.7091 11.3017 12.7785 11.3525 12.8295C11.4037 12.8804 11.4737 12.9095 11.5459 12.9095C11.618 12.9094 11.6873 12.8804 11.7383 12.8295C11.7893 12.7785 11.8182 12.7092 11.8184 12.6371V9.36365C11.8183 9.29161 11.7891 9.22229 11.7383 9.17126C11.6873 9.12028 11.618 9.09136 11.5459 9.09119ZM9.90918 8.00037C9.83691 8.00037 9.76792 8.02938 9.7168 8.08044C9.66573 8.13153 9.63679 8.2006 9.63672 8.27283C9.63682 8.34503 9.66574 8.41513 9.7168 8.46619C9.76787 8.5169 9.83718 8.54626 9.90918 8.54626H11.5459C11.6179 8.54609 11.6873 8.51705 11.7383 8.46619C11.7893 8.41513 11.8183 8.34503 11.8184 8.27283C11.8183 8.20077 11.7891 8.13149 11.7383 8.08044C11.6873 8.02945 11.618 8.00054 11.5459 8.00037H9.90918ZM12 1.33337C13.1046 1.33337 14 2.2288 14 3.33337C14 4.43792 13.1046 5.33337 12 5.33337C10.8954 5.33337 10 4.43792 10 3.33337C10 2.2288 10.8954 1.33337 12 1.33337Z" fill="#71797E"/>
</svg>
