<svg width="16" height="16" viewBox="0 0 16 16" fill="none" xmlns="http://www.w3.org/2000/svg">
<path d="M8.89 5.121C9.692 5.121 10.347 5.733 10.347 6.48V8.617C10.347 9.141 10.023 9.601 9.551 9.827V14H8.47L8.036 11.356L7.603 14H6.425V9.823C5.958 9.596 5.637 9.14 5.637 8.617V6.48C5.637 5.732 6.293 5.121 7.094 5.121H8.89ZM12.66 5.355C13.396 5.355 14 5.917 14 6.603V8.57C14 9.05 13.706 9.469 13.277 9.677V13.515H12.195L11.797 11.085L11.399 13.515H10.405V10.049C10.813 9.679 11.054 9.165 11.054 8.62V6.482C11.0541 6.09056 10.9321 5.70885 10.705 5.39C10.8063 5.36656 10.91 5.35481 11.014 5.355H12.66ZM4.988 5.353C5.092 5.353 5.194 5.365 5.296 5.388C5.075 5.703 4.947 6.078 4.947 6.48V8.617C4.947 9.156 5.18 9.67 5.594 10.048H5.595V13.512H4.601L4.203 11.082L3.805 13.512H2.725V9.672C2.28 9.459 2 9.032 2 8.566V6.601C2 5.916 2.602 5.353 3.339 5.353H4.988ZM4.2 2.485C4.979 2.485 5.612 3.073 5.612 3.799C5.612 4.525 4.982 5.114 4.2 5.114C3.42 5.114 2.791 4.526 2.791 3.799C2.79 3.072 3.421 2.485 4.201 2.485H4.2ZM11.8 2.485C12.579 2.485 13.21 3.072 13.21 3.799C13.21 4.526 12.579 5.114 11.8 5.114C11.02 5.114 10.39 4.524 10.39 3.799C10.39 3.073 11.02 2.485 11.8 2.485ZM8.035 2C8.883 2 9.57 2.64 9.57 3.432C9.57 4.222 8.883 4.863 8.035 4.863C7.186 4.863 6.499 4.223 6.499 3.432C6.498 2.638 7.185 2 8.034 2H8.035Z" fill="#71797E"/>
</svg>
