<svg width="16" height="16" viewBox="0 0 16 16" fill="none" xmlns="http://www.w3.org/2000/svg">
<path d="M1.42839 6.69528L6.19152 1.4751C6.38163 1.28629 6.6668 1.28629 6.85821 1.4751C7.04832 1.66521 7.04832 1.76026 7.04832 1.95037V4.70174C10.9521 4.70174 14.667 7.92838 14.667 11.8204C14.667 12.8647 14.1917 14.1929 13.7151 14.6668C13.1435 11.7254 10.1916 9.44795 7.04832 9.44795V12.2944C7.04832 12.3894 7.04832 12.4845 6.95326 12.6746C6.76315 12.8647 6.38163 12.7696 6.28658 12.6746L1.52474 7.54947C1.33333 7.35936 1.33333 7.16925 1.33333 7.0755C1.33333 6.97914 1.33333 6.79034 1.42839 6.69528Z" fill="#11191E"/>
</svg>
