<svg width="16" height="16" viewBox="0 0 16 16" fill="none" xmlns="http://www.w3.org/2000/svg">
<g id="endContent">
<path id="Vector" d="M4.16683 1.66675C4.53891 1.66675 4.90734 1.74003 5.2511 1.88242C5.59486 2.02481 5.9072 2.23351 6.1703 2.49661C6.4334 2.75971 6.6421 3.07206 6.78449 3.41581C6.92688 3.75957 7.00016 4.128 7.00016 4.50008V7.33341H4.16683C3.41538 7.33341 2.69471 7.0349 2.16336 6.50355C1.63201 5.9722 1.3335 5.25153 1.3335 4.50008C1.3335 3.74863 1.63201 3.02797 2.16336 2.49661C2.69471 1.96526 3.41538 1.66675 4.16683 1.66675V1.66675ZM4.16683 8.66675H7.00016V11.5001C7.00016 12.0605 6.83399 12.6083 6.52266 13.0742C6.21133 13.5401 5.76882 13.9033 5.2511 14.1177C4.73338 14.3322 4.16369 14.3883 3.61407 14.279C3.06446 14.1696 2.55961 13.8998 2.16336 13.5036C1.76711 13.1073 1.49726 12.6025 1.38794 12.0528C1.27861 11.5032 1.33472 10.9335 1.54917 10.4158C1.76362 9.89809 2.12678 9.45558 2.59271 9.14425C3.05865 8.83292 3.60645 8.66675 4.16683 8.66675V8.66675ZM11.1668 1.66675C11.9183 1.66675 12.6389 1.96526 13.1703 2.49661C13.7017 3.02797 14.0002 3.74863 14.0002 4.50008C14.0002 5.25153 13.7017 5.9722 13.1703 6.50355C12.6389 7.0349 11.9183 7.33341 11.1668 7.33341H8.3335V4.50008C8.3335 3.74863 8.63201 3.02797 9.16336 2.49661C9.69471 1.96526 10.4154 1.66675 11.1668 1.66675V1.66675ZM8.3335 8.66675H11.1668C11.7272 8.66675 12.275 8.83292 12.7409 9.14425C13.2069 9.45558 13.57 9.89809 13.7845 10.4158C13.9989 10.9335 14.055 11.5032 13.9457 12.0528C13.8364 12.6025 13.5665 13.1073 13.1703 13.5036C12.7741 13.8998 12.2692 14.1696 11.7196 14.279C11.17 14.3883 10.6003 14.3322 10.0826 14.1177C9.56484 13.9033 9.12233 13.5401 8.811 13.0742C8.49967 12.6083 8.3335 12.0605 8.3335 11.5001V8.66675Z" fill="#71797E"/>
</g>
</svg>
