<svg width="40" height="46" viewBox="0 0 40 46" fill="none" xmlns="http://www.w3.org/2000/svg">
<g filter="url(#filter0_i_1824_93298)">
<path d="M0 23C0 9.2 6.2 3 20 3C33.8 3 40 9.2 40 23C40 36.8 33.8 43 20 43C6.2 43 0 36.8 0 23Z" fill="#0099FF"/>
</g>
<path d="M1 23C1 16.2273 2.52371 11.5405 5.53211 8.53211C8.5405 5.52371 13.2273 4 20 4C26.7727 4 31.4595 5.52371 34.4679 8.53211C37.4763 11.5405 39 16.2273 39 23C39 29.7727 37.4763 34.4595 34.4679 37.4679C31.4595 40.4763 26.7727 42 20 42C13.2273 42 8.5405 40.4763 5.53211 37.4679C2.52371 34.4595 1 29.7727 1 23Z" stroke="url(#paint0_linear_1824_93298)" stroke-width="2" style="mix-blend-mode:overlay"/>
<g filter="url(#filter1_ddii_1824_93298)">
<path d="M16 16C16 14.9391 16.4214 13.9217 17.1716 13.1716C17.9217 12.4214 18.9391 12 20 12C21.0609 12 22.0783 12.4214 22.8284 13.1716C23.5786 13.9217 24 14.9391 24 16V21.255C25.223 22.1066 26.1423 23.3262 26.6241 24.7365C27.1059 26.1467 27.125 27.6739 26.6788 29.0958C26.2325 30.5176 25.3441 31.76 24.1429 32.642C22.9416 33.524 21.4903 33.9996 20 33.9996C18.5097 33.9996 17.0584 33.524 15.8571 32.642C14.6559 31.76 13.7675 30.5176 13.3212 29.0958C12.875 27.6739 12.8941 26.1467 13.3759 24.7365C13.8577 23.3262 14.777 22.1066 16 21.255V16ZM17.144 22.895C16.2702 23.5031 15.6132 24.3742 15.2689 25.3816C14.9245 26.3889 14.9106 27.4799 15.2292 28.4957C15.5479 29.5115 16.1825 30.399 17.0405 31.0291C17.8986 31.6593 18.9354 31.9991 20 31.9991C21.0646 31.9991 22.1014 31.6593 22.9595 31.0291C23.8175 30.399 24.4521 29.5115 24.7708 28.4957C25.0894 27.4799 25.0755 26.3889 24.7311 25.3816C24.3868 24.3742 23.7298 23.5031 22.856 22.895L22 22.298V16C22 15.4696 21.7893 14.9609 21.4142 14.5858C21.0391 14.2107 20.5304 14 20 14C19.4696 14 18.9609 14.2107 18.5858 14.5858C18.2107 14.9609 18 15.4696 18 16V22.298L17.144 22.895ZM16 27H24C24 28.0609 23.5786 29.0783 22.8284 29.8284C22.0783 30.5786 21.0609 31 20 31C18.9391 31 17.9217 30.5786 17.1716 29.8284C16.4214 29.0783 16 28.0609 16 27Z" fill="white"/>
</g>
<defs>
<filter id="filter0_i_1824_93298" x="0" y="3" width="42" height="42" filterUnits="userSpaceOnUse" color-interpolation-filters="sRGB">
<feFlood flood-opacity="0" result="BackgroundImageFix"/>
<feBlend mode="normal" in="SourceGraphic" in2="BackgroundImageFix" result="shape"/>
<feColorMatrix in="SourceAlpha" type="matrix" values="0 0 0 0 0 0 0 0 0 0 0 0 0 0 0 0 0 0 127 0" result="hardAlpha"/>
<feOffset dx="2" dy="2"/>
<feGaussianBlur stdDeviation="2"/>
<feComposite in2="hardAlpha" operator="arithmetic" k2="-1" k3="1"/>
<feColorMatrix type="matrix" values="0 0 0 0 0.0666667 0 0 0 0 0.0980392 0 0 0 0 0.117647 0 0 0 0.1 0"/>
<feBlend mode="normal" in2="shape" result="effect1_innerShadow_1824_93298"/>
</filter>
<filter id="filter1_ddii_1824_93298" x="-3.14286" y="-0.142857" width="47.1429" height="47.1429" filterUnits="userSpaceOnUse" color-interpolation-filters="sRGB">
<feFlood flood-opacity="0" result="BackgroundImageFix"/>
<feColorMatrix in="SourceAlpha" type="matrix" values="0 0 0 0 0 0 0 0 0 0 0 0 0 0 0 0 0 0 127 0" result="hardAlpha"/>
<feOffset dx="2.57143" dy="2.57143"/>
<feGaussianBlur stdDeviation="4.71429"/>
<feComposite in2="hardAlpha" operator="out"/>
<feColorMatrix type="matrix" values="0 0 0 0 0.321569 0 0 0 0 0.435294 0 0 0 0 1 0 0 0 1 0"/>
<feBlend mode="normal" in2="BackgroundImageFix" result="effect1_dropShadow_1824_93298"/>
<feColorMatrix in="SourceAlpha" type="matrix" values="0 0 0 0 0 0 0 0 0 0 0 0 0 0 0 0 0 0 127 0" result="hardAlpha"/>
<feOffset dx="-2.57143" dy="-2.57143"/>
<feGaussianBlur stdDeviation="4.28571"/>
<feComposite in2="hardAlpha" operator="out"/>
<feColorMatrix type="matrix" values="0 0 0 0 1 0 0 0 0 1 0 0 0 0 1 0 0 0 0.4 0"/>
<feBlend mode="normal" in2="effect1_dropShadow_1824_93298" result="effect2_dropShadow_1824_93298"/>
<feBlend mode="normal" in="SourceGraphic" in2="effect2_dropShadow_1824_93298" result="shape"/>
<feColorMatrix in="SourceAlpha" type="matrix" values="0 0 0 0 0 0 0 0 0 0 0 0 0 0 0 0 0 0 127 0" result="hardAlpha"/>
<feOffset dy="-1.28571"/>
<feGaussianBlur stdDeviation="0.985714"/>
<feComposite in2="hardAlpha" operator="arithmetic" k2="-1" k3="1"/>
<feColorMatrix type="matrix" values="0 0 0 0 0 0 0 0 0 0.598039 0 0 0 0 1 0 0 0 0.4 0"/>
<feBlend mode="normal" in2="shape" result="effect3_innerShadow_1824_93298"/>
<feColorMatrix in="SourceAlpha" type="matrix" values="0 0 0 0 0 0 0 0 0 0 0 0 0 0 0 0 0 0 127 0" result="hardAlpha"/>
<feOffset dy="-0.428571"/>
<feGaussianBlur stdDeviation="0.557143"/>
<feComposite in2="hardAlpha" operator="arithmetic" k2="-1" k3="1"/>
<feColorMatrix type="matrix" values="0 0 0 0 1 0 0 0 0 1 0 0 0 0 1 0 0 0 0.6 0"/>
<feBlend mode="normal" in2="effect3_innerShadow_1824_93298" result="effect4_innerShadow_1824_93298"/>
</filter>
<linearGradient id="paint0_linear_1824_93298" x1="6.8" y1="13.8" x2="36.8" y2="50.6" gradientUnits="userSpaceOnUse">
<stop stop-color="#11191E" stop-opacity="0.4"/>
<stop offset="0.992881" stop-color="white"/>
</linearGradient>
</defs>
</svg>
