<svg width="24" height="24" viewBox="0 0 24 24" fill="none" xmlns="http://www.w3.org/2000/svg">
<g clip-path="url(#clip0_1599_19602)">
<path d="M12 21.5C6.75315 21.5 2.5 17.2469 2.5 12C2.5 6.75315 6.75315 2.5 12 2.5C17.2469 2.5 21.5 6.75315 21.5 12C21.5 17.2469 17.2469 21.5 12 21.5ZM16.579 16.8222C17.7258 15.7353 18.448 14.2755 18.6164 12.7045C18.7848 11.1335 18.3884 9.55385 17.4981 8.24855C16.6077 6.94326 15.2818 5.99761 13.7576 5.58103C12.2335 5.16444 10.6109 5.30414 9.1804 5.9751L10.1066 7.64235C10.8295 7.32817 11.6192 7.19882 12.4046 7.26595C13.1899 7.33309 13.9462 7.59459 14.6053 8.0269C15.2643 8.45921 15.8055 9.04874 16.1799 9.74233C16.5543 10.4359 16.7502 11.2118 16.75 12H13.9L16.579 16.8222ZM14.8196 18.0249L13.8933 16.3576C13.1705 16.6718 12.3808 16.8012 11.5954 16.734C10.8101 16.6669 10.0538 16.4054 9.39474 15.9731C8.73567 15.5408 8.19454 14.9513 7.82013 14.2577C7.44571 13.5641 7.24978 12.7882 7.25 12H10.1L7.421 7.1778C6.27424 8.26473 5.55197 9.72446 5.38356 11.2955C5.21515 12.8665 5.61162 14.4462 6.50194 15.7514C7.39225 17.0567 8.71824 18.0024 10.2424 18.419C11.7665 18.8356 13.3891 18.6959 14.8196 18.0249Z" fill="#71797E"/>
</g>
<defs>
<clipPath id="clip0_1599_19602">
<rect width="24" height="24" fill="white"/>
</clipPath>
</defs>
</svg>
