<svg width="16" height="16" viewBox="0 0 16 16" xmlns="http://www.w3.org/2000/svg">
<path d="M8.00036 14.3337C8.51978 14.3336 9.02325 14.1535 9.4256 13.8237C9.82796 13.494 10.1045 13.0348 10.2085 12.5239H5.79225C5.89621 13.0348 6.17276 13.494 6.57511 13.8237C6.97747 14.1535 7.48094 14.3336 8.00036 14.3337ZM12.5065 9.35724V6.19058C12.5065 3.70237 10.4774 1.66699 8.00036 1.66699C6.76067 1.66699 5.63453 2.17603 4.81753 2.99541L13.4607 11.6729C13.7059 11.4274 13.8581 11.087 13.8581 10.7149C13.8571 10.3553 13.7144 10.0107 13.4611 9.75634C13.2079 9.50197 12.8647 9.35849 12.5065 9.35724ZM2.89885 2.24887C2.81549 2.16552 2.70263 2.11873 2.58498 2.11873C2.46733 2.11873 2.35447 2.16552 2.27112 2.24887C2.18809 2.33255 2.14148 2.44584 2.14148 2.56395C2.14148 2.68206 2.18809 2.79535 2.27112 2.87903L3.84045 4.45445C3.6109 5.00423 3.49293 5.59446 3.49346 6.19058V9.35724C3.13508 9.3585 2.79177 9.50208 2.5385 9.75662C2.28524 10.0112 2.14261 10.356 2.14178 10.7157C2.14303 11.0752 2.28584 11.4196 2.53906 11.6738C2.79228 11.928 3.13536 12.0714 3.49346 12.0727H11.4284L13.1019 13.7518C13.1852 13.8349 13.2979 13.8815 13.4153 13.8815C13.5328 13.8815 13.6455 13.8349 13.7288 13.7518C13.8116 13.6681 13.8581 13.555 13.8581 13.4371C13.8581 13.3192 13.8116 13.2061 13.7288 13.1224L2.89885 2.24966V2.24887Z" fill="#11191E"/>
</svg>
