<?xml version="1.0" standalone="no"?><!DOCTYPE svg PUBLIC "-//W3C//DTD SVG 1.1//EN" "http://www.w3.org/Graphics/SVG/1.1/DTD/svg11.dtd"><svg t="1748248037567" class="icon" viewBox="0 0 1088 1024" version="1.1" xmlns="http://www.w3.org/2000/svg" p-id="5915" xmlns:xlink="http://www.w3.org/1999/xlink" width="212.5" height="200"><path d="M702.72 171.712l46.656-47.36A445.952 445.952 0 0 0 524.608 64a32 32 0 0 0 0 64c64.256 0 124.8 15.808 178.048 43.712z" p-id="5916"></path><path d="M702.72 171.712l46.656-47.36A445.952 445.952 0 0 0 524.608 64a32 32 0 0 0 0 64c64.256 0 124.8 15.808 178.048 43.712zM320.64 837.44a384 384 0 0 0 526.912-533.248l45.888-46.528A448 448 0 0 1 274.688 883.84l45.888-46.464z" p-id="5917"></path><path d="M320.64 837.44a384 384 0 0 0 526.912-533.248l45.888-46.528A448 448 0 0 1 274.688 883.84l45.888-46.464zM185.408 696l-47.68 48.32a35.2 35.2 0 0 1 47.68-48.32z" p-id="5918"></path><path d="M185.408 696l-47.68 48.32a35.2 35.2 0 0 1 47.68-48.32zM436.8 141.376a35.2 35.2 0 1 0-16.128-68.544 424.345 424.345 0 0 0-32.384 8.96A35.2 35.2 0 0 0 409.6 148.8a377.6 377.6 0 0 1 27.264-7.488z" p-id="5919"></path><path d="M436.8 141.376a35.2 35.2 0 1 0-16.128-68.544 424.345 424.345 0 0 0-32.384 8.96A35.2 35.2 0 0 0 409.6 148.8a377.6 377.6 0 0 1 27.264-7.488zM308.288 198.528a35.2 35.2 0 1 0-40.064-57.856c-18.432 12.736-35.84 26.816-52.16 42.112a35.2 35.2 0 1 0 48.128 51.328c13.76-12.928 28.544-24.768 44.096-35.584z" p-id="5920"></path><path d="M308.288 198.528a35.2 35.2 0 1 0-40.064-57.856c-18.432 12.736-35.84 26.816-52.16 42.112a35.2 35.2 0 1 0 48.128 51.328c13.76-12.928 28.544-24.768 44.096-35.584zM194.112 322.624a35.2 35.2 0 0 0-61.056-35.072 449.408 449.408 0 0 0-28.928 60.48 35.2 35.2 0 1 0 65.536 25.6 381.191 381.191 0 0 1 24.448-51.008z" p-id="5921"></path><path d="M194.112 322.624a35.2 35.2 0 0 0-61.056-35.072 449.408 449.408 0 0 0-28.928 60.48 35.2 35.2 0 1 0 65.536 25.6 381.191 381.191 0 0 1 24.448-51.008zM144.832 483.648a35.2 35.2 0 0 0-70.208-5.12 457.408 457.408 0 0 0 1.344 82.304 35.2 35.2 0 0 0 70.016-7.552 385.6 385.6 0 0 1-1.152-69.632z" p-id="5922"></path><path d="M144.832 483.648a35.2 35.2 0 0 0-70.208-5.12 457.408 457.408 0 0 0 1.344 82.304 35.2 35.2 0 0 0 70.016-7.552 385.6 385.6 0 0 1-1.152-69.632zM911.744 157.376a35.2 35.2 0 1 0-50.24-49.344L139.264 843.2a35.2 35.2 0 0 0 50.176 49.344L911.744 157.44z" p-id="5923"></path><path d="M911.744 157.376a35.2 35.2 0 1 0-50.24-49.344L139.264 843.2a35.2 35.2 0 0 0 50.176 49.344L911.744 157.44z" p-id="5924"></path></svg>