<svg width="24" height="24" viewBox="0 0 24 24" fill="none" xmlns="http://www.w3.org/2000/svg">
<g id="ICON/Form/Inbox">
<g id="Vector">
<path d="M3.00195 3.00293H20.9959V11H17.9969V6.01844H6L6.00098 17.9979L11 18V21H3L3.00195 3.00293Z" fill="#71797E"/>
<path d="M12.1758 17.4149L16.9852 21.8308C17.2347 22.0746 17.6756 22.0746 17.9501 21.7008C17.9833 21.6529 18.0007 21.5962 18 21.5383V19.0645L21.7047 19.0647C21.8669 19.0647 22 18.9347 22 18.7763V15.2905C22 15.128 21.8669 15.002 21.7047 15.002L18 15.0018V12.576C17.999 12.4621 17.9637 12.3509 17.8986 12.2564C17.8334 12.1619 17.7413 12.0882 17.6335 12.0445C17.5258 12.0008 17.4073 11.9889 17.2928 12.0105C17.1782 12.032 17.0727 12.086 16.9893 12.1657L12.1758 16.5902C12.1201 16.6442 12.0759 16.7084 12.0457 16.7792C12.0155 16.85 12 16.9259 12 17.0026C12 17.0792 12.0155 17.1551 12.0457 17.2259C12.0759 17.2967 12.1201 17.3609 12.1758 17.4149Z" fill="#71797E"/>
</g>
</g>
</svg>
