<svg width="18" height="13" viewBox="0 0 18 13" fill="none" xmlns="http://www.w3.org/2000/svg">
<path id="Vector" d="M17.8068 0.000492763L13.4774 0.524194C13.4461 0.5299 13.4169 0.543747 13.3928 0.564325C13.3686 0.584903 13.3504 0.611475 13.34 0.641335C13.3295 0.671195 13.3272 0.703275 13.3333 0.734305C13.3394 0.765335 13.3536 0.794207 13.3746 0.817978L14.6593 2.0953L9.75175 6.97467L7.54207 4.77767C7.47561 4.71663 7.38845 4.68273 7.29798 4.68273C7.2075 4.68273 7.12034 4.71663 7.05388 4.77767L0.0137426 11.7263C0.0052619 11.7465 0.000895609 11.7682 0.000895609 11.7902C0.000895609 11.8121 0.0052619 11.8338 0.0137426 11.854C0.00470674 11.8719 0 11.8915 0 11.9115C0 11.9315 0.00470674 11.9512 0.0137426 11.969L0.990112 12.9525C1.02334 12.9831 1.06692 13 1.11216 13C1.1574 13 1.20098 12.9831 1.23421 12.9525L7.29798 6.97467L9.50766 9.17166C9.53891 9.20492 9.5767 9.23144 9.61869 9.24957C9.66068 9.2677 9.70597 9.27706 9.75175 9.27706C9.79753 9.27706 9.84282 9.2677 9.88481 9.24957C9.9268 9.23144 9.96459 9.20492 9.99584 9.17166L15.8926 3.32153L17.1773 4.59885H17.3572C17.3821 4.60761 17.4093 4.60761 17.4342 4.59885C17.444 4.56984 17.444 4.53844 17.4342 4.50944L17.9995 0.192091C18.0014 0.166441 17.9978 0.140682 17.9888 0.116571C17.9797 0.0924597 17.9656 0.0705634 17.9473 0.0523764C17.929 0.0341895 17.907 0.0201399 17.8828 0.011186C17.8585 0.00223205 17.8326 -0.00141527 17.8068 0.000492763Z" fill="#00BA4A"/>
</svg>
