<svg width="40" height="40" viewBox="0 0 40 40" fill="none" xmlns="http://www.w3.org/2000/svg">
<g clip-path="url(#clip0_14110_124123)">
<mask id="mask0_14110_124123" style="mask-type:alpha" maskUnits="userSpaceOnUse" x="0" y="0" width="40" height="40">
<path d="M20 0.799805C26.7982 0.799805 31.5477 2.32891 34.6094 5.39062C37.6711 8.45234 39.2002 13.2018 39.2002 20C39.2002 26.7982 37.6711 31.5477 34.6094 34.6094C31.5477 37.6711 26.7982 39.2002 20 39.2002C13.2018 39.2002 8.45234 37.6711 5.39062 34.6094C2.32891 31.5477 0.799805 26.7982 0.799805 20C0.799805 13.2018 2.32891 8.45234 5.39062 5.39062C8.45234 2.32891 13.2018 0.799805 20 0.799805Z" fill="#0099FF"/>
<path d="M20 0.799805C26.7982 0.799805 31.5477 2.32891 34.6094 5.39062C37.6711 8.45234 39.2002 13.2018 39.2002 20C39.2002 26.7982 37.6711 31.5477 34.6094 34.6094C31.5477 37.6711 26.7982 39.2002 20 39.2002C13.2018 39.2002 8.45234 37.6711 5.39062 34.6094C2.32891 31.5477 0.799805 26.7982 0.799805 20C0.799805 13.2018 2.32891 8.45234 5.39062 5.39062C8.45234 2.32891 13.2018 0.799805 20 0.799805Z" stroke="url(#paint0_linear_14110_124123)" stroke-width="1.6"/>
</mask>
<g mask="url(#mask0_14110_124123)">
<g filter="url(#filter0_di_14110_124123)">
<path d="M3.31444 10.885C4.5941 7.36595 7.36607 4.59398 10.8851 3.31431C11.6635 3.03127 12.4678 2.8253 13.2864 2.69936L15.1542 2.41201C18.3658 1.91791 21.6341 1.91791 24.8458 2.41201L26.7135 2.69936C27.5321 2.8253 28.3364 3.03127 29.1148 3.31431C32.6338 4.59398 35.4058 7.36595 36.6855 10.885C36.9685 11.6634 37.1745 12.4677 37.3004 13.2863L37.6428 15.5114C38.0999 18.4829 38.0587 21.5098 37.5209 24.4678L37.3452 25.4341C37.1894 26.2912 36.9614 27.1336 36.6637 27.9523L36.4549 28.5266C35.3025 31.6957 33.0332 34.3353 30.0728 35.95C28.6646 36.7181 27.1336 37.2357 25.5481 37.4796L23.7155 37.7616C21.2529 38.1404 18.747 38.1404 16.2845 37.7616L14.4518 37.4796C12.8663 37.2357 11.3353 36.7181 9.92709 35.95C6.96674 34.3353 4.69743 31.6957 3.54504 28.5266L3.33621 27.9523C3.0385 27.1336 2.81051 26.2912 2.65468 25.4341L2.47899 24.4678C1.94117 21.5098 1.9 18.4829 2.35715 15.5114L2.69948 13.2863C2.82542 12.4677 3.03139 11.6634 3.31444 10.885Z" fill="#0099FF"/>
<path d="M15.2682 3.15283C18.2083 2.70052 21.197 2.67305 24.1432 3.06885L24.7321 3.15283L26.5992 3.44092C27.177 3.5298 27.7473 3.66104 28.3053 3.8335L28.858 4.01904C32.0653 5.18533 34.6134 7.66937 35.8639 10.8335L35.9811 11.1411C36.1808 11.6904 36.3397 12.2536 36.4567 12.8257L36.5592 13.3999L36.901 15.6255C37.3177 18.334 37.3092 21.0899 36.8756 23.7935L36.7828 24.3335L36.6071 25.3003C36.4958 25.9119 36.3463 26.5157 36.1588 27.1079L35.9586 27.6958L35.7496 28.27C34.7278 31.08 32.7779 33.45 30.2311 34.9937L29.7135 35.2915C28.548 35.9272 27.2938 36.382 25.9938 36.6401L25.4342 36.7388L23.6012 37.02C21.3634 37.3643 19.0887 37.3857 16.8463 37.0845L16.3981 37.02L14.566 36.7388C13.2539 36.5369 11.9807 36.1368 10.7906 35.5532L10.2858 35.2915C7.66104 33.8597 5.61056 31.5761 4.46643 28.8267L4.24963 28.27L4.04065 27.6958C3.82822 27.1116 3.65306 26.5147 3.51624 25.9087L3.39221 25.3003L3.21643 24.3335C2.72622 21.6372 2.66115 18.882 3.02112 16.1675L3.09827 15.6255L3.44104 13.3999C3.52991 12.8224 3.66125 12.2526 3.83362 11.6948L4.01917 11.1411C5.18546 7.93394 7.6696 5.38673 10.8336 4.13623L11.1412 4.01904C11.6905 3.81931 12.2537 3.66042 12.8258 3.54346L13.4 3.44092L15.2682 3.15283Z" stroke="url(#paint1_linear_14110_124123)" stroke-width="1.5" style="mix-blend-mode:overlay"/>
</g>
<g filter="url(#filter1_ddii_14110_124123)">
<path d="M29.1429 16.7414C28.1486 16.663 26.3123 15.4934 25.8527 15.1032C25.7766 15.0247 25.6995 15.0247 25.6234 15.0247C25.0878 15.0247 22.7146 14.9473 22.0268 15.1032C21.2607 15.259 21.7204 15.7267 21.8736 15.8052C21.8736 15.8052 24.475 15.961 25.241 16.0395C26.0059 16.1169 26.6948 16.663 26.4644 17.5219C26.2351 18.2239 25.4702 18.3013 25.4702 18.3013H22.1789C21.4911 18.3013 19.2712 18.4571 18.5062 18.6915C16.822 19.2376 15.9038 18.6915 15.9038 18.6915L9.47553 15.1032C9.09306 14.7914 9.47553 14.2453 9.47553 14.2453C9.47553 14.2453 11.6183 12.2168 12.154 11.5148C12.5365 10.9688 12.9961 11.4364 12.9961 11.4364C12.9961 11.4364 14.9857 12.6844 15.5985 13.0747C16.3634 13.5434 17.7413 12.9962 18.352 12.606C18.9648 12.2168 19.8069 11.7481 20.1893 11.5148C20.2665 11.4364 20.4197 11.4364 20.5719 11.4364L25.4702 12.061C25.6234 12.061 25.6995 12.1384 25.8527 12.2168C26.3123 12.6855 26.9241 13.2305 28.9907 14.4786C29.8318 15.0247 30.5207 15.259 30.6729 15.8052C30.8271 16.5071 30.1371 16.8189 29.1429 16.7414ZM24.1696 21.9255C24.1683 20.5486 25.2642 19.4312 26.6177 19.4293C27.2678 19.43 27.8911 19.6933 28.3504 20.1613C28.8097 20.6295 29.0674 21.2641 29.0668 21.9255C29.0674 22.5869 28.8097 23.2215 28.3504 23.6896C27.8911 24.1577 27.2678 24.421 26.6177 24.4216C25.2642 24.4198 24.1683 23.3024 24.1696 21.9255ZM14.6483 25.8256C14.6483 24.7497 15.5054 23.8766 16.5617 23.8766C17.6182 23.8766 18.4752 24.7486 18.4752 25.8266C18.4752 26.9036 17.6182 27.7778 16.5617 27.7778C16.3101 27.7776 16.061 27.727 15.8287 27.6289C15.5963 27.5307 15.3852 27.3869 15.2075 27.2057C15.0298 27.0245 14.889 26.8094 14.793 26.5728C14.697 26.3362 14.6479 26.0826 14.6483 25.8267V25.8256Z" fill="white"/>
<path d="M23.5787 25.6788C22.5224 25.6788 21.6653 26.552 21.6653 27.6278V27.6289C21.6649 27.8849 21.714 28.1384 21.81 28.375C21.906 28.6117 22.0468 28.8267 22.2245 29.0079C22.4022 29.1891 22.6133 29.3329 22.8457 29.4311C23.078 29.5292 23.3271 29.5798 23.5787 29.58C24.6352 29.58 25.4922 28.7058 25.4922 27.6289C25.4922 26.5508 24.6352 25.6788 23.5787 25.6788Z" fill="white"/>
</g>
</g>
</g>
<defs>
<filter id="filter0_di_14110_124123" x="0.0424805" y="1.0415" width="39.915" height="40.0044" filterUnits="userSpaceOnUse" color-interpolation-filters="sRGB">
<feFlood flood-opacity="0" result="BackgroundImageFix"/>
<feColorMatrix in="SourceAlpha" type="matrix" values="0 0 0 0 0 0 0 0 0 0 0 0 0 0 0 0 0 0 127 0" result="hardAlpha"/>
<feOffset dy="1"/>
<feGaussianBlur stdDeviation="1"/>
<feComposite in2="hardAlpha" operator="out"/>
<feColorMatrix type="matrix" values="0 0 0 0 0.0666667 0 0 0 0 0.0980392 0 0 0 0 0.117647 0 0 0 0.05 0"/>
<feBlend mode="normal" in2="BackgroundImageFix" result="effect1_dropShadow_14110_124123"/>
<feBlend mode="normal" in="SourceGraphic" in2="effect1_dropShadow_14110_124123" result="shape"/>
<feColorMatrix in="SourceAlpha" type="matrix" values="0 0 0 0 0 0 0 0 0 0 0 0 0 0 0 0 0 0 127 0" result="hardAlpha"/>
<feOffset dx="1.6" dy="1.6"/>
<feGaussianBlur stdDeviation="1.6"/>
<feComposite in2="hardAlpha" operator="arithmetic" k2="-1" k3="1"/>
<feColorMatrix type="matrix" values="0 0 0 0 0.0666667 0 0 0 0 0.0980392 0 0 0 0 0.117647 0 0 0 0.1 0"/>
<feBlend mode="normal" in2="shape" result="effect2_innerShadow_14110_124123"/>
</filter>
<filter id="filter1_ddii_14110_124123" x="-2.80948" y="-2.80936" width="46.4762" height="46.4764" filterUnits="userSpaceOnUse" color-interpolation-filters="sRGB">
<feFlood flood-opacity="0" result="BackgroundImageFix"/>
<feColorMatrix in="SourceAlpha" type="matrix" values="0 0 0 0 0 0 0 0 0 0 0 0 0 0 0 0 0 0 127 0" result="hardAlpha"/>
<feOffset dx="2.57143" dy="2.57143"/>
<feGaussianBlur stdDeviation="4.71429"/>
<feComposite in2="hardAlpha" operator="out"/>
<feColorMatrix type="matrix" values="0 0 0 0 0.321569 0 0 0 0 0.435294 0 0 0 0 1 0 0 0 1 0"/>
<feBlend mode="normal" in2="BackgroundImageFix" result="effect1_dropShadow_14110_124123"/>
<feColorMatrix in="SourceAlpha" type="matrix" values="0 0 0 0 0 0 0 0 0 0 0 0 0 0 0 0 0 0 127 0" result="hardAlpha"/>
<feOffset dx="-2.57143" dy="-2.57143"/>
<feGaussianBlur stdDeviation="4.28571"/>
<feComposite in2="hardAlpha" operator="out"/>
<feColorMatrix type="matrix" values="0 0 0 0 1 0 0 0 0 1 0 0 0 0 1 0 0 0 0.4 0"/>
<feBlend mode="normal" in2="effect1_dropShadow_14110_124123" result="effect2_dropShadow_14110_124123"/>
<feBlend mode="normal" in="SourceGraphic" in2="effect2_dropShadow_14110_124123" result="shape"/>
<feColorMatrix in="SourceAlpha" type="matrix" values="0 0 0 0 0 0 0 0 0 0 0 0 0 0 0 0 0 0 127 0" result="hardAlpha"/>
<feOffset dy="-1.28571"/>
<feGaussianBlur stdDeviation="0.985714"/>
<feComposite in2="hardAlpha" operator="arithmetic" k2="-1" k3="1"/>
<feColorMatrix type="matrix" values="0 0 0 0 0 0 0 0 0 0.598039 0 0 0 0 1 0 0 0 0.4 0"/>
<feBlend mode="normal" in2="shape" result="effect3_innerShadow_14110_124123"/>
<feColorMatrix in="SourceAlpha" type="matrix" values="0 0 0 0 0 0 0 0 0 0 0 0 0 0 0 0 0 0 127 0" result="hardAlpha"/>
<feOffset dy="-0.428571"/>
<feGaussianBlur stdDeviation="0.557143"/>
<feComposite in2="hardAlpha" operator="arithmetic" k2="-1" k3="1"/>
<feColorMatrix type="matrix" values="0 0 0 0 1 0 0 0 0 1 0 0 0 0 1 0 0 0 0.6 0"/>
<feBlend mode="normal" in2="effect3_innerShadow_14110_124123" result="effect4_innerShadow_14110_124123"/>
</filter>
<linearGradient id="paint0_linear_14110_124123" x1="6.8" y1="10.8" x2="36.8" y2="47.6" gradientUnits="userSpaceOnUse">
<stop stop-color="#11191E" stop-opacity="0.4"/>
<stop offset="1" stop-color="white"/>
</linearGradient>
<linearGradient id="paint1_linear_14110_124123" x1="7.89996" y1="11.5665" x2="35.4" y2="45.2998" gradientUnits="userSpaceOnUse">
<stop stop-color="#11191E" stop-opacity="0.4"/>
<stop offset="1" stop-color="white"/>
</linearGradient>
<clipPath id="clip0_14110_124123">
<rect width="40" height="40" fill="white"/>
</clipPath>
</defs>
</svg>
