<svg width="40" height="40" viewBox="0 0 40 40" fill="none" xmlns="http://www.w3.org/2000/svg">
<g clip-path="url(#clip0_14110_124101)">
<mask id="mask0_14110_124101" style="mask-type:alpha" maskUnits="userSpaceOnUse" x="0" y="0" width="40" height="40">
<path d="M20 0.799805C26.7982 0.799805 31.5477 2.32891 34.6094 5.39062C37.6711 8.45234 39.2002 13.2018 39.2002 20C39.2002 26.7982 37.6711 31.5477 34.6094 34.6094C31.5477 37.6711 26.7982 39.2002 20 39.2002C13.2018 39.2002 8.45234 37.6711 5.39062 34.6094C2.32891 31.5477 0.799805 26.7982 0.799805 20C0.799805 13.2018 2.32891 8.45234 5.39062 5.39062C8.45234 2.32891 13.2018 0.799805 20 0.799805Z" fill="#0099FF"/>
<path d="M20 0.799805C26.7982 0.799805 31.5477 2.32891 34.6094 5.39062C37.6711 8.45234 39.2002 13.2018 39.2002 20C39.2002 26.7982 37.6711 31.5477 34.6094 34.6094C31.5477 37.6711 26.7982 39.2002 20 39.2002C13.2018 39.2002 8.45234 37.6711 5.39062 34.6094C2.32891 31.5477 0.799805 26.7982 0.799805 20C0.799805 13.2018 2.32891 8.45234 5.39062 5.39062C8.45234 2.32891 13.2018 0.799805 20 0.799805Z" stroke="url(#paint0_linear_14110_124101)" stroke-width="1.6"/>
</mask>
<g mask="url(#mask0_14110_124101)">
<g filter="url(#filter0_di_14110_124101)">
<path d="M3.31444 10.885C4.5941 7.36595 7.36607 4.59398 10.8851 3.31431C11.6635 3.03127 12.4678 2.8253 13.2864 2.69936L15.1542 2.41201C18.3658 1.91791 21.6341 1.91791 24.8458 2.41201L26.7135 2.69936C27.5321 2.8253 28.3364 3.03127 29.1148 3.31431C32.6338 4.59398 35.4058 7.36595 36.6855 10.885C36.9685 11.6634 37.1745 12.4677 37.3004 13.2863L37.6428 15.5114C38.0999 18.4829 38.0587 21.5098 37.5209 24.4678L37.3452 25.4341C37.1894 26.2912 36.9614 27.1336 36.6637 27.9523L36.4549 28.5266C35.3025 31.6957 33.0332 34.3353 30.0728 35.95C28.6646 36.7181 27.1336 37.2357 25.5481 37.4796L23.7155 37.7616C21.2529 38.1404 18.747 38.1404 16.2845 37.7616L14.4518 37.4796C12.8663 37.2357 11.3353 36.7181 9.92709 35.95C6.96674 34.3353 4.69743 31.6957 3.54504 28.5266L3.33621 27.9523C3.0385 27.1336 2.81051 26.2912 2.65468 25.4341L2.47899 24.4678C1.94117 21.5098 1.9 18.4829 2.35715 15.5114L2.69948 13.2863C2.82542 12.4677 3.03139 11.6634 3.31444 10.885Z" fill="#0099FF"/>
<path d="M15.2682 3.15283C18.2083 2.70052 21.197 2.67305 24.1432 3.06885L24.7321 3.15283L26.5992 3.44092C27.177 3.5298 27.7473 3.66104 28.3053 3.8335L28.858 4.01904C32.0653 5.18533 34.6134 7.66937 35.8639 10.8335L35.9811 11.1411C36.1808 11.6904 36.3397 12.2536 36.4567 12.8257L36.5592 13.3999L36.901 15.6255C37.3177 18.334 37.3092 21.0899 36.8756 23.7935L36.7828 24.3335L36.6071 25.3003C36.4958 25.9119 36.3463 26.5157 36.1588 27.1079L35.9586 27.6958L35.7496 28.27C34.7278 31.08 32.7779 33.45 30.2311 34.9937L29.7135 35.2915C28.548 35.9272 27.2938 36.382 25.9938 36.6401L25.4342 36.7388L23.6012 37.02C21.3634 37.3643 19.0887 37.3857 16.8463 37.0845L16.3981 37.02L14.566 36.7388C13.2539 36.5369 11.9807 36.1368 10.7906 35.5532L10.2858 35.2915C7.66104 33.8597 5.61056 31.5761 4.46643 28.8267L4.24963 28.27L4.04065 27.6958C3.82822 27.1116 3.65306 26.5147 3.51624 25.9087L3.39221 25.3003L3.21643 24.3335C2.72622 21.6372 2.66115 18.882 3.02112 16.1675L3.09827 15.6255L3.44104 13.3999C3.52991 12.8224 3.66125 12.2526 3.83362 11.6948L4.01917 11.1411C5.18546 7.93394 7.6696 5.38673 10.8336 4.13623L11.1412 4.01904C11.6905 3.81931 12.2537 3.66042 12.8258 3.54346L13.4 3.44092L15.2682 3.15283Z" stroke="url(#paint1_linear_14110_124101)" stroke-width="1.5" style="mix-blend-mode:overlay"/>
</g>
<g filter="url(#filter1_ddii_14110_124101)">
<path d="M21.4422 15.335C22.7417 15.335 23.8031 16.3267 23.8031 17.5371V20.9998C23.8031 21.8489 23.2781 22.5943 22.5132 22.9605V29.7223H20.7616L20.0584 25.438L19.3568 29.7223H17.448V22.954C16.6913 22.5862 16.1711 21.8473 16.1711 20.9998V17.5371C16.1711 16.3251 17.2341 15.335 18.532 15.335H21.4422ZM27.551 15.7142C28.7436 15.7142 29.7223 16.6248 29.7223 17.7364V20.9237C29.7223 21.7014 29.2459 22.3804 28.5507 22.7174V28.9364H26.7975L26.1526 24.9989L25.5077 28.9364H23.897V23.3202C24.5582 22.7207 24.9487 21.8878 24.9487 21.0047V17.5403C24.9488 16.9061 24.7511 16.2875 24.3832 15.7709C24.5473 15.7329 24.7153 15.7139 24.8838 15.7142H27.551ZM15.1195 15.7109C15.288 15.7109 15.4533 15.7304 15.6186 15.7676C15.2605 16.2781 15.0531 16.8857 15.0531 17.5371V20.9998C15.0531 21.8732 15.4306 22.7061 16.1014 23.3186H16.1031V28.9315H14.4924L13.8475 24.994L13.2026 28.9315H11.4526V22.7093C10.7315 22.3642 10.2778 21.6723 10.2778 20.9172V17.7332C10.2778 16.6232 11.2533 15.7109 12.4475 15.7109H15.1195ZM13.8426 11.0637C15.1049 11.0637 16.1306 12.0165 16.1306 13.1929C16.1306 14.3693 15.1098 15.3237 13.8426 15.3237C12.5788 15.3237 11.5595 14.3709 11.5595 13.1929C11.5579 12.0149 12.5804 11.0637 13.8443 11.0637H13.8426ZM26.1575 11.0637C27.4197 11.0637 28.4422 12.0149 28.4422 13.1929C28.4422 14.3709 27.4197 15.3237 26.1575 15.3237C24.8936 15.3237 23.8727 14.3676 23.8727 13.1929C23.8727 12.0165 24.8936 11.0637 26.1575 11.0637ZM20.0568 10.2778C21.4308 10.2778 22.544 11.3149 22.544 12.5982C22.544 13.8783 21.4308 14.917 20.0568 14.917C18.6811 14.917 17.5679 13.8799 17.5679 12.5982C17.5663 11.3116 18.6795 10.2778 20.0551 10.2778H20.0568Z" fill="white"/>
</g>
</g>
</g>
<defs>
<filter id="filter0_di_14110_124101" x="0.0424805" y="1.0415" width="39.915" height="40.0044" filterUnits="userSpaceOnUse" color-interpolation-filters="sRGB">
<feFlood flood-opacity="0" result="BackgroundImageFix"/>
<feColorMatrix in="SourceAlpha" type="matrix" values="0 0 0 0 0 0 0 0 0 0 0 0 0 0 0 0 0 0 127 0" result="hardAlpha"/>
<feOffset dy="1"/>
<feGaussianBlur stdDeviation="1"/>
<feComposite in2="hardAlpha" operator="out"/>
<feColorMatrix type="matrix" values="0 0 0 0 0.0666667 0 0 0 0 0.0980392 0 0 0 0 0.117647 0 0 0 0.05 0"/>
<feBlend mode="normal" in2="BackgroundImageFix" result="effect1_dropShadow_14110_124101"/>
<feBlend mode="normal" in="SourceGraphic" in2="effect1_dropShadow_14110_124101" result="shape"/>
<feColorMatrix in="SourceAlpha" type="matrix" values="0 0 0 0 0 0 0 0 0 0 0 0 0 0 0 0 0 0 127 0" result="hardAlpha"/>
<feOffset dx="1.6" dy="1.6"/>
<feGaussianBlur stdDeviation="1.6"/>
<feComposite in2="hardAlpha" operator="arithmetic" k2="-1" k3="1"/>
<feColorMatrix type="matrix" values="0 0 0 0 0.0666667 0 0 0 0 0.0980392 0 0 0 0 0.117647 0 0 0 0.1 0"/>
<feBlend mode="normal" in2="shape" result="effect2_innerShadow_14110_124101"/>
</filter>
<filter id="filter1_ddii_14110_124101" x="-2.80948" y="-2.80936" width="46.4762" height="46.4764" filterUnits="userSpaceOnUse" color-interpolation-filters="sRGB">
<feFlood flood-opacity="0" result="BackgroundImageFix"/>
<feColorMatrix in="SourceAlpha" type="matrix" values="0 0 0 0 0 0 0 0 0 0 0 0 0 0 0 0 0 0 127 0" result="hardAlpha"/>
<feOffset dx="2.57143" dy="2.57143"/>
<feGaussianBlur stdDeviation="4.71429"/>
<feComposite in2="hardAlpha" operator="out"/>
<feColorMatrix type="matrix" values="0 0 0 0 0.321569 0 0 0 0 0.435294 0 0 0 0 1 0 0 0 1 0"/>
<feBlend mode="normal" in2="BackgroundImageFix" result="effect1_dropShadow_14110_124101"/>
<feColorMatrix in="SourceAlpha" type="matrix" values="0 0 0 0 0 0 0 0 0 0 0 0 0 0 0 0 0 0 127 0" result="hardAlpha"/>
<feOffset dx="-2.57143" dy="-2.57143"/>
<feGaussianBlur stdDeviation="4.28571"/>
<feComposite in2="hardAlpha" operator="out"/>
<feColorMatrix type="matrix" values="0 0 0 0 1 0 0 0 0 1 0 0 0 0 1 0 0 0 0.4 0"/>
<feBlend mode="normal" in2="effect1_dropShadow_14110_124101" result="effect2_dropShadow_14110_124101"/>
<feBlend mode="normal" in="SourceGraphic" in2="effect2_dropShadow_14110_124101" result="shape"/>
<feColorMatrix in="SourceAlpha" type="matrix" values="0 0 0 0 0 0 0 0 0 0 0 0 0 0 0 0 0 0 127 0" result="hardAlpha"/>
<feOffset dy="-1.28571"/>
<feGaussianBlur stdDeviation="0.985714"/>
<feComposite in2="hardAlpha" operator="arithmetic" k2="-1" k3="1"/>
<feColorMatrix type="matrix" values="0 0 0 0 0 0 0 0 0 0.598039 0 0 0 0 1 0 0 0 0.4 0"/>
<feBlend mode="normal" in2="shape" result="effect3_innerShadow_14110_124101"/>
<feColorMatrix in="SourceAlpha" type="matrix" values="0 0 0 0 0 0 0 0 0 0 0 0 0 0 0 0 0 0 127 0" result="hardAlpha"/>
<feOffset dy="-0.428571"/>
<feGaussianBlur stdDeviation="0.557143"/>
<feComposite in2="hardAlpha" operator="arithmetic" k2="-1" k3="1"/>
<feColorMatrix type="matrix" values="0 0 0 0 1 0 0 0 0 1 0 0 0 0 1 0 0 0 0.6 0"/>
<feBlend mode="normal" in2="effect3_innerShadow_14110_124101" result="effect4_innerShadow_14110_124101"/>
</filter>
<linearGradient id="paint0_linear_14110_124101" x1="6.8" y1="10.8" x2="36.8" y2="47.6" gradientUnits="userSpaceOnUse">
<stop stop-color="#11191E" stop-opacity="0.4"/>
<stop offset="1" stop-color="white"/>
</linearGradient>
<linearGradient id="paint1_linear_14110_124101" x1="7.89996" y1="11.5665" x2="35.4" y2="45.2998" gradientUnits="userSpaceOnUse">
<stop stop-color="#11191E" stop-opacity="0.4"/>
<stop offset="1" stop-color="white"/>
</linearGradient>
<clipPath id="clip0_14110_124101">
<rect width="40" height="40" fill="white"/>
</clipPath>
</defs>
</svg>
