<svg width="16" height="16" viewBox="0 0 16 16" fill="none" xmlns="http://www.w3.org/2000/svg">
<path d="M5.73333 4.94444C5.73333 4.51398 6.15585 4.15755 6.87552 3.9691C6.94724 3.42326 7.42448 3 8 3C8.57552 3 9.05276 3.42326 9.12448 3.9691C9.84415 4.15755 10.2667 4.51398 10.2667 4.94444C10.2667 5.01812 10.2368 5.08877 10.1837 5.14086C10.1305 5.19296 10.0585 5.22222 9.98333 5.22222H6.01667C5.94152 5.22222 5.86946 5.19296 5.81632 5.14086C5.76318 5.08877 5.73333 5.01812 5.73333 4.94444ZM12.25 4.73611V12.375C12.2498 12.5407 12.1826 12.6996 12.0631 12.8167C11.9436 12.9339 11.7815 12.9998 11.6125 13H4.3875C4.21848 12.9998 4.05644 12.9339 3.93693 12.8167C3.81741 12.6996 3.75019 12.5407 3.75 12.375V4.73611C3.75019 4.57041 3.81741 4.41154 3.93693 4.29437C4.05644 4.1772 4.21848 4.1113 4.3875 4.11111H5.49533C5.21722 4.42691 5.16667 4.75104 5.16667 4.94444C5.16667 5.16546 5.25622 5.37742 5.41563 5.5337C5.57503 5.68998 5.79123 5.77778 6.01667 5.77778H9.98333C10.2088 5.77778 10.425 5.68998 10.5844 5.5337C10.7438 5.37742 10.8333 5.16546 10.8333 4.94444C10.8333 4.75104 10.7828 4.42691 10.5047 4.11111H11.6125C11.7815 4.1113 11.9436 4.1772 12.0631 4.29437C12.1826 4.41154 12.2498 4.57041 12.25 4.73611ZM7.05122 10.3591C7.02491 10.3333 6.99367 10.3128 6.95929 10.2989C6.92491 10.2849 6.88806 10.2777 6.85085 10.2777C6.81364 10.2777 6.77679 10.2849 6.74241 10.2989C6.70803 10.3128 6.67679 10.3333 6.65048 10.3591L6.00085 10.9961L5.91789 10.9147C5.86475 10.8626 5.79267 10.8333 5.71752 10.8333C5.64236 10.8333 5.57029 10.8626 5.51715 10.9147C5.46401 10.9668 5.43415 11.0374 5.43415 11.1111C5.43415 11.1848 5.46401 11.2555 5.51715 11.3076L5.80048 11.5853C5.82679 11.6111 5.85803 11.6316 5.89241 11.6456C5.92679 11.6595 5.96364 11.6667 6.00085 11.6667C6.03806 11.6667 6.07491 11.6595 6.10929 11.6456C6.14367 11.6316 6.17491 11.6111 6.20122 11.5853L7.05122 10.752C7.07754 10.7262 7.09841 10.6956 7.11266 10.6619C7.1269 10.6282 7.13423 10.592 7.13423 10.5556C7.13423 10.5191 7.1269 10.4829 7.11266 10.4492C7.09841 10.4155 7.07754 10.3849 7.05122 10.3591ZM7.05122 8.69245C7.02491 8.66665 6.99367 8.64618 6.95929 8.63222C6.92491 8.61825 6.88806 8.61107 6.85085 8.61107C6.81364 8.61107 6.77679 8.61825 6.74241 8.63222C6.70803 8.64618 6.67679 8.66665 6.65048 8.69245L6.00085 9.32943L5.91789 9.248C5.86475 9.1959 5.79267 9.16663 5.71752 9.16663C5.64236 9.16663 5.57029 9.1959 5.51715 9.248C5.46401 9.3001 5.43415 9.37076 5.43415 9.44444C5.43415 9.51812 5.46401 9.58879 5.51715 9.64088L5.80048 9.91866C5.82679 9.94446 5.85803 9.96493 5.89241 9.97889C5.92679 9.99286 5.96364 10 6.00085 10C6.03806 10 6.07491 9.99286 6.10929 9.97889C6.14367 9.96493 6.17491 9.94446 6.20122 9.91866L7.05122 9.08533C7.07754 9.05953 7.09841 9.02891 7.11266 8.9952C7.1269 8.9615 7.13423 8.92537 7.13423 8.88889C7.13423 8.8524 7.1269 8.81628 7.11266 8.78257C7.09841 8.74887 7.07754 8.71824 7.05122 8.69245ZM7.05122 7.02578C7.02491 6.99998 6.99367 6.97951 6.95929 6.96555C6.92491 6.95159 6.88806 6.9444 6.85085 6.9444C6.81364 6.9444 6.77679 6.95159 6.74241 6.96555C6.70803 6.97951 6.67679 6.99998 6.65048 7.02578L6.00085 7.66276L5.91789 7.58134C5.89157 7.55554 5.86034 7.53508 5.82596 7.52112C5.79158 7.50715 5.75473 7.49997 5.71752 7.49997C5.6803 7.49997 5.64346 7.50715 5.60908 7.52112C5.5747 7.53508 5.54346 7.55554 5.51715 7.58134C5.49083 7.60713 5.46996 7.63776 5.45572 7.67146C5.44148 7.70517 5.43415 7.7413 5.43415 7.77778C5.43415 7.81426 5.44148 7.85039 5.45572 7.88409C5.46996 7.9178 5.49083 7.94842 5.51715 7.97422L5.80048 8.252C5.82679 8.2778 5.85803 8.29826 5.89241 8.31223C5.92679 8.32619 5.96364 8.33338 6.00085 8.33338C6.03806 8.33338 6.07491 8.32619 6.10929 8.31223C6.14367 8.29826 6.17491 8.2778 6.20122 8.252L7.05122 7.41866C7.07754 7.39287 7.09841 7.36224 7.11266 7.32854C7.1269 7.29483 7.13423 7.25871 7.13423 7.22222C7.13423 7.18574 7.1269 7.14961 7.11266 7.11591C7.09841 7.0822 7.07754 7.05158 7.05122 7.02578ZM10.5342 11.1111C10.5342 11.0374 10.5043 10.9668 10.4512 10.9147C10.3981 10.8626 10.326 10.8333 10.2509 10.8333H7.98418C7.90904 10.8333 7.83697 10.8626 7.78384 10.9147C7.7307 10.9668 7.70085 11.0374 7.70085 11.1111C7.70085 11.1848 7.7307 11.2554 7.78384 11.3075C7.83697 11.3596 7.90904 11.3889 7.98418 11.3889H10.2509C10.326 11.3889 10.3981 11.3596 10.4512 11.3075C10.5043 11.2554 10.5342 11.1848 10.5342 11.1111ZM10.5342 9.44444C10.5342 9.37077 10.5043 9.30012 10.4512 9.24803C10.3981 9.19593 10.326 9.16667 10.2509 9.16667H7.98418C7.90904 9.16667 7.83697 9.19593 7.78384 9.24803C7.7307 9.30012 7.70085 9.37077 7.70085 9.44444C7.70085 9.51812 7.7307 9.58877 7.78384 9.64086C7.83697 9.69296 7.90904 9.72222 7.98418 9.72222H10.2509C10.326 9.72222 10.3981 9.69296 10.4512 9.64086C10.5043 9.58877 10.5342 9.51812 10.5342 9.44444ZM10.5342 7.77778C10.5342 7.70411 10.5043 7.63345 10.4512 7.58136C10.3981 7.52927 10.326 7.5 10.2509 7.5H7.98418C7.90904 7.5 7.83697 7.52927 7.78384 7.58136C7.7307 7.63345 7.70085 7.70411 7.70085 7.77778C7.70085 7.85145 7.7307 7.9221 7.78384 7.9742C7.83697 8.02629 7.90904 8.05555 7.98418 8.05555H10.2509C10.326 8.05555 10.3981 8.02629 10.4512 7.9742C10.5043 7.9221 10.5342 7.85145 10.5342 7.77778Z" fill="#71797E"/>
</svg>
