<svg width="16" height="16" viewBox="0 0 16 16" fill="none" xmlns="http://www.w3.org/2000/svg">
<path d="M11.0632 3C11.6246 3.00023 12.0842 3.46567 12.1179 4.03418V8.10645L11.9216 8.43555C11.5416 8.20667 11.107 8.08636 10.6648 8.08691C9.30446 8.08696 8.2019 9.20369 8.2019 10.5811C8.20191 11.4774 8.66871 12.2635 9.36987 12.7031L9.19214 13H4.68042C4.11885 13 3.62478 12.6116 3.62476 12.0342V3.96582C3.62477 3.2904 4.11884 3 4.68042 3H11.0632ZM10.6648 8.86426C11.6092 8.86426 12.3748 9.64041 12.3748 10.5967C12.3747 11.0286 12.2126 11.4192 11.9539 11.7227L12.2498 12.0215C12.4168 12.1906 12.4168 12.4647 12.2498 12.6338C12.0827 12.8029 11.8123 12.8029 11.6453 12.6338L11.238 12.2217C11.0576 12.2868 10.8669 12.3281 10.6648 12.3281C9.72053 12.3281 8.95506 11.5527 8.95483 10.5967C8.95483 9.64046 9.72036 8.86427 10.6648 8.86426ZM5.36401 9.82031C5.08277 9.82034 4.85331 10.0522 4.85327 10.3369C4.85327 10.6218 5.08279 10.8545 5.36401 10.8545H6.59741C6.87851 10.8543 7.10812 10.6216 7.10815 10.3369C7.10812 10.0523 6.8785 9.82052 6.59741 9.82031H5.36401ZM5.39819 7.47852C5.11702 7.47852 4.88759 7.71039 4.88745 7.99512C4.88745 8.27989 5.11694 8.5127 5.39819 8.5127H7.6521C7.93335 8.5127 8.16281 8.27992 8.16284 7.99512C8.16271 7.71039 7.93327 7.47852 7.6521 7.47852H5.39819ZM5.4314 5.06836C5.15037 5.06843 4.92095 5.30036 4.92065 5.58496C4.92065 5.86969 5.15021 6.10246 5.4314 6.10254H10.2439C10.5252 6.10253 10.7546 5.86973 10.7546 5.58496C10.7544 5.30032 10.525 5.06837 10.2439 5.06836H5.4314Z" fill="#71797E"/>
</svg>
