<svg width="12" height="12" viewBox="0 0 12 12" fill="none" xmlns="http://www.w3.org/2000/svg">
<path d="M5.85097 3.16393C5.25856 3.16722 4.6804 3.34592 4.18943 3.67749C3.69847 4.00906 3.3167 4.47863 3.09229 5.02697C2.86789 5.57531 2.81091 6.17784 2.92854 6.75853C3.04617 7.33923 3.33314 7.87206 3.75324 8.28982C4.17334 8.70757 4.70775 8.99151 5.28903 9.10583C5.87032 9.22014 6.47243 9.1597 7.01941 8.93213C7.56639 8.70456 8.03371 8.32006 8.36242 7.82714C8.69113 7.33422 8.86649 6.75497 8.86638 6.16248C8.87398 5.76371 8.80039 5.36755 8.65006 4.99813L7.55479 6.08759V6.15238C7.56573 6.4907 7.47599 6.82466 7.29695 7.11192C7.1179 7.39917 6.85761 7.6268 6.54906 7.76594C6.24052 7.90508 5.89761 7.94947 5.56382 7.89348C5.23002 7.83749 4.92036 7.68365 4.67408 7.45145C4.42781 7.21925 4.25601 6.91915 4.18046 6.58919C4.10491 6.25923 4.12902 5.91426 4.24973 5.59802C4.37043 5.28178 4.5823 5.00849 4.85848 4.81281C5.13466 4.61714 5.46271 4.50787 5.80105 4.49886H5.83076L6.95218 3.39395C6.60239 3.25377 6.22836 3.18408 5.85156 3.18889L5.85097 3.16393ZM11.4248 2.70389L10.0579 4.05844H8.47415L8.22812 4.30867L7.27726 5.24776L6.68891 5.83261L6.18615 6.33247C6.15159 6.37076 6.1087 6.40059 6.06078 6.41965C6.01287 6.43872 5.96121 6.44651 5.9098 6.44243C5.85872 6.4434 5.80804 6.43328 5.76125 6.41276C5.71446 6.39224 5.67269 6.3618 5.63881 6.32355C5.56739 6.25191 5.52728 6.15488 5.52728 6.05371C5.52728 5.95255 5.56739 5.85551 5.63881 5.78387L6.70852 4.71402L7.6683 3.76899L7.91968 3.51936V1.9544L8.41235 1.49912L9.30675 0.599853L9.34716 0.564785C9.36057 0.563002 9.37416 0.563002 9.38757 0.564785H9.42739L9.51772 0.5H9.70374L9.7489 0.524963H9.80833L9.83329 0.554681C9.83875 0.568321 9.84753 0.580377 9.85884 0.589749V0.724669L9.88856 1.99422H9.91411L11.1704 2.02394C11.2339 2.02524 11.2957 2.0444 11.3487 2.07922C11.3685 2.08828 11.3858 2.10194 11.3992 2.11904C11.4235 2.14159 11.4452 2.1667 11.464 2.19393C11.4794 2.22201 11.4896 2.2526 11.4943 2.28427C11.5046 2.34324 11.5009 2.40378 11.4836 2.46106C11.4662 2.51834 11.4357 2.57077 11.3945 2.61414L11.4248 2.70389ZM10.6255 4.62308C10.4739 4.77177 10.2697 4.85446 10.0573 4.8531H9.44819C9.71204 5.56477 9.75897 6.33871 9.58303 7.07705C9.40709 7.81539 9.0162 8.48498 8.45977 9.00114C7.90335 9.5173 7.20638 9.85686 6.457 9.97688C5.70763 10.0969 4.93949 9.99198 4.24973 9.6754C3.55998 9.35881 2.97957 8.84479 2.5819 8.19831C2.18424 7.55183 1.98717 6.80194 2.01563 6.04346C2.04409 5.28497 2.29679 4.55196 2.74178 3.93711C3.18677 3.32225 3.80406 2.85317 4.5156 2.58918C4.94206 2.43205 5.39293 2.35157 5.8474 2.35144C6.28576 2.34989 6.72107 2.42429 7.13403 2.57135V1.9544C7.13532 1.74194 7.22081 1.53867 7.37175 1.38916L7.62313 1.13953C4.82998 0.170724 1.77475 1.63761 0.800114 4.41625C-0.174518 7.19489 1.30288 10.2327 4.0996 11.2015C6.89632 12.1703 9.94858 10.7034 10.9226 7.92476C11.3288 6.76755 11.3208 5.50523 10.9 4.35325L10.6255 4.62308Z" fill="#71797E"/>
</svg>
