<svg width="14" height="12" viewBox="0 0 14 12" fill="none" xmlns="http://www.w3.org/2000/svg">
<path d="M5.24158 0C6.84969 0 8.15796 1.38857 8.15796 3.09497C8.15881 3.56339 8.05848 4.02587 7.8646 4.44734C7.67072 4.86881 7.38837 5.23821 7.03895 5.52754L6.94302 5.60743L7.05619 5.65509C7.76149 5.95305 8.39205 6.41862 8.89877 7.01554C8.25748 7.26926 7.76317 7.69749 7.38659 8.21143C6.62953 9.24411 6.36547 10.6481 6.36547 11.6602C6.36547 11.7775 6.3814 11.8913 6.41067 11.9997H0.760981C0.647303 11.9992 0.538437 11.9512 0.458267 11.8663C0.378097 11.7813 0.333171 11.6663 0.333344 11.5464V10.4901C0.333344 8.35063 1.54764 6.45257 3.42664 5.65543L3.53981 5.60777L3.4442 5.52789C3.0947 5.23857 2.81222 4.8692 2.61818 4.44774C2.42414 4.02629 2.32361 3.5638 2.32421 3.09531C2.32421 1.38857 3.63314 0 5.24125 0H5.24158ZM9.5586 11.4456C9.5586 11.6434 9.60348 11.8317 9.68412 12H8.90007C9.13974 11.747 9.34494 11.5402 9.5586 11.4456ZM10.4835 5.86526C10.5975 5.81763 10.7221 5.80539 10.8425 5.83C10.963 5.8546 11.0742 5.91502 11.1631 6.00411L13.4838 8.36777C13.7277 8.61531 13.7277 9.01509 13.4838 9.25817L11.1628 11.6218C11.0739 11.7109 10.9627 11.7714 10.8423 11.7961C10.7218 11.8207 10.5972 11.8086 10.4831 11.761C10.2522 11.6609 10.0988 11.4353 10.0988 11.1789V10.3663C9.52152 10.4966 9.13681 10.8919 8.57292 11.4699L8.23081 11.8128C8.11258 11.933 7.95472 12.0001 7.79049 12C7.70919 12 7.62789 11.9825 7.55114 11.952C7.32025 11.8522 7.17066 11.6263 7.17066 11.3698C7.17066 9.96651 7.79504 7.61589 10.0988 7.4856V6.45154C10.0988 6.19543 10.2526 5.96503 10.4835 5.86526Z" fill="#0099FF"/>
</svg>
