<svg width="40" height="40" viewBox="0 0 40 40" fill="none" xmlns="http://www.w3.org/2000/svg">
<g clip-path="url(#clip0_14621_64130)">
<mask id="mask0_14621_64130" style="mask-type:alpha" maskUnits="userSpaceOnUse" x="0" y="0" width="40" height="40">
<path d="M20 0.799805C26.7982 0.799805 31.5477 2.32891 34.6094 5.39062C37.6711 8.45234 39.2002 13.2018 39.2002 20C39.2002 26.7982 37.6711 31.5477 34.6094 34.6094C31.5477 37.6711 26.7982 39.2002 20 39.2002C13.2018 39.2002 8.45234 37.6711 5.39062 34.6094C2.32891 31.5477 0.799805 26.7982 0.799805 20C0.799805 13.2018 2.32891 8.45234 5.39062 5.39062C8.45234 2.32891 13.2018 0.799805 20 0.799805Z" fill="#0099FF"/>
<path d="M20 0.799805C26.7982 0.799805 31.5477 2.32891 34.6094 5.39062C37.6711 8.45234 39.2002 13.2018 39.2002 20C39.2002 26.7982 37.6711 31.5477 34.6094 34.6094C31.5477 37.6711 26.7982 39.2002 20 39.2002C13.2018 39.2002 8.45234 37.6711 5.39062 34.6094C2.32891 31.5477 0.799805 26.7982 0.799805 20C0.799805 13.2018 2.32891 8.45234 5.39062 5.39062C8.45234 2.32891 13.2018 0.799805 20 0.799805Z" stroke="url(#paint0_linear_14621_64130)" stroke-width="1.6"/>
</mask>
<g mask="url(#mask0_14621_64130)">
<g filter="url(#filter0_di_14621_64130)">
<path d="M3.31444 10.8845C4.5941 7.36546 7.36607 4.59349 10.8851 3.31383V3.31383C11.6635 3.03078 12.4678 2.82481 13.2864 2.69887L15.1541 2.41152C18.3658 1.91742 21.6341 1.91743 24.8458 2.41152L26.7135 2.69887C27.5321 2.82481 28.3364 3.03078 29.1148 3.31383V3.31383C32.6338 4.59349 35.4058 7.36546 36.6855 10.8845V10.8845C36.9685 11.6629 37.1745 12.4672 37.3004 13.2858L37.6428 15.5109C38.0999 18.4824 38.0587 21.5094 37.5209 24.4673L37.3452 25.4336C37.1894 26.2907 36.9614 27.1331 36.6637 27.9518L36.4549 28.5261C35.3025 31.6952 33.0332 34.3348 30.0728 35.9495V35.9495C28.6646 36.7176 27.1336 37.2352 25.5481 37.4791L23.7155 37.7611C21.2529 38.1399 18.747 38.1399 16.2845 37.7611L14.4518 37.4791C12.8663 37.2352 11.3353 36.7176 9.92709 35.9495V35.9495C6.96674 34.3348 4.69743 31.6952 3.54504 28.5261L3.33621 27.9518C3.0385 27.1331 2.81051 26.2907 2.65468 25.4336L2.47899 24.4673C1.94117 21.5094 1.9 18.4824 2.35715 15.5109L2.69948 13.2858C2.82542 12.4672 3.03139 11.6629 3.31444 10.8845V10.8845Z" fill="#0099FF"/>
<path d="M15.2682 3.15234C18.4042 2.66988 21.596 2.66988 24.7321 3.15234L26.5992 3.44043C27.177 3.52931 27.7473 3.66055 28.3053 3.83301L28.858 4.01855C32.0653 5.18484 34.6134 7.66888 35.8639 10.833L35.9811 11.1406C36.1808 11.6899 36.3397 12.2531 36.4567 12.8252L36.5592 13.3994L36.901 15.625C37.3455 18.5141 37.3057 21.457 36.7828 24.333L36.6071 25.2998C36.4588 26.1152 36.2418 26.9165 35.9586 27.6953L35.7496 28.2695C34.6597 31.2669 32.5135 33.7637 29.7135 35.291C28.3816 36.0175 26.9337 36.5076 25.4342 36.7383L23.6012 37.0195C21.2143 37.3867 18.7849 37.3867 16.3981 37.0195L14.566 36.7383C13.2539 36.5364 11.9807 36.1363 10.7906 35.5527L10.2858 35.291C7.66104 33.8592 5.61056 31.5756 4.46643 28.8262L4.24963 28.2695L4.04065 27.6953C3.75747 26.9165 3.54047 26.1151 3.39221 25.2998L3.21643 24.333C2.69357 21.4571 2.6538 18.5141 3.09827 15.625L3.44104 13.3994C3.52991 12.8219 3.66125 12.2521 3.83362 11.6943L4.01917 11.1406C5.22302 7.83017 7.83078 5.22241 11.1412 4.01855C11.8733 3.75233 12.6301 3.55891 13.4 3.44043L15.2682 3.15234Z" stroke="url(#paint1_linear_14621_64130)" stroke-width="1.5" style="mix-blend-mode:overlay"/>
</g>
<g filter="url(#filter1_ddii_14621_64130)">
<path fill-rule="evenodd" clip-rule="evenodd" d="M27.0746 12.669C27.8442 12.669 28.3333 13.3223 28.3334 13.9755V28.2008C28.3331 28.9275 27.563 29.7237 26.8646 29.7237H13.8011C12.9607 29.7234 12.3337 28.8545 12.3334 28.2008V14.0524C12.3335 13.2524 12.7517 12.6726 13.6595 12.7459H14.0072C14.2874 12.746 14.5677 12.9627 14.5677 13.326V15.8667C14.5678 16.1571 14.7813 16.4468 15.1283 16.4468L25.5385 16.3728C25.8187 16.3727 26.099 16.156 26.099 15.7927V13.2529C26.0996 12.8896 26.3798 12.6727 26.7269 12.669H27.0746ZM23.3002 24.2502C23.0913 24.2475 22.8834 24.2855 22.6898 24.3623C22.4966 24.439 22.3207 24.5524 22.1732 24.6965C22.0256 24.8407 21.909 25.0127 21.8304 25.2016C21.7519 25.3905 21.7133 25.5931 21.7162 25.7969C21.7191 26.0008 21.764 26.2026 21.848 26.3893C21.932 26.576 22.0527 26.7448 22.2045 26.8849C22.5008 27.1545 22.8933 27.3002 23.2982 27.2932C23.703 27.2862 24.0891 27.1255 24.3754 26.846C24.6617 26.5664 24.8262 26.1894 24.8334 25.794C24.8405 25.3987 24.6895 25.0161 24.4135 24.7269C24.27 24.5789 24.0978 24.4603 23.9066 24.3784C23.7153 24.2965 23.509 24.253 23.3002 24.2502ZM23.309 18.6125L15.9418 25.8054L17.4164 27.2448L24.7836 20.0499L23.309 18.6125ZM17.4095 18.5432C17 18.5398 16.6056 18.6937 16.3109 18.9714C16.1616 19.1122 16.0422 19.2808 15.9603 19.467C15.8785 19.6531 15.8352 19.8531 15.8334 20.0556C15.8316 20.2583 15.871 20.4596 15.9496 20.6471C16.0282 20.8347 16.1446 21.0052 16.2914 21.1484C16.438 21.2916 16.6122 21.405 16.8041 21.4817C16.996 21.5584 17.2021 21.5973 17.4095 21.5956C17.617 21.5939 17.8224 21.5512 18.0131 21.4712C18.2037 21.3913 18.3767 21.2752 18.5209 21.1294C18.8055 20.8416 18.9629 20.4557 18.9594 20.0556C18.9557 19.6556 18.791 19.2732 18.5013 18.9904C18.2116 18.7074 17.8193 18.5467 17.4095 18.5432Z" fill="white"/>
<path fill-rule="evenodd" clip-rule="evenodd" d="M21.974 10.2793C22.2682 10.2796 22.5512 10.394 22.7601 10.5974C22.9689 10.8007 23.0872 11.0767 23.0902 11.3655C23.0902 11.6552 23.3032 11.9454 23.6508 11.9456H23.9984C24.2787 11.9456 24.5593 12.1623 24.5599 12.5257V14.265C24.5599 14.5549 24.3471 14.8451 23.9994 14.8451H16.5931C16.3129 14.8451 16.0326 14.6284 16.0326 14.265V12.5247C16.0328 12.235 16.2456 11.9456 16.5931 11.9456H17.0121C17.2924 11.9455 17.5726 11.7288 17.5726 11.3655C17.5756 11.0766 17.6947 10.8007 17.9037 10.5974C18.1128 10.3939 18.3955 10.2794 18.6898 10.2793H21.974ZM20.3705 11.3655C19.7431 11.3655 19.183 11.945 19.183 12.5988C19.183 13.2525 19.7425 13.8321 20.3705 13.8321C20.9985 13.8321 21.5589 13.3959 21.559 12.5988C21.559 11.9449 21.069 11.3655 20.3705 11.3655Z" fill="white"/>
</g>
</g>
</g>
<defs>
<filter id="filter0_di_14621_64130" x="0.0424805" y="1.04102" width="39.915" height="40.0039" filterUnits="userSpaceOnUse" color-interpolation-filters="sRGB">
<feFlood flood-opacity="0" result="BackgroundImageFix"/>
<feColorMatrix in="SourceAlpha" type="matrix" values="0 0 0 0 0 0 0 0 0 0 0 0 0 0 0 0 0 0 127 0" result="hardAlpha"/>
<feOffset dy="1"/>
<feGaussianBlur stdDeviation="1"/>
<feComposite in2="hardAlpha" operator="out"/>
<feColorMatrix type="matrix" values="0 0 0 0 0.0666667 0 0 0 0 0.0980392 0 0 0 0 0.117647 0 0 0 0.05 0"/>
<feBlend mode="normal" in2="BackgroundImageFix" result="effect1_dropShadow_14621_64130"/>
<feBlend mode="normal" in="SourceGraphic" in2="effect1_dropShadow_14621_64130" result="shape"/>
<feColorMatrix in="SourceAlpha" type="matrix" values="0 0 0 0 0 0 0 0 0 0 0 0 0 0 0 0 0 0 127 0" result="hardAlpha"/>
<feOffset dx="1.6" dy="1.6"/>
<feGaussianBlur stdDeviation="1.6"/>
<feComposite in2="hardAlpha" operator="arithmetic" k2="-1" k3="1"/>
<feColorMatrix type="matrix" values="0 0 0 0 0.0666667 0 0 0 0 0.0980392 0 0 0 0 0.117647 0 0 0 0.1 0"/>
<feBlend mode="normal" in2="shape" result="effect2_innerShadow_14621_64130"/>
</filter>
<filter id="filter1_ddii_14621_64130" x="-2.80948" y="-2.80887" width="46.4762" height="46.4768" filterUnits="userSpaceOnUse" color-interpolation-filters="sRGB">
<feFlood flood-opacity="0" result="BackgroundImageFix"/>
<feColorMatrix in="SourceAlpha" type="matrix" values="0 0 0 0 0 0 0 0 0 0 0 0 0 0 0 0 0 0 127 0" result="hardAlpha"/>
<feOffset dx="2.57143" dy="2.57143"/>
<feGaussianBlur stdDeviation="4.71429"/>
<feComposite in2="hardAlpha" operator="out"/>
<feColorMatrix type="matrix" values="0 0 0 0 0.321569 0 0 0 0 0.435294 0 0 0 0 1 0 0 0 1 0"/>
<feBlend mode="normal" in2="BackgroundImageFix" result="effect1_dropShadow_14621_64130"/>
<feColorMatrix in="SourceAlpha" type="matrix" values="0 0 0 0 0 0 0 0 0 0 0 0 0 0 0 0 0 0 127 0" result="hardAlpha"/>
<feOffset dx="-2.57143" dy="-2.57143"/>
<feGaussianBlur stdDeviation="4.28571"/>
<feComposite in2="hardAlpha" operator="out"/>
<feColorMatrix type="matrix" values="0 0 0 0 1 0 0 0 0 1 0 0 0 0 1 0 0 0 0.4 0"/>
<feBlend mode="normal" in2="effect1_dropShadow_14621_64130" result="effect2_dropShadow_14621_64130"/>
<feBlend mode="normal" in="SourceGraphic" in2="effect2_dropShadow_14621_64130" result="shape"/>
<feColorMatrix in="SourceAlpha" type="matrix" values="0 0 0 0 0 0 0 0 0 0 0 0 0 0 0 0 0 0 127 0" result="hardAlpha"/>
<feOffset dy="-1.28571"/>
<feGaussianBlur stdDeviation="0.985714"/>
<feComposite in2="hardAlpha" operator="arithmetic" k2="-1" k3="1"/>
<feColorMatrix type="matrix" values="0 0 0 0 0 0 0 0 0 0.598039 0 0 0 0 1 0 0 0 0.4 0"/>
<feBlend mode="normal" in2="shape" result="effect3_innerShadow_14621_64130"/>
<feColorMatrix in="SourceAlpha" type="matrix" values="0 0 0 0 0 0 0 0 0 0 0 0 0 0 0 0 0 0 127 0" result="hardAlpha"/>
<feOffset dy="-0.428571"/>
<feGaussianBlur stdDeviation="0.557143"/>
<feComposite in2="hardAlpha" operator="arithmetic" k2="-1" k3="1"/>
<feColorMatrix type="matrix" values="0 0 0 0 1 0 0 0 0 1 0 0 0 0 1 0 0 0 0.6 0"/>
<feBlend mode="normal" in2="effect3_innerShadow_14621_64130" result="effect4_innerShadow_14621_64130"/>
</filter>
<linearGradient id="paint0_linear_14621_64130" x1="6.8" y1="10.8" x2="36.8" y2="47.6" gradientUnits="userSpaceOnUse">
<stop stop-color="#11191E" stop-opacity="0.4"/>
<stop offset="1" stop-color="white"/>
</linearGradient>
<linearGradient id="paint1_linear_14621_64130" x1="7.89996" y1="11.566" x2="35.4" y2="45.2993" gradientUnits="userSpaceOnUse">
<stop stop-color="#11191E" stop-opacity="0.4"/>
<stop offset="1" stop-color="white"/>
</linearGradient>
<clipPath id="clip0_14621_64130">
<rect width="40" height="40" fill="white"/>
</clipPath>
</defs>
</svg>
