<svg width="16" height="16" viewBox="0 0 16 16" fill="none" xmlns="http://www.w3.org/2000/svg">
<path d="M14.6615 10.3928C14.6409 10.6007 14.5599 10.7967 14.4303 10.9559L14.3609 11.033C14.1671 11.2273 13.9074 11.3327 13.6411 11.3327H2.3587C2.12545 11.3327 1.89819 11.2515 1.71541 11.1014L1.63961 11.033C1.47003 10.8628 1.3625 10.6361 1.33835 10.3928L1.33325 10.2875C1.33334 10.0048 1.44604 9.73702 1.63961 9.54274L1.71477 9.47436C1.89723 9.32419 2.12469 9.24242 2.3587 9.2424H13.6411C13.9082 9.2424 14.1676 9.34892 14.3609 9.54274L14.4303 9.61916C14.5816 9.80475 14.6665 10.0408 14.6666 10.2875L14.6615 10.3928ZM14.6615 5.81574C14.6408 6.02438 14.5588 6.22053 14.429 6.37954L14.3602 6.45596C14.1668 6.64983 13.9077 6.75562 13.6411 6.75562H2.3587C2.12545 6.75561 1.8982 6.67447 1.71541 6.52434L1.63961 6.45596C1.47003 6.28576 1.3625 6.05904 1.33835 5.81574L1.33325 5.71048C1.33336 5.42776 1.44604 5.15996 1.63961 4.96568L1.71477 4.8973C1.89765 4.74693 2.12529 4.66603 2.3587 4.66602H13.6411C13.9077 4.66602 14.1667 4.77175 14.3602 4.96568L14.429 5.0421C14.5803 5.22732 14.6665 5.46303 14.6666 5.71048L14.6615 5.81574Z" fill="#11191E"/>
</svg>
