<svg width="40" height="40" viewBox="0 0 40 40" fill="none" xmlns="http://www.w3.org/2000/svg">
<g clip-path="url(#clip0_13626_66540)">
<mask id="mask0_13626_66540" style="mask-type:alpha" maskUnits="userSpaceOnUse" x="0" y="0" width="40" height="40">
<path d="M20 0.799805C26.7982 0.799805 31.5477 2.32891 34.6094 5.39062C37.6711 8.45234 39.2002 13.2018 39.2002 20C39.2002 26.7982 37.6711 31.5477 34.6094 34.6094C31.5477 37.6711 26.7982 39.2002 20 39.2002C13.2018 39.2002 8.45234 37.6711 5.39062 34.6094C2.32891 31.5477 0.799805 26.7982 0.799805 20C0.799805 13.2018 2.32891 8.45234 5.39062 5.39062C8.45234 2.32891 13.2018 0.799805 20 0.799805Z" fill="#0099FF"/>
<path d="M20 0.799805C26.7982 0.799805 31.5477 2.32891 34.6094 5.39062C37.6711 8.45234 39.2002 13.2018 39.2002 20C39.2002 26.7982 37.6711 31.5477 34.6094 34.6094C31.5477 37.6711 26.7982 39.2002 20 39.2002C13.2018 39.2002 8.45234 37.6711 5.39062 34.6094C2.32891 31.5477 0.799805 26.7982 0.799805 20C0.799805 13.2018 2.32891 8.45234 5.39062 5.39062C8.45234 2.32891 13.2018 0.799805 20 0.799805Z" stroke="url(#paint0_linear_13626_66540)" stroke-width="1.6"/>
</mask>
<g mask="url(#mask0_13626_66540)">
<g filter="url(#filter0_di_13626_66540)">
<path d="M3.31444 10.8855C4.5941 7.36644 7.36607 4.59447 10.8851 3.3148C11.6635 3.03176 12.4678 2.82579 13.2864 2.69985L15.1542 2.4125C18.3658 1.9184 21.6341 1.9184 24.8458 2.4125L26.7135 2.69985C27.5321 2.82579 28.3364 3.03176 29.1148 3.3148C32.6338 4.59447 35.4058 7.36644 36.6855 10.8855C36.9685 11.6639 37.1745 12.4681 37.3004 13.2867L37.6428 15.5119C38.0999 18.4834 38.0587 21.5103 37.5209 24.4683L37.3452 25.4346C37.1894 26.2917 36.9614 27.1341 36.6637 27.9528L36.4549 28.5271C35.3025 31.6962 33.0332 34.3357 30.0728 35.9505C28.6646 36.7186 27.1336 37.2362 25.5481 37.4801L23.7155 37.762C21.2529 38.1409 18.747 38.1409 16.2845 37.762L14.4518 37.4801C12.8663 37.2362 11.3353 36.7186 9.92709 35.9505C6.96674 34.3357 4.69743 31.6962 3.54504 28.5271L3.33621 27.9528C3.0385 27.1341 2.81051 26.2917 2.65468 25.4346L2.47899 24.4683C1.94117 21.5103 1.9 18.4834 2.35715 15.5119L2.69948 13.2867C2.82542 12.4681 3.03139 11.6639 3.31444 10.8855Z" fill="#0099FF"/>
<path d="M15.2682 3.15332C18.2083 2.70101 21.197 2.67354 24.1432 3.06934L24.7321 3.15332L26.5992 3.44141C27.177 3.53029 27.7473 3.66152 28.3053 3.83398L28.858 4.01953C32.0653 5.18581 34.6134 7.66986 35.8639 10.834L35.9811 11.1416C36.1808 11.6909 36.3397 12.254 36.4567 12.8262L36.5592 13.4004L36.901 15.626C37.3177 18.3345 37.3092 21.0903 36.8756 23.7939L36.7828 24.334L36.6071 25.3008C36.4958 25.9124 36.3463 26.5162 36.1588 27.1084L35.9586 27.6963L35.7496 28.2705C34.7278 31.0805 32.7779 33.4504 30.2311 34.9941L29.7135 35.292C28.548 35.9277 27.2938 36.3825 25.9938 36.6406L25.4342 36.7393L23.6012 37.0205C21.3634 37.3648 19.0887 37.3862 16.8463 37.085L16.3981 37.0205L14.566 36.7393C13.2539 36.5374 11.9807 36.1373 10.7906 35.5537L10.2858 35.292C7.66104 33.8602 5.61056 31.5766 4.46643 28.8271L4.24963 28.2705L4.04065 27.6963C3.82822 27.1121 3.65306 26.5151 3.51624 25.9092L3.39221 25.3008L3.21643 24.334C2.72622 21.6377 2.66115 18.8825 3.02112 16.168L3.09827 15.626L3.44104 13.4004C3.52991 12.8229 3.66125 12.2531 3.83362 11.6953L4.01917 11.1416C5.18546 7.93443 7.6696 5.38721 10.8336 4.13672L11.1412 4.01953C11.6905 3.81979 12.2537 3.66091 12.8258 3.54395L13.4 3.44141L15.2682 3.15332Z" stroke="url(#paint1_linear_13626_66540)" stroke-width="1.5" style="mix-blend-mode:overlay"/>
</g>
<g filter="url(#filter1_ddii_13626_66540)">
<path fill-rule="evenodd" clip-rule="evenodd" d="M27.5614 11.25C28.1344 11.25 28.6848 11.4806 29.09 11.8909C29.4949 12.3011 29.7223 12.8575 29.7223 13.4375H27.5614V18.234C26.7447 17.8283 25.8301 17.5941 24.8612 17.5941C21.4659 17.5941 18.7041 20.3905 18.7041 23.8281C18.7048 24.779 18.9208 25.7169 19.3354 26.5701C19.75 27.4233 20.3521 28.1692 21.0957 28.75H12.4387C11.8657 28.75 11.3153 28.5194 10.9102 28.1091C10.5052 27.6989 10.2778 27.1425 10.2778 26.5625H12.4387V14.9072C12.4388 13.9373 12.819 13.0068 13.4964 12.321C14.1738 11.6352 15.0925 11.2501 16.0504 11.25H27.5614ZM14.5987 17.8125H17.8391V16.7188H14.5987V17.8125ZM14.5987 15.625H21.0805V14.5312H14.5987V15.625Z" fill="white"/>
<path fill-rule="evenodd" clip-rule="evenodd" d="M24.8612 18.9062C26.1503 18.9062 27.3865 19.4247 28.2981 20.3475C29.2098 21.2705 29.7223 22.5228 29.7223 23.8281C29.7223 25.1335 29.2097 26.3857 28.2981 27.3088C27.3865 28.2316 26.1502 28.75 24.8612 28.75C23.5721 28.75 22.3358 28.2316 21.4242 27.3088C20.5126 26.3857 20.0001 25.1335 20.0001 23.8281C20.0001 22.5228 20.5126 21.2705 21.4242 20.3475C22.3358 19.4247 23.5721 18.9062 24.8612 18.9062ZM24.9058 20.9741C24.8092 20.9653 24.7122 20.9865 24.6276 21.0339C24.543 21.0813 24.4749 21.153 24.432 21.24L24.3978 21.3216L23.9345 22.8113H22.4316C21.9887 22.8116 21.7888 23.3678 22.0841 23.6743L22.1458 23.7284L23.3611 24.6494L22.8968 26.1391C22.7592 26.5811 23.2095 26.9516 23.5813 26.7476L23.6468 26.7059L24.8621 25.7859L26.0764 26.7059C26.4374 26.9791 26.9153 26.6475 26.8436 26.216L26.8265 26.1391L26.3622 24.6494L27.5775 23.7284C27.9357 23.4566 27.7836 22.8836 27.3715 22.8179L27.2917 22.8113H25.7888L25.3245 21.3216C25.298 21.2283 25.2434 21.1453 25.1688 21.0833C25.0941 21.0213 25.0024 20.9829 24.9058 20.9741Z" fill="white"/>
</g>
</g>
</g>
<defs>
<filter id="filter0_di_13626_66540" x="0.0424805" y="1.04199" width="39.915" height="40.0039" filterUnits="userSpaceOnUse" color-interpolation-filters="sRGB">
<feFlood flood-opacity="0" result="BackgroundImageFix"/>
<feColorMatrix in="SourceAlpha" type="matrix" values="0 0 0 0 0 0 0 0 0 0 0 0 0 0 0 0 0 0 127 0" result="hardAlpha"/>
<feOffset dy="1"/>
<feGaussianBlur stdDeviation="1"/>
<feComposite in2="hardAlpha" operator="out"/>
<feColorMatrix type="matrix" values="0 0 0 0 0.0666667 0 0 0 0 0.0980392 0 0 0 0 0.117647 0 0 0 0.05 0"/>
<feBlend mode="normal" in2="BackgroundImageFix" result="effect1_dropShadow_13626_66540"/>
<feBlend mode="normal" in="SourceGraphic" in2="effect1_dropShadow_13626_66540" result="shape"/>
<feColorMatrix in="SourceAlpha" type="matrix" values="0 0 0 0 0 0 0 0 0 0 0 0 0 0 0 0 0 0 127 0" result="hardAlpha"/>
<feOffset dx="1.6" dy="1.6"/>
<feGaussianBlur stdDeviation="1.6"/>
<feComposite in2="hardAlpha" operator="arithmetic" k2="-1" k3="1"/>
<feColorMatrix type="matrix" values="0 0 0 0 0.0666667 0 0 0 0 0.0980392 0 0 0 0 0.117647 0 0 0 0.1 0"/>
<feBlend mode="normal" in2="shape" result="effect2_innerShadow_13626_66540"/>
</filter>
<filter id="filter1_ddii_13626_66540" x="-2.80948" y="-2.80985" width="46.4762" height="46.4759" filterUnits="userSpaceOnUse" color-interpolation-filters="sRGB">
<feFlood flood-opacity="0" result="BackgroundImageFix"/>
<feColorMatrix in="SourceAlpha" type="matrix" values="0 0 0 0 0 0 0 0 0 0 0 0 0 0 0 0 0 0 127 0" result="hardAlpha"/>
<feOffset dx="2.57143" dy="2.57143"/>
<feGaussianBlur stdDeviation="4.71429"/>
<feComposite in2="hardAlpha" operator="out"/>
<feColorMatrix type="matrix" values="0 0 0 0 0.321569 0 0 0 0 0.435294 0 0 0 0 1 0 0 0 1 0"/>
<feBlend mode="normal" in2="BackgroundImageFix" result="effect1_dropShadow_13626_66540"/>
<feColorMatrix in="SourceAlpha" type="matrix" values="0 0 0 0 0 0 0 0 0 0 0 0 0 0 0 0 0 0 127 0" result="hardAlpha"/>
<feOffset dx="-2.57143" dy="-2.57143"/>
<feGaussianBlur stdDeviation="4.28571"/>
<feComposite in2="hardAlpha" operator="out"/>
<feColorMatrix type="matrix" values="0 0 0 0 1 0 0 0 0 1 0 0 0 0 1 0 0 0 0.4 0"/>
<feBlend mode="normal" in2="effect1_dropShadow_13626_66540" result="effect2_dropShadow_13626_66540"/>
<feBlend mode="normal" in="SourceGraphic" in2="effect2_dropShadow_13626_66540" result="shape"/>
<feColorMatrix in="SourceAlpha" type="matrix" values="0 0 0 0 0 0 0 0 0 0 0 0 0 0 0 0 0 0 127 0" result="hardAlpha"/>
<feOffset dy="-1.28571"/>
<feGaussianBlur stdDeviation="0.985714"/>
<feComposite in2="hardAlpha" operator="arithmetic" k2="-1" k3="1"/>
<feColorMatrix type="matrix" values="0 0 0 0 0 0 0 0 0 0.598039 0 0 0 0 1 0 0 0 0.4 0"/>
<feBlend mode="normal" in2="shape" result="effect3_innerShadow_13626_66540"/>
<feColorMatrix in="SourceAlpha" type="matrix" values="0 0 0 0 0 0 0 0 0 0 0 0 0 0 0 0 0 0 127 0" result="hardAlpha"/>
<feOffset dy="-0.428571"/>
<feGaussianBlur stdDeviation="0.557143"/>
<feComposite in2="hardAlpha" operator="arithmetic" k2="-1" k3="1"/>
<feColorMatrix type="matrix" values="0 0 0 0 1 0 0 0 0 1 0 0 0 0 1 0 0 0 0.6 0"/>
<feBlend mode="normal" in2="effect3_innerShadow_13626_66540" result="effect4_innerShadow_13626_66540"/>
</filter>
<linearGradient id="paint0_linear_13626_66540" x1="6.8" y1="10.8" x2="36.8" y2="47.6" gradientUnits="userSpaceOnUse">
<stop stop-color="#11191E" stop-opacity="0.4"/>
<stop offset="1" stop-color="white"/>
</linearGradient>
<linearGradient id="paint1_linear_13626_66540" x1="7.89996" y1="11.567" x2="35.4" y2="45.3003" gradientUnits="userSpaceOnUse">
<stop stop-color="#11191E" stop-opacity="0.4"/>
<stop offset="1" stop-color="white"/>
</linearGradient>
<clipPath id="clip0_13626_66540">
<rect width="40" height="40" fill="white"/>
</clipPath>
</defs>
</svg>
