<svg width="40" height="40" viewBox="0 0 40 40" fill="none" xmlns="http://www.w3.org/2000/svg">
<g clip-path="url(#clip0_13626_66532)">
<mask id="mask0_13626_66532" style="mask-type:alpha" maskUnits="userSpaceOnUse" x="0" y="0" width="40" height="40">
<path d="M20 0.799805C26.7982 0.799805 31.5477 2.32891 34.6094 5.39062C37.6711 8.45234 39.2002 13.2018 39.2002 20C39.2002 26.7982 37.6711 31.5477 34.6094 34.6094C31.5477 37.6711 26.7982 39.2002 20 39.2002C13.2018 39.2002 8.45234 37.6711 5.39062 34.6094C2.32891 31.5477 0.799805 26.7982 0.799805 20C0.799805 13.2018 2.32891 8.45234 5.39062 5.39062C8.45234 2.32891 13.2018 0.799805 20 0.799805Z" fill="#0099FF"/>
<path d="M20 0.799805C26.7982 0.799805 31.5477 2.32891 34.6094 5.39062C37.6711 8.45234 39.2002 13.2018 39.2002 20C39.2002 26.7982 37.6711 31.5477 34.6094 34.6094C31.5477 37.6711 26.7982 39.2002 20 39.2002C13.2018 39.2002 8.45234 37.6711 5.39062 34.6094C2.32891 31.5477 0.799805 26.7982 0.799805 20C0.799805 13.2018 2.32891 8.45234 5.39062 5.39062C8.45234 2.32891 13.2018 0.799805 20 0.799805Z" stroke="url(#paint0_linear_13626_66532)" stroke-width="1.6"/>
</mask>
<g mask="url(#mask0_13626_66532)">
<g filter="url(#filter0_di_13626_66532)">
<path d="M3.31444 10.8855C4.5941 7.36644 7.36607 4.59447 10.8851 3.3148C11.6635 3.03176 12.4678 2.82579 13.2864 2.69985L15.1542 2.4125C18.3658 1.9184 21.6341 1.9184 24.8458 2.4125L26.7135 2.69985C27.5321 2.82579 28.3364 3.03176 29.1148 3.3148C32.6338 4.59447 35.4058 7.36644 36.6855 10.8855C36.9685 11.6639 37.1745 12.4681 37.3004 13.2867L37.6428 15.5119C38.0999 18.4834 38.0587 21.5103 37.5209 24.4683L37.3452 25.4346C37.1894 26.2917 36.9614 27.1341 36.6637 27.9528L36.4549 28.5271C35.3025 31.6962 33.0332 34.3357 30.0728 35.9505C28.6646 36.7186 27.1336 37.2362 25.5481 37.4801L23.7155 37.762C21.2529 38.1409 18.747 38.1409 16.2845 37.762L14.4518 37.4801C12.8663 37.2362 11.3353 36.7186 9.92709 35.9505C6.96674 34.3357 4.69743 31.6962 3.54504 28.5271L3.33621 27.9528C3.0385 27.1341 2.81051 26.2917 2.65468 25.4346L2.47899 24.4683C1.94117 21.5103 1.9 18.4834 2.35715 15.5119L2.69948 13.2867C2.82542 12.4681 3.03139 11.6639 3.31444 10.8855Z" fill="#0099FF"/>
<path d="M15.2682 3.15332C18.2083 2.70101 21.197 2.67354 24.1432 3.06934L24.7321 3.15332L26.5992 3.44141C27.177 3.53029 27.7473 3.66152 28.3053 3.83398L28.858 4.01953C32.0653 5.18581 34.6134 7.66986 35.8639 10.834L35.9811 11.1416C36.1808 11.6909 36.3397 12.254 36.4567 12.8262L36.5592 13.4004L36.901 15.626C37.3177 18.3345 37.3092 21.0903 36.8756 23.7939L36.7828 24.334L36.6071 25.3008C36.4958 25.9124 36.3463 26.5162 36.1588 27.1084L35.9586 27.6963L35.7496 28.2705C34.7278 31.0805 32.7779 33.4504 30.2311 34.9941L29.7135 35.292C28.548 35.9277 27.2938 36.3825 25.9938 36.6406L25.4342 36.7393L23.6012 37.0205C21.3634 37.3648 19.0887 37.3862 16.8463 37.085L16.3981 37.0205L14.566 36.7393C13.2539 36.5374 11.9807 36.1373 10.7906 35.5537L10.2858 35.292C7.66104 33.8602 5.61056 31.5766 4.46643 28.8271L4.24963 28.2705L4.04065 27.6963C3.82822 27.1121 3.65306 26.5151 3.51624 25.9092L3.39221 25.3008L3.21643 24.334C2.72622 21.6377 2.66115 18.8825 3.02112 16.168L3.09827 15.626L3.44104 13.4004C3.52991 12.8229 3.66125 12.2531 3.83362 11.6953L4.01917 11.1416C5.18546 7.93443 7.6696 5.38721 10.8336 4.13672L11.1412 4.01953C11.6905 3.81979 12.2537 3.66091 12.8258 3.54395L13.4 3.44141L15.2682 3.15332Z" stroke="url(#paint1_linear_13626_66532)" stroke-width="1.5" style="mix-blend-mode:overlay"/>
</g>
<g filter="url(#filter1_ddii_13626_66532)">
<path d="M18.7038 23.8281C18.7038 20.3905 21.4659 17.5937 24.8612 17.5937C25.8302 17.5937 26.7451 17.8278 27.5618 18.2336V13.4375H29.7223C29.7223 12.8573 29.4947 12.3009 29.0895 11.8907C28.6843 11.4805 28.1348 11.25 27.5618 11.25H16.0507C15.0926 11.25 14.1738 11.6353 13.4964 12.3213C12.8189 13.0072 12.4383 13.9375 12.4383 14.9075V26.5625H10.2778C10.2778 27.1427 10.5055 27.6991 10.9106 28.1093C11.3158 28.5195 11.8653 28.75 12.4383 28.75H21.0954C20.3518 28.1692 19.7496 27.4235 19.335 26.5703C18.9204 25.7171 18.7045 24.779 18.7038 23.8281ZM14.5988 14.5313H21.0803V15.625H14.5988V14.5313ZM17.8396 17.8125H14.5988V16.7187H17.8396V17.8125Z" fill="white"/>
<path d="M24.8612 18.9062C23.5719 18.9062 22.3355 19.4248 21.4238 20.3478C20.5122 21.2708 20.0001 22.5227 20.0001 23.8281C20.0001 25.1334 20.5122 26.3853 21.4238 27.3084C22.3355 28.2314 23.5719 28.75 24.8612 28.75C26.1504 28.75 27.3869 28.2314 28.2985 27.3084C29.2101 26.3853 29.7223 25.1334 29.7223 23.8281C29.7223 22.5227 29.2101 21.2708 28.2985 20.3478C27.3869 19.4248 26.1504 18.9062 24.8612 18.9062ZM27.1999 25.1953C27.1283 25.3209 27.0103 25.4125 26.8719 25.4501C26.7336 25.4876 26.5861 25.4679 26.4621 25.3954L24.5911 24.3017C24.5706 24.2896 24.5598 24.2711 24.5414 24.2568C24.5109 24.235 24.4827 24.2101 24.4572 24.1825C24.4353 24.1563 24.4164 24.1277 24.401 24.0972C24.3833 24.0675 24.3681 24.0364 24.3556 24.0042C24.3446 23.9686 24.3373 23.9319 24.334 23.8948C24.3318 23.8718 24.3211 23.8511 24.3211 23.8281V21.6406C24.3211 21.4955 24.378 21.3564 24.4792 21.2539C24.5805 21.1513 24.7179 21.0937 24.8612 21.0937C25.0044 21.0937 25.1418 21.1513 25.2431 21.2539C25.3444 21.3564 25.4013 21.4955 25.4013 21.6406V23.512L27.0022 24.4482C27.1263 24.5208 27.2168 24.6402 27.2539 24.7803C27.2909 24.9204 27.2715 25.0697 27.1999 25.1953Z" fill="white"/>
</g>
</g>
</g>
<defs>
<filter id="filter0_di_13626_66532" x="0.0424805" y="1.04199" width="39.915" height="40.0039" filterUnits="userSpaceOnUse" color-interpolation-filters="sRGB">
<feFlood flood-opacity="0" result="BackgroundImageFix"/>
<feColorMatrix in="SourceAlpha" type="matrix" values="0 0 0 0 0 0 0 0 0 0 0 0 0 0 0 0 0 0 127 0" result="hardAlpha"/>
<feOffset dy="1"/>
<feGaussianBlur stdDeviation="1"/>
<feComposite in2="hardAlpha" operator="out"/>
<feColorMatrix type="matrix" values="0 0 0 0 0.0666667 0 0 0 0 0.0980392 0 0 0 0 0.117647 0 0 0 0.05 0"/>
<feBlend mode="normal" in2="BackgroundImageFix" result="effect1_dropShadow_13626_66532"/>
<feBlend mode="normal" in="SourceGraphic" in2="effect1_dropShadow_13626_66532" result="shape"/>
<feColorMatrix in="SourceAlpha" type="matrix" values="0 0 0 0 0 0 0 0 0 0 0 0 0 0 0 0 0 0 127 0" result="hardAlpha"/>
<feOffset dx="1.6" dy="1.6"/>
<feGaussianBlur stdDeviation="1.6"/>
<feComposite in2="hardAlpha" operator="arithmetic" k2="-1" k3="1"/>
<feColorMatrix type="matrix" values="0 0 0 0 0.0666667 0 0 0 0 0.0980392 0 0 0 0 0.117647 0 0 0 0.1 0"/>
<feBlend mode="normal" in2="shape" result="effect2_innerShadow_13626_66532"/>
</filter>
<filter id="filter1_ddii_13626_66532" x="-2.80948" y="-2.80985" width="46.4762" height="46.4759" filterUnits="userSpaceOnUse" color-interpolation-filters="sRGB">
<feFlood flood-opacity="0" result="BackgroundImageFix"/>
<feColorMatrix in="SourceAlpha" type="matrix" values="0 0 0 0 0 0 0 0 0 0 0 0 0 0 0 0 0 0 127 0" result="hardAlpha"/>
<feOffset dx="2.57143" dy="2.57143"/>
<feGaussianBlur stdDeviation="4.71429"/>
<feComposite in2="hardAlpha" operator="out"/>
<feColorMatrix type="matrix" values="0 0 0 0 0.321569 0 0 0 0 0.435294 0 0 0 0 1 0 0 0 1 0"/>
<feBlend mode="normal" in2="BackgroundImageFix" result="effect1_dropShadow_13626_66532"/>
<feColorMatrix in="SourceAlpha" type="matrix" values="0 0 0 0 0 0 0 0 0 0 0 0 0 0 0 0 0 0 127 0" result="hardAlpha"/>
<feOffset dx="-2.57143" dy="-2.57143"/>
<feGaussianBlur stdDeviation="4.28571"/>
<feComposite in2="hardAlpha" operator="out"/>
<feColorMatrix type="matrix" values="0 0 0 0 1 0 0 0 0 1 0 0 0 0 1 0 0 0 0.4 0"/>
<feBlend mode="normal" in2="effect1_dropShadow_13626_66532" result="effect2_dropShadow_13626_66532"/>
<feBlend mode="normal" in="SourceGraphic" in2="effect2_dropShadow_13626_66532" result="shape"/>
<feColorMatrix in="SourceAlpha" type="matrix" values="0 0 0 0 0 0 0 0 0 0 0 0 0 0 0 0 0 0 127 0" result="hardAlpha"/>
<feOffset dy="-1.28571"/>
<feGaussianBlur stdDeviation="0.985714"/>
<feComposite in2="hardAlpha" operator="arithmetic" k2="-1" k3="1"/>
<feColorMatrix type="matrix" values="0 0 0 0 0 0 0 0 0 0.598039 0 0 0 0 1 0 0 0 0.4 0"/>
<feBlend mode="normal" in2="shape" result="effect3_innerShadow_13626_66532"/>
<feColorMatrix in="SourceAlpha" type="matrix" values="0 0 0 0 0 0 0 0 0 0 0 0 0 0 0 0 0 0 127 0" result="hardAlpha"/>
<feOffset dy="-0.428571"/>
<feGaussianBlur stdDeviation="0.557143"/>
<feComposite in2="hardAlpha" operator="arithmetic" k2="-1" k3="1"/>
<feColorMatrix type="matrix" values="0 0 0 0 1 0 0 0 0 1 0 0 0 0 1 0 0 0 0.6 0"/>
<feBlend mode="normal" in2="effect3_innerShadow_13626_66532" result="effect4_innerShadow_13626_66532"/>
</filter>
<linearGradient id="paint0_linear_13626_66532" x1="6.8" y1="10.8" x2="36.8" y2="47.6" gradientUnits="userSpaceOnUse">
<stop stop-color="#11191E" stop-opacity="0.4"/>
<stop offset="1" stop-color="white"/>
</linearGradient>
<linearGradient id="paint1_linear_13626_66532" x1="7.89996" y1="11.567" x2="35.4" y2="45.3003" gradientUnits="userSpaceOnUse">
<stop stop-color="#11191E" stop-opacity="0.4"/>
<stop offset="1" stop-color="white"/>
</linearGradient>
<clipPath id="clip0_13626_66532">
<rect width="40" height="40" fill="white"/>
</clipPath>
</defs>
</svg>
