<svg width="4" height="8" viewBox="0 0 4 8" fill="none" xmlns="http://www.w3.org/2000/svg">
<path d="M3.86275 3.17665H3.10751C2.94542 3.17665 2.48675 3.27181 2.33156 3.15596C2.30053 3.02356 2.40054 2.78359 2.42813 2.66774C2.50744 2.33261 2.58331 2.00162 2.66263 1.66235L3.0006 0.201828C3.04543 0.0115059 2.83851 -0.0712429 2.7523 0.0735675L0.0209852 4.57097C-0.0410901 4.6744 0.0451256 4.81921 0.141687 4.81921H1.2487C1.32457 4.81921 1.6177 4.76129 1.66598 4.84818C1.71081 4.91851 1.6246 5.1378 1.60735 5.21641C1.40044 6.077 1.20042 6.93758 1.0004 7.79817C0.955563 7.98849 1.16248 8.07124 1.2487 7.92643L3.97656 3.42903C4.04208 3.32146 3.95932 3.17665 3.86275 3.17665Z" fill="#000E33"/>
</svg>
