<svg width="16" height="16" viewBox="0 0 16 16" fill="none" xmlns="http://www.w3.org/2000/svg">
<path opacity="0.6" d="M5.48275 8.29928L12.2602 12.6295C12.3098 12.6611 12.3658 12.6726 12.4207 12.6624C12.4756 12.6522 12.5267 12.6208 12.5671 12.5724C12.6075 12.5241 12.6352 12.4611 12.6465 12.3921C12.6577 12.323 12.652 12.2512 12.6301 12.1864L10.6254 7.99936L12.6521 3.78538C12.6694 3.71965 12.6706 3.64884 12.6556 3.58222C12.6407 3.51559 12.6102 3.45626 12.5683 3.412C12.5264 3.36774 12.4749 3.34061 12.4206 3.33417C12.3664 3.32773 12.3118 3.34228 12.2642 3.37591L5.47166 7.69092C5.4286 7.72138 5.39291 7.76621 5.36843 7.82056C5.34395 7.87492 5.33162 7.93674 5.33276 7.99936C5.3339 8.06197 5.34847 8.123 5.37491 8.17586C5.40134 8.22872 5.43863 8.27139 5.48275 8.29928Z" fill="#71797E"/>
<path d="M2.13578 8.29928L8.29708 12.6295C8.34215 12.6611 8.3931 12.6726 8.443 12.6624C8.49291 12.6522 8.53937 12.6208 8.57608 12.5724C8.61279 12.5241 8.63798 12.4611 8.64824 12.3921C8.65849 12.323 8.65332 12.2512 8.63341 12.1864L6.81091 7.99936L8.65338 3.78538C8.66906 3.71965 8.67018 3.64884 8.65658 3.58222C8.64299 3.51559 8.61532 3.45626 8.5772 3.412C8.53907 3.36774 8.49228 3.34061 8.44294 3.33417C8.3936 3.32773 8.34403 3.34228 8.3007 3.37591L2.12569 7.69092C2.08655 7.72138 2.0541 7.76621 2.03185 7.82056C2.00959 7.87492 1.99838 7.93674 1.99942 7.99936C2.00046 8.06197 2.01371 8.123 2.03774 8.17586C2.06177 8.22872 2.09567 8.27139 2.13578 8.29928Z" fill="#71797E"/>
</svg>
