<svg width="16" height="16" viewBox="0 0 16 16" fill="none" xmlns="http://www.w3.org/2000/svg">
<path opacity="0.6" d="M10.5163 7.70072L3.73884 3.37055C3.68926 3.3389 3.63322 3.3274 3.57832 3.3376C3.52342 3.3478 3.47232 3.3792 3.43194 3.42756C3.39155 3.47592 3.36384 3.53889 3.35256 3.60794C3.34128 3.67698 3.34698 3.74877 3.36887 3.81357L5.37363 8.00064L3.34691 12.2146C3.32966 12.2803 3.32843 12.3512 3.34338 12.4178C3.35834 12.4844 3.38877 12.5437 3.43071 12.588C3.47264 12.6323 3.52412 12.6594 3.57839 12.6658C3.63266 12.6723 3.6872 12.6577 3.73485 12.6241L10.5274 8.30908C10.5704 8.27862 10.6061 8.23379 10.6306 8.17944C10.6551 8.12508 10.6674 8.06326 10.6663 8.00064C10.6651 7.93803 10.6505 7.877 10.6241 7.82414C10.5977 7.77128 10.5604 7.72861 10.5163 7.70072Z" fill="#71797E"/>
<path d="M13.8632 7.70072L7.70194 3.37055C7.65687 3.3389 7.60593 3.3274 7.55602 3.3376C7.50611 3.3478 7.45965 3.3792 7.42294 3.42756C7.38623 3.47592 7.36104 3.53889 7.35078 3.60794C7.34053 3.67698 7.34571 3.74877 7.36561 3.81357L9.18812 8.00064L7.34565 12.2146C7.32996 12.2803 7.32885 12.3512 7.34244 12.4178C7.35603 12.4844 7.3837 12.5437 7.42183 12.588C7.45995 12.6323 7.50675 12.6594 7.55608 12.6658C7.60542 12.6723 7.655 12.6577 7.69832 12.6241L13.8733 8.30908C13.9125 8.27862 13.9449 8.23379 13.9672 8.17944C13.9894 8.12508 14.0006 8.06326 13.9996 8.00064C13.9986 7.93803 13.9853 7.877 13.9613 7.82414C13.9373 7.77128 13.9034 7.72861 13.8632 7.70072Z" fill="#71797E"/>
</svg>
