<svg width="24" height="24" viewBox="0 0 24 24" fill="none" xmlns="http://www.w3.org/2000/svg">
<path opacity="0.6" d="M12.4499 8.2251L18.9452 18.3913C18.9926 18.4656 19.0099 18.5497 18.9946 18.632C18.9793 18.7144 18.9322 18.791 18.8596 18.8516C18.7871 18.9122 18.6926 18.9537 18.5891 18.9707C18.4855 18.9876 18.3778 18.979 18.2806 18.9462L12 15.9391L5.67904 18.9791C5.58046 19.005 5.47424 19.0069 5.3743 18.9844C5.27436 18.962 5.18537 18.9163 5.11898 18.8534C5.05258 18.7905 5.01189 18.7133 5.00223 18.6319C4.99257 18.5505 5.0144 18.4687 5.06484 18.3972L11.5374 8.20846C11.583 8.14387 11.6503 8.09033 11.7318 8.05362C11.8134 8.0169 11.9061 7.9984 12 8.00011C12.0939 8.00182 12.1855 8.02368 12.2648 8.06334C12.3441 8.10299 12.4081 8.15892 12.4499 8.2251Z" fill="#0099FF"/>
<path d="M12.4499 3.20464L18.9452 12.4466C18.9926 12.5142 19.0099 12.5906 18.9946 12.6655C18.9793 12.7403 18.9322 12.81 18.8596 12.8651C18.7871 12.9202 18.6926 12.958 18.5891 12.9733C18.4855 12.9887 18.3778 12.9809 18.2806 12.9511L12 10.2173L5.67904 12.981C5.58046 13.0046 5.47424 13.0062 5.3743 12.9858C5.27436 12.9655 5.18537 12.9239 5.11898 12.8668C5.05258 12.8096 5.01189 12.7394 5.00223 12.6654C4.99257 12.5914 5.0144 12.517 5.06484 12.452L11.5374 3.18951C11.583 3.13079 11.6503 3.08212 11.7318 3.04874C11.8134 3.01536 11.9061 2.99854 12 3.0001C12.0939 3.00166 12.1855 3.02153 12.2648 3.05758C12.3441 3.09362 12.4081 3.14447 12.4499 3.20464Z" fill="#0099FF"/>
</svg>
