<svg width="24" height="24" viewBox="0 0 24 24" fill="none" xmlns="http://www.w3.org/2000/svg">
<path opacity="0.6" d="M12.4499 15.7749L18.9452 5.60874C18.9926 5.53437 19.0099 5.45032 18.9946 5.36797C18.9793 5.28562 18.9322 5.20897 18.8596 5.14839C18.7871 5.08782 18.6926 5.04625 18.5891 5.02933C18.4855 5.01241 18.3778 5.02096 18.2806 5.0538L12 8.06093L5.67904 5.02086C5.58046 4.99498 5.47424 4.99314 5.3743 5.01557C5.27436 5.038 5.18537 5.08366 5.11898 5.14656C5.05258 5.20946 5.01189 5.28667 5.00223 5.36808C4.99257 5.44949 5.0144 5.53129 5.06484 5.60277L11.5374 15.7915C11.583 15.8561 11.6503 15.9097 11.7318 15.9464C11.8134 15.9831 11.9061 16.0016 12 15.9999C12.0939 15.9982 12.1855 15.9763 12.2648 15.9367C12.3441 15.897 12.4081 15.8411 12.4499 15.7749Z" fill="#0099FF"/>
<path d="M12.4499 20.7954L18.9452 11.5534C18.9926 11.4858 19.0099 11.4094 18.9946 11.3345C18.9793 11.2597 18.9322 11.19 18.8596 11.1349C18.7871 11.0798 18.6926 11.042 18.5891 11.0267C18.4855 11.0113 18.3778 11.0191 18.2806 11.0489L12 13.7827L5.67904 11.019C5.58046 10.9954 5.47424 10.9938 5.3743 11.0142C5.27436 11.0345 5.18537 11.0761 5.11898 11.1332C5.05258 11.1904 5.01189 11.2606 5.00223 11.3346C4.99257 11.4086 5.0144 11.483 5.06484 11.548L11.5374 20.8105C11.583 20.8692 11.6503 20.9179 11.7318 20.9513C11.8134 20.9846 11.9061 21.0015 12 20.9999C12.0939 20.9983 12.1855 20.9785 12.2648 20.9424C12.3441 20.9064 12.4081 20.8555 12.4499 20.7954Z" fill="#0099FF"/>
</svg>
