<svg xmlns="http://www.w3.org/2000/svg" width="40" height="40" viewBox="0 0 40 40" fill="none">
  <rect width="40" height="40" rx="20" fill="#E1E9EE" fill-opacity="0.2"/>
  <path fill-rule="evenodd" clip-rule="evenodd" d="M21.9746 29.7564C22.1152 29.8221 22.2676 29.8549 22.4199 29.8549C22.659 29.8549 22.898 29.7729 23.0902 29.6111L26.5848 26.7049H28.3684C29.2473 26.7049 29.9598 25.9994 29.9598 25.1299V13.5799C29.9598 12.7104 29.2449 12.0049 28.3684 12.0049H11.6012C10.7223 12.0049 10.0098 12.7104 10.0098 13.5799V25.1299C10.0098 25.9994 10.7246 26.7049 11.6012 26.7049H21.3699V28.8049C21.3699 29.2127 21.6043 29.583 21.9746 29.7564ZM22.4199 24.6049H12.1097V14.1049H27.8597V24.6049H26.2074C25.9613 24.6049 25.7222 24.6916 25.5347 24.8486L23.4699 26.5666V25.6549C23.4699 25.076 22.9988 24.6049 22.4199 24.6049Z" fill="#11191E"/>
  <path fill-rule="evenodd" clip-rule="evenodd" d="M21.0344 17.2549H14.7344V19.3549H21.0344V17.2549ZM25.2344 17.2549H23.1344V19.3549H25.2344V17.2549Z" fill="#11191E"/>
</svg>