<svg width="16" height="16" viewBox="0 0 16 16" xmlns="http://www.w3.org/2000/svg">
<path d="M7.99976 0.733398C8.17653 0.733398 8.34642 0.80373 8.47144 0.928711L10.2097 2.66602H12.6667C12.8435 2.66605 13.0134 2.73634 13.1384 2.86133C13.2634 2.98633 13.3337 3.15624 13.3337 3.33301V5.79004L15.071 7.52832C15.196 7.65334 15.2664 7.82322 15.2664 8C15.2663 8.17665 15.1959 8.34575 15.071 8.4707L13.3337 10.209V12.666C13.3337 12.8427 13.2633 13.0127 13.1384 13.1377C13.0134 13.2627 12.8435 13.333 12.6667 13.333H10.2097L8.47144 15.0713C8.34642 15.1963 8.17652 15.2666 7.99976 15.2666C7.8232 15.2666 7.654 15.196 7.52905 15.0713L5.79077 13.333H3.33374C3.15695 13.333 2.98708 13.2627 2.86206 13.1377C2.73704 13.0127 2.66675 12.8428 2.66675 12.666V10.209L0.928467 8.4707C0.803707 8.34577 0.733221 8.17656 0.733154 8C0.733154 7.82323 0.8035 7.65334 0.928467 7.52832L2.66675 5.79004V3.33301C2.66677 3.15622 2.73705 2.98634 2.86206 2.86133C2.98706 2.73647 3.15706 2.66602 3.33374 2.66602H5.79077L7.52905 0.928711C7.65402 0.80382 7.82308 0.733447 7.99976 0.733398ZM6.61792 8.79297L4.75464 7.40527L3.99976 8.04395L6.61792 11.5L11.9998 6.12891L11.2673 5.5L6.61792 8.79297Z" />
</svg>
