<svg xmlns="http://www.w3.org/2000/svg" width="17" height="18" viewBox="0 0 17 18">
<path d="M13.9746 7.97695L14.7944 8.4687C14.845 8.49898 14.8868 8.54185 14.9159 8.59313C14.945 8.64441 14.9602 8.70235 14.9602 8.7613C14.9602 8.82025 14.945 8.87819 14.9159 8.92947C14.8868 8.98075 14.845 9.02362 14.7944 9.0539L8.46156 12.8536L2.12875 9.0539C2.07817 9.02362 2.03631 8.98075 2.00724 8.92947C1.97817 8.87819 1.96289 8.82025 1.96289 8.7613C1.96289 8.70235 1.97817 8.64441 2.00724 8.59313C2.03631 8.54185 2.07817 8.49898 2.12875 8.4687L2.94857 7.97695L8.46156 11.2849L13.9746 7.97695ZM13.9746 11.1826L14.7944 11.6743C14.845 11.7046 14.8868 11.7475 14.9159 11.7988C14.945 11.85 14.9602 11.908 14.9602 11.9669C14.9602 12.0259 14.945 12.0838 14.9159 12.1351C14.8868 12.1864 14.845 12.2292 14.7944 12.2595L8.81282 15.8485C8.70674 15.9122 8.58532 15.9459 8.46156 15.9459C8.33781 15.9459 8.21639 15.9122 8.11031 15.8485L2.12875 12.2595C2.07817 12.2292 2.03631 12.1864 2.00724 12.1351C1.97817 12.0838 1.96289 12.0259 1.96289 11.9669C1.96289 11.908 1.97817 11.85 2.00724 11.7988C2.03631 11.7475 2.07817 11.7046 2.12875 11.6743L2.94857 11.1826L8.46156 14.4905L13.9746 11.1826ZM8.81214 1.70824L14.7944 5.29718C14.845 5.32746 14.8868 5.37033 14.9159 5.42161C14.945 5.47289 14.9602 5.53083 14.9602 5.58978C14.9602 5.64872 14.945 5.70666 14.9159 5.75795C14.8868 5.80923 14.845 5.8521 14.7944 5.88238L8.46156 9.68207L2.12875 5.88238C2.07817 5.8521 2.03631 5.80923 2.00724 5.75795C1.97817 5.70666 1.96289 5.64872 1.96289 5.58978C1.96289 5.53083 1.97817 5.47289 2.00724 5.42161C2.03631 5.37033 2.07817 5.32746 2.12875 5.29718L8.11031 1.70824C8.21639 1.64451 8.33781 1.61084 8.46156 1.61084C8.58532 1.61084 8.70674 1.64451 8.81282 1.70824H8.81214Z"/>
</svg>