<svg width="23" height="22" viewBox="0 0 23 22" fill="none" xmlns="http://www.w3.org/2000/svg">
<path d="M2.3335 10.9998C3.12993 6.82799 6.93166 3.6665 11.5002 3.6665C16.0687 3.6665 19.8695 6.82799 20.6668 10.9998C19.8704 15.1717 16.0687 18.3332 11.5002 18.3332C6.93166 18.3332 3.13078 15.1717 2.3335 10.9998ZM11.5002 15.0739C12.6237 15.0739 13.7013 14.6447 14.4957 13.8806C15.2902 13.1166 15.7365 12.0803 15.7365 10.9998C15.7365 9.91933 15.2902 8.88307 14.4957 8.11903C13.7013 7.35499 12.6237 6.92576 11.5002 6.92576C10.3766 6.92576 9.29907 7.35499 8.50459 8.11903C7.71012 8.88307 7.26379 9.91933 7.26379 10.9998C7.26379 12.0803 7.71012 13.1166 8.50459 13.8806C9.29907 14.6447 10.3766 15.0739 11.5002 15.0739ZM11.5002 13.4443C10.826 13.4443 10.1795 13.1867 9.70282 12.7283C9.22614 12.2699 8.95834 11.6481 8.95834 10.9998C8.95834 10.3515 9.22614 9.72978 9.70282 9.27135C10.1795 8.81293 10.826 8.55539 11.5002 8.55539C12.1743 8.55539 12.8208 8.81293 13.2975 9.27135C13.7742 9.72978 14.042 10.3515 14.042 10.9998C14.042 11.6481 13.7742 12.2699 13.2975 12.7283C12.8208 13.1867 12.1743 13.4443 11.5002 13.4443Z" fill="#526FFF"/>
</svg>
