<svg width="17" height="17" viewBox="0 0 17 17" fill="none" xmlns="http://www.w3.org/2000/svg">
<path opacity="0.6" d="M8.79985 5.98341L13.13 12.7608C13.1617 12.8104 13.1732 12.8665 13.163 12.9214C13.1528 12.9763 13.1214 13.0274 13.073 13.0677C13.0247 13.1081 12.9617 13.1358 12.8926 13.1471C12.8236 13.1584 12.7518 13.1527 12.687 13.1308L8.49993 11.1261L4.28594 13.1528C4.22022 13.17 4.14941 13.1713 4.08278 13.1563C4.01616 13.1413 3.95683 13.1109 3.91257 13.069C3.86831 13.027 3.84118 12.9756 3.83474 12.9213C3.8283 12.867 3.84285 12.8125 3.87648 12.7648L8.19149 5.97232C8.22195 5.92926 8.26678 5.89357 8.32114 5.86909C8.37549 5.84461 8.43731 5.83227 8.49993 5.83342C8.56254 5.83456 8.62357 5.84913 8.67643 5.87557C8.72929 5.902 8.77196 5.93929 8.79985 5.98341Z" fill="white"/>
<path d="M8.79985 2.63642L13.13 8.79773C13.1617 8.84281 13.1732 8.89375 13.163 8.94366C13.1528 8.99356 13.1214 9.04002 13.073 9.07673C13.0247 9.11344 12.9617 9.13864 12.8926 9.14889C12.8236 9.15914 12.7518 9.15397 12.687 9.13406L8.49993 7.31156L4.28594 9.15403C4.22022 9.16971 4.14941 9.17083 4.08278 9.15723C4.01616 9.14364 3.95683 9.11597 3.91257 9.07784C3.86831 9.03972 3.84118 8.99293 3.83474 8.94359C3.8283 8.89425 3.84285 8.84467 3.87648 8.80135L8.19149 2.62634C8.22195 2.5872 8.26678 2.55475 8.32114 2.53249C8.37549 2.51024 8.43731 2.49903 8.49993 2.50007C8.56254 2.5011 8.62357 2.51435 8.67643 2.53838C8.72929 2.56242 8.77196 2.59632 8.79985 2.63642Z" fill="white"/>
</svg>
