<svg width="14" height="14" viewBox="0 0 14 14" fill="none" xmlns="http://www.w3.org/2000/svg">
<g clip-path="url(#clip0_40000693_2669)">
<path d="M9.27098 0.855469C8.66178 0.856342 8.06136 1.0007 7.51835 1.27685C6.97533 1.553 6.505 1.95318 6.14546 2.44496C5.78592 2.93674 5.54727 3.5063 5.44885 4.1075C5.35044 4.70869 5.39502 5.32462 5.57898 5.90537L0.93384 10.5505C0.883663 10.6009 0.855494 10.6691 0.855499 10.7402V12.8769C0.855499 13.0244 0.975314 13.1442 1.12278 13.1442H2.99297C3.06363 13.1442 3.13122 13.1158 3.18191 13.0659L3.71954 12.5282C3.7696 12.4781 3.79777 12.4102 3.79788 12.3393V11.4891H4.64811C4.68321 11.4891 4.71797 11.4822 4.75039 11.4687C4.78282 11.4553 4.81229 11.4356 4.83711 11.4108C4.86193 11.386 4.88161 11.3565 4.89505 11.3241C4.90848 11.2916 4.91539 11.2569 4.91539 11.2218V10.4729H5.66424C5.7349 10.4729 5.80248 10.4445 5.85318 10.3946L7.89618 8.3516C8.4827 8.57294 9.11413 8.64881 9.73638 8.57272C10.3586 8.49663 10.9532 8.27084 11.4691 7.9147C11.985 7.55856 12.4069 7.08267 12.6986 6.5278C12.9904 5.97293 13.1433 5.35562 13.1442 4.72873C13.1428 3.70191 12.7343 2.71756 12.0082 1.99149C11.2821 1.26542 10.2978 0.856891 9.27098 0.855469ZM6.56746 6.81935L2.01832 11.3685C2.00625 11.3823 1.99148 11.3934 1.97492 11.4013C1.95837 11.4091 1.94037 11.4134 1.92207 11.414C1.90376 11.4146 1.88552 11.4114 1.8685 11.4047C1.85147 11.3979 1.83602 11.3877 1.82309 11.3747C1.81016 11.3618 1.80004 11.3463 1.79336 11.3292C1.78667 11.3122 1.78356 11.2939 1.78423 11.2756C1.78489 11.2573 1.78931 11.2393 1.79721 11.2228C1.80511 11.2063 1.81632 11.1916 1.83015 11.1795L6.37929 6.63118C6.40454 6.60712 6.4382 6.59389 6.47308 6.59432C6.50796 6.59474 6.54129 6.60879 6.56595 6.63345C6.59061 6.65812 6.60466 6.69144 6.60508 6.72632C6.60551 6.7612 6.59228 6.79486 6.56823 6.82011L6.56746 6.81935Z" fill="#A2AAAF"/>
<path d="M10.5337 5.78423L10.6557 5.66219H10.6552C10.9622 5.35454 11.1346 4.93769 11.1346 4.50309C11.1346 4.06848 10.9622 3.65163 10.6552 3.34398C10.3457 3.03442 9.93393 2.86426 9.49589 2.86426C9.28061 2.86366 9.06735 2.90575 8.86843 2.98809C8.66952 3.07044 8.4889 3.1914 8.33703 3.34398L8.215 3.46602L10.5337 5.78423Z" fill="white"/>
</g>
<defs>
<clipPath id="clip0_40000693_2669">
<rect width="14" height="14" fill="white"/>
</clipPath>
</defs>
</svg>
