<svg width="16" height="16" viewBox="0 0 16 16" fill="none" xmlns="http://www.w3.org/2000/svg">
<path d="M4.43326 9.55455H2.28527C2.22929 9.55454 2.17556 9.57657 2.1357 9.61587C2.09584 9.65517 2.07305 9.70858 2.07227 9.76455V13.6885C2.07227 13.8085 2.16827 13.9045 2.28527 13.9045H13.8592C13.9762 13.9045 14.0722 13.8085 14.0722 13.6885V9.76755C14.0726 9.73933 14.0674 9.71131 14.0569 9.68512C14.0464 9.65893 14.0307 9.63509 14.0109 9.61499C13.9911 9.5949 13.9675 9.57894 13.9415 9.56804C13.9154 9.55715 13.8875 9.55155 13.8592 9.55155H11.7143C11.686 9.55155 11.6581 9.55715 11.632 9.56804C11.606 9.57894 11.5824 9.5949 11.5626 9.61499C11.5427 9.63509 11.5271 9.65893 11.5166 9.68512C11.5061 9.71131 11.5009 9.73933 11.5013 9.76755V11.0785C11.5013 11.1985 11.4053 11.2945 11.2853 11.2945H4.86526C4.83678 11.295 4.80851 11.2896 4.78213 11.2789C4.75574 11.2682 4.73177 11.2523 4.71163 11.2322C4.69149 11.212 4.67559 11.1881 4.66488 11.1617C4.65417 11.1353 4.64886 11.107 4.64926 11.0785V9.76755C4.64966 9.73933 4.64444 9.71131 4.63392 9.68512C4.62339 9.65893 4.60777 9.63509 4.58795 9.61499C4.56813 9.5949 4.54451 9.57894 4.51847 9.56804C4.49243 9.55715 4.46449 9.55155 4.43626 9.55155L4.43326 9.55455Z" fill="#526FFF"/>
<path d="M8.37516 9.77761L11.6362 6.46561C11.8162 6.28561 11.8162 5.96762 11.5402 5.76962C11.5048 5.74569 11.4629 5.73313 11.4202 5.73362L9.80916 5.73362L9.80916 4.11662V2.49962C9.80916 2.38262 9.71316 2.28662 9.59616 2.28662L6.53917 2.28662C6.41917 2.28662 6.32617 2.38262 6.32617 2.49962V4.11662L6.32617 5.73362L4.80217 5.73362C4.71803 5.73433 4.63596 5.75977 4.56618 5.80677C4.49639 5.85377 4.44196 5.92025 4.40967 5.99795C4.37738 6.07564 4.36864 6.16112 4.38456 6.24374C4.40047 6.32636 4.44033 6.40247 4.49917 6.46261L7.76616 9.77761C7.80604 9.81779 7.85348 9.84968 7.90574 9.87145C7.958 9.89321 8.01405 9.90442 8.07066 9.90442C8.12728 9.90442 8.18333 9.89321 8.23559 9.87145C8.28785 9.84968 8.33529 9.81779 8.37516 9.77761Z" fill="#526FFF"/>
</svg>
