<svg width="20" height="20" viewBox="0 0 20 20" fill="none" xmlns="http://www.w3.org/2000/svg">
<path d="M19.3083 3.51155C19.6968 4.43974 19.7851 5.46627 19.5607 6.44715C19.3362 7.42803 18.8104 8.31407 18.057 8.98099C17.3035 9.64791 16.3602 10.0623 15.3593 10.1659C14.3585 10.2696 13.3503 10.0574 12.4761 9.55909L11.1428 11.0148L12.0943 11.9687L12.6614 11.4015C12.7304 11.332 12.8124 11.2769 12.9027 11.2392C12.9931 11.2016 13.09 11.1822 13.1879 11.1822C13.2857 11.1822 13.3826 11.2016 13.473 11.2392C13.5633 11.2769 13.6453 11.332 13.7143 11.4015L18.3259 16.0601C18.3954 16.1291 18.4506 16.2111 18.4882 16.3014C18.5259 16.3918 18.5452 16.4887 18.5452 16.5865C18.5452 16.6844 18.5259 16.7813 18.4882 16.8717C18.4506 16.962 18.3954 17.044 18.3259 17.113L16.2252 19.2137C16.1563 19.2831 16.0743 19.3383 15.9839 19.3759C15.8936 19.4136 15.7967 19.433 15.6988 19.433C15.6009 19.433 15.504 19.4136 15.4137 19.3759C15.3233 19.3383 15.2413 19.2831 15.1724 19.2137L10.5632 14.5563C10.4937 14.4874 10.4386 14.4054 10.4009 14.315C10.3633 14.2247 10.3439 14.1278 10.3439 14.0299C10.3439 13.932 10.3633 13.8351 10.4009 13.7447C10.4386 13.6544 10.4937 13.5724 10.5632 13.5035L11.081 12.9857L10.1752 12.0775L3.79897 19.0419C3.66121 19.1801 3.49752 19.2898 3.31727 19.3647C3.13703 19.4395 2.94379 19.478 2.74862 19.478C2.55346 19.478 2.36022 19.4395 2.17998 19.3647C1.99973 19.2898 1.83604 19.1801 1.69828 19.0419L1.17187 18.5155C1.03362 18.3777 0.923938 18.214 0.849096 18.0338C0.774253 17.8535 0.735728 17.6603 0.735728 17.4651C0.735728 17.27 0.774253 17.0767 0.849096 16.8965C0.923938 16.7162 1.03362 16.5525 1.17187 16.4148L8.43534 10.3314L3.61609 5.4961H2.08011L0.317993 2.65768L1.73658 1.23168L4.63678 3.01109L4.65655 4.50135L9.53512 9.40092L10.9549 8.21094C10.3272 7.36424 9.99434 6.33508 10.0074 5.28113C10.0204 4.22719 10.3786 3.20658 11.0271 2.37566C11.6756 1.54474 12.5786 0.949342 13.5978 0.680674C14.6171 0.412006 15.6962 0.484888 16.6701 0.888153L13.5437 3.97741L16.1758 6.60082L19.3095 3.51155H19.3083ZM2.9105 17.155C2.80657 17.0519 2.67445 16.9819 2.5308 16.9538C2.38714 16.9256 2.23838 16.9407 2.10326 16.997C1.96813 17.0533 1.8527 17.1483 1.7715 17.2701C1.6903 17.3919 1.64697 17.535 1.64697 17.6814C1.64697 17.8278 1.6903 17.9709 1.7715 18.0927C1.8527 18.2145 1.96813 18.3095 2.10326 18.3658C2.23838 18.4221 2.38714 18.4371 2.5308 18.409C2.67445 18.3809 2.80657 18.3109 2.9105 18.2078C2.97999 18.1389 3.03515 18.0569 3.07279 17.9665C3.11043 17.8762 3.12981 17.7793 3.12981 17.6814C3.12981 17.5835 3.11043 17.4866 3.07279 17.3962C3.03515 17.3059 2.97999 17.2239 2.9105 17.155Z" fill="white"/>
</svg>
