<svg width="24" height="20" viewBox="0 0 24 20" fill="none" xmlns="http://www.w3.org/2000/svg">
<path d="M21.2147 17.1762V8.78691C21.2147 7.74146 20.3673 6.89409 19.3218 6.89409H17.0695V17.1762H15.1107V2.71411C15.1107 1.66866 14.2633 0.821289 13.2179 0.821289H4.66531C3.61985 0.821289 2.77249 1.66866 2.77249 2.71411V17.1762H1.84808C1.58249 17.1762 1.32777 17.2817 1.13996 17.4695C0.952157 17.6573 0.846649 17.9121 0.846649 18.1777C0.846649 18.4433 0.952157 18.698 1.13996 18.8858C1.32777 19.0736 1.58249 19.1791 1.84808 19.1791H22.1519C22.4175 19.1791 22.6722 19.0736 22.86 18.8858C23.0478 18.698 23.1533 18.4433 23.1533 18.1777C23.1533 17.9121 23.0478 17.6573 22.86 17.4695C22.6722 17.2817 22.4175 17.1762 22.1519 17.1762H21.2147ZM10.9655 11.0832H6.9598V9.08037H10.9637V11.0832H10.9655ZM10.9655 6.94728H6.9598V4.94625H10.9637V6.94728H10.9655Z" fill="white"/>
</svg>
