<svg width="26" height="26" viewBox="0 0 26 26" fill="none" xmlns="http://www.w3.org/2000/svg">
<path d="M20.8605 5.8559L3.8001 12.4391C2.83867 12.8101 2.86276 13.3493 3.84912 13.642L7.97128 14.8651L9.64729 19.8521C9.86672 20.505 10.4399 20.6427 10.9303 20.157L13.0925 18.015L17.3607 21.1428C17.9152 21.5492 18.4854 21.3353 18.6351 20.6608L21.7497 6.62628C21.8989 5.95371 21.5014 5.6086 20.8605 5.8559ZM18.2643 9.02907L10.9872 15.5128C10.8563 15.6293 10.7379 15.8604 10.7198 16.0314L10.3985 19.0518C10.3624 19.391 10.2455 19.405 10.1376 19.0799L8.72951 14.8354C8.67443 14.6694 8.74989 14.4658 8.89697 14.3776L18.1257 8.84222C18.7138 8.48949 18.7764 8.57279 18.2643 9.02907Z" fill="white"/>
</svg>
