<svg width="22" height="22" viewBox="0 0 22 22" fill="none" xmlns="http://www.w3.org/2000/svg">
<path d="M18.7718 18.5487L12.8278 12.6047L12.6918 12.7503C12.2353 13.1971 11.6429 13.4496 11.0019 13.4496C10.3608 13.4496 9.76838 13.2068 9.31189 12.7503L9.16621 12.6047L3.22221 18.5487C3.3679 18.5875 3.52329 18.6166 3.68841 18.6166H18.3153C18.4707 18.6166 18.6164 18.5875 18.7718 18.5487ZM3.68646 3.98975C3.31739 3.98975 2.96774 4.10629 2.66666 4.30054C2.67637 4.30054 2.67637 4.31026 2.68608 4.31997L10.2229 11.8471C10.4366 12.0608 10.7182 12.1676 10.9999 12.1676C11.2816 12.1676 11.5632 12.0608 11.7769 11.8471L19.3332 4.30054C19.0321 4.10629 18.6824 3.98975 18.3134 3.98975H3.68646ZM20.1616 5.27567L13.732 11.7053L19.8605 17.8338C20.1422 17.4939 20.3073 17.0665 20.3073 16.6198V5.98468C20.3073 5.74187 20.2588 5.49905 20.1616 5.27567ZM2.12956 17.8338L8.2581 11.7053L1.83819 5.27567C1.74107 5.49905 1.6925 5.73215 1.6925 5.98468V16.6198C1.6925 17.0665 1.85762 17.4842 2.12956 17.8338Z" fill="white"/>
</svg>
