<svg width="18" height="20" viewBox="0 0 18 20" fill="none" xmlns="http://www.w3.org/2000/svg">
<path d="M12.578 1.24764C11.3284 0.707844 9.99853 0.437012 8.66678 0.437012C7.33503 0.437012 6.00142 0.707844 4.75372 1.24951L0.298998 3.17709V8.67218C0.295262 9.92361 0.51006 11.1638 0.930317 12.3406C1.3375 13.493 1.92212 14.5726 2.66178 15.542C3.4089 16.53 4.31105 17.3892 5.33087 18.0878C6.34509 18.7808 7.47512 19.2813 8.66491 19.5634C9.85284 19.2795 10.9791 18.7826 11.9896 18.0934C13.0094 17.3967 13.9116 16.5357 14.6587 15.5476C15.404 14.5763 15.9923 13.493 16.4032 12.3368C16.8235 11.1601 17.0364 9.91988 17.0346 8.66844V3.17709L12.578 1.24764ZM13.3139 7.69532L11.263 9.69387C11.2275 9.72749 11.2126 9.77792 11.2201 9.82648L11.7038 12.6487C11.7468 12.8934 11.489 13.0783 11.2705 12.9644L8.73589 11.6327C8.69293 11.6102 8.64063 11.6102 8.59767 11.6327L6.06305 12.9644C5.84452 13.0802 5.58676 12.8934 5.62972 12.6487L6.11348 9.82648C6.12096 9.77792 6.10601 9.72936 6.07053 9.69387L4.01967 7.69532C3.84223 7.52161 3.93936 7.22089 4.18591 7.1854L7.01937 6.77449C7.06793 6.76701 7.11089 6.73713 7.13144 6.6923L8.39781 4.12407C8.50802 3.9018 8.82367 3.9018 8.93388 4.12407L10.2002 6.6923C10.2227 6.73713 10.2638 6.76701 10.3123 6.77449L13.1458 7.1854C13.3923 7.22089 13.4913 7.52161 13.3139 7.69532Z" fill="white"/>
</svg>
