<svg width="19" height="20" viewBox="0 0 19 20" fill="none" xmlns="http://www.w3.org/2000/svg">
<path d="M8.06826 2.51629C8.84319 1.74115 9.81013 1.18579 10.8701 0.907041C11.9302 0.628287 13.0452 0.636143 14.1012 0.929804C15.1572 1.22346 16.1162 1.79239 16.8801 2.57837C17.6441 3.36434 18.1855 4.33916 18.449 5.40307C18.7125 6.46699 18.6886 7.58181 18.3798 8.63347C18.071 9.68513 17.4884 10.6359 16.6915 11.3884C15.8947 12.141 14.9122 12.6684 13.8446 12.9166C12.777 13.1648 11.6626 13.1249 10.6155 12.801L7.59135 15.8242L6.71748 14.9485C6.49995 14.7309 6.20915 14.6021 5.90182 14.5874C5.59449 14.5726 5.29268 14.6728 5.05527 14.8686L4.96695 14.9485C4.7496 15.166 4.62101 15.4566 4.60623 15.7637C4.59145 16.0708 4.69154 16.3724 4.887 16.6098L4.96695 16.6981L5.84082 17.5738L4.36082 19.0548C4.27661 19.139 4.17517 19.2039 4.06348 19.2451C3.95179 19.2864 3.83248 19.3029 3.71378 19.2937L1.00571 19.0855C0.809557 19.0703 0.625291 18.9855 0.486178 18.8464C0.347066 18.7073 0.262274 18.523 0.247111 18.3269L0.0388694 15.6188C0.0296192 15.5001 0.0461851 15.3808 0.0874283 15.2691C0.128672 15.1574 0.193614 15.056 0.27779 14.9717L6.53155 8.71799C6.19905 7.64229 6.16644 6.49624 6.43724 5.40338C6.70804 4.31051 7.27198 3.31228 8.06826 2.51629ZM10.9846 5.43167C10.7931 5.62316 10.6412 5.85049 10.5376 6.10068C10.4339 6.35087 10.3806 6.61902 10.3806 6.88983C10.3806 7.16063 10.4339 7.42879 10.5376 7.67898C10.6412 7.92917 10.7931 8.1565 10.9846 8.34799C11.1761 8.53947 11.4034 8.69137 11.6536 8.795C11.9038 8.89864 12.1719 8.95197 12.4427 8.95197C12.7135 8.95197 12.9817 8.89864 13.2319 8.795C13.4821 8.69137 13.7094 8.53947 13.9009 8.34799C14.2876 7.96126 14.5049 7.43674 14.5049 6.88983C14.5049 6.34291 14.2876 5.8184 13.9009 5.43167C13.5142 5.04494 12.9897 4.82768 12.4427 4.82768C11.8958 4.82768 11.3713 5.04494 10.9846 5.43167Z" fill="white"/>
</svg>
