<svg width="17" height="17" viewBox="0 0 17 17" fill="none" xmlns="http://www.w3.org/2000/svg">
<path d="M8.50008 9.83332V15.1667H3.16675C3.16675 13.7522 3.72865 12.3956 4.72885 11.3954C5.72904 10.3952 7.08559 9.83332 8.50008 9.83332ZM8.50008 9.16666C6.29008 9.16666 4.50008 7.37666 4.50008 5.16666C4.50008 2.95666 6.29008 1.16666 8.50008 1.16666C10.7101 1.16666 12.5001 2.95666 12.5001 5.16666C12.5001 7.37666 10.7101 9.16666 8.50008 9.16666ZM14.5001 11.8333H15.1667V15.1667H9.83342V11.8333H10.5001V11.1667C10.5001 10.6362 10.7108 10.1275 11.0859 9.75244C11.4609 9.37737 11.9696 9.16666 12.5001 9.16666C13.0305 9.16666 13.5392 9.37737 13.9143 9.75244C14.2894 10.1275 14.5001 10.6362 14.5001 11.1667V11.8333ZM13.1667 11.8333V11.1667C13.1667 10.9898 13.0965 10.8203 12.9715 10.6953C12.8465 10.5702 12.6769 10.5 12.5001 10.5C12.3233 10.5 12.1537 10.5702 12.0287 10.6953C11.9037 10.8203 11.8334 10.9898 11.8334 11.1667V11.8333H13.1667Z" fill="white"/>
</svg>
