<svg width="16" height="16" viewBox="0 0 16 16" fill="none" xmlns="http://www.w3.org/2000/svg">
<rect x="3.5" y="3.5" width="9" height="9" rx="4.5" stroke="#FF8401"/>
<path d="M8 5C8.39397 5 8.78407 5.0776 9.14805 5.22836C9.51203 5.37913 9.84274 5.6001 10.1213 5.87868C10.3999 6.15726 10.6209 6.48797 10.7716 6.85195C10.9224 7.21593 11 7.60603 11 8C11 8.39397 10.9224 8.78407 10.7716 9.14805C10.6209 9.51203 10.3999 9.84274 10.1213 10.1213C9.84274 10.3999 9.51203 10.6209 9.14805 10.7716C8.78407 10.9224 8.39397 11 8 11L8 8L8 5Z" fill="#FF8401"/>
</svg>
