<svg width="16" height="16" viewBox="0 0 16 16" fill="none" xmlns="http://www.w3.org/2000/svg">
<path d="M13.1666 7.99984C13.1666 5.14655 10.8532 2.83317 7.99996 2.83317C6.46344 2.83317 5.0843 3.50437 4.13798 4.56885L5.73564 6.1665H1.16663V1.59749L2.95894 3.38916C4.2078 2.02484 6.00321 1.1665 7.99996 1.1665C11.774 1.1665 14.8333 4.22579 14.8333 7.99984C14.8333 11.7739 11.774 14.8332 7.99996 14.8332C4.22591 14.8332 1.16663 11.7739 1.16663 7.99984V7.83317H2.83329V7.99984C2.83329 10.8531 5.14667 13.1665 7.99996 13.1665C10.8532 13.1665 13.1666 10.8531 13.1666 7.99984ZM8.83329 7.65413L11.0644 9.88525L9.88538 11.0643L7.16663 8.34424V4.49984H8.83329V7.65413Z" fill="#00AB9A"/>
</svg>
