<svg width="38" height="38" viewBox="0 0 38 38" fill="none" xmlns="http://www.w3.org/2000/svg">
<rect x="1" y="1" width="36" height="36" rx="18" fill="#00AB9A"/>
<rect x="1" y="1" width="36" height="36" rx="18" stroke="#CFD0D3" stroke-width="1.125" stroke-linejoin="bevel"/>
<path d="M26.7718 26.5487L20.8278 20.6047L20.6918 20.7503C20.2353 21.1971 19.6429 21.4496 19.0019 21.4496C18.3608 21.4496 17.7684 21.2068 17.3119 20.7503L17.1662 20.6047L11.2222 26.5487C11.3679 26.5875 11.5233 26.6166 11.6884 26.6166H26.3153C26.4707 26.6166 26.6164 26.5875 26.7718 26.5487ZM11.6865 11.9897C11.3174 11.9897 10.9677 12.1063 10.6667 12.3005C10.6764 12.3005 10.6764 12.3103 10.6861 12.32L18.2229 19.8471C18.4366 20.0608 18.7182 20.1676 18.9999 20.1676C19.2816 20.1676 19.5632 20.0608 19.7769 19.8471L27.3332 12.3005C27.0321 12.1063 26.6824 11.9897 26.3134 11.9897H11.6865ZM28.1616 13.2757L21.732 19.7053L27.8605 25.8338C28.1422 25.4939 28.3073 25.0665 28.3073 24.6198V13.9847C28.3073 13.7419 28.2588 13.4991 28.1616 13.2757ZM10.1296 25.8338L16.2581 19.7053L9.83819 13.2757C9.74107 13.4991 9.6925 13.7322 9.6925 13.9847V24.6198C9.6925 25.0665 9.85762 25.4842 10.1296 25.8338Z" fill="white"/>
</svg>
