<svg width="14" height="14" viewBox="0 0 14 14" xmlns="http://www.w3.org/2000/svg">
<path d="M7.00002 6.4165C7.77357 6.4165 8.51543 6.72379 9.06242 7.27078C9.6094 7.81776 9.91669 8.55962 9.91669 9.33317V12.8332H4.08335V9.33317C4.08335 8.55962 4.39064 7.81776 4.93763 7.27078C5.48461 6.72379 6.22647 6.4165 7.00002 6.4165ZM3.08469 8.17C2.99185 8.48313 2.93702 8.80628 2.92135 9.1325L2.91669 9.33317V12.8332H1.16669V10.2082C1.16657 9.70509 1.3522 9.21968 1.68797 8.84504C2.02374 8.47041 2.48601 8.23294 2.9861 8.17817L3.08527 8.17H3.08469ZM10.9154 8.17C11.4345 8.20165 11.922 8.43015 12.2784 8.80889C12.6348 9.18764 12.8333 9.68809 12.8334 10.2082V12.8332H11.0834V9.33317C11.0834 8.92892 11.025 8.53867 10.9154 8.17ZM3.20835 4.6665C3.59513 4.6665 3.96606 4.82015 4.23955 5.09364C4.51304 5.36713 4.66669 5.73806 4.66669 6.12484C4.66669 6.51161 4.51304 6.88254 4.23955 7.15603C3.96606 7.42953 3.59513 7.58317 3.20835 7.58317C2.82158 7.58317 2.45065 7.42953 2.17716 7.15603C1.90367 6.88254 1.75002 6.51161 1.75002 6.12484C1.75002 5.73806 1.90367 5.36713 2.17716 5.09364C2.45065 4.82015 2.82158 4.6665 3.20835 4.6665ZM10.7917 4.6665C11.1785 4.6665 11.5494 4.82015 11.8229 5.09364C12.0964 5.36713 12.25 5.73806 12.25 6.12484C12.25 6.51161 12.0964 6.88254 11.8229 7.15603C11.5494 7.42953 11.1785 7.58317 10.7917 7.58317C10.4049 7.58317 10.034 7.42953 9.76049 7.15603C9.487 6.88254 9.33335 6.51161 9.33335 6.12484C9.33335 5.73806 9.487 5.36713 9.76049 5.09364C10.034 4.82015 10.4049 4.6665 10.7917 4.6665ZM7.00002 1.1665C7.61886 1.1665 8.21235 1.41234 8.64994 1.84992C9.08752 2.28751 9.33335 2.881 9.33335 3.49984C9.33335 4.11868 9.08752 4.71217 8.64994 5.14975C8.21235 5.58734 7.61886 5.83317 7.00002 5.83317C6.38118 5.83317 5.78769 5.58734 5.3501 5.14975C4.91252 4.71217 4.66669 4.11868 4.66669 3.49984C4.66669 2.881 4.91252 2.28751 5.3501 1.84992C5.78769 1.41234 6.38118 1.1665 7.00002 1.1665Z"/>
</svg>
