<svg width="64" height="64" viewBox="0 0 64 64" fill="none" xmlns="http://www.w3.org/2000/svg">
<g filter="url(#filter0_i_2575_25746)">
<path d="M1 32C1 10.61 10.61 1 32 1C53.39 1 63 10.61 63 32C63 53.39 53.39 63 32 63C10.61 63 1 53.39 1 32Z" fill="#D3DBE0"/>
</g>
<path d="M2 32C2 21.4323 4.37621 13.9955 9.18586 9.18586C13.9955 4.37621 21.4323 2 32 2C42.5677 2 50.0045 4.37621 54.8141 9.18586C59.6238 13.9955 62 21.4323 62 32C62 42.5677 59.6238 50.0045 54.8141 54.8141C50.0045 59.6238 42.5677 62 32 62C21.4323 62 13.9955 59.6238 9.18586 54.8141C4.37621 50.0045 2 42.5677 2 32Z" stroke="url(#paint0_linear_2575_25746)" stroke-width="2" style="mix-blend-mode:overlay"/>
<mask id="mask0_2575_25746" style="mask-type:alpha" maskUnits="userSpaceOnUse" x="0" y="0" width="64" height="64">
<path d="M1 32C1 21.0873 3.45371 13.4005 8.42711 8.42711C13.4005 3.45371 21.0873 1 32 1C42.9127 1 50.5995 3.45371 55.5729 8.42711C60.5463 13.4005 63 21.0873 63 32C63 42.9127 60.5463 50.5995 55.5729 55.5729C50.5995 60.5463 42.9127 63 32 63C21.0873 63 13.4005 60.5463 8.42711 55.5729C3.45371 50.5995 1 42.9127 1 32Z" fill="#0099FF"/>
<path d="M1 32C1 21.0873 3.45371 13.4005 8.42711 8.42711C13.4005 3.45371 21.0873 1 32 1C42.9127 1 50.5995 3.45371 55.5729 8.42711C60.5463 13.4005 63 21.0873 63 32C63 42.9127 60.5463 50.5995 55.5729 55.5729C50.5995 60.5463 42.9127 63 32 63C21.0873 63 13.4005 60.5463 8.42711 55.5729C3.45371 50.5995 1 42.9127 1 32Z" stroke="url(#paint1_linear_2575_25746)" stroke-width="2"/>
</mask>
<g mask="url(#mask0_2575_25746)">
<g filter="url(#filter1_ddii_2575_25746)">
<path d="M32.4499 14.2665L38.9451 34.3039C38.9926 34.392 39.0098 34.4915 38.9945 34.589C38.9792 34.6865 38.9321 34.7773 38.8596 34.849C38.7871 34.9207 38.6926 34.9699 38.589 34.99C38.4855 35.01 38.3778 34.9999 38.2806 34.961L32 31.4004L25.679 35C25.5805 35.0306 25.4742 35.0328 25.3743 35.0063C25.2744 34.9797 25.1854 34.9256 25.119 34.8512C25.0526 34.7767 25.0119 34.6853 25.0022 34.5889C24.9926 34.4925 25.0144 34.3956 25.0648 34.311L31.5373 14.2468C31.583 14.1704 31.6503 14.107 31.7318 14.0635C31.8133 14.02 31.9061 13.9981 32 14.0001C32.0939 14.0022 32.1855 14.028 32.2648 14.075C32.344 14.1219 32.408 14.1882 32.4499 14.2665Z" fill="#11191E"/>
</g>
<path d="M15.1456 48V39.6H16.4296L21.6976 46.068H21.0616V39.6H22.6096V48H21.3256L16.0576 41.532H16.6936V48H15.1456ZM27.5964 48.084C26.9404 48.084 26.3564 47.944 25.8444 47.664C25.3324 47.376 24.9284 46.984 24.6324 46.488C24.3364 45.992 24.1884 45.428 24.1884 44.796C24.1884 44.156 24.3364 43.592 24.6324 43.104C24.9284 42.608 25.3324 42.22 25.8444 41.94C26.3564 41.66 26.9404 41.52 27.5964 41.52C28.2604 41.52 28.8484 41.66 29.3604 41.94C29.8804 42.22 30.2844 42.604 30.5724 43.092C30.8684 43.58 31.0164 44.148 31.0164 44.796C31.0164 45.428 30.8684 45.992 30.5724 46.488C30.2844 46.984 29.8804 47.376 29.3604 47.664C28.8484 47.944 28.2604 48.084 27.5964 48.084ZM27.5964 46.8C27.9644 46.8 28.2924 46.72 28.5804 46.56C28.8684 46.4 29.0924 46.168 29.2524 45.864C29.4204 45.56 29.5044 45.204 29.5044 44.796C29.5044 44.38 29.4204 44.024 29.2524 43.728C29.0924 43.424 28.8684 43.192 28.5804 43.032C28.2924 42.872 27.9684 42.792 27.6084 42.792C27.2404 42.792 26.9124 42.872 26.6244 43.032C26.3444 43.192 26.1204 43.424 25.9524 43.728C25.7844 44.024 25.7004 44.38 25.7004 44.796C25.7004 45.204 25.7844 45.56 25.9524 45.864C26.1204 46.168 26.3444 46.4 26.6244 46.56C26.9124 46.72 27.2364 46.8 27.5964 46.8ZM32.4508 48V41.592H33.8788V43.356L33.7108 42.84C33.9028 42.408 34.2028 42.08 34.6108 41.856C35.0268 41.632 35.5428 41.52 36.1588 41.52V42.948C36.0948 42.932 36.0348 42.924 35.9788 42.924C35.9228 42.916 35.8668 42.912 35.8108 42.912C35.2428 42.912 34.7908 43.08 34.4548 43.416C34.1188 43.744 33.9508 44.236 33.9508 44.892V48H32.4508ZM40.0776 48.084C39.3736 48.084 38.8296 47.904 38.4456 47.544C38.0616 47.176 37.8696 46.636 37.8696 45.924V40.176H39.3696V45.888C39.3696 46.192 39.4456 46.428 39.5976 46.596C39.7576 46.764 39.9776 46.848 40.2576 46.848C40.5936 46.848 40.8736 46.76 41.0976 46.584L41.5176 47.652C41.3416 47.796 41.1256 47.904 40.8696 47.976C40.6136 48.048 40.3496 48.084 40.0776 48.084ZM36.8136 42.84V41.64H41.0856V42.84H36.8136ZM46.3876 41.52C46.8996 41.52 47.3556 41.62 47.7556 41.82C48.1636 42.02 48.4836 42.328 48.7156 42.744C48.9476 43.152 49.0636 43.68 49.0636 44.328V48H47.5636V44.52C47.5636 43.952 47.4276 43.528 47.1556 43.248C46.8916 42.968 46.5196 42.828 46.0396 42.828C45.6876 42.828 45.3756 42.9 45.1036 43.044C44.8316 43.188 44.6196 43.404 44.4676 43.692C44.3236 43.972 44.2516 44.328 44.2516 44.76V48H42.7516V39.096H44.2516V43.32L43.9276 42.792C44.1516 42.384 44.4756 42.072 44.8996 41.856C45.3316 41.632 45.8276 41.52 46.3876 41.52Z" fill="#11191E"/>
</g>
<defs>
<filter id="filter0_i_2575_25746" x="1" y="1" width="64" height="64" filterUnits="userSpaceOnUse" color-interpolation-filters="sRGB">
<feFlood flood-opacity="0" result="BackgroundImageFix"/>
<feBlend mode="normal" in="SourceGraphic" in2="BackgroundImageFix" result="shape"/>
<feColorMatrix in="SourceAlpha" type="matrix" values="0 0 0 0 0 0 0 0 0 0 0 0 0 0 0 0 0 0 127 0" result="hardAlpha"/>
<feOffset dx="2" dy="2"/>
<feGaussianBlur stdDeviation="2"/>
<feComposite in2="hardAlpha" operator="arithmetic" k2="-1" k3="1"/>
<feColorMatrix type="matrix" values="0 0 0 0 0.0666667 0 0 0 0 0.0980392 0 0 0 0 0.117647 0 0 0 0.1 0"/>
<feBlend mode="normal" in2="shape" result="effect1_innerShadow_2575_25746"/>
</filter>
<filter id="filter1_ddii_2575_25746" x="8.85714" y="0.857143" width="47.1429" height="47.1429" filterUnits="userSpaceOnUse" color-interpolation-filters="sRGB">
<feFlood flood-opacity="0" result="BackgroundImageFix"/>
<feColorMatrix in="SourceAlpha" type="matrix" values="0 0 0 0 0 0 0 0 0 0 0 0 0 0 0 0 0 0 127 0" result="hardAlpha"/>
<feOffset dx="2.57143" dy="2.57143"/>
<feGaussianBlur stdDeviation="4.71429"/>
<feComposite in2="hardAlpha" operator="out"/>
<feColorMatrix type="matrix" values="0 0 0 0 1 0 0 0 0 1 0 0 0 0 1 0 0 0 1 0"/>
<feBlend mode="normal" in2="BackgroundImageFix" result="effect1_dropShadow_2575_25746"/>
<feColorMatrix in="SourceAlpha" type="matrix" values="0 0 0 0 0 0 0 0 0 0 0 0 0 0 0 0 0 0 127 0" result="hardAlpha"/>
<feOffset dx="-2.57143" dy="-2.57143"/>
<feGaussianBlur stdDeviation="4.28571"/>
<feComposite in2="hardAlpha" operator="out"/>
<feColorMatrix type="matrix" values="0 0 0 0 1 0 0 0 0 1 0 0 0 0 1 0 0 0 0.4 0"/>
<feBlend mode="normal" in2="effect1_dropShadow_2575_25746" result="effect2_dropShadow_2575_25746"/>
<feBlend mode="normal" in="SourceGraphic" in2="effect2_dropShadow_2575_25746" result="shape"/>
<feColorMatrix in="SourceAlpha" type="matrix" values="0 0 0 0 0 0 0 0 0 0 0 0 0 0 0 0 0 0 127 0" result="hardAlpha"/>
<feOffset dy="-1.28571"/>
<feGaussianBlur stdDeviation="0.985714"/>
<feComposite in2="hardAlpha" operator="arithmetic" k2="-1" k3="1"/>
<feColorMatrix type="matrix" values="0 0 0 0 0 0 0 0 0 0.615385 0 0 0 0 1 0 0 0 0.4 0"/>
<feBlend mode="normal" in2="shape" result="effect3_innerShadow_2575_25746"/>
<feColorMatrix in="SourceAlpha" type="matrix" values="0 0 0 0 0 0 0 0 0 0 0 0 0 0 0 0 0 0 127 0" result="hardAlpha"/>
<feOffset dy="-0.428571"/>
<feGaussianBlur stdDeviation="0.557143"/>
<feComposite in2="hardAlpha" operator="arithmetic" k2="-1" k3="1"/>
<feColorMatrix type="matrix" values="0 0 0 0 1 0 0 0 0 1 0 0 0 0 1 0 0 0 0.6 0"/>
<feBlend mode="normal" in2="effect3_innerShadow_2575_25746" result="effect4_innerShadow_2575_25746"/>
</filter>
<linearGradient id="paint0_linear_2575_25746" x1="11.54" y1="17.74" x2="58.04" y2="74.78" gradientUnits="userSpaceOnUse">
<stop stop-color="#11191E" stop-opacity="0.4"/>
<stop offset="0.992881" stop-color="white"/>
</linearGradient>
<linearGradient id="paint1_linear_2575_25746" x1="10.88" y1="17.28" x2="58.88" y2="76.16" gradientUnits="userSpaceOnUse">
<stop stop-color="#11191E" stop-opacity="0.4"/>
<stop offset="0.992881" stop-color="white"/>
</linearGradient>
</defs>
</svg>
