<svg width="38" height="38" viewBox="0 0 38 38" fill="none" xmlns="http://www.w3.org/2000/svg">
<rect x="1" y="1" width="36" height="36" rx="18" fill="#526FFF"/>
<rect x="1" y="1" width="36" height="36" rx="18" stroke="#CFD0D3" stroke-width="1.125" stroke-linejoin="bevel"/>
<path d="M26.8605 11.8559L9.8001 18.4391C8.83867 18.8101 8.86276 19.3493 9.84912 19.642L13.9713 20.8651L15.6473 25.8521C15.8667 26.505 16.4399 26.6427 16.9303 26.157L19.0925 24.015L23.3607 27.1428C23.9152 27.5492 24.4854 27.3353 24.6351 26.6608L27.7497 12.6263C27.8989 11.9537 27.5014 11.6086 26.8605 11.8559ZM24.2643 15.0291L16.9872 21.5128C16.8563 21.6293 16.7379 21.8604 16.7198 22.0314L16.3985 25.0518C16.3624 25.391 16.2455 25.405 16.1376 25.0799L14.7295 20.8354C14.6744 20.6694 14.7499 20.4658 14.897 20.3776L24.1257 14.8422C24.7138 14.4895 24.7764 14.5728 24.2643 15.0291Z" fill="white"/>
</svg>
