<svg width="24" height="24" viewBox="0 0 24 24" fill="none" xmlns="http://www.w3.org/2000/svg">
<path d="M13.4833 7.20167C14.82 7.20167 15.9117 8.22167 15.9117 9.46667V13.0283C15.9117 13.9017 15.3717 14.6683 14.585 15.045V22H12.7833L12.06 17.5933L11.3383 22H9.375V15.0383C8.59667 14.66 8.06167 13.9 8.06167 13.0283V9.46667C8.06167 8.22 9.155 7.20167 10.49 7.20167H13.4833ZM19.7667 7.59167C20.9933 7.59167 22 8.52833 22 9.67167V12.95C22 13.75 21.51 14.4483 20.795 14.795V21.1917H18.9917L18.3283 17.1417L17.665 21.1917H16.0083V15.415C16.6883 14.7983 17.09 13.9417 17.09 13.0333V9.47C17.0901 8.81761 16.8868 8.18141 16.5083 7.65C16.6772 7.61093 16.85 7.59136 17.0233 7.59167H19.7667ZM6.98 7.58833C7.15333 7.58833 7.32333 7.60833 7.49333 7.64667C7.125 8.17167 6.91167 8.79667 6.91167 9.46667V13.0283C6.91167 13.9267 7.3 14.7833 7.99 15.4133H7.99167V21.1867H6.335L5.67167 17.1367L5.00833 21.1867H3.20833V14.7867C2.46667 14.4317 2 13.72 2 12.9433V9.66833C2 8.52667 3.00333 7.58833 4.23167 7.58833H6.98ZM5.66667 2.80833C6.965 2.80833 8.02 3.78833 8.02 4.99833C8.02 6.20833 6.97 7.19 5.66667 7.19C4.36667 7.19 3.31833 6.21 3.31833 4.99833C3.31667 3.78667 4.36833 2.80833 5.66833 2.80833H5.66667ZM18.3333 2.80833C19.6317 2.80833 20.6833 3.78667 20.6833 4.99833C20.6833 6.21 19.6317 7.19 18.3333 7.19C17.0333 7.19 15.9833 6.20667 15.9833 4.99833C15.9833 3.78833 17.0333 2.80833 18.3333 2.80833ZM12.0583 2C13.4717 2 14.6167 3.06667 14.6167 4.38667C14.6167 5.70333 13.4717 6.77167 12.0583 6.77167C10.6433 6.77167 9.49833 5.705 9.49833 4.38667C9.49667 3.06333 10.6417 2 12.0567 2H12.0583Z" fill="#41494E"/>
</svg>
