<svg width="40" height="40" viewBox="0 0 40 40" fill="none" xmlns="http://www.w3.org/2000/svg">
<g clip-path="url(#clip0_15879_132795)">
<mask id="mask0_15879_132795" style="mask-type:alpha" maskUnits="userSpaceOnUse" x="0" y="0" width="40" height="40">
<path d="M20 0.799805C26.7982 0.799805 31.5477 2.32891 34.6094 5.39062C37.6711 8.45234 39.2002 13.2018 39.2002 20C39.2002 26.7982 37.6711 31.5477 34.6094 34.6094C31.5477 37.6711 26.7982 39.2002 20 39.2002C13.2018 39.2002 8.45234 37.6711 5.39062 34.6094C2.32891 31.5477 0.799805 26.7982 0.799805 20C0.799805 13.2018 2.32891 8.45234 5.39062 5.39062C8.45234 2.32891 13.2018 0.799805 20 0.799805Z" fill="#0099FF"/>
<path d="M20 0.799805C26.7982 0.799805 31.5477 2.32891 34.6094 5.39062C37.6711 8.45234 39.2002 13.2018 39.2002 20C39.2002 26.7982 37.6711 31.5477 34.6094 34.6094C31.5477 37.6711 26.7982 39.2002 20 39.2002C13.2018 39.2002 8.45234 37.6711 5.39062 34.6094C2.32891 31.5477 0.799805 26.7982 0.799805 20C0.799805 13.2018 2.32891 8.45234 5.39062 5.39062C8.45234 2.32891 13.2018 0.799805 20 0.799805Z" stroke="url(#paint0_linear_15879_132795)" stroke-width="1.6"/>
</mask>
<g mask="url(#mask0_15879_132795)">
<g filter="url(#filter0_di_15879_132795)">
<path d="M3.31444 10.8855C4.5941 7.36644 7.36607 4.59447 10.8851 3.3148C11.6635 3.03176 12.4678 2.82579 13.2864 2.69985L15.1542 2.4125C18.3658 1.9184 21.6341 1.9184 24.8458 2.4125L26.7135 2.69985C27.5321 2.82579 28.3364 3.03176 29.1148 3.3148C32.6338 4.59447 35.4058 7.36644 36.6855 10.8855C36.9685 11.6639 37.1745 12.4681 37.3004 13.2867L37.6428 15.5119C38.0999 18.4834 38.0587 21.5103 37.5209 24.4683L37.3452 25.4346C37.1894 26.2917 36.9614 27.1341 36.6637 27.9528L36.4549 28.5271C35.3025 31.6962 33.0332 34.3357 30.0728 35.9505C28.6646 36.7186 27.1336 37.2362 25.5481 37.4801L23.7155 37.762C21.2529 38.1409 18.747 38.1409 16.2845 37.762L14.4518 37.4801C12.8663 37.2362 11.3353 36.7186 9.92709 35.9505C6.96674 34.3357 4.69743 31.6962 3.54504 28.5271L3.33621 27.9528C3.0385 27.1341 2.81051 26.2917 2.65468 25.4346L2.47899 24.4683C1.94117 21.5103 1.9 18.4834 2.35715 15.5119L2.69948 13.2867C2.82542 12.4681 3.03139 11.6639 3.31444 10.8855Z" fill="#0099FF"/>
<path d="M15.2682 3.15332C18.4042 2.67086 21.596 2.67085 24.7321 3.15332L26.5992 3.44141C27.3692 3.55986 28.1259 3.75334 28.858 4.01953C32.1686 5.22337 34.7772 7.83104 35.9811 11.1416C36.2473 11.8737 36.4407 12.6304 36.5592 13.4004L36.901 15.626C37.3455 18.5151 37.3057 21.458 36.7828 24.334L36.6071 25.3008C36.4588 26.1161 36.2418 26.9175 35.9586 27.6963L35.7496 28.2705C34.6597 31.2679 32.5135 33.7647 29.7135 35.292C28.3816 36.0185 26.9337 36.5086 25.4342 36.7393L23.6012 37.0205C21.2143 37.3877 18.7849 37.3877 16.3981 37.0205L14.566 36.7393C13.0665 36.5086 11.6177 36.0185 10.2858 35.292C7.48596 33.7647 5.33955 31.2678 4.24963 28.2705L4.04065 27.6963C3.75747 26.9175 3.54047 26.1161 3.39221 25.3008L3.21643 24.334C2.69357 21.4581 2.6538 18.515 3.09827 15.626L3.44104 13.4004C3.55952 12.6304 3.75294 11.8737 4.01917 11.1416C5.22302 7.83115 7.83078 5.22338 11.1412 4.01953C11.8733 3.75331 12.6301 3.55989 13.4 3.44141L15.2682 3.15332Z" stroke="url(#paint1_linear_15879_132795)" stroke-width="1.5" style="mix-blend-mode:overlay"/>
</g>
<g filter="url(#filter1_ddii_15879_132795)">
<path d="M24.6864 9.30566C25.1957 9.30583 25.6024 9.71331 25.6024 10.2217V12.5117C25.653 12.5623 25.756 12.6135 25.8075 12.665C27.0799 13.5809 28.0476 14.9545 28.6591 16.5322C29.8293 16.685 30.694 17.6511 30.6942 18.8213V20.959C30.694 22.1293 29.8795 23.0449 28.7596 23.249C28.1481 25.0301 27.0284 26.5568 25.5516 27.4727C24.0234 28.4905 22.2917 28.7947 19.8983 28.7451H19.6434C17.6066 28.6936 16.2305 28.4384 14.9579 27.7773C13.4812 26.9636 12.2591 25.59 11.495 23.9102L11.1893 23.1475C10.6453 22.9794 10.1688 22.6412 9.82996 22.1836C9.49121 21.726 9.30754 21.1719 9.30554 20.6025V19.127C9.30554 17.9059 10.1709 16.8375 11.2919 16.5312C11.9024 14.9039 12.8704 13.4783 14.245 12.5625L14.3983 12.4609V10.2734C14.3983 9.764 14.8068 9.35645 15.3153 9.35645C15.8245 9.35669 16.2313 9.76512 16.2313 10.2725V11.6973C16.6386 11.5447 17.0967 11.4422 17.5555 11.3916L17.8104 11.3418L18.0653 11.29C18.5232 11.2395 19.0325 11.1885 19.5419 11.1885H19.8475C21.2736 11.1885 22.546 11.3415 23.6659 11.6973V10.2725C23.768 9.71441 24.176 9.30566 24.6864 9.30566ZM19.9989 15.1768C18.1652 15.1768 16.634 15.3498 15.4852 15.5469C14.0441 15.7943 13.1161 17.0876 13.1161 18.5498V19.6211C13.1163 21.7141 14.9619 23.3262 17.036 23.0449L18.5477 22.8398C19.5107 22.7093 20.4871 22.7093 21.4501 22.8398L22.9618 23.0449C25.0359 23.3262 26.8825 21.7141 26.8827 19.6211V18.5498C26.8827 17.0876 25.9537 15.7942 24.5126 15.5469C23.3638 15.3498 21.8326 15.1768 19.9989 15.1768ZM19.9969 20.0352C20.2847 20.0402 20.56 20.1569 20.7635 20.3604C20.9669 20.5638 21.0835 20.8384 21.0887 21.126C21.0938 21.4138 20.9871 21.6927 20.7909 21.9033C20.6893 22.0124 20.5667 22.1004 20.4305 22.1611C20.2942 22.2219 20.1462 22.2542 19.9969 22.2568C19.8479 22.2594 19.6997 22.2316 19.5614 22.1758C19.4234 22.12 19.2976 22.0378 19.1923 21.9326C19.0867 21.8271 19.003 21.6999 18.9471 21.5615C18.8914 21.4233 18.8635 21.2749 18.8661 21.126C18.8688 20.9772 18.9013 20.8303 18.9618 20.6943C19.0225 20.558 19.1114 20.4348 19.2206 20.333C19.4311 20.1369 19.7093 20.0302 19.9969 20.0352ZM19.9989 17.9414C20.9077 17.9414 21.7801 18.3027 22.4227 18.9453L22.5946 19.1172L21.4315 20.2793L21.2596 20.1074C21.0941 19.9419 20.8978 19.8103 20.6815 19.7207C20.4652 19.6312 20.233 19.585 19.9989 19.585C19.765 19.585 19.5334 19.6312 19.3173 19.7207C19.1009 19.8103 18.9037 19.9418 18.7382 20.1074L18.5663 20.2793L17.4042 19.1172L17.576 18.9453C18.2186 18.3028 19.0902 17.9415 19.9989 17.9414ZM19.9999 15.8682C20.754 15.8682 21.5014 16.0161 22.1981 16.3047C22.8948 16.5933 23.5272 17.0175 24.0604 17.5508L24.2323 17.7227L23.0692 18.8857L22.8973 18.7139C22.1287 17.9454 21.0868 17.5127 19.9999 17.5127C18.913 17.5127 17.871 17.9454 17.1024 18.7139L16.9305 18.8857L15.7675 17.7227L15.9393 17.5508C16.4725 17.0175 17.105 16.5933 17.8016 16.3047C18.4984 16.0161 19.2457 15.8682 19.9999 15.8682Z" fill="white"/>
</g>
</g>
</g>
<defs>
<filter id="filter0_di_15879_132795" x="0.0424805" y="1.04199" width="39.915" height="40.0039" filterUnits="userSpaceOnUse" color-interpolation-filters="sRGB">
<feFlood flood-opacity="0" result="BackgroundImageFix"/>
<feColorMatrix in="SourceAlpha" type="matrix" values="0 0 0 0 0 0 0 0 0 0 0 0 0 0 0 0 0 0 127 0" result="hardAlpha"/>
<feOffset dy="1"/>
<feGaussianBlur stdDeviation="1"/>
<feComposite in2="hardAlpha" operator="out"/>
<feColorMatrix type="matrix" values="0 0 0 0 0.0666667 0 0 0 0 0.0980392 0 0 0 0 0.117647 0 0 0 0.05 0"/>
<feBlend mode="normal" in2="BackgroundImageFix" result="effect1_dropShadow_15879_132795"/>
<feBlend mode="normal" in="SourceGraphic" in2="effect1_dropShadow_15879_132795" result="shape"/>
<feColorMatrix in="SourceAlpha" type="matrix" values="0 0 0 0 0 0 0 0 0 0 0 0 0 0 0 0 0 0 127 0" result="hardAlpha"/>
<feOffset dx="1.6" dy="1.6"/>
<feGaussianBlur stdDeviation="1.6"/>
<feComposite in2="hardAlpha" operator="arithmetic" k2="-1" k3="1"/>
<feColorMatrix type="matrix" values="0 0 0 0 0.0666667 0 0 0 0 0.0980392 0 0 0 0 0.117647 0 0 0 0.1 0"/>
<feBlend mode="normal" in2="shape" result="effect2_innerShadow_15879_132795"/>
</filter>
<filter id="filter1_ddii_15879_132795" x="-2.80948" y="-2.80985" width="46.4762" height="46.4759" filterUnits="userSpaceOnUse" color-interpolation-filters="sRGB">
<feFlood flood-opacity="0" result="BackgroundImageFix"/>
<feColorMatrix in="SourceAlpha" type="matrix" values="0 0 0 0 0 0 0 0 0 0 0 0 0 0 0 0 0 0 127 0" result="hardAlpha"/>
<feOffset dx="2.57143" dy="2.57143"/>
<feGaussianBlur stdDeviation="4.71429"/>
<feComposite in2="hardAlpha" operator="out"/>
<feColorMatrix type="matrix" values="0 0 0 0 0.321569 0 0 0 0 0.435294 0 0 0 0 1 0 0 0 1 0"/>
<feBlend mode="normal" in2="BackgroundImageFix" result="effect1_dropShadow_15879_132795"/>
<feColorMatrix in="SourceAlpha" type="matrix" values="0 0 0 0 0 0 0 0 0 0 0 0 0 0 0 0 0 0 127 0" result="hardAlpha"/>
<feOffset dx="-2.57143" dy="-2.57143"/>
<feGaussianBlur stdDeviation="4.28571"/>
<feComposite in2="hardAlpha" operator="out"/>
<feColorMatrix type="matrix" values="0 0 0 0 1 0 0 0 0 1 0 0 0 0 1 0 0 0 0.4 0"/>
<feBlend mode="normal" in2="effect1_dropShadow_15879_132795" result="effect2_dropShadow_15879_132795"/>
<feBlend mode="normal" in="SourceGraphic" in2="effect2_dropShadow_15879_132795" result="shape"/>
<feColorMatrix in="SourceAlpha" type="matrix" values="0 0 0 0 0 0 0 0 0 0 0 0 0 0 0 0 0 0 127 0" result="hardAlpha"/>
<feOffset dy="-1.28571"/>
<feGaussianBlur stdDeviation="0.985714"/>
<feComposite in2="hardAlpha" operator="arithmetic" k2="-1" k3="1"/>
<feColorMatrix type="matrix" values="0 0 0 0 0 0 0 0 0 0.598039 0 0 0 0 1 0 0 0 0.4 0"/>
<feBlend mode="normal" in2="shape" result="effect3_innerShadow_15879_132795"/>
<feColorMatrix in="SourceAlpha" type="matrix" values="0 0 0 0 0 0 0 0 0 0 0 0 0 0 0 0 0 0 127 0" result="hardAlpha"/>
<feOffset dy="-0.428571"/>
<feGaussianBlur stdDeviation="0.557143"/>
<feComposite in2="hardAlpha" operator="arithmetic" k2="-1" k3="1"/>
<feColorMatrix type="matrix" values="0 0 0 0 1 0 0 0 0 1 0 0 0 0 1 0 0 0 0.6 0"/>
<feBlend mode="normal" in2="effect3_innerShadow_15879_132795" result="effect4_innerShadow_15879_132795"/>
</filter>
<linearGradient id="paint0_linear_15879_132795" x1="6.8" y1="10.8" x2="36.8" y2="47.6" gradientUnits="userSpaceOnUse">
<stop stop-color="#11191E" stop-opacity="0.4"/>
<stop offset="1" stop-color="white"/>
</linearGradient>
<linearGradient id="paint1_linear_15879_132795" x1="7.89996" y1="11.567" x2="35.4" y2="45.3003" gradientUnits="userSpaceOnUse">
<stop stop-color="#11191E" stop-opacity="0.4"/>
<stop offset="1" stop-color="white"/>
</linearGradient>
<clipPath id="clip0_15879_132795">
<rect width="40" height="40" fill="white"/>
</clipPath>
</defs>
</svg>
