<svg width="16" height="20" viewBox="0 0 16 20" fill="none" xmlns="http://www.w3.org/2000/svg">
<path id="Vector" d="M14.5238 1.53241H12.29V1.11367C12.29 0.818305 12.1803 0.535039 11.9852 0.326186C11.79 0.117333 11.5254 0 11.2494 0H4.74783C4.47185 0 4.20718 0.117333 4.01203 0.326186C3.81688 0.535039 3.70725 0.818305 3.70725 1.11367V1.53241H1.47347C0.661811 1.53241 0.00277489 2.23476 0 3.10491V18.429C0.00277489 19.2976 0.661811 20 1.47485 20H14.5251C15.3382 20 15.9958 19.2976 16 18.4275V3.10342C15.9985 2.68596 15.8425 2.28616 15.566 1.99166C15.2895 1.69717 14.9152 1.53201 14.5251 1.53241H14.5238ZM5.09331 1.48489H10.9039V3.24894H5.09331V1.48489ZM14.4377 18.3295H1.55949V3.20291H3.70586V3.61868C3.70586 4.23491 4.17204 4.73235 4.74645 4.73235H11.2508C11.5268 4.73235 11.7914 4.61502 11.9866 4.40616C12.1817 4.19731 12.2914 3.91404 12.2914 3.61868V3.20291H14.4377V18.3295ZM4.31356 8.51437H11.6837C11.8002 8.51437 11.8571 8.57673 11.8571 8.70146V9.81513C11.8571 9.93838 11.8002 10.0007 11.6837 10.0007H4.31356C4.19702 10.0007 4.14013 9.93838 4.14013 9.81513V8.70146C4.14013 8.57673 4.19702 8.51585 4.31356 8.51585V8.51437ZM4.31356 12.6453H11.6837C11.8002 12.6453 11.8571 12.7077 11.8571 12.8309V13.9446C11.8571 14.0679 11.8002 14.1302 11.6837 14.1302H4.31356C4.19702 14.1302 4.14013 14.0679 4.14013 13.9446V12.8309C4.14013 12.7077 4.19702 12.6453 4.31356 12.6453Z" fill="#00BA4A"/>
</svg>
