<svg width="240" height="200" viewBox="0 0 1024 1024" fill="none" xmlns="http://www.w3.org/2000/svg">
<path d="M318.293 815.891H705.813C731.84 815.891 744.747 827.731 744.747 851.518V851.945C744.747 875.731 731.84 887.571 705.813 887.571H318.293C292.267 887.571 279.36 875.731 279.36 851.945V851.518C279.253 827.731 292.267 815.891 318.293 815.891ZM847.04 136.531H177.067C126.4 136.531 85.3333 173.971 85.3333 220.265V660.691C85.3333 706.985 126.4 744.425 177.067 744.425H846.933C897.6 744.425 938.667 706.985 938.667 660.691V220.265C938.773 173.971 897.707 136.531 847.04 136.531ZM318.08 571.625C318.08 591.465 307.2 601.385 285.44 601.385H273.067C251.307 601.385 240.427 591.465 240.427 571.625V380.905C240.427 361.065 251.307 351.145 273.067 351.145H285.44C307.2 351.145 318.08 361.065 318.08 380.905V571.625ZM473.173 565.971C473.173 589.545 460.267 601.385 434.453 601.385C408.533 601.385 395.733 589.545 395.733 565.971V493.651C395.733 470.078 408.64 458.238 434.453 458.238C460.373 458.238 473.173 470.078 473.173 493.651V565.971ZM628.373 565.971C628.373 589.545 615.467 601.385 589.653 601.385C563.733 601.385 550.933 589.545 550.933 565.971V314.985C550.933 291.411 563.84 279.571 589.653 279.571C615.573 279.571 628.373 291.411 628.373 314.985V565.971ZM783.573 565.971C783.573 589.545 770.667 601.385 744.853 601.385C718.933 601.385 706.133 589.545 706.133 565.971V458.025C706.133 434.451 719.04 422.611 744.853 422.611C770.773 422.611 783.573 434.451 783.573 458.025V565.971Z" fill="#41494E"/>
</svg>
