<svg width="40" height="40" viewBox="0 0 40 40" fill="none" xmlns="http://www.w3.org/2000/svg">
<g clip-path="url(#clip0_14797_65038)">
<mask id="mask0_14797_65038" style="mask-type:alpha" maskUnits="userSpaceOnUse" x="0" y="0" width="40" height="40">
<path d="M20 0.799805C26.7982 0.799805 31.5477 2.32891 34.6094 5.39062C37.6711 8.45234 39.2002 13.2018 39.2002 20C39.2002 26.7982 37.6711 31.5477 34.6094 34.6094C31.5477 37.6711 26.7982 39.2002 20 39.2002C13.2018 39.2002 8.45234 37.6711 5.39062 34.6094C2.32891 31.5477 0.799805 26.7982 0.799805 20C0.799805 13.2018 2.32891 8.45234 5.39062 5.39062C8.45234 2.32891 13.2018 0.799805 20 0.799805Z" fill="#0099FF"/>
<path d="M20 0.799805C26.7982 0.799805 31.5477 2.32891 34.6094 5.39062C37.6711 8.45234 39.2002 13.2018 39.2002 20C39.2002 26.7982 37.6711 31.5477 34.6094 34.6094C31.5477 37.6711 26.7982 39.2002 20 39.2002C13.2018 39.2002 8.45234 37.6711 5.39062 34.6094C2.32891 31.5477 0.799805 26.7982 0.799805 20C0.799805 13.2018 2.32891 8.45234 5.39062 5.39062C8.45234 2.32891 13.2018 0.799805 20 0.799805Z" stroke="url(#paint0_linear_14797_65038)" stroke-width="1.6"/>
</mask>
<g mask="url(#mask0_14797_65038)">
<g filter="url(#filter0_di_14797_65038)">
<path d="M3.3148 10.8852C4.59447 7.36611 7.36644 4.59414 10.8855 3.31448V3.31448C11.6639 3.03143 12.4681 2.82546 13.2867 2.69952L15.1545 2.41217C18.3662 1.91808 21.6345 1.91808 24.8461 2.41218L26.7139 2.69952C27.5325 2.82546 28.3368 3.03143 29.1151 3.31448V3.31448C32.6342 4.59414 35.4062 7.36611 36.6858 10.8852V10.8852C36.9689 11.6636 37.1749 12.4678 37.3008 13.2864L37.6431 15.5116C38.1003 18.4831 38.0591 21.51 37.5213 24.468L37.3456 25.4343C37.1898 26.2914 36.9618 27.1338 36.6641 27.9525L36.4552 28.5268C35.3028 31.6958 33.0335 34.3354 30.0732 35.9501V35.9501C28.665 36.7183 27.1339 37.2358 25.5485 37.4798L23.7158 37.7617C21.2533 38.1406 18.7473 38.1406 16.2848 37.7617L14.4521 37.4798C12.8667 37.2358 11.3357 36.7183 9.92745 35.9501V35.9501C6.96711 34.3354 4.6978 31.6958 3.54541 28.5268L3.33658 27.9525C3.03887 27.1338 2.81088 26.2914 2.65504 25.4343L2.47935 24.468C1.94154 21.51 1.90036 18.4831 2.35752 15.5116L2.69985 13.2864C2.82579 12.4678 3.03176 11.6636 3.3148 10.8852V10.8852Z" fill="#0099FF"/>
<path d="M15.2686 3.15299C18.4046 2.67053 21.5964 2.67053 24.7324 3.15299L26.5996 3.44108C27.1774 3.52996 27.7477 3.6612 28.3057 3.83366L28.8584 4.01921C32.0657 5.18549 34.6138 7.66953 35.8643 10.8337L35.9814 11.1413C36.1812 11.6906 36.3401 12.2537 36.457 12.8258L36.5596 13.4001L36.9014 15.6257C37.3458 18.5148 37.3061 21.4577 36.7832 24.3337L36.6074 25.3005C36.4592 26.1158 36.2422 26.9171 35.959 27.696L35.75 28.2702C34.66 31.2676 32.5139 33.7644 29.7139 35.2917C28.382 36.0181 26.9341 36.5082 25.4346 36.7389L23.6016 37.0202C21.2147 37.3874 18.7853 37.3874 16.3984 37.0202L14.5664 36.7389C13.2542 36.5371 11.981 36.137 10.791 35.5534L10.2861 35.2917C7.66141 33.8599 5.61093 31.5762 4.4668 28.8268L4.25 28.2702L4.04102 27.696C3.75783 26.9172 3.54084 26.1158 3.39258 25.3005L3.2168 24.3337C2.69393 21.4577 2.65417 18.5147 3.09863 15.6257L3.44141 13.4001C3.53027 12.8226 3.66161 12.2527 3.83398 11.695L4.01953 11.1413C5.22338 7.83082 7.83115 5.22306 11.1416 4.01921C11.8737 3.75298 12.6304 3.55956 13.4004 3.44108L15.2686 3.15299Z" stroke="url(#paint1_linear_14797_65038)" stroke-width="1.5" style="mix-blend-mode:overlay"/>
</g>
<g filter="url(#filter1_ddii_14797_65038)">
<path d="M13.5566 12.7181C15.3326 11.1425 17.6254 10.274 19.9996 10.2778C25.3691 10.2778 29.7218 14.6304 29.7218 20C29.7249 21.9871 29.1163 23.9271 27.9786 25.5563L25.3468 20H27.7773C27.7774 18.4535 27.3164 16.9422 26.4533 15.659C25.5902 14.3758 24.3642 13.379 22.9318 12.796C21.4995 12.213 19.9258 12.0702 18.4119 12.3858C16.898 12.7015 15.5126 13.4613 14.4326 14.5682L13.5576 12.719L13.5566 12.7181ZM26.4425 27.282C24.6665 28.8576 22.3737 29.726 19.9996 29.7222C14.63 29.7222 10.2773 25.3696 10.2773 20C10.2773 17.934 10.9219 16.0188 12.0205 14.4438L14.6523 20H12.2218C12.2218 21.5465 12.6827 23.0578 13.5458 24.341C14.4089 25.6242 15.635 26.621 17.0673 27.204C18.4997 27.787 20.0733 27.9298 21.5872 27.6142C23.1011 27.2985 24.4865 26.5387 25.5665 25.4318L26.4415 27.281L26.4425 27.282ZM21.3743 22.7495L18.6248 20L15.8744 22.7495L14.4997 21.3747L18.6248 17.2506L21.3743 20L24.1247 17.2506L25.4994 18.6253L21.3743 22.7495V22.7495Z" fill="white"/>
</g>
</g>
</g>
<defs>
<filter id="filter0_di_14797_65038" x="0.0429688" y="1.0416" width="39.915" height="40.0042" filterUnits="userSpaceOnUse" color-interpolation-filters="sRGB">
<feFlood flood-opacity="0" result="BackgroundImageFix"/>
<feColorMatrix in="SourceAlpha" type="matrix" values="0 0 0 0 0 0 0 0 0 0 0 0 0 0 0 0 0 0 127 0" result="hardAlpha"/>
<feOffset dy="1"/>
<feGaussianBlur stdDeviation="1"/>
<feComposite in2="hardAlpha" operator="out"/>
<feColorMatrix type="matrix" values="0 0 0 0 0.0666667 0 0 0 0 0.0980392 0 0 0 0 0.117647 0 0 0 0.05 0"/>
<feBlend mode="normal" in2="BackgroundImageFix" result="effect1_dropShadow_14797_65038"/>
<feBlend mode="normal" in="SourceGraphic" in2="effect1_dropShadow_14797_65038" result="shape"/>
<feColorMatrix in="SourceAlpha" type="matrix" values="0 0 0 0 0 0 0 0 0 0 0 0 0 0 0 0 0 0 127 0" result="hardAlpha"/>
<feOffset dx="1.6" dy="1.6"/>
<feGaussianBlur stdDeviation="1.6"/>
<feComposite in2="hardAlpha" operator="arithmetic" k2="-1" k3="1"/>
<feColorMatrix type="matrix" values="0 0 0 0 0.0666667 0 0 0 0 0.0980392 0 0 0 0 0.117647 0 0 0 0.1 0"/>
<feBlend mode="normal" in2="shape" result="effect2_innerShadow_14797_65038"/>
</filter>
<filter id="filter1_ddii_14797_65038" x="-2.80985" y="-2.80952" width="46.4759" height="46.4762" filterUnits="userSpaceOnUse" color-interpolation-filters="sRGB">
<feFlood flood-opacity="0" result="BackgroundImageFix"/>
<feColorMatrix in="SourceAlpha" type="matrix" values="0 0 0 0 0 0 0 0 0 0 0 0 0 0 0 0 0 0 127 0" result="hardAlpha"/>
<feOffset dx="2.57143" dy="2.57143"/>
<feGaussianBlur stdDeviation="4.71429"/>
<feComposite in2="hardAlpha" operator="out"/>
<feColorMatrix type="matrix" values="0 0 0 0 0.321569 0 0 0 0 0.435294 0 0 0 0 1 0 0 0 1 0"/>
<feBlend mode="normal" in2="BackgroundImageFix" result="effect1_dropShadow_14797_65038"/>
<feColorMatrix in="SourceAlpha" type="matrix" values="0 0 0 0 0 0 0 0 0 0 0 0 0 0 0 0 0 0 127 0" result="hardAlpha"/>
<feOffset dx="-2.57143" dy="-2.57143"/>
<feGaussianBlur stdDeviation="4.28571"/>
<feComposite in2="hardAlpha" operator="out"/>
<feColorMatrix type="matrix" values="0 0 0 0 1 0 0 0 0 1 0 0 0 0 1 0 0 0 0.4 0"/>
<feBlend mode="normal" in2="effect1_dropShadow_14797_65038" result="effect2_dropShadow_14797_65038"/>
<feBlend mode="normal" in="SourceGraphic" in2="effect2_dropShadow_14797_65038" result="shape"/>
<feColorMatrix in="SourceAlpha" type="matrix" values="0 0 0 0 0 0 0 0 0 0 0 0 0 0 0 0 0 0 127 0" result="hardAlpha"/>
<feOffset dy="-1.28571"/>
<feGaussianBlur stdDeviation="0.985714"/>
<feComposite in2="hardAlpha" operator="arithmetic" k2="-1" k3="1"/>
<feColorMatrix type="matrix" values="0 0 0 0 0 0 0 0 0 0.598039 0 0 0 0 1 0 0 0 0.4 0"/>
<feBlend mode="normal" in2="shape" result="effect3_innerShadow_14797_65038"/>
<feColorMatrix in="SourceAlpha" type="matrix" values="0 0 0 0 0 0 0 0 0 0 0 0 0 0 0 0 0 0 127 0" result="hardAlpha"/>
<feOffset dy="-0.428571"/>
<feGaussianBlur stdDeviation="0.557143"/>
<feComposite in2="hardAlpha" operator="arithmetic" k2="-1" k3="1"/>
<feColorMatrix type="matrix" values="0 0 0 0 1 0 0 0 0 1 0 0 0 0 1 0 0 0 0.6 0"/>
<feBlend mode="normal" in2="effect3_innerShadow_14797_65038" result="effect4_innerShadow_14797_65038"/>
</filter>
<linearGradient id="paint0_linear_14797_65038" x1="6.8" y1="10.8" x2="36.8" y2="47.6" gradientUnits="userSpaceOnUse">
<stop stop-color="#11191E" stop-opacity="0.4"/>
<stop offset="1" stop-color="white"/>
</linearGradient>
<linearGradient id="paint1_linear_14797_65038" x1="7.90032" y1="11.5667" x2="35.4003" y2="45.3" gradientUnits="userSpaceOnUse">
<stop stop-color="#11191E" stop-opacity="0.4"/>
<stop offset="1" stop-color="white"/>
</linearGradient>
<clipPath id="clip0_14797_65038">
<rect width="40" height="40" fill="white"/>
</clipPath>
</defs>
</svg>
