<svg width="14" height="14" viewBox="0 0 14 14" fill="none" xmlns="http://www.w3.org/2000/svg">
<g clip-path="url(#clip0_40000693_2656)">
<path d="M4.40739 3.85V2.275C4.40739 2.13576 4.46202 2.00223 4.55926 1.90377C4.6565 1.80531 4.78839 1.75 4.92591 1.75H11.1481C11.2856 1.75 11.4175 1.80531 11.5148 1.90377C11.612 2.00223 11.6666 2.13576 11.6666 2.275V9.62499C11.6666 9.76423 11.612 9.89777 11.5148 9.99623C11.4175 10.0947 11.2856 10.15 11.1481 10.15H9.59257V11.725C9.59257 12.0148 9.35924 12.25 9.07042 12.25H2.85546C2.78708 12.2504 2.7193 12.2371 2.656 12.2109C2.5927 12.1848 2.53514 12.1462 2.48662 12.0974C2.4381 12.0486 2.39958 11.9906 2.37327 11.9267C2.34696 11.8628 2.33338 11.7942 2.33331 11.725L2.33487 4.375C2.33487 4.0852 2.5682 3.85 2.85702 3.85H4.40739ZM5.44442 3.85H9.59257V9.09999H10.6296V2.8H5.44442V3.85Z" fill="#A2AAAF"/>
</g>
<defs>
<clipPath id="clip0_40000693_2656">
<rect width="14" height="14" fill="white"/>
</clipPath>
</defs>
</svg>
