<svg width="46" height="46" viewBox="0 0 46 46" fill="none" xmlns="http://www.w3.org/2000/svg">
<g filter="url(#filter0_i_1208_29953)">
<path d="M3 23C3 9.2 9.2 3 23 3C36.8 3 43 9.2 43 23C43 36.8 36.8 43 23 43C9.2 43 3 36.8 3 23Z" fill="#0099FF"/>
</g>
<path d="M4 23C4 16.2273 5.52371 11.5405 8.53211 8.53211C11.5405 5.52371 16.2273 4 23 4C29.7727 4 34.4595 5.52371 37.4679 8.53211C40.4763 11.5405 42 16.2273 42 23C42 29.7727 40.4763 34.4595 37.4679 37.4679C34.4595 40.4763 29.7727 42 23 42C16.2273 42 11.5405 40.4763 8.53211 37.4679C5.52371 34.4595 4 29.7727 4 23Z" stroke="url(#paint0_linear_1208_29953)" stroke-width="2" style="mix-blend-mode:overlay"/>
<g filter="url(#filter1_ddii_1208_29953)">
<path d="M14.1078 20.1132C14.1021 20.3857 14.1487 20.6566 14.2447 20.91C14.3407 21.1634 14.4842 21.3943 14.6668 21.5891C14.8494 21.7839 15.0674 21.9386 15.3081 22.0442C15.5487 22.1499 15.8072 22.2043 16.0682 22.2043C16.3293 22.2043 16.5878 22.1499 16.8284 22.0442C17.0691 21.9386 17.2871 21.7839 17.4697 21.5891C17.6523 21.3943 17.7958 21.1634 17.8918 20.91C17.9878 20.6566 18.0343 20.3857 18.0287 20.1132C18.2075 18.7813 17.1376 18.0209 16.0678 18.0209C15.5432 18.0308 15.0435 18.2559 14.6767 18.6475C14.3099 19.0391 14.1055 19.5656 14.1078 20.1132ZM32.7456 15.2445C32.4377 15.2289 32.136 15.3388 31.9041 15.5509C31.6723 15.7631 31.5284 16.0609 31.5028 16.3816C31.6815 16.9518 32.2154 17.5221 32.7514 17.5221C33.0601 17.536 33.362 17.4253 33.5945 17.2129C33.827 17.0005 33.9723 16.7028 34 16.3816C33.9712 16.0598 33.8251 15.7619 33.5919 15.5494C33.3587 15.3369 33.0561 15.226 32.7468 15.2397L32.7456 15.2445ZM27.3047 16.1854C27.7031 16.1948 28.0951 16.08 28.4307 15.8557C28.7664 15.6315 29.0304 15.3079 29.189 14.9264C29.3477 14.5448 29.3939 14.1226 29.3216 13.7135C29.2494 13.3044 29.062 12.9271 28.7834 12.6297C28.5048 12.3323 28.1476 12.1283 27.7574 12.0437C27.3673 11.9591 26.9618 11.9978 26.5928 12.1549C26.2238 12.3119 25.908 12.5802 25.6857 12.9254C25.4634 13.2706 25.3447 13.6771 25.3447 14.0931C25.1659 15.2289 26.0573 16.1807 27.3047 16.1807V16.1854ZM19.1375 16.7557C20.0286 16.7557 20.92 15.9953 20.92 15.0436C20.92 14.0918 20.2065 13.327 19.1375 13.327C18.2465 13.327 17.3551 14.0899 17.3551 15.0391C17.3551 15.9883 18.0677 16.7513 19.1375 16.7513V16.7557ZM27.9713 21.6664C27.9713 22.623 28.6849 23.3786 29.7538 23.3786C30.6449 23.3786 31.5363 22.6157 31.5363 21.6664C31.5363 20.7172 30.8237 19.9543 29.7538 19.9543C28.867 19.9518 27.9713 20.7099 27.9713 21.6664ZM23.5464 21.5097C23.7365 21.5103 23.9248 21.4711 24.1002 21.3944C24.2756 21.3177 24.4345 21.205 24.5674 21.0631C24.7004 20.9212 24.8047 20.7529 24.8743 20.5682C24.9439 20.3835 24.9773 20.1861 24.9725 19.9877C24.9513 19.597 24.7951 19.2275 24.5329 18.9479C24.2706 18.6683 23.9201 18.4974 23.5464 18.4669C23.3563 18.4663 23.1681 18.5055 22.9927 18.5821C22.8174 18.6587 22.6586 18.7712 22.5257 18.913C22.3927 19.0547 22.2883 19.2229 22.2187 19.4075C22.1491 19.5921 22.1156 19.7894 22.1202 19.9877C22.1417 20.3782 22.2981 20.7473 22.5603 21.0267C22.8225 21.3061 23.1728 21.4769 23.5464 21.5075V21.5097ZM32.3424 24.7646C32.1763 24.7381 32.0066 24.7741 31.8637 24.8663C28.0264 27.7273 24.5714 25.6842 24.4764 25.5838C17.2817 20.879 12.4867 25.8851 12.4867 25.8851C12.428 25.9344 12.3804 25.9966 12.3473 26.0672C12.3143 26.1379 12.2965 26.2153 12.2954 26.2939C12.3185 26.4471 12.3851 26.5896 12.4867 26.7027C12.6792 27.0089 13.0595 26.9071 13.3504 26.7027C13.4466 26.4983 17.3791 22.5177 23.7111 26.601C24.8776 27.2988 26.2042 27.6518 27.5483 27.6221C29.3746 27.6037 31.1508 26.9969 32.6341 25.8848C32.743 25.7631 32.8111 25.6077 32.8282 25.4422C32.8454 25.2766 32.8106 25.1097 32.7292 24.9664C32.684 24.9039 32.6257 24.8529 32.5588 24.8175C32.4919 24.782 32.418 24.7631 32.343 24.762L32.3424 24.7646ZM13.425 15.2302C13.7583 15.2341 14.0826 15.1172 14.3427 14.8995C14.6027 14.6818 14.7824 14.3767 14.8512 14.0362C14.9199 13.6958 14.8735 13.3409 14.7197 13.0322C14.566 12.7235 14.3144 12.4799 14.0079 12.343C13.7015 12.2062 13.359 12.1844 13.0389 12.2815C12.7188 12.3787 12.4408 12.5886 12.2524 12.8756C12.0639 13.1627 11.9766 13.509 12.0054 13.8557C12.0341 14.2023 12.1771 14.5279 12.41 14.7769C12.5423 14.9183 12.7001 15.0311 12.8743 15.1089C13.0484 15.1867 13.2356 15.2279 13.425 15.2302Z" fill="white"/>
<path d="M31.7399 34C31.4945 34 31.2763 33.9016 31.0853 33.7047C30.8972 33.5078 30.7485 33.2239 30.6394 32.853C30.5303 32.4821 30.4758 32.0311 30.4758 31.5C30.4758 30.9689 30.5303 30.5179 30.6394 30.147C30.7485 29.7761 30.8972 29.4922 31.0853 29.2953C31.2763 29.0984 31.4945 29 31.7399 29C31.9827 29 32.1981 29.0984 32.3863 29.2953C32.5772 29.4922 32.7273 29.7761 32.8364 30.147C32.9455 30.5179 33 30.9689 33 31.5C33 32.0311 32.9455 32.4821 32.8364 32.853C32.7273 33.2239 32.5772 33.5078 32.3863 33.7047C32.1981 33.9016 31.9827 34 31.7399 34ZM31.7399 32.8874C31.8272 32.8874 31.9036 32.8416 31.969 32.75C32.0372 32.6584 32.0904 32.5119 32.1286 32.3104C32.1668 32.1044 32.1859 31.8342 32.1859 31.5C32.1859 31.1612 32.1668 30.891 32.1286 30.6896C32.0904 30.4881 32.0372 30.3416 31.969 30.25C31.9036 30.1584 31.8272 30.1126 31.7399 30.1126C31.6526 30.1126 31.5749 30.1584 31.5067 30.25C31.4413 30.3416 31.3881 30.4881 31.3472 30.6896C31.309 30.891 31.2899 31.1612 31.2899 31.5C31.2899 31.8342 31.309 32.1044 31.3472 32.3104C31.3881 32.5119 31.4413 32.6584 31.5067 32.75C31.5749 32.8416 31.6526 32.8874 31.7399 32.8874Z" fill="white"/>
<path d="M29.2351 33.9038V29.5838L29.5828 30.147H28.7032V29.0962H30.0451V33.9038H29.2351Z" fill="white"/>
<path d="M26.9944 34C26.7762 34 26.5812 33.9428 26.4094 33.8283C26.2376 33.7092 26.1012 33.5467 26.0003 33.3407C25.9021 33.1346 25.853 32.9034 25.853 32.647C25.853 32.3951 25.8857 32.1708 25.9512 31.9739C26.0194 31.777 26.123 31.5962 26.2621 31.4313C26.4039 31.2665 26.584 31.1085 26.8021 30.9574C26.9467 30.8521 27.0599 30.7582 27.1417 30.6758C27.2235 30.5934 27.2808 30.5156 27.3135 30.4423C27.349 30.3645 27.3667 30.2866 27.3667 30.2088C27.3667 30.1126 27.3476 30.0348 27.3094 29.9753C27.2713 29.9158 27.214 29.886 27.1376 29.886C27.0585 29.886 26.9958 29.9203 26.9494 29.989C26.9058 30.0577 26.884 30.1424 26.884 30.2431C26.884 30.3027 26.8908 30.3622 26.9044 30.4217C26.9208 30.4812 26.9508 30.5499 26.9944 30.6277C27.0408 30.7056 27.1049 30.8063 27.1867 30.9299L28.6963 33.1827L28.279 33.9863L26.5771 31.4382C26.4844 31.3008 26.408 31.168 26.348 31.0398C26.2908 30.9116 26.2471 30.7834 26.2171 30.6552C26.1898 30.527 26.1762 30.3965 26.1762 30.2637C26.1762 30.0165 26.2157 29.8013 26.2948 29.6181C26.3739 29.4304 26.4858 29.2862 26.6303 29.1854C26.7749 29.0801 26.944 29.0275 27.1376 29.0275C27.3149 29.0275 27.469 29.0733 27.5999 29.1648C27.7336 29.2564 27.8372 29.3892 27.9108 29.5632C27.9845 29.7372 28.0213 29.9432 28.0213 30.1813C28.0213 30.3919 27.9886 30.5842 27.9231 30.7582C27.8604 30.9322 27.7622 31.0925 27.6286 31.239C27.4976 31.3855 27.3299 31.5298 27.1253 31.6717C26.9999 31.7587 26.899 31.8457 26.8226 31.9327C26.749 32.0197 26.6958 32.109 26.663 32.2005C26.6303 32.2875 26.614 32.3883 26.614 32.5027C26.614 32.5943 26.6317 32.679 26.6671 32.7569C26.7026 32.8347 26.7531 32.8965 26.8185 32.9423C26.884 32.9835 26.9617 33.0041 27.0517 33.0041C27.2099 33.0041 27.3558 32.94 27.4895 32.8118C27.6231 32.679 27.7377 32.4867 27.8331 32.2349C27.9313 31.9831 27.9981 31.6786 28.0336 31.3214L28.6595 31.6374C28.5995 32.109 28.4904 32.5211 28.3322 32.8736C28.1768 33.2262 27.9845 33.5032 27.7554 33.7047C27.529 33.9016 27.2754 34 26.9944 34Z" fill="white"/>
<path d="M24.3825 34C24.1861 34 23.9884 33.9588 23.7893 33.8764C23.5902 33.794 23.4184 33.6772 23.2738 33.5261L23.5643 32.5027C23.6816 32.631 23.8084 32.7294 23.9448 32.7981C24.0839 32.8668 24.2216 32.9011 24.358 32.9011C24.4943 32.9011 24.6048 32.8576 24.6893 32.7706C24.7739 32.679 24.8162 32.5531 24.8162 32.3929C24.8162 32.2967 24.7998 32.212 24.7671 32.1387C24.7343 32.0609 24.6784 32.0037 24.5993 31.967C24.5202 31.9258 24.4071 31.9052 24.2598 31.9052H23.4825L23.6256 29.0962H25.4503V30.147H23.912L24.3252 29.5495L24.2311 31.4451L23.8179 30.8475H24.4521C24.7357 30.8475 24.9635 30.9162 25.1353 31.0536C25.3071 31.1864 25.4326 31.3672 25.5117 31.5962C25.5908 31.8205 25.6303 32.0746 25.6303 32.3585C25.6303 32.6424 25.5853 32.9103 25.4953 33.1621C25.408 33.4093 25.273 33.6108 25.0903 33.7665C24.9075 33.9222 24.6716 34 24.3825 34Z" fill="white"/>
<path d="M22.6594 33.9657C22.5284 33.9657 22.418 33.8924 22.328 33.7459C22.238 33.5994 22.193 33.4139 22.193 33.1896C22.193 32.956 22.238 32.7706 22.328 32.6332C22.418 32.4913 22.5284 32.4203 22.6594 32.4203C22.7903 32.4203 22.9007 32.4913 22.9907 32.6332C23.0807 32.7706 23.1257 32.956 23.1257 33.1896C23.1257 33.4139 23.0807 33.5994 22.9907 33.7459C22.9007 33.8924 22.7903 33.9657 22.6594 33.9657Z" fill="white"/>
<path d="M19.7161 33.9038V33.0522L20.788 31.3695C20.8644 31.2505 20.9203 31.1451 20.9557 31.0536C20.9939 30.962 21.0185 30.8796 21.0294 30.8063C21.043 30.7285 21.0498 30.6575 21.0498 30.5934C21.0498 30.4377 21.0185 30.3164 20.9557 30.2294C20.8957 30.1424 20.8044 30.0989 20.6816 30.0989C20.578 30.0989 20.4812 30.1378 20.3912 30.2157C20.3011 30.2935 20.2275 30.4103 20.1702 30.5659L19.5688 30.0027C19.6752 29.7005 19.8293 29.4579 20.0311 29.2747C20.233 29.0916 20.4743 29 20.7553 29C20.9762 29 21.1698 29.0595 21.3362 29.1786C21.5026 29.2976 21.6321 29.467 21.7249 29.6868C21.8203 29.9066 21.8681 30.1653 21.8681 30.4629C21.8681 30.6186 21.8558 30.7743 21.8312 30.9299C21.8067 31.081 21.759 31.2436 21.688 31.4176C21.6199 31.587 21.5176 31.777 21.3812 31.9876L20.5302 33.3063L20.3952 32.8255H21.9458V33.9038H19.7161Z" fill="white"/>
<path d="M15.9765 33.9038V29.0962H16.6433L17.8298 32.3654H17.4779L18.6316 29.0962H19.2985L19.3067 33.9038H18.5621L18.5539 30.9986H18.6807L17.8175 33.4299H17.4575L16.5697 30.9986H16.7251V33.9038H15.9765Z" fill="white"/>
<path d="M13 33.9038V29.0962H14.3092C14.571 29.0962 14.796 29.1671 14.9842 29.3091C15.1751 29.451 15.3224 29.6571 15.426 29.9272C15.5297 30.1928 15.5815 30.5087 15.5815 30.875C15.5815 31.2367 15.5297 31.5504 15.426 31.8159C15.3224 32.0815 15.1751 32.2875 14.9842 32.4341C14.796 32.576 14.571 32.647 14.3092 32.647H13.45L13.81 32.0563V33.9038H13ZM13.81 32.2006L13.45 31.5756H14.2601C14.4292 31.5756 14.5546 31.5137 14.6365 31.3901C14.721 31.2665 14.7633 31.0948 14.7633 30.875C14.7633 30.6506 14.721 30.4767 14.6365 30.353C14.5546 30.2294 14.4292 30.1676 14.2601 30.1676H13.45L13.81 29.5426V32.2006Z" fill="white"/>
</g>
<defs>
<filter id="filter0_i_1208_29953" x="3" y="3" width="42" height="42" filterUnits="userSpaceOnUse" color-interpolation-filters="sRGB">
<feFlood flood-opacity="0" result="BackgroundImageFix"/>
<feBlend mode="normal" in="SourceGraphic" in2="BackgroundImageFix" result="shape"/>
<feColorMatrix in="SourceAlpha" type="matrix" values="0 0 0 0 0 0 0 0 0 0 0 0 0 0 0 0 0 0 127 0" result="hardAlpha"/>
<feOffset dx="2" dy="2"/>
<feGaussianBlur stdDeviation="2"/>
<feComposite in2="hardAlpha" operator="arithmetic" k2="-1" k3="1"/>
<feColorMatrix type="matrix" values="0 0 0 0 0.0666667 0 0 0 0 0.0980392 0 0 0 0 0.117647 0 0 0 0.1 0"/>
<feBlend mode="normal" in2="shape" result="effect1_innerShadow_1208_29953"/>
</filter>
<filter id="filter1_ddii_1208_29953" x="-0.142857" y="-0.142857" width="47.1429" height="47.1429" filterUnits="userSpaceOnUse" color-interpolation-filters="sRGB">
<feFlood flood-opacity="0" result="BackgroundImageFix"/>
<feColorMatrix in="SourceAlpha" type="matrix" values="0 0 0 0 0 0 0 0 0 0 0 0 0 0 0 0 0 0 127 0" result="hardAlpha"/>
<feOffset dx="2.57143" dy="2.57143"/>
<feGaussianBlur stdDeviation="4.71429"/>
<feComposite in2="hardAlpha" operator="out"/>
<feColorMatrix type="matrix" values="0 0 0 0 0.321569 0 0 0 0 0.435294 0 0 0 0 1 0 0 0 1 0"/>
<feBlend mode="normal" in2="BackgroundImageFix" result="effect1_dropShadow_1208_29953"/>
<feColorMatrix in="SourceAlpha" type="matrix" values="0 0 0 0 0 0 0 0 0 0 0 0 0 0 0 0 0 0 127 0" result="hardAlpha"/>
<feOffset dx="-2.57143" dy="-2.57143"/>
<feGaussianBlur stdDeviation="4.28571"/>
<feComposite in2="hardAlpha" operator="out"/>
<feColorMatrix type="matrix" values="0 0 0 0 1 0 0 0 0 1 0 0 0 0 1 0 0 0 0.4 0"/>
<feBlend mode="normal" in2="effect1_dropShadow_1208_29953" result="effect2_dropShadow_1208_29953"/>
<feBlend mode="normal" in="SourceGraphic" in2="effect2_dropShadow_1208_29953" result="shape"/>
<feColorMatrix in="SourceAlpha" type="matrix" values="0 0 0 0 0 0 0 0 0 0 0 0 0 0 0 0 0 0 127 0" result="hardAlpha"/>
<feOffset dy="-1.28571"/>
<feGaussianBlur stdDeviation="0.985714"/>
<feComposite in2="hardAlpha" operator="arithmetic" k2="-1" k3="1"/>
<feColorMatrix type="matrix" values="0 0 0 0 0 0 0 0 0 0.598039 0 0 0 0 1 0 0 0 0.4 0"/>
<feBlend mode="normal" in2="shape" result="effect3_innerShadow_1208_29953"/>
<feColorMatrix in="SourceAlpha" type="matrix" values="0 0 0 0 0 0 0 0 0 0 0 0 0 0 0 0 0 0 127 0" result="hardAlpha"/>
<feOffset dy="-0.428571"/>
<feGaussianBlur stdDeviation="0.557143"/>
<feComposite in2="hardAlpha" operator="arithmetic" k2="-1" k3="1"/>
<feColorMatrix type="matrix" values="0 0 0 0 1 0 0 0 0 1 0 0 0 0 1 0 0 0 0.6 0"/>
<feBlend mode="normal" in2="effect3_innerShadow_1208_29953" result="effect4_innerShadow_1208_29953"/>
</filter>
<linearGradient id="paint0_linear_1208_29953" x1="9.8" y1="13.8" x2="39.8" y2="50.6" gradientUnits="userSpaceOnUse">
<stop stop-color="#11191E" stop-opacity="0.4"/>
<stop offset="0.992881" stop-color="white"/>
</linearGradient>
</defs>
</svg>
