<svg width="42" height="42" viewBox="0 0 42 42" fill="none" xmlns="http://www.w3.org/2000/svg">
<g filter="url(#filter0_i_1208_29939)">
<path d="M1 21C1 7.2 7.2 1 21 1C34.8 1 41 7.2 41 21C41 34.8 34.8 41 21 41C7.2 41 1 34.8 1 21Z" fill="#0099FF"/>
</g>
<path d="M2 21C2 14.2273 3.52371 9.5405 6.53211 6.53211C9.5405 3.52371 14.2273 2 21 2C27.7727 2 32.4595 3.52371 35.4679 6.53211C38.4763 9.5405 40 14.2273 40 21C40 27.7727 38.4763 32.4595 35.4679 35.4679C32.4595 38.4763 27.7727 40 21 40C14.2273 40 9.5405 38.4763 6.53211 35.4679C3.52371 32.4595 2 27.7727 2 21Z" stroke="url(#paint0_linear_1208_29939)" stroke-width="2" style="mix-blend-mode:overlay"/>
<g filter="url(#filter1_ddii_1208_29939)">
<path d="M29.0903 28.2447H12.9098C12.6685 28.2447 12.4371 28.3372 12.2665 28.5018C12.0959 28.6664 12 28.8896 12 29.1224C12 29.3551 12.0959 29.5784 12.2665 29.7429C12.4371 29.9075 12.6685 30 12.9098 30H29.0902C29.3315 30 29.5629 29.9075 29.7335 29.7429C29.9041 29.5784 30 29.3551 30 29.1224C30 28.8896 29.9041 28.6664 29.7335 28.5018C29.5629 28.3372 29.3316 28.2447 29.0903 28.2447ZM19.9204 26.5425C20.0669 26.6839 20.2409 26.796 20.4323 26.8726C20.6238 26.9491 20.829 26.9885 21.0363 26.9885C21.2436 26.9885 21.4488 26.9491 21.6403 26.8726C21.8317 26.796 22.0057 26.6839 22.1522 26.5425L23.737 25.0137C23.8228 24.9325 23.8911 24.8358 23.9378 24.729C23.9846 24.6223 24.009 24.5076 24.0096 24.3917C24.0102 24.2758 23.9869 24.161 23.9412 24.0538C23.8955 23.9466 23.8282 23.8492 23.7433 23.7673C23.6583 23.6853 23.5574 23.6204 23.4463 23.5763C23.3351 23.5322 23.2161 23.5098 23.0959 23.5104C22.9758 23.5109 22.8569 23.5345 22.7463 23.5796C22.6356 23.6247 22.5353 23.6906 22.4512 23.7733L21.958 24.2492V12.8815C21.958 12.6487 21.8621 12.4255 21.6915 12.2609C21.5209 12.0963 21.2895 12.0038 21.0482 12.0038C20.8068 12.0038 20.5754 12.0963 20.4048 12.2609C20.2342 12.4255 20.1383 12.6487 20.1383 12.8815V24.2707L19.5785 23.7307C19.495 23.6451 19.3946 23.5767 19.2832 23.5293C19.1719 23.4819 19.0517 23.4566 18.93 23.4548C18.8083 23.4531 18.6874 23.4749 18.5746 23.519C18.4618 23.5632 18.3593 23.6287 18.2732 23.7118C18.1872 23.7949 18.1193 23.8938 18.0736 24.0026C18.0279 24.1115 18.0053 24.228 18.0072 24.3455C18.0091 24.4629 18.0354 24.5788 18.0846 24.6862C18.1338 24.7936 18.2048 24.8904 18.2935 24.9709L19.9204 26.5425ZM13.7685 25.7605C13.9448 25.9313 14.1697 26.0478 14.4148 26.0952C14.6598 26.1425 14.9139 26.1186 15.1449 26.0265C15.3758 25.9343 15.5732 25.7781 15.712 25.5776C15.8508 25.3771 15.9247 25.1414 15.9244 24.9003V12.8792C15.9244 12.6464 15.8286 12.4232 15.658 12.2586C15.4873 12.094 15.2559 12.0016 15.0146 12.0016C14.7733 12.0016 14.5419 12.094 14.3713 12.2586C14.2006 12.4232 14.1048 12.6464 14.1048 12.8792V23.6026L13.5793 23.0957C13.4951 23.0129 13.3948 22.9471 13.2842 22.9019C13.1735 22.8568 13.0547 22.8333 12.9345 22.8327C12.8144 22.8322 12.6953 22.8546 12.5842 22.8987C12.4731 22.9428 12.3721 23.0077 12.2871 23.0896C12.2022 23.1716 12.1349 23.269 12.0892 23.3761C12.0435 23.4833 12.0203 23.5982 12.0208 23.7141C12.0214 23.83 12.0458 23.9446 12.0926 24.0514C12.1394 24.1581 12.2076 24.2549 12.2934 24.336L13.7693 25.7596L13.7685 25.7605ZM26.7777 26.0043C27.0124 26.1099 27.2752 26.1431 27.5303 26.0995C27.7853 26.0559 28.0202 25.9375 28.203 25.7605L29.68 24.3352C29.7658 24.254 29.834 24.1573 29.8808 24.0505C29.9276 23.9438 29.952 23.8291 29.9526 23.7132C29.9532 23.5973 29.9299 23.4825 29.8842 23.3753C29.8385 23.2681 29.7712 23.1707 29.6863 23.0888C29.6013 23.0068 29.5004 22.9419 29.3892 22.8978C29.2781 22.8537 29.159 22.8313 29.0389 22.8319C28.9188 22.8324 28.7999 22.8559 28.6892 22.9011C28.5786 22.9462 28.4783 23.012 28.3941 23.0948L27.8686 23.6019V12.8776C27.8686 12.6449 27.7728 12.4216 27.6021 12.2571C27.4315 12.0925 27.2001 12 26.9588 12C26.7175 12 26.4861 12.0925 26.3155 12.2571C26.1448 12.4216 26.049 12.6449 26.049 12.8776V24.8988C26.0469 25.131 26.1145 25.3589 26.2435 25.5551C26.3725 25.7512 26.5575 25.9072 26.7763 26.0043H26.7777Z" fill="white"/>
</g>
<defs>
<filter id="filter0_i_1208_29939" x="1" y="1" width="42" height="42" filterUnits="userSpaceOnUse" color-interpolation-filters="sRGB">
<feFlood flood-opacity="0" result="BackgroundImageFix"/>
<feBlend mode="normal" in="SourceGraphic" in2="BackgroundImageFix" result="shape"/>
<feColorMatrix in="SourceAlpha" type="matrix" values="0 0 0 0 0 0 0 0 0 0 0 0 0 0 0 0 0 0 127 0" result="hardAlpha"/>
<feOffset dx="2" dy="2"/>
<feGaussianBlur stdDeviation="2"/>
<feComposite in2="hardAlpha" operator="arithmetic" k2="-1" k3="1"/>
<feColorMatrix type="matrix" values="0 0 0 0 0.0666667 0 0 0 0 0.0980392 0 0 0 0 0.117647 0 0 0 0.1 0"/>
<feBlend mode="normal" in2="shape" result="effect1_innerShadow_1208_29939"/>
</filter>
<filter id="filter1_ddii_1208_29939" x="-2.14286" y="-2.14286" width="47.1429" height="47.1429" filterUnits="userSpaceOnUse" color-interpolation-filters="sRGB">
<feFlood flood-opacity="0" result="BackgroundImageFix"/>
<feColorMatrix in="SourceAlpha" type="matrix" values="0 0 0 0 0 0 0 0 0 0 0 0 0 0 0 0 0 0 127 0" result="hardAlpha"/>
<feOffset dx="2.57143" dy="2.57143"/>
<feGaussianBlur stdDeviation="4.71429"/>
<feComposite in2="hardAlpha" operator="out"/>
<feColorMatrix type="matrix" values="0 0 0 0 0.321569 0 0 0 0 0.435294 0 0 0 0 1 0 0 0 1 0"/>
<feBlend mode="normal" in2="BackgroundImageFix" result="effect1_dropShadow_1208_29939"/>
<feColorMatrix in="SourceAlpha" type="matrix" values="0 0 0 0 0 0 0 0 0 0 0 0 0 0 0 0 0 0 127 0" result="hardAlpha"/>
<feOffset dx="-2.57143" dy="-2.57143"/>
<feGaussianBlur stdDeviation="4.28571"/>
<feComposite in2="hardAlpha" operator="out"/>
<feColorMatrix type="matrix" values="0 0 0 0 1 0 0 0 0 1 0 0 0 0 1 0 0 0 0.4 0"/>
<feBlend mode="normal" in2="effect1_dropShadow_1208_29939" result="effect2_dropShadow_1208_29939"/>
<feBlend mode="normal" in="SourceGraphic" in2="effect2_dropShadow_1208_29939" result="shape"/>
<feColorMatrix in="SourceAlpha" type="matrix" values="0 0 0 0 0 0 0 0 0 0 0 0 0 0 0 0 0 0 127 0" result="hardAlpha"/>
<feOffset dy="-1.28571"/>
<feGaussianBlur stdDeviation="0.985714"/>
<feComposite in2="hardAlpha" operator="arithmetic" k2="-1" k3="1"/>
<feColorMatrix type="matrix" values="0 0 0 0 0 0 0 0 0 0.598039 0 0 0 0 1 0 0 0 0.4 0"/>
<feBlend mode="normal" in2="shape" result="effect3_innerShadow_1208_29939"/>
<feColorMatrix in="SourceAlpha" type="matrix" values="0 0 0 0 0 0 0 0 0 0 0 0 0 0 0 0 0 0 127 0" result="hardAlpha"/>
<feOffset dy="-0.428571"/>
<feGaussianBlur stdDeviation="0.557143"/>
<feComposite in2="hardAlpha" operator="arithmetic" k2="-1" k3="1"/>
<feColorMatrix type="matrix" values="0 0 0 0 1 0 0 0 0 1 0 0 0 0 1 0 0 0 0.6 0"/>
<feBlend mode="normal" in2="effect3_innerShadow_1208_29939" result="effect4_innerShadow_1208_29939"/>
</filter>
<linearGradient id="paint0_linear_1208_29939" x1="7.8" y1="11.8" x2="37.8" y2="48.6" gradientUnits="userSpaceOnUse">
<stop stop-color="#11191E" stop-opacity="0.4"/>
<stop offset="0.992881" stop-color="white"/>
</linearGradient>
</defs>
</svg>
