<svg width="40" height="40" viewBox="0 0 40 40" fill="none" xmlns="http://www.w3.org/2000/svg">
<g clip-path="url(#clip0_14574_78399)">
<mask id="mask0_14574_78399" style="mask-type:alpha" maskUnits="userSpaceOnUse" x="0" y="0" width="40" height="40">
<path d="M20 0.799805C26.7982 0.799805 31.5477 2.32891 34.6094 5.39062C37.6711 8.45234 39.2002 13.2018 39.2002 20C39.2002 26.7982 37.6711 31.5477 34.6094 34.6094C31.5477 37.6711 26.7982 39.2002 20 39.2002C13.2018 39.2002 8.45234 37.6711 5.39062 34.6094C2.32891 31.5477 0.799805 26.7982 0.799805 20C0.799805 13.2018 2.32891 8.45234 5.39062 5.39062C8.45234 2.32891 13.2018 0.799805 20 0.799805Z" fill="#0099FF"/>
<path d="M20 0.799805C26.7982 0.799805 31.5477 2.32891 34.6094 5.39062C37.6711 8.45234 39.2002 13.2018 39.2002 20C39.2002 26.7982 37.6711 31.5477 34.6094 34.6094C31.5477 37.6711 26.7982 39.2002 20 39.2002C13.2018 39.2002 8.45234 37.6711 5.39062 34.6094C2.32891 31.5477 0.799805 26.7982 0.799805 20C0.799805 13.2018 2.32891 8.45234 5.39062 5.39062C8.45234 2.32891 13.2018 0.799805 20 0.799805Z" stroke="url(#paint0_linear_14574_78399)" stroke-width="1.6"/>
</mask>
<g mask="url(#mask0_14574_78399)">
<g filter="url(#filter0_di_14574_78399)">
<path d="M3.31448 10.8845C4.59414 7.36546 7.36611 4.59349 10.8852 3.31383V3.31383C11.6636 3.03078 12.4678 2.82481 13.2864 2.69887L15.1542 2.41152C18.3658 1.91742 21.6342 1.91743 24.8458 2.41152L26.7136 2.69887C27.5322 2.82481 28.3364 3.03078 29.1148 3.31383V3.31383C32.6339 4.59349 35.4059 7.36546 36.6855 10.8845V10.8845C36.9686 11.6629 37.1745 12.4672 37.3005 13.2858L37.6428 15.5109C38.1 18.4824 38.0588 21.5094 37.521 24.4673L37.3453 25.4336C37.1894 26.2907 36.9615 27.1331 36.6637 27.9518L36.4549 28.5261C35.3025 31.6952 33.0332 34.3348 30.0729 35.9495V35.9495C28.6646 36.7176 27.1336 37.2352 25.5482 37.4791L23.7155 37.7611C21.253 38.1399 18.747 38.1399 16.2845 37.7611L14.4518 37.4791C12.8664 37.2352 11.3354 36.7176 9.92713 35.9495V35.9495C6.96678 34.3348 4.69747 31.6952 3.54508 28.5261L3.33625 27.9518C3.03854 27.1331 2.81055 26.2907 2.65472 25.4336L2.47903 24.4673C1.94121 21.5094 1.90004 18.4824 2.3572 15.5109L2.69953 13.2858C2.82546 12.4672 3.03143 11.6629 3.31448 10.8845V10.8845Z" fill="#0099FF"/>
<path d="M15.2682 3.15234C18.4043 2.66988 21.5961 2.66988 24.7321 3.15234L26.5993 3.44043C27.177 3.52931 27.7474 3.66055 28.3053 3.83301L28.8581 4.01855C32.0654 5.18484 34.6134 7.66888 35.8639 10.833L35.9811 11.1406C36.1809 11.6899 36.3397 12.2531 36.4567 12.8252L36.5592 13.3994L36.901 15.625C37.3455 18.5141 37.3058 21.457 36.7829 24.333L36.6071 25.2998C36.4588 26.1152 36.2419 26.9165 35.9587 27.6953L35.7497 28.2695C34.6597 31.2669 32.5135 33.7637 29.7135 35.291C28.3816 36.0175 26.9338 36.5076 25.4342 36.7383L23.6012 37.0195C21.2144 37.3867 18.785 37.3867 16.3981 37.0195L14.5661 36.7383C13.2539 36.5364 11.9807 36.1363 10.7907 35.5527L10.2858 35.291C7.66108 33.8592 5.6106 31.5756 4.46647 28.8262L4.24967 28.2695L4.04069 27.6953C3.75751 26.9165 3.54051 26.1151 3.39225 25.2998L3.21647 24.333C2.69361 21.4571 2.65384 18.5141 3.09831 15.625L3.44108 13.3994C3.52995 12.8219 3.66129 12.2521 3.83366 11.6943L4.01921 11.1406C5.22306 7.83017 7.83082 5.22241 11.1413 4.01855C11.8734 3.75233 12.6301 3.55891 13.4001 3.44043L15.2682 3.15234Z" stroke="url(#paint1_linear_14574_78399)" stroke-width="1.5" style="mix-blend-mode:overlay"/>
</g>
<g filter="url(#filter1_ddii_14574_78399)">
<path d="M15.0921 10.8418C15.2523 10.8575 15.409 10.8968 15.557 10.957L15.7025 11.0244C15.7969 11.0741 15.8863 11.1329 15.9691 11.2002L16.0882 11.3076L16.096 11.3154L16.1029 11.3232L19.6488 15.1631L19.6517 15.166L19.7757 15.3213C19.8518 15.4302 19.9138 15.5482 19.9593 15.6729L20.015 15.8643L20.0452 16.0625C20.062 16.261 20.0386 16.4616 19.9769 16.6523L19.972 16.668L19.9661 16.6836C19.8924 16.8684 19.7824 17.0362 19.6439 17.1787L19.4954 17.3125C19.2894 17.4757 19.0447 17.5845 18.7855 17.6309L18.7865 17.6318H18.7806L18.7757 17.6338L18.7747 17.6328C18.5805 17.6692 18.3811 17.6712 18.1868 17.6367L17.9915 17.5889C17.7346 17.5094 17.4996 17.367 17.3128 17.1729L17.306 17.165L16.5101 16.3027V28.3428C16.4965 28.6927 16.3602 29.0232 16.1312 29.2842L16.0277 29.3916C15.7738 29.6307 15.4481 29.7796 15.1038 29.8223L14.9554 29.834H14.932C14.5777 29.8298 14.2339 29.7111 13.9564 29.4961L13.8411 29.3984C13.546 29.1203 13.371 28.7373 13.3656 28.3301V16.2734L12.5423 17.165L12.5365 17.1729C12.4251 17.2889 12.2964 17.3873 12.1556 17.4648L12.0101 17.5352C11.9292 17.5698 11.6741 17.7026 11.3978 17.7061H11.3929C11.1312 17.7067 10.8732 17.644 10.6419 17.5244L10.5443 17.4697C10.3218 17.3341 10.1349 17.146 10.0042 16.9199L9.9515 16.8203L9.94271 16.8027L9.93587 16.7852C9.82677 16.5051 9.80504 16.2006 9.87044 15.9092L9.89876 15.8008C9.97189 15.5603 10.1044 15.3419 10.2826 15.1631L13.7572 11.3262L13.765 11.3174L13.7747 11.3076L13.8939 11.2002C14.0181 11.0993 14.1573 11.0176 14.306 10.957L14.4564 10.9043C14.6092 10.8585 14.769 10.834 14.931 10.834L15.0921 10.8418ZM26.3724 27.4258C26.3406 27.7298 26.2148 28.0149 26.0159 28.2461L25.9105 28.3574C25.6515 28.6041 25.3155 28.7544 24.9613 28.7881L24.8079 28.7949H21.9486C21.5898 28.7949 21.241 28.6758 20.9613 28.457L20.846 28.3574C20.5863 28.1098 20.4212 27.7803 20.3841 27.4258L20.3763 27.2725C20.3763 26.8602 20.5492 26.4705 20.846 26.1875L20.9613 26.0879C21.2411 25.869 21.5898 25.75 21.9486 25.75H24.8079L24.9613 25.7568C25.265 25.7857 25.5554 25.9004 25.7952 26.0879L25.9105 26.1875L25.9115 26.1885L26.0159 26.2988C26.2478 26.5685 26.3802 26.9116 26.3802 27.2725L26.3724 27.4258ZM27.7327 24.0049C27.7009 24.3088 27.5752 24.5939 27.3763 24.8252L27.2708 24.9365C26.9749 25.2183 26.5782 25.374 26.1683 25.374H21.9622C21.6034 25.374 21.2547 25.2549 20.9749 25.0361L20.8597 24.9365C20.6 24.6889 20.4349 24.3594 20.3978 24.0049L20.39 23.8516C20.39 23.4393 20.563 23.0496 20.8597 22.7666L20.9749 22.667C21.2548 22.4481 21.6035 22.3291 21.9622 22.3291H26.1683C26.5782 22.3291 26.9748 22.4846 27.2708 22.7666L27.3763 22.8779C27.6083 23.1477 27.7406 23.4907 27.7406 23.8516L27.7327 24.0049ZM28.887 20.3213C28.8555 20.6241 28.7313 20.9097 28.5326 21.1416L28.4261 21.2539C28.129 21.5369 27.7308 21.6904 27.3226 21.6904H21.9622C21.6046 21.6904 21.2562 21.5722 20.9759 21.3535L20.8597 21.2539C20.5997 21.006 20.4348 20.6757 20.3978 20.3213L20.39 20.168C20.3901 19.756 20.5629 19.366 20.8597 19.083L20.9749 18.9834C21.2547 18.7647 21.6034 18.6455 21.9622 18.6455H27.3226C27.732 18.6455 28.1298 18.8007 28.4261 19.083L28.5326 19.1943C28.7646 19.4647 28.8947 19.8086 28.8949 20.168L28.887 20.3213ZM30.8255 16.625C30.7938 16.9289 30.6681 17.2147 30.4691 17.4463L30.3636 17.5576C30.067 17.84 29.6698 17.9941 29.2611 17.9941H21.9622C21.6046 17.9941 21.2562 17.8759 20.9759 17.6572L20.8597 17.5576C20.5997 17.3097 20.4348 16.9794 20.3978 16.625L20.39 16.4717C20.3901 16.0598 20.5629 15.6697 20.8597 15.3867L20.9749 15.2871C21.2553 15.0681 21.6044 14.9502 21.9622 14.9502H29.2611C29.6698 14.9502 30.0669 15.1042 30.3636 15.3867L30.4691 15.498C30.701 15.7678 30.8332 16.1112 30.8333 16.4717L30.8255 16.625Z" fill="white"/>
</g>
</g>
</g>
<defs>
<filter id="filter0_di_14574_78399" x="0.0424938" y="1.04102" width="39.915" height="40.0039" filterUnits="userSpaceOnUse" color-interpolation-filters="sRGB">
<feFlood flood-opacity="0" result="BackgroundImageFix"/>
<feColorMatrix in="SourceAlpha" type="matrix" values="0 0 0 0 0 0 0 0 0 0 0 0 0 0 0 0 0 0 127 0" result="hardAlpha"/>
<feOffset dy="1"/>
<feGaussianBlur stdDeviation="1"/>
<feComposite in2="hardAlpha" operator="out"/>
<feColorMatrix type="matrix" values="0 0 0 0 0.0666667 0 0 0 0 0.0980392 0 0 0 0 0.117647 0 0 0 0.05 0"/>
<feBlend mode="normal" in2="BackgroundImageFix" result="effect1_dropShadow_14574_78399"/>
<feBlend mode="normal" in="SourceGraphic" in2="effect1_dropShadow_14574_78399" result="shape"/>
<feColorMatrix in="SourceAlpha" type="matrix" values="0 0 0 0 0 0 0 0 0 0 0 0 0 0 0 0 0 0 127 0" result="hardAlpha"/>
<feOffset dx="1.6" dy="1.6"/>
<feGaussianBlur stdDeviation="1.6"/>
<feComposite in2="hardAlpha" operator="arithmetic" k2="-1" k3="1"/>
<feColorMatrix type="matrix" values="0 0 0 0 0.0666667 0 0 0 0 0.0980392 0 0 0 0 0.117647 0 0 0 0.1 0"/>
<feBlend mode="normal" in2="shape" result="effect2_innerShadow_14574_78399"/>
</filter>
<filter id="filter1_ddii_14574_78399" x="-2.80952" y="-2.80887" width="46.4762" height="46.4768" filterUnits="userSpaceOnUse" color-interpolation-filters="sRGB">
<feFlood flood-opacity="0" result="BackgroundImageFix"/>
<feColorMatrix in="SourceAlpha" type="matrix" values="0 0 0 0 0 0 0 0 0 0 0 0 0 0 0 0 0 0 127 0" result="hardAlpha"/>
<feOffset dx="2.57143" dy="2.57143"/>
<feGaussianBlur stdDeviation="4.71429"/>
<feComposite in2="hardAlpha" operator="out"/>
<feColorMatrix type="matrix" values="0 0 0 0 0.321569 0 0 0 0 0.435294 0 0 0 0 1 0 0 0 1 0"/>
<feBlend mode="normal" in2="BackgroundImageFix" result="effect1_dropShadow_14574_78399"/>
<feColorMatrix in="SourceAlpha" type="matrix" values="0 0 0 0 0 0 0 0 0 0 0 0 0 0 0 0 0 0 127 0" result="hardAlpha"/>
<feOffset dx="-2.57143" dy="-2.57143"/>
<feGaussianBlur stdDeviation="4.28571"/>
<feComposite in2="hardAlpha" operator="out"/>
<feColorMatrix type="matrix" values="0 0 0 0 1 0 0 0 0 1 0 0 0 0 1 0 0 0 0.4 0"/>
<feBlend mode="normal" in2="effect1_dropShadow_14574_78399" result="effect2_dropShadow_14574_78399"/>
<feBlend mode="normal" in="SourceGraphic" in2="effect2_dropShadow_14574_78399" result="shape"/>
<feColorMatrix in="SourceAlpha" type="matrix" values="0 0 0 0 0 0 0 0 0 0 0 0 0 0 0 0 0 0 127 0" result="hardAlpha"/>
<feOffset dy="-1.28571"/>
<feGaussianBlur stdDeviation="0.985714"/>
<feComposite in2="hardAlpha" operator="arithmetic" k2="-1" k3="1"/>
<feColorMatrix type="matrix" values="0 0 0 0 0 0 0 0 0 0.598039 0 0 0 0 1 0 0 0 0.4 0"/>
<feBlend mode="normal" in2="shape" result="effect3_innerShadow_14574_78399"/>
<feColorMatrix in="SourceAlpha" type="matrix" values="0 0 0 0 0 0 0 0 0 0 0 0 0 0 0 0 0 0 127 0" result="hardAlpha"/>
<feOffset dy="-0.428571"/>
<feGaussianBlur stdDeviation="0.557143"/>
<feComposite in2="hardAlpha" operator="arithmetic" k2="-1" k3="1"/>
<feColorMatrix type="matrix" values="0 0 0 0 1 0 0 0 0 1 0 0 0 0 1 0 0 0 0.6 0"/>
<feBlend mode="normal" in2="effect3_innerShadow_14574_78399" result="effect4_innerShadow_14574_78399"/>
</filter>
<linearGradient id="paint0_linear_14574_78399" x1="6.8" y1="10.8" x2="36.8" y2="47.6" gradientUnits="userSpaceOnUse">
<stop stop-color="#11191E" stop-opacity="0.4"/>
<stop offset="1" stop-color="white"/>
</linearGradient>
<linearGradient id="paint1_linear_14574_78399" x1="7.9" y1="11.566" x2="35.4" y2="45.2993" gradientUnits="userSpaceOnUse">
<stop stop-color="#11191E" stop-opacity="0.4"/>
<stop offset="1" stop-color="white"/>
</linearGradient>
<clipPath id="clip0_14574_78399">
<rect width="40" height="40" fill="white"/>
</clipPath>
</defs>
</svg>
