<svg width="40" height="40" viewBox="0 0 40 40" fill="none" xmlns="http://www.w3.org/2000/svg">
<g clip-path="url(#clip0_13652_124797)">
<mask id="mask0_13652_124797" style="mask-type:alpha" maskUnits="userSpaceOnUse" x="0" y="0" width="40" height="40">
<path d="M20 0.799805C26.7982 0.799805 31.5477 2.32891 34.6094 5.39062C37.6711 8.45234 39.2002 13.2018 39.2002 20C39.2002 26.7982 37.6711 31.5477 34.6094 34.6094C31.5477 37.6711 26.7982 39.2002 20 39.2002C13.2018 39.2002 8.45234 37.6711 5.39062 34.6094C2.32891 31.5477 0.799805 26.7982 0.799805 20C0.799805 13.2018 2.32891 8.45234 5.39062 5.39062C8.45234 2.32891 13.2018 0.799805 20 0.799805Z" fill="#0099FF"/>
<path d="M20 0.799805C26.7982 0.799805 31.5477 2.32891 34.6094 5.39062C37.6711 8.45234 39.2002 13.2018 39.2002 20C39.2002 26.7982 37.6711 31.5477 34.6094 34.6094C31.5477 37.6711 26.7982 39.2002 20 39.2002C13.2018 39.2002 8.45234 37.6711 5.39062 34.6094C2.32891 31.5477 0.799805 26.7982 0.799805 20C0.799805 13.2018 2.32891 8.45234 5.39062 5.39062C8.45234 2.32891 13.2018 0.799805 20 0.799805Z" stroke="url(#paint0_linear_13652_124797)" stroke-width="1.6"/>
</mask>
<g mask="url(#mask0_13652_124797)">
<g filter="url(#filter0_di_13652_124797)">
<path d="M3.31383 10.885C4.59349 7.36595 7.36546 4.59398 10.8845 3.31431C11.6629 3.03127 12.4672 2.8253 13.2858 2.69936L15.1535 2.41201C18.3652 1.91791 21.6335 1.91791 24.8452 2.41201L26.7129 2.69936C27.5315 2.8253 28.3358 3.03127 29.1142 3.31431C32.6332 4.59398 35.4052 7.36595 36.6849 10.885C36.9679 11.6634 37.1739 12.4677 37.2998 13.2863L37.6422 15.5114C38.0993 18.4829 38.0581 21.5098 37.5203 24.4678L37.3446 25.4341C37.1888 26.2912 36.9608 27.1336 36.6631 27.9523L36.4543 28.5266C35.3019 31.6957 33.0326 34.3353 30.0722 35.95C28.664 36.7181 27.133 37.2357 25.5475 37.4796L23.7148 37.7616C21.2523 38.1404 18.7464 38.1404 16.2838 37.7616L14.4512 37.4796C12.8657 37.2357 11.3347 36.7181 9.92648 35.95C6.96613 34.3353 4.69682 31.6957 3.54443 28.5266L3.3356 27.9523C3.03789 27.1336 2.8099 26.2912 2.65407 25.4341L2.47838 24.4678C1.94056 21.5098 1.89939 18.4829 2.35654 15.5114L2.69887 13.2863C2.82481 12.4677 3.03078 11.6634 3.31383 10.885Z" fill="#0099FF"/>
<path d="M15.2676 3.15283C18.2077 2.70052 21.1964 2.67305 24.1426 3.06885L24.7314 3.15283L26.5986 3.44092C27.1764 3.5298 27.7467 3.66104 28.3047 3.8335L28.8574 4.01904C32.0647 5.18533 34.6128 7.66937 35.8633 10.8335L35.9805 11.1411C36.1802 11.6904 36.3391 12.2536 36.4561 12.8257L36.5586 13.3999L36.9004 15.6255C37.3171 18.334 37.3086 21.0899 36.875 23.7935L36.7822 24.3335L36.6064 25.3003C36.4952 25.9119 36.3457 26.5157 36.1582 27.1079L35.958 27.6958L35.749 28.27C34.7272 31.08 32.7773 33.45 30.2305 34.9937L29.7129 35.2915C28.5474 35.9272 27.2932 36.382 25.9932 36.6401L25.4336 36.7388L23.6006 37.02C21.3628 37.3643 19.0881 37.3857 16.8457 37.0845L16.3975 37.02L14.5654 36.7388C13.2532 36.5369 11.9801 36.1368 10.79 35.5532L10.2852 35.2915C7.66043 33.8597 5.60995 31.5761 4.46582 28.8267L4.24902 28.27L4.04004 27.6958C3.82761 27.1116 3.65245 26.5147 3.51562 25.9087L3.3916 25.3003L3.21582 24.3335C2.72561 21.6372 2.66054 18.882 3.02051 16.1675L3.09766 15.6255L3.44043 13.3999C3.5293 12.8224 3.66064 12.2526 3.83301 11.6948L4.01855 11.1411C5.18485 7.93394 7.66899 5.38673 10.833 4.13623L11.1406 4.01904C11.6899 3.81931 12.2531 3.66042 12.8252 3.54346L13.3994 3.44092L15.2676 3.15283Z" stroke="url(#paint1_linear_13652_124797)" stroke-width="1.5" style="mix-blend-mode:overlay"/>
</g>
<g filter="url(#filter1_ddii_13652_124797)">
<path d="M20.0288 14.6334C24.2773 14.6334 27.7216 18.0111 27.7216 22.1777C27.7216 26.3444 24.2773 29.7223 20.0288 29.7223C15.7801 29.7223 12.336 26.3445 12.336 22.1778C12.336 18.0112 15.7801 14.6334 20.0288 14.6334ZM27.2231 10.2778C27.529 10.2778 27.7669 10.5223 27.7782 10.8112C27.7782 10.9333 27.7329 11.0334 27.6649 11.1223L25.4783 15.4556C23.6203 13.7112 20.482 13.5223 20.482 13.5223L21.9435 10.6889C22.0001 10.4556 22.2041 10.2778 22.4646 10.2778H27.2231ZM19.5076 13.5223C19.5076 13.5223 16.3693 13.7112 14.5225 15.4556L12.336 11.1223C12.2679 11.0334 12.2227 10.9333 12.2227 10.8112C12.2227 10.5222 12.4606 10.2778 12.7665 10.2778H17.5249C17.7855 10.2778 17.9894 10.4556 18.0461 10.6889L19.5076 13.5223ZM23.9828 21.5C24.5039 21 24.334 20.5333 23.6656 20.4333L21.5696 20.1334L20.6292 18.2667C20.3007 17.6333 19.8022 17.6444 19.4849 18.2667L18.5446 20.1333L16.4486 20.4333C15.7348 20.5444 15.5876 21.0111 16.0974 21.5L17.6155 22.9444L17.253 24.9888C17.1284 25.6889 17.5363 25.9666 18.1708 25.6444L20.04 24.6777L21.9094 25.6444C22.5439 25.9777 22.9518 25.6777 22.8272 24.9888L22.4646 22.9444L23.9828 21.5Z" fill="white"/>
</g>
</g>
</g>
<defs>
<filter id="filter0_di_13652_124797" x="0.0410156" y="1.0415" width="39.916" height="40.0044" filterUnits="userSpaceOnUse" color-interpolation-filters="sRGB">
<feFlood flood-opacity="0" result="BackgroundImageFix"/>
<feColorMatrix in="SourceAlpha" type="matrix" values="0 0 0 0 0 0 0 0 0 0 0 0 0 0 0 0 0 0 127 0" result="hardAlpha"/>
<feOffset dy="1"/>
<feGaussianBlur stdDeviation="1"/>
<feComposite in2="hardAlpha" operator="out"/>
<feColorMatrix type="matrix" values="0 0 0 0 0.0666667 0 0 0 0 0.0980392 0 0 0 0 0.117647 0 0 0 0.05 0"/>
<feBlend mode="normal" in2="BackgroundImageFix" result="effect1_dropShadow_13652_124797"/>
<feBlend mode="normal" in="SourceGraphic" in2="effect1_dropShadow_13652_124797" result="shape"/>
<feColorMatrix in="SourceAlpha" type="matrix" values="0 0 0 0 0 0 0 0 0 0 0 0 0 0 0 0 0 0 127 0" result="hardAlpha"/>
<feOffset dx="1.6" dy="1.6"/>
<feGaussianBlur stdDeviation="1.6"/>
<feComposite in2="hardAlpha" operator="arithmetic" k2="-1" k3="1"/>
<feColorMatrix type="matrix" values="0 0 0 0 0.0666667 0 0 0 0 0.0980392 0 0 0 0 0.117647 0 0 0 0.1 0"/>
<feBlend mode="normal" in2="shape" result="effect2_innerShadow_13652_124797"/>
</filter>
<filter id="filter1_ddii_13652_124797" x="-2.80887" y="-2.80936" width="46.4768" height="46.4764" filterUnits="userSpaceOnUse" color-interpolation-filters="sRGB">
<feFlood flood-opacity="0" result="BackgroundImageFix"/>
<feColorMatrix in="SourceAlpha" type="matrix" values="0 0 0 0 0 0 0 0 0 0 0 0 0 0 0 0 0 0 127 0" result="hardAlpha"/>
<feOffset dx="2.57143" dy="2.57143"/>
<feGaussianBlur stdDeviation="4.71429"/>
<feComposite in2="hardAlpha" operator="out"/>
<feColorMatrix type="matrix" values="0 0 0 0 0.321569 0 0 0 0 0.435294 0 0 0 0 1 0 0 0 1 0"/>
<feBlend mode="normal" in2="BackgroundImageFix" result="effect1_dropShadow_13652_124797"/>
<feColorMatrix in="SourceAlpha" type="matrix" values="0 0 0 0 0 0 0 0 0 0 0 0 0 0 0 0 0 0 127 0" result="hardAlpha"/>
<feOffset dx="-2.57143" dy="-2.57143"/>
<feGaussianBlur stdDeviation="4.28571"/>
<feComposite in2="hardAlpha" operator="out"/>
<feColorMatrix type="matrix" values="0 0 0 0 1 0 0 0 0 1 0 0 0 0 1 0 0 0 0.4 0"/>
<feBlend mode="normal" in2="effect1_dropShadow_13652_124797" result="effect2_dropShadow_13652_124797"/>
<feBlend mode="normal" in="SourceGraphic" in2="effect2_dropShadow_13652_124797" result="shape"/>
<feColorMatrix in="SourceAlpha" type="matrix" values="0 0 0 0 0 0 0 0 0 0 0 0 0 0 0 0 0 0 127 0" result="hardAlpha"/>
<feOffset dy="-1.28571"/>
<feGaussianBlur stdDeviation="0.985714"/>
<feComposite in2="hardAlpha" operator="arithmetic" k2="-1" k3="1"/>
<feColorMatrix type="matrix" values="0 0 0 0 0 0 0 0 0 0.598039 0 0 0 0 1 0 0 0 0.4 0"/>
<feBlend mode="normal" in2="shape" result="effect3_innerShadow_13652_124797"/>
<feColorMatrix in="SourceAlpha" type="matrix" values="0 0 0 0 0 0 0 0 0 0 0 0 0 0 0 0 0 0 127 0" result="hardAlpha"/>
<feOffset dy="-0.428571"/>
<feGaussianBlur stdDeviation="0.557143"/>
<feComposite in2="hardAlpha" operator="arithmetic" k2="-1" k3="1"/>
<feColorMatrix type="matrix" values="0 0 0 0 1 0 0 0 0 1 0 0 0 0 1 0 0 0 0.6 0"/>
<feBlend mode="normal" in2="effect3_innerShadow_13652_124797" result="effect4_innerShadow_13652_124797"/>
</filter>
<linearGradient id="paint0_linear_13652_124797" x1="6.8" y1="10.8" x2="36.8" y2="47.6" gradientUnits="userSpaceOnUse">
<stop stop-color="#11191E" stop-opacity="0.4"/>
<stop offset="1" stop-color="white"/>
</linearGradient>
<linearGradient id="paint1_linear_13652_124797" x1="7.89935" y1="11.5665" x2="35.3993" y2="45.2998" gradientUnits="userSpaceOnUse">
<stop stop-color="#11191E" stop-opacity="0.4"/>
<stop offset="1" stop-color="white"/>
</linearGradient>
<clipPath id="clip0_13652_124797">
<rect width="40" height="40" fill="white"/>
</clipPath>
</defs>
</svg>
