<svg width="16" height="16" viewBox="0 0 16 16" fill="none" xmlns="http://www.w3.org/2000/svg">
<path d="M12.5874 12.8313C13.7363 11.7424 14.4599 10.2799 14.6286 8.706C14.7973 7.13205 14.4001 5.54946 13.5082 4.24173C12.6162 2.934 11.2878 1.9866 9.76082 1.56924C8.23388 1.15188 6.60823 1.29184 5.17509 1.96405L6.10306 3.6344C6.82728 3.31964 7.61844 3.19005 8.40524 3.2573C9.19203 3.32456 9.94972 3.58655 10.61 4.01967C11.2703 4.45278 11.8124 5.04341 12.1875 5.73829C12.5626 6.43318 12.7589 7.21049 12.7587 8.00016H9.90344L12.5874 12.8313ZM10.8247 14.0363L9.89678 12.3659C9.17256 12.6807 8.38139 12.8103 7.5946 12.743C6.80781 12.6758 6.05012 12.4138 5.38983 11.9807C4.72954 11.5475 4.18741 10.9569 3.8123 10.262C3.43719 9.56714 3.2409 8.78983 3.24112 8.00016H6.0964L3.41243 3.16898C2.26355 4.25794 1.53994 5.72038 1.37122 7.29433C1.2025 8.86827 1.5997 10.4509 2.49167 11.7586C3.38363 13.0663 4.71208 14.0137 6.23902 14.4311C7.76596 14.8484 9.39161 14.7085 10.8247 14.0363Z" fill="#11191E"/>
</svg>
