<svg width="17" height="16" viewBox="0 0 17 16" fill="none" xmlns="http://www.w3.org/2000/svg">
<path id="refresh-icon-path" d="M13.0875 12.8312C14.2364 11.7422 14.96 10.2798 15.1287 8.70585C15.2975 7.1319 14.9003 5.5493 14.0083 4.24158C13.1163 2.93385 11.7879 1.98645 10.2609 1.56909C8.734 1.15173 7.10835 1.29169 5.67522 1.96389L6.60318 3.63425C7.3274 3.31949 8.11857 3.18989 8.90536 3.25715C9.69215 3.32441 10.4498 3.5864 11.1101 4.01952C11.7704 4.45263 12.3126 5.04325 12.6877 5.73814C13.0628 6.43303 13.2591 7.21034 13.2588 8.00001H10.4036L13.0875 12.8312ZM11.3249 14.0361L10.3969 12.3658C9.67268 12.6805 8.88152 12.8101 8.09472 12.7429C7.30793 12.6756 6.55024 12.4136 5.88995 11.9805C5.22966 11.5474 4.68753 10.9568 4.31242 10.2619C3.93731 9.56699 3.74102 8.78968 3.74124 8.00001H6.59652L3.91256 3.16883C2.76368 4.25779 2.04006 5.72023 1.87134 7.29418C1.70262 8.86812 2.09982 10.4507 2.99179 11.7584C3.88376 13.0662 5.2122 14.0136 6.73914 14.4309C8.26608 14.8483 9.89173 14.7083 11.3249 14.0361Z" fill="#A2AAAF"/>
</svg>
