<svg width="16" height="16" viewBox="0 0 16 16" fill="none" xmlns="http://www.w3.org/2000/svg">
<path d="M14.3347 3.08048L12.921 1.66675L10.6675 3.9203V2.00008H8.9998V6.99813H13.9998V5.3324H12.0828L14.3347 3.08048Z" fill="#0099FF"/>
<path d="M5.33322 14.0015V12.0834L3.08154 14.335L1.6678 12.9213L3.90889 10.6802L1.9998 10.6802V9.00362L6.99524 9.00362V14.0015H5.33322Z" fill="#0099FF"/>
<path d="M1.99953 5.3324L3.9188 5.3324L1.66711 3.08072L3.08085 1.66698L5.32193 3.90807L5.32193 2.00008L6.99497 2.00008V6.99804L1.99953 6.99803L1.99953 5.3324Z" fill="#0099FF"/>
<path d="M12.9207 14.335L14.3345 12.9213L12.0809 10.6678H14.0011V9.00371H8.9998L8.9998 14.0001H10.6688V12.0831L12.9207 14.335Z" fill="#0099FF"/>
</svg>
