<svg width="40" height="40" viewBox="0 0 40 40" fill="none" xmlns="http://www.w3.org/2000/svg">
<g clip-path="url(#clip0_13626_66516)">
<mask id="mask0_13626_66516" style="mask-type:alpha" maskUnits="userSpaceOnUse" x="0" y="0" width="40" height="40">
<path d="M20 0.799805C26.7982 0.799805 31.5477 2.32891 34.6094 5.39062C37.6711 8.45234 39.2002 13.2018 39.2002 20C39.2002 26.7982 37.6711 31.5477 34.6094 34.6094C31.5477 37.6711 26.7982 39.2002 20 39.2002C13.2018 39.2002 8.45234 37.6711 5.39062 34.6094C2.32891 31.5477 0.799805 26.7982 0.799805 20C0.799805 13.2018 2.32891 8.45234 5.39062 5.39062C8.45234 2.32891 13.2018 0.799805 20 0.799805Z" fill="#0099FF"/>
<path d="M20 0.799805C26.7982 0.799805 31.5477 2.32891 34.6094 5.39062C37.6711 8.45234 39.2002 13.2018 39.2002 20C39.2002 26.7982 37.6711 31.5477 34.6094 34.6094C31.5477 37.6711 26.7982 39.2002 20 39.2002C13.2018 39.2002 8.45234 37.6711 5.39062 34.6094C2.32891 31.5477 0.799805 26.7982 0.799805 20C0.799805 13.2018 2.32891 8.45234 5.39062 5.39062C8.45234 2.32891 13.2018 0.799805 20 0.799805Z" stroke="url(#paint0_linear_13626_66516)" stroke-width="1.6"/>
</mask>
<g mask="url(#mask0_13626_66516)">
<g filter="url(#filter0_di_13626_66516)">
<path d="M3.31444 10.8855C4.5941 7.36644 7.36607 4.59447 10.8851 3.3148C11.6635 3.03176 12.4678 2.82579 13.2864 2.69985L15.1542 2.4125C18.3658 1.9184 21.6341 1.9184 24.8458 2.4125L26.7135 2.69985C27.5321 2.82579 28.3364 3.03176 29.1148 3.3148C32.6338 4.59447 35.4058 7.36644 36.6855 10.8855C36.9685 11.6639 37.1745 12.4681 37.3004 13.2867L37.6428 15.5119C38.0999 18.4834 38.0587 21.5103 37.5209 24.4683L37.3452 25.4346C37.1894 26.2917 36.9614 27.1341 36.6637 27.9528L36.4549 28.5271C35.3025 31.6962 33.0332 34.3357 30.0728 35.9505C28.6646 36.7186 27.1336 37.2362 25.5481 37.4801L23.7155 37.762C21.2529 38.1409 18.747 38.1409 16.2845 37.762L14.4518 37.4801C12.8663 37.2362 11.3353 36.7186 9.92709 35.9505C6.96674 34.3357 4.69743 31.6962 3.54504 28.5271L3.33621 27.9528C3.0385 27.1341 2.81051 26.2917 2.65468 25.4346L2.47899 24.4683C1.94117 21.5103 1.9 18.4834 2.35715 15.5119L2.69948 13.2867C2.82542 12.4681 3.03139 11.6639 3.31444 10.8855Z" fill="#0099FF"/>
<path d="M15.2682 3.15332C18.2083 2.70101 21.197 2.67354 24.1432 3.06934L24.7321 3.15332L26.5992 3.44141C27.177 3.53029 27.7473 3.66152 28.3053 3.83398L28.858 4.01953C32.0653 5.18581 34.6134 7.66986 35.8639 10.834L35.9811 11.1416C36.1808 11.6909 36.3397 12.254 36.4567 12.8262L36.5592 13.4004L36.901 15.626C37.3177 18.3345 37.3092 21.0903 36.8756 23.7939L36.7828 24.334L36.6071 25.3008C36.4958 25.9124 36.3463 26.5162 36.1588 27.1084L35.9586 27.6963L35.7496 28.2705C34.7278 31.0805 32.7779 33.4504 30.2311 34.9941L29.7135 35.292C28.548 35.9277 27.2938 36.3825 25.9938 36.6406L25.4342 36.7393L23.6012 37.0205C21.3634 37.3648 19.0887 37.3862 16.8463 37.085L16.3981 37.0205L14.566 36.7393C13.2539 36.5374 11.9807 36.1373 10.7906 35.5537L10.2858 35.292C7.66104 33.8602 5.61056 31.5766 4.46643 28.8271L4.24963 28.2705L4.04065 27.6963C3.82822 27.1121 3.65306 26.5151 3.51624 25.9092L3.39221 25.3008L3.21643 24.334C2.72622 21.6377 2.66115 18.8825 3.02112 16.168L3.09827 15.626L3.44104 13.4004C3.52991 12.8229 3.66125 12.2531 3.83362 11.6953L4.01917 11.1416C5.18546 7.93443 7.6696 5.38721 10.8336 4.13672L11.1412 4.01953C11.6905 3.81979 12.2537 3.66091 12.8258 3.54395L13.4 3.44141L15.2682 3.15332Z" stroke="url(#paint1_linear_13626_66516)" stroke-width="1.5" style="mix-blend-mode:overlay"/>
</g>
<g filter="url(#filter1_ddii_13626_66516)">
<path d="M17.5716 10.885C17.5716 10.8052 17.5873 10.7262 17.6179 10.6524C17.6484 10.5787 17.6931 10.5117 17.7496 10.4553C17.806 10.3989 17.873 10.3541 17.9467 10.3236C18.0204 10.2931 18.0994 10.2773 18.1792 10.2773H21.825C21.9862 10.2773 22.1407 10.3414 22.2547 10.4553C22.3686 10.5693 22.4327 10.7238 22.4327 10.885C22.4327 11.0461 22.3686 11.2007 22.2547 11.3146C22.1407 11.4286 21.9862 11.4926 21.825 11.4926H21.2174V12.7929C22.8722 13.032 24.42 13.7534 25.6673 14.8669C26.9146 15.9804 27.8061 17.4367 28.2306 19.054C28.6551 20.6712 28.5936 22.3777 28.054 23.9602C27.5143 25.5428 26.5203 26.9312 25.1962 27.9522L25.927 28.6838C25.9834 28.7401 26.0283 28.8071 26.0589 28.8808C26.0895 28.9545 26.1053 29.0336 26.1054 29.1134C26.1055 29.1932 26.0898 29.2723 26.0593 29.346C26.0289 29.4198 25.9842 29.4869 25.9278 29.5434C25.8714 29.5998 25.8044 29.6447 25.7307 29.6753C25.657 29.7059 25.578 29.7217 25.4981 29.7218C25.4183 29.7219 25.3393 29.7062 25.2655 29.6757C25.1917 29.6453 25.1247 29.6006 25.0682 29.5442L24.1608 28.6376C22.8908 29.3504 21.4585 29.7238 20.0021 29.7216C18.5458 29.7238 17.1135 29.3504 15.8435 28.6376L14.9369 29.5442C14.8804 29.6006 14.8134 29.6453 14.7396 29.6757C14.6658 29.7062 14.5868 29.7219 14.5069 29.7218C14.4271 29.7217 14.3481 29.7059 14.2744 29.6753C14.2007 29.6447 14.1337 29.5998 14.0773 29.5434C14.0209 29.4869 13.9762 29.4198 13.9457 29.346C13.9153 29.2723 13.8996 29.1932 13.8997 29.1134C13.8998 29.0336 13.9156 28.9545 13.9462 28.8808C13.9768 28.8071 14.0216 28.7401 14.0781 28.6838L14.8097 27.9522C13.4856 26.9313 12.4916 25.543 11.9519 23.9606C11.4121 22.3782 11.3505 20.6718 11.7748 19.0546C12.1991 17.4374 13.0905 15.981 14.3375 14.8674C15.5846 13.7538 17.1321 13.0323 18.7869 12.7929V11.4926H18.1792C18.0994 11.4926 18.0204 11.4769 17.9467 11.4464C17.873 11.4158 17.806 11.3711 17.7496 11.3146C17.6931 11.2582 17.6484 11.1912 17.6179 11.1175C17.5873 11.0438 17.5716 10.9648 17.5716 10.885ZM20.6098 16.9613C20.6098 16.8001 20.5457 16.6456 20.4318 16.5316C20.3178 16.4177 20.1633 16.3537 20.0021 16.3537C19.841 16.3537 19.6864 16.4177 19.5725 16.5316C19.4585 16.6456 19.3945 16.8001 19.3945 16.9613V21.047L17.6583 23.9394C17.5752 24.0776 17.5505 24.2432 17.5896 24.3997C17.6286 24.5562 17.7282 24.6908 17.8665 24.7738C18.0048 24.8569 18.1704 24.8816 18.3269 24.8426C18.4834 24.8035 18.6179 24.7039 18.701 24.5656L20.5239 21.5275C20.5804 21.4329 20.61 21.3248 20.6098 21.2147V16.9613ZM11.3251 16.8236C11.0101 16.5503 10.7547 16.215 10.5748 15.8387C10.3949 15.4623 10.2945 15.053 10.2797 14.6362C10.265 14.2194 10.3362 13.8039 10.4889 13.4158C10.6417 13.0277 10.8728 12.6752 11.1677 12.3803C11.4626 12.0854 11.8151 11.8543 12.2032 11.7016C12.5913 11.5488 13.0068 11.4776 13.4236 11.4923C13.8404 11.5071 14.2497 11.6076 14.6261 11.7874C15.0024 11.9673 15.3377 12.2227 15.611 12.5377C13.7639 13.4756 12.263 14.9765 11.3251 16.8236ZM24.3933 12.5377C24.6666 12.2227 25.0019 11.9673 25.3782 11.7874C25.7545 11.6076 26.1638 11.5071 26.5807 11.4923C26.9975 11.4776 27.4129 11.5488 27.801 11.7016C28.1891 11.8543 28.5416 12.0854 28.8366 12.3803C29.1315 12.6752 29.3625 13.0277 29.5153 13.4158C29.6681 13.8039 29.7393 14.2194 29.7245 14.6362C29.7098 15.053 29.6093 15.4623 29.4295 15.8387C29.2496 16.215 28.9942 16.5503 28.6791 16.8236C27.7413 14.9765 26.2404 13.4756 24.3933 12.5377Z" fill="white"/>
</g>
</g>
</g>
<defs>
<filter id="filter0_di_13626_66516" x="0.0424805" y="1.04199" width="39.915" height="40.0039" filterUnits="userSpaceOnUse" color-interpolation-filters="sRGB">
<feFlood flood-opacity="0" result="BackgroundImageFix"/>
<feColorMatrix in="SourceAlpha" type="matrix" values="0 0 0 0 0 0 0 0 0 0 0 0 0 0 0 0 0 0 127 0" result="hardAlpha"/>
<feOffset dy="1"/>
<feGaussianBlur stdDeviation="1"/>
<feComposite in2="hardAlpha" operator="out"/>
<feColorMatrix type="matrix" values="0 0 0 0 0.0666667 0 0 0 0 0.0980392 0 0 0 0 0.117647 0 0 0 0.05 0"/>
<feBlend mode="normal" in2="BackgroundImageFix" result="effect1_dropShadow_13626_66516"/>
<feBlend mode="normal" in="SourceGraphic" in2="effect1_dropShadow_13626_66516" result="shape"/>
<feColorMatrix in="SourceAlpha" type="matrix" values="0 0 0 0 0 0 0 0 0 0 0 0 0 0 0 0 0 0 127 0" result="hardAlpha"/>
<feOffset dx="1.6" dy="1.6"/>
<feGaussianBlur stdDeviation="1.6"/>
<feComposite in2="hardAlpha" operator="arithmetic" k2="-1" k3="1"/>
<feColorMatrix type="matrix" values="0 0 0 0 0.0666667 0 0 0 0 0.0980392 0 0 0 0 0.117647 0 0 0 0.1 0"/>
<feBlend mode="normal" in2="shape" result="effect2_innerShadow_13626_66516"/>
</filter>
<filter id="filter1_ddii_13626_66516" x="-2.80948" y="-2.80985" width="46.4762" height="46.4759" filterUnits="userSpaceOnUse" color-interpolation-filters="sRGB">
<feFlood flood-opacity="0" result="BackgroundImageFix"/>
<feColorMatrix in="SourceAlpha" type="matrix" values="0 0 0 0 0 0 0 0 0 0 0 0 0 0 0 0 0 0 127 0" result="hardAlpha"/>
<feOffset dx="2.57143" dy="2.57143"/>
<feGaussianBlur stdDeviation="4.71429"/>
<feComposite in2="hardAlpha" operator="out"/>
<feColorMatrix type="matrix" values="0 0 0 0 0.321569 0 0 0 0 0.435294 0 0 0 0 1 0 0 0 1 0"/>
<feBlend mode="normal" in2="BackgroundImageFix" result="effect1_dropShadow_13626_66516"/>
<feColorMatrix in="SourceAlpha" type="matrix" values="0 0 0 0 0 0 0 0 0 0 0 0 0 0 0 0 0 0 127 0" result="hardAlpha"/>
<feOffset dx="-2.57143" dy="-2.57143"/>
<feGaussianBlur stdDeviation="4.28571"/>
<feComposite in2="hardAlpha" operator="out"/>
<feColorMatrix type="matrix" values="0 0 0 0 1 0 0 0 0 1 0 0 0 0 1 0 0 0 0.4 0"/>
<feBlend mode="normal" in2="effect1_dropShadow_13626_66516" result="effect2_dropShadow_13626_66516"/>
<feBlend mode="normal" in="SourceGraphic" in2="effect2_dropShadow_13626_66516" result="shape"/>
<feColorMatrix in="SourceAlpha" type="matrix" values="0 0 0 0 0 0 0 0 0 0 0 0 0 0 0 0 0 0 127 0" result="hardAlpha"/>
<feOffset dy="-1.28571"/>
<feGaussianBlur stdDeviation="0.985714"/>
<feComposite in2="hardAlpha" operator="arithmetic" k2="-1" k3="1"/>
<feColorMatrix type="matrix" values="0 0 0 0 0 0 0 0 0 0.598039 0 0 0 0 1 0 0 0 0.4 0"/>
<feBlend mode="normal" in2="shape" result="effect3_innerShadow_13626_66516"/>
<feColorMatrix in="SourceAlpha" type="matrix" values="0 0 0 0 0 0 0 0 0 0 0 0 0 0 0 0 0 0 127 0" result="hardAlpha"/>
<feOffset dy="-0.428571"/>
<feGaussianBlur stdDeviation="0.557143"/>
<feComposite in2="hardAlpha" operator="arithmetic" k2="-1" k3="1"/>
<feColorMatrix type="matrix" values="0 0 0 0 1 0 0 0 0 1 0 0 0 0 1 0 0 0 0.6 0"/>
<feBlend mode="normal" in2="effect3_innerShadow_13626_66516" result="effect4_innerShadow_13626_66516"/>
</filter>
<linearGradient id="paint0_linear_13626_66516" x1="6.8" y1="10.8" x2="36.8" y2="47.6" gradientUnits="userSpaceOnUse">
<stop stop-color="#11191E" stop-opacity="0.4"/>
<stop offset="1" stop-color="white"/>
</linearGradient>
<linearGradient id="paint1_linear_13626_66516" x1="7.89996" y1="11.567" x2="35.4" y2="45.3003" gradientUnits="userSpaceOnUse">
<stop stop-color="#11191E" stop-opacity="0.4"/>
<stop offset="1" stop-color="white"/>
</linearGradient>
<clipPath id="clip0_13626_66516">
<rect width="40" height="40" fill="white"/>
</clipPath>
</defs>
</svg>
