<svg width="24" height="24" viewBox="0 0 24 24" xmlns="http://www.w3.org/2000/svg">
<g clip-path="url(#clip0_15007_76963)">
<mask id="mask0_15007_76963" style="mask-type:alpha" maskUnits="userSpaceOnUse" x="0" y="0" width="24" height="24">
<path d="M12 0.480469C16.0789 0.480469 18.9286 1.39734 20.7656 3.23438C22.6027 5.07141 23.5195 7.92109 23.5195 12C23.5195 16.0789 22.6027 18.9286 20.7656 20.7656C18.9286 22.6027 16.0789 23.5195 12 23.5195C7.92109 23.5195 5.07141 22.6027 3.23438 20.7656C1.39734 18.9286 0.480469 16.0789 0.480469 12C0.480469 7.92109 1.39734 5.07141 3.23438 3.23438C5.07141 1.39734 7.92109 0.480469 12 0.480469Z"/>
<path d="M12 0.480469C16.0789 0.480469 18.9286 1.39734 20.7656 3.23438C22.6027 5.07141 23.5195 7.92109 23.5195 12C23.5195 16.0789 22.6027 18.9286 20.7656 20.7656C18.9286 22.6027 16.0789 23.5195 12 23.5195C7.92109 23.5195 5.07141 22.6027 3.23438 20.7656C1.39734 18.9286 0.480469 16.0789 0.480469 12C0.480469 7.92109 1.39734 5.07141 3.23438 3.23438C5.07141 1.39734 7.92109 0.480469 12 0.480469Z" stroke="url(#paint0_linear_15007_76963)" stroke-width="0.96"/>
</mask>
<g mask="url(#mask0_15007_76963)">
<g filter="url(#filter0_di_15007_76963)">
<path d="M1.98869 6.53111C2.75648 4.41967 4.41967 2.75648 6.53111 1.98869V1.98869C6.99813 1.81886 7.48069 1.69528 7.97185 1.61972L9.09252 1.44731C11.0195 1.15085 12.9805 1.15085 14.9075 1.44731L16.0281 1.61972C16.5193 1.69528 17.0019 1.81886 17.4689 1.98869V1.98869C19.5803 2.75648 21.2435 4.41967 22.0113 6.53111V6.53111C22.1811 6.99813 22.3047 7.48069 22.3803 7.97185L22.5857 9.30694C22.86 11.0899 22.8353 12.906 22.5126 14.6808L22.4072 15.2606C22.3137 15.7748 22.1769 16.2803 21.9982 16.7715L21.873 17.1161C21.1815 19.0175 19.8199 20.6013 18.0437 21.5701V21.5701C17.1988 22.031 16.2802 22.3415 15.3289 22.4879L14.2293 22.657C12.7518 22.8843 11.2482 22.8843 9.7707 22.657L8.6711 22.4879C7.71982 22.3415 6.80122 22.031 5.95628 21.5701V21.5701C4.18007 20.6012 2.81848 19.0175 2.12705 17.1161L2.00175 16.7715C1.82313 16.2803 1.68633 15.7748 1.59283 15.2606L1.48742 14.6808C1.16473 12.906 1.14002 11.0898 1.41432 9.30694L1.61972 7.97185C1.69528 7.48069 1.81886 6.99813 1.98869 6.53111V6.53111Z"/>
<path d="M9.16113 1.8916C11.0426 1.60217 12.9574 1.60217 14.8389 1.8916L15.96 2.06445C16.4219 2.13554 16.8762 2.2514 17.3154 2.41113C19.3017 3.13345 20.8666 4.69834 21.5889 6.68457C21.7486 7.12385 21.8645 7.57806 21.9355 8.04004L22.1406 9.375C22.4073 11.1085 22.3841 12.875 22.0703 14.6006L21.9648 15.1797C21.8759 15.669 21.7452 16.1508 21.5752 16.6182L21.4502 16.9619C20.7962 18.7604 19.5081 20.2584 17.8281 21.1748C17.029 21.6107 16.1604 21.9045 15.2607 22.043L14.1611 22.2119C12.729 22.4322 11.271 22.4322 9.83887 22.2119L8.73926 22.043C7.83961 21.9045 6.97097 21.6107 6.17188 21.1748C4.49189 20.2584 3.20378 18.7604 2.5498 16.9619L2.4248 16.6182C2.25484 16.1508 2.12412 15.669 2.03516 15.1797L1.92969 14.6006C1.61594 12.875 1.59268 11.1085 1.85938 9.375L2.06445 8.04004C2.13554 7.57806 2.2514 7.12385 2.41113 6.68457C3.13345 4.69834 4.69834 3.13345 6.68457 2.41113C7.12385 2.2514 7.57806 2.13554 8.04004 2.06445L9.16113 1.8916Z" stroke="url(#paint1_linear_15007_76963)" stroke-width="0.9" style="mix-blend-mode:overlay"/>
</g>
<g filter="url(#filter1_ddii_15007_76963)">
<path d="M14.8118 5.58398C15.1174 5.58408 15.3616 5.82877 15.3616 6.13379V7.50781C15.392 7.53815 15.4538 7.56869 15.4847 7.59961C16.2481 8.1491 16.8288 8.97335 17.1956 9.91992C17.8977 10.0117 18.4163 10.5918 18.4163 11.2939V12.5762C18.4161 13.2782 17.9279 13.8276 17.2562 13.9502C16.8892 15.0188 16.2165 15.9349 15.3304 16.4844C14.5281 17.0185 13.6325 17.2247 12.4593 17.248H11.7855C10.5636 17.2171 9.73841 17.0636 8.97491 16.667C8.08883 16.1787 7.35529 15.3547 6.89679 14.3467L6.71417 13.8887C6.38767 13.7879 6.10112 13.5852 5.89777 13.3105C5.69463 13.036 5.58453 12.7038 5.58331 12.3623V11.4766C5.5834 10.7441 6.10231 10.1028 6.77472 9.91895C7.14105 8.94253 7.7224 8.08755 8.54718 7.53809L8.63898 7.47656V6.16406C8.63915 5.85859 8.88386 5.61432 9.18878 5.61426C9.49445 5.61426 9.73859 5.85957 9.73859 6.16406V7.01855C9.983 6.92697 10.2582 6.86627 10.5335 6.83594L10.6859 6.80566L10.8392 6.77441C11.1138 6.74409 11.4194 6.71389 11.7249 6.71387H11.9085C12.7641 6.71388 13.5276 6.80514 14.1995 7.01855V6.16406C14.2608 5.82923 14.5056 5.58398 14.8118 5.58398ZM11.9993 9.10645C10.8991 9.10645 9.98059 9.21085 9.29132 9.3291C8.42669 9.47748 7.86954 10.2526 7.86945 11.1299V11.7725C7.86945 13.0284 8.97745 13.9969 10.222 13.8281L11.1282 13.7051C11.706 13.6267 12.2926 13.6267 12.8704 13.7051L13.7776 13.8281C15.022 13.9965 16.1292 13.0282 16.1292 11.7725V11.1299C16.1291 10.2526 15.572 9.47746 14.7073 9.3291C14.0181 9.21085 13.0996 9.10645 11.9993 9.10645ZM11.7991 10.2275C11.8801 10.223 11.9619 10.2376 12.0364 10.2695C12.1108 10.3015 12.1764 10.3505 12.2288 10.4121L12.9222 11.2227L13.9857 11.2158C14.056 11.2162 14.1259 11.2305 14.1907 11.2578C14.2554 11.2851 14.3143 11.3251 14.3636 11.375C14.4128 11.4248 14.4514 11.484 14.4778 11.5488C14.5043 11.6138 14.5183 11.6837 14.5179 11.7539C14.5198 11.8958 14.4645 12.033 14.3655 12.1348C14.2666 12.2363 14.1314 12.2949 13.9896 12.2969L12.681 12.3037C12.681 12.3037 12.5349 12.289 12.4612 12.2549C12.3926 12.223 12.3315 12.1768 12.2825 12.1191L11.8773 11.6455L11.5882 12.0713C11.4891 12.2171 11.3264 12.3046 11.1526 12.3047H10.1497C10.0795 12.304 10.0102 12.2892 9.94562 12.2617C9.88098 12.2342 9.82195 12.1947 9.77277 12.1445C9.72362 12.0944 9.68474 12.0349 9.65851 11.9697C9.63231 11.9046 9.61973 11.8348 9.62042 11.7646C9.62047 11.466 9.85692 11.2236 10.1497 11.2236H10.8753L11.3929 10.459C11.4381 10.3916 11.4992 10.3361 11.5696 10.2959C11.6399 10.2559 11.7184 10.2322 11.7991 10.2275Z" fill="white"/>
</g>
</g>
</g>
<defs>
<filter id="filter0_di_15007_76963" x="0.0255249" y="0.624609" width="23.949" height="24.0035" filterUnits="userSpaceOnUse" color-interpolation-filters="sRGB">
<feFlood flood-opacity="0" result="BackgroundImageFix"/>
<feColorMatrix in="SourceAlpha" type="matrix" values="0 0 0 0 0 0 0 0 0 0 0 0 0 0 0 0 0 0 127 0" result="hardAlpha"/>
<feOffset dy="0.6"/>
<feGaussianBlur stdDeviation="0.6"/>
<feComposite in2="hardAlpha" operator="out"/>
<feColorMatrix type="matrix" values="0 0 0 0 0.0666667 0 0 0 0 0.0980392 0 0 0 0 0.117647 0 0 0 0.05 0"/>
<feBlend mode="normal" in2="BackgroundImageFix" result="effect1_dropShadow_15007_76963"/>
<feBlend mode="normal" in="SourceGraphic" in2="effect1_dropShadow_15007_76963" result="shape"/>
<feColorMatrix in="SourceAlpha" type="matrix" values="0 0 0 0 0 0 0 0 0 0 0 0 0 0 0 0 0 0 127 0" result="hardAlpha"/>
<feOffset dx="0.96" dy="0.96"/>
<feGaussianBlur stdDeviation="0.96"/>
<feComposite in2="hardAlpha" operator="arithmetic" k2="-1" k3="1"/>
<feColorMatrix type="matrix" values="0 0 0 0 0.0666667 0 0 0 0 0.0980392 0 0 0 0 0.117647 0 0 0 0.1 0"/>
<feBlend mode="normal" in2="shape" result="effect2_innerShadow_15007_76963"/>
</filter>
<filter id="filter1_ddii_15007_76963" x="-1.68571" y="-1.68571" width="27.8857" height="27.8857" filterUnits="userSpaceOnUse" color-interpolation-filters="sRGB">
<feFlood flood-opacity="0" result="BackgroundImageFix"/>
<feColorMatrix in="SourceAlpha" type="matrix" values="0 0 0 0 0 0 0 0 0 0 0 0 0 0 0 0 0 0 127 0" result="hardAlpha"/>
<feOffset dx="1.54286" dy="1.54286"/>
<feGaussianBlur stdDeviation="2.82857"/>
<feComposite in2="hardAlpha" operator="out"/>
<feColorMatrix type="matrix" values="0 0 0 0 1 0 0 0 0 0.266667 0 0 0 0 0 0 0 0 1 0"/>
<feBlend mode="normal" in2="BackgroundImageFix" result="effect1_dropShadow_15007_76963"/>
<feColorMatrix in="SourceAlpha" type="matrix" values="0 0 0 0 0 0 0 0 0 0 0 0 0 0 0 0 0 0 127 0" result="hardAlpha"/>
<feOffset dx="-1.54286" dy="-1.54286"/>
<feGaussianBlur stdDeviation="2.57143"/>
<feComposite in2="hardAlpha" operator="out"/>
<feColorMatrix type="matrix" values="0 0 0 0 1 0 0 0 0 1 0 0 0 0 1 0 0 0 0.4 0"/>
<feBlend mode="normal" in2="effect1_dropShadow_15007_76963" result="effect2_dropShadow_15007_76963"/>
<feBlend mode="normal" in="SourceGraphic" in2="effect2_dropShadow_15007_76963" result="shape"/>
<feColorMatrix in="SourceAlpha" type="matrix" values="0 0 0 0 0 0 0 0 0 0 0 0 0 0 0 0 0 0 127 0" result="hardAlpha"/>
<feOffset dy="-0.771429"/>
<feGaussianBlur stdDeviation="0.591429"/>
<feComposite in2="hardAlpha" operator="arithmetic" k2="-1" k3="1"/>
<feColorMatrix type="matrix" values="0 0 0 0 1 0 0 0 0 0.517647 0 0 0 0 0.00392157 0 0 0 0.4 0"/>
<feBlend mode="normal" in2="shape" result="effect3_innerShadow_15007_76963"/>
<feColorMatrix in="SourceAlpha" type="matrix" values="0 0 0 0 0 0 0 0 0 0 0 0 0 0 0 0 0 0 127 0" result="hardAlpha"/>
<feOffset dy="-0.257143"/>
<feGaussianBlur stdDeviation="0.334286"/>
<feComposite in2="hardAlpha" operator="arithmetic" k2="-1" k3="1"/>
<feColorMatrix type="matrix" values="0 0 0 0 1 0 0 0 0 1 0 0 0 0 1 0 0 0 0.6 0"/>
<feBlend mode="normal" in2="effect3_innerShadow_15007_76963" result="effect4_innerShadow_15007_76963"/>
</filter>
<linearGradient id="paint0_linear_15007_76963" x1="4.08" y1="6.48" x2="22.08" y2="28.56" gradientUnits="userSpaceOnUse">
<stop stop-color="#11191E" stop-opacity="0.4"/>
<stop offset="1" stop-color="white"/>
</linearGradient>
<linearGradient id="paint1_linear_15007_76963" x1="4.74" y1="6.94" x2="21.24" y2="27.18" gradientUnits="userSpaceOnUse">
<stop stop-color="#11191E" stop-opacity="0.4"/>
<stop offset="1" stop-color="white"/>
</linearGradient>
<clipPath id="clip0_15007_76963">
<rect width="24" height="24" fill="white"/>
</clipPath>
</defs>
</svg>
