<svg width="16" height="16" viewBox="0 0 16 16" fill="none" xmlns="http://www.w3.org/2000/svg">
<g clip-path="url(#clip0_3747_13132)">
<path d="M2.66667 2H11.3333L13.8047 4.47133C13.9297 4.59633 14 4.76587 14 4.94267V13.3333C14 13.5101 13.9298 13.6797 13.8047 13.8047C13.6797 13.9298 13.5101 14 13.3333 14H2.66667C2.48986 14 2.32029 13.9298 2.19526 13.8047C2.07024 13.6797 2 13.5101 2 13.3333V2.66667C2 2.48986 2.07024 2.32029 2.19526 2.19526C2.32029 2.07024 2.48986 2 2.66667 2V2ZM8 12C8.53043 12 9.03914 11.7893 9.41421 11.4142C9.78929 11.0391 10 10.5304 10 10C10 9.46957 9.78929 8.96086 9.41421 8.58579C9.03914 8.21071 8.53043 8 8 8C7.46957 8 6.96086 8.21071 6.58579 8.58579C6.21071 8.96086 6 9.46957 6 10C6 10.5304 6.21071 11.0391 6.58579 11.4142C6.96086 11.7893 7.46957 12 8 12V12ZM3.33333 3.33333V6H10V3.33333H3.33333Z" fill="#0099FF"/>
</g>
<defs>
<clipPath id="clip0_3747_13132">
<rect width="16" height="16" fill="white"/>
</clipPath>
</defs>
</svg>
