<svg width="40" height="40" viewBox="0 0 40 40" fill="none" xmlns="http://www.w3.org/2000/svg">
<g clip-path="url(#clip0_14442_65894)">
<mask id="mask0_14442_65894" style="mask-type:alpha" maskUnits="userSpaceOnUse" x="0" y="0" width="40" height="40">
<path d="M20 0.799805C26.7982 0.799805 31.5477 2.32891 34.6094 5.39062C37.6711 8.45234 39.2002 13.2018 39.2002 20C39.2002 26.7982 37.6711 31.5477 34.6094 34.6094C31.5477 37.6711 26.7982 39.2002 20 39.2002C13.2018 39.2002 8.45234 37.6711 5.39062 34.6094C2.32891 31.5477 0.799805 26.7982 0.799805 20C0.799805 13.2018 2.32891 8.45234 5.39062 5.39062C8.45234 2.32891 13.2018 0.799805 20 0.799805Z" fill="#0099FF"/>
<path d="M20 0.799805C26.7982 0.799805 31.5477 2.32891 34.6094 5.39062C37.6711 8.45234 39.2002 13.2018 39.2002 20C39.2002 26.7982 37.6711 31.5477 34.6094 34.6094C31.5477 37.6711 26.7982 39.2002 20 39.2002C13.2018 39.2002 8.45234 37.6711 5.39062 34.6094C2.32891 31.5477 0.799805 26.7982 0.799805 20C0.799805 13.2018 2.32891 8.45234 5.39062 5.39062C8.45234 2.32891 13.2018 0.799805 20 0.799805Z" stroke="url(#paint0_linear_14442_65894)" stroke-width="1.6"/>
</mask>
<g mask="url(#mask0_14442_65894)">
<g filter="url(#filter0_i_14442_65894)">
<path d="M3.31456 10.8855C4.59422 7.36644 7.3662 4.59447 10.8853 3.3148V3.3148C11.6636 3.03176 12.4679 2.82579 13.2865 2.69985L15.1543 2.4125C18.3659 1.9184 21.6342 1.9184 24.8459 2.4125L26.7137 2.69985C27.5323 2.82579 28.3365 3.03176 29.1149 3.3148V3.3148C32.634 4.59447 35.4059 7.36644 36.6856 10.8855V10.8855C36.9686 11.6639 37.1746 12.4681 37.3006 13.2867L37.6429 15.5119C38.1 18.4834 38.0589 21.5103 37.521 24.4683L37.3454 25.4346C37.1895 26.2917 36.9615 27.1341 36.6638 27.9528L36.455 28.5271C35.3026 31.6962 33.0333 34.3357 30.0729 35.9505V35.9505C28.6647 36.7186 27.1337 37.2362 25.5483 37.4801L23.7156 37.762C21.2531 38.1409 18.7471 38.1409 16.2846 37.762L14.4519 37.4801C12.8665 37.2362 11.3354 36.7186 9.92721 35.9505V35.9505C6.96686 34.3357 4.69755 31.6962 3.54516 28.5271L3.33633 27.9528C3.03862 27.1341 2.81063 26.2917 2.6548 25.4346L2.47911 24.4683C1.9413 21.5103 1.90012 18.4834 2.35728 15.5119L2.69961 13.2867C2.82555 12.4681 3.03152 11.6639 3.31456 10.8855V10.8855Z" fill="#00BA4A"/>
</g>
<path d="M15.2683 3.15332C18.4044 2.67086 21.5961 2.67085 24.7322 3.15332L26.5994 3.44141C27.1771 3.53029 27.7474 3.66152 28.3054 3.83398L28.8582 4.01953C32.0654 5.18582 34.6135 7.66986 35.864 10.834L35.9812 11.1416C36.1809 11.6909 36.3398 12.254 36.4568 12.8262L36.5593 13.4004L36.9011 15.626C37.3456 18.5151 37.3058 21.458 36.783 24.334L36.6072 25.3008C36.4589 26.1161 36.2419 26.9175 35.9587 27.6963L35.7498 28.2705C34.6598 31.2679 32.5136 33.7647 29.7136 35.292C28.3817 36.0185 26.9338 36.5086 25.4343 36.7393L23.6013 37.0205C21.2144 37.3877 18.7851 37.3877 16.3982 37.0205L14.5662 36.7393C13.254 36.5374 11.9808 36.1373 10.7908 35.5537L10.2859 35.292C7.66116 33.8602 5.61069 31.5766 4.46655 28.8271L4.24976 28.2705L4.04077 27.6963C3.75759 26.9175 3.54059 26.1161 3.39233 25.3008L3.21655 24.334C2.69369 21.4581 2.65392 18.515 3.09839 15.626L3.44116 13.4004C3.53003 12.8229 3.66137 12.2531 3.83374 11.6953L4.01929 11.1416C5.22314 7.83115 7.8309 5.22338 11.1414 4.01953C11.8735 3.75331 12.6302 3.55989 13.4001 3.44141L15.2683 3.15332Z" stroke="url(#paint1_linear_14442_65894)" stroke-width="1.5" style="mix-blend-mode:overlay"/>
<g filter="url(#filter1_ddii_14442_65894)">
<path fill-rule="evenodd" clip-rule="evenodd" d="M22.4522 13.42C22.4522 14.6727 23.4289 15.6881 24.6331 15.6882C25.8358 15.6882 26.8111 14.6741 26.8111 13.42V11.9303C28.4874 12.397 29.722 13.986 29.722 15.879V25.6326C29.722 27.8909 27.9623 29.7218 25.7942 29.7218H14.2054C12.0373 29.7218 10.2776 27.8909 10.2776 25.6326V15.879C10.2776 13.936 11.5789 12.3118 13.3234 11.8952V13.419C13.3234 14.6718 14.3001 15.6872 15.5042 15.6872C16.7069 15.6871 17.6813 14.6731 17.6813 13.419V11.7917H22.4522V13.42ZM14.9925 23.2352C14.8865 23.2375 14.782 23.261 14.6849 23.3036C14.5876 23.3462 14.4992 23.4074 14.4257 23.484C14.3523 23.5605 14.2952 23.6511 14.2567 23.7498C14.2181 23.8486 14.1994 23.9543 14.2016 24.0603C14.2016 24.5143 14.5552 24.8842 14.9925 24.8844H21.8911C22.3286 24.8844 22.6829 24.5145 22.6829 24.0603C22.6851 23.9543 22.6664 23.8486 22.6278 23.7498C22.5893 23.651 22.5314 23.5605 22.4579 23.484C22.3845 23.4075 22.2968 23.3462 22.1997 23.3036C22.1024 23.261 21.9972 23.2374 21.8911 23.2352H14.9925ZM14.9925 19.0625C14.7785 19.0669 14.575 19.1559 14.4266 19.3103C14.2783 19.4647 14.1975 19.6715 14.2016 19.8856C14.2016 20.3411 14.5552 20.7105 14.9925 20.7107H25.273C25.7105 20.7107 26.0648 20.3412 26.0648 19.8856C26.0689 19.6716 25.9881 19.4647 25.8398 19.3103C25.6914 19.1558 25.4871 19.0668 25.273 19.0625H14.9925Z" fill="white"/>
<path d="M15.4966 10.2773C15.597 10.2793 15.6962 10.3008 15.7881 10.341C15.88 10.3812 15.9635 10.4396 16.0331 10.5119C16.1026 10.5843 16.1579 10.67 16.1945 10.7635C16.2311 10.857 16.2487 10.9573 16.2467 11.0578V13.7285C16.2467 14.1605 15.9105 14.509 15.4966 14.509C15.0828 14.5089 14.7466 14.1605 14.7466 13.7285V11.0578C14.7446 10.9573 14.7622 10.857 14.7988 10.7635C14.8354 10.6699 14.8906 10.5843 14.9602 10.5119C15.0298 10.4395 15.1132 10.3812 15.2052 10.341C15.2971 10.3007 15.3963 10.2793 15.4966 10.2773Z" fill="white"/>
<path d="M24.652 10.2773C24.7525 10.2793 24.8524 10.3007 24.9445 10.341C25.0365 10.3813 25.1198 10.4394 25.1894 10.5119C25.259 10.5842 25.3133 10.67 25.3499 10.7635C25.3865 10.857 25.4041 10.9573 25.4021 11.0578V13.7285C25.4021 14.1605 25.0659 14.509 24.652 14.509C24.2383 14.5088 23.902 14.1604 23.902 13.7285V11.0578C23.9 10.9573 23.9176 10.857 23.9542 10.7635C23.9908 10.6699 24.046 10.5843 24.1156 10.5119C24.1852 10.4395 24.2686 10.3812 24.3606 10.341C24.4525 10.3007 24.5517 10.2794 24.652 10.2773Z" fill="white"/>
</g>
</g>
</g>
<defs>
<filter id="filter0_i_14442_65894" x="2.04248" y="2.04199" width="37.915" height="38.0039" filterUnits="userSpaceOnUse" color-interpolation-filters="sRGB">
<feFlood flood-opacity="0" result="BackgroundImageFix"/>
<feBlend mode="normal" in="SourceGraphic" in2="BackgroundImageFix" result="shape"/>
<feColorMatrix in="SourceAlpha" type="matrix" values="0 0 0 0 0 0 0 0 0 0 0 0 0 0 0 0 0 0 127 0" result="hardAlpha"/>
<feOffset dx="2" dy="2"/>
<feGaussianBlur stdDeviation="2"/>
<feComposite in2="hardAlpha" operator="arithmetic" k2="-1" k3="1"/>
<feColorMatrix type="matrix" values="0 0 0 0 0.0666667 0 0 0 0 0.0980392 0 0 0 0 0.117647 0 0 0 0.1 0"/>
<feBlend mode="normal" in2="shape" result="effect1_innerShadow_14442_65894"/>
</filter>
<filter id="filter1_ddii_14442_65894" x="-2.8096" y="-2.80985" width="46.4761" height="46.4759" filterUnits="userSpaceOnUse" color-interpolation-filters="sRGB">
<feFlood flood-opacity="0" result="BackgroundImageFix"/>
<feColorMatrix in="SourceAlpha" type="matrix" values="0 0 0 0 0 0 0 0 0 0 0 0 0 0 0 0 0 0 127 0" result="hardAlpha"/>
<feOffset dx="2.57143" dy="2.57143"/>
<feGaussianBlur stdDeviation="4.71429"/>
<feComposite in2="hardAlpha" operator="out"/>
<feColorMatrix type="matrix" values="0 0 0 0 0 0 0 0 0 0.670588 0 0 0 0 0.603922 0 0 0 1 0"/>
<feBlend mode="normal" in2="BackgroundImageFix" result="effect1_dropShadow_14442_65894"/>
<feColorMatrix in="SourceAlpha" type="matrix" values="0 0 0 0 0 0 0 0 0 0 0 0 0 0 0 0 0 0 127 0" result="hardAlpha"/>
<feOffset dx="-2.57143" dy="-2.57143"/>
<feGaussianBlur stdDeviation="4.28571"/>
<feComposite in2="hardAlpha" operator="out"/>
<feColorMatrix type="matrix" values="0 0 0 0 1 0 0 0 0 1 0 0 0 0 1 0 0 0 0.4 0"/>
<feBlend mode="normal" in2="effect1_dropShadow_14442_65894" result="effect2_dropShadow_14442_65894"/>
<feBlend mode="normal" in="SourceGraphic" in2="effect2_dropShadow_14442_65894" result="shape"/>
<feColorMatrix in="SourceAlpha" type="matrix" values="0 0 0 0 0 0 0 0 0 0 0 0 0 0 0 0 0 0 127 0" result="hardAlpha"/>
<feOffset dy="-1.28571"/>
<feGaussianBlur stdDeviation="0.985714"/>
<feComposite in2="hardAlpha" operator="arithmetic" k2="-1" k3="1"/>
<feColorMatrix type="matrix" values="0 0 0 0 0 0 0 0 0 0.729412 0 0 0 0 0.290196 0 0 0 0.4 0"/>
<feBlend mode="normal" in2="shape" result="effect3_innerShadow_14442_65894"/>
<feColorMatrix in="SourceAlpha" type="matrix" values="0 0 0 0 0 0 0 0 0 0 0 0 0 0 0 0 0 0 127 0" result="hardAlpha"/>
<feOffset dy="-0.428571"/>
<feGaussianBlur stdDeviation="0.557143"/>
<feComposite in2="hardAlpha" operator="arithmetic" k2="-1" k3="1"/>
<feColorMatrix type="matrix" values="0 0 0 0 1 0 0 0 0 1 0 0 0 0 1 0 0 0 0.6 0"/>
<feBlend mode="normal" in2="effect3_innerShadow_14442_65894" result="effect4_innerShadow_14442_65894"/>
</filter>
<linearGradient id="paint0_linear_14442_65894" x1="6.8" y1="10.8" x2="36.8" y2="47.6" gradientUnits="userSpaceOnUse">
<stop stop-color="#11191E" stop-opacity="0.4"/>
<stop offset="1" stop-color="white"/>
</linearGradient>
<linearGradient id="paint1_linear_14442_65894" x1="7.90008" y1="11.567" x2="35.4001" y2="45.3003" gradientUnits="userSpaceOnUse">
<stop stop-color="#11191E" stop-opacity="0.4"/>
<stop offset="0.992881" stop-color="white"/>
</linearGradient>
<clipPath id="clip0_14442_65894">
<rect width="40" height="40" fill="white"/>
</clipPath>
</defs>
</svg>
