<svg width="24" height="24" viewBox="0 0 24 24" xmlns="http://www.w3.org/2000/svg">
<mask id="mask0_16345_143208" style="mask-type:alpha" maskUnits="userSpaceOnUse" x="0" y="0" width="24" height="24">
<path d="M12 0.533203C16.0721 0.533203 18.9047 1.44965 20.7275 3.27246C22.5504 5.09527 23.4668 7.92787 23.4668 12C23.4668 16.0721 22.5504 18.9047 20.7275 20.7275C18.9047 22.5504 16.0721 23.4668 12 23.4668C7.92787 23.4668 5.09527 22.5504 3.27246 20.7275C1.44965 18.9047 0.533203 16.0721 0.533203 12C0.533203 7.92787 1.44965 5.09527 3.27246 3.27246C5.09527 1.44965 7.92787 0.533203 12 0.533203Z" fill="#0099FF"/>
<path d="M12 0.533203C16.0721 0.533203 18.9047 1.44965 20.7275 3.27246C22.5504 5.09527 23.4668 7.92787 23.4668 12C23.4668 16.0721 22.5504 18.9047 20.7275 20.7275C18.9047 22.5504 16.0721 23.4668 12 23.4668C7.92787 23.4668 5.09527 22.5504 3.27246 20.7275C1.44965 18.9047 0.533203 16.0721 0.533203 12C0.533203 7.92787 1.44965 5.09527 3.27246 3.27246C5.09527 1.44965 7.92787 0.533203 12 0.533203Z" stroke="url(#paint0_linear_16345_143208)" stroke-width="1.06667"/>
</mask>
<g mask="url(#mask0_16345_143208)">
<g filter="url(#filter0_i_16345_143208)">
<path d="M1.98869 6.53111C2.75648 4.41967 4.41967 2.75648 6.53111 1.98869V1.98869C6.99813 1.81886 7.48069 1.69528 7.97185 1.61972L9.09252 1.44731C11.0195 1.15085 12.9805 1.15085 14.9075 1.44731L16.0281 1.61972C16.5193 1.69528 17.0019 1.81886 17.4689 1.98869V1.98869C19.5803 2.75648 21.2435 4.41967 22.0113 6.53111V6.53111C22.1811 6.99813 22.3047 7.48069 22.3803 7.97185L22.5857 9.30694C22.86 11.0899 22.8353 12.906 22.5126 14.6808L22.4072 15.2606C22.3137 15.7748 22.1769 16.2803 21.9982 16.7715L21.873 17.1161C21.1815 19.0175 19.8199 20.6012 18.0437 21.5701V21.5701C17.1988 22.031 16.2802 22.3415 15.3289 22.4879L14.2293 22.657C12.7518 22.8843 11.2482 22.8843 9.7707 22.657L8.6711 22.4879C7.71982 22.3415 6.80122 22.031 5.95628 21.5701V21.5701C4.18007 20.6012 2.81848 19.0175 2.12705 17.1161L2.00175 16.7715C1.82313 16.2803 1.68633 15.7748 1.59283 15.2606L1.48742 14.6808C1.16473 12.906 1.14002 11.0898 1.41432 9.30694L1.61972 7.97185C1.69528 7.48069 1.81886 6.99813 1.98869 6.53111V6.53111Z" />
</g>
<path d="M9.16895 1.94141C11.0453 1.65278 12.9547 1.65278 14.8311 1.94141L15.9521 2.11426C16.4109 2.18485 16.8616 2.30035 17.2979 2.45898C19.2703 3.17624 20.8238 4.7297 21.541 6.70215C21.6996 7.13839 21.8152 7.58906 21.8857 8.04785L22.0918 9.38281C22.3576 11.1108 22.3333 12.8717 22.0205 14.5918L21.915 15.1709C21.8266 15.6574 21.6973 16.1358 21.5283 16.6006L21.4033 16.9453C20.7536 18.7322 19.4738 20.2203 17.8047 21.1309C17.0106 21.564 16.1469 21.8566 15.2529 21.9941L14.1533 22.1631C12.7262 22.3826 11.2738 22.3826 9.84668 22.1631L8.74707 21.9941C7.85305 21.8566 6.9894 21.564 6.19531 21.1309C4.52622 20.2203 3.24645 18.7322 2.59668 16.9453L2.47168 16.6006C2.30268 16.1358 2.17342 15.6574 2.08496 15.1709L1.97949 14.5918C1.66674 12.8717 1.64236 11.1108 1.9082 9.38281L2.11426 8.04785C2.18485 7.58906 2.30035 7.13839 2.45898 6.70215C3.17624 4.7297 4.7297 3.17624 6.70215 2.45898C7.13839 2.30035 7.58906 2.18485 8.04785 2.11426L9.16895 1.94141Z" stroke="url(#paint1_linear_16345_143208)" style="mix-blend-mode:overlay"/>
<g filter="url(#filter1_ddii_16345_143208)">
<path d="M17.0465 6.16699C17.3702 6.16707 17.6335 6.42648 17.6335 6.74609V16.4424C17.695 16.4915 17.7454 16.5532 17.7799 16.624C17.8144 16.6949 17.833 16.7728 17.8336 16.8516C17.8343 16.9304 17.8171 17.0086 17.7838 17.0801C17.7506 17.1514 17.7019 17.2145 17.6413 17.2646L17.5797 17.3145C17.478 17.3986 17.3494 17.4436 17.2174 17.4404C17.0853 17.4372 16.9585 17.386 16.861 17.2969C16.798 17.238 16.7304 17.1844 16.6598 17.1377C16.2901 16.8397 15.9545 16.6739 15.6862 16.6738C15.5176 16.6738 15.4173 16.7396 15.1491 17.0381C14.6795 17.601 14.3429 17.833 13.7047 17.833C13.0668 17.8329 12.7309 17.6009 12.2614 17.0381C11.9926 16.7396 11.9254 16.6739 11.7243 16.6738C11.5557 16.6738 11.4545 16.7395 11.1862 17.0381C10.7172 17.601 10.381 17.833 9.74283 17.833C9.10425 17.8329 8.7684 17.6009 8.29947 17.0381C8.03126 16.7396 7.96282 16.6739 7.79556 16.6738C7.50593 16.6754 7.22398 16.7679 6.9899 16.9385C6.82253 17.0382 6.75462 17.1372 6.68814 17.2031L6.62076 17.3027L6.58951 17.332C6.48715 17.4242 6.35421 17.4753 6.21646 17.4766C6.07881 17.4778 5.94545 17.4291 5.84146 17.3389L5.7731 17.2783C5.71623 17.2293 5.66992 17.1692 5.63736 17.1016C5.60487 17.0341 5.58655 16.9606 5.58365 16.8857C5.5808 16.8107 5.5934 16.735 5.62076 16.665C5.64811 16.5953 5.68992 16.5316 5.74283 16.4785L5.74673 16.4756C5.88146 16.3438 6.0156 16.1768 6.28384 16.0117C6.72072 15.7131 7.22418 15.5147 7.76138 15.5146C8.40013 15.5146 8.73613 15.7455 9.20572 16.3096C9.47494 16.6073 9.5756 16.6738 9.74283 16.6738C9.91138 16.6738 10.0117 16.6075 10.2799 16.3096C10.7495 15.7467 11.0861 15.5146 11.7243 15.5146C12.3623 15.5147 12.6982 15.7456 13.1676 16.3096C13.4364 16.6075 13.5375 16.6737 13.7047 16.6738C13.8733 16.6738 13.9745 16.6076 14.2428 16.3096C14.7118 15.7467 15.0486 15.5146 15.6862 15.5146C15.9217 15.5147 16.1905 15.5816 16.4586 15.6475V14.3213H15.2594C15.1056 14.3212 14.9581 14.2602 14.8493 14.1514C14.7405 14.0425 14.6793 13.8951 14.6793 13.7412C14.6794 13.5873 14.7405 13.4399 14.8493 13.3311C14.9581 13.2223 15.1056 13.1612 15.2594 13.1611H16.4586V11.4043H15.2594C15.1056 11.4042 14.9581 11.3432 14.8493 11.2344C14.7405 11.1256 14.6794 10.9781 14.6793 10.8242C14.6793 10.6703 14.7404 10.5219 14.8493 10.4131C14.958 10.3045 15.1057 10.2432 15.2594 10.2432H16.4586V8.48633H15.276C15.1178 8.48633 14.966 8.42338 14.8542 8.31152C14.7424 8.19969 14.6793 8.04774 14.6793 7.88965C14.6795 7.73174 14.7426 7.58047 14.8542 7.46875C14.966 7.35689 15.1178 7.29395 15.276 7.29395H16.4586V6.74609C16.4589 6.42603 16.7229 6.16699 17.0465 6.16699ZM11.8805 7.33301C12.8325 7.33301 13.6211 8.30425 13.6305 9.52246V9.58789C13.6305 11.7717 12.3754 12.3797 11.9313 12.3799C11.8458 12.3799 11.7222 12.3811 11.5768 12.3848C10.7867 12.3995 10.5762 12.9952 9.96548 13.9941C9.40157 14.9164 9.76334 14.917 8.3649 14.917C6.96654 14.917 6.91078 14.1715 6.04751 14.917C6.50255 12.0286 7.63639 10.6089 8.75259 9.92188L8.75161 9.88281C8.75168 8.47477 9.34366 7.33316 10.0749 7.33301H11.8805ZM10.0749 7.79492C9.49419 7.79507 9.02122 8.67701 8.9938 9.78418C9.67335 9.43576 10.393 9.27341 11.1149 9.30469C10.984 8.43367 10.5684 7.79492 10.0749 7.79492Z" fill="white"/>
</g>
</g>
<defs>
<filter id="filter0_i_16345_143208" x="1.22559" y="1.22461" width="22.8822" height="22.9359" filterUnits="userSpaceOnUse" color-interpolation-filters="sRGB">
<feFlood flood-opacity="0" result="BackgroundImageFix"/>
<feBlend mode="normal" in="SourceGraphic" in2="BackgroundImageFix" result="shape"/>
<feColorMatrix in="SourceAlpha" type="matrix" values="0 0 0 0 0 0 0 0 0 0 0 0 0 0 0 0 0 0 127 0" result="hardAlpha"/>
<feOffset dx="1.33333" dy="1.33333"/>
<feGaussianBlur stdDeviation="1.33333"/>
<feComposite in2="hardAlpha" operator="arithmetic" k2="-1" k3="1"/>
<feColorMatrix type="matrix" values="0 0 0 0 0.0666667 0 0 0 0 0.0980392 0 0 0 0 0.117647 0 0 0 0.1 0"/>
<feBlend mode="normal" in2="shape" result="effect1_innerShadow_16345_143208"/>
</filter>
<filter id="filter1_ddii_16345_143208" x="-2.42857" y="-2.42857" width="29.4286" height="29.4286" filterUnits="userSpaceOnUse" color-interpolation-filters="sRGB">
<feFlood flood-opacity="0" result="BackgroundImageFix"/>
<feColorMatrix in="SourceAlpha" type="matrix" values="0 0 0 0 0 0 0 0 0 0 0 0 0 0 0 0 0 0 127 0" result="hardAlpha"/>
<feOffset dx="1.71429" dy="1.71429"/>
<feGaussianBlur stdDeviation="3.14286"/>
<feComposite in2="hardAlpha" operator="out"/>
<feColorMatrix type="matrix" values="0 0 0 0 0 0 0 0 0 0.670588 0 0 0 0 0.603922 0 0 0 1 0"/>
<feBlend mode="normal" in2="BackgroundImageFix" result="effect1_dropShadow_16345_143208"/>
<feColorMatrix in="SourceAlpha" type="matrix" values="0 0 0 0 0 0 0 0 0 0 0 0 0 0 0 0 0 0 127 0" result="hardAlpha"/>
<feOffset dx="-1.71429" dy="-1.71429"/>
<feGaussianBlur stdDeviation="2.85714"/>
<feComposite in2="hardAlpha" operator="out"/>
<feColorMatrix type="matrix" values="0 0 0 0 1 0 0 0 0 1 0 0 0 0 1 0 0 0 0.4 0"/>
<feBlend mode="normal" in2="effect1_dropShadow_16345_143208" result="effect2_dropShadow_16345_143208"/>
<feBlend mode="normal" in="SourceGraphic" in2="effect2_dropShadow_16345_143208" result="shape"/>
<feColorMatrix in="SourceAlpha" type="matrix" values="0 0 0 0 0 0 0 0 0 0 0 0 0 0 0 0 0 0 127 0" result="hardAlpha"/>
<feOffset dy="-0.857143"/>
<feGaussianBlur stdDeviation="0.657143"/>
<feComposite in2="hardAlpha" operator="arithmetic" k2="-1" k3="1"/>
<feColorMatrix type="matrix" values="0 0 0 0 0 0 0 0 0 0.729412 0 0 0 0 0.290196 0 0 0 0.4 0"/>
<feBlend mode="normal" in2="shape" result="effect3_innerShadow_16345_143208"/>
<feColorMatrix in="SourceAlpha" type="matrix" values="0 0 0 0 0 0 0 0 0 0 0 0 0 0 0 0 0 0 127 0" result="hardAlpha"/>
<feOffset dy="-0.285714"/>
<feGaussianBlur stdDeviation="0.371429"/>
<feComposite in2="hardAlpha" operator="arithmetic" k2="-1" k3="1"/>
<feColorMatrix type="matrix" values="0 0 0 0 1 0 0 0 0 1 0 0 0 0 1 0 0 0 0.6 0"/>
<feBlend mode="normal" in2="effect3_innerShadow_16345_143208" result="effect4_innerShadow_16345_143208"/>
</filter>
<linearGradient id="paint0_linear_16345_143208" x1="4.08" y1="6.48" x2="22.08" y2="28.56" gradientUnits="userSpaceOnUse">
<stop stop-color="#11191E" stop-opacity="0.4"/>
<stop offset="1" stop-color="white"/>
</linearGradient>
<linearGradient id="paint1_linear_16345_143208" x1="4.74" y1="6.94" x2="21.24" y2="27.18" gradientUnits="userSpaceOnUse">
<stop stop-color="#11191E" stop-opacity="0.4"/>
<stop offset="0.992881" stop-color="white"/>
</linearGradient>
</defs>
</svg>
