<svg width="24" height="56" viewBox="0 0 24 56" fill="none" xmlns="http://www.w3.org/2000/svg">
<path d="M12.0003 0H10.0002C10.0052 1.25221 10 10.9998 10 15.4998C10 19.9998 11.3788 21.5855 12.0019 22.0008C12.872 22.5806 13.8759 23.0008 15.0019 23.0008H16.0019C16.66 23.0007 17.2999 23.217 17.823 23.6164C18.3461 24.0157 18.7234 24.5759 18.8969 25.2108C18.2401 25.4708 17.6961 25.9543 17.3606 26.5761C17.0252 27.1978 16.9199 27.9179 17.0632 28.6097C17.2065 29.3015 17.5892 29.9205 18.144 30.3578C18.6989 30.7951 19.3902 31.0227 20.0963 31.0005C20.8024 30.9782 21.478 30.7076 22.0042 30.2362C22.5304 29.7649 22.8734 29.123 22.9729 28.4236C23.0724 27.7242 22.9219 27.0121 22.548 26.4127C22.1742 25.8133 21.6008 25.365 20.9289 25.1468C20.7275 23.9861 20.1228 22.9337 19.2215 22.1753C18.3201 21.4168 17.1799 21.0008 16.0019 21.0008H15.0019C14.3438 21.0008 13.7039 20.7845 13.1808 20.3851C12.7941 19.9307 12.1749 19.7653 12 16.9998C11.6419 11.3355 12.0003 1.15399 12.0003 0Z" fill="#11191E"/>
<path d="M10.0002 0H12.0003L12 55.9999H10L10.0002 0Z" fill="#11191E"/>
</svg>
