<svg width="16" height="16" viewBox="0 0 16 16" fill="none" xmlns="http://www.w3.org/2000/svg">
<path d="M12.1287 12.348C13.1627 11.3679 13.814 10.0517 13.9658 8.63519C14.1177 7.21866 13.7602 5.79433 12.9574 4.61739C12.1547 3.44044 10.9591 2.58779 9.58481 2.21217C8.21057 1.83655 6.74748 1.96251 5.45766 2.56749L6.29283 4.0708C6.94462 3.78751 7.65667 3.67088 8.36479 3.73141C9.0729 3.79194 9.75482 4.02773 10.3491 4.41753C10.9433 4.80733 11.4313 5.33889 11.7689 5.96428C12.1065 6.58968 12.2831 7.28925 12.2829 7.99995H9.71317L12.1287 12.348ZM10.5423 13.4324L9.70717 11.9291C9.05538 12.2124 8.34333 12.329 7.63521 12.2685C6.9271 12.208 6.24518 11.9722 5.65092 11.5824C5.05666 11.1926 4.56874 10.661 4.23114 10.0356C3.89355 9.41022 3.71688 8.71064 3.71708 7.99995H6.28683L3.87126 3.65193C2.83727 4.63197 2.18602 5.94816 2.03417 7.3647C1.88232 8.78124 2.2398 10.2056 3.04257 11.3825C3.84534 12.5594 5.04095 13.4121 6.41519 13.7877C7.78943 14.1633 9.25252 14.0374 10.5423 13.4324Z" fill="white"/>
</svg>
