<svg width="22" height="22" viewBox="0 0 22 22" fill="none" xmlns="http://www.w3.org/2000/svg">
<path d="M18.7896 3.38777C17.7735 2.37169 16.5666 1.56649 15.2382 1.01845C13.9099 0.470416 12.4863 0.190359 11.0493 0.194384C9.61209 0.1901 8.18819 0.46992 6.85945 1.01776C5.53072 1.5656 4.32337 2.37065 3.3068 3.38665C2.28724 4.39467 1.47843 5.59549 0.927487 6.91915C0.37654 8.24281 0.0944638 9.66286 0.0976873 11.0966C0.0942522 12.5305 0.376227 13.9508 0.927182 15.2747C1.47814 16.5986 2.28705 17.7996 3.3068 18.8077C4.32322 19.8239 5.53055 20.6291 6.85931 21.1769C8.18808 21.7248 9.61206 22.0045 11.0493 21.9999C12.4865 22.0046 13.9103 21.725 15.2389 21.1771C16.5675 20.6293 17.7746 19.824 18.7907 18.8077C19.81 17.7992 20.6186 16.5982 21.1696 15.2744C21.7205 13.9506 22.0027 12.5305 21.9998 11.0966C22.0032 9.66291 21.7211 8.24289 21.1699 6.91937C20.6188 5.59584 19.8096 4.39531 18.7896 3.38777Z" fill="#FF384C"/>
<path d="M11.4469 12.0361H7.49931C7.36844 12.0361 7.24293 11.9841 7.15039 11.8916C7.05785 11.7991 7.00586 11.6736 7.00586 11.5427C7.00586 11.4119 7.05785 11.2864 7.15039 11.1938C7.24293 11.1013 7.36844 11.0493 7.49931 11.0493H14.4069C14.5378 11.0493 14.6633 11.1013 14.7559 11.1938C14.8484 11.2864 14.9004 11.4119 14.9004 11.5427C14.9004 11.6736 14.8484 11.7991 14.7559 11.8916C14.6633 11.9841 14.5378 12.0361 14.4069 12.0361H11.4469Z" fill="white"/>
</svg>
