<svg width="16" height="16" viewBox="0 0 16 16" fill="none" xmlns="http://www.w3.org/2000/svg">
<g clip-path="url(#clip0_4665_29130)">
<path d="M13.3887 6.99988L14.1901 7.48055C14.2395 7.51015 14.2804 7.55205 14.3088 7.60217C14.3372 7.6523 14.3522 7.70893 14.3522 7.76655C14.3522 7.82417 14.3372 7.8808 14.3088 7.93093C14.2804 7.98105 14.2395 8.02295 14.1901 8.05255L8.00007 11.7666L1.81007 8.05255C1.76063 8.02295 1.71971 7.98105 1.6913 7.93093C1.66288 7.8808 1.64795 7.82417 1.64795 7.76655C1.64795 7.70893 1.66288 7.6523 1.6913 7.60217C1.71971 7.55205 1.76063 7.51015 1.81007 7.48055L2.6114 6.99988L8.00007 10.2332L13.3887 6.99988ZM13.3887 10.1332L14.1901 10.6139C14.2395 10.6435 14.2804 10.6854 14.3088 10.7355C14.3372 10.7856 14.3522 10.8423 14.3522 10.8999C14.3522 10.9575 14.3372 11.0141 14.3088 11.0643C14.2804 11.1144 14.2395 11.1563 14.1901 11.1859L8.3434 14.6939C8.23971 14.7562 8.12103 14.7891 8.00007 14.7891C7.8791 14.7891 7.76042 14.7562 7.65673 14.6939L1.81007 11.1859C1.76063 11.1563 1.71971 11.1144 1.6913 11.0643C1.66288 11.0141 1.64795 10.9575 1.64795 10.8999C1.64795 10.8423 1.66288 10.7856 1.6913 10.7355C1.71971 10.6854 1.76063 10.6435 1.81007 10.6139L2.6114 10.1332L8.00007 13.3665L13.3887 10.1332ZM8.34273 0.87255L14.1901 4.38055C14.2395 4.41015 14.2804 4.45205 14.3088 4.50217C14.3372 4.5523 14.3522 4.60893 14.3522 4.66655C14.3522 4.72417 14.3372 4.7808 14.3088 4.83093C14.2804 4.88105 14.2395 4.92295 14.1901 4.95255L8.00007 8.66655L1.81007 4.95255C1.76063 4.92295 1.71971 4.88105 1.6913 4.83093C1.66288 4.7808 1.64795 4.72417 1.64795 4.66655C1.64795 4.60893 1.66288 4.5523 1.6913 4.50217C1.71971 4.45205 1.76063 4.41015 1.81007 4.38055L7.65673 0.87255C7.76042 0.810255 7.8791 0.777344 8.00007 0.777344C8.12103 0.777344 8.23971 0.810255 8.3434 0.87255H8.34273Z" fill="#0099FF"/>
</g>
<defs>
<clipPath id="clip0_4665_29130">
<rect width="16" height="16" fill="white"/>
</clipPath>
</defs>
</svg>
