<svg width="40" height="40" viewBox="0 0 40 40" fill="none" xmlns="http://www.w3.org/2000/svg">
<g clip-path="url(#clip0_13875_278876)">
<mask id="mask0_13875_278876" style="mask-type:alpha" maskUnits="userSpaceOnUse" x="0" y="0" width="40" height="40">
<path d="M20 0.799805C26.7982 0.799805 31.5477 2.32891 34.6094 5.39062C37.6711 8.45234 39.2002 13.2018 39.2002 20C39.2002 26.7982 37.6711 31.5477 34.6094 34.6094C31.5477 37.6711 26.7982 39.2002 20 39.2002C13.2018 39.2002 8.45234 37.6711 5.39062 34.6094C2.32891 31.5477 0.799805 26.7982 0.799805 20C0.799805 13.2018 2.32891 8.45234 5.39062 5.39062C8.45234 2.32891 13.2018 0.799805 20 0.799805Z" fill="#0099FF"/>
<path d="M20 0.799805C26.7982 0.799805 31.5477 2.32891 34.6094 5.39062C37.6711 8.45234 39.2002 13.2018 39.2002 20C39.2002 26.7982 37.6711 31.5477 34.6094 34.6094C31.5477 37.6711 26.7982 39.2002 20 39.2002C13.2018 39.2002 8.45234 37.6711 5.39062 34.6094C2.32891 31.5477 0.799805 26.7982 0.799805 20C0.799805 13.2018 2.32891 8.45234 5.39062 5.39062C8.45234 2.32891 13.2018 0.799805 20 0.799805Z" stroke="url(#paint0_linear_13875_278876)" stroke-width="1.6"/>
</mask>
<g mask="url(#mask0_13875_278876)">
<g filter="url(#filter0_di_13875_278876)">
<path d="M3.31456 10.8855C4.59422 7.36644 7.3662 4.59447 10.8853 3.3148C11.6636 3.03176 12.4679 2.82579 13.2865 2.69985L15.1543 2.4125C18.3659 1.9184 21.6342 1.9184 24.8459 2.4125L26.7137 2.69985C27.5323 2.82579 28.3365 3.03176 29.1149 3.3148C32.634 4.59447 35.4059 7.36644 36.6856 10.8855C36.9686 11.6639 37.1746 12.4681 37.3006 13.2867L37.6429 15.5119C38.1 18.4834 38.0589 21.5103 37.521 24.4683L37.3454 25.4346C37.1895 26.2917 36.9615 27.1341 36.6638 27.9528L36.455 28.5271C35.3026 31.6962 33.0333 34.3357 30.073 35.9505C28.6647 36.7186 27.1337 37.2362 25.5483 37.4801L23.7156 37.762C21.2531 38.1409 18.7471 38.1409 16.2846 37.762L14.4519 37.4801C12.8665 37.2362 11.3354 36.7186 9.92721 35.9505C6.96686 34.3357 4.69755 31.6962 3.54516 28.5271L3.33633 27.9528C3.03862 27.1341 2.81063 26.2917 2.6548 25.4346L2.47911 24.4683C1.9413 21.5103 1.90012 18.4834 2.35728 15.5119L2.69961 13.2867C2.82555 12.4681 3.03152 11.6639 3.31456 10.8855Z" fill="#0099FF"/>
<path d="M15.2683 3.15332C18.2084 2.70101 21.1971 2.67354 24.1433 3.06934L24.7322 3.15332L26.5994 3.44141C27.1771 3.53029 27.7474 3.66152 28.3054 3.83398L28.8582 4.01953C32.0654 5.18581 34.6135 7.66986 35.864 10.834L35.9812 11.1416C36.1809 11.6909 36.3398 12.254 36.4568 12.8262L36.5593 13.4004L36.9011 15.626C37.3178 18.3345 37.3093 21.0903 36.8757 23.7939L36.783 24.334L36.6072 25.3008C36.496 25.9124 36.3464 26.5162 36.1589 27.1084L35.9587 27.6963L35.7498 28.2705C34.7279 31.0805 32.778 33.4504 30.2312 34.9941L29.7136 35.292C28.5481 35.9277 27.2939 36.3825 25.9939 36.6406L25.4343 36.7393L23.6013 37.0205C21.3635 37.3648 19.0888 37.3862 16.8464 37.085L16.3982 37.0205L14.5662 36.7393C13.254 36.5374 11.9808 36.1373 10.7908 35.5537L10.2859 35.292C7.66116 33.8602 5.61069 31.5766 4.46655 28.8271L4.24976 28.2705L4.04077 27.6963C3.82834 27.1121 3.65319 26.5151 3.51636 25.9092L3.39233 25.3008L3.21655 24.334C2.72634 21.6377 2.66127 18.8825 3.02124 16.168L3.09839 15.626L3.44116 13.4004C3.53003 12.8229 3.66137 12.2531 3.83374 11.6953L4.01929 11.1416C5.18558 7.93443 7.66972 5.38721 10.8337 4.13672L11.1414 4.01953C11.6906 3.81979 12.2538 3.66091 12.8259 3.54395L13.4001 3.44141L15.2683 3.15332Z" stroke="url(#paint1_linear_13875_278876)" stroke-width="1.5" style="mix-blend-mode:overlay"/>
</g>
<g filter="url(#filter1_ddii_13875_278876)">
<path fill-rule="evenodd" clip-rule="evenodd" d="M27.0745 12.6671C27.8441 12.6671 28.3332 13.3203 28.3333 13.9735V28.1989C28.3329 28.9255 27.5629 29.7218 26.8645 29.7218H13.801C12.9606 29.7215 12.3335 28.8525 12.3333 28.1989V14.0504C12.3334 13.2505 12.7516 12.6707 13.6594 12.744H14.0071C14.2873 12.7441 14.5676 12.9608 14.5676 13.3241V15.8648C14.5677 16.1552 14.7811 16.4449 15.1282 16.4449L25.5383 16.3708C25.8186 16.3708 26.0989 16.154 26.0989 15.7907V13.251C26.0995 12.8876 26.3797 12.6707 26.7268 12.6671H27.0745ZM23.3 24.2483C23.0912 24.2455 22.8832 24.2835 22.6897 24.3603C22.4964 24.4371 22.3206 24.5505 22.1731 24.6945C22.0255 24.8387 21.9089 25.0107 21.8303 25.1996C21.7518 25.3885 21.7132 25.5911 21.7161 25.7949C21.719 25.9989 21.7639 26.2006 21.8479 26.3874C21.9319 26.574 22.0526 26.7429 22.2043 26.883C22.5006 27.1525 22.8932 27.2982 23.2981 27.2912C23.7029 27.2842 24.0889 27.1236 24.3752 26.844C24.6616 26.5644 24.8261 26.1874 24.8333 25.7921C24.8404 25.3967 24.6894 25.0142 24.4133 24.7249C24.2698 24.5769 24.0976 24.4584 23.9065 24.3765C23.7152 24.2946 23.5089 24.2511 23.3 24.2483ZM23.3088 18.6105L15.9417 25.8035L17.4163 27.2428L24.7834 20.048L23.3088 18.6105ZM17.4094 18.5412C16.9999 18.5378 16.6054 18.6917 16.3108 18.9694C16.1615 19.1102 16.0421 19.2788 15.9602 19.465C15.8783 19.6511 15.8351 19.8512 15.8333 20.0537C15.8314 20.2563 15.8709 20.4576 15.9495 20.6452C16.028 20.8327 16.1445 21.0032 16.2913 21.1465C16.4379 21.2896 16.6121 21.403 16.804 21.4797C16.9959 21.5564 17.202 21.5954 17.4094 21.5937C17.6169 21.5919 17.8223 21.5493 18.0129 21.4693C18.2036 21.3893 18.3766 21.2732 18.5208 21.1275C18.8054 20.8397 18.9628 20.4537 18.9592 20.0537C18.9556 19.6537 18.7909 19.2713 18.5012 18.9884C18.2114 18.7055 17.8192 18.5447 17.4094 18.5412Z" fill="white"/>
<path fill-rule="evenodd" clip-rule="evenodd" d="M21.9739 10.2773C22.2681 10.2776 22.551 10.392 22.76 10.5954C22.9687 10.7987 23.0871 11.0748 23.0901 11.3635C23.0901 11.6533 23.3031 11.9435 23.6506 11.9436H23.9983C24.2786 11.9436 24.5592 12.1604 24.5598 12.5237V14.2631C24.5598 14.5529 24.347 14.8432 23.9993 14.8432H16.593C16.3127 14.8432 16.0325 14.6264 16.0325 14.2631V12.5228C16.0327 12.2331 16.2455 11.9436 16.593 11.9436H17.012C17.2922 11.9436 17.5725 11.7268 17.5725 11.3635C17.5755 11.0746 17.6946 10.7987 17.9036 10.5954C18.1127 10.392 18.3954 10.2775 18.6897 10.2773H21.9739ZM20.3704 11.3635C19.743 11.3635 19.1829 11.943 19.1829 12.5968C19.1829 13.2506 19.7424 13.8301 20.3704 13.8301C20.9983 13.8301 21.5588 13.394 21.5588 12.5968C21.5588 11.943 21.0689 11.3635 20.3704 11.3635Z" fill="white"/>
</g>
</g>
</g>
<defs>
<filter id="filter0_di_13875_278876" x="0.0424805" y="1.04199" width="39.915" height="40.0039" filterUnits="userSpaceOnUse" color-interpolation-filters="sRGB">
<feFlood flood-opacity="0" result="BackgroundImageFix"/>
<feColorMatrix in="SourceAlpha" type="matrix" values="0 0 0 0 0 0 0 0 0 0 0 0 0 0 0 0 0 0 127 0" result="hardAlpha"/>
<feOffset dy="1"/>
<feGaussianBlur stdDeviation="1"/>
<feComposite in2="hardAlpha" operator="out"/>
<feColorMatrix type="matrix" values="0 0 0 0 0.0666667 0 0 0 0 0.0980392 0 0 0 0 0.117647 0 0 0 0.05 0"/>
<feBlend mode="normal" in2="BackgroundImageFix" result="effect1_dropShadow_13875_278876"/>
<feBlend mode="normal" in="SourceGraphic" in2="effect1_dropShadow_13875_278876" result="shape"/>
<feColorMatrix in="SourceAlpha" type="matrix" values="0 0 0 0 0 0 0 0 0 0 0 0 0 0 0 0 0 0 127 0" result="hardAlpha"/>
<feOffset dx="1.6" dy="1.6"/>
<feGaussianBlur stdDeviation="1.6"/>
<feComposite in2="hardAlpha" operator="arithmetic" k2="-1" k3="1"/>
<feColorMatrix type="matrix" values="0 0 0 0 0.0666667 0 0 0 0 0.0980392 0 0 0 0 0.117647 0 0 0 0.1 0"/>
<feBlend mode="normal" in2="shape" result="effect2_innerShadow_13875_278876"/>
</filter>
<filter id="filter1_ddii_13875_278876" x="-2.8096" y="-2.80985" width="46.4761" height="46.4759" filterUnits="userSpaceOnUse" color-interpolation-filters="sRGB">
<feFlood flood-opacity="0" result="BackgroundImageFix"/>
<feColorMatrix in="SourceAlpha" type="matrix" values="0 0 0 0 0 0 0 0 0 0 0 0 0 0 0 0 0 0 127 0" result="hardAlpha"/>
<feOffset dx="2.57143" dy="2.57143"/>
<feGaussianBlur stdDeviation="4.71429"/>
<feComposite in2="hardAlpha" operator="out"/>
<feColorMatrix type="matrix" values="0 0 0 0 0.321569 0 0 0 0 0.435294 0 0 0 0 1 0 0 0 1 0"/>
<feBlend mode="normal" in2="BackgroundImageFix" result="effect1_dropShadow_13875_278876"/>
<feColorMatrix in="SourceAlpha" type="matrix" values="0 0 0 0 0 0 0 0 0 0 0 0 0 0 0 0 0 0 127 0" result="hardAlpha"/>
<feOffset dx="-2.57143" dy="-2.57143"/>
<feGaussianBlur stdDeviation="4.28571"/>
<feComposite in2="hardAlpha" operator="out"/>
<feColorMatrix type="matrix" values="0 0 0 0 1 0 0 0 0 1 0 0 0 0 1 0 0 0 0.4 0"/>
<feBlend mode="normal" in2="effect1_dropShadow_13875_278876" result="effect2_dropShadow_13875_278876"/>
<feBlend mode="normal" in="SourceGraphic" in2="effect2_dropShadow_13875_278876" result="shape"/>
<feColorMatrix in="SourceAlpha" type="matrix" values="0 0 0 0 0 0 0 0 0 0 0 0 0 0 0 0 0 0 127 0" result="hardAlpha"/>
<feOffset dy="-1.28571"/>
<feGaussianBlur stdDeviation="0.985714"/>
<feComposite in2="hardAlpha" operator="arithmetic" k2="-1" k3="1"/>
<feColorMatrix type="matrix" values="0 0 0 0 0 0 0 0 0 0.598039 0 0 0 0 1 0 0 0 0.4 0"/>
<feBlend mode="normal" in2="shape" result="effect3_innerShadow_13875_278876"/>
<feColorMatrix in="SourceAlpha" type="matrix" values="0 0 0 0 0 0 0 0 0 0 0 0 0 0 0 0 0 0 127 0" result="hardAlpha"/>
<feOffset dy="-0.428571"/>
<feGaussianBlur stdDeviation="0.557143"/>
<feComposite in2="hardAlpha" operator="arithmetic" k2="-1" k3="1"/>
<feColorMatrix type="matrix" values="0 0 0 0 1 0 0 0 0 1 0 0 0 0 1 0 0 0 0.6 0"/>
<feBlend mode="normal" in2="effect3_innerShadow_13875_278876" result="effect4_innerShadow_13875_278876"/>
</filter>
<linearGradient id="paint0_linear_13875_278876" x1="6.8" y1="10.8" x2="36.8" y2="47.6" gradientUnits="userSpaceOnUse">
<stop stop-color="#11191E" stop-opacity="0.4"/>
<stop offset="1" stop-color="white"/>
</linearGradient>
<linearGradient id="paint1_linear_13875_278876" x1="7.90008" y1="11.567" x2="35.4001" y2="45.3003" gradientUnits="userSpaceOnUse">
<stop stop-color="#11191E" stop-opacity="0.4"/>
<stop offset="1" stop-color="white"/>
</linearGradient>
<clipPath id="clip0_13875_278876">
<rect width="40" height="40" fill="white"/>
</clipPath>
</defs>
</svg>
