<svg width="41" height="40" viewBox="0 0 41 40" fill="none" xmlns="http://www.w3.org/2000/svg">
<g clip-path="url(#clip0_14110_111648)">
<mask id="mask0_14110_111648" style="mask-type:alpha" maskUnits="userSpaceOnUse" x="0" y="0" width="41" height="40">
<path d="M20.6001 0.799805C27.3983 0.799805 32.1478 2.32891 35.2095 5.39062C38.2712 8.45234 39.8003 13.2018 39.8003 20C39.8003 26.7982 38.2712 31.5477 35.2095 34.6094C32.1478 37.6711 27.3983 39.2002 20.6001 39.2002C13.8019 39.2002 9.05244 37.6711 5.99072 34.6094C2.929 31.5477 1.3999 26.7982 1.3999 20C1.3999 13.2018 2.929 8.45234 5.99072 5.39062C9.05244 2.32891 13.8019 0.799805 20.6001 0.799805Z" fill="#0099FF"/>
<path d="M20.6001 0.799805C27.3983 0.799805 32.1478 2.32891 35.2095 5.39062C38.2712 8.45234 39.8003 13.2018 39.8003 20C39.8003 26.7982 38.2712 31.5477 35.2095 34.6094C32.1478 37.6711 27.3983 39.2002 20.6001 39.2002C13.8019 39.2002 9.05244 37.6711 5.99072 34.6094C2.929 31.5477 1.3999 26.7982 1.3999 20C1.3999 13.2018 2.929 8.45234 5.99072 5.39062C9.05244 2.32891 13.8019 0.799805 20.6001 0.799805Z" stroke="url(#paint0_linear_14110_111648)" stroke-width="1.6"/>
</mask>
<g mask="url(#mask0_14110_111648)">
<g filter="url(#filter0_di_14110_111648)">
<path d="M3.91466 10.885C5.19432 7.36595 7.96629 4.59398 11.4854 3.31431C12.2637 3.03127 13.068 2.8253 13.8866 2.69936L15.7544 2.41201C18.966 1.91791 22.2343 1.91791 25.446 2.41201L27.3138 2.69936C28.1324 2.8253 28.9366 3.03127 29.715 3.31431C33.2341 4.59398 36.006 7.36595 37.2857 10.885C37.5687 11.6634 37.7747 12.4677 37.9007 13.2863L38.243 15.5114C38.7001 18.4829 38.659 21.5098 38.1211 24.4678L37.9455 25.4341C37.7896 26.2912 37.5616 27.1336 37.2639 27.9523L37.0551 28.5266C35.9027 31.6957 33.6334 34.3353 30.673 35.95C29.2648 36.7181 27.7338 37.2357 26.1483 37.4796L24.3157 37.7616C21.8532 38.1404 19.3472 38.1404 16.8847 37.7616L15.052 37.4796C13.4665 37.2357 11.9355 36.7181 10.5273 35.95C7.56696 34.3353 5.29765 31.6957 4.14526 28.5266L3.93643 27.9523C3.63872 27.1336 3.41073 26.2912 3.2549 25.4341L3.07921 24.4678C2.54139 21.5098 2.50022 18.4829 2.95737 15.5114L3.2997 13.2863C3.42564 12.4677 3.63161 11.6634 3.91466 10.885Z" fill="#0099FF"/>
<path d="M15.8684 3.15283C18.8085 2.70052 21.7972 2.67305 24.7434 3.06885L25.3323 3.15283L27.1995 3.44092C27.7772 3.5298 28.3475 3.66104 28.9055 3.8335L29.4583 4.01904C32.6655 5.18533 35.2136 7.66937 36.4641 10.8335L36.5813 11.1411C36.781 11.6904 36.9399 12.2536 37.0569 12.8257L37.1594 13.3999L37.5012 15.6255C37.9179 18.334 37.9094 21.0899 37.4758 23.7935L37.3831 24.3335L37.2073 25.3003C37.0961 25.9119 36.9465 26.5157 36.759 27.1079L36.5588 27.6958L36.3499 28.27C35.328 31.08 33.3781 33.45 30.8313 34.9937L30.3137 35.2915C29.1482 35.9272 27.894 36.382 26.594 36.6401L26.0344 36.7388L24.2014 37.02C21.9636 37.3643 19.6889 37.3857 17.4465 37.0845L16.9983 37.02L15.1663 36.7388C13.8541 36.5369 12.5809 36.1368 11.3909 35.5532L10.886 35.2915C8.26126 33.8597 6.21078 31.5761 5.06665 28.8267L4.84985 28.27L4.64087 27.6958C4.42844 27.1116 4.25328 26.5147 4.11646 25.9087L3.99243 25.3003L3.81665 24.3335C3.32644 21.6372 3.26137 18.882 3.62134 16.1675L3.69849 15.6255L4.04126 13.3999C4.13013 12.8224 4.26147 12.2526 4.43384 11.6948L4.61938 11.1411C5.78568 7.93394 8.26982 5.38673 11.4338 4.13623L11.7415 4.01904C12.2907 3.81931 12.8539 3.66042 13.426 3.54346L14.0002 3.44092L15.8684 3.15283Z" stroke="url(#paint1_linear_14110_111648)" stroke-width="1.5" style="mix-blend-mode:overlay"/>
</g>
<g filter="url(#filter1_ddii_14110_111648)">
<path d="M27.1541 12.6675C27.9023 12.6675 28.3776 13.321 28.3777 13.9741V28.1997C28.3772 28.9262 27.6289 29.7221 26.95 29.7222H14.2488C13.432 29.7215 12.8224 28.8532 12.822 28.1997V14.0513C12.8222 13.2515 13.2288 12.6716 14.1111 12.7446H14.45C14.7223 12.7449 14.9949 12.9616 14.9949 13.3247V15.8657C14.9951 16.156 15.2025 16.4458 15.5398 16.4458L25.6609 16.3716C25.9332 16.3713 26.2057 16.1545 26.2058 15.7915V13.2515C26.2065 12.8882 26.4787 12.6711 26.8162 12.6675H27.1541ZM20.575 19.0278C19.8109 19.0279 19.0638 19.2494 18.4285 19.6646C17.7931 20.0798 17.2981 20.6704 17.0056 21.3608C16.7131 22.0515 16.6358 22.8122 16.7849 23.5454C16.934 24.2783 17.3024 24.9515 17.8425 25.48C18.3829 26.0085 19.0716 26.3692 19.821 26.5151C20.5706 26.661 21.3483 26.5854 22.0544 26.2993C22.7604 26.0132 23.3643 25.5292 23.7888 24.9077C24.2133 24.2863 24.4391 23.5555 24.4392 22.8081C24.4392 21.8057 24.0321 20.8441 23.3074 20.1353C22.5827 19.4265 21.5998 19.0278 20.575 19.0278ZM20.575 20.5376C20.6776 20.5376 20.7767 20.577 20.8494 20.6479C20.922 20.719 20.9626 20.816 20.9626 20.9165V22.8081H22.1218C22.218 22.8166 22.3076 22.8595 22.3728 22.9292C22.4381 22.999 22.4744 23.0905 22.4744 23.1851C22.4744 23.2797 22.438 23.3711 22.3728 23.4409C22.3076 23.5106 22.218 23.5535 22.1218 23.562H20.575C20.5244 23.5624 20.4743 23.5533 20.4275 23.5347C20.3805 23.516 20.3375 23.4885 20.3015 23.4536C20.2656 23.4188 20.237 23.3772 20.2175 23.3315C20.1981 23.2859 20.1883 23.2365 20.1882 23.187V20.9165C20.1882 20.816 20.2289 20.719 20.3015 20.6479C20.374 20.5771 20.4725 20.5377 20.575 20.5376ZM22.1951 10.2778C22.4811 10.2781 22.7565 10.3928 22.9597 10.5962C23.1624 10.7994 23.277 11.0753 23.28 11.3638C23.28 11.6535 23.4872 11.9435 23.825 11.9438H24.1628C24.4352 11.9438 24.7079 12.1608 24.7087 12.5239V14.2632C24.7087 14.553 24.5019 14.8442 24.1638 14.8442H16.9636C16.6911 14.8442 16.4187 14.6265 16.4187 14.2632V12.5229C16.4191 12.2334 16.6259 11.9439 16.9636 11.9438H17.3708C17.6433 11.9438 17.9158 11.7271 17.9158 11.3638C17.9188 11.075 18.035 10.7995 18.238 10.5962C18.4412 10.3929 18.7157 10.2781 19.0017 10.2778H22.1951ZM20.6365 11.3638C20.0266 11.3638 19.4813 11.9435 19.4812 12.5972C19.4813 13.2509 20.026 13.8305 20.6365 13.8306C21.2469 13.8304 21.7917 13.3942 21.7917 12.5972C21.7916 11.9436 21.3153 11.364 20.6365 11.3638Z" fill="white"/>
</g>
</g>
</g>
<defs>
<filter id="filter0_di_14110_111648" x="0.642578" y="1.0415" width="39.9152" height="40.0044" filterUnits="userSpaceOnUse" color-interpolation-filters="sRGB">
<feFlood flood-opacity="0" result="BackgroundImageFix"/>
<feColorMatrix in="SourceAlpha" type="matrix" values="0 0 0 0 0 0 0 0 0 0 0 0 0 0 0 0 0 0 127 0" result="hardAlpha"/>
<feOffset dy="1"/>
<feGaussianBlur stdDeviation="1"/>
<feComposite in2="hardAlpha" operator="out"/>
<feColorMatrix type="matrix" values="0 0 0 0 0.0666667 0 0 0 0 0.0980392 0 0 0 0 0.117647 0 0 0 0.05 0"/>
<feBlend mode="normal" in2="BackgroundImageFix" result="effect1_dropShadow_14110_111648"/>
<feBlend mode="normal" in="SourceGraphic" in2="effect1_dropShadow_14110_111648" result="shape"/>
<feColorMatrix in="SourceAlpha" type="matrix" values="0 0 0 0 0 0 0 0 0 0 0 0 0 0 0 0 0 0 127 0" result="hardAlpha"/>
<feOffset dx="1.6" dy="1.6"/>
<feGaussianBlur stdDeviation="1.6"/>
<feComposite in2="hardAlpha" operator="arithmetic" k2="-1" k3="1"/>
<feColorMatrix type="matrix" values="0 0 0 0 0.0666667 0 0 0 0 0.0980392 0 0 0 0 0.117647 0 0 0 0.1 0"/>
<feBlend mode="normal" in2="shape" result="effect2_innerShadow_14110_111648"/>
</filter>
<filter id="filter1_ddii_14110_111648" x="-2.20951" y="-2.80936" width="46.4761" height="46.4764" filterUnits="userSpaceOnUse" color-interpolation-filters="sRGB">
<feFlood flood-opacity="0" result="BackgroundImageFix"/>
<feColorMatrix in="SourceAlpha" type="matrix" values="0 0 0 0 0 0 0 0 0 0 0 0 0 0 0 0 0 0 127 0" result="hardAlpha"/>
<feOffset dx="2.57143" dy="2.57143"/>
<feGaussianBlur stdDeviation="4.71429"/>
<feComposite in2="hardAlpha" operator="out"/>
<feColorMatrix type="matrix" values="0 0 0 0 0.321569 0 0 0 0 0.435294 0 0 0 0 1 0 0 0 1 0"/>
<feBlend mode="normal" in2="BackgroundImageFix" result="effect1_dropShadow_14110_111648"/>
<feColorMatrix in="SourceAlpha" type="matrix" values="0 0 0 0 0 0 0 0 0 0 0 0 0 0 0 0 0 0 127 0" result="hardAlpha"/>
<feOffset dx="-2.57143" dy="-2.57143"/>
<feGaussianBlur stdDeviation="4.28571"/>
<feComposite in2="hardAlpha" operator="out"/>
<feColorMatrix type="matrix" values="0 0 0 0 1 0 0 0 0 1 0 0 0 0 1 0 0 0 0.4 0"/>
<feBlend mode="normal" in2="effect1_dropShadow_14110_111648" result="effect2_dropShadow_14110_111648"/>
<feBlend mode="normal" in="SourceGraphic" in2="effect2_dropShadow_14110_111648" result="shape"/>
<feColorMatrix in="SourceAlpha" type="matrix" values="0 0 0 0 0 0 0 0 0 0 0 0 0 0 0 0 0 0 127 0" result="hardAlpha"/>
<feOffset dy="-1.28571"/>
<feGaussianBlur stdDeviation="0.985714"/>
<feComposite in2="hardAlpha" operator="arithmetic" k2="-1" k3="1"/>
<feColorMatrix type="matrix" values="0 0 0 0 0 0 0 0 0 0.598039 0 0 0 0 1 0 0 0 0.4 0"/>
<feBlend mode="normal" in2="shape" result="effect3_innerShadow_14110_111648"/>
<feColorMatrix in="SourceAlpha" type="matrix" values="0 0 0 0 0 0 0 0 0 0 0 0 0 0 0 0 0 0 127 0" result="hardAlpha"/>
<feOffset dy="-0.428571"/>
<feGaussianBlur stdDeviation="0.557143"/>
<feComposite in2="hardAlpha" operator="arithmetic" k2="-1" k3="1"/>
<feColorMatrix type="matrix" values="0 0 0 0 1 0 0 0 0 1 0 0 0 0 1 0 0 0 0.6 0"/>
<feBlend mode="normal" in2="effect3_innerShadow_14110_111648" result="effect4_innerShadow_14110_111648"/>
</filter>
<linearGradient id="paint0_linear_14110_111648" x1="7.4001" y1="10.8" x2="37.4001" y2="47.6" gradientUnits="userSpaceOnUse">
<stop stop-color="#11191E" stop-opacity="0.4"/>
<stop offset="1" stop-color="white"/>
</linearGradient>
<linearGradient id="paint1_linear_14110_111648" x1="8.50018" y1="11.5665" x2="36.0002" y2="45.2998" gradientUnits="userSpaceOnUse">
<stop stop-color="#11191E" stop-opacity="0.4"/>
<stop offset="1" stop-color="white"/>
</linearGradient>
<clipPath id="clip0_14110_111648">
<rect width="40" height="40" fill="white" transform="translate(0.600098)"/>
</clipPath>
</defs>
</svg>
