<svg width="24" height="24" viewBox="0 0 24 24" fill="none" xmlns="http://www.w3.org/2000/svg">
<path fill-rule="evenodd" clip-rule="evenodd" d="M18.7412 4.45801C19.5109 4.45801 19.9999 5.12993 20 5.80176V20.4336C19.9997 21.181 19.2297 22 18.5312 22H5.46777C4.62734 21.9997 4.00028 21.1059 4 20.4336V5.88086C4.00014 5.05807 4.41832 4.46172 5.32617 4.53711H5.67383C5.95406 4.53719 6.23438 4.76011 6.23438 5.13379V7.74707C6.23446 8.04576 6.44788 8.34375 6.79492 8.34375L17.2051 8.26758C17.4853 8.26752 17.7656 8.0446 17.7656 7.6709V5.05859C17.7662 4.68484 18.0464 4.46176 18.3936 4.45801H18.7412ZM8.2373 15.0986C8.03234 15.0987 7.83538 15.1808 7.69043 15.3271C7.54542 15.4736 7.4639 15.6727 7.46387 15.8799C7.46387 16.087 7.54545 16.2861 7.69043 16.4326C7.83538 16.579 8.03232 16.661 8.2373 16.6611H12.4795C12.907 16.6611 13.251 16.3118 13.251 15.8799C13.2509 15.4481 12.905 15.0986 12.4775 15.0986H8.2373ZM8.2373 12C8.03232 12.0001 7.83538 12.0821 7.69043 12.2285C7.5454 12.375 7.46387 12.5741 7.46387 12.7812C7.46387 12.9884 7.54541 13.1875 7.69043 13.334C7.83538 13.4804 8.03232 13.5624 8.2373 13.5625H15.6895C16.117 13.5625 16.4609 13.2131 16.4609 12.7812C16.4609 12.3494 16.115 12 15.6875 12H8.2373Z" fill="#0099FF"/>
<path fill-rule="evenodd" clip-rule="evenodd" d="M13.6406 2C13.9349 2.00031 14.2178 2.11793 14.4268 2.32715C14.6355 2.53627 14.7538 2.82023 14.7568 3.11719C14.7568 3.41523 14.9698 3.71371 15.3174 3.71387H15.665C15.9453 3.71387 16.2259 3.93684 16.2266 4.31055V6.09961C16.2266 6.39773 16.0137 6.69628 15.666 6.69629H8.25977C7.97949 6.69628 7.69922 6.47335 7.69922 6.09961V4.30957C7.69942 4.0116 7.91222 3.71388 8.25977 3.71387H8.67871C8.95898 3.71385 9.23926 3.49092 9.23926 3.11719C9.24227 2.82005 9.36135 2.5363 9.57031 2.32715C9.77942 2.11791 10.0621 2.00015 10.3564 2H13.6406ZM12.0371 3.11719C11.4097 3.11721 10.8496 3.71325 10.8496 4.38574C10.8497 5.05818 11.4091 5.65428 12.0371 5.6543C12.6651 5.6543 13.2255 5.20567 13.2256 4.38574C13.2256 3.71324 12.7357 3.11719 12.0371 3.11719Z" fill="#0099FF"/>
</svg>
