<svg width="40" height="40" viewBox="0 0 40 40" fill="none" xmlns="http://www.w3.org/2000/svg">
<g clip-path="url(#clip0_13875_279068)">
<mask id="mask0_13875_279068" style="mask-type:alpha" maskUnits="userSpaceOnUse" x="0" y="0" width="40" height="40">
<path d="M20 0.799805C26.7982 0.799805 31.5477 2.32891 34.6094 5.39062C37.6711 8.45234 39.2002 13.2018 39.2002 20C39.2002 26.7982 37.6711 31.5477 34.6094 34.6094C31.5477 37.6711 26.7982 39.2002 20 39.2002C13.2018 39.2002 8.45234 37.6711 5.39062 34.6094C2.32891 31.5477 0.799805 26.7982 0.799805 20C0.799805 13.2018 2.32891 8.45234 5.39062 5.39062C8.45234 2.32891 13.2018 0.799805 20 0.799805Z" fill="#0099FF"/>
<path d="M20 0.799805C26.7982 0.799805 31.5477 2.32891 34.6094 5.39062C37.6711 8.45234 39.2002 13.2018 39.2002 20C39.2002 26.7982 37.6711 31.5477 34.6094 34.6094C31.5477 37.6711 26.7982 39.2002 20 39.2002C13.2018 39.2002 8.45234 37.6711 5.39062 34.6094C2.32891 31.5477 0.799805 26.7982 0.799805 20C0.799805 13.2018 2.32891 8.45234 5.39062 5.39062C8.45234 2.32891 13.2018 0.799805 20 0.799805Z" stroke="url(#paint0_linear_13875_279068)" stroke-width="1.6"/>
</mask>
<g mask="url(#mask0_13875_279068)">
<g filter="url(#filter0_di_13875_279068)">
<path d="M3.31456 10.8855C4.59422 7.36644 7.3662 4.59447 10.8853 3.3148C11.6636 3.03176 12.4679 2.82579 13.2865 2.69985L15.1543 2.4125C18.3659 1.9184 21.6342 1.9184 24.8459 2.4125L26.7137 2.69985C27.5323 2.82579 28.3365 3.03176 29.1149 3.3148C32.634 4.59447 35.4059 7.36644 36.6856 10.8855C36.9686 11.6639 37.1746 12.4681 37.3006 13.2867L37.6429 15.5119C38.1 18.4834 38.0589 21.5103 37.521 24.4683L37.3454 25.4346C37.1895 26.2917 36.9615 27.1341 36.6638 27.9528L36.455 28.5271C35.3026 31.6962 33.0333 34.3357 30.073 35.9505C28.6647 36.7186 27.1337 37.2362 25.5483 37.4801L23.7156 37.762C21.2531 38.1409 18.7471 38.1409 16.2846 37.762L14.4519 37.4801C12.8665 37.2362 11.3354 36.7186 9.92721 35.9505C6.96686 34.3357 4.69755 31.6962 3.54516 28.5271L3.33633 27.9528C3.03862 27.1341 2.81063 26.2917 2.6548 25.4346L2.47911 24.4683C1.9413 21.5103 1.90012 18.4834 2.35728 15.5119L2.69961 13.2867C2.82555 12.4681 3.03152 11.6639 3.31456 10.8855Z" fill="#0099FF"/>
<path d="M15.2683 3.15332C18.2084 2.70101 21.1971 2.67354 24.1433 3.06934L24.7322 3.15332L26.5994 3.44141C27.1771 3.53029 27.7474 3.66152 28.3054 3.83398L28.8582 4.01953C32.0654 5.18581 34.6135 7.66986 35.864 10.834L35.9812 11.1416C36.1809 11.6909 36.3398 12.254 36.4568 12.8262L36.5593 13.4004L36.9011 15.626C37.3178 18.3345 37.3093 21.0903 36.8757 23.7939L36.783 24.334L36.6072 25.3008C36.496 25.9124 36.3464 26.5162 36.1589 27.1084L35.9587 27.6963L35.7498 28.2705C34.7279 31.0805 32.778 33.4504 30.2312 34.9941L29.7136 35.292C28.5481 35.9277 27.2939 36.3825 25.9939 36.6406L25.4343 36.7393L23.6013 37.0205C21.3635 37.3648 19.0888 37.3862 16.8464 37.085L16.3982 37.0205L14.5662 36.7393C13.254 36.5374 11.9808 36.1373 10.7908 35.5537L10.2859 35.292C7.66116 33.8602 5.61069 31.5766 4.46655 28.8271L4.24976 28.2705L4.04077 27.6963C3.82834 27.1121 3.65319 26.5151 3.51636 25.9092L3.39233 25.3008L3.21655 24.334C2.72634 21.6377 2.66127 18.8825 3.02124 16.168L3.09839 15.626L3.44116 13.4004C3.53003 12.8229 3.66137 12.2531 3.83374 11.6953L4.01929 11.1416C5.18558 7.93443 7.66972 5.38721 10.8337 4.13672L11.1414 4.01953C11.6906 3.81979 12.2538 3.66091 12.8259 3.54395L13.4001 3.44141L15.2683 3.15332Z" stroke="url(#paint1_linear_13875_279068)" stroke-width="1.5" style="mix-blend-mode:overlay"/>
</g>
<g filter="url(#filter1_ddii_13875_279068)">
<path d="M17.5714 10.885C17.5714 10.8052 17.5871 10.7262 17.6176 10.6524C17.6481 10.5787 17.6929 10.5117 17.7493 10.4553C17.8058 10.3989 17.8727 10.3541 17.9465 10.3236C18.0202 10.2931 18.0992 10.2773 18.179 10.2773H21.8248C21.9859 10.2773 22.1405 10.3414 22.2544 10.4553C22.3684 10.5693 22.4324 10.7238 22.4324 10.885C22.4324 11.0461 22.3684 11.2007 22.2544 11.3146C22.1405 11.4286 21.9859 11.4926 21.8248 11.4926H21.2172V12.7929C22.872 13.032 24.4197 13.7534 25.667 14.8669C26.9143 15.9804 27.8059 17.4367 28.2303 19.054C28.6548 20.6712 28.5934 22.3777 28.0537 23.9602C27.514 25.5428 26.5201 26.9312 25.1959 27.9522L25.9267 28.6838C25.9832 28.7401 26.028 28.8071 26.0587 28.8808C26.0893 28.9545 26.1051 29.0336 26.1051 29.1134C26.1052 29.1932 26.0896 29.2723 26.0591 29.346C26.0286 29.4198 25.9839 29.4869 25.9275 29.5434C25.8711 29.5998 25.8042 29.6447 25.7305 29.6753C25.6567 29.7059 25.5777 29.7217 25.4979 29.7218C25.4181 29.7219 25.339 29.7062 25.2652 29.6757C25.1915 29.6453 25.1244 29.6006 25.0679 29.5442L24.1605 28.6376C22.8906 29.3504 21.4582 29.7238 20.0019 29.7216C18.5455 29.7238 17.1132 29.3504 15.8432 28.6376L14.9367 29.5442C14.8802 29.6006 14.8131 29.6453 14.7393 29.6757C14.6656 29.7062 14.5865 29.7219 14.5067 29.7218C14.4269 29.7217 14.3478 29.7059 14.2741 29.6753C14.2004 29.6447 14.1335 29.5998 14.0771 29.5434C14.0207 29.4869 13.976 29.4198 13.9455 29.346C13.915 29.2723 13.8994 29.1932 13.8994 29.1134C13.8995 29.0336 13.9153 28.9545 13.9459 28.8808C13.9765 28.8071 14.0214 28.7401 14.0779 28.6838L14.8095 27.9522C13.4854 26.9313 12.4914 25.543 11.9516 23.9606C11.4119 22.3782 11.3503 20.6718 11.7746 19.0546C12.1989 17.4374 13.0902 15.981 14.3373 14.8674C15.5844 13.7538 17.1319 13.0323 18.7866 12.7929V11.4926H18.179C18.0992 11.4926 18.0202 11.4769 17.9465 11.4464C17.8727 11.4158 17.8058 11.3711 17.7493 11.3146C17.6929 11.2582 17.6481 11.1912 17.6176 11.1175C17.5871 11.0438 17.5714 10.9648 17.5714 10.885ZM20.6095 16.9613C20.6095 16.8001 20.5455 16.6456 20.4315 16.5316C20.3176 16.4177 20.163 16.3537 20.0019 16.3537C19.8407 16.3537 19.6862 16.4177 19.5722 16.5316C19.4583 16.6456 19.3943 16.8001 19.3943 16.9613V21.047L17.658 23.9394C17.575 24.0776 17.5503 24.2432 17.5893 24.3997C17.6284 24.5562 17.728 24.6908 17.8663 24.7738C18.0045 24.8569 18.1701 24.8816 18.3266 24.8426C18.4831 24.8035 18.6177 24.7039 18.7007 24.5656L20.5236 21.5275C20.5801 21.4329 20.6098 21.3248 20.6095 21.2147V16.9613ZM11.3249 16.8236C11.0098 16.5503 10.7544 16.215 10.5746 15.8387C10.3947 15.4623 10.2943 15.053 10.2795 14.6362C10.2647 14.2194 10.3359 13.8039 10.4887 13.4158C10.6415 13.0277 10.8725 12.6752 11.1674 12.3803C11.4624 12.0854 11.8149 11.8543 12.203 11.7016C12.5911 11.5488 13.0065 11.4776 13.4233 11.4923C13.8402 11.5071 14.2495 11.6076 14.6258 11.7874C15.0021 11.9673 15.3374 12.2227 15.6107 12.5377C13.7637 13.4756 12.2628 14.9765 11.3249 16.8236ZM24.393 12.5377C24.6664 12.2227 25.0016 11.9673 25.3779 11.7874C25.7543 11.6076 26.1636 11.5071 26.5804 11.4923C26.9973 11.4776 27.4127 11.5488 27.8008 11.7016C28.1889 11.8543 28.5414 12.0854 28.8363 12.3803C29.1313 12.6752 29.3623 13.0277 29.5151 13.4158C29.6678 13.8039 29.739 14.2194 29.7243 14.6362C29.7095 15.053 29.6091 15.4623 29.4292 15.8387C29.2494 16.215 28.9939 16.5503 28.6789 16.8236C27.7411 14.9765 26.2401 13.4756 24.393 12.5377Z" fill="white"/>
</g>
</g>
</g>
<defs>
<filter id="filter0_di_13875_279068" x="0.0424805" y="1.04199" width="39.915" height="40.0039" filterUnits="userSpaceOnUse" color-interpolation-filters="sRGB">
<feFlood flood-opacity="0" result="BackgroundImageFix"/>
<feColorMatrix in="SourceAlpha" type="matrix" values="0 0 0 0 0 0 0 0 0 0 0 0 0 0 0 0 0 0 127 0" result="hardAlpha"/>
<feOffset dy="1"/>
<feGaussianBlur stdDeviation="1"/>
<feComposite in2="hardAlpha" operator="out"/>
<feColorMatrix type="matrix" values="0 0 0 0 0.0666667 0 0 0 0 0.0980392 0 0 0 0 0.117647 0 0 0 0.05 0"/>
<feBlend mode="normal" in2="BackgroundImageFix" result="effect1_dropShadow_13875_279068"/>
<feBlend mode="normal" in="SourceGraphic" in2="effect1_dropShadow_13875_279068" result="shape"/>
<feColorMatrix in="SourceAlpha" type="matrix" values="0 0 0 0 0 0 0 0 0 0 0 0 0 0 0 0 0 0 127 0" result="hardAlpha"/>
<feOffset dx="1.6" dy="1.6"/>
<feGaussianBlur stdDeviation="1.6"/>
<feComposite in2="hardAlpha" operator="arithmetic" k2="-1" k3="1"/>
<feColorMatrix type="matrix" values="0 0 0 0 0.0666667 0 0 0 0 0.0980392 0 0 0 0 0.117647 0 0 0 0.1 0"/>
<feBlend mode="normal" in2="shape" result="effect2_innerShadow_13875_279068"/>
</filter>
<filter id="filter1_ddii_13875_279068" x="-2.8096" y="-2.80985" width="46.4761" height="46.4759" filterUnits="userSpaceOnUse" color-interpolation-filters="sRGB">
<feFlood flood-opacity="0" result="BackgroundImageFix"/>
<feColorMatrix in="SourceAlpha" type="matrix" values="0 0 0 0 0 0 0 0 0 0 0 0 0 0 0 0 0 0 127 0" result="hardAlpha"/>
<feOffset dx="2.57143" dy="2.57143"/>
<feGaussianBlur stdDeviation="4.71429"/>
<feComposite in2="hardAlpha" operator="out"/>
<feColorMatrix type="matrix" values="0 0 0 0 0.321569 0 0 0 0 0.435294 0 0 0 0 1 0 0 0 1 0"/>
<feBlend mode="normal" in2="BackgroundImageFix" result="effect1_dropShadow_13875_279068"/>
<feColorMatrix in="SourceAlpha" type="matrix" values="0 0 0 0 0 0 0 0 0 0 0 0 0 0 0 0 0 0 127 0" result="hardAlpha"/>
<feOffset dx="-2.57143" dy="-2.57143"/>
<feGaussianBlur stdDeviation="4.28571"/>
<feComposite in2="hardAlpha" operator="out"/>
<feColorMatrix type="matrix" values="0 0 0 0 1 0 0 0 0 1 0 0 0 0 1 0 0 0 0.4 0"/>
<feBlend mode="normal" in2="effect1_dropShadow_13875_279068" result="effect2_dropShadow_13875_279068"/>
<feBlend mode="normal" in="SourceGraphic" in2="effect2_dropShadow_13875_279068" result="shape"/>
<feColorMatrix in="SourceAlpha" type="matrix" values="0 0 0 0 0 0 0 0 0 0 0 0 0 0 0 0 0 0 127 0" result="hardAlpha"/>
<feOffset dy="-1.28571"/>
<feGaussianBlur stdDeviation="0.985714"/>
<feComposite in2="hardAlpha" operator="arithmetic" k2="-1" k3="1"/>
<feColorMatrix type="matrix" values="0 0 0 0 0 0 0 0 0 0.598039 0 0 0 0 1 0 0 0 0.4 0"/>
<feBlend mode="normal" in2="shape" result="effect3_innerShadow_13875_279068"/>
<feColorMatrix in="SourceAlpha" type="matrix" values="0 0 0 0 0 0 0 0 0 0 0 0 0 0 0 0 0 0 127 0" result="hardAlpha"/>
<feOffset dy="-0.428571"/>
<feGaussianBlur stdDeviation="0.557143"/>
<feComposite in2="hardAlpha" operator="arithmetic" k2="-1" k3="1"/>
<feColorMatrix type="matrix" values="0 0 0 0 1 0 0 0 0 1 0 0 0 0 1 0 0 0 0.6 0"/>
<feBlend mode="normal" in2="effect3_innerShadow_13875_279068" result="effect4_innerShadow_13875_279068"/>
</filter>
<linearGradient id="paint0_linear_13875_279068" x1="6.8" y1="10.8" x2="36.8" y2="47.6" gradientUnits="userSpaceOnUse">
<stop stop-color="#11191E" stop-opacity="0.4"/>
<stop offset="1" stop-color="white"/>
</linearGradient>
<linearGradient id="paint1_linear_13875_279068" x1="7.90008" y1="11.567" x2="35.4001" y2="45.3003" gradientUnits="userSpaceOnUse">
<stop stop-color="#11191E" stop-opacity="0.4"/>
<stop offset="1" stop-color="white"/>
</linearGradient>
<clipPath id="clip0_13875_279068">
<rect width="40" height="40" fill="white"/>
</clipPath>
</defs>
</svg>
