<svg width="16" height="16" viewBox="0 0 16 16" fill="none" xmlns="http://www.w3.org/2000/svg">
<path d="M9.25129 1.33301C9.3617 1.33302 9.4681 1.37706 9.54622 1.45508C9.62428 1.53314 9.6682 1.63961 9.66829 1.75C9.66828 1.86042 9.62424 1.9668 9.54622 2.04492C9.46809 2.12303 9.36177 2.16698 9.25129 2.16699H8.8343V3.05859C9.96899 3.22252 11.0308 3.71698 11.8861 4.48047C12.7413 5.24395 13.3528 6.24272 13.6439 7.35156C13.9349 8.46039 13.8927 9.63077 13.5228 10.7158C13.1527 11.8009 12.4707 12.7531 11.5628 13.4531L12.0638 13.9551C12.1024 13.9936 12.1336 14.0395 12.1546 14.0898C12.1755 14.1402 12.1867 14.1946 12.1868 14.249C12.1869 14.3037 12.1754 14.3587 12.1546 14.4092C12.1338 14.4595 12.1032 14.5054 12.0648 14.5439C12.0262 14.5825 11.9803 14.6138 11.93 14.6348C11.8795 14.6558 11.8246 14.6669 11.7698 14.667C11.7152 14.667 11.6612 14.6556 11.6107 14.6348C11.5601 14.6139 11.5136 14.5836 11.4749 14.5449L10.8529 13.9229C9.98204 14.4117 8.99992 14.6685 8.00129 14.667C7.00268 14.6685 6.02054 14.4117 5.14973 13.9229L4.52766 14.5449C4.48906 14.5834 4.44323 14.6139 4.3929 14.6348C4.34247 14.6556 4.28828 14.667 4.23372 14.667C4.17898 14.6669 4.12411 14.6558 4.07356 14.6348C4.02312 14.6138 3.97739 14.5826 3.93879 14.5439C3.90024 14.5053 3.86883 14.4597 3.84797 14.4092C3.82715 14.3587 3.81667 14.3037 3.81672 14.249C3.81688 14.1946 3.82806 14.1402 3.84895 14.0898C3.86988 14.0396 3.90033 13.9936 3.93879 13.9551L4.44075 13.4531C3.53291 12.7531 2.85087 11.8008 2.48079 10.7158C2.11089 9.63093 2.06881 8.46027 2.35969 7.35156C2.65071 6.24291 3.26255 5.24393 4.1175 4.48047C4.97254 3.71714 6.03388 3.22266 7.16829 3.05859V2.16699H6.75129C6.69664 2.16698 6.64261 2.15567 6.59211 2.13477C6.54159 2.11383 6.49504 2.08359 6.45637 2.04492C6.41777 2.00627 6.38743 1.95965 6.36653 1.90918C6.34571 1.85876 6.3343 1.80455 6.3343 1.75C6.33435 1.69547 6.34569 1.64121 6.36653 1.59082C6.38745 1.5404 6.41778 1.49368 6.45637 1.45508C6.49503 1.41648 6.54164 1.38614 6.59211 1.36523C6.64257 1.34437 6.69669 1.33302 6.75129 1.33301H9.25129ZM5.70637 6.58398C5.13193 7.12846 4.77022 7.86049 4.68586 8.64746C4.60162 9.43416 4.7997 10.2252 5.24543 10.8789C5.69142 11.5328 6.35599 12.0071 7.11946 12.2158C7.88291 12.4245 8.69588 12.3537 9.41243 12.0176L8.94856 11.1826C8.58645 11.34 8.19059 11.4047 7.79719 11.3711C7.40384 11.3374 7.02476 11.2068 6.69465 10.9902C6.36463 10.7737 6.09408 10.4782 5.90657 10.1309C5.71901 9.78342 5.62033 9.39483 5.62043 9H7.04817L5.70637 6.58398ZM8.8802 5.78418C8.11681 5.57559 7.30371 5.64636 6.58723 5.98242L7.0511 6.81738C7.41317 6.66002 7.80911 6.5953 8.20247 6.62891C8.59586 6.66254 8.97486 6.79321 9.305 7.00977C9.63514 7.22632 9.90652 7.5217 10.0941 7.86914C10.2816 8.21654 10.3793 8.60524 10.3792 9H8.95149L10.2933 11.416C10.8677 10.8715 11.2304 10.1395 11.3148 9.35254C11.399 8.56582 11.2 7.77479 10.7542 7.12109C10.3082 6.46723 9.64367 5.99286 8.8802 5.78418ZM3.49055 2.16602C3.77628 2.17617 4.0568 2.24587 4.31477 2.36914C4.57276 2.49244 4.80316 2.66782 4.99055 2.88379C3.7241 3.52685 2.69421 4.55585 2.0511 5.82227C1.83518 5.63489 1.65972 5.40442 1.53645 5.14648C1.41333 4.88863 1.34442 4.60783 1.3343 4.32227C1.32422 4.03655 1.37314 3.75138 1.47786 3.48535C1.58261 3.21934 1.74152 2.97755 1.94368 2.77539C2.14586 2.57328 2.38762 2.41428 2.65364 2.30957C2.91967 2.20491 3.20484 2.15589 3.49055 2.16602ZM12.512 2.16602C12.7977 2.1559 13.0829 2.20493 13.3489 2.30957C13.6149 2.41427 13.8567 2.5733 14.0589 2.77539C14.2611 2.97754 14.42 3.21935 14.5247 3.48535C14.6294 3.75138 14.6784 4.03655 14.6683 4.32227C14.6582 4.60784 14.5893 4.88862 14.4661 5.14648C14.3429 5.40444 14.1674 5.63489 13.9515 5.82227C13.3084 4.55581 12.2785 3.52682 11.012 2.88379C11.1994 2.66788 11.4299 2.49243 11.6878 2.36914C11.9457 2.24591 12.2264 2.17618 12.512 2.16602Z" fill="#11191E"/>
</svg>
