<svg width="41" height="40" viewBox="0 0 41 40" fill="none" xmlns="http://www.w3.org/2000/svg">
<g clip-path="url(#clip0_14110_111684)">
<mask id="mask0_14110_111684" style="mask-type:alpha" maskUnits="userSpaceOnUse" x="0" y="0" width="41" height="40">
<path d="M20.2 0.799805C26.9981 0.799805 31.7476 2.32891 34.8093 5.39062C37.871 8.45234 39.4001 13.2018 39.4001 20C39.4001 26.7982 37.871 31.5477 34.8093 34.6094C31.7476 37.6711 26.9981 39.2002 20.2 39.2002C13.4018 39.2002 8.65229 37.6711 5.59058 34.6094C2.52886 31.5477 0.999756 26.7982 0.999756 20C0.999756 13.2018 2.52886 8.45234 5.59058 5.39062C8.65229 2.32891 13.4018 0.799805 20.2 0.799805Z" fill="#0099FF"/>
<path d="M20.2 0.799805C26.9981 0.799805 31.7476 2.32891 34.8093 5.39062C37.871 8.45234 39.4001 13.2018 39.4001 20C39.4001 26.7982 37.871 31.5477 34.8093 34.6094C31.7476 37.6711 26.9981 39.2002 20.2 39.2002C13.4018 39.2002 8.65229 37.6711 5.59058 34.6094C2.52886 31.5477 0.999756 26.7982 0.999756 20C0.999756 13.2018 2.52886 8.45234 5.59058 5.39062C8.65229 2.32891 13.4018 0.799805 20.2 0.799805Z" stroke="url(#paint0_linear_14110_111684)" stroke-width="1.6"/>
</mask>
<g mask="url(#mask0_14110_111684)">
<g filter="url(#filter0_di_14110_111684)">
<path d="M3.51439 10.885C4.79405 7.36595 7.56603 4.59398 11.0851 3.31431C11.8635 3.03127 12.6677 2.8253 13.4863 2.69936L15.3541 2.41201C18.5658 1.91791 21.8341 1.91791 25.0457 2.41201L26.9135 2.69936C27.7321 2.8253 28.5364 3.03127 29.3147 3.31431C32.8338 4.59398 35.6058 7.36595 36.8854 10.885C37.1685 11.6634 37.3744 12.4677 37.5004 13.2863L37.8427 15.5114C38.2999 18.4829 38.2587 21.5098 37.7209 24.4678L37.5452 25.4341C37.3894 26.2912 37.1614 27.1336 36.8637 27.9523L36.6548 28.5266C35.5024 31.6957 33.2331 34.3353 30.2728 35.95C28.8645 36.7181 27.3335 37.2357 25.7481 37.4796L23.9154 37.7616C21.4529 38.1404 18.9469 38.1404 16.4844 37.7616L14.6517 37.4796C13.0663 37.2357 11.5353 36.7181 10.127 35.95C7.16669 34.3353 4.89738 31.6957 3.74499 28.5266L3.53616 27.9523C3.23845 27.1336 3.01046 26.2912 2.85463 25.4341L2.67894 24.4678C2.14112 21.5098 2.09995 18.4829 2.55711 15.5114L2.89944 13.2863C3.02537 12.4677 3.23135 11.6634 3.51439 10.885Z" fill="#0099FF"/>
<path d="M15.4681 3.15283C18.4082 2.70052 21.397 2.67305 24.3431 3.06885L24.932 3.15283L26.7992 3.44092C27.3769 3.5298 27.9473 3.66104 28.5052 3.8335L29.058 4.01904C32.2653 5.18533 34.8133 7.66937 36.0638 10.8335L36.181 11.1411C36.3808 11.6904 36.5396 12.2536 36.6566 12.8257L36.7592 13.3999L37.101 15.6255C37.5176 18.334 37.5092 21.0899 37.0756 23.7935L36.9828 24.3335L36.807 25.3003C36.6958 25.9119 36.5462 26.5157 36.3588 27.1079L36.1586 27.6958L35.9496 28.27C34.9278 31.08 32.9778 33.45 30.431 34.9937L29.9135 35.2915C28.748 35.9272 27.4937 36.382 26.1937 36.6401L25.6342 36.7388L23.8011 37.02C21.5634 37.3643 19.2887 37.3857 17.0463 37.0845L16.598 37.02L14.766 36.7388C13.4538 36.5369 12.1806 36.1368 10.9906 35.5532L10.4857 35.2915C7.86099 33.8597 5.81051 31.5761 4.66638 28.8267L4.44958 28.27L4.2406 27.6958C4.02817 27.1116 3.85301 26.5147 3.71619 25.9087L3.59216 25.3003L3.41638 24.3335C2.92617 21.6372 2.8611 18.882 3.22107 16.1675L3.29822 15.6255L3.64099 13.3999C3.72986 12.8224 3.8612 12.2526 4.03357 11.6948L4.21912 11.1411C5.38541 7.93394 7.86955 5.38673 11.0336 4.13623L11.3412 4.01904C11.8905 3.81931 12.4537 3.66042 13.0258 3.54346L13.6 3.44092L15.4681 3.15283Z" stroke="url(#paint1_linear_14110_111684)" stroke-width="1.5" style="mix-blend-mode:overlay"/>
</g>
<g filter="url(#filter1_ddii_14110_111684)">
<path fill-rule="evenodd" clip-rule="evenodd" d="M26.754 12.6676C27.5022 12.6676 27.9777 13.3208 27.9778 13.974V28.1994C27.9775 28.926 27.2289 29.7223 26.5498 29.7223H13.8492C13.0322 29.7219 12.4225 28.853 12.4222 28.1994V14.0509C12.4224 13.251 12.8289 12.6712 13.7116 12.7445H14.0496C14.322 12.7445 14.5946 12.9613 14.5946 13.3246V15.8653C14.5946 16.1557 14.8021 16.4454 15.1395 16.4454L25.2605 16.3713C25.533 16.3713 25.8055 16.1545 25.8055 15.7912V13.2515C25.8061 12.8881 26.0785 12.6712 26.416 12.6676H26.754ZM20.181 25.3473C19.5062 25.3475 18.943 25.8876 18.943 26.5626C18.943 27.2375 19.4833 27.7776 20.181 27.7778C20.856 27.7778 21.42 27.2376 21.42 26.5626C21.42 25.8875 20.856 25.3473 20.181 25.3473ZM18.661 26.3385C18.5546 25.7478 17.9766 25.3609 17.3859 25.4631C16.7953 25.5654 16.3875 26.1228 16.4934 26.7135C16.5996 27.3045 17.1576 27.6955 17.7685 27.5898C18.3591 27.4875 18.7671 26.9293 18.661 26.3385ZM22.9961 25.4631C22.4055 25.361 21.8274 25.7478 21.721 26.3385C21.6149 26.9293 22.0028 27.484 22.6135 27.5898C23.2043 27.6921 23.7833 27.3045 23.8895 26.7135C23.9953 26.1229 23.5866 25.5655 22.9961 25.4631ZM24.1516 19.081C23.5646 18.9796 22.9947 19.3423 22.8907 19.9203L22.6629 23.8813C22.5464 24.4187 22.7175 24.9288 23.0892 24.9931C23.4602 25.0569 23.7795 24.6313 23.8734 24.1092L25.0459 20.2744C25.1465 19.7149 24.738 19.1825 24.1516 19.081ZM17.5036 19.8994C17.4031 19.3399 16.834 18.9768 16.2475 19.0782C15.6608 19.1798 15.2514 19.7117 15.355 20.2896L16.5219 24.0883C16.5997 24.6322 16.9374 25.0541 17.309 24.9903C17.6802 24.926 17.8319 24.4188 17.7381 23.8965L17.5036 19.8994ZM20.1915 18.0556C19.521 18.0557 18.9611 18.5668 18.961 19.2272L19.4974 23.6592C19.4753 24.2768 19.7659 24.8088 20.1905 24.8089C20.6146 24.8089 20.8835 24.2767 20.8836 23.6801L21.42 19.2063C21.42 18.5672 20.8613 18.0558 20.1915 18.0556Z" fill="white"/>
<path fill-rule="evenodd" clip-rule="evenodd" d="M21.7951 10.2778C22.0811 10.2781 22.3562 10.3925 22.5594 10.5959C22.7623 10.7992 22.8773 11.0753 22.8803 11.364C22.8803 11.6538 23.0873 11.9439 23.4253 11.9441H23.7633C24.0357 11.9441 24.3085 12.1609 24.3092 12.5242V14.2636C24.3092 14.5534 24.1023 14.8437 23.7642 14.8437H16.5637C16.2912 14.8437 16.0187 14.6269 16.0187 14.2636V12.5232C16.0189 12.2335 16.2258 11.9441 16.5637 11.9441H16.971C17.2435 11.9441 17.516 11.7273 17.516 11.364C17.5189 11.0751 17.6347 10.7992 17.8378 10.5959C18.0411 10.3925 18.316 10.278 18.6021 10.2778H21.7951ZM20.2361 11.364C19.6261 11.364 19.0816 11.9435 19.0816 12.5973C19.0816 13.2511 19.6256 13.8306 20.2361 13.8306C20.8466 13.8306 21.3915 13.3945 21.3916 12.5973C21.3916 11.9435 20.9152 11.364 20.2361 11.364Z" fill="white"/>
</g>
</g>
</g>
<defs>
<filter id="filter0_di_14110_111684" x="0.242432" y="1.0415" width="39.915" height="40.0044" filterUnits="userSpaceOnUse" color-interpolation-filters="sRGB">
<feFlood flood-opacity="0" result="BackgroundImageFix"/>
<feColorMatrix in="SourceAlpha" type="matrix" values="0 0 0 0 0 0 0 0 0 0 0 0 0 0 0 0 0 0 127 0" result="hardAlpha"/>
<feOffset dy="1"/>
<feGaussianBlur stdDeviation="1"/>
<feComposite in2="hardAlpha" operator="out"/>
<feColorMatrix type="matrix" values="0 0 0 0 0.0666667 0 0 0 0 0.0980392 0 0 0 0 0.117647 0 0 0 0.05 0"/>
<feBlend mode="normal" in2="BackgroundImageFix" result="effect1_dropShadow_14110_111684"/>
<feBlend mode="normal" in="SourceGraphic" in2="effect1_dropShadow_14110_111684" result="shape"/>
<feColorMatrix in="SourceAlpha" type="matrix" values="0 0 0 0 0 0 0 0 0 0 0 0 0 0 0 0 0 0 127 0" result="hardAlpha"/>
<feOffset dx="1.6" dy="1.6"/>
<feGaussianBlur stdDeviation="1.6"/>
<feComposite in2="hardAlpha" operator="arithmetic" k2="-1" k3="1"/>
<feColorMatrix type="matrix" values="0 0 0 0 0.0666667 0 0 0 0 0.0980392 0 0 0 0 0.117647 0 0 0 0.1 0"/>
<feBlend mode="normal" in2="shape" result="effect2_innerShadow_14110_111684"/>
</filter>
<filter id="filter1_ddii_14110_111684" x="-2.60953" y="-2.80936" width="46.4762" height="46.4764" filterUnits="userSpaceOnUse" color-interpolation-filters="sRGB">
<feFlood flood-opacity="0" result="BackgroundImageFix"/>
<feColorMatrix in="SourceAlpha" type="matrix" values="0 0 0 0 0 0 0 0 0 0 0 0 0 0 0 0 0 0 127 0" result="hardAlpha"/>
<feOffset dx="2.57143" dy="2.57143"/>
<feGaussianBlur stdDeviation="4.71429"/>
<feComposite in2="hardAlpha" operator="out"/>
<feColorMatrix type="matrix" values="0 0 0 0 0.321569 0 0 0 0 0.435294 0 0 0 0 1 0 0 0 1 0"/>
<feBlend mode="normal" in2="BackgroundImageFix" result="effect1_dropShadow_14110_111684"/>
<feColorMatrix in="SourceAlpha" type="matrix" values="0 0 0 0 0 0 0 0 0 0 0 0 0 0 0 0 0 0 127 0" result="hardAlpha"/>
<feOffset dx="-2.57143" dy="-2.57143"/>
<feGaussianBlur stdDeviation="4.28571"/>
<feComposite in2="hardAlpha" operator="out"/>
<feColorMatrix type="matrix" values="0 0 0 0 1 0 0 0 0 1 0 0 0 0 1 0 0 0 0.4 0"/>
<feBlend mode="normal" in2="effect1_dropShadow_14110_111684" result="effect2_dropShadow_14110_111684"/>
<feBlend mode="normal" in="SourceGraphic" in2="effect2_dropShadow_14110_111684" result="shape"/>
<feColorMatrix in="SourceAlpha" type="matrix" values="0 0 0 0 0 0 0 0 0 0 0 0 0 0 0 0 0 0 127 0" result="hardAlpha"/>
<feOffset dy="-1.28571"/>
<feGaussianBlur stdDeviation="0.985714"/>
<feComposite in2="hardAlpha" operator="arithmetic" k2="-1" k3="1"/>
<feColorMatrix type="matrix" values="0 0 0 0 0 0 0 0 0 0.598039 0 0 0 0 1 0 0 0 0.4 0"/>
<feBlend mode="normal" in2="shape" result="effect3_innerShadow_14110_111684"/>
<feColorMatrix in="SourceAlpha" type="matrix" values="0 0 0 0 0 0 0 0 0 0 0 0 0 0 0 0 0 0 127 0" result="hardAlpha"/>
<feOffset dy="-0.428571"/>
<feGaussianBlur stdDeviation="0.557143"/>
<feComposite in2="hardAlpha" operator="arithmetic" k2="-1" k3="1"/>
<feColorMatrix type="matrix" values="0 0 0 0 1 0 0 0 0 1 0 0 0 0 1 0 0 0 0.6 0"/>
<feBlend mode="normal" in2="effect3_innerShadow_14110_111684" result="effect4_innerShadow_14110_111684"/>
</filter>
<linearGradient id="paint0_linear_14110_111684" x1="6.99995" y1="10.8" x2="36.9999" y2="47.6" gradientUnits="userSpaceOnUse">
<stop stop-color="#11191E" stop-opacity="0.4"/>
<stop offset="1" stop-color="white"/>
</linearGradient>
<linearGradient id="paint1_linear_14110_111684" x1="8.09991" y1="11.5665" x2="35.5999" y2="45.2998" gradientUnits="userSpaceOnUse">
<stop stop-color="#11191E" stop-opacity="0.4"/>
<stop offset="1" stop-color="white"/>
</linearGradient>
<clipPath id="clip0_14110_111684">
<rect width="40" height="40" fill="white" transform="translate(0.199951)"/>
</clipPath>
</defs>
</svg>
