<svg width="21" height="20" viewBox="0 0 21 20" fill="none" xmlns="http://www.w3.org/2000/svg">
<path d="M16.4607 3.71533C17.1251 3.71533 17.5472 4.27527 17.5473 4.83512V17.0283C17.547 17.6511 16.8823 18.3337 16.2795 18.3337H5.00329C4.27784 18.3334 3.73657 17.5886 3.73633 17.0283V4.90104C3.73645 4.21539 4.09741 3.71842 4.88106 3.78125H5.18115C5.42304 3.78132 5.66501 3.96708 5.66501 4.27848V6.45622C5.66508 6.70513 5.8493 6.95345 6.14886 6.95345L15.1347 6.88997C15.3766 6.88992 15.6186 6.70416 15.6186 6.39274V4.21582C15.6191 3.90436 15.861 3.71846 16.1606 3.71533H16.4607ZM9.43301 12.48L7.22194 10.7336L6.32588 11.5368L9.43301 15.0003L14.9577 9.95882L14.0878 9.16699L9.43301 12.48Z" fill="white"/>
<path  d="M12.058 1.66699C12.3119 1.66725 12.5562 1.76527 12.7365 1.93962C12.9167 2.11388 13.0189 2.35052 13.0215 2.59798C13.0215 2.84635 13.2053 3.09509 13.5053 3.09521H13.8054C14.0473 3.09521 14.2895 3.28103 14.2901 3.59245V5.08333C14.2901 5.33177 14.1064 5.58056 13.8062 5.58057H7.41329C7.17136 5.58056 6.92943 5.39478 6.92943 5.08333V3.59163C6.92961 3.34332 7.11329 3.09523 7.41329 3.09521H7.77492C8.01684 3.0952 8.25877 2.90943 8.25877 2.59798C8.26137 2.35037 8.36416 2.11391 8.54453 1.93962C8.72503 1.76525 8.96905 1.66712 9.22311 1.66699H12.058ZM10.6738 2.59798C10.1323 2.598 9.6488 3.0947 9.6488 3.65511C9.64886 4.21548 10.1318 4.71222 10.6738 4.71224C11.2159 4.71224 11.6997 4.33838 11.6997 3.65511C11.6997 3.09469 11.2768 2.59798 10.6738 2.59798Z" fill="white"/>
</svg>
