<svg width="41" height="40" viewBox="0 0 41 40" fill="none" xmlns="http://www.w3.org/2000/svg">
<g clip-path="url(#clip0_14110_111752)">
<mask id="mask0_14110_111752" style="mask-type:alpha" maskUnits="userSpaceOnUse" x="0" y="0" width="41" height="40">
<path d="M20.4001 0.799805C27.1983 0.799805 31.9477 2.32891 35.0095 5.39062C38.0712 8.45234 39.6003 13.2018 39.6003 20C39.6003 26.7982 38.0712 31.5477 35.0095 34.6094C31.9477 37.6711 27.1983 39.2002 20.4001 39.2002C13.6019 39.2002 8.85243 37.6711 5.79071 34.6094C2.72899 31.5477 1.19989 26.7982 1.19989 20C1.19989 13.2018 2.72899 8.45234 5.79071 5.39062C8.85243 2.32891 13.6019 0.799805 20.4001 0.799805Z" fill="#0099FF"/>
<path d="M20.4001 0.799805C27.1983 0.799805 31.9477 2.32891 35.0095 5.39062C38.0712 8.45234 39.6003 13.2018 39.6003 20C39.6003 26.7982 38.0712 31.5477 35.0095 34.6094C31.9477 37.6711 27.1983 39.2002 20.4001 39.2002C13.6019 39.2002 8.85243 37.6711 5.79071 34.6094C2.72899 31.5477 1.19989 26.7982 1.19989 20C1.19989 13.2018 2.72899 8.45234 5.79071 5.39062C8.85243 2.32891 13.6019 0.799805 20.4001 0.799805Z" stroke="url(#paint0_linear_14110_111752)" stroke-width="1.6"/>
</mask>
<g mask="url(#mask0_14110_111752)">
<g filter="url(#filter0_di_14110_111752)">
<path d="M3.71458 10.885C4.99425 7.36595 7.76622 4.59398 11.2853 3.31431C12.0637 3.03127 12.8679 2.8253 13.6865 2.69936L15.5543 2.41201C18.7659 1.91791 22.0343 1.91791 25.2459 2.41201L27.1137 2.69936C27.9323 2.8253 28.7365 3.03127 29.5149 3.31431C33.034 4.59398 35.806 7.36595 37.0856 10.885C37.3687 11.6634 37.5746 12.4677 37.7006 13.2863L38.0429 15.5114C38.5001 18.4829 38.4589 21.5098 37.9211 24.4678L37.7454 25.4341C37.5896 26.2912 37.3616 27.1336 37.0639 27.9523L36.855 28.5266C35.7026 31.6957 33.4333 34.3353 30.473 35.95C29.0647 36.7181 27.5337 37.2357 25.9483 37.4796L24.1156 37.7616C21.6531 38.1404 19.1471 38.1404 16.6846 37.7616L14.8519 37.4796C13.2665 37.2357 11.7355 36.7181 10.3272 35.95C7.36689 34.3353 5.09758 31.6957 3.94519 28.5266L3.73636 27.9523C3.43865 27.1336 3.21066 26.2912 3.05482 25.4341L2.87913 24.4678C2.34132 21.5098 2.30014 18.4829 2.7573 15.5114L3.09963 13.2863C3.22557 12.4677 3.43154 11.6634 3.71458 10.885Z" fill="#0099FF"/>
<path d="M15.6683 3.15283C18.6084 2.70052 21.5972 2.67305 24.5433 3.06885L25.1322 3.15283L26.9994 3.44092C27.5771 3.5298 28.1475 3.66104 28.7054 3.8335L29.2582 4.01904C32.4655 5.18533 35.0135 7.66937 36.264 10.8335L36.3812 11.1411C36.581 11.6904 36.7398 12.2536 36.8568 12.8257L36.9594 13.3999L37.3011 15.6255C37.7178 18.334 37.7094 21.0899 37.2758 23.7935L37.183 24.3335L37.0072 25.3003C36.896 25.9119 36.7464 26.5157 36.559 27.1079L36.3588 27.6958L36.1498 28.27C35.128 31.08 33.178 33.45 30.6312 34.9937L30.1136 35.2915C28.9482 35.9272 27.6939 36.382 26.3939 36.6401L25.8344 36.7388L24.0013 37.02C21.7636 37.3643 19.4889 37.3857 17.2465 37.0845L16.7982 37.02L14.9662 36.7388C13.654 36.5369 12.3808 36.1368 11.1908 35.5532L10.6859 35.2915C8.06119 33.8597 6.01071 31.5761 4.86658 28.8267L4.64978 28.27L4.4408 27.6958C4.22837 27.1116 4.05321 26.5147 3.91638 25.9087L3.79236 25.3003L3.61658 24.3335C3.12637 21.6372 3.06129 18.882 3.42126 16.1675L3.49841 15.6255L3.84119 13.3999C3.93005 12.8224 4.06139 12.2526 4.23376 11.6948L4.41931 11.1411C5.58561 7.93394 8.06974 5.38673 11.2338 4.13623L11.5414 4.01904C12.0907 3.81931 12.6538 3.66042 13.226 3.54346L13.8002 3.44092L15.6683 3.15283Z" stroke="url(#paint1_linear_14110_111752)" stroke-width="1.5" style="mix-blend-mode:overlay"/>
</g>
<g filter="url(#filter1_ddii_14110_111752)">
<path d="M26.9541 12.6675C27.7023 12.6675 28.1777 13.321 28.1777 13.9741V28.1997C28.1773 28.9262 27.4289 29.7221 26.75 29.7222H14.0488C13.2321 29.7215 12.6225 28.8532 12.6221 28.1997V14.0513C12.6222 13.2515 13.0288 12.6716 13.9111 12.7446H14.25C14.5223 12.7449 14.7949 12.9616 14.7949 13.3247V15.8657C14.7952 16.156 15.0026 16.4458 15.3398 16.4458L25.4609 16.3716C25.7332 16.3713 26.0058 16.1545 26.0059 15.7915V13.2515C26.0065 12.8882 26.2788 12.6711 26.6162 12.6675H26.9541ZM20.3994 19.0278C20.0018 19.0281 19.6796 19.3508 19.6797 19.7485L19.6807 22.1968L17.2314 22.1958C16.8338 22.1959 16.5118 22.5188 16.5117 22.9165C16.5117 23.3143 16.8337 23.6371 17.2314 23.6372H19.6797V26.0854C19.6797 26.4832 20.0026 26.8062 20.4004 26.8062C20.7981 26.806 21.1201 26.4831 21.1201 26.0854V23.6372H23.5684C23.9662 23.6372 24.289 23.3143 24.2891 22.9165C24.2889 22.5188 23.9661 22.1967 23.5684 22.1968H21.1201V19.7485C21.1201 19.3508 20.7972 19.0278 20.3994 19.0278ZM21.9951 10.2778C22.2812 10.2781 22.5566 10.3928 22.7598 10.5962C22.9625 10.7994 23.0771 11.0753 23.0801 11.3638C23.0801 11.6535 23.2873 11.9435 23.625 11.9438H23.9629C24.2353 11.9438 24.508 12.1608 24.5088 12.5239V14.2632C24.5088 14.553 24.3019 14.8442 23.9639 14.8442H16.7637C16.4912 14.8442 16.2188 14.6265 16.2188 14.2632V12.5229C16.2191 12.2334 16.426 11.9439 16.7637 11.9438H17.1709C17.4434 11.9438 17.7158 11.7271 17.7158 11.3638C17.7188 11.075 17.835 10.7995 18.0381 10.5962C18.2413 10.3929 18.5158 10.2781 18.8018 10.2778H21.9951ZM20.4365 11.3638C19.8266 11.3638 19.2814 11.9435 19.2812 12.5972C19.2813 13.2509 19.826 13.8305 20.4365 13.8306C21.0469 13.8304 21.5917 13.3942 21.5918 12.5972C21.5917 11.9436 21.1154 11.364 20.4365 11.3638Z" fill="white"/>
</g>
</g>
</g>
<defs>
<filter id="filter0_di_14110_111752" x="0.442627" y="1.0415" width="39.915" height="40.0044" filterUnits="userSpaceOnUse" color-interpolation-filters="sRGB">
<feFlood flood-opacity="0" result="BackgroundImageFix"/>
<feColorMatrix in="SourceAlpha" type="matrix" values="0 0 0 0 0 0 0 0 0 0 0 0 0 0 0 0 0 0 127 0" result="hardAlpha"/>
<feOffset dy="1"/>
<feGaussianBlur stdDeviation="1"/>
<feComposite in2="hardAlpha" operator="out"/>
<feColorMatrix type="matrix" values="0 0 0 0 0.0666667 0 0 0 0 0.0980392 0 0 0 0 0.117647 0 0 0 0.05 0"/>
<feBlend mode="normal" in2="BackgroundImageFix" result="effect1_dropShadow_14110_111752"/>
<feBlend mode="normal" in="SourceGraphic" in2="effect1_dropShadow_14110_111752" result="shape"/>
<feColorMatrix in="SourceAlpha" type="matrix" values="0 0 0 0 0 0 0 0 0 0 0 0 0 0 0 0 0 0 127 0" result="hardAlpha"/>
<feOffset dx="1.6" dy="1.6"/>
<feGaussianBlur stdDeviation="1.6"/>
<feComposite in2="hardAlpha" operator="arithmetic" k2="-1" k3="1"/>
<feColorMatrix type="matrix" values="0 0 0 0 0.0666667 0 0 0 0 0.0980392 0 0 0 0 0.117647 0 0 0 0.1 0"/>
<feBlend mode="normal" in2="shape" result="effect2_innerShadow_14110_111752"/>
</filter>
<filter id="filter1_ddii_14110_111752" x="-2.40946" y="-2.80936" width="46.4762" height="46.4764" filterUnits="userSpaceOnUse" color-interpolation-filters="sRGB">
<feFlood flood-opacity="0" result="BackgroundImageFix"/>
<feColorMatrix in="SourceAlpha" type="matrix" values="0 0 0 0 0 0 0 0 0 0 0 0 0 0 0 0 0 0 127 0" result="hardAlpha"/>
<feOffset dx="2.57143" dy="2.57143"/>
<feGaussianBlur stdDeviation="4.71429"/>
<feComposite in2="hardAlpha" operator="out"/>
<feColorMatrix type="matrix" values="0 0 0 0 0.321569 0 0 0 0 0.435294 0 0 0 0 1 0 0 0 1 0"/>
<feBlend mode="normal" in2="BackgroundImageFix" result="effect1_dropShadow_14110_111752"/>
<feColorMatrix in="SourceAlpha" type="matrix" values="0 0 0 0 0 0 0 0 0 0 0 0 0 0 0 0 0 0 127 0" result="hardAlpha"/>
<feOffset dx="-2.57143" dy="-2.57143"/>
<feGaussianBlur stdDeviation="4.28571"/>
<feComposite in2="hardAlpha" operator="out"/>
<feColorMatrix type="matrix" values="0 0 0 0 1 0 0 0 0 1 0 0 0 0 1 0 0 0 0.4 0"/>
<feBlend mode="normal" in2="effect1_dropShadow_14110_111752" result="effect2_dropShadow_14110_111752"/>
<feBlend mode="normal" in="SourceGraphic" in2="effect2_dropShadow_14110_111752" result="shape"/>
<feColorMatrix in="SourceAlpha" type="matrix" values="0 0 0 0 0 0 0 0 0 0 0 0 0 0 0 0 0 0 127 0" result="hardAlpha"/>
<feOffset dy="-1.28571"/>
<feGaussianBlur stdDeviation="0.985714"/>
<feComposite in2="hardAlpha" operator="arithmetic" k2="-1" k3="1"/>
<feColorMatrix type="matrix" values="0 0 0 0 0 0 0 0 0 0.598039 0 0 0 0 1 0 0 0 0.4 0"/>
<feBlend mode="normal" in2="shape" result="effect3_innerShadow_14110_111752"/>
<feColorMatrix in="SourceAlpha" type="matrix" values="0 0 0 0 0 0 0 0 0 0 0 0 0 0 0 0 0 0 127 0" result="hardAlpha"/>
<feOffset dy="-0.428571"/>
<feGaussianBlur stdDeviation="0.557143"/>
<feComposite in2="hardAlpha" operator="arithmetic" k2="-1" k3="1"/>
<feColorMatrix type="matrix" values="0 0 0 0 1 0 0 0 0 1 0 0 0 0 1 0 0 0 0.6 0"/>
<feBlend mode="normal" in2="effect3_innerShadow_14110_111752" result="effect4_innerShadow_14110_111752"/>
</filter>
<linearGradient id="paint0_linear_14110_111752" x1="7.20008" y1="10.8" x2="37.2001" y2="47.6" gradientUnits="userSpaceOnUse">
<stop stop-color="#11191E" stop-opacity="0.4"/>
<stop offset="1" stop-color="white"/>
</linearGradient>
<linearGradient id="paint1_linear_14110_111752" x1="8.3001" y1="11.5665" x2="35.8001" y2="45.2998" gradientUnits="userSpaceOnUse">
<stop stop-color="#11191E" stop-opacity="0.4"/>
<stop offset="1" stop-color="white"/>
</linearGradient>
<clipPath id="clip0_14110_111752">
<rect width="40" height="40" fill="white" transform="translate(0.400085)"/>
</clipPath>
</defs>
</svg>
