<svg width="40" height="40" viewBox="0 0 40 40" fill="none" xmlns="http://www.w3.org/2000/svg">
<g clip-path="url(#clip0_14110_111788)">
<mask id="mask0_14110_111788" style="mask-type:alpha" maskUnits="userSpaceOnUse" x="0" y="0" width="41" height="40">
<path d="M20.0002 0.799805C26.7984 0.799805 31.5478 2.32891 34.6096 5.39062C37.6713 8.45234 39.2004 13.2018 39.2004 20C39.2004 26.7982 37.6713 31.5477 34.6096 34.6094C31.5478 37.6711 26.7984 39.2002 20.0002 39.2002C13.202 39.2002 8.45253 37.6711 5.39081 34.6094C2.32909 31.5477 0.799988 26.7982 0.799988 20C0.799988 13.2018 2.32909 8.45234 5.39081 5.39062C8.45253 2.32891 13.202 0.799805 20.0002 0.799805Z" fill="#0099FF"/>
<path d="M20.0002 0.799805C26.7984 0.799805 31.5478 2.32891 34.6096 5.39062C37.6713 8.45234 39.2004 13.2018 39.2004 20C39.2004 26.7982 37.6713 31.5477 34.6096 34.6094C31.5478 37.6711 26.7984 39.2002 20.0002 39.2002C13.202 39.2002 8.45253 37.6711 5.39081 34.6094C2.32909 31.5477 0.799988 26.7982 0.799988 20C0.799988 13.2018 2.32909 8.45234 5.39081 5.39062C8.45253 2.32891 13.202 0.799805 20.0002 0.799805Z" stroke="url(#paint0_linear_14110_111788)" stroke-width="1.6"/>
</mask>
<g mask="url(#mask0_14110_111788)">
<g filter="url(#filter0_di_14110_111788)">
<path d="M3.31468 10.885C4.59434 7.36595 7.36632 4.59398 10.8854 3.31431C11.6638 3.03127 12.468 2.8253 13.2866 2.69936L15.1544 2.41201C18.366 1.91791 21.6344 1.91791 24.846 2.41201L26.7138 2.69936C27.5324 2.8253 28.3366 3.03127 29.115 3.31431C32.6341 4.59398 35.4061 7.36595 36.6857 10.885C36.9688 11.6634 37.1747 12.4677 37.3007 13.2863L37.643 15.5114C38.1002 18.4829 38.059 21.5098 37.5212 24.4678L37.3455 25.4341C37.1896 26.2912 36.9617 27.1336 36.6639 27.9523L36.4551 28.5266C35.3027 31.6957 33.0334 34.3353 30.0731 35.95C28.6648 36.7181 27.1338 37.2357 25.5484 37.4796L23.7157 37.7616C21.2532 38.1404 18.7472 38.1404 16.2847 37.7616L14.452 37.4796C12.8666 37.2357 11.3356 36.7181 9.92733 35.95C6.96698 34.3353 4.69768 31.6957 3.54529 28.5266L3.33646 27.9523C3.03875 27.1336 2.81076 26.2912 2.65492 25.4341L2.47923 24.4678C1.94142 21.5098 1.90024 18.4829 2.3574 15.5114L2.69973 13.2863C2.82567 12.4677 3.03164 11.6634 3.31468 10.885Z" fill="#0099FF"/>
<path d="M15.2684 3.15283C18.2085 2.70052 21.1973 2.67305 24.1434 3.06885L24.7323 3.15283L26.5995 3.44092C27.1772 3.5298 27.7476 3.66104 28.3055 3.8335L28.8583 4.01904C32.0656 5.18533 34.6136 7.66937 35.8641 10.8335L35.9813 11.1411C36.1811 11.6904 36.3399 12.2536 36.4569 12.8257L36.5594 13.3999L36.9012 15.6255C37.3179 18.334 37.3095 21.0899 36.8759 23.7935L36.7831 24.3335L36.6073 25.3003C36.4961 25.9119 36.3465 26.5157 36.1591 27.1079L35.9589 27.6958L35.7499 28.27C34.7281 31.08 32.7781 33.45 30.2313 34.9937L29.7137 35.2915C28.5483 35.9272 27.294 36.382 25.994 36.6401L25.4344 36.7388L23.6014 37.02C21.3637 37.3643 19.089 37.3857 16.8466 37.0845L16.3983 37.02L14.5663 36.7388C13.2541 36.5369 11.9809 36.1368 10.7909 35.5532L10.286 35.2915C7.66128 33.8597 5.61081 31.5761 4.46667 28.8267L4.24988 28.27L4.04089 27.6958C3.82847 27.1116 3.65331 26.5147 3.51648 25.9087L3.39246 25.3003L3.21667 24.3335C2.72647 21.6372 2.66139 18.882 3.02136 16.1675L3.09851 15.6255L3.44128 13.3999C3.53015 12.8224 3.66149 12.2526 3.83386 11.6948L4.01941 11.1411C5.1857 7.93394 7.66984 5.38673 10.8339 4.13623L11.1415 4.01904C11.6908 3.81931 12.2539 3.66042 12.826 3.54346L13.4003 3.44092L15.2684 3.15283Z" stroke="url(#paint1_linear_14110_111788)" stroke-width="1.5" style="mix-blend-mode:overlay"/>
</g>
<g filter="url(#filter1_ddii_14110_111788)">
<path fill-rule="evenodd" clip-rule="evenodd" d="M26.5541 12.6676C27.3024 12.6676 27.7779 13.3208 27.778 13.974V28.1994C27.7777 28.926 27.029 29.7223 26.35 29.7223H13.6494C12.8323 29.7219 12.2227 28.853 12.2224 28.1994V14.0509C12.2225 13.251 12.6291 12.6712 13.5117 12.7445H13.8497C14.1222 12.7445 14.3947 12.9613 14.3947 13.3246V15.8653C14.3948 16.1557 14.6023 16.4454 14.9397 16.4454L25.0607 16.3713C25.3331 16.3713 25.6057 16.1545 25.6057 15.7912V13.2515C25.6063 12.8881 25.8787 12.6712 26.2161 12.6676H26.5541ZM17.7263 19.2111C17.6445 19.2129 17.5638 19.2323 17.4899 19.2671C17.4159 19.3019 17.3495 19.3514 17.2962 19.4133C17.1703 19.5635 17.0978 19.7513 17.0902 19.9469C17.0826 20.1425 17.1406 20.3352 17.2544 20.4947L19.0792 22.8996L17.2535 25.3083C17.1439 25.4579 17.0854 25.6387 17.0864 25.8239C17.0705 26.0095 17.1278 26.1939 17.2468 26.3375C17.3658 26.4811 17.5367 26.5724 17.7225 26.592H22.6691C22.7508 26.5902 22.8315 26.5708 22.9055 26.536C22.9793 26.5012 23.045 26.4515 23.0982 26.3898C23.2241 26.2395 23.2966 26.0518 23.3042 25.8562C23.3118 25.6605 23.2539 25.4679 23.14 25.3083L21.3142 22.9015L23.1409 20.4947C23.2506 20.3451 23.3099 20.1644 23.309 19.9792C23.3248 19.7936 23.2666 19.6091 23.1476 19.4655C23.0285 19.322 22.8577 19.2306 22.6719 19.2111H17.7263Z" fill="white"/>
<path fill-rule="evenodd" clip-rule="evenodd" d="M21.5952 10.2778C21.8813 10.2781 22.1564 10.3925 22.3595 10.5959C22.5625 10.7992 22.6775 11.0753 22.6804 11.364C22.6804 11.6538 22.8875 11.9439 23.2254 11.9441H23.5634C23.8359 11.9441 24.1087 12.1609 24.1093 12.5242V14.2636C24.1093 14.5534 23.9024 14.8437 23.5644 14.8437H16.3639C16.0914 14.8437 15.8189 14.6269 15.8189 14.2636V12.5232C15.8191 12.2335 16.026 11.9441 16.3639 11.9441H16.7712C17.0436 11.9441 17.3161 11.7273 17.3161 11.364C17.3191 11.0751 17.4348 10.7992 17.638 10.5959C17.8413 10.3925 18.1161 10.278 18.4023 10.2778H21.5952ZM20.0363 11.364C19.4263 11.364 18.8818 11.9435 18.8818 12.5973C18.8818 13.2511 19.4257 13.8306 20.0363 13.8306C20.6468 13.8306 21.1917 13.3945 21.1917 12.5973C21.1917 11.9435 20.7154 11.364 20.0363 11.364Z" fill="white"/>
</g>
</g>
</g>
<defs>
<filter id="filter0_di_14110_111788" x="0.0427246" y="1.0415" width="39.915" height="40.0044" filterUnits="userSpaceOnUse" color-interpolation-filters="sRGB">
<feFlood flood-opacity="0" result="BackgroundImageFix"/>
<feColorMatrix in="SourceAlpha" type="matrix" values="0 0 0 0 0 0 0 0 0 0 0 0 0 0 0 0 0 0 127 0" result="hardAlpha"/>
<feOffset dy="1"/>
<feGaussianBlur stdDeviation="1"/>
<feComposite in2="hardAlpha" operator="out"/>
<feColorMatrix type="matrix" values="0 0 0 0 0.0666667 0 0 0 0 0.0980392 0 0 0 0 0.117647 0 0 0 0.05 0"/>
<feBlend mode="normal" in2="BackgroundImageFix" result="effect1_dropShadow_14110_111788"/>
<feBlend mode="normal" in="SourceGraphic" in2="effect1_dropShadow_14110_111788" result="shape"/>
<feColorMatrix in="SourceAlpha" type="matrix" values="0 0 0 0 0 0 0 0 0 0 0 0 0 0 0 0 0 0 127 0" result="hardAlpha"/>
<feOffset dx="1.6" dy="1.6"/>
<feGaussianBlur stdDeviation="1.6"/>
<feComposite in2="hardAlpha" operator="arithmetic" k2="-1" k3="1"/>
<feColorMatrix type="matrix" values="0 0 0 0 0.0666667 0 0 0 0 0.0980392 0 0 0 0 0.117647 0 0 0 0.1 0"/>
<feBlend mode="normal" in2="shape" result="effect2_innerShadow_14110_111788"/>
</filter>
<filter id="filter1_ddii_14110_111788" x="-2.80936" y="-2.80936" width="46.4762" height="46.4764" filterUnits="userSpaceOnUse" color-interpolation-filters="sRGB">
<feFlood flood-opacity="0" result="BackgroundImageFix"/>
<feColorMatrix in="SourceAlpha" type="matrix" values="0 0 0 0 0 0 0 0 0 0 0 0 0 0 0 0 0 0 127 0" result="hardAlpha"/>
<feOffset dx="2.57143" dy="2.57143"/>
<feGaussianBlur stdDeviation="4.71429"/>
<feComposite in2="hardAlpha" operator="out"/>
<feColorMatrix type="matrix" values="0 0 0 0 0.321569 0 0 0 0 0.435294 0 0 0 0 1 0 0 0 1 0"/>
<feBlend mode="normal" in2="BackgroundImageFix" result="effect1_dropShadow_14110_111788"/>
<feColorMatrix in="SourceAlpha" type="matrix" values="0 0 0 0 0 0 0 0 0 0 0 0 0 0 0 0 0 0 127 0" result="hardAlpha"/>
<feOffset dx="-2.57143" dy="-2.57143"/>
<feGaussianBlur stdDeviation="4.28571"/>
<feComposite in2="hardAlpha" operator="out"/>
<feColorMatrix type="matrix" values="0 0 0 0 1 0 0 0 0 1 0 0 0 0 1 0 0 0 0.4 0"/>
<feBlend mode="normal" in2="effect1_dropShadow_14110_111788" result="effect2_dropShadow_14110_111788"/>
<feBlend mode="normal" in="SourceGraphic" in2="effect2_dropShadow_14110_111788" result="shape"/>
<feColorMatrix in="SourceAlpha" type="matrix" values="0 0 0 0 0 0 0 0 0 0 0 0 0 0 0 0 0 0 127 0" result="hardAlpha"/>
<feOffset dy="-1.28571"/>
<feGaussianBlur stdDeviation="0.985714"/>
<feComposite in2="hardAlpha" operator="arithmetic" k2="-1" k3="1"/>
<feColorMatrix type="matrix" values="0 0 0 0 0 0 0 0 0 0.598039 0 0 0 0 1 0 0 0 0.4 0"/>
<feBlend mode="normal" in2="shape" result="effect3_innerShadow_14110_111788"/>
<feColorMatrix in="SourceAlpha" type="matrix" values="0 0 0 0 0 0 0 0 0 0 0 0 0 0 0 0 0 0 127 0" result="hardAlpha"/>
<feOffset dy="-0.428571"/>
<feGaussianBlur stdDeviation="0.557143"/>
<feComposite in2="hardAlpha" operator="arithmetic" k2="-1" k3="1"/>
<feColorMatrix type="matrix" values="0 0 0 0 1 0 0 0 0 1 0 0 0 0 1 0 0 0 0.6 0"/>
<feBlend mode="normal" in2="effect3_innerShadow_14110_111788" result="effect4_innerShadow_14110_111788"/>
</filter>
<linearGradient id="paint0_linear_14110_111788" x1="6.80018" y1="10.8" x2="36.8002" y2="47.6" gradientUnits="userSpaceOnUse">
<stop stop-color="#11191E" stop-opacity="0.4"/>
<stop offset="1" stop-color="white"/>
</linearGradient>
<linearGradient id="paint1_linear_14110_111788" x1="7.9002" y1="11.5665" x2="35.4002" y2="45.2998" gradientUnits="userSpaceOnUse">
<stop stop-color="#11191E" stop-opacity="0.4"/>
<stop offset="1" stop-color="white"/>
</linearGradient>
<clipPath id="clip0_14110_111788">
<rect width="40" height="40" fill="white"/>
</clipPath>
</defs>
</svg>
