<svg width="40" height="40" viewBox="0 0 40 40" fill="none" xmlns="http://www.w3.org/2000/svg">
<g clip-path="url(#clip0_14574_78385)">
<mask id="mask0_14574_78385" style="mask-type:alpha" maskUnits="userSpaceOnUse" x="0" y="0" width="40" height="40">
<path d="M20 0.799805C26.7982 0.799805 31.5477 2.32891 34.6094 5.39062C37.6711 8.45234 39.2002 13.2018 39.2002 20C39.2002 26.7982 37.6711 31.5477 34.6094 34.6094C31.5477 37.6711 26.7982 39.2002 20 39.2002C13.2018 39.2002 8.45234 37.6711 5.39062 34.6094C2.32891 31.5477 0.799805 26.7982 0.799805 20C0.799805 13.2018 2.32891 8.45234 5.39062 5.39062C8.45234 2.32891 13.2018 0.799805 20 0.799805Z" fill="#0099FF"/>
<path d="M20 0.799805C26.7982 0.799805 31.5477 2.32891 34.6094 5.39062C37.6711 8.45234 39.2002 13.2018 39.2002 20C39.2002 26.7982 37.6711 31.5477 34.6094 34.6094C31.5477 37.6711 26.7982 39.2002 20 39.2002C13.2018 39.2002 8.45234 37.6711 5.39062 34.6094C2.32891 31.5477 0.799805 26.7982 0.799805 20C0.799805 13.2018 2.32891 8.45234 5.39062 5.39062C8.45234 2.32891 13.2018 0.799805 20 0.799805Z" stroke="url(#paint0_linear_14574_78385)" stroke-width="1.6"/>
</mask>
<g mask="url(#mask0_14574_78385)">
<g filter="url(#filter0_di_14574_78385)">
<path d="M3.31448 10.8845C4.59414 7.36546 7.36612 4.59349 10.8852 3.31383V3.31383C11.6636 3.03078 12.4678 2.82481 13.2864 2.69887L15.1542 2.41152C18.3658 1.91742 21.6342 1.91743 24.8458 2.41152L26.7136 2.69887C27.5322 2.82481 28.3364 3.03078 29.1148 3.31383V3.31383C32.6339 4.59349 35.4059 7.36546 36.6855 10.8845V10.8845C36.9686 11.6629 37.1745 12.4672 37.3005 13.2858L37.6428 15.5109C38.1 18.4824 38.0588 21.5094 37.521 24.4673L37.3453 25.4336C37.1894 26.2907 36.9615 27.1331 36.6637 27.9518L36.4549 28.5261C35.3025 31.6952 33.0332 34.3348 30.0729 35.9495V35.9495C28.6646 36.7176 27.1336 37.2352 25.5482 37.4791L23.7155 37.7611C21.253 38.1399 18.747 38.1399 16.2845 37.7611L14.4518 37.4791C12.8664 37.2352 11.3354 36.7176 9.92713 35.9495V35.9495C6.96679 34.3348 4.69748 31.6952 3.54509 28.5261L3.33626 27.9518C3.03855 27.1331 2.81056 26.2907 2.65472 25.4336L2.47903 24.4673C1.94122 21.5094 1.90004 18.4824 2.3572 15.5109L2.69953 13.2858C2.82547 12.4672 3.03144 11.6629 3.31448 10.8845V10.8845Z" fill="#0099FF"/>
<path d="M15.2682 3.15234C18.4043 2.66988 21.5961 2.66988 24.7321 3.15234L26.5993 3.44043C27.177 3.52931 27.7474 3.66055 28.3053 3.83301L28.8581 4.01855C32.0654 5.18484 34.6134 7.66888 35.8639 10.833L35.9811 11.1406C36.1809 11.6899 36.3397 12.2531 36.4567 12.8252L36.5592 13.3994L36.901 15.625C37.3455 18.5141 37.3058 21.457 36.7829 24.333L36.6071 25.2998C36.4588 26.1152 36.2419 26.9165 35.9587 27.6953L35.7497 28.2695C34.6597 31.2669 32.5135 33.7637 29.7135 35.291C28.3816 36.0175 26.9338 36.5076 25.4342 36.7383L23.6012 37.0195C21.2144 37.3867 18.785 37.3867 16.3981 37.0195L14.5661 36.7383C13.2539 36.5364 11.9807 36.1363 10.7907 35.5527L10.2858 35.291C7.66109 33.8592 5.61061 31.5756 4.46648 28.8262L4.24968 28.2695L4.0407 27.6953C3.75751 26.9165 3.54051 26.1151 3.39226 25.2998L3.21648 24.333C2.69361 21.4571 2.65385 18.5141 3.09831 15.625L3.44109 13.3994C3.52995 12.8219 3.66129 12.2521 3.83366 11.6943L4.01921 11.1406C5.22306 7.83017 7.83083 5.22241 11.1413 4.01855C11.8734 3.75233 12.6301 3.55891 13.4001 3.44043L15.2682 3.15234Z" stroke="url(#paint1_linear_14574_78385)" stroke-width="1.5" style="mix-blend-mode:overlay"/>
</g>
<g filter="url(#filter1_ddii_14574_78385)">
<path d="M29.3185 18.1586H22.6199C20.9648 18.1586 19.6231 19.4344 19.6231 21.009V21.9189H11.639C10.8876 21.9189 10.2778 21.3395 10.2778 20.626V18.0402C10.2778 17.3255 10.8876 16.7461 11.639 16.7461H27.9585C28.7099 16.7461 29.3185 17.3255 29.3185 18.039V18.1598V18.1586ZM19.6219 23.2118V28.3833H11.639C10.8876 28.3833 10.2778 27.8052 10.2778 27.0904V24.5046C10.2778 23.7899 10.8876 23.2118 11.639 23.2118H19.6219ZM11.639 10.2793H27.9585C28.7099 10.2793 29.3185 10.8587 29.3185 11.5722V14.1579C29.3185 14.8727 28.7086 15.4508 27.9573 15.4508H11.639C10.8876 15.4508 10.2778 14.8727 10.2778 14.1592V11.5734C10.2778 10.8587 10.8876 10.2805 11.639 10.2805V10.2793ZM11.639 11.5722V14.1579H14.3589V11.5722H11.639ZM11.639 18.0378V20.6236H14.3589V18.0378H11.639ZM11.639 24.5046V27.0904H14.3589V24.5046H11.639ZM29.7125 20.9285H29.721V21.27C29.2941 22.2116 27.4719 22.9166 25.2898 22.9166C23.1139 22.9166 21.2953 22.2141 20.8623 21.2785V21.1078C20.8582 21.0726 20.8562 21.0371 20.8562 21.0017C20.8562 19.8942 22.8395 18.9965 25.2862 18.9965C27.678 18.9965 29.6283 19.8552 29.7125 20.9285ZM25.2898 23.7923C27.4731 23.7923 29.2941 23.0849 29.7222 22.1457V23.4655C29.2978 24.4071 27.4743 25.1157 25.2874 25.1157C23.1163 25.1157 21.3014 24.4168 20.8623 23.4838V22.1543C21.2953 23.0886 23.1139 23.7923 25.2898 23.7923ZM25.2886 25.9902C27.4731 25.9902 29.2978 25.2816 29.7222 24.34V25.5475C29.2965 26.4867 27.4755 27.1941 25.2923 27.1941C23.1139 27.1941 21.2941 26.4915 20.8648 25.5536V24.3583C21.3039 25.2914 23.1175 25.9902 25.2886 25.9902ZM25.2898 28.0686C27.4731 28.0686 29.2953 27.3612 29.7222 26.422V27.6588H29.7161C29.7088 28.798 27.728 29.7237 25.2862 29.7237C22.8395 29.7237 20.8562 28.7968 20.8562 27.6527C20.8562 27.6161 20.8587 27.5783 20.8623 27.5405V26.4269C21.2929 27.3648 23.1127 28.0686 25.2898 28.0686Z" fill="white"/>
</g>
</g>
</g>
<defs>
<filter id="filter0_di_14574_78385" x="0.0424957" y="1.04102" width="39.915" height="40.0039" filterUnits="userSpaceOnUse" color-interpolation-filters="sRGB">
<feFlood flood-opacity="0" result="BackgroundImageFix"/>
<feColorMatrix in="SourceAlpha" type="matrix" values="0 0 0 0 0 0 0 0 0 0 0 0 0 0 0 0 0 0 127 0" result="hardAlpha"/>
<feOffset dy="1"/>
<feGaussianBlur stdDeviation="1"/>
<feComposite in2="hardAlpha" operator="out"/>
<feColorMatrix type="matrix" values="0 0 0 0 0.0666667 0 0 0 0 0.0980392 0 0 0 0 0.117647 0 0 0 0.05 0"/>
<feBlend mode="normal" in2="BackgroundImageFix" result="effect1_dropShadow_14574_78385"/>
<feBlend mode="normal" in="SourceGraphic" in2="effect1_dropShadow_14574_78385" result="shape"/>
<feColorMatrix in="SourceAlpha" type="matrix" values="0 0 0 0 0 0 0 0 0 0 0 0 0 0 0 0 0 0 127 0" result="hardAlpha"/>
<feOffset dx="1.6" dy="1.6"/>
<feGaussianBlur stdDeviation="1.6"/>
<feComposite in2="hardAlpha" operator="arithmetic" k2="-1" k3="1"/>
<feColorMatrix type="matrix" values="0 0 0 0 0.0666667 0 0 0 0 0.0980392 0 0 0 0 0.117647 0 0 0 0.1 0"/>
<feBlend mode="normal" in2="shape" result="effect2_innerShadow_14574_78385"/>
</filter>
<filter id="filter1_ddii_14574_78385" x="-2.80953" y="-2.80887" width="46.4762" height="46.4768" filterUnits="userSpaceOnUse" color-interpolation-filters="sRGB">
<feFlood flood-opacity="0" result="BackgroundImageFix"/>
<feColorMatrix in="SourceAlpha" type="matrix" values="0 0 0 0 0 0 0 0 0 0 0 0 0 0 0 0 0 0 127 0" result="hardAlpha"/>
<feOffset dx="2.57143" dy="2.57143"/>
<feGaussianBlur stdDeviation="4.71429"/>
<feComposite in2="hardAlpha" operator="out"/>
<feColorMatrix type="matrix" values="0 0 0 0 0.321569 0 0 0 0 0.435294 0 0 0 0 1 0 0 0 1 0"/>
<feBlend mode="normal" in2="BackgroundImageFix" result="effect1_dropShadow_14574_78385"/>
<feColorMatrix in="SourceAlpha" type="matrix" values="0 0 0 0 0 0 0 0 0 0 0 0 0 0 0 0 0 0 127 0" result="hardAlpha"/>
<feOffset dx="-2.57143" dy="-2.57143"/>
<feGaussianBlur stdDeviation="4.28571"/>
<feComposite in2="hardAlpha" operator="out"/>
<feColorMatrix type="matrix" values="0 0 0 0 1 0 0 0 0 1 0 0 0 0 1 0 0 0 0.4 0"/>
<feBlend mode="normal" in2="effect1_dropShadow_14574_78385" result="effect2_dropShadow_14574_78385"/>
<feBlend mode="normal" in="SourceGraphic" in2="effect2_dropShadow_14574_78385" result="shape"/>
<feColorMatrix in="SourceAlpha" type="matrix" values="0 0 0 0 0 0 0 0 0 0 0 0 0 0 0 0 0 0 127 0" result="hardAlpha"/>
<feOffset dy="-1.28571"/>
<feGaussianBlur stdDeviation="0.985714"/>
<feComposite in2="hardAlpha" operator="arithmetic" k2="-1" k3="1"/>
<feColorMatrix type="matrix" values="0 0 0 0 0 0 0 0 0 0.598039 0 0 0 0 1 0 0 0 0.4 0"/>
<feBlend mode="normal" in2="shape" result="effect3_innerShadow_14574_78385"/>
<feColorMatrix in="SourceAlpha" type="matrix" values="0 0 0 0 0 0 0 0 0 0 0 0 0 0 0 0 0 0 127 0" result="hardAlpha"/>
<feOffset dy="-0.428571"/>
<feGaussianBlur stdDeviation="0.557143"/>
<feComposite in2="hardAlpha" operator="arithmetic" k2="-1" k3="1"/>
<feColorMatrix type="matrix" values="0 0 0 0 1 0 0 0 0 1 0 0 0 0 1 0 0 0 0.6 0"/>
<feBlend mode="normal" in2="effect3_innerShadow_14574_78385" result="effect4_innerShadow_14574_78385"/>
</filter>
<linearGradient id="paint0_linear_14574_78385" x1="6.8" y1="10.8" x2="36.8" y2="47.6" gradientUnits="userSpaceOnUse">
<stop stop-color="#11191E" stop-opacity="0.4"/>
<stop offset="1" stop-color="white"/>
</linearGradient>
<linearGradient id="paint1_linear_14574_78385" x1="7.9" y1="11.566" x2="35.4" y2="45.2993" gradientUnits="userSpaceOnUse">
<stop stop-color="#11191E" stop-opacity="0.4"/>
<stop offset="1" stop-color="white"/>
</linearGradient>
<clipPath id="clip0_14574_78385">
<rect width="40" height="40" fill="white"/>
</clipPath>
</defs>
</svg>
