<svg width="40" height="40" viewBox="0 0 40 40" fill="none" xmlns="http://www.w3.org/2000/svg">
<g clip-path="url(#clip0_14442_63459)">
<mask id="mask0_14442_63459" style="mask-type:alpha" maskUnits="userSpaceOnUse" x="0" y="0" width="40" height="40">
<path d="M20 0.799805C26.7982 0.799805 31.5477 2.32891 34.6094 5.39062C37.6711 8.45234 39.2002 13.2018 39.2002 20C39.2002 26.7982 37.6711 31.5477 34.6094 34.6094C31.5477 37.6711 26.7982 39.2002 20 39.2002C13.2018 39.2002 8.45234 37.6711 5.39062 34.6094C2.32891 31.5477 0.799805 26.7982 0.799805 20C0.799805 13.2018 2.32891 8.45234 5.39062 5.39062C8.45234 2.32891 13.2018 0.799805 20 0.799805Z" fill="#0099FF"/>
<path d="M20 0.799805C26.7982 0.799805 31.5477 2.32891 34.6094 5.39062C37.6711 8.45234 39.2002 13.2018 39.2002 20C39.2002 26.7982 37.6711 31.5477 34.6094 34.6094C31.5477 37.6711 26.7982 39.2002 20 39.2002C13.2018 39.2002 8.45234 37.6711 5.39062 34.6094C2.32891 31.5477 0.799805 26.7982 0.799805 20C0.799805 13.2018 2.32891 8.45234 5.39062 5.39062C8.45234 2.32891 13.2018 0.799805 20 0.799805Z" stroke="url(#paint0_linear_14442_63459)" stroke-width="1.6"/>
</mask>
<g mask="url(#mask0_14442_63459)">
<g filter="url(#filter0_di_14442_63459)">
<path d="M3.31456 10.8855C4.59422 7.36644 7.3662 4.59447 10.8853 3.3148V3.3148C11.6636 3.03176 12.4679 2.82579 13.2865 2.69985L15.1543 2.4125C18.3659 1.9184 21.6342 1.9184 24.8459 2.4125L26.7137 2.69985C27.5323 2.82579 28.3365 3.03176 29.1149 3.3148V3.3148C32.634 4.59447 35.4059 7.36644 36.6856 10.8855V10.8855C36.9686 11.6639 37.1746 12.4681 37.3006 13.2867L37.6429 15.5119C38.1 18.4834 38.0589 21.5103 37.521 24.4683L37.3454 25.4346C37.1895 26.2917 36.9615 27.1341 36.6638 27.9528L36.455 28.5271C35.3026 31.6962 33.0333 34.3357 30.0729 35.9505V35.9505C28.6647 36.7186 27.1337 37.2362 25.5483 37.4801L23.7156 37.762C21.2531 38.1409 18.7471 38.1409 16.2846 37.762L14.4519 37.4801C12.8665 37.2362 11.3354 36.7186 9.92721 35.9505V35.9505C6.96686 34.3357 4.69755 31.6962 3.54516 28.5271L3.33633 27.9528C3.03862 27.1341 2.81063 26.2917 2.6548 25.4346L2.47911 24.4683C1.9413 21.5103 1.90012 18.4834 2.35728 15.5119L2.69961 13.2867C2.82555 12.4681 3.03152 11.6639 3.31456 10.8855V10.8855Z" fill="#0099FF"/>
<path d="M15.2683 3.15332C18.4044 2.67086 21.5961 2.67085 24.7322 3.15332L26.5994 3.44141C27.1771 3.53029 27.7474 3.66152 28.3054 3.83398L28.8582 4.01953C32.0654 5.18582 34.6135 7.66986 35.864 10.834L35.9812 11.1416C36.1809 11.6909 36.3398 12.254 36.4568 12.8262L36.5593 13.4004L36.9011 15.626C37.3456 18.5151 37.3058 21.458 36.783 24.334L36.6072 25.3008C36.4589 26.1161 36.2419 26.9175 35.9587 27.6963L35.7498 28.2705C34.6598 31.2679 32.5136 33.7647 29.7136 35.292C28.3817 36.0185 26.9338 36.5086 25.4343 36.7393L23.6013 37.0205C21.2144 37.3877 18.7851 37.3877 16.3982 37.0205L14.5662 36.7393C13.254 36.5374 11.9808 36.1373 10.7908 35.5537L10.2859 35.292C7.66116 33.8602 5.61069 31.5766 4.46655 28.8271L4.24976 28.2705L4.04077 27.6963C3.75759 26.9175 3.54059 26.1161 3.39233 25.3008L3.21655 24.334C2.69369 21.4581 2.65392 18.515 3.09839 15.626L3.44116 13.4004C3.53003 12.8229 3.66137 12.2531 3.83374 11.6953L4.01929 11.1416C5.22314 7.83115 7.8309 5.22338 11.1414 4.01953C11.8735 3.75331 12.6302 3.55989 13.4001 3.44141L15.2683 3.15332Z" stroke="url(#paint1_linear_14442_63459)" stroke-width="1.5" style="mix-blend-mode:overlay"/>
</g>
<g filter="url(#filter1_ddii_14442_63459)">
<path d="M29.722 13.9623C29.722 14.341 29.54 14.6913 29.1711 15.0132C28.8071 15.3398 28.3054 15.6191 27.6659 15.8605C27.0265 16.1019 26.2788 16.2912 25.4278 16.4285C24.5818 16.5611 23.6619 16.6321 22.6782 16.6321C21.6993 16.6321 20.7795 16.5611 19.9186 16.4285C19.0628 16.2912 18.3151 16.1019 17.6756 15.8605C17.0362 15.6191 16.5246 15.3398 16.1508 15.0132C15.7769 14.6913 15.59 14.341 15.59 13.9623C15.59 13.5884 15.772 13.2334 16.1409 12.9115C16.5049 12.5896 17.0116 12.3009 17.651 12.05C18.2905 11.8038 19.0382 11.6098 19.8941 11.463C20.7549 11.321 21.6747 11.25 22.6585 11.25C23.6423 11.25 24.5621 11.321 25.418 11.463C26.2739 11.6098 27.0265 11.8038 27.6659 12.05C28.3054 12.3009 28.8071 12.5896 29.1711 12.9115C29.54 13.2334 29.722 13.5884 29.722 13.9623ZM22.6782 12.8547C22.0879 12.8547 21.5911 12.9541 21.1828 13.1482C20.7795 13.347 20.5729 13.5789 20.5729 13.8487C20.5729 14.1233 20.7795 14.3505 21.1828 14.5398C21.5911 14.7292 22.0879 14.8238 22.6782 14.8238C23.2586 14.8238 23.7554 14.7292 24.1686 14.5398C24.5818 14.3505 24.7884 14.1233 24.7884 13.8487C24.7884 13.5789 24.5818 13.347 24.1686 13.1482C23.7554 12.9541 23.2586 12.8547 22.6782 12.8547ZM15.6146 15.7706C16.0524 16.1019 16.6033 16.4049 17.2772 16.6747C17.8527 16.9019 18.5807 17.1102 19.4612 17.2995C20.3466 17.4888 21.4091 17.5788 22.6585 17.5788C23.9226 17.5788 24.995 17.4888 25.8853 17.2995C26.7756 17.1102 27.5085 16.9019 28.084 16.6747C28.7382 16.4049 29.2842 16.1019 29.722 15.7706V26.3075C29.722 26.5205 29.5941 26.7666 29.3384 27.0459C29.0777 27.3252 28.6792 27.5903 28.1332 27.8459C27.5872 28.1015 26.8887 28.3192 26.0378 28.4897C25.1868 28.6648 24.1686 28.75 22.9831 28.75C21.7829 28.75 20.7253 28.6743 19.8006 28.5275C18.8808 28.376 18.1085 28.182 17.4838 27.95C16.864 27.7133 16.3918 27.453 16.0721 27.1595C15.7523 26.8613 15.59 26.582 15.59 26.3075V20.613C15.59 19.1503 15.5998 17.5362 15.6146 15.7706ZM14.4685 15.9978H10.2776L12.1025 21.1526L10.2776 26.3075H14.4685V15.9978Z" fill="white"/>
</g>
</g>
</g>
<defs>
<filter id="filter0_di_14442_63459" x="0.0424805" y="1.04199" width="39.915" height="40.0039" filterUnits="userSpaceOnUse" color-interpolation-filters="sRGB">
<feFlood flood-opacity="0" result="BackgroundImageFix"/>
<feColorMatrix in="SourceAlpha" type="matrix" values="0 0 0 0 0 0 0 0 0 0 0 0 0 0 0 0 0 0 127 0" result="hardAlpha"/>
<feOffset dy="1"/>
<feGaussianBlur stdDeviation="1"/>
<feComposite in2="hardAlpha" operator="out"/>
<feColorMatrix type="matrix" values="0 0 0 0 0.0666667 0 0 0 0 0.0980392 0 0 0 0 0.117647 0 0 0 0.05 0"/>
<feBlend mode="normal" in2="BackgroundImageFix" result="effect1_dropShadow_14442_63459"/>
<feBlend mode="normal" in="SourceGraphic" in2="effect1_dropShadow_14442_63459" result="shape"/>
<feColorMatrix in="SourceAlpha" type="matrix" values="0 0 0 0 0 0 0 0 0 0 0 0 0 0 0 0 0 0 127 0" result="hardAlpha"/>
<feOffset dx="1.6" dy="1.6"/>
<feGaussianBlur stdDeviation="1.6"/>
<feComposite in2="hardAlpha" operator="arithmetic" k2="-1" k3="1"/>
<feColorMatrix type="matrix" values="0 0 0 0 0.0666667 0 0 0 0 0.0980392 0 0 0 0 0.117647 0 0 0 0.1 0"/>
<feBlend mode="normal" in2="shape" result="effect2_innerShadow_14442_63459"/>
</filter>
<filter id="filter1_ddii_14442_63459" x="-2.8096" y="-2.80985" width="46.4761" height="46.4759" filterUnits="userSpaceOnUse" color-interpolation-filters="sRGB">
<feFlood flood-opacity="0" result="BackgroundImageFix"/>
<feColorMatrix in="SourceAlpha" type="matrix" values="0 0 0 0 0 0 0 0 0 0 0 0 0 0 0 0 0 0 127 0" result="hardAlpha"/>
<feOffset dx="2.57143" dy="2.57143"/>
<feGaussianBlur stdDeviation="4.71429"/>
<feComposite in2="hardAlpha" operator="out"/>
<feColorMatrix type="matrix" values="0 0 0 0 0.321569 0 0 0 0 0.435294 0 0 0 0 1 0 0 0 1 0"/>
<feBlend mode="normal" in2="BackgroundImageFix" result="effect1_dropShadow_14442_63459"/>
<feColorMatrix in="SourceAlpha" type="matrix" values="0 0 0 0 0 0 0 0 0 0 0 0 0 0 0 0 0 0 127 0" result="hardAlpha"/>
<feOffset dx="-2.57143" dy="-2.57143"/>
<feGaussianBlur stdDeviation="4.28571"/>
<feComposite in2="hardAlpha" operator="out"/>
<feColorMatrix type="matrix" values="0 0 0 0 1 0 0 0 0 1 0 0 0 0 1 0 0 0 0.4 0"/>
<feBlend mode="normal" in2="effect1_dropShadow_14442_63459" result="effect2_dropShadow_14442_63459"/>
<feBlend mode="normal" in="SourceGraphic" in2="effect2_dropShadow_14442_63459" result="shape"/>
<feColorMatrix in="SourceAlpha" type="matrix" values="0 0 0 0 0 0 0 0 0 0 0 0 0 0 0 0 0 0 127 0" result="hardAlpha"/>
<feOffset dy="-1.28571"/>
<feGaussianBlur stdDeviation="0.985714"/>
<feComposite in2="hardAlpha" operator="arithmetic" k2="-1" k3="1"/>
<feColorMatrix type="matrix" values="0 0 0 0 0 0 0 0 0 0.598039 0 0 0 0 1 0 0 0 0.4 0"/>
<feBlend mode="normal" in2="shape" result="effect3_innerShadow_14442_63459"/>
<feColorMatrix in="SourceAlpha" type="matrix" values="0 0 0 0 0 0 0 0 0 0 0 0 0 0 0 0 0 0 127 0" result="hardAlpha"/>
<feOffset dy="-0.428571"/>
<feGaussianBlur stdDeviation="0.557143"/>
<feComposite in2="hardAlpha" operator="arithmetic" k2="-1" k3="1"/>
<feColorMatrix type="matrix" values="0 0 0 0 1 0 0 0 0 1 0 0 0 0 1 0 0 0 0.6 0"/>
<feBlend mode="normal" in2="effect3_innerShadow_14442_63459" result="effect4_innerShadow_14442_63459"/>
</filter>
<linearGradient id="paint0_linear_14442_63459" x1="6.8" y1="10.8" x2="36.8" y2="47.6" gradientUnits="userSpaceOnUse">
<stop stop-color="#11191E" stop-opacity="0.4"/>
<stop offset="1" stop-color="white"/>
</linearGradient>
<linearGradient id="paint1_linear_14442_63459" x1="7.90008" y1="11.567" x2="35.4001" y2="45.3003" gradientUnits="userSpaceOnUse">
<stop stop-color="#11191E" stop-opacity="0.4"/>
<stop offset="1" stop-color="white"/>
</linearGradient>
<clipPath id="clip0_14442_63459">
<rect width="40" height="40" fill="white"/>
</clipPath>
</defs>
</svg>
