<svg width="24" height="24" viewBox="0 0 24 24" xmlns="http://www.w3.org/2000/svg">
<mask id="mask0_16345_143192" style="mask-type:alpha" maskUnits="userSpaceOnUse" x="0" y="0" width="24" height="24">
<path d="M12 0.533203C16.0721 0.533203 18.9047 1.44965 20.7275 3.27246C22.5504 5.09527 23.4668 7.92787 23.4668 12C23.4668 16.0721 22.5504 18.9047 20.7275 20.7275C18.9047 22.5504 16.0721 23.4668 12 23.4668C7.92787 23.4668 5.09527 22.5504 3.27246 20.7275C1.44965 18.9047 0.533203 16.0721 0.533203 12C0.533203 7.92787 1.44965 5.09527 3.27246 3.27246C5.09527 1.44965 7.92787 0.533203 12 0.533203Z" fill="#0099FF"/>
<path d="M12 0.533203C16.0721 0.533203 18.9047 1.44965 20.7275 3.27246C22.5504 5.09527 23.4668 7.92787 23.4668 12C23.4668 16.0721 22.5504 18.9047 20.7275 20.7275C18.9047 22.5504 16.0721 23.4668 12 23.4668C7.92787 23.4668 5.09527 22.5504 3.27246 20.7275C1.44965 18.9047 0.533203 16.0721 0.533203 12C0.533203 7.92787 1.44965 5.09527 3.27246 3.27246C5.09527 1.44965 7.92787 0.533203 12 0.533203Z" stroke="url(#paint0_linear_16345_143192)" stroke-width="1.06667"/>
</mask>
<g mask="url(#mask0_16345_143192)">
<g filter="url(#filter0_i_16345_143192)">
<path d="M1.98869 6.53111C2.75648 4.41967 4.41967 2.75648 6.53111 1.98869V1.98869C6.99813 1.81886 7.48069 1.69528 7.97185 1.61972L9.09252 1.44731C11.0195 1.15085 12.9805 1.15085 14.9075 1.44731L16.0281 1.61972C16.5193 1.69528 17.0019 1.81886 17.4689 1.98869V1.98869C19.5803 2.75648 21.2435 4.41967 22.0113 6.53111V6.53111C22.1811 6.99813 22.3047 7.48069 22.3803 7.97185L22.5857 9.30694C22.86 11.0899 22.8353 12.906 22.5126 14.6808L22.4072 15.2606C22.3137 15.7748 22.1769 16.2803 21.9982 16.7715L21.873 17.1161C21.1815 19.0175 19.8199 20.6012 18.0437 21.5701V21.5701C17.1988 22.031 16.2802 22.3415 15.3289 22.4879L14.2293 22.657C12.7518 22.8843 11.2482 22.8843 9.7707 22.657L8.6711 22.4879C7.71982 22.3415 6.80122 22.031 5.95628 21.5701V21.5701C4.18007 20.6012 2.81848 19.0175 2.12705 17.1161L2.00175 16.7715C1.82313 16.2803 1.68633 15.7748 1.59283 15.2606L1.48742 14.6808C1.16473 12.906 1.14002 11.0898 1.41432 9.30694L1.61972 7.97185C1.69528 7.48069 1.81886 6.99813 1.98869 6.53111V6.53111Z" />
</g>
<path d="M9.16895 1.94141C11.0453 1.65278 12.9547 1.65278 14.8311 1.94141L15.9521 2.11426C16.4109 2.18485 16.8616 2.30035 17.2979 2.45898C19.2703 3.17624 20.8238 4.7297 21.541 6.70215C21.6996 7.13839 21.8152 7.58906 21.8857 8.04785L22.0918 9.38281C22.3576 11.1108 22.3333 12.8717 22.0205 14.5918L21.915 15.1709C21.8266 15.6574 21.6973 16.1358 21.5283 16.6006L21.4033 16.9453C20.7536 18.7322 19.4738 20.2203 17.8047 21.1309C17.0106 21.564 16.1469 21.8566 15.2529 21.9941L14.1533 22.1631C12.7262 22.3826 11.2738 22.3826 9.84668 22.1631L8.74707 21.9941C7.85305 21.8566 6.9894 21.564 6.19531 21.1309C4.52622 20.2203 3.24645 18.7322 2.59668 16.9453L2.47168 16.6006C2.30268 16.1358 2.17342 15.6574 2.08496 15.1709L1.97949 14.5918C1.66674 12.8717 1.64236 11.1108 1.9082 9.38281L2.11426 8.04785C2.18485 7.58906 2.30035 7.13839 2.45898 6.70215C3.17624 4.7297 4.7297 3.17624 6.70215 2.45898C7.13839 2.30035 7.58906 2.18485 8.04785 2.11426L9.16895 1.94141Z" stroke="url(#paint1_linear_16345_143192)" style="mix-blend-mode:overlay"/>
<g filter="url(#filter1_ddii_16345_143192)">
<path d="M15.9324 7.60059C16.3813 7.60059 16.6667 7.99287 16.6667 8.38477V16.9199C16.6663 17.3557 16.2175 17.8327 15.8103 17.833H8.18921C7.69926 17.8326 7.3341 17.312 7.33374 16.9199V8.43066C7.33382 7.95071 7.5776 7.6025 8.10718 7.64648H8.30933C8.47279 7.64653 8.63647 7.77714 8.63647 7.99512V9.51953C8.63672 9.69361 8.76139 9.86714 8.96362 9.86719L15.0359 9.82324C15.1994 9.82321 15.363 9.6926 15.363 9.47461V7.95117C15.3634 7.73327 15.5269 7.60291 15.7292 7.60059H15.9324ZM13.2673 11.417C13.1696 11.417 13.0721 11.4341 12.9802 11.4678C12.8882 11.5015 12.8019 11.5516 12.7283 11.6172C12.6547 11.6827 12.5948 11.7627 12.5535 11.8535C12.5131 11.9425 12.4917 12.0393 12.4929 12.1377V12.9053L11.3191 11.6846L11.3152 11.6816L11.3123 11.6777L11.283 11.6553C11.1438 11.5228 10.9511 11.4356 10.7322 11.4355C10.5389 11.4357 10.3461 11.5025 10.199 11.6309C10.0507 11.7604 9.95874 11.9458 9.95874 12.1484V14.8037C9.96369 15.0034 10.0582 15.1835 10.2058 15.3096C10.3523 15.4347 10.5415 15.4999 10.7322 15.5C10.923 15.5 11.1129 15.4347 11.2595 15.3096C11.4071 15.1835 11.5016 15.0033 11.5066 14.8037V14.0312L12.6873 15.2588C12.7053 15.2776 12.7226 15.2911 12.7351 15.2998C12.7403 15.3034 12.7457 15.3061 12.7498 15.3086C12.7913 15.3412 12.8312 15.3659 12.8396 15.3711L12.8416 15.373C12.8559 15.3818 12.8428 15.3736 12.8728 15.3926C12.8901 15.4035 12.9181 15.421 12.9539 15.4355C12.9899 15.4503 13.0229 15.4586 13.0427 15.4629C13.0766 15.4703 13.0642 15.4658 13.0808 15.4697L13.0828 15.4707C13.0966 15.4738 13.143 15.4842 13.196 15.4902L13.2087 15.4932C13.2229 15.4958 13.2434 15.499 13.2673 15.499C13.3144 15.499 13.3528 15.4899 13.3679 15.4863C13.3715 15.4855 13.3762 15.4847 13.3777 15.4844L13.3796 15.4834C13.4092 15.4801 13.463 15.4732 13.5173 15.4561C13.5723 15.4387 13.621 15.4131 13.6472 15.3984L13.6492 15.3975C13.6507 15.3968 13.6547 15.3958 13.658 15.3945C13.6713 15.3892 13.7106 15.3732 13.7507 15.3438C13.7721 15.328 13.7877 15.3111 13.7986 15.2988C13.8419 15.2586 13.8744 15.2166 13.8806 15.209L13.8816 15.207C13.882 15.2066 13.884 15.2041 13.8875 15.2002C13.8905 15.1967 13.8978 15.1892 13.9041 15.1816C13.9169 15.1662 13.9388 15.1371 13.9587 15.0996C13.9784 15.0627 13.99 15.0291 13.9958 15.0088C13.9986 14.9991 14.0014 14.9894 14.0027 14.9844C14.004 14.9793 14.0053 14.9755 14.0056 14.9746C14.0076 14.9681 14.0247 14.916 14.033 14.8564C14.0371 14.8387 14.0417 14.8145 14.0417 14.7861L14.0408 12.1377C14.042 12.0393 14.0216 11.9425 13.9812 11.8535C13.9399 11.7626 13.8791 11.6828 13.8054 11.6172C13.7318 11.5517 13.6463 11.5015 13.5544 11.4678C13.4626 11.4341 13.3651 11.417 13.2673 11.417ZM11.2488 11.6299C11.2488 11.6299 11.2509 11.6317 11.2527 11.6328C11.2502 11.6313 11.247 11.63 11.2468 11.6299H11.2488ZM12.9568 6.16699C13.1284 6.16718 13.2939 6.23538 13.4158 6.35742C13.5375 6.4794 13.6064 6.64516 13.6082 6.81836C13.6082 6.99222 13.7326 7.16592 13.9353 7.16602H14.1384C14.3018 7.16627 14.4652 7.29687 14.4656 7.51465V8.55859C14.4653 8.73234 14.3411 8.90625 14.1384 8.90625H9.81812C9.65477 8.9062 9.49121 8.77628 9.49097 8.55859V7.51367C9.4912 7.33996 9.61552 7.16607 9.81812 7.16602H10.0623C10.2257 7.166 10.3894 7.03637 10.3894 6.81836C10.3912 6.64503 10.4609 6.47943 10.5828 6.35742C10.7047 6.23542 10.8701 6.16708 11.0417 6.16699H12.9568ZM12.0212 6.81836C11.6554 6.81863 11.3289 7.16645 11.3289 7.55859C11.329 7.95061 11.6552 8.29856 12.0212 8.29883C12.3875 8.29883 12.7145 8.03673 12.7146 7.55859C12.7146 7.1663 12.4287 6.81836 12.0212 6.81836Z" fill="white"/>
</g>
</g>
<defs>
<filter id="filter0_i_16345_143192" x="1.22559" y="1.22461" width="22.8822" height="22.9359" filterUnits="userSpaceOnUse" color-interpolation-filters="sRGB">
<feFlood flood-opacity="0" result="BackgroundImageFix"/>
<feBlend mode="normal" in="SourceGraphic" in2="BackgroundImageFix" result="shape"/>
<feColorMatrix in="SourceAlpha" type="matrix" values="0 0 0 0 0 0 0 0 0 0 0 0 0 0 0 0 0 0 127 0" result="hardAlpha"/>
<feOffset dx="1.33333" dy="1.33333"/>
<feGaussianBlur stdDeviation="1.33333"/>
<feComposite in2="hardAlpha" operator="arithmetic" k2="-1" k3="1"/>
<feColorMatrix type="matrix" values="0 0 0 0 0.0666667 0 0 0 0 0.0980392 0 0 0 0 0.117647 0 0 0 0.1 0"/>
<feBlend mode="normal" in2="shape" result="effect1_innerShadow_16345_143192"/>
</filter>
<filter id="filter1_ddii_16345_143192" x="-2.42857" y="-2.42857" width="29.4286" height="29.4286" filterUnits="userSpaceOnUse" color-interpolation-filters="sRGB">
<feFlood flood-opacity="0" result="BackgroundImageFix"/>
<feColorMatrix in="SourceAlpha" type="matrix" values="0 0 0 0 0 0 0 0 0 0 0 0 0 0 0 0 0 0 127 0" result="hardAlpha"/>
<feOffset dx="1.71429" dy="1.71429"/>
<feGaussianBlur stdDeviation="3.14286"/>
<feComposite in2="hardAlpha" operator="out"/>
<feColorMatrix type="matrix" values="0 0 0 0 0 0 0 0 0 0.670588 0 0 0 0 0.603922 0 0 0 1 0"/>
<feBlend mode="normal" in2="BackgroundImageFix" result="effect1_dropShadow_16345_143192"/>
<feColorMatrix in="SourceAlpha" type="matrix" values="0 0 0 0 0 0 0 0 0 0 0 0 0 0 0 0 0 0 127 0" result="hardAlpha"/>
<feOffset dx="-1.71429" dy="-1.71429"/>
<feGaussianBlur stdDeviation="2.85714"/>
<feComposite in2="hardAlpha" operator="out"/>
<feColorMatrix type="matrix" values="0 0 0 0 1 0 0 0 0 1 0 0 0 0 1 0 0 0 0.4 0"/>
<feBlend mode="normal" in2="effect1_dropShadow_16345_143192" result="effect2_dropShadow_16345_143192"/>
<feBlend mode="normal" in="SourceGraphic" in2="effect2_dropShadow_16345_143192" result="shape"/>
<feColorMatrix in="SourceAlpha" type="matrix" values="0 0 0 0 0 0 0 0 0 0 0 0 0 0 0 0 0 0 127 0" result="hardAlpha"/>
<feOffset dy="-0.857143"/>
<feGaussianBlur stdDeviation="0.657143"/>
<feComposite in2="hardAlpha" operator="arithmetic" k2="-1" k3="1"/>
<feColorMatrix type="matrix" values="0 0 0 0 0 0 0 0 0 0.729412 0 0 0 0 0.290196 0 0 0 0.4 0"/>
<feBlend mode="normal" in2="shape" result="effect3_innerShadow_16345_143192"/>
<feColorMatrix in="SourceAlpha" type="matrix" values="0 0 0 0 0 0 0 0 0 0 0 0 0 0 0 0 0 0 127 0" result="hardAlpha"/>
<feOffset dy="-0.285714"/>
<feGaussianBlur stdDeviation="0.371429"/>
<feComposite in2="hardAlpha" operator="arithmetic" k2="-1" k3="1"/>
<feColorMatrix type="matrix" values="0 0 0 0 1 0 0 0 0 1 0 0 0 0 1 0 0 0 0.6 0"/>
<feBlend mode="normal" in2="effect3_innerShadow_16345_143192" result="effect4_innerShadow_16345_143192"/>
</filter>
<linearGradient id="paint0_linear_16345_143192" x1="4.08" y1="6.48" x2="22.08" y2="28.56" gradientUnits="userSpaceOnUse">
<stop stop-color="#11191E" stop-opacity="0.4"/>
<stop offset="1" stop-color="white"/>
</linearGradient>
<linearGradient id="paint1_linear_16345_143192" x1="4.74" y1="6.94" x2="21.24" y2="27.18" gradientUnits="userSpaceOnUse">
<stop stop-color="#11191E" stop-opacity="0.4"/>
<stop offset="0.992881" stop-color="white"/>
</linearGradient>
</defs>
</svg>
