<svg width="40" height="40" viewBox="0 0 40 40" fill="none" xmlns="http://www.w3.org/2000/svg">
<g clip-path="url(#clip0_13626_66548)">
<mask id="mask0_13626_66548" style="mask-type:alpha" maskUnits="userSpaceOnUse" x="0" y="0" width="40" height="40">
<path d="M20 0.799805C26.7982 0.799805 31.5477 2.32891 34.6094 5.39062C37.6711 8.45234 39.2002 13.2018 39.2002 20C39.2002 26.7982 37.6711 31.5477 34.6094 34.6094C31.5477 37.6711 26.7982 39.2002 20 39.2002C13.2018 39.2002 8.45234 37.6711 5.39062 34.6094C2.32891 31.5477 0.799805 26.7982 0.799805 20C0.799805 13.2018 2.32891 8.45234 5.39062 5.39062C8.45234 2.32891 13.2018 0.799805 20 0.799805Z" fill="#0099FF"/>
<path d="M20 0.799805C26.7982 0.799805 31.5477 2.32891 34.6094 5.39062C37.6711 8.45234 39.2002 13.2018 39.2002 20C39.2002 26.7982 37.6711 31.5477 34.6094 34.6094C31.5477 37.6711 26.7982 39.2002 20 39.2002C13.2018 39.2002 8.45234 37.6711 5.39062 34.6094C2.32891 31.5477 0.799805 26.7982 0.799805 20C0.799805 13.2018 2.32891 8.45234 5.39062 5.39062C8.45234 2.32891 13.2018 0.799805 20 0.799805Z" stroke="url(#paint0_linear_13626_66548)" stroke-width="1.6"/>
</mask>
<g mask="url(#mask0_13626_66548)">
<g filter="url(#filter0_di_13626_66548)">
<path d="M3.31444 10.8855C4.5941 7.36644 7.36607 4.59447 10.8851 3.3148C11.6635 3.03176 12.4678 2.82579 13.2864 2.69985L15.1542 2.4125C18.3658 1.9184 21.6341 1.9184 24.8458 2.4125L26.7135 2.69985C27.5321 2.82579 28.3364 3.03176 29.1148 3.3148C32.6338 4.59447 35.4058 7.36644 36.6855 10.8855C36.9685 11.6639 37.1745 12.4681 37.3004 13.2867L37.6428 15.5119C38.0999 18.4834 38.0587 21.5103 37.5209 24.4683L37.3452 25.4346C37.1894 26.2917 36.9614 27.1341 36.6637 27.9528L36.4549 28.5271C35.3025 31.6962 33.0332 34.3357 30.0728 35.9505C28.6646 36.7186 27.1336 37.2362 25.5481 37.4801L23.7155 37.762C21.2529 38.1409 18.747 38.1409 16.2845 37.762L14.4518 37.4801C12.8663 37.2362 11.3353 36.7186 9.92709 35.9505C6.96674 34.3357 4.69743 31.6962 3.54504 28.5271L3.33621 27.9528C3.0385 27.1341 2.81051 26.2917 2.65468 25.4346L2.47899 24.4683C1.94117 21.5103 1.9 18.4834 2.35715 15.5119L2.69948 13.2867C2.82542 12.4681 3.03139 11.6639 3.31444 10.8855Z" fill="#0099FF"/>
<path d="M15.2682 3.15332C18.2083 2.70101 21.197 2.67354 24.1432 3.06934L24.7321 3.15332L26.5992 3.44141C27.177 3.53029 27.7473 3.66152 28.3053 3.83398L28.858 4.01953C32.0653 5.18581 34.6134 7.66986 35.8639 10.834L35.9811 11.1416C36.1808 11.6909 36.3397 12.254 36.4567 12.8262L36.5592 13.4004L36.901 15.626C37.3177 18.3345 37.3092 21.0903 36.8756 23.7939L36.7828 24.334L36.6071 25.3008C36.4958 25.9124 36.3463 26.5162 36.1588 27.1084L35.9586 27.6963L35.7496 28.2705C34.7278 31.0805 32.7779 33.4504 30.2311 34.9941L29.7135 35.292C28.548 35.9277 27.2938 36.3825 25.9938 36.6406L25.4342 36.7393L23.6012 37.0205C21.3634 37.3648 19.0887 37.3862 16.8463 37.085L16.3981 37.0205L14.566 36.7393C13.2539 36.5374 11.9807 36.1373 10.7906 35.5537L10.2858 35.292C7.66104 33.8602 5.61056 31.5766 4.46643 28.8271L4.24963 28.2705L4.04065 27.6963C3.82822 27.1121 3.65306 26.5151 3.51624 25.9092L3.39221 25.3008L3.21643 24.334C2.72622 21.6377 2.66115 18.8825 3.02112 16.168L3.09827 15.626L3.44104 13.4004C3.52991 12.8229 3.66125 12.2531 3.83362 11.6953L4.01917 11.1416C5.18546 7.93443 7.6696 5.38721 10.8336 4.13672L11.1412 4.01953C11.6905 3.81979 12.2537 3.66091 12.8258 3.54395L13.4 3.44141L15.2682 3.15332Z" stroke="url(#paint1_linear_13626_66548)" stroke-width="1.5" style="mix-blend-mode:overlay"/>
</g>
<g filter="url(#filter1_ddii_13626_66548)">
<path d="M28.5888 18.7702C29.2149 18.7702 29.7223 19.2836 29.7223 19.917V28.1862C29.7223 28.8196 29.2149 29.333 28.5888 29.333H21.3108C20.6848 29.333 20.1773 28.8196 20.1773 28.1862V19.917C20.1773 19.2836 20.6848 18.7702 21.3109 18.7702H28.5888ZM10.2778 23.855C11.6552 25.2599 14.7445 26.2382 18.336 26.2382C18.6227 26.2382 18.9061 26.232 19.1856 26.2198V28.8748C18.908 28.8872 18.6248 28.8936 18.336 28.8936C13.6354 28.8936 10.3442 27.1934 10.2788 25.6478L10.2778 25.601V23.8551V23.855ZM25.9938 24.9192H22.7128C22.3215 24.9192 22.0043 25.2403 22.0043 25.636C22.0043 26.0319 22.3215 26.3528 22.7128 26.3528H25.9938C26.385 26.3528 26.7022 26.0319 26.7022 25.636C26.7022 25.2402 26.385 24.9192 25.9938 24.9192ZM10.2778 20.1973C11.6552 21.6023 14.7445 22.5806 18.336 22.5806C18.6227 22.5806 18.9061 22.5744 19.1856 22.5622V25.216C18.908 25.2283 18.6248 25.2348 18.336 25.2348C13.6354 25.2348 10.3442 23.5346 10.2788 21.9901L10.2778 21.9433V20.1973ZM26.8887 21.5996H22.7128C22.3215 21.5996 22.0043 21.9205 22.0043 22.3164C22.0043 22.7121 22.3215 23.033 22.7128 23.033H26.8887C27.2798 23.033 27.597 22.7121 27.597 22.3164C27.597 21.9205 27.2798 21.5996 26.8887 21.5996ZM10.2778 16.5385C11.6552 17.942 14.7445 18.9218 18.336 18.9218C18.6445 18.9218 18.9493 18.9145 19.2495 18.9004C19.2069 19.0463 19.1854 19.1977 19.1855 19.3499V21.5571C18.908 21.5695 18.6247 21.5759 18.336 21.5759C13.6354 21.5759 10.3442 19.8756 10.2788 18.3312L10.2778 18.2845V16.5385ZM18.336 11.333C23.0854 11.333 26.3942 13.0677 26.3942 14.6257C26.3942 15.9094 24.1471 17.3133 20.6987 17.7676C20.6014 17.7703 20.5064 17.7821 20.4145 17.8023C19.7602 17.8775 19.0651 17.9182 18.336 17.9182C13.5879 17.9182 10.2778 16.1836 10.2778 14.6257C10.2778 13.0677 13.5879 11.333 18.336 11.333ZM26.3942 16.5385V17.7667H24.5219C25.3028 17.4165 25.9413 17.0005 26.3942 16.5385Z" fill="white"/>
</g>
</g>
</g>
<defs>
<filter id="filter0_di_13626_66548" x="0.0424805" y="1.04199" width="39.915" height="40.0039" filterUnits="userSpaceOnUse" color-interpolation-filters="sRGB">
<feFlood flood-opacity="0" result="BackgroundImageFix"/>
<feColorMatrix in="SourceAlpha" type="matrix" values="0 0 0 0 0 0 0 0 0 0 0 0 0 0 0 0 0 0 127 0" result="hardAlpha"/>
<feOffset dy="1"/>
<feGaussianBlur stdDeviation="1"/>
<feComposite in2="hardAlpha" operator="out"/>
<feColorMatrix type="matrix" values="0 0 0 0 0.0666667 0 0 0 0 0.0980392 0 0 0 0 0.117647 0 0 0 0.05 0"/>
<feBlend mode="normal" in2="BackgroundImageFix" result="effect1_dropShadow_13626_66548"/>
<feBlend mode="normal" in="SourceGraphic" in2="effect1_dropShadow_13626_66548" result="shape"/>
<feColorMatrix in="SourceAlpha" type="matrix" values="0 0 0 0 0 0 0 0 0 0 0 0 0 0 0 0 0 0 127 0" result="hardAlpha"/>
<feOffset dx="1.6" dy="1.6"/>
<feGaussianBlur stdDeviation="1.6"/>
<feComposite in2="hardAlpha" operator="arithmetic" k2="-1" k3="1"/>
<feColorMatrix type="matrix" values="0 0 0 0 0.0666667 0 0 0 0 0.0980392 0 0 0 0 0.117647 0 0 0 0.1 0"/>
<feBlend mode="normal" in2="shape" result="effect2_innerShadow_13626_66548"/>
</filter>
<filter id="filter1_ddii_13626_66548" x="-2.80948" y="-2.80985" width="46.4762" height="46.4759" filterUnits="userSpaceOnUse" color-interpolation-filters="sRGB">
<feFlood flood-opacity="0" result="BackgroundImageFix"/>
<feColorMatrix in="SourceAlpha" type="matrix" values="0 0 0 0 0 0 0 0 0 0 0 0 0 0 0 0 0 0 127 0" result="hardAlpha"/>
<feOffset dx="2.57143" dy="2.57143"/>
<feGaussianBlur stdDeviation="4.71429"/>
<feComposite in2="hardAlpha" operator="out"/>
<feColorMatrix type="matrix" values="0 0 0 0 0.321569 0 0 0 0 0.435294 0 0 0 0 1 0 0 0 1 0"/>
<feBlend mode="normal" in2="BackgroundImageFix" result="effect1_dropShadow_13626_66548"/>
<feColorMatrix in="SourceAlpha" type="matrix" values="0 0 0 0 0 0 0 0 0 0 0 0 0 0 0 0 0 0 127 0" result="hardAlpha"/>
<feOffset dx="-2.57143" dy="-2.57143"/>
<feGaussianBlur stdDeviation="4.28571"/>
<feComposite in2="hardAlpha" operator="out"/>
<feColorMatrix type="matrix" values="0 0 0 0 1 0 0 0 0 1 0 0 0 0 1 0 0 0 0.4 0"/>
<feBlend mode="normal" in2="effect1_dropShadow_13626_66548" result="effect2_dropShadow_13626_66548"/>
<feBlend mode="normal" in="SourceGraphic" in2="effect2_dropShadow_13626_66548" result="shape"/>
<feColorMatrix in="SourceAlpha" type="matrix" values="0 0 0 0 0 0 0 0 0 0 0 0 0 0 0 0 0 0 127 0" result="hardAlpha"/>
<feOffset dy="-1.28571"/>
<feGaussianBlur stdDeviation="0.985714"/>
<feComposite in2="hardAlpha" operator="arithmetic" k2="-1" k3="1"/>
<feColorMatrix type="matrix" values="0 0 0 0 0 0 0 0 0 0.598039 0 0 0 0 1 0 0 0 0.4 0"/>
<feBlend mode="normal" in2="shape" result="effect3_innerShadow_13626_66548"/>
<feColorMatrix in="SourceAlpha" type="matrix" values="0 0 0 0 0 0 0 0 0 0 0 0 0 0 0 0 0 0 127 0" result="hardAlpha"/>
<feOffset dy="-0.428571"/>
<feGaussianBlur stdDeviation="0.557143"/>
<feComposite in2="hardAlpha" operator="arithmetic" k2="-1" k3="1"/>
<feColorMatrix type="matrix" values="0 0 0 0 1 0 0 0 0 1 0 0 0 0 1 0 0 0 0.6 0"/>
<feBlend mode="normal" in2="effect3_innerShadow_13626_66548" result="effect4_innerShadow_13626_66548"/>
</filter>
<linearGradient id="paint0_linear_13626_66548" x1="6.8" y1="10.8" x2="36.8" y2="47.6" gradientUnits="userSpaceOnUse">
<stop stop-color="#11191E" stop-opacity="0.4"/>
<stop offset="1" stop-color="white"/>
</linearGradient>
<linearGradient id="paint1_linear_13626_66548" x1="7.89996" y1="11.567" x2="35.4" y2="45.3003" gradientUnits="userSpaceOnUse">
<stop stop-color="#11191E" stop-opacity="0.4"/>
<stop offset="1" stop-color="white"/>
</linearGradient>
<clipPath id="clip0_13626_66548">
<rect width="40" height="40" fill="white"/>
</clipPath>
</defs>
</svg>
