<svg width="40" height="40" viewBox="0 0 40 40" fill="none" xmlns="http://www.w3.org/2000/svg">
<g clip-path="url(#clip0_15879_132786)">
<mask id="mask0_15879_132786" style="mask-type:alpha" maskUnits="userSpaceOnUse" x="0" y="0" width="40" height="40">
<path d="M20 0.799805C26.7982 0.799805 31.5477 2.32891 34.6094 5.39062C37.6711 8.45234 39.2002 13.2018 39.2002 20C39.2002 26.7982 37.6711 31.5477 34.6094 34.6094C31.5477 37.6711 26.7982 39.2002 20 39.2002C13.2018 39.2002 8.45234 37.6711 5.39062 34.6094C2.32891 31.5477 0.799805 26.7982 0.799805 20C0.799805 13.2018 2.32891 8.45234 5.39062 5.39062C8.45234 2.32891 13.2018 0.799805 20 0.799805Z" fill="#0099FF"/>
<path d="M20 0.799805C26.7982 0.799805 31.5477 2.32891 34.6094 5.39062C37.6711 8.45234 39.2002 13.2018 39.2002 20C39.2002 26.7982 37.6711 31.5477 34.6094 34.6094C31.5477 37.6711 26.7982 39.2002 20 39.2002C13.2018 39.2002 8.45234 37.6711 5.39062 34.6094C2.32891 31.5477 0.799805 26.7982 0.799805 20C0.799805 13.2018 2.32891 8.45234 5.39062 5.39062C8.45234 2.32891 13.2018 0.799805 20 0.799805Z" stroke="url(#paint0_linear_15879_132786)" stroke-width="1.6"/>
</mask>
<g mask="url(#mask0_15879_132786)">
<g filter="url(#filter0_di_15879_132786)">
<path d="M3.3145 10.8855C4.59416 7.36644 7.36614 4.59447 10.8852 3.3148C11.6636 3.03176 12.4678 2.82579 13.2864 2.69985L15.1542 2.4125C18.3659 1.9184 21.6342 1.9184 24.8458 2.4125L26.7136 2.69985C27.5322 2.82579 28.3365 3.03176 29.1148 3.3148C32.6339 4.59447 35.4059 7.36644 36.6855 10.8855C36.9686 11.6639 37.1746 12.4681 37.3005 13.2867L37.6428 15.5119C38.1 18.4834 38.0588 21.5103 37.521 24.4683L37.3453 25.4346C37.1895 26.2917 36.9615 27.1341 36.6638 27.9528L36.4549 28.5271C35.3025 31.6962 33.0332 34.3357 30.0729 35.9505C28.6647 36.7186 27.1336 37.2362 25.5482 37.4801L23.7155 37.762C21.253 38.1409 18.747 38.1409 16.2845 37.762L14.4518 37.4801C12.8664 37.2362 11.3354 36.7186 9.92715 35.9505C6.9668 34.3357 4.69749 31.6962 3.5451 28.5271L3.33627 27.9528C3.03856 27.1341 2.81057 26.2917 2.65474 25.4346L2.47905 24.4683C1.94123 21.5103 1.90006 18.4834 2.35722 15.5119L2.69955 13.2867C2.82548 12.4681 3.03145 11.6639 3.3145 10.8855Z" fill="#0099FF"/>
<path d="M15.2682 3.15332C18.4043 2.67086 21.5961 2.67085 24.7321 3.15332L26.5993 3.44141C27.3693 3.55986 28.126 3.75334 28.8581 4.01953C32.1687 5.22337 34.7773 7.83104 35.9811 11.1416C36.2474 11.8737 36.4408 12.6304 36.5593 13.4004L36.9011 15.626C37.3455 18.5151 37.3058 21.458 36.7829 24.334L36.6071 25.3008C36.4588 26.1161 36.2419 26.9175 35.9587 27.6963L35.7497 28.2705C34.6597 31.2679 32.5136 33.7647 29.7136 35.292C28.3817 36.0185 26.9338 36.5086 25.4343 36.7393L23.6013 37.0205C21.2144 37.3877 18.785 37.3877 16.3981 37.0205L14.5661 36.7393C13.0665 36.5086 11.6178 36.0185 10.2858 35.292C7.48602 33.7647 5.33961 31.2678 4.24969 28.2705L4.04071 27.6963C3.75753 26.9175 3.54053 26.1161 3.39227 25.3008L3.21649 24.334C2.69363 21.4581 2.65386 18.515 3.09833 15.626L3.4411 13.4004C3.55958 12.6304 3.753 11.8737 4.01923 11.1416C5.22308 7.83115 7.83084 5.22338 11.1413 4.01953C11.8734 3.75331 12.6301 3.55989 13.4001 3.44141L15.2682 3.15332Z" stroke="url(#paint1_linear_15879_132786)" stroke-width="1.5" style="mix-blend-mode:overlay"/>
</g>
<g filter="url(#filter1_ddii_15879_132786)">
<path d="M24.6864 9.30566C25.1957 9.30583 25.6024 9.71331 25.6024 10.2217V12.5117C25.653 12.5623 25.756 12.6135 25.8075 12.665C27.0799 13.5809 28.0476 14.9545 28.6591 16.5322C29.8293 16.685 30.694 17.6511 30.6942 18.8213V20.959C30.694 22.1293 29.8795 23.0449 28.7596 23.249C28.1481 25.0301 27.0284 26.5568 25.5516 27.4727C24.0234 28.4905 22.2917 28.7947 19.8983 28.7451H19.6434C17.6066 28.6936 16.2305 28.4384 14.9579 27.7773C13.4812 26.9636 12.2591 25.59 11.495 23.9102L11.1893 23.1475C10.6453 22.9794 10.1688 22.6412 9.82996 22.1836C9.49121 21.726 9.30754 21.1719 9.30554 20.6025V19.127C9.30554 17.9059 10.1709 16.8375 11.2919 16.5312C11.9024 14.9039 12.8704 13.4783 14.245 12.5625L14.3983 12.4609V10.2734C14.3983 9.764 14.8068 9.35645 15.3153 9.35645C15.8245 9.35669 16.2313 9.76512 16.2313 10.2725V11.6973C16.6386 11.5447 17.0967 11.4422 17.5555 11.3916L17.8104 11.3418L18.0653 11.29C18.5232 11.2395 19.0325 11.1885 19.5419 11.1885H19.8475C21.2736 11.1885 22.546 11.3415 23.6659 11.6973V10.2725C23.768 9.71441 24.176 9.30566 24.6864 9.30566ZM19.9989 15.1768C18.1652 15.1768 16.634 15.3498 15.4852 15.5469C14.0441 15.7943 13.1161 17.0876 13.1161 18.5498V19.6211C13.1163 21.7141 14.9619 23.3262 17.036 23.0449L18.5477 22.8398C19.5107 22.7093 20.4871 22.7093 21.4501 22.8398L22.9618 23.0449C25.0359 23.3262 26.8825 21.7141 26.8827 19.6211V18.5498C26.8827 17.0876 25.9537 15.7942 24.5126 15.5469C23.3638 15.3498 21.8326 15.1768 19.9989 15.1768ZM22.1122 15.625C22.275 15.6251 22.4376 15.6539 22.5907 15.71C22.7439 15.7661 22.887 15.8498 23.0096 15.959C23.1324 16.0683 23.2327 16.2019 23.3016 16.3535C23.369 16.502 23.4044 16.6631 23.4022 16.8271L23.4032 21.2412C23.4032 21.2883 23.3954 21.3279 23.3885 21.3574C23.3747 21.4568 23.3449 21.5437 23.3417 21.5547C23.3412 21.5562 23.339 21.5619 23.3368 21.5703C23.3347 21.5784 23.3308 21.5949 23.326 21.6113C23.3163 21.6452 23.2985 21.7018 23.2655 21.7637C23.2322 21.8263 23.1942 21.8747 23.1727 21.9004C23.1624 21.9128 23.1514 21.9258 23.1464 21.9316C23.14 21.939 23.1356 21.9424 23.1356 21.9424L23.1337 21.9453C23.1232 21.9582 23.07 22.0278 22.9979 22.0947C22.9798 22.1151 22.9537 22.1434 22.9178 22.1699C22.8509 22.2191 22.7847 22.245 22.7626 22.2539C22.7573 22.256 22.7516 22.2587 22.7489 22.2598L22.745 22.2617C22.7013 22.2861 22.6218 22.3295 22.5302 22.3584L22.5292 22.3574C22.4386 22.386 22.3491 22.3969 22.2997 22.4023L22.2958 22.4043C22.2932 22.4049 22.2851 22.4068 22.2792 22.4082C22.2536 22.4143 22.1895 22.4287 22.1112 22.4287C22.071 22.4287 22.0371 22.4233 22.0135 22.4189L21.993 22.4131C21.9047 22.4031 21.8276 22.3861 21.8046 22.3809L21.8007 22.3799C21.7737 22.3736 21.7943 22.3804 21.7382 22.3682C21.7052 22.361 21.6508 22.3468 21.5907 22.3223C21.531 22.2979 21.4838 22.2692 21.455 22.251C21.4048 22.2193 21.4266 22.2336 21.4022 22.2188L21.3983 22.2158C21.3838 22.2068 21.3186 22.1653 21.2499 22.1113C21.2431 22.1071 21.2341 22.1027 21.2255 22.0967C21.2045 22.0822 21.1756 22.0598 21.1454 22.0283L19.1776 19.9834V21.2695C19.1695 21.6026 19.0117 21.903 18.7655 22.1133C18.5212 22.3219 18.2056 22.4306 17.8876 22.4307C17.5695 22.4306 17.2539 22.3219 17.0096 22.1133C16.7635 21.903 16.6056 21.6026 16.5975 21.2695V16.8438C16.5977 16.5061 16.7518 16.1983 16.9989 15.9824C17.2443 15.7683 17.5652 15.6564 17.8876 15.6562C18.2523 15.6563 18.5726 15.8009 18.8046 16.0215L18.8534 16.0596L18.8583 16.0664L18.8641 16.0723L20.8212 18.1064V16.8271C20.819 16.6632 20.8544 16.5019 20.9218 16.3535C20.9907 16.2019 21.092 16.0683 21.2147 15.959C21.3373 15.8499 21.4797 15.7661 21.6327 15.71C21.7859 15.6538 21.9492 15.625 22.1122 15.625ZM23.37 21.4219C23.3704 21.421 23.3709 21.419 23.3719 21.416V21.4131C23.3706 21.4169 23.3703 21.4206 23.37 21.4219ZM18.7548 15.9863C18.7523 15.9848 18.7489 15.9822 18.7479 15.9814L18.745 15.9805C18.7461 15.9811 18.7509 15.984 18.7548 15.9863Z" fill="white"/>
</g>
</g>
</g>
<defs>
<filter id="filter0_di_15879_132786" x="0.0425415" y="1.04199" width="39.915" height="40.0039" filterUnits="userSpaceOnUse" color-interpolation-filters="sRGB">
<feFlood flood-opacity="0" result="BackgroundImageFix"/>
<feColorMatrix in="SourceAlpha" type="matrix" values="0 0 0 0 0 0 0 0 0 0 0 0 0 0 0 0 0 0 127 0" result="hardAlpha"/>
<feOffset dy="1"/>
<feGaussianBlur stdDeviation="1"/>
<feComposite in2="hardAlpha" operator="out"/>
<feColorMatrix type="matrix" values="0 0 0 0 0.0666667 0 0 0 0 0.0980392 0 0 0 0 0.117647 0 0 0 0.05 0"/>
<feBlend mode="normal" in2="BackgroundImageFix" result="effect1_dropShadow_15879_132786"/>
<feBlend mode="normal" in="SourceGraphic" in2="effect1_dropShadow_15879_132786" result="shape"/>
<feColorMatrix in="SourceAlpha" type="matrix" values="0 0 0 0 0 0 0 0 0 0 0 0 0 0 0 0 0 0 127 0" result="hardAlpha"/>
<feOffset dx="1.6" dy="1.6"/>
<feGaussianBlur stdDeviation="1.6"/>
<feComposite in2="hardAlpha" operator="arithmetic" k2="-1" k3="1"/>
<feColorMatrix type="matrix" values="0 0 0 0 0.0666667 0 0 0 0 0.0980392 0 0 0 0 0.117647 0 0 0 0.1 0"/>
<feBlend mode="normal" in2="shape" result="effect2_innerShadow_15879_132786"/>
</filter>
<filter id="filter1_ddii_15879_132786" x="-2.80954" y="-2.80985" width="46.4762" height="46.4759" filterUnits="userSpaceOnUse" color-interpolation-filters="sRGB">
<feFlood flood-opacity="0" result="BackgroundImageFix"/>
<feColorMatrix in="SourceAlpha" type="matrix" values="0 0 0 0 0 0 0 0 0 0 0 0 0 0 0 0 0 0 127 0" result="hardAlpha"/>
<feOffset dx="2.57143" dy="2.57143"/>
<feGaussianBlur stdDeviation="4.71429"/>
<feComposite in2="hardAlpha" operator="out"/>
<feColorMatrix type="matrix" values="0 0 0 0 0.321569 0 0 0 0 0.435294 0 0 0 0 1 0 0 0 1 0"/>
<feBlend mode="normal" in2="BackgroundImageFix" result="effect1_dropShadow_15879_132786"/>
<feColorMatrix in="SourceAlpha" type="matrix" values="0 0 0 0 0 0 0 0 0 0 0 0 0 0 0 0 0 0 127 0" result="hardAlpha"/>
<feOffset dx="-2.57143" dy="-2.57143"/>
<feGaussianBlur stdDeviation="4.28571"/>
<feComposite in2="hardAlpha" operator="out"/>
<feColorMatrix type="matrix" values="0 0 0 0 1 0 0 0 0 1 0 0 0 0 1 0 0 0 0.4 0"/>
<feBlend mode="normal" in2="effect1_dropShadow_15879_132786" result="effect2_dropShadow_15879_132786"/>
<feBlend mode="normal" in="SourceGraphic" in2="effect2_dropShadow_15879_132786" result="shape"/>
<feColorMatrix in="SourceAlpha" type="matrix" values="0 0 0 0 0 0 0 0 0 0 0 0 0 0 0 0 0 0 127 0" result="hardAlpha"/>
<feOffset dy="-1.28571"/>
<feGaussianBlur stdDeviation="0.985714"/>
<feComposite in2="hardAlpha" operator="arithmetic" k2="-1" k3="1"/>
<feColorMatrix type="matrix" values="0 0 0 0 0 0 0 0 0 0.598039 0 0 0 0 1 0 0 0 0.4 0"/>
<feBlend mode="normal" in2="shape" result="effect3_innerShadow_15879_132786"/>
<feColorMatrix in="SourceAlpha" type="matrix" values="0 0 0 0 0 0 0 0 0 0 0 0 0 0 0 0 0 0 127 0" result="hardAlpha"/>
<feOffset dy="-0.428571"/>
<feGaussianBlur stdDeviation="0.557143"/>
<feComposite in2="hardAlpha" operator="arithmetic" k2="-1" k3="1"/>
<feColorMatrix type="matrix" values="0 0 0 0 1 0 0 0 0 1 0 0 0 0 1 0 0 0 0.6 0"/>
<feBlend mode="normal" in2="effect3_innerShadow_15879_132786" result="effect4_innerShadow_15879_132786"/>
</filter>
<linearGradient id="paint0_linear_15879_132786" x1="6.8" y1="10.8" x2="36.8" y2="47.6" gradientUnits="userSpaceOnUse">
<stop stop-color="#11191E" stop-opacity="0.4"/>
<stop offset="1" stop-color="white"/>
</linearGradient>
<linearGradient id="paint1_linear_15879_132786" x1="7.90002" y1="11.567" x2="35.4" y2="45.3003" gradientUnits="userSpaceOnUse">
<stop stop-color="#11191E" stop-opacity="0.4"/>
<stop offset="1" stop-color="white"/>
</linearGradient>
<clipPath id="clip0_15879_132786">
<rect width="40" height="40" fill="white"/>
</clipPath>
</defs>
</svg>
