<svg width="40" height="41" viewBox="0 0 40 41" fill="none" xmlns="http://www.w3.org/2000/svg">
<g filter="url(#filter0_i_9669_106076)">
<path d="M1 20.5C1 7.39 6.89 1.5 20 1.5C33.11 1.5 39 7.39 39 20.5C39 33.61 33.11 39.5 20 39.5C6.89 39.5 1 33.61 1 20.5Z" fill="#0099FF"/>
</g>
<path d="M2 20.5C2 14.0723 3.44621 9.6355 6.29086 6.79086C9.1355 3.94621 13.5723 2.5 20 2.5C26.4277 2.5 30.8645 3.94621 33.7091 6.79086C36.5538 9.6355 38 14.0723 38 20.5C38 26.9277 36.5538 31.3645 33.7091 34.2091C30.8645 37.0538 26.4277 38.5 20 38.5C13.5723 38.5 9.1355 37.0538 6.29086 34.2091C3.44621 31.3645 2 26.9277 2 20.5Z" stroke="url(#paint0_linear_9669_106076)" stroke-width="2" style="mix-blend-mode:overlay"/>
<mask id="mask0_9669_106076" style="mask-type:alpha" maskUnits="userSpaceOnUse" x="0" y="0" width="40" height="41">
<path d="M1 20.5C1 13.7273 2.52371 9.0405 5.53211 6.03211C8.5405 3.02371 13.2273 1.5 20 1.5C26.7727 1.5 31.4595 3.02371 34.4679 6.03211C37.4763 9.0405 39 13.7273 39 20.5C39 27.2727 37.4763 31.9595 34.4679 34.9679C31.4595 37.9763 26.7727 39.5 20 39.5C13.2273 39.5 8.5405 37.9763 5.53211 34.9679C2.52371 31.9595 1 27.2727 1 20.5Z" fill="#0099FF"/>
<path d="M1 20.5C1 13.7273 2.52371 9.0405 5.53211 6.03211C8.5405 3.02371 13.2273 1.5 20 1.5C26.7727 1.5 31.4595 3.02371 34.4679 6.03211C37.4763 9.0405 39 13.7273 39 20.5C39 27.2727 37.4763 31.9595 34.4679 34.9679C31.4595 37.9763 26.7727 39.5 20 39.5C13.2273 39.5 8.5405 37.9763 5.53211 34.9679C2.52371 31.9595 1 27.2727 1 20.5Z" stroke="url(#paint1_linear_9669_106076)" stroke-width="2"/>
</mask>
<g mask="url(#mask0_9669_106076)">
<g filter="url(#filter1_ddii_9669_106076)">
<path d="M30.0686 15.2832L25.5779 10.4738C25.4443 10.331 25.2828 10.2172 25.1034 10.1393C24.924 10.0615 24.7305 10.0214 24.535 10.0215H12.3896C12.0732 10.0215 11.8154 10.2793 11.8154 10.5957V18.2879C11.8154 18.398 11.9045 18.4848 12.0123 18.4848H12.7764C12.8865 18.4848 12.9732 18.3957 12.9732 18.2879V11.334C12.9732 11.2543 13.0365 11.191 13.1162 11.191H23.874C23.9396 11.191 23.9936 11.2449 23.9936 11.3129V16.2676C23.9936 16.584 24.2514 16.8418 24.5678 16.8418H29.1615C29.2271 16.8418 29.2811 16.8957 29.2811 16.9613V29.6973C29.2811 29.777 29.2178 29.8402 29.1381 29.8402H12.0123C11.9021 29.8402 11.8154 29.9293 11.8154 30.0371V30.7895C11.8154 30.8996 11.9045 30.9863 12.0123 30.9863H29.8787C30.1951 30.9863 30.4529 30.7285 30.4529 30.4121V16.2559C30.4529 15.8949 30.317 15.5457 30.0686 15.2832Z" fill="white"/>
<path fill-rule="evenodd" clip-rule="evenodd" d="M25.3951 20.0316V28.2676C25.3951 28.4246 25.2686 28.5512 25.1115 28.5512H9.77871C9.62168 28.5512 9.49512 28.4246 9.49512 28.2676V20.0316C9.49512 19.8746 9.62168 19.748 9.77871 19.748H25.1115C25.2686 19.748 25.3951 19.8746 25.3951 20.0316ZM11.9367 22.3008L11.0967 26.5008H12.1887L12.6335 24.2872L13.3947 26.0868H13.9167L15.3157 24.2888L14.8827 26.5008H15.9807L16.8087 22.3008H15.7947L13.8871 24.7337L12.9027 22.3008H11.9367ZM16.8213 26.5008L17.6613 22.3008H18.8493L18.0093 26.5008H16.8213ZM18.8545 26.5008L19.6945 22.3008H20.6725L22.0619 24.5985L22.5205 22.3008H23.6845L22.8445 26.5008H21.8665L20.4783 24.1969L20.0185 26.5008H18.8545Z" fill="white"/>
</g>
</g>
<defs>
<filter id="filter0_i_9669_106076" x="1" y="1.5" width="40" height="40" filterUnits="userSpaceOnUse" color-interpolation-filters="sRGB">
<feFlood flood-opacity="0" result="BackgroundImageFix"/>
<feBlend mode="normal" in="SourceGraphic" in2="BackgroundImageFix" result="shape"/>
<feColorMatrix in="SourceAlpha" type="matrix" values="0 0 0 0 0 0 0 0 0 0 0 0 0 0 0 0 0 0 127 0" result="hardAlpha"/>
<feOffset dx="2" dy="2"/>
<feGaussianBlur stdDeviation="2"/>
<feComposite in2="hardAlpha" operator="arithmetic" k2="-1" k3="1"/>
<feColorMatrix type="matrix" values="0 0 0 0 0.0666667 0 0 0 0 0.0980392 0 0 0 0 0.117647 0 0 0 0.1 0"/>
<feBlend mode="normal" in2="shape" result="effect1_innerShadow_9669_106076"/>
</filter>
<filter id="filter1_ddii_9669_106076" x="-3.14286" y="-2.64286" width="47.1429" height="47.1429" filterUnits="userSpaceOnUse" color-interpolation-filters="sRGB">
<feFlood flood-opacity="0" result="BackgroundImageFix"/>
<feColorMatrix in="SourceAlpha" type="matrix" values="0 0 0 0 0 0 0 0 0 0 0 0 0 0 0 0 0 0 127 0" result="hardAlpha"/>
<feOffset dx="2.57143" dy="2.57143"/>
<feGaussianBlur stdDeviation="4.71429"/>
<feComposite in2="hardAlpha" operator="out"/>
<feColorMatrix type="matrix" values="0 0 0 0 0.321569 0 0 0 0 0.435294 0 0 0 0 1 0 0 0 1 0"/>
<feBlend mode="normal" in2="BackgroundImageFix" result="effect1_dropShadow_9669_106076"/>
<feColorMatrix in="SourceAlpha" type="matrix" values="0 0 0 0 0 0 0 0 0 0 0 0 0 0 0 0 0 0 127 0" result="hardAlpha"/>
<feOffset dx="-2.57143" dy="-2.57143"/>
<feGaussianBlur stdDeviation="4.28571"/>
<feComposite in2="hardAlpha" operator="out"/>
<feColorMatrix type="matrix" values="0 0 0 0 1 0 0 0 0 1 0 0 0 0 1 0 0 0 0.4 0"/>
<feBlend mode="normal" in2="effect1_dropShadow_9669_106076" result="effect2_dropShadow_9669_106076"/>
<feBlend mode="normal" in="SourceGraphic" in2="effect2_dropShadow_9669_106076" result="shape"/>
<feColorMatrix in="SourceAlpha" type="matrix" values="0 0 0 0 0 0 0 0 0 0 0 0 0 0 0 0 0 0 127 0" result="hardAlpha"/>
<feOffset dy="-1.28571"/>
<feGaussianBlur stdDeviation="0.985714"/>
<feComposite in2="hardAlpha" operator="arithmetic" k2="-1" k3="1"/>
<feColorMatrix type="matrix" values="0 0 0 0 0 0 0 0 0 0.598039 0 0 0 0 1 0 0 0 0.4 0"/>
<feBlend mode="normal" in2="shape" result="effect3_innerShadow_9669_106076"/>
<feColorMatrix in="SourceAlpha" type="matrix" values="0 0 0 0 0 0 0 0 0 0 0 0 0 0 0 0 0 0 127 0" result="hardAlpha"/>
<feOffset dy="-0.428571"/>
<feGaussianBlur stdDeviation="0.557143"/>
<feComposite in2="hardAlpha" operator="arithmetic" k2="-1" k3="1"/>
<feColorMatrix type="matrix" values="0 0 0 0 1 0 0 0 0 1 0 0 0 0 1 0 0 0 0.6 0"/>
<feBlend mode="normal" in2="effect3_innerShadow_9669_106076" result="effect4_innerShadow_9669_106076"/>
</filter>
<linearGradient id="paint0_linear_9669_106076" x1="7.46" y1="11.76" x2="35.96" y2="46.72" gradientUnits="userSpaceOnUse">
<stop stop-color="#11191E" stop-opacity="0.4"/>
<stop offset="0.992881" stop-color="white"/>
</linearGradient>
<linearGradient id="paint1_linear_9669_106076" x1="6.8" y1="11.3" x2="36.8" y2="48.1" gradientUnits="userSpaceOnUse">
<stop stop-color="#11191E" stop-opacity="0.4"/>
<stop offset="0.992881" stop-color="white"/>
</linearGradient>
</defs>
</svg>
