<svg width="44" height="44" viewBox="0 0 44 44" fill="none" xmlns="http://www.w3.org/2000/svg">
<g filter="url(#filter0_i_1208_29932)">
<path d="M2 22C2 8.2 8.2 2 22 2C35.8 2 42 8.2 42 22C42 35.8 35.8 42 22 42C8.2 42 2 35.8 2 22Z" fill="#0099FF"/>
</g>
<path d="M3 22C3 15.2273 4.52371 10.5405 7.53211 7.53211C10.5405 4.52371 15.2273 3 22 3C28.7727 3 33.4595 4.52371 36.4679 7.53211C39.4763 10.5405 41 15.2273 41 22C41 28.7727 39.4763 33.4595 36.4679 36.4679C33.4595 39.4763 28.7727 41 22 41C15.2273 41 10.5405 39.4763 7.53211 36.4679C4.52371 33.4595 3 28.7727 3 22Z" stroke="url(#paint0_linear_1208_29932)" stroke-width="2" style="mix-blend-mode:overlay"/>
<g filter="url(#filter1_ddii_1208_29932)">
<path d="M22 29C22.3978 29 22.7794 29.158 23.0607 29.4393C23.342 29.7206 23.5 30.1022 23.5 30.5C23.5 30.8978 23.342 31.2794 23.0607 31.5607C22.7794 31.842 22.3978 32 22 32C21.6022 32 21.2206 31.842 20.9393 31.5607C20.658 31.2794 20.5 30.8978 20.5 30.5C20.5 30.1022 20.658 29.7206 20.9393 29.4393C21.2206 29.158 21.6022 29 22 29ZM29.5 29C29.8978 29 30.2794 29.158 30.5607 29.4393C30.842 29.7206 31 30.1022 31 30.5C31 30.8978 30.842 31.2794 30.5607 31.5607C30.2794 31.842 29.8978 32 29.5 32C29.1022 32 28.7206 31.842 28.4393 31.5607C28.158 31.2794 28 30.8978 28 30.5C28 30.1022 28.158 29.7206 28.4393 29.4393C28.7206 29.158 29.1022 29 29.5 29ZM14.5 29C14.8978 29 15.2794 29.158 15.5607 29.4393C15.842 29.7206 16 30.1022 16 30.5C16 30.8978 15.842 31.2794 15.5607 31.5607C15.2794 31.842 14.8978 32 14.5 32C14.1022 32 13.7206 31.842 13.4393 31.5607C13.158 31.2794 13 30.8978 13 30.5C13 30.1022 13.158 29.7206 13.4393 29.4393C13.7206 29.158 14.1022 29 14.5 29ZM27 17C28.3261 17 29.5979 17.5268 30.5355 18.4645C31.4732 19.4021 32 20.6739 32 22C32 23.3261 31.4732 24.5979 30.5355 25.5355C29.5979 26.4732 28.3261 27 27 27C25.156 27 23.49 25.96 22 23.878C20.51 25.96 18.844 27 17 27C15.6739 27 14.4021 26.4732 13.4645 25.5355C12.5268 24.5979 12 23.3261 12 22C12 20.6739 12.5268 19.4021 13.4645 18.4645C14.4021 17.5268 15.6739 17 17 17C18.844 17 20.51 18.04 22 20.122C23.49 18.04 25.156 17 27 17ZM17 19C16.2044 19 15.4413 19.3161 14.8787 19.8787C14.3161 20.4413 14 21.2044 14 22C14 22.7956 14.3161 23.5587 14.8787 24.1213C15.4413 24.6839 16.2044 25 17 25C18.254 25 19.51 24.125 20.759 22.146L20.848 21.999L20.758 21.854C19.561 19.958 18.358 19.074 17.157 19.004L17 19ZM27 19C25.746 19 24.49 19.875 23.241 21.854L23.151 22L23.241 22.146C24.439 24.042 25.641 24.926 26.843 24.996L27 25C27.7956 25 28.5587 24.6839 29.1213 24.1213C29.6839 23.5587 30 22.7956 30 22C30 21.2044 29.6839 20.4413 29.1213 19.8787C28.5587 19.3161 27.7956 19 27 19ZM22 12C22.197 12 22.392 12.0388 22.574 12.1142C22.756 12.1896 22.9214 12.3001 23.0607 12.4393C23.1999 12.5786 23.3104 12.744 23.3858 12.926C23.4612 13.108 23.5 13.303 23.5 13.5C23.5 13.697 23.4612 13.892 23.3858 14.074C23.3104 14.256 23.1999 14.4214 23.0607 14.5607C22.9214 14.6999 22.756 14.8104 22.574 14.8858C22.392 14.9612 22.197 15 22 15C21.6022 15 21.2206 14.842 20.9393 14.5607C20.658 14.2794 20.5 13.8978 20.5 13.5C20.5 13.1022 20.658 12.7206 20.9393 12.4393C21.2206 12.158 21.6022 12 22 12ZM14.5 12C14.697 12 14.892 12.0388 15.074 12.1142C15.256 12.1896 15.4214 12.3001 15.5607 12.4393C15.6999 12.5786 15.8104 12.744 15.8858 12.926C15.9612 13.108 16 13.303 16 13.5C16 13.697 15.9612 13.892 15.8858 14.074C15.8104 14.256 15.6999 14.4214 15.5607 14.5607C15.4214 14.6999 15.256 14.8104 15.074 14.8858C14.892 14.9612 14.697 15 14.5 15C14.1022 15 13.7206 14.842 13.4393 14.5607C13.158 14.2794 13 13.8978 13 13.5C13 13.1022 13.158 12.7206 13.4393 12.4393C13.7206 12.158 14.1022 12 14.5 12ZM29.5 12C29.697 12 29.892 12.0388 30.074 12.1142C30.256 12.1896 30.4214 12.3001 30.5607 12.4393C30.6999 12.5786 30.8104 12.744 30.8858 12.926C30.9612 13.108 31 13.303 31 13.5C31 13.697 30.9612 13.892 30.8858 14.074C30.8104 14.256 30.6999 14.4214 30.5607 14.5607C30.4214 14.6999 30.256 14.8104 30.074 14.8858C29.892 14.9612 29.697 15 29.5 15C29.1022 15 28.7206 14.842 28.4393 14.5607C28.158 14.2794 28 13.8978 28 13.5C28 13.1022 28.158 12.7206 28.4393 12.4393C28.7206 12.158 29.1022 12 29.5 12Z" fill="white"/>
</g>
<defs>
<filter id="filter0_i_1208_29932" x="2" y="2" width="42" height="42" filterUnits="userSpaceOnUse" color-interpolation-filters="sRGB">
<feFlood flood-opacity="0" result="BackgroundImageFix"/>
<feBlend mode="normal" in="SourceGraphic" in2="BackgroundImageFix" result="shape"/>
<feColorMatrix in="SourceAlpha" type="matrix" values="0 0 0 0 0 0 0 0 0 0 0 0 0 0 0 0 0 0 127 0" result="hardAlpha"/>
<feOffset dx="2" dy="2"/>
<feGaussianBlur stdDeviation="2"/>
<feComposite in2="hardAlpha" operator="arithmetic" k2="-1" k3="1"/>
<feColorMatrix type="matrix" values="0 0 0 0 0.0666667 0 0 0 0 0.0980392 0 0 0 0 0.117647 0 0 0 0.1 0"/>
<feBlend mode="normal" in2="shape" result="effect1_innerShadow_1208_29932"/>
</filter>
<filter id="filter1_ddii_1208_29932" x="-1.14286" y="-1.14286" width="47.1429" height="47.1429" filterUnits="userSpaceOnUse" color-interpolation-filters="sRGB">
<feFlood flood-opacity="0" result="BackgroundImageFix"/>
<feColorMatrix in="SourceAlpha" type="matrix" values="0 0 0 0 0 0 0 0 0 0 0 0 0 0 0 0 0 0 127 0" result="hardAlpha"/>
<feOffset dx="2.57143" dy="2.57143"/>
<feGaussianBlur stdDeviation="4.71429"/>
<feComposite in2="hardAlpha" operator="out"/>
<feColorMatrix type="matrix" values="0 0 0 0 0.321569 0 0 0 0 0.435294 0 0 0 0 1 0 0 0 1 0"/>
<feBlend mode="normal" in2="BackgroundImageFix" result="effect1_dropShadow_1208_29932"/>
<feColorMatrix in="SourceAlpha" type="matrix" values="0 0 0 0 0 0 0 0 0 0 0 0 0 0 0 0 0 0 127 0" result="hardAlpha"/>
<feOffset dx="-2.57143" dy="-2.57143"/>
<feGaussianBlur stdDeviation="4.28571"/>
<feComposite in2="hardAlpha" operator="out"/>
<feColorMatrix type="matrix" values="0 0 0 0 1 0 0 0 0 1 0 0 0 0 1 0 0 0 0.4 0"/>
<feBlend mode="normal" in2="effect1_dropShadow_1208_29932" result="effect2_dropShadow_1208_29932"/>
<feBlend mode="normal" in="SourceGraphic" in2="effect2_dropShadow_1208_29932" result="shape"/>
<feColorMatrix in="SourceAlpha" type="matrix" values="0 0 0 0 0 0 0 0 0 0 0 0 0 0 0 0 0 0 127 0" result="hardAlpha"/>
<feOffset dy="-1.28571"/>
<feGaussianBlur stdDeviation="0.985714"/>
<feComposite in2="hardAlpha" operator="arithmetic" k2="-1" k3="1"/>
<feColorMatrix type="matrix" values="0 0 0 0 0 0 0 0 0 0.598039 0 0 0 0 1 0 0 0 0.4 0"/>
<feBlend mode="normal" in2="shape" result="effect3_innerShadow_1208_29932"/>
<feColorMatrix in="SourceAlpha" type="matrix" values="0 0 0 0 0 0 0 0 0 0 0 0 0 0 0 0 0 0 127 0" result="hardAlpha"/>
<feOffset dy="-0.428571"/>
<feGaussianBlur stdDeviation="0.557143"/>
<feComposite in2="hardAlpha" operator="arithmetic" k2="-1" k3="1"/>
<feColorMatrix type="matrix" values="0 0 0 0 1 0 0 0 0 1 0 0 0 0 1 0 0 0 0.6 0"/>
<feBlend mode="normal" in2="effect3_innerShadow_1208_29932" result="effect4_innerShadow_1208_29932"/>
</filter>
<linearGradient id="paint0_linear_1208_29932" x1="8.8" y1="12.8" x2="38.8" y2="49.6" gradientUnits="userSpaceOnUse">
<stop stop-color="#11191E" stop-opacity="0.4"/>
<stop offset="0.992881" stop-color="white"/>
</linearGradient>
</defs>
</svg>
