<svg width="16" height="16" viewBox="0 0 16 16" fill="none" xmlns="http://www.w3.org/2000/svg">
<path fill-rule="evenodd" clip-rule="evenodd" d="M8 3C10.7499 3 13 5.25005 13 8C13 10.75 10.7499 13 8 13C5.25005 13 3 10.75 3 8C3.00001 5.25003 5.25003 3 8 3ZM8 4.0625C6.65981 4.0625 5.48408 4.71939 4.77431 5.7313C4.38066 6.29252 5.15523 6.8225 5.83811 6.76242C5.93199 6.75416 6.0276 6.75 6.125 6.75C7.625 6.75 8.375 8 9.875 8C10.5381 8 11.0911 7.8074 11.5526 7.44072C11.7478 7.28563 11.8189 7.02377 11.7409 6.787C11.5441 6.18975 11.205 5.64251 10.75 5.1875C10.0626 4.4375 9.06249 4.0625 8 4.0625Z" fill="#0099FF"/>
</svg>
