<svg width="40" height="40" viewBox="0 0 40 40" fill="none" xmlns="http://www.w3.org/2000/svg">
<g filter="url(#filter0_i_8871_117216)">
<path d="M1 20C1 6.89 6.89 1 20 1C33.11 1 39 6.89 39 20C39 33.11 33.11 39 20 39C6.89 39 1 33.11 1 20Z" fill="#0099FF"/>
</g>
<path d="M2 20C2 13.5723 3.44621 9.1355 6.29086 6.29086C9.1355 3.44621 13.5723 2 20 2C26.4277 2 30.8645 3.44621 33.7091 6.29086C36.5538 9.1355 38 13.5723 38 20C38 26.4277 36.5538 30.8645 33.7091 33.7091C30.8645 36.5538 26.4277 38 20 38C13.5723 38 9.1355 36.5538 6.29086 33.7091C3.44621 30.8645 2 26.4277 2 20Z" stroke="url(#paint0_linear_8871_117216)" stroke-width="2" style="mix-blend-mode:overlay"/>
<mask id="mask0_8871_117216" style="mask-type:alpha" maskUnits="userSpaceOnUse" x="0" y="0" width="40" height="40">
<path d="M1 20C1 13.2273 2.52371 8.5405 5.53211 5.53211C8.5405 2.52371 13.2273 1 20 1C26.7727 1 31.4595 2.52371 34.4679 5.53211C37.4763 8.5405 39 13.2273 39 20C39 26.7727 37.4763 31.4595 34.4679 34.4679C31.4595 37.4763 26.7727 39 20 39C13.2273 39 8.5405 37.4763 5.53211 34.4679C2.52371 31.4595 1 26.7727 1 20Z" fill="#0099FF"/>
<path d="M1 20C1 13.2273 2.52371 8.5405 5.53211 5.53211C8.5405 2.52371 13.2273 1 20 1C26.7727 1 31.4595 2.52371 34.4679 5.53211C37.4763 8.5405 39 13.2273 39 20C39 26.7727 37.4763 31.4595 34.4679 34.4679C31.4595 37.4763 26.7727 39 20 39C13.2273 39 8.5405 37.4763 5.53211 34.4679C2.52371 31.4595 1 26.7727 1 20Z" stroke="url(#paint1_linear_8871_117216)" stroke-width="2"/>
</mask>
<g mask="url(#mask0_8871_117216)">
<g filter="url(#filter1_ddii_8871_117216)">
<path fill-rule="evenodd" clip-rule="evenodd" d="M18.6363 10.0649C18.998 9.70319 19.4885 9.5 20 9.5C20.5115 9.5 21.002 9.70319 21.3637 10.0649C21.7254 10.4265 21.9286 10.9171 21.9286 11.4286V14.2857C21.9286 14.7972 21.7254 15.2877 21.3637 15.6494C21.002 16.0111 20.5115 16.2143 20 16.2143C19.4885 16.2143 18.998 16.0111 18.6363 15.6494C18.2746 15.2877 18.0714 14.7972 18.0714 14.2857V11.4286C18.0714 10.9171 18.2746 10.4265 18.6363 10.0649ZM12.5762 12.5751C12.9379 12.2134 13.4285 12.0102 13.9399 12.0102C14.4514 12.0102 14.942 12.2134 15.3037 12.5751L17.324 14.5954C17.6856 14.9571 17.8888 15.4476 17.8888 15.9591C17.8888 16.4706 17.6856 16.9611 17.324 17.3228C16.9623 17.6845 16.4717 17.8877 15.9603 17.8877C15.4488 17.8877 14.9582 17.6845 14.5965 17.3228L12.5762 15.3025C12.2146 14.9408 12.0114 14.4503 12.0114 13.9388C12.0114 13.4273 12.2146 12.9368 12.5762 12.5751ZM24.6984 12.5753C25.0601 12.2136 25.5506 12.0104 26.0621 12.0104C26.5736 12.0104 27.0642 12.2136 27.4258 12.5753C27.7875 12.937 27.9907 13.4275 27.9907 13.939C27.9907 14.4505 27.7875 14.941 27.4258 15.3027L25.4055 17.323C25.0439 17.6847 24.5533 17.8879 24.0418 17.8879C23.5303 17.8879 23.0398 17.6847 22.6781 17.323C22.3164 16.9613 22.1133 16.4708 22.1133 15.9593C22.1133 15.4478 22.3164 14.9573 22.6781 14.5956L24.6984 12.5753ZM10.0649 18.6363C10.4265 18.2746 10.9171 18.0714 11.4286 18.0714H14.2857C14.7972 18.0714 15.2877 18.2746 15.6494 18.6363C16.0111 18.998 16.2143 19.4885 16.2143 20C16.2143 20.5115 16.0111 21.002 15.6494 21.3637C15.2877 21.7254 14.7972 21.9286 14.2857 21.9286H11.4286C10.9171 21.9286 10.4265 21.7254 10.0649 21.3637C9.70319 21.002 9.5 20.5115 9.5 20C9.5 19.4885 9.70319 18.998 10.0649 18.6363ZM24.3506 18.6363C24.7123 18.2746 25.2028 18.0714 25.7143 18.0714L28.5714 18.0714C29.0829 18.0714 29.5735 18.2746 29.9351 18.6363C30.2968 18.998 30.5 19.4885 30.5 20C30.5 20.5115 30.2968 21.002 29.9351 21.3637C29.5735 21.7254 29.0829 21.9286 28.5714 21.9286L25.7143 21.9286C25.2028 21.9286 24.7123 21.7254 24.3506 21.3637C23.9889 21.002 23.7857 20.5115 23.7857 20C23.7857 19.4885 23.9889 18.998 24.3506 18.6363ZM22.6778 22.6766C23.0394 22.3149 23.53 22.1118 24.0415 22.1118C24.553 22.1118 25.0435 22.3149 25.4052 22.6766L27.4255 24.6969C27.7872 25.0586 27.9904 25.5491 27.9904 26.0606C27.9904 26.5721 27.7872 27.0627 27.4255 27.4243C27.0638 27.786 26.5733 27.9892 26.0618 27.9892C25.5503 27.9892 25.0598 27.786 24.6981 27.4243L22.6778 25.404C22.3161 25.0424 22.1129 24.5518 22.1129 24.0403C22.1129 23.5288 22.3161 23.0383 22.6778 22.6766ZM14.5969 22.6768C14.9586 22.3152 15.4491 22.112 15.9606 22.112C16.4721 22.112 16.9626 22.3152 17.3243 22.6768C17.686 23.0385 17.8892 23.5291 17.8892 24.0405C17.8892 24.552 17.686 25.0426 17.3243 25.4042L15.304 27.4246C14.9423 27.7862 14.4518 27.9894 13.9403 27.9894C13.4288 27.9894 12.9383 27.7862 12.5766 27.4246C12.2149 27.0629 12.0117 26.5723 12.0117 26.0608C12.0117 25.5494 12.2149 25.0588 12.5766 24.6971L14.5969 22.6768ZM18.6363 24.3506C18.998 23.9889 19.4885 23.7857 20 23.7857C20.5115 23.7857 21.002 23.9889 21.3637 24.3506C21.7254 24.7123 21.9286 25.2028 21.9286 25.7143V28.5714C21.9286 29.0829 21.7254 29.5735 21.3637 29.9351C21.002 30.2968 20.5115 30.5 20 30.5C19.4885 30.5 18.998 30.2968 18.6363 29.9351C18.2746 29.5735 18.0714 29.0829 18.0714 28.5714V25.7143C18.0714 25.2028 18.2746 24.7123 18.6363 24.3506Z" fill="white"/>
</g>
</g>
<defs>
<filter id="filter0_i_8871_117216" x="1" y="1" width="40" height="40" filterUnits="userSpaceOnUse" color-interpolation-filters="sRGB">
<feFlood flood-opacity="0" result="BackgroundImageFix"/>
<feBlend mode="normal" in="SourceGraphic" in2="BackgroundImageFix" result="shape"/>
<feColorMatrix in="SourceAlpha" type="matrix" values="0 0 0 0 0 0 0 0 0 0 0 0 0 0 0 0 0 0 127 0" result="hardAlpha"/>
<feOffset dx="2" dy="2"/>
<feGaussianBlur stdDeviation="2"/>
<feComposite in2="hardAlpha" operator="arithmetic" k2="-1" k3="1"/>
<feColorMatrix type="matrix" values="0 0 0 0 0.0666667 0 0 0 0 0.0980392 0 0 0 0 0.117647 0 0 0 0.1 0"/>
<feBlend mode="normal" in2="shape" result="effect1_innerShadow_8871_117216"/>
</filter>
<filter id="filter1_ddii_8871_117216" x="-3.14286" y="-3.14286" width="47.1429" height="47.1429" filterUnits="userSpaceOnUse" color-interpolation-filters="sRGB">
<feFlood flood-opacity="0" result="BackgroundImageFix"/>
<feColorMatrix in="SourceAlpha" type="matrix" values="0 0 0 0 0 0 0 0 0 0 0 0 0 0 0 0 0 0 127 0" result="hardAlpha"/>
<feOffset dx="2.57143" dy="2.57143"/>
<feGaussianBlur stdDeviation="4.71429"/>
<feComposite in2="hardAlpha" operator="out"/>
<feColorMatrix type="matrix" values="0 0 0 0 0.321569 0 0 0 0 0.435294 0 0 0 0 1 0 0 0 1 0"/>
<feBlend mode="normal" in2="BackgroundImageFix" result="effect1_dropShadow_8871_117216"/>
<feColorMatrix in="SourceAlpha" type="matrix" values="0 0 0 0 0 0 0 0 0 0 0 0 0 0 0 0 0 0 127 0" result="hardAlpha"/>
<feOffset dx="-2.57143" dy="-2.57143"/>
<feGaussianBlur stdDeviation="4.28571"/>
<feComposite in2="hardAlpha" operator="out"/>
<feColorMatrix type="matrix" values="0 0 0 0 1 0 0 0 0 1 0 0 0 0 1 0 0 0 0.4 0"/>
<feBlend mode="normal" in2="effect1_dropShadow_8871_117216" result="effect2_dropShadow_8871_117216"/>
<feBlend mode="normal" in="SourceGraphic" in2="effect2_dropShadow_8871_117216" result="shape"/>
<feColorMatrix in="SourceAlpha" type="matrix" values="0 0 0 0 0 0 0 0 0 0 0 0 0 0 0 0 0 0 127 0" result="hardAlpha"/>
<feOffset dy="-1.28571"/>
<feGaussianBlur stdDeviation="0.985714"/>
<feComposite in2="hardAlpha" operator="arithmetic" k2="-1" k3="1"/>
<feColorMatrix type="matrix" values="0 0 0 0 0 0 0 0 0 0.598039 0 0 0 0 1 0 0 0 0.4 0"/>
<feBlend mode="normal" in2="shape" result="effect3_innerShadow_8871_117216"/>
<feColorMatrix in="SourceAlpha" type="matrix" values="0 0 0 0 0 0 0 0 0 0 0 0 0 0 0 0 0 0 127 0" result="hardAlpha"/>
<feOffset dy="-0.428571"/>
<feGaussianBlur stdDeviation="0.557143"/>
<feComposite in2="hardAlpha" operator="arithmetic" k2="-1" k3="1"/>
<feColorMatrix type="matrix" values="0 0 0 0 1 0 0 0 0 1 0 0 0 0 1 0 0 0 0.6 0"/>
<feBlend mode="normal" in2="effect3_innerShadow_8871_117216" result="effect4_innerShadow_8871_117216"/>
</filter>
<linearGradient id="paint0_linear_8871_117216" x1="7.46" y1="11.26" x2="35.96" y2="46.22" gradientUnits="userSpaceOnUse">
<stop stop-color="#11191E" stop-opacity="0.4"/>
<stop offset="0.992881" stop-color="white"/>
</linearGradient>
<linearGradient id="paint1_linear_8871_117216" x1="6.8" y1="10.8" x2="36.8" y2="47.6" gradientUnits="userSpaceOnUse">
<stop stop-color="#11191E" stop-opacity="0.4"/>
<stop offset="0.992881" stop-color="white"/>
</linearGradient>
</defs>
</svg>
