<svg width="16" height="16" viewBox="0 0 16 16" fill="none" xmlns="http://www.w3.org/2000/svg">
<path d="M13.8594 9.55111C13.8875 9.55112 13.9154 9.55654 13.9414 9.56738C13.9674 9.57826 13.9913 9.5942 14.0111 9.61426C14.0308 9.63431 14.0461 9.65845 14.0566 9.68457C14.0672 9.71076 14.0727 9.73903 14.0723 9.76725V13.6878C14.0723 13.8078 13.9763 13.9039 13.8594 13.904H2.28516C2.16821 13.9039 2.07227 13.8078 2.07227 13.6878V9.764C2.07308 9.70817 2.09571 9.65481 2.13542 9.61556C2.17525 9.57629 2.22922 9.55439 2.28516 9.55436H4.43294L4.4362 9.55111C4.46432 9.5511 4.49227 9.55657 4.51823 9.56738C4.54419 9.57824 4.56811 9.59424 4.58789 9.61426C4.6077 9.63435 4.62359 9.65839 4.63411 9.68457C4.64464 9.71076 4.64949 9.73903 4.64909 9.76725V11.0778C4.64869 11.1062 4.65404 11.1348 4.66471 11.1611C4.6754 11.1874 4.69153 11.2113 4.71159 11.2314C4.73166 11.2515 4.75561 11.2676 4.7819 11.2783C4.80828 11.289 4.83677 11.2943 4.86523 11.2939H11.2852C11.4052 11.2939 11.5013 11.1978 11.5013 11.0778V9.76725C11.5009 9.73904 11.5058 9.71075 11.5163 9.68457C11.5268 9.65838 11.5427 9.63436 11.5625 9.61426C11.5823 9.59421 11.6062 9.57825 11.6322 9.56738C11.6581 9.55655 11.6861 9.55111 11.7142 9.55111H13.8594Z" fill="#11191E"/>
<path d="M8.07096 2.28613C8.12752 2.28615 8.18347 2.29759 8.23568 2.31934C8.28789 2.34108 8.33515 2.37296 8.375 2.41309L11.6361 5.72494C11.8161 5.90492 11.8163 6.22289 11.5404 6.4209C11.505 6.44478 11.4632 6.45714 11.4206 6.45671H9.80925V9.69108C9.80919 9.80801 9.71329 9.90394 9.59635 9.90397H6.53906C6.41922 9.90384 6.32623 9.80795 6.32617 9.69108V6.45671H4.80208C4.71805 6.45595 4.63612 6.43073 4.56641 6.38379C4.49662 6.33679 4.4418 6.27008 4.40951 6.19238C4.37733 6.1148 4.36889 6.02942 4.38477 5.94694C4.40067 5.86436 4.44056 5.78832 4.49935 5.72819L7.76628 2.41309C7.80608 2.37298 7.85346 2.3411 7.9056 2.31934C7.95786 2.29757 8.01435 2.28613 8.07096 2.28613Z" fill="#11191E"/>
</svg>
