<svg width="20" height="20" viewBox="0 0 20 20" fill="none" xmlns="http://www.w3.org/2000/svg">
<path d="M2.5 9.99984C3.15163 6.68132 6.26213 4.1665 10 4.1665C13.7379 4.1665 16.8477 6.68132 17.5 9.99984C16.8484 13.3184 13.7379 15.8332 10 15.8332C6.26213 15.8332 3.15232 13.3184 2.5 9.99984ZM10 13.2406C10.9193 13.2406 11.8009 12.8991 12.4509 12.2914C13.1009 11.6836 13.4661 10.8593 13.4661 9.99984C13.4661 9.14034 13.1009 8.31604 12.4509 7.70829C11.8009 7.10053 10.9193 6.7591 10 6.7591C9.08073 6.7591 8.1991 7.10053 7.54908 7.70829C6.89906 8.31604 6.53388 9.14034 6.53388 9.99984C6.53388 10.8593 6.89906 11.6836 7.54908 12.2914C8.1991 12.8991 9.08073 13.2406 10 13.2406ZM10 11.9443C9.44844 11.9443 8.91946 11.7394 8.52945 11.3748C8.13943 11.0101 7.92033 10.5155 7.92033 9.99984C7.92033 9.48414 8.13943 8.98956 8.52945 8.62491C8.91946 8.26025 9.44844 8.05539 10 8.05539C10.5516 8.05539 11.0805 8.26025 11.4706 8.62491C11.8606 8.98956 12.0797 9.48414 12.0797 9.99984C12.0797 10.5155 11.8606 11.0101 11.4706 11.3748C11.0805 11.7394 10.5516 11.9443 10 11.9443Z" fill="#0099FF"/>
</svg>
