<svg width="16" height="16" viewBox="0 0 16 16" xmlns="http://www.w3.org/2000/svg">
<path d="M2 7.99967C2.52131 5.34486 5.00971 3.33301 8 3.33301C10.9903 3.33301 13.4781 5.34486 14 7.99967C13.4787 10.6545 10.9903 12.6663 8 12.6663C5.00971 12.6663 2.52186 10.6545 2 7.99967V7.99967ZM8 10.5923C8.73542 10.5923 9.44072 10.3191 9.96074 9.83291C10.4808 9.34671 10.7729 8.68727 10.7729 7.99967C10.7729 7.31208 10.4808 6.65264 9.96074 6.16643C9.44072 5.68023 8.73542 5.40708 8 5.40708C7.26458 5.40708 6.55928 5.68023 6.03926 6.16643C5.51924 6.65264 5.2271 7.31208 5.2271 7.99967C5.2271 8.68727 5.51924 9.34671 6.03926 9.83291C6.55928 10.3191 7.26458 10.5923 8 10.5923ZM8 9.55523C7.55875 9.55523 7.13557 9.39134 6.82356 9.09962C6.51155 8.8079 6.33626 8.41223 6.33626 7.99967C6.33626 7.58712 6.51155 7.19145 6.82356 6.89973C7.13557 6.60801 7.55875 6.44412 8 6.44412C8.44125 6.44412 8.86443 6.60801 9.17644 6.89973C9.48845 7.19145 9.66374 7.58712 9.66374 7.99967C9.66374 8.41223 9.48845 8.8079 9.17644 9.09962C8.86443 9.39134 8.44125 9.55523 8 9.55523Z" />
</svg>
