<svg width="15" height="14" viewBox="0 0 15 14" fill="none" xmlns="http://www.w3.org/2000/svg">
<path id="Vector" d="M3.37457 4.39056V0H1.87452V4.39056C1.33285 4.55835 0.857857 4.90292 0.520137 5.37305C0.182417 5.84318 0 6.41377 0 7C0 7.58623 0.182417 8.15682 0.520137 8.62695C0.857857 9.09707 1.33285 9.44165 1.87452 9.60944V14H3.37457V9.60944C3.91624 9.44165 4.39123 9.09707 4.72895 8.62695C5.06667 8.15682 5.24909 7.58623 5.24909 7C5.24909 6.41377 5.06667 5.84318 4.72895 5.37305C4.39123 4.90292 3.91624 4.55835 3.37457 4.39056ZM1.4995 7C1.4995 6.84679 1.5286 6.69508 1.58514 6.55354C1.64168 6.41199 1.72455 6.28338 1.82902 6.17504C1.93349 6.06671 2.05751 5.98077 2.19401 5.92214C2.33051 5.86351 2.4768 5.83333 2.62454 5.83333C2.77229 5.83333 2.91858 5.86351 3.05508 5.92214C3.19158 5.98077 3.3156 6.06671 3.42007 6.17504C3.52454 6.28338 3.60741 6.41199 3.66395 6.55354C3.72049 6.69508 3.74959 6.84679 3.74959 7C3.74959 7.30942 3.63106 7.60616 3.42007 7.82496C3.20908 8.04375 2.92292 8.16667 2.62454 8.16667C2.32617 8.16667 2.04001 8.04375 1.82902 7.82496C1.61803 7.60616 1.4995 7.30942 1.4995 7ZM7.49972 0C7.3008 0 7.11003 0.0819443 6.96937 0.227806C6.82872 0.373668 6.7497 0.571498 6.7497 0.777778V5.44444C6.7497 5.65072 6.82872 5.84855 6.96937 5.99442C7.11003 6.14028 7.3008 6.22222 7.49972 6.22222H14.25C14.4489 6.22222 14.6397 6.14028 14.7803 5.99442C14.921 5.84855 15 5.65072 15 5.44444V0.777778C15 0.571498 14.921 0.373668 14.7803 0.227806C14.6397 0.0819443 14.4489 0 14.25 0H7.49972ZM8.24975 4.66667V1.55556H13.4999V4.66667H8.24975ZM6.7497 8.55556H15V10.1111H6.7497V8.55556ZM15 12.4444H6.7497V14H15V12.4444Z" fill="#0099FF"/>
</svg>
