<svg width="24" height="24" viewBox="0 0 24 24" fill="none" xmlns="http://www.w3.org/2000/svg">
<g clip-path="url(#clip0_15007_76992)">
<mask id="mask0_15007_76992" style="mask-type:alpha" maskUnits="userSpaceOnUse" x="0" y="0" width="24" height="24">
<path d="M12 0.480469C16.0789 0.480469 18.9286 1.39734 20.7656 3.23438C22.6027 5.07141 23.5195 7.92109 23.5195 12C23.5195 16.0789 22.6027 18.9286 20.7656 20.7656C18.9286 22.6027 16.0789 23.5195 12 23.5195C7.92109 23.5195 5.07141 22.6027 3.23438 20.7656C1.39734 18.9286 0.480469 16.0789 0.480469 12C0.480469 7.92109 1.39734 5.07141 3.23438 3.23438C5.07141 1.39734 7.92109 0.480469 12 0.480469Z" fill="#0099FF"/>
<path d="M12 0.480469C16.0789 0.480469 18.9286 1.39734 20.7656 3.23438C22.6027 5.07141 23.5195 7.92109 23.5195 12C23.5195 16.0789 22.6027 18.9286 20.7656 20.7656C18.9286 22.6027 16.0789 23.5195 12 23.5195C7.92109 23.5195 5.07141 22.6027 3.23438 20.7656C1.39734 18.9286 0.480469 16.0789 0.480469 12C0.480469 7.92109 1.39734 5.07141 3.23438 3.23438C5.07141 1.39734 7.92109 0.480469 12 0.480469Z" stroke="url(#paint0_linear_15007_76992)" stroke-width="0.96"/>
</mask>
<g mask="url(#mask0_15007_76992)">
<g filter="url(#filter0_di_15007_76992)">
<path d="M1.98869 6.53111C2.75648 4.41967 4.41967 2.75648 6.53111 1.98869V1.98869C6.99813 1.81886 7.48069 1.69528 7.97185 1.61972L9.09252 1.44731C11.0195 1.15085 12.9805 1.15085 14.9075 1.44731L16.0282 1.61972C16.5193 1.69528 17.0019 1.81886 17.4689 1.98869V1.98869C19.5803 2.75648 21.2435 4.41967 22.0113 6.53111V6.53111C22.1811 6.99813 22.3047 7.48069 22.3803 7.97185L22.5857 9.30694C22.86 11.0899 22.8353 12.906 22.5126 14.6808L22.4072 15.2606C22.3137 15.7748 22.1769 16.2803 21.9982 16.7715L21.873 17.1161C21.1815 19.0175 19.8199 20.6013 18.0437 21.5701V21.5701C17.1988 22.031 16.2802 22.3415 15.3289 22.4879L14.2293 22.657C12.7518 22.8843 11.2482 22.8843 9.7707 22.657L8.6711 22.4879C7.71982 22.3415 6.80122 22.031 5.95628 21.5701V21.5701C4.18007 20.6013 2.81848 19.0175 2.12705 17.1161L2.00175 16.7715C1.82313 16.2803 1.68633 15.7748 1.59283 15.2606L1.48742 14.6808C1.16473 12.906 1.14002 11.0898 1.41432 9.30694L1.61972 7.97185C1.69528 7.48069 1.81886 6.99813 1.98869 6.53111V6.53111Z" fill="#FF384C"/>
<path d="M9.16504 1.92188C11.0437 1.63286 12.9563 1.63286 14.835 1.92188L15.9551 2.09375C16.4151 2.16452 16.8673 2.28041 17.3047 2.43945C19.2827 3.15873 20.8413 4.7173 21.5605 6.69531C21.7196 7.13274 21.8355 7.58489 21.9062 8.04492L22.1113 9.37988C22.3775 11.11 22.3532 12.8724 22.04 14.5947L21.9346 15.1748C21.8459 15.6624 21.7162 16.1417 21.5469 16.6074L21.4219 16.9521C20.7704 18.7437 19.487 20.2356 17.8135 21.1484C17.0174 21.5826 16.1521 21.8758 15.2559 22.0137L14.1562 22.1826C12.7272 22.4025 11.2728 22.4025 9.84375 22.1826L8.74414 22.0137C7.84791 21.8758 6.98259 21.5826 6.18652 21.1484C4.51298 20.2356 3.22962 18.7437 2.57812 16.9521L2.45312 16.6074C2.28376 16.1417 2.15409 15.6624 2.06543 15.1748L1.95996 14.5947C1.64684 12.8724 1.62249 11.11 1.88867 9.37988L2.09375 8.04492C2.16452 7.58489 2.28041 7.13274 2.43945 6.69531C3.15873 4.7173 4.7173 3.15873 6.69531 2.43945C7.13274 2.28041 7.58489 2.16452 8.04492 2.09375L9.16504 1.92188Z" stroke="url(#paint1_linear_15007_76992)" stroke-width="0.96" style="mix-blend-mode:overlay"/>
</g>
<g filter="url(#filter1_ddii_15007_76992)">
<path d="M17.367 15.3499C16.5056 13.7663 15.6497 12.1804 14.7994 10.592L13.7281 8.5969C13.5048 8.18537 13.2839 7.77384 13.0583 7.36471C12.9795 7.22056 12.8718 7.09471 12.7421 6.99524C12.6124 6.89577 12.4636 6.82488 12.3053 6.78713C12.0314 6.71763 11.7422 6.74628 11.4868 6.86823C11.2313 6.99017 11.0254 7.1979 10.9039 7.45617L6.6284 15.3788C6.54723 15.5168 6.4937 15.6696 6.47088 15.8286C6.44805 15.9876 6.45638 16.1496 6.49538 16.3053C6.56231 16.5841 6.72283 16.8307 6.94946 17.0028C7.17609 17.1749 7.45473 17.2619 7.73765 17.2487H16.253C16.432 17.2501 16.6097 17.2191 16.778 17.1572C16.9361 17.0956 17.0794 17.0003 17.1982 16.8778C17.3171 16.7554 17.4086 16.6086 17.4668 16.4473C17.5297 16.268 17.5534 16.077 17.5362 15.8875C17.519 15.6979 17.4612 15.5145 17.367 15.3499ZM12.4906 15.4919H11.512C11.4706 15.4953 11.429 15.4898 11.39 15.4757C11.3509 15.4616 11.3152 15.4393 11.2853 15.4101C11.2555 15.381 11.232 15.3457 11.2166 15.3067C11.2012 15.2677 11.1942 15.2258 11.1961 15.1838V14.1538C11.1946 14.1129 11.2017 14.0721 11.2169 14.0341C11.232 13.9961 11.2549 13.9618 11.2841 13.9334C11.3132 13.905 11.3479 13.8832 11.386 13.8693C11.424 13.8555 11.4645 13.8499 11.5048 13.853H12.4977C12.5389 13.8495 12.5804 13.855 12.6194 13.8691C12.6584 13.8832 12.6939 13.9056 12.7236 13.9348C12.7533 13.9639 12.7765 13.9992 12.7916 14.0383C12.8067 14.0773 12.8134 14.1191 12.8112 14.161V15.1766C12.8142 15.2196 12.8079 15.2628 12.7927 15.303C12.7775 15.3433 12.7538 15.3797 12.7233 15.4098C12.6927 15.4398 12.6561 15.4627 12.6159 15.4769C12.5757 15.4911 12.5329 15.4962 12.4906 15.4919ZM12.8659 11.5185L12.8017 13.1021C12.8049 13.1416 12.7997 13.1813 12.7863 13.2185C12.7729 13.2557 12.7517 13.2896 12.7241 13.3177C12.6966 13.3458 12.6634 13.3676 12.6267 13.3815C12.5901 13.3953 12.551 13.401 12.512 13.3981H11.4953C11.2982 13.3981 11.2079 13.3018 11.1984 13.0973C11.1699 12.3031 11.1391 11.5065 11.1129 10.7099C11.1079 10.664 11.1124 10.6176 11.1264 10.5736C11.1403 10.5296 11.1632 10.4892 11.1937 10.4548C11.2252 10.424 11.2624 10.3998 11.3031 10.3837C11.3439 10.3676 11.3875 10.3599 11.4312 10.361H12.5618C12.6498 10.3586 12.7351 10.3915 12.7994 10.4524C12.8611 10.5178 12.8952 10.605 12.8944 10.6955L12.8659 11.5185Z" fill="white"/>
</g>
</g>
</g>
<defs>
<filter id="filter0_di_15007_76992" x="0.0255249" y="0.624609" width="23.949" height="24.0035" filterUnits="userSpaceOnUse" color-interpolation-filters="sRGB">
<feFlood flood-opacity="0" result="BackgroundImageFix"/>
<feColorMatrix in="SourceAlpha" type="matrix" values="0 0 0 0 0 0 0 0 0 0 0 0 0 0 0 0 0 0 127 0" result="hardAlpha"/>
<feOffset dy="0.6"/>
<feGaussianBlur stdDeviation="0.6"/>
<feComposite in2="hardAlpha" operator="out"/>
<feColorMatrix type="matrix" values="0 0 0 0 0.0666667 0 0 0 0 0.0980392 0 0 0 0 0.117647 0 0 0 0.05 0"/>
<feBlend mode="normal" in2="BackgroundImageFix" result="effect1_dropShadow_15007_76992"/>
<feBlend mode="normal" in="SourceGraphic" in2="effect1_dropShadow_15007_76992" result="shape"/>
<feColorMatrix in="SourceAlpha" type="matrix" values="0 0 0 0 0 0 0 0 0 0 0 0 0 0 0 0 0 0 127 0" result="hardAlpha"/>
<feOffset dx="0.96" dy="0.96"/>
<feGaussianBlur stdDeviation="0.96"/>
<feComposite in2="hardAlpha" operator="arithmetic" k2="-1" k3="1"/>
<feColorMatrix type="matrix" values="0 0 0 0 0.0666667 0 0 0 0 0.0980392 0 0 0 0 0.117647 0 0 0 0.2 0"/>
<feBlend mode="normal" in2="shape" result="effect2_innerShadow_15007_76992"/>
</filter>
<filter id="filter1_ddii_15007_76992" x="-1.68571" y="-1.68571" width="27.8857" height="27.8857" filterUnits="userSpaceOnUse" color-interpolation-filters="sRGB">
<feFlood flood-opacity="0" result="BackgroundImageFix"/>
<feColorMatrix in="SourceAlpha" type="matrix" values="0 0 0 0 0 0 0 0 0 0 0 0 0 0 0 0 0 0 127 0" result="hardAlpha"/>
<feOffset dx="1.54286" dy="1.54286"/>
<feGaussianBlur stdDeviation="2.82857"/>
<feComposite in2="hardAlpha" operator="out"/>
<feColorMatrix type="matrix" values="0 0 0 0 1 0 0 0 0 0.219608 0 0 0 0 0.298039 0 0 0 1 0"/>
<feBlend mode="normal" in2="BackgroundImageFix" result="effect1_dropShadow_15007_76992"/>
<feColorMatrix in="SourceAlpha" type="matrix" values="0 0 0 0 0 0 0 0 0 0 0 0 0 0 0 0 0 0 127 0" result="hardAlpha"/>
<feOffset dx="-1.54286" dy="-1.54286"/>
<feGaussianBlur stdDeviation="2.57143"/>
<feComposite in2="hardAlpha" operator="out"/>
<feColorMatrix type="matrix" values="0 0 0 0 1 0 0 0 0 1 0 0 0 0 1 0 0 0 0.4 0"/>
<feBlend mode="normal" in2="effect1_dropShadow_15007_76992" result="effect2_dropShadow_15007_76992"/>
<feBlend mode="normal" in="SourceGraphic" in2="effect2_dropShadow_15007_76992" result="shape"/>
<feColorMatrix in="SourceAlpha" type="matrix" values="0 0 0 0 0 0 0 0 0 0 0 0 0 0 0 0 0 0 127 0" result="hardAlpha"/>
<feOffset dy="-0.771429"/>
<feGaussianBlur stdDeviation="0.591429"/>
<feComposite in2="hardAlpha" operator="arithmetic" k2="-1" k3="1"/>
<feColorMatrix type="matrix" values="0 0 0 0 1 0 0 0 0 0.219608 0 0 0 0 0.298039 0 0 0 0.4 0"/>
<feBlend mode="normal" in2="shape" result="effect3_innerShadow_15007_76992"/>
<feColorMatrix in="SourceAlpha" type="matrix" values="0 0 0 0 0 0 0 0 0 0 0 0 0 0 0 0 0 0 127 0" result="hardAlpha"/>
<feOffset dy="-0.257143"/>
<feGaussianBlur stdDeviation="0.334286"/>
<feComposite in2="hardAlpha" operator="arithmetic" k2="-1" k3="1"/>
<feColorMatrix type="matrix" values="0 0 0 0 1 0 0 0 0 1 0 0 0 0 1 0 0 0 0.6 0"/>
<feBlend mode="normal" in2="effect3_innerShadow_15007_76992" result="effect4_innerShadow_15007_76992"/>
</filter>
<linearGradient id="paint0_linear_15007_76992" x1="4.08" y1="6.48" x2="22.08" y2="28.56" gradientUnits="userSpaceOnUse">
<stop stop-color="#11191E" stop-opacity="0.4"/>
<stop offset="1" stop-color="white"/>
</linearGradient>
<linearGradient id="paint1_linear_15007_76992" x1="4.74" y1="6.94" x2="20.5937" y2="21.625" gradientUnits="userSpaceOnUse">
<stop stop-color="#11191E"/>
<stop offset="1" stop-color="white"/>
</linearGradient>
<clipPath id="clip0_15007_76992">
<rect width="24" height="24" fill="white"/>
</clipPath>
</defs>
</svg>
