<svg width="24" height="24" viewBox="0 0 24 24" fill="none" xmlns="http://www.w3.org/2000/svg">
<mask id="mask0_10489_49963" style="mask-type:alpha" maskUnits="userSpaceOnUse" x="0" y="0" width="24" height="24">
<path d="M0.533333 12C0.533333 7.92787 1.44931 5.09494 3.27212 3.27212C5.09494 1.44931 7.92787 0.533333 12 0.533333C16.0721 0.533333 18.9051 1.44931 20.7279 3.27212C22.5507 5.09494 23.4667 7.92787 23.4667 12C23.4667 16.0721 22.5507 18.9051 20.7279 20.7279C18.9051 22.5507 16.0721 23.4667 12 23.4667C7.92787 23.4667 5.09494 22.5507 3.27212 20.7279C1.44931 18.9051 0.533333 16.0721 0.533333 12Z" fill="#0099FF"/>
<path d="M0.533333 12C0.533333 7.92787 1.44931 5.09494 3.27212 3.27212C5.09494 1.44931 7.92787 0.533333 12 0.533333C16.0721 0.533333 18.9051 1.44931 20.7279 3.27212C22.5507 5.09494 23.4667 7.92787 23.4667 12C23.4667 16.0721 22.5507 18.9051 20.7279 20.7279C18.9051 22.5507 16.0721 23.4667 12 23.4667C7.92787 23.4667 5.09494 22.5507 3.27212 20.7279C1.44931 18.9051 0.533333 16.0721 0.533333 12Z" stroke="url(#paint0_linear_10489_49963)" stroke-width="1.06667"/>
</mask>
<g mask="url(#mask0_10489_49963)">
<g filter="url(#filter0_di_10489_49963)">
<path d="M1.98869 6.53111C2.75648 4.41967 4.41967 2.75648 6.53111 1.98869V1.98869C6.99813 1.81886 7.48069 1.69528 7.97185 1.61972L9.09252 1.44731C11.0195 1.15085 12.9805 1.15085 14.9075 1.44731L16.0281 1.61972C16.5193 1.69528 17.0019 1.81886 17.4689 1.98869V1.98869C19.5803 2.75648 21.2435 4.41967 22.0113 6.53111V6.53111C22.1811 6.99813 22.3047 7.48069 22.3803 7.97185L22.5857 9.30694C22.86 11.0899 22.8353 12.906 22.5126 14.6808L22.4072 15.2606C22.3137 15.7748 22.1769 16.2803 21.9982 16.7715L21.873 17.1161C21.1815 19.0175 19.8199 20.6012 18.0437 21.5701V21.5701C17.1988 22.031 16.2802 22.3415 15.3289 22.4879L14.2293 22.657C12.7518 22.8843 11.2482 22.8843 9.7707 22.657L8.6711 22.4879C7.71982 22.3415 6.80122 22.031 5.95628 21.5701V21.5701C4.18007 20.6012 2.81848 19.0175 2.12705 17.1161L2.00175 16.7715C1.82313 16.2803 1.68633 15.7748 1.59283 15.2606L1.48742 14.6808C1.16473 12.906 1.14002 11.0898 1.41432 9.30694L1.61972 7.97185C1.69528 7.48069 1.81886 6.99813 1.98869 6.53111V6.53111Z" fill="#0099FF"/>
<path d="M14.8315 1.94149L15.9521 2.1139C16.4109 2.18449 16.8617 2.29994 17.298 2.45858C19.2705 3.17584 20.8242 4.72954 21.5414 6.70198C21.7001 7.13826 21.8155 7.58905 21.8861 8.04788L22.0915 9.38297C22.3573 11.111 22.3334 12.8712 22.0206 14.5914L21.9152 15.1711C21.8268 15.6577 21.6974 16.1359 21.5284 16.6006L21.4031 16.9452C20.7532 18.7322 19.4736 20.2206 17.8043 21.1311C17.0102 21.5643 16.1469 21.8561 15.2529 21.9937L14.1533 22.1628C12.7262 22.3824 11.2738 22.3824 9.84673 22.1628L8.74712 21.9937C7.85311 21.8561 6.98979 21.5643 6.1957 21.1311C4.5264 20.2206 3.24677 18.7322 2.59695 16.9452L2.47165 16.6006C2.30265 16.1359 2.17323 15.6577 2.08476 15.1711L1.97935 14.5914C1.6666 12.8712 1.64266 11.111 1.9085 9.38297L2.1139 8.04788C2.18449 7.58905 2.29994 7.13826 2.45858 6.70198C3.17584 4.72954 4.72954 3.17584 6.70198 2.45858C7.13826 2.29994 7.58905 2.18449 8.04788 2.1139L9.16854 1.94149C11.0451 1.65278 12.9549 1.65278 14.8315 1.94149Z" stroke="url(#paint1_linear_10489_49963)" style="mix-blend-mode:overlay"/>
</g>
<g filter="url(#filter1_ddii_10489_49963)">
<path d="M15.9906 6.22247L16.3878 5.4982C16.4672 5.3553 16.6414 5.30333 16.7789 5.38777C16.9164 5.47222 16.9622 5.65735 16.8828 5.80025L16.4856 6.52453C16.4306 6.62196 16.3359 6.67393 16.2381 6.67393C16.1892 6.67393 16.1403 6.66094 16.0945 6.63171C15.96 6.55051 15.9111 6.36538 15.9906 6.22247ZM13.9434 4.9688C13.9434 4.80316 14.0717 4.66675 14.2306 4.66675C14.3895 4.66675 14.5178 4.80316 14.5178 4.9688V5.80675C14.5178 5.97239 14.3895 6.1088 14.2306 6.1088C14.0717 6.1088 13.9434 5.97239 13.9434 5.80675V4.9688ZM11.6762 5.38777C11.8137 5.30333 11.9879 5.35205 12.0673 5.4982L12.4646 6.22247C12.544 6.36863 12.4982 6.55051 12.3607 6.63495C12.3148 6.66094 12.266 6.67393 12.2171 6.67393C12.1193 6.67393 12.0215 6.61871 11.9696 6.52453L11.5724 5.80025C11.4929 5.6541 11.5387 5.46897 11.6762 5.38777ZM9.80934 7.35273C9.88879 7.20658 10.066 7.15786 10.2035 7.2423L10.891 7.66128C11.0285 7.74572 11.0743 7.93085 10.9949 8.07376C10.9429 8.17119 10.8452 8.22316 10.7474 8.22316C10.6985 8.22316 10.6496 8.21017 10.6038 8.18418L9.91323 7.76521C9.77573 7.68401 9.7299 7.49889 9.80934 7.35273ZM9.65046 9.73991H11.2882C11.4715 9.73991 11.6335 9.86982 11.6824 10.0582L12.5318 13.3719C12.6021 13.6447 12.4065 13.911 12.1376 13.911H10.4999C10.3166 13.911 10.1546 13.7811 10.1057 13.5927L9.2563 10.2791C9.18602 10.0062 9.38157 9.73991 9.65046 9.73991ZM12.7029 9.73991H14.6248C14.8081 9.73991 14.9701 9.86982 15.0189 10.0582L15.8684 13.3719C15.9386 13.6447 15.7431 13.911 15.4742 13.911H13.5523C13.369 13.911 13.207 13.7811 13.1582 13.5927L12.3087 10.2791C12.2415 10.0062 12.4371 9.73991 12.7029 9.73991ZM6.76302 13.5927L6.56794 12.8782L5.21389 17.5616C5.18028 17.6915 5.06723 17.7792 4.94501 17.7792C4.92057 17.7792 4.89612 17.776 4.87168 17.7695C4.72501 17.7273 4.6364 17.5681 4.67613 17.4122L6.27156 11.7772C6.27461 11.7707 6.27767 11.7609 6.28072 11.7544L6.07601 10.2823C6.00573 10.0095 6.20128 9.74316 6.47016 9.74316H8.23271C8.41604 9.74316 8.57798 9.87307 8.62687 10.0614L9.47629 13.3751C9.54657 13.6479 9.35102 13.9143 9.08214 13.9143H7.15718C6.97385 13.911 6.81191 13.7811 6.76302 13.5927ZM10.2188 18.6667H8.29382C8.11049 18.6667 7.94855 18.5368 7.89966 18.3485L7.12968 15.0348C7.0594 14.762 7.25496 14.4956 7.52384 14.4956H9.44879C9.63212 14.4956 9.79406 14.6256 9.84295 14.8139L10.6129 18.1276C10.6802 18.4004 10.4846 18.6667 10.2188 18.6667ZM13.2712 18.6667H11.6335C11.4501 18.6667 11.2882 18.5368 11.2393 18.3485L10.4693 15.0348C10.3991 14.762 10.5946 14.4956 10.8635 14.4956H12.5012C12.6846 14.4956 12.8465 14.6256 12.8954 14.8139L13.6654 18.1276C13.7356 18.4004 13.5401 18.6667 13.2712 18.6667ZM16.6139 18.6667H14.692C14.5087 18.6667 14.3467 18.5368 14.2979 18.3485L13.5279 15.0348C13.4576 14.762 13.6531 14.4956 13.922 14.4956H15.8439C16.0273 14.4956 16.1892 14.6256 16.2381 14.8139L17.0081 18.1276C17.0753 18.4004 16.8797 18.6667 16.6139 18.6667ZM16.122 12.1336L15.4742 9.58726C15.41 9.33068 15.1901 9.1553 14.9364 9.1553H11.5387C11.9024 7.81718 13.1398 6.86555 14.5606 7.04094C15.8378 7.19683 16.8645 8.28812 17.0081 9.63273C17.115 10.6233 16.7484 11.5262 16.122 12.1336ZM17.7108 8.22641C17.6131 8.22641 17.5153 8.17119 17.4633 8.07376C17.3839 7.93085 17.4328 7.74572 17.5672 7.66128L18.2578 7.2423C18.3953 7.15786 18.5694 7.20983 18.6489 7.35273C18.7283 7.49889 18.6794 7.68077 18.5419 7.76521L17.8514 8.18418C17.8086 8.21341 17.7597 8.22641 17.7108 8.22641ZM19.0461 10.344H18.2516C18.0928 10.344 17.9644 10.2076 17.9644 10.042C17.9644 9.87632 18.0928 9.73991 18.2516 9.73991H19.0461C19.205 9.73991 19.3333 9.87632 19.3333 10.042C19.3333 10.2076 19.205 10.344 19.0461 10.344Z" fill="white"/>
</g>
</g>
<defs>
<filter id="filter0_di_10489_49963" x="-0.10787" y="0.558187" width="24.2157" height="24.2692" filterUnits="userSpaceOnUse" color-interpolation-filters="sRGB">
<feFlood flood-opacity="0" result="BackgroundImageFix"/>
<feColorMatrix in="SourceAlpha" type="matrix" values="0 0 0 0 0 0 0 0 0 0 0 0 0 0 0 0 0 0 127 0" result="hardAlpha"/>
<feOffset dy="0.666667"/>
<feGaussianBlur stdDeviation="0.666667"/>
<feComposite in2="hardAlpha" operator="out"/>
<feColorMatrix type="matrix" values="0 0 0 0 0.0666667 0 0 0 0 0.0980392 0 0 0 0 0.117647 0 0 0 0.05 0"/>
<feBlend mode="normal" in2="BackgroundImageFix" result="effect1_dropShadow_10489_49963"/>
<feBlend mode="normal" in="SourceGraphic" in2="effect1_dropShadow_10489_49963" result="shape"/>
<feColorMatrix in="SourceAlpha" type="matrix" values="0 0 0 0 0 0 0 0 0 0 0 0 0 0 0 0 0 0 127 0" result="hardAlpha"/>
<feOffset dx="1.06667" dy="1.06667"/>
<feGaussianBlur stdDeviation="1.06667"/>
<feComposite in2="hardAlpha" operator="arithmetic" k2="-1" k3="1"/>
<feColorMatrix type="matrix" values="0 0 0 0 0.0666667 0 0 0 0 0.0980392 0 0 0 0 0.117647 0 0 0 0.1 0"/>
<feBlend mode="normal" in2="shape" result="effect2_innerShadow_10489_49963"/>
</filter>
<filter id="filter1_ddii_10489_49963" x="-3.42857" y="-3.42857" width="31.4286" height="31.4286" filterUnits="userSpaceOnUse" color-interpolation-filters="sRGB">
<feFlood flood-opacity="0" result="BackgroundImageFix"/>
<feColorMatrix in="SourceAlpha" type="matrix" values="0 0 0 0 0 0 0 0 0 0 0 0 0 0 0 0 0 0 127 0" result="hardAlpha"/>
<feOffset dx="1.71429" dy="1.71429"/>
<feGaussianBlur stdDeviation="3.14286"/>
<feComposite in2="hardAlpha" operator="out"/>
<feColorMatrix type="matrix" values="0 0 0 0 0.321569 0 0 0 0 0.435294 0 0 0 0 1 0 0 0 1 0"/>
<feBlend mode="normal" in2="BackgroundImageFix" result="effect1_dropShadow_10489_49963"/>
<feColorMatrix in="SourceAlpha" type="matrix" values="0 0 0 0 0 0 0 0 0 0 0 0 0 0 0 0 0 0 127 0" result="hardAlpha"/>
<feOffset dx="-1.71429" dy="-1.71429"/>
<feGaussianBlur stdDeviation="2.85714"/>
<feComposite in2="hardAlpha" operator="out"/>
<feColorMatrix type="matrix" values="0 0 0 0 1 0 0 0 0 1 0 0 0 0 1 0 0 0 0.4 0"/>
<feBlend mode="normal" in2="effect1_dropShadow_10489_49963" result="effect2_dropShadow_10489_49963"/>
<feBlend mode="normal" in="SourceGraphic" in2="effect2_dropShadow_10489_49963" result="shape"/>
<feColorMatrix in="SourceAlpha" type="matrix" values="0 0 0 0 0 0 0 0 0 0 0 0 0 0 0 0 0 0 127 0" result="hardAlpha"/>
<feOffset dy="-0.857143"/>
<feGaussianBlur stdDeviation="0.657143"/>
<feComposite in2="hardAlpha" operator="arithmetic" k2="-1" k3="1"/>
<feColorMatrix type="matrix" values="0 0 0 0 0 0 0 0 0 0.598039 0 0 0 0 1 0 0 0 0.4 0"/>
<feBlend mode="normal" in2="shape" result="effect3_innerShadow_10489_49963"/>
<feColorMatrix in="SourceAlpha" type="matrix" values="0 0 0 0 0 0 0 0 0 0 0 0 0 0 0 0 0 0 127 0" result="hardAlpha"/>
<feOffset dy="-0.285714"/>
<feGaussianBlur stdDeviation="0.371429"/>
<feComposite in2="hardAlpha" operator="arithmetic" k2="-1" k3="1"/>
<feColorMatrix type="matrix" values="0 0 0 0 1 0 0 0 0 1 0 0 0 0 1 0 0 0 0.6 0"/>
<feBlend mode="normal" in2="effect3_innerShadow_10489_49963" result="effect4_innerShadow_10489_49963"/>
</filter>
<linearGradient id="paint0_linear_10489_49963" x1="4.08" y1="6.48" x2="22.08" y2="28.56" gradientUnits="userSpaceOnUse">
<stop stop-color="#11191E" stop-opacity="0.4"/>
<stop offset="1" stop-color="white"/>
</linearGradient>
<linearGradient id="paint1_linear_10489_49963" x1="4.74" y1="6.94" x2="21.24" y2="27.18" gradientUnits="userSpaceOnUse">
<stop stop-color="#11191E" stop-opacity="0.4"/>
<stop offset="1" stop-color="white"/>
</linearGradient>
</defs>
</svg>
