<svg width="40" height="40" viewBox="0 0 40 40" fill="none" xmlns="http://www.w3.org/2000/svg">
<g filter="url(#filter0_i_4582_13413)">
<path d="M1 20C1 6.89 6.89 1 20 1C33.11 1 39 6.89 39 20C39 33.11 33.11 39 20 39C6.89 39 1 33.11 1 20Z" fill="#0099FF"/>
</g>
<path d="M2 20C2 13.5723 3.44621 9.1355 6.29086 6.29086C9.1355 3.44621 13.5723 2 20 2C26.4277 2 30.8645 3.44621 33.7091 6.29086C36.5538 9.1355 38 13.5723 38 20C38 26.4277 36.5538 30.8645 33.7091 33.7091C30.8645 36.5538 26.4277 38 20 38C13.5723 38 9.1355 36.5538 6.29086 33.7091C3.44621 30.8645 2 26.4277 2 20Z" stroke="url(#paint0_linear_4582_13413)" stroke-width="2" style="mix-blend-mode:overlay"/>
<mask id="mask0_4582_13413" style="mask-type:alpha" maskUnits="userSpaceOnUse" x="0" y="0" width="40" height="40">
<path d="M1 20C1 13.2273 2.52371 8.5405 5.53211 5.53211C8.5405 2.52371 13.2273 1 20 1C26.7727 1 31.4595 2.52371 34.4679 5.53211C37.4763 8.5405 39 13.2273 39 20C39 26.7727 37.4763 31.4595 34.4679 34.4679C31.4595 37.4763 26.7727 39 20 39C13.2273 39 8.5405 37.4763 5.53211 34.4679C2.52371 31.4595 1 26.7727 1 20Z" fill="#0099FF"/>
<path d="M1 20C1 13.2273 2.52371 8.5405 5.53211 5.53211C8.5405 2.52371 13.2273 1 20 1C26.7727 1 31.4595 2.52371 34.4679 5.53211C37.4763 8.5405 39 13.2273 39 20C39 26.7727 37.4763 31.4595 34.4679 34.4679C31.4595 37.4763 26.7727 39 20 39C13.2273 39 8.5405 37.4763 5.53211 34.4679C2.52371 31.4595 1 26.7727 1 20Z" stroke="url(#paint1_linear_4582_13413)" stroke-width="2"/>
</mask>
<g mask="url(#mask0_4582_13413)">
<g filter="url(#filter1_ddii_4582_13413)">
<path d="M27.5751 20.0069C25.8962 20.0069 24.486 21.258 24.2039 22.9079L22.6325 22.5917C22.6593 22.3992 22.6728 22.2067 22.6728 22.0142C22.6728 19.8144 20.9133 18.0133 18.7643 18.0133C18.4823 18.0133 18.2137 18.0408 17.9585 18.0958L17.381 16.5697C17.9316 16.1572 18.2943 15.4973 18.2943 14.7548C18.2943 13.5174 17.3138 12.5 16.0916 12.5C14.8694 12.5 13.8889 13.5037 13.8889 14.7548C13.8889 16.006 14.8694 17.0096 16.0916 17.0096C16.2259 17.0096 16.3468 16.9959 16.4811 16.9684L17.0452 18.4258C15.7558 19.0857 14.8694 20.4331 14.8694 22.0005C14.8694 22.4679 14.9499 22.9079 15.0977 23.3203L13.1905 24.2965C12.8413 23.5266 12.0891 22.9904 11.2027 22.9904C9.9939 22.9904 9 23.994 9 25.2452C9 26.4826 9.98046 27.5 11.2027 27.5C12.398 27.5 13.3651 26.5238 13.3919 25.3139L15.5275 24.2278C16.2259 25.3002 17.4212 26.0014 18.7778 26.0014C20.4029 26.0014 21.7863 24.984 22.3773 23.5541L24.177 23.9253C24.3785 25.6577 25.8156 27.005 27.5751 27.005C29.4554 27.005 31 25.4377 31 23.4991C31 21.5605 29.4554 20.0069 27.5751 20.0069ZM18.7778 25.0115C17.1661 25.0115 15.8498 23.6641 15.8498 22.0142C15.8498 20.3643 17.1661 19.017 18.7778 19.017C20.3895 19.017 21.7057 20.3643 21.7057 22.0142C21.7057 23.6641 20.3895 25.0115 18.7778 25.0115Z" fill="white" stroke="white" stroke-width="0.75"/>
</g>
</g>
<defs>
<filter id="filter0_i_4582_13413" x="1" y="1" width="40" height="40" filterUnits="userSpaceOnUse" color-interpolation-filters="sRGB">
<feFlood flood-opacity="0" result="BackgroundImageFix"/>
<feBlend mode="normal" in="SourceGraphic" in2="BackgroundImageFix" result="shape"/>
<feColorMatrix in="SourceAlpha" type="matrix" values="0 0 0 0 0 0 0 0 0 0 0 0 0 0 0 0 0 0 127 0" result="hardAlpha"/>
<feOffset dx="2" dy="2"/>
<feGaussianBlur stdDeviation="2"/>
<feComposite in2="hardAlpha" operator="arithmetic" k2="-1" k3="1"/>
<feColorMatrix type="matrix" values="0 0 0 0 0.0666667 0 0 0 0 0.0980392 0 0 0 0 0.117647 0 0 0 0.1 0"/>
<feBlend mode="normal" in2="shape" result="effect1_innerShadow_4582_13413"/>
</filter>
<filter id="filter1_ddii_4582_13413" x="-3.14286" y="-3.14286" width="47.1429" height="47.1429" filterUnits="userSpaceOnUse" color-interpolation-filters="sRGB">
<feFlood flood-opacity="0" result="BackgroundImageFix"/>
<feColorMatrix in="SourceAlpha" type="matrix" values="0 0 0 0 0 0 0 0 0 0 0 0 0 0 0 0 0 0 127 0" result="hardAlpha"/>
<feOffset dx="2.57143" dy="2.57143"/>
<feGaussianBlur stdDeviation="4.71429"/>
<feComposite in2="hardAlpha" operator="out"/>
<feColorMatrix type="matrix" values="0 0 0 0 0.321569 0 0 0 0 0.435294 0 0 0 0 1 0 0 0 1 0"/>
<feBlend mode="normal" in2="BackgroundImageFix" result="effect1_dropShadow_4582_13413"/>
<feColorMatrix in="SourceAlpha" type="matrix" values="0 0 0 0 0 0 0 0 0 0 0 0 0 0 0 0 0 0 127 0" result="hardAlpha"/>
<feOffset dx="-2.57143" dy="-2.57143"/>
<feGaussianBlur stdDeviation="4.28571"/>
<feComposite in2="hardAlpha" operator="out"/>
<feColorMatrix type="matrix" values="0 0 0 0 1 0 0 0 0 1 0 0 0 0 1 0 0 0 0.4 0"/>
<feBlend mode="normal" in2="effect1_dropShadow_4582_13413" result="effect2_dropShadow_4582_13413"/>
<feBlend mode="normal" in="SourceGraphic" in2="effect2_dropShadow_4582_13413" result="shape"/>
<feColorMatrix in="SourceAlpha" type="matrix" values="0 0 0 0 0 0 0 0 0 0 0 0 0 0 0 0 0 0 127 0" result="hardAlpha"/>
<feOffset dy="-1.28571"/>
<feGaussianBlur stdDeviation="0.985714"/>
<feComposite in2="hardAlpha" operator="arithmetic" k2="-1" k3="1"/>
<feColorMatrix type="matrix" values="0 0 0 0 0 0 0 0 0 0.598039 0 0 0 0 1 0 0 0 0.4 0"/>
<feBlend mode="normal" in2="shape" result="effect3_innerShadow_4582_13413"/>
<feColorMatrix in="SourceAlpha" type="matrix" values="0 0 0 0 0 0 0 0 0 0 0 0 0 0 0 0 0 0 127 0" result="hardAlpha"/>
<feOffset dy="-0.428571"/>
<feGaussianBlur stdDeviation="0.557143"/>
<feComposite in2="hardAlpha" operator="arithmetic" k2="-1" k3="1"/>
<feColorMatrix type="matrix" values="0 0 0 0 1 0 0 0 0 1 0 0 0 0 1 0 0 0 0.6 0"/>
<feBlend mode="normal" in2="effect3_innerShadow_4582_13413" result="effect4_innerShadow_4582_13413"/>
</filter>
<linearGradient id="paint0_linear_4582_13413" x1="7.46" y1="11.26" x2="35.96" y2="46.22" gradientUnits="userSpaceOnUse">
<stop stop-color="#11191E" stop-opacity="0.4"/>
<stop offset="0.992881" stop-color="white"/>
</linearGradient>
<linearGradient id="paint1_linear_4582_13413" x1="6.8" y1="10.8" x2="36.8" y2="47.6" gradientUnits="userSpaceOnUse">
<stop stop-color="#11191E" stop-opacity="0.4"/>
<stop offset="0.992881" stop-color="white"/>
</linearGradient>
</defs>
</svg>
