<svg width="40" height="40" viewBox="0 0 40 40" fill="none" xmlns="http://www.w3.org/2000/svg">
<g filter="url(#filter0_i_5826_56970)">
<path d="M1 20C1 6.89 6.89 1 20 1C33.11 1 39 6.89 39 20C39 33.11 33.11 39 20 39C6.89 39 1 33.11 1 20Z" fill="#0099FF"/>
</g>
<path d="M2 20C2 13.5723 3.44621 9.1355 6.29086 6.29086C9.1355 3.44621 13.5723 2 20 2C26.4277 2 30.8645 3.44621 33.7091 6.29086C36.5538 9.1355 38 13.5723 38 20C38 26.4277 36.5538 30.8645 33.7091 33.7091C30.8645 36.5538 26.4277 38 20 38C13.5723 38 9.1355 36.5538 6.29086 33.7091C3.44621 30.8645 2 26.4277 2 20Z" stroke="url(#paint0_linear_5826_56970)" stroke-width="2" style="mix-blend-mode:overlay"/>
<mask id="mask0_5826_56970" style="mask-type:alpha" maskUnits="userSpaceOnUse" x="0" y="0" width="40" height="40">
<path d="M1 20C1 13.2273 2.52371 8.5405 5.53211 5.53211C8.5405 2.52371 13.2273 1 20 1C26.7727 1 31.4595 2.52371 34.4679 5.53211C37.4763 8.5405 39 13.2273 39 20C39 26.7727 37.4763 31.4595 34.4679 34.4679C31.4595 37.4763 26.7727 39 20 39C13.2273 39 8.5405 37.4763 5.53211 34.4679C2.52371 31.4595 1 26.7727 1 20Z" fill="#0099FF"/>
<path d="M1 20C1 13.2273 2.52371 8.5405 5.53211 5.53211C8.5405 2.52371 13.2273 1 20 1C26.7727 1 31.4595 2.52371 34.4679 5.53211C37.4763 8.5405 39 13.2273 39 20C39 26.7727 37.4763 31.4595 34.4679 34.4679C31.4595 37.4763 26.7727 39 20 39C13.2273 39 8.5405 37.4763 5.53211 34.4679C2.52371 31.4595 1 26.7727 1 20Z" stroke="url(#paint1_linear_5826_56970)" stroke-width="2"/>
</mask>
<g mask="url(#mask0_5826_56970)">
<g filter="url(#filter1_ddii_5826_56970)">
<path d="M25.9859 11.3336L26.5818 10.2472C26.7009 10.0328 26.9622 9.95487 27.1684 10.0815C27.3747 10.2082 27.4434 10.4859 27.3243 10.7003L26.7284 11.7867C26.6459 11.9328 26.5039 12.0108 26.3572 12.0108C26.2839 12.0108 26.2105 11.9913 26.1418 11.9474C25.9401 11.8256 25.8668 11.5479 25.9859 11.3336ZM22.9152 9.45308C22.9152 9.20461 23.1077 9 23.346 9C23.5843 9 23.7768 9.20461 23.7768 9.45308V10.71C23.7768 10.9585 23.5843 11.1631 23.346 11.1631C23.1077 11.1631 22.9152 10.9585 22.9152 10.71V9.45308ZM19.5144 10.0815C19.7207 9.95487 19.9819 10.0279 20.1011 10.2472L20.6969 11.3336C20.8161 11.5528 20.7473 11.8256 20.5411 11.9523C20.4723 11.9913 20.399 12.0108 20.3257 12.0108C20.179 12.0108 20.0323 11.9279 19.9544 11.7867L19.3586 10.7003C19.2394 10.481 19.3082 10.2033 19.5144 10.0815ZM16.7141 13.029C16.8332 12.8097 17.0991 12.7367 17.3053 12.8633L18.3365 13.4918C18.5428 13.6185 18.6115 13.8962 18.4924 14.1105C18.4145 14.2567 18.2678 14.3346 18.1211 14.3346C18.0478 14.3346 17.9745 14.3151 17.9057 14.2762L16.8699 13.6477C16.6637 13.5259 16.5949 13.2482 16.7141 13.029ZM16.4757 16.6097H18.9324C19.2074 16.6097 19.4503 16.8046 19.5236 17.0872L20.7977 22.0577C20.9031 22.4669 20.6098 22.8664 20.2065 22.8664H17.7499C17.4749 22.8664 17.232 22.6715 17.1586 22.389L15.8845 17.4185C15.7791 17.0092 16.0724 16.6097 16.4757 16.6097ZM21.0544 16.6097H23.9372C24.2122 16.6097 24.4551 16.8046 24.5285 17.0872L25.8026 22.0577C25.908 22.4669 25.6147 22.8664 25.2114 22.8664H22.3285C22.0535 22.8664 21.8106 22.6715 21.7373 22.389L20.4632 17.4185C20.3623 17.0092 20.6557 16.6097 21.0544 16.6097ZM12.1446 22.389L11.852 21.3172L9.8209 28.3423C9.77048 28.5372 9.6009 28.6687 9.41757 28.6687C9.38091 28.6687 9.34424 28.6638 9.30758 28.6541C9.08758 28.5908 8.95467 28.3521 9.01425 28.1182L11.4074 19.6656C11.412 19.6559 11.4166 19.6413 11.4211 19.6315L11.1141 17.4233C11.0087 17.0141 11.302 16.6146 11.7053 16.6146H14.3491C14.6241 16.6146 14.867 16.8095 14.9404 17.0921L16.2145 22.0626C16.3199 22.4718 16.0266 22.8713 15.6233 22.8713H12.7358C12.4608 22.8664 12.2179 22.6715 12.1446 22.389ZM17.3282 30H14.4408C14.1658 30 13.9229 29.8051 13.8496 29.5226L12.6946 24.5521C12.5892 24.1428 12.8825 23.7433 13.2858 23.7433H16.1733C16.4482 23.7433 16.6912 23.9382 16.7645 24.2208L17.9195 29.1913C18.0203 29.6005 17.727 30 17.3282 30ZM21.9069 30H19.4503C19.1753 30 18.9324 29.8051 18.859 29.5226L17.7041 24.5521C17.5986 24.1428 17.892 23.7433 18.2953 23.7433H20.7519C21.0269 23.7433 21.2698 23.9382 21.3431 24.2208L22.4981 29.1913C22.6035 29.6005 22.3102 30 21.9069 30ZM26.9209 30H24.0381C23.7631 30 23.5202 29.8051 23.4468 29.5226L22.2919 24.5521C22.1864 24.1428 22.4798 23.7433 22.8831 23.7433H25.766C26.0409 23.7433 26.2839 23.9382 26.3572 24.2208L27.5122 29.1913C27.613 29.6005 27.3197 30 26.9209 30ZM26.183 20.2003L25.2114 16.3808C25.1151 15.9959 24.7851 15.7328 24.4047 15.7328H19.3082C19.8536 13.7256 21.7098 12.2982 23.841 12.5613C25.7568 12.7951 27.2968 14.4321 27.5122 16.449C27.6726 17.9349 27.1226 19.2892 26.183 20.2003ZM28.5663 14.3395C28.4196 14.3395 28.273 14.2567 28.1951 14.1105C28.0759 13.8962 28.1492 13.6185 28.3509 13.4918L29.3867 12.8633C29.5929 12.7367 29.8542 12.8146 29.9734 13.029C30.0925 13.2482 30.0192 13.521 29.8129 13.6477L28.7771 14.2762C28.713 14.32 28.6396 14.3395 28.5663 14.3395ZM30.5692 17.5159H29.3775C29.1392 17.5159 28.9467 17.3113 28.9467 17.0628C28.9467 16.8144 29.1392 16.6097 29.3775 16.6097H30.5692C30.8075 16.6097 31 16.8144 31 17.0628C31 17.3113 30.8075 17.5159 30.5692 17.5159Z" fill="white"/>
</g>
</g>
<defs>
<filter id="filter0_i_5826_56970" x="1" y="1" width="40" height="40" filterUnits="userSpaceOnUse" color-interpolation-filters="sRGB">
<feFlood flood-opacity="0" result="BackgroundImageFix"/>
<feBlend mode="normal" in="SourceGraphic" in2="BackgroundImageFix" result="shape"/>
<feColorMatrix in="SourceAlpha" type="matrix" values="0 0 0 0 0 0 0 0 0 0 0 0 0 0 0 0 0 0 127 0" result="hardAlpha"/>
<feOffset dx="2" dy="2"/>
<feGaussianBlur stdDeviation="2"/>
<feComposite in2="hardAlpha" operator="arithmetic" k2="-1" k3="1"/>
<feColorMatrix type="matrix" values="0 0 0 0 0.0666667 0 0 0 0 0.0980392 0 0 0 0 0.117647 0 0 0 0.1 0"/>
<feBlend mode="normal" in2="shape" result="effect1_innerShadow_5826_56970"/>
</filter>
<filter id="filter1_ddii_5826_56970" x="-3.14286" y="-3.14286" width="47.1429" height="47.1429" filterUnits="userSpaceOnUse" color-interpolation-filters="sRGB">
<feFlood flood-opacity="0" result="BackgroundImageFix"/>
<feColorMatrix in="SourceAlpha" type="matrix" values="0 0 0 0 0 0 0 0 0 0 0 0 0 0 0 0 0 0 127 0" result="hardAlpha"/>
<feOffset dx="2.57143" dy="2.57143"/>
<feGaussianBlur stdDeviation="4.71429"/>
<feComposite in2="hardAlpha" operator="out"/>
<feColorMatrix type="matrix" values="0 0 0 0 0.321569 0 0 0 0 0.435294 0 0 0 0 1 0 0 0 1 0"/>
<feBlend mode="normal" in2="BackgroundImageFix" result="effect1_dropShadow_5826_56970"/>
<feColorMatrix in="SourceAlpha" type="matrix" values="0 0 0 0 0 0 0 0 0 0 0 0 0 0 0 0 0 0 127 0" result="hardAlpha"/>
<feOffset dx="-2.57143" dy="-2.57143"/>
<feGaussianBlur stdDeviation="4.28571"/>
<feComposite in2="hardAlpha" operator="out"/>
<feColorMatrix type="matrix" values="0 0 0 0 1 0 0 0 0 1 0 0 0 0 1 0 0 0 0.4 0"/>
<feBlend mode="normal" in2="effect1_dropShadow_5826_56970" result="effect2_dropShadow_5826_56970"/>
<feBlend mode="normal" in="SourceGraphic" in2="effect2_dropShadow_5826_56970" result="shape"/>
<feColorMatrix in="SourceAlpha" type="matrix" values="0 0 0 0 0 0 0 0 0 0 0 0 0 0 0 0 0 0 127 0" result="hardAlpha"/>
<feOffset dy="-1.28571"/>
<feGaussianBlur stdDeviation="0.985714"/>
<feComposite in2="hardAlpha" operator="arithmetic" k2="-1" k3="1"/>
<feColorMatrix type="matrix" values="0 0 0 0 0 0 0 0 0 0.598039 0 0 0 0 1 0 0 0 0.4 0"/>
<feBlend mode="normal" in2="shape" result="effect3_innerShadow_5826_56970"/>
<feColorMatrix in="SourceAlpha" type="matrix" values="0 0 0 0 0 0 0 0 0 0 0 0 0 0 0 0 0 0 127 0" result="hardAlpha"/>
<feOffset dy="-0.428571"/>
<feGaussianBlur stdDeviation="0.557143"/>
<feComposite in2="hardAlpha" operator="arithmetic" k2="-1" k3="1"/>
<feColorMatrix type="matrix" values="0 0 0 0 1 0 0 0 0 1 0 0 0 0 1 0 0 0 0.6 0"/>
<feBlend mode="normal" in2="effect3_innerShadow_5826_56970" result="effect4_innerShadow_5826_56970"/>
</filter>
<linearGradient id="paint0_linear_5826_56970" x1="7.46" y1="11.26" x2="35.96" y2="46.22" gradientUnits="userSpaceOnUse">
<stop stop-color="#11191E" stop-opacity="0.4"/>
<stop offset="0.992881" stop-color="white"/>
</linearGradient>
<linearGradient id="paint1_linear_5826_56970" x1="6.8" y1="10.8" x2="36.8" y2="47.6" gradientUnits="userSpaceOnUse">
<stop stop-color="#11191E" stop-opacity="0.4"/>
<stop offset="0.992881" stop-color="white"/>
</linearGradient>
</defs>
</svg>
