<svg width="168" height="168" viewBox="0 0 168 168" fill="none" xmlns="http://www.w3.org/2000/svg">
<g filter="url(#filter0_bd_4570_39249)">
<mask id="path-1-inside-1_4570_39249" fill="white">
<path fill-rule="evenodd" clip-rule="evenodd" d="M121.992 87.9988C122.064 87.9997 122.137 88.0001 122.21 88.0001C132.587 88.0001 141 79.3906 141 68.7703C141 58.15 132.587 49.5405 122.21 49.5405C122.137 49.5405 122.064 49.541 121.992 49.5418V49.5405H117.137C117.313 48.2245 117.403 46.8808 117.403 45.5155C117.403 29.2145 104.491 16 88.5629 16C72.6348 16 59.7226 29.2145 59.7226 45.5155C59.7226 47.0536 59.8375 48.5642 60.0591 50.0389C58.6876 49.7128 57.2584 49.5404 55.7899 49.5404C45.4125 49.5404 37 58.1498 37 68.7701C37 79.3905 45.4125 87.9999 55.7899 87.9999C55.8632 87.9999 55.9364 87.9995 56.0095 87.9986L56.0084 88.0001H121.992V87.9988Z"/>
</mask>
<path fill-rule="evenodd" clip-rule="evenodd" d="M121.992 87.9988C122.064 87.9997 122.137 88.0001 122.21 88.0001C132.587 88.0001 141 79.3906 141 68.7703C141 58.15 132.587 49.5405 122.21 49.5405C122.137 49.5405 122.064 49.541 121.992 49.5418V49.5405H117.137C117.313 48.2245 117.403 46.8808 117.403 45.5155C117.403 29.2145 104.491 16 88.5629 16C72.6348 16 59.7226 29.2145 59.7226 45.5155C59.7226 47.0536 59.8375 48.5642 60.0591 50.0389C58.6876 49.7128 57.2584 49.5404 55.7899 49.5404C45.4125 49.5404 37 58.1498 37 68.7701C37 79.3905 45.4125 87.9999 55.7899 87.9999C55.8632 87.9999 55.9364 87.9995 56.0095 87.9986L56.0084 88.0001H121.992V87.9988Z" fill="url(#paint0_linear_4570_39249)" shape-rendering="crispEdges"/>
<path d="M121.992 87.9988L122.003 86.9989C121.736 86.9958 121.479 87.0997 121.289 87.2876C121.099 87.4755 120.992 87.7316 120.992 87.9988H121.992ZM121.992 49.5418H120.992C120.992 49.809 121.099 50.0652 121.289 50.253C121.479 50.4409 121.736 50.5448 122.003 50.5417L121.992 49.5418ZM121.992 49.5405H122.992C122.992 48.9882 122.544 48.5405 121.992 48.5405V49.5405ZM117.137 49.5405L116.146 49.4085C116.108 49.6942 116.195 49.9824 116.385 50.1993C116.575 50.4161 116.849 50.5405 117.137 50.5405V49.5405ZM60.0591 50.0389L59.8278 51.0118C60.151 51.0886 60.4912 50.9999 60.7358 50.7751C60.9804 50.5503 61.0974 50.2188 61.048 49.8903L60.0591 50.0389ZM56.0095 87.9986L56.802 88.6085C57.0357 88.3049 57.0753 87.8945 56.9041 87.5518C56.7329 87.209 56.3809 86.9942 55.9978 86.9987L56.0095 87.9986ZM56.0084 88.0001L55.2159 87.3902C54.9835 87.6921 54.9429 88.0999 55.1112 88.4417C55.2795 88.7836 55.6274 89.0001 56.0084 89.0001V88.0001ZM121.992 88.0001V89.0001C122.544 89.0001 122.992 88.5524 122.992 88.0001H121.992ZM121.98 88.9987C122.057 88.9996 122.133 89.0001 122.21 89.0001V87.0001C122.141 87.0001 122.072 86.9997 122.003 86.9989L121.98 88.9987ZM122.21 89.0001C133.161 89.0001 142 79.921 142 68.7703H140C140 78.8603 132.013 87.0001 122.21 87.0001V89.0001ZM142 68.7703C142 57.6196 133.161 48.5405 122.21 48.5405V50.5405C132.013 50.5405 140 58.6803 140 68.7703H142ZM122.21 48.5405C122.133 48.5405 122.057 48.541 121.98 48.5419L122.003 50.5417C122.072 50.5409 122.141 50.5405 122.21 50.5405V48.5405ZM120.992 49.5405V49.5418H122.992V49.5405H120.992ZM117.137 50.5405H121.992V48.5405H117.137V50.5405ZM118.129 49.6726C118.31 48.3129 118.403 46.9251 118.403 45.5155H116.403C116.403 46.8365 116.316 48.1361 116.146 49.4085L118.129 49.6726ZM118.403 45.5155C118.403 28.6842 105.065 15 88.5629 15V17C103.917 17 116.403 29.7449 116.403 45.5155H118.403ZM88.5629 15C72.0609 15 58.7226 28.6842 58.7226 45.5155H60.7226C60.7226 29.7449 73.2088 17 88.5629 17V15ZM58.7226 45.5155C58.7226 47.1035 58.8413 48.6638 59.0702 50.1875L61.048 49.8903C60.8338 48.4647 60.7226 47.0037 60.7226 45.5155H58.7226ZM60.2905 49.066C58.8438 48.722 57.337 48.5404 55.7899 48.5404V50.5404C57.1799 50.5404 58.5314 50.7035 59.8278 51.0118L60.2905 49.066ZM55.7899 48.5404C44.8386 48.5404 36 57.6195 36 68.7701H38C38 58.6802 45.9865 50.5404 55.7899 50.5404V48.5404ZM36 68.7701C36 79.9208 44.8386 88.9999 55.7899 88.9999V86.9999C45.9865 86.9999 38 78.8601 38 68.7701H36ZM55.7899 88.9999C55.8672 88.9999 55.9443 88.9995 56.0212 88.9986L55.9978 86.9987C55.9286 86.9995 55.8593 86.9999 55.7899 86.9999V88.9999ZM56.8009 88.61L56.802 88.6085L55.2171 87.3887L55.2159 87.3902L56.8009 88.61ZM121.992 87.0001H56.0084V89.0001H121.992V87.0001ZM120.992 87.9988V88.0001H122.992V87.9988H120.992Z" fill="url(#paint1_linear_4570_39249)" mask="url(#path-1-inside-1_4570_39249)"/>
</g>
<g filter="url(#filter1_bd_4570_39249)">
<mask id="path-3-inside-2_4570_39249" fill="white">
<path fill-rule="evenodd" clip-rule="evenodd" d="M106.067 115.998C106.151 115.999 106.235 116 106.319 116C118.293 116 128 106.359 128 94.4665C128 82.5739 118.293 72.9331 106.319 72.9331C106.235 72.9331 106.151 72.9336 106.067 72.9346V72.9331H100.466C100.669 71.4595 100.773 69.955 100.773 68.4262C100.773 50.1725 85.8744 35.375 67.4958 35.375C49.1172 35.375 34.2184 50.1725 34.2184 68.4262C34.2184 70.1485 34.3511 71.8401 34.6068 73.4914C33.0242 73.1262 31.3751 72.9331 29.6807 72.9331C17.7068 72.9331 8 82.5739 8 94.4665C8 106.359 17.7068 116 29.6807 116C29.7652 116 29.8497 115.999 29.934 115.998L29.9328 116H106.067V115.998Z"/>
</mask>
<path fill-rule="evenodd" clip-rule="evenodd" d="M106.067 115.998C106.151 115.999 106.235 116 106.319 116C118.293 116 128 106.359 128 94.4665C128 82.5739 118.293 72.9331 106.319 72.9331C106.235 72.9331 106.151 72.9336 106.067 72.9346V72.9331H100.466C100.669 71.4595 100.773 69.955 100.773 68.4262C100.773 50.1725 85.8744 35.375 67.4958 35.375C49.1172 35.375 34.2184 50.1725 34.2184 68.4262C34.2184 70.1485 34.3511 71.8401 34.6068 73.4914C33.0242 73.1262 31.3751 72.9331 29.6807 72.9331C17.7068 72.9331 8 82.5739 8 94.4665C8 106.359 17.7068 116 29.6807 116C29.7652 116 29.8497 115.999 29.934 115.998L29.9328 116H106.067V115.998Z" fill="url(#paint2_linear_4570_39249)" shape-rendering="crispEdges"/>
<path d="M106.067 115.998L106.079 114.998C105.812 114.995 105.554 115.099 105.364 115.287C105.174 115.475 105.067 115.731 105.067 115.998H106.067ZM106.067 72.9346H105.067C105.067 73.2017 105.174 73.4578 105.364 73.6456C105.554 73.8335 105.812 73.9375 106.079 73.9345L106.067 72.9346ZM106.067 72.9331H107.067C107.067 72.3809 106.62 71.9331 106.067 71.9331V72.9331ZM100.466 72.9331L99.4756 72.7971C99.4363 73.0834 99.5228 73.3726 99.7127 73.5904C99.9026 73.8082 100.177 73.9331 100.466 73.9331V72.9331ZM34.6068 73.4914L34.3819 74.4658C34.7052 74.5404 35.0445 74.4498 35.2875 74.2239C35.5306 73.998 35.6458 73.6663 35.595 73.3384L34.6068 73.4914ZM29.934 115.998L30.7178 116.619C30.9572 116.317 31.0016 115.904 30.8318 115.558C30.6619 115.212 30.3082 114.994 29.9226 114.998L29.934 115.998ZM29.9328 116L29.149 115.379C28.9108 115.679 28.8656 116.09 29.0325 116.435C29.1995 116.78 29.5493 117 29.9328 117V116ZM106.067 116V117C106.62 117 107.067 116.552 107.067 116H106.067ZM106.056 116.998C106.144 116.999 106.231 117 106.319 117V115C106.239 115 106.159 114.999 106.079 114.998L106.056 116.998ZM106.319 117C118.839 117 129 106.918 129 94.4665H127C127 105.8 117.747 115 106.319 115V117ZM129 94.4665C129 82.0152 118.839 71.9331 106.319 71.9331V73.9331C117.747 73.9331 127 83.1327 127 94.4665H129ZM106.319 71.9331C106.231 71.9331 106.144 71.9336 106.056 71.9346L106.079 73.9345C106.159 73.9336 106.239 73.9331 106.319 73.9331V71.9331ZM105.067 72.9331V72.9346H107.067V72.9331H105.067ZM100.466 73.9331H106.067V71.9331H100.466V73.9331ZM101.457 73.0691C101.666 71.5506 101.773 70.0006 101.773 68.4262H99.7731C99.7731 69.9093 99.6718 71.3684 99.4756 72.7971L101.457 73.0691ZM101.773 68.4262C101.773 49.6138 86.4202 34.375 67.4958 34.375V36.375C85.3285 36.375 99.7731 50.7312 99.7731 68.4262H101.773ZM67.4958 34.375C48.5714 34.375 33.2184 49.6138 33.2184 68.4262H35.2184C35.2184 50.7312 49.663 36.375 67.4958 36.375V34.375ZM33.2184 68.4262C33.2184 70.2 33.355 71.9427 33.6185 73.6444L35.595 73.3384C35.3471 71.7375 35.2184 70.0971 35.2184 68.4262H33.2184ZM34.8316 72.517C33.1758 72.1349 31.4513 71.9331 29.6807 71.9331V73.9331C31.299 73.9331 32.8726 74.1175 34.3819 74.4658L34.8316 72.517ZM29.6807 71.9331C17.1609 71.9331 7 82.0152 7 94.4665H9C9 83.1327 18.2526 73.9331 29.6807 73.9331V71.9331ZM7 94.4665C7 106.918 17.1609 117 29.6807 117V115C18.2526 115 9 105.8 9 94.4665H7ZM29.6807 117C29.769 117 29.8573 116.999 29.9454 116.998L29.9226 114.998C29.8421 114.999 29.7615 115 29.6807 115V117ZM30.7166 116.621L30.7178 116.619L29.1502 115.377L29.149 115.379L30.7166 116.621ZM106.067 115H29.9328V117H106.067V115ZM105.067 115.998V116H107.067V115.998H105.067Z" fill="url(#paint3_linear_4570_39249)" mask="url(#path-3-inside-2_4570_39249)"/>
</g>
<g filter="url(#filter2_bd_4570_39249)">
<mask id="path-5-inside-3_4570_39249" fill="white">
<path fill-rule="evenodd" clip-rule="evenodd" d="M144.282 100.999C144.342 100.999 144.402 101 144.462 101C153.043 101 160 94.0643 160 85.509C160 76.9538 153.043 70.0184 144.462 70.0184C144.402 70.0184 144.342 70.0187 144.282 70.0194V70.0184H140.267C140.412 68.9583 140.487 67.8761 140.487 66.7764C140.487 53.6451 129.81 43 116.639 43C103.467 43 92.7898 53.6451 92.7898 66.7764C92.7898 68.0153 92.8849 69.2321 93.0681 70.4199C91.9339 70.1572 90.7522 70.0184 89.5378 70.0184C80.9565 70.0184 74 76.9538 74 85.509C74 94.0643 80.9565 101 89.5378 101C89.5984 101 89.6589 100.999 89.7193 100.999L89.7185 101H144.282V100.999Z"/>
</mask>
<path fill-rule="evenodd" clip-rule="evenodd" d="M144.282 100.999C144.342 100.999 144.402 101 144.462 101C153.043 101 160 94.0643 160 85.509C160 76.9538 153.043 70.0184 144.462 70.0184C144.402 70.0184 144.342 70.0187 144.282 70.0194V70.0184H140.267C140.412 68.9583 140.487 67.8761 140.487 66.7764C140.487 53.6451 129.81 43 116.639 43C103.467 43 92.7898 53.6451 92.7898 66.7764C92.7898 68.0153 92.8849 69.2321 93.0681 70.4199C91.9339 70.1572 90.7522 70.0184 89.5378 70.0184C80.9565 70.0184 74 76.9538 74 85.509C74 94.0643 80.9565 101 89.5378 101C89.5984 101 89.6589 100.999 89.7193 100.999L89.7185 101H144.282V100.999Z" fill="url(#paint4_linear_4570_39249)" shape-rendering="crispEdges"/>
<path d="M144.282 100.999L144.293 99.9988C144.026 99.9957 143.768 100.1 143.578 100.288C143.388 100.475 143.282 100.732 143.282 100.999H144.282ZM144.282 70.0194H143.282C143.282 70.2866 143.388 70.5426 143.578 70.7305C143.768 70.9184 144.026 71.0224 144.293 71.0193L144.282 70.0194ZM144.282 70.0184H145.282C145.282 69.4661 144.834 69.0184 144.282 69.0184V70.0184ZM140.267 70.0184L139.277 69.8829C139.238 70.1691 139.324 70.4582 139.514 70.6758C139.704 70.8935 139.979 71.0184 140.267 71.0184V70.0184ZM93.0681 70.4199L92.8425 71.3942C93.1657 71.469 93.5051 71.3787 93.7484 71.1529C93.9916 70.9272 94.107 70.5955 94.0564 70.2675L93.0681 70.4199ZM89.7193 100.999L90.5031 101.62C90.7426 101.318 90.787 100.905 90.6171 100.558C90.4473 100.212 90.0935 99.9944 89.7079 99.9988L89.7193 100.999ZM89.7185 101L88.9348 100.379C88.6965 100.679 88.6512 101.09 88.8182 101.435C88.9852 101.78 89.3349 102 89.7185 102V101ZM144.282 101V102C144.834 102 145.282 101.552 145.282 101H144.282ZM144.27 101.999C144.334 101.999 144.398 102 144.462 102V99.9997C144.406 99.9997 144.349 99.9994 144.293 99.9988L144.27 101.999ZM144.462 102C153.593 102 161 94.6195 161 85.509H159C159 93.5092 152.494 99.9997 144.462 99.9997V102ZM161 85.509C161 76.3986 153.593 69.0184 144.462 69.0184V71.0184C152.494 71.0184 159 77.5089 159 85.509H161ZM144.462 69.0184C144.398 69.0184 144.334 69.0187 144.27 69.0195L144.293 71.0193C144.349 71.0187 144.406 71.0184 144.462 71.0184V69.0184ZM143.282 70.0184V70.0194H145.282V70.0184H143.282ZM140.267 71.0184H144.282V69.0184H140.267V71.0184ZM141.258 70.1539C141.409 69.0491 141.487 67.9215 141.487 66.7764H139.487C139.487 67.8306 139.416 68.8676 139.277 69.8829L141.258 70.1539ZM141.487 66.7764C141.487 53.0899 130.359 42 116.639 42V44C129.26 44 139.487 54.2002 139.487 66.7764H141.487ZM116.639 42C102.918 42 91.7898 53.0899 91.7898 66.7764H93.7898C93.7898 54.2002 104.017 44 116.639 44V42ZM91.7898 66.7764C91.7898 68.0666 91.8888 69.3343 92.0798 70.5724L94.0564 70.2675C93.8809 69.1299 93.7898 67.9641 93.7898 66.7764H91.7898ZM93.2938 69.4457C92.0861 69.166 90.8286 69.0184 89.5378 69.0184V71.0184C90.6757 71.0184 91.7818 71.1485 92.8425 71.3942L93.2938 69.4457ZM89.5378 69.0184C80.4071 69.0184 73 76.3986 73 85.509H75C75 77.5089 81.5059 71.0184 89.5378 71.0184V69.0184ZM73 85.509C73 94.6195 80.4071 102 89.5378 102V99.9997C81.5059 99.9997 75 93.5092 75 85.509H73ZM89.5378 102C89.6022 102 89.6665 101.999 89.7308 101.999L89.7079 99.9988C89.6513 99.9994 89.5946 99.9997 89.5378 99.9997V102ZM90.5023 101.621L90.5031 101.62L88.9356 100.378L88.9348 100.379L90.5023 101.621ZM144.282 99.9997H89.7185V102H144.282V99.9997ZM143.282 100.999V101H145.282V100.999H143.282Z" fill="url(#paint5_linear_4570_39249)" mask="url(#path-5-inside-3_4570_39249)"/>
</g>
<g filter="url(#filter3_ddii_4570_39249)">
<path fill-rule="evenodd" clip-rule="evenodd" d="M118.728 117.478L114.024 112.887C113.471 112.347 113.466 111.477 114.021 110.935C114.572 110.397 115.467 110.398 116.021 110.938L118.728 113.58V105.382C118.728 104.619 119.354 104 120.139 104C120.919 104 121.551 104.611 121.551 105.382V113.624L124.303 110.938C124.856 110.398 125.748 110.393 126.303 110.935C126.854 111.473 126.853 112.347 126.3 112.887L121.551 117.522V138.439L126.315 143.09C126.869 143.63 126.87 144.503 126.318 145.041C125.763 145.583 124.872 145.578 124.319 145.039L121.551 142.337V150.618C121.551 151.381 120.924 152 120.139 152C119.36 152 118.728 151.389 118.728 150.618V142.342L115.965 145.039C115.412 145.579 114.517 145.58 113.966 145.041C113.411 144.5 113.416 143.63 113.969 143.09L118.728 138.445V117.478Z" fill="#CCEBFF"/>
<path fill-rule="evenodd" clip-rule="evenodd" d="M129.647 131.931L135.891 130.095C136.625 129.879 137.367 130.309 137.551 131.068C137.734 131.821 137.288 132.607 136.554 132.823L132.96 133.88L139.331 138.018C139.98 138.4 140.194 139.26 139.803 139.95C139.415 140.635 138.581 140.885 137.925 140.499L131.517 136.338L132.43 140.1C132.614 140.855 132.174 141.641 131.437 141.857C130.705 142.073 129.963 141.635 129.779 140.879L128.203 134.39L110.422 123.931L104.097 125.791C103.363 126.007 102.62 125.571 102.437 124.818C102.253 124.059 102.701 123.279 103.435 123.063L107.109 121.982L100.668 117.803C100.019 117.421 99.8047 116.561 100.196 115.871C100.584 115.186 101.417 114.936 102.073 115.322L108.51 119.499L107.594 115.724C107.41 114.968 107.855 114.182 108.586 113.967C109.324 113.75 110.061 114.189 110.244 114.945L111.823 121.448L129.647 131.931Z" fill="#CCEBFF"/>
<path fill-rule="evenodd" clip-rule="evenodd" d="M111.759 134.433L110.198 140.861C110.014 141.616 109.277 142.056 108.54 141.839C107.808 141.624 107.363 140.837 107.547 140.081L108.446 136.382L102.074 140.52C101.425 140.902 100.587 140.661 100.197 139.971C99.8083 139.286 100.013 138.425 100.669 138.04L107.077 133.879L103.423 132.805C102.689 132.589 102.241 131.808 102.426 131.05C102.609 130.296 103.351 129.86 104.086 130.076L110.391 131.931L128.172 121.472L129.753 114.961C129.936 114.205 130.678 113.768 131.41 113.983C132.147 114.2 132.587 114.985 132.403 115.741L131.485 119.523L137.926 115.343C138.575 114.962 139.413 115.203 139.804 115.892C140.192 116.577 139.988 117.438 139.332 117.824L132.895 122.001L136.562 123.079C137.297 123.295 137.743 124.081 137.56 124.834C137.376 125.593 136.633 126.023 135.899 125.807L129.582 123.949L111.759 134.433Z" fill="#CCEBFF"/>
<path d="M119.728 117.478C119.728 117.209 119.619 116.951 119.426 116.762L114.723 112.171C114.568 112.02 114.57 111.796 114.72 111.651C114.881 111.493 115.155 111.491 115.322 111.654L118.029 114.296C118.317 114.577 118.745 114.658 119.116 114.502C119.487 114.346 119.728 113.983 119.728 113.58V105.382C119.728 105.188 119.889 105 120.139 105C120.391 105 120.551 105.186 120.551 105.382V113.624C120.551 114.027 120.792 114.39 121.163 114.546C121.534 114.702 121.962 114.621 122.25 114.34L125.002 111.654C125.17 111.49 125.441 111.492 125.604 111.651L126.303 110.935L125.604 111.651C125.752 111.795 125.755 112.022 125.601 112.171L120.853 116.806C120.66 116.995 120.551 117.253 120.551 117.522V124.794L120.018 125.108L119.728 124.937V117.478ZM122.551 126.598V125.938L128.679 122.334C128.912 122.197 129.079 121.971 129.143 121.708L130.725 115.197C130.753 115.082 130.816 115.009 130.884 114.969C130.951 114.929 131.034 114.915 131.128 114.942C131.335 115.003 131.494 115.249 131.432 115.505L130.513 119.287C130.416 119.685 130.572 120.102 130.906 120.339C131.24 120.576 131.685 120.585 132.029 120.362L138.445 116.199C138.58 116.129 138.802 116.153 138.934 116.386C139.075 116.635 138.972 116.875 138.825 116.962C138.812 116.969 138.8 116.977 138.787 116.985L132.351 121.162C132.023 121.374 131.849 121.758 131.905 122.145C131.962 122.532 132.238 122.85 132.613 122.96L136.28 124.039C136.491 124.101 136.648 124.352 136.588 124.598L137.56 124.834L136.588 124.598C136.56 124.714 136.497 124.785 136.431 124.823C136.366 124.861 136.281 124.877 136.182 124.848L129.864 122.99C129.599 122.912 129.313 122.947 129.075 123.088L122.829 126.761L122.551 126.598ZM120.018 127.428L120.551 127.742V128.101L120.018 128.415L119.728 128.244V127.599L120.018 127.428ZM117.728 126.081V126.455L117.207 126.761L110.929 123.069C110.691 122.929 110.405 122.894 110.14 122.972L103.815 124.832C103.718 124.86 103.633 124.845 103.566 124.805C103.498 124.766 103.436 124.694 103.409 124.582C103.348 124.333 103.504 124.085 103.717 124.022L107.391 122.942C107.766 122.831 108.042 122.513 108.099 122.126C108.155 121.74 107.981 121.356 107.654 121.143L101.212 116.964C101.2 116.956 101.187 116.948 101.175 116.941C101.029 116.855 100.925 116.613 101.066 116.364C101.198 116.131 101.418 116.106 101.554 116.177L107.966 120.338C108.31 120.561 108.754 120.552 109.089 120.315C109.423 120.078 109.579 119.661 109.482 119.263L108.565 115.488C108.504 115.235 108.664 114.986 108.869 114.926C108.966 114.897 109.049 114.913 109.113 114.952C109.179 114.991 109.244 115.064 109.272 115.181L110.852 121.684C110.916 121.947 111.083 122.173 111.316 122.31L117.728 126.081ZM122.551 129.245L122.829 129.082L129.14 132.793C129.378 132.933 129.663 132.969 129.929 132.891L136.173 131.054C136.273 131.025 136.357 131.041 136.423 131.079C136.488 131.118 136.552 131.188 136.58 131.304L137.551 131.068L136.58 131.304C136.64 131.55 136.483 131.802 136.271 131.864L132.678 132.921C132.303 133.031 132.027 133.349 131.97 133.736C131.914 134.122 132.087 134.506 132.415 134.719L138.786 138.857C138.799 138.865 138.811 138.873 138.824 138.88C138.969 138.966 139.074 139.208 138.933 139.457C138.801 139.69 138.58 139.715 138.444 139.644L132.061 135.5C131.717 135.277 131.272 135.286 130.938 135.523C130.604 135.76 130.448 136.176 130.545 136.574L131.458 140.336C131.52 140.591 131.362 140.837 131.155 140.898C131.061 140.926 130.978 140.911 130.911 140.871C130.843 140.831 130.779 140.758 130.751 140.643L129.175 134.154C129.111 133.891 128.944 133.665 128.71 133.528L122.551 129.905V129.245ZM120.018 130.735L120.551 131.049V138.439C120.551 138.709 120.66 138.967 120.853 139.155L125.617 143.805C125.77 143.955 125.767 144.182 125.62 144.326C125.457 144.485 125.185 144.487 125.017 144.323L122.25 141.621C121.962 141.34 121.534 141.259 121.163 141.415C120.792 141.572 120.551 141.935 120.551 142.337V150.618C120.551 150.812 120.39 151 120.139 151C119.888 151 119.728 150.814 119.728 150.618V142.342C119.728 141.94 119.487 141.577 119.116 141.421C118.745 141.265 118.317 141.346 118.029 141.627L115.267 144.323C115.1 144.486 114.826 144.483 114.665 144.326C114.515 144.18 114.513 143.957 114.668 143.805L119.426 139.16C119.619 138.972 119.728 138.714 119.728 138.445V130.906L120.018 130.735ZM117.728 129.388V129.762L111.252 133.571C111.019 133.708 110.851 133.934 110.787 134.197L109.226 140.625C109.197 140.742 109.133 140.815 109.067 140.854C109.002 140.892 108.92 140.908 108.822 140.88C108.618 140.82 108.457 140.571 108.519 140.317L109.417 136.618C109.514 136.22 109.358 135.803 109.024 135.566C108.689 135.329 108.244 135.32 107.901 135.543L101.555 139.665C101.421 139.735 101.198 139.71 101.067 139.478C100.925 139.228 101.029 138.988 101.176 138.902C101.188 138.894 101.201 138.886 101.213 138.878L107.622 134.718C107.95 134.505 108.123 134.121 108.067 133.735C108.011 133.348 107.734 133.03 107.36 132.92L103.706 131.845C103.492 131.783 103.337 131.535 103.397 131.286C103.425 131.174 103.487 131.102 103.555 131.062C103.622 131.023 103.707 131.007 103.804 131.036L110.108 132.89C110.374 132.968 110.659 132.933 110.898 132.792L117.207 129.082L117.728 129.388Z" stroke="url(#paint6_linear_4570_39249)" stroke-width="2" stroke-linecap="round" stroke-linejoin="round"/>
</g>
<defs>
<filter id="filter0_bd_4570_39249" x="29" y="8" width="120" height="92" filterUnits="userSpaceOnUse" color-interpolation-filters="sRGB">
<feFlood flood-opacity="0" result="BackgroundImageFix"/>
<feGaussianBlur in="BackgroundImageFix" stdDeviation="4"/>
<feComposite in2="SourceAlpha" operator="in" result="effect1_backgroundBlur_4570_39249"/>
<feColorMatrix in="SourceAlpha" type="matrix" values="0 0 0 0 0 0 0 0 0 0 0 0 0 0 0 0 0 0 127 0" result="hardAlpha"/>
<feOffset dy="4"/>
<feGaussianBlur stdDeviation="4"/>
<feComposite in2="hardAlpha" operator="out"/>
<feColorMatrix type="matrix" values="0 0 0 0 0.0666667 0 0 0 0 0.0980392 0 0 0 0 0.117647 0 0 0 0.2 0"/>
<feBlend mode="normal" in2="effect1_backgroundBlur_4570_39249" result="effect2_dropShadow_4570_39249"/>
<feBlend mode="normal" in="SourceGraphic" in2="effect2_dropShadow_4570_39249" result="shape"/>
</filter>
<filter id="filter1_bd_4570_39249" x="0" y="27.375" width="136" height="100.625" filterUnits="userSpaceOnUse" color-interpolation-filters="sRGB">
<feFlood flood-opacity="0" result="BackgroundImageFix"/>
<feGaussianBlur in="BackgroundImageFix" stdDeviation="4"/>
<feComposite in2="SourceAlpha" operator="in" result="effect1_backgroundBlur_4570_39249"/>
<feColorMatrix in="SourceAlpha" type="matrix" values="0 0 0 0 0 0 0 0 0 0 0 0 0 0 0 0 0 0 127 0" result="hardAlpha"/>
<feOffset dy="4"/>
<feGaussianBlur stdDeviation="4"/>
<feComposite in2="hardAlpha" operator="out"/>
<feColorMatrix type="matrix" values="0 0 0 0 0.0666667 0 0 0 0 0.0980392 0 0 0 0 0.117647 0 0 0 0.2 0"/>
<feBlend mode="normal" in2="effect1_backgroundBlur_4570_39249" result="effect2_dropShadow_4570_39249"/>
<feBlend mode="normal" in="SourceGraphic" in2="effect2_dropShadow_4570_39249" result="shape"/>
</filter>
<filter id="filter2_bd_4570_39249" x="58" y="27" width="118" height="89.9995" filterUnits="userSpaceOnUse" color-interpolation-filters="sRGB">
<feFlood flood-opacity="0" result="BackgroundImageFix"/>
<feGaussianBlur in="BackgroundImageFix" stdDeviation="8"/>
<feComposite in2="SourceAlpha" operator="in" result="effect1_backgroundBlur_4570_39249"/>
<feColorMatrix in="SourceAlpha" type="matrix" values="0 0 0 0 0 0 0 0 0 0 0 0 0 0 0 0 0 0 127 0" result="hardAlpha"/>
<feOffset dy="4"/>
<feGaussianBlur stdDeviation="4"/>
<feComposite in2="hardAlpha" operator="out"/>
<feColorMatrix type="matrix" values="0 0 0 0 0.0666667 0 0 0 0 0.0980392 0 0 0 0 0.117647 0 0 0 0.2 0"/>
<feBlend mode="normal" in2="effect1_backgroundBlur_4570_39249" result="effect2_dropShadow_4570_39249"/>
<feBlend mode="normal" in="SourceGraphic" in2="effect2_dropShadow_4570_39249" result="shape"/>
</filter>
<filter id="filter3_ddii_4570_39249" x="89.0597" y="93.0597" width="63.0649" height="71.0649" filterUnits="userSpaceOnUse" color-interpolation-filters="sRGB">
<feFlood flood-opacity="0" result="BackgroundImageFix"/>
<feColorMatrix in="SourceAlpha" type="matrix" values="0 0 0 0 0 0 0 0 0 0 0 0 0 0 0 0 0 0 127 0" result="hardAlpha"/>
<feOffset dx="2.52468" dy="2.52468"/>
<feGaussianBlur stdDeviation="4.8"/>
<feComposite in2="hardAlpha" operator="out"/>
<feColorMatrix type="matrix" values="0 0 0 0 0 0 0 0 0 0.6 0 0 0 0 1 0 0 0 0.4 0"/>
<feBlend mode="normal" in2="BackgroundImageFix" result="effect1_dropShadow_4570_39249"/>
<feColorMatrix in="SourceAlpha" type="matrix" values="0 0 0 0 0 0 0 0 0 0 0 0 0 0 0 0 0 0 127 0" result="hardAlpha"/>
<feOffset dx="-2.52468" dy="-2.52468"/>
<feGaussianBlur stdDeviation="4.20779"/>
<feComposite in2="hardAlpha" operator="out"/>
<feColorMatrix type="matrix" values="0 0 0 0 1 0 0 0 0 1 0 0 0 0 1 0 0 0 0.2 0"/>
<feBlend mode="normal" in2="effect1_dropShadow_4570_39249" result="effect2_dropShadow_4570_39249"/>
<feBlend mode="normal" in="SourceGraphic" in2="effect2_dropShadow_4570_39249" result="shape"/>
<feColorMatrix in="SourceAlpha" type="matrix" values="0 0 0 0 0 0 0 0 0 0 0 0 0 0 0 0 0 0 127 0" result="hardAlpha"/>
<feOffset dy="-1.26234"/>
<feGaussianBlur stdDeviation="0.967792"/>
<feComposite in2="hardAlpha" operator="arithmetic" k2="-1" k3="1"/>
<feColorMatrix type="matrix" values="0 0 0 0 0 0 0 0 0 0.598039 0 0 0 0 1 0 0 0 0.4 0"/>
<feBlend mode="normal" in2="shape" result="effect3_innerShadow_4570_39249"/>
<feColorMatrix in="SourceAlpha" type="matrix" values="0 0 0 0 0 0 0 0 0 0 0 0 0 0 0 0 0 0 127 0" result="hardAlpha"/>
<feOffset dy="-0.420779"/>
<feGaussianBlur stdDeviation="0.547013"/>
<feComposite in2="hardAlpha" operator="arithmetic" k2="-1" k3="1"/>
<feColorMatrix type="matrix" values="0 0 0 0 1 0 0 0 0 1 0 0 0 0 1 0 0 0 0.6 0"/>
<feBlend mode="normal" in2="effect3_innerShadow_4570_39249" result="effect4_innerShadow_4570_39249"/>
</filter>
<linearGradient id="paint0_linear_4570_39249" x1="89" y1="-7.03106" x2="89" y2="98.0621" gradientUnits="userSpaceOnUse">
<stop stop-color="white"/>
<stop offset="1" stop-color="white" stop-opacity="0"/>
</linearGradient>
<linearGradient id="paint1_linear_4570_39249" x1="89" y1="16" x2="89" y2="88" gradientUnits="userSpaceOnUse">
<stop stop-color="white"/>
<stop offset="1" stop-color="white" stop-opacity="0"/>
</linearGradient>
<linearGradient id="paint2_linear_4570_39249" x1="68" y1="9.58507" x2="68" y2="127.267" gradientUnits="userSpaceOnUse">
<stop stop-color="white"/>
<stop offset="1" stop-color="white" stop-opacity="0"/>
</linearGradient>
<linearGradient id="paint3_linear_4570_39249" x1="68" y1="35.375" x2="68" y2="116" gradientUnits="userSpaceOnUse">
<stop stop-color="white"/>
<stop offset="1" stop-color="white" stop-opacity="0"/>
</linearGradient>
<linearGradient id="paint4_linear_4570_39249" x1="117" y1="24.4473" x2="117" y2="109.105" gradientUnits="userSpaceOnUse">
<stop stop-color="white"/>
<stop offset="1" stop-color="white" stop-opacity="0"/>
</linearGradient>
<linearGradient id="paint5_linear_4570_39249" x1="117" y1="43" x2="117" y2="101" gradientUnits="userSpaceOnUse">
<stop stop-color="white"/>
<stop offset="1" stop-color="white" stop-opacity="0"/>
</linearGradient>
<linearGradient id="paint6_linear_4570_39249" x1="120" y1="104" x2="120" y2="152" gradientUnits="userSpaceOnUse">
<stop stop-color="white" stop-opacity="0"/>
<stop offset="1" stop-color="white"/>
</linearGradient>
</defs>
</svg>
