<svg width="6" height="8" viewBox="0 0 6 8" fill="none" xmlns="http://www.w3.org/2000/svg">
<path fill-rule="evenodd" clip-rule="evenodd" d="M4.75624 0.829173C5.16027 0.559821 5.36228 0.425145 5.5298 0.435147C5.67574 0.443861 5.81055 0.516011 5.89875 0.632606C6 0.766442 6 1.00923 6 1.49481L6 6.50519C6 6.99077 6 7.23356 5.89875 7.36739C5.81055 7.48399 5.67574 7.55614 5.5298 7.56485C5.36228 7.57485 5.16027 7.44018 4.75624 7.17083L0.99846 4.66564C0.664617 4.44308 0.497695 4.3318 0.439528 4.19153C0.388675 4.06891 0.388675 3.93109 0.439528 3.80846C0.497695 3.6682 0.664617 3.55692 0.998461 3.33436L4.75624 0.829173Z" fill="#A2AAAF"/>
</svg>
