<svg width="40" height="40" viewBox="0 0 40 40" fill="none" xmlns="http://www.w3.org/2000/svg">
<g filter="url(#filter0_i_4582_13390)">
<path d="M1 20C1 6.89 6.89 1 20 1C33.11 1 39 6.89 39 20C39 33.11 33.11 39 20 39C6.89 39 1 33.11 1 20Z" fill="#0099FF"/>
</g>
<path d="M2 20C2 13.5723 3.44621 9.1355 6.29086 6.29086C9.1355 3.44621 13.5723 2 20 2C26.4277 2 30.8645 3.44621 33.7091 6.29086C36.5538 9.1355 38 13.5723 38 20C38 26.4277 36.5538 30.8645 33.7091 33.7091C30.8645 36.5538 26.4277 38 20 38C13.5723 38 9.1355 36.5538 6.29086 33.7091C3.44621 30.8645 2 26.4277 2 20Z" stroke="url(#paint0_linear_4582_13390)" stroke-width="2" style="mix-blend-mode:overlay"/>
<mask id="mask0_4582_13390" style="mask-type:alpha" maskUnits="userSpaceOnUse" x="0" y="0" width="40" height="40">
<path d="M1 20C1 13.2273 2.52371 8.5405 5.53211 5.53211C8.5405 2.52371 13.2273 1 20 1C26.7727 1 31.4595 2.52371 34.4679 5.53211C37.4763 8.5405 39 13.2273 39 20C39 26.7727 37.4763 31.4595 34.4679 34.4679C31.4595 37.4763 26.7727 39 20 39C13.2273 39 8.5405 37.4763 5.53211 34.4679C2.52371 31.4595 1 26.7727 1 20Z" fill="#0099FF"/>
<path d="M1 20C1 13.2273 2.52371 8.5405 5.53211 5.53211C8.5405 2.52371 13.2273 1 20 1C26.7727 1 31.4595 2.52371 34.4679 5.53211C37.4763 8.5405 39 13.2273 39 20C39 26.7727 37.4763 31.4595 34.4679 34.4679C31.4595 37.4763 26.7727 39 20 39C13.2273 39 8.5405 37.4763 5.53211 34.4679C2.52371 31.4595 1 26.7727 1 20Z" stroke="url(#paint1_linear_4582_13390)" stroke-width="2"/>
</mask>
<g mask="url(#mask0_4582_13390)">
<g filter="url(#filter1_ddii_4582_13390)">
<path d="M13.8049 12.5C14.814 12.5 15.7818 12.9116 16.4954 13.6441C17.2089 14.3767 17.6098 15.3703 17.6098 16.4063C17.6098 16.6457 17.5172 16.8753 17.3523 17.0445C17.1874 17.2138 16.9638 17.3089 16.7306 17.3089C16.4974 17.3089 16.2738 17.2138 16.1089 17.0445C15.9441 16.8753 15.8514 16.6457 15.8514 16.4063C15.8569 16.1269 15.808 15.8492 15.7076 15.5894C15.6072 15.3297 15.4573 15.0931 15.2668 14.8936C15.0763 14.694 14.8489 14.5355 14.5979 14.4272C14.347 14.319 14.0775 14.2633 13.8053 14.2633C13.5331 14.2633 13.2637 14.319 13.0127 14.4272C12.7618 14.5355 12.5344 14.694 12.3438 14.8936C12.1533 15.0931 12.0034 15.3297 11.903 15.5894C11.8027 15.8492 11.7537 16.1269 11.7592 16.4063V23.3372C11.7537 23.6166 11.8027 23.8943 11.903 24.1541C12.0034 24.4138 12.1533 24.6504 12.3438 24.8499C12.5344 25.0495 12.7618 25.208 13.0127 25.3163C13.2637 25.4245 13.5331 25.4802 13.8053 25.4802C14.0775 25.4802 14.347 25.4245 14.5979 25.3163C14.8489 25.208 15.0763 25.0495 15.2668 24.8499C15.4573 24.6504 15.6072 24.4138 15.7076 24.1541C15.808 23.8943 15.8569 23.6166 15.8514 23.3372C15.8514 23.0978 15.9441 22.8682 16.1089 22.699C16.2738 22.5297 16.4974 22.4346 16.7306 22.4346C16.9638 22.4346 17.1874 22.5297 17.3523 22.699C17.5172 22.8682 17.6098 23.0978 17.6098 23.3372C17.6098 24.3732 17.2089 25.3668 16.4954 26.0994C15.7818 26.832 14.814 27.2435 13.8049 27.2435C12.7958 27.2435 11.828 26.832 11.1144 26.0994C10.4009 25.3668 10 24.3732 10 23.3372V16.4063C10.0011 15.3706 10.4023 14.3777 11.1156 13.6454C11.8289 12.913 12.7961 12.5011 13.8049 12.5ZM22.3567 12.5C23.3655 12.5011 24.3327 12.913 25.046 13.6454C25.7593 14.3777 26.1605 15.3706 26.1616 16.4063V23.3372C26.1616 24.3732 25.7608 25.3668 25.0472 26.0994C24.3336 26.832 23.3659 27.2435 22.3567 27.2435C21.3476 27.2435 20.3798 26.832 19.6663 26.0994C18.9527 25.3668 18.5518 24.3732 18.5518 23.3372V16.4063C18.5529 15.3706 18.9541 14.3777 19.6675 13.6454C20.3808 12.913 21.3479 12.5011 22.3567 12.5ZM22.3567 25.4383C22.8993 25.4376 23.4195 25.216 23.8031 24.8222C24.1868 24.4283 24.4026 23.8942 24.4033 23.3372V16.4063C24.4087 16.1269 24.3598 15.8492 24.2594 15.5894C24.159 15.3297 24.0092 15.0931 23.8186 14.8936C23.6281 14.694 23.4007 14.5355 23.1497 14.4272C22.8988 14.319 22.6293 14.2633 22.3571 14.2633C22.085 14.2633 21.8155 14.319 21.5645 14.4272C21.3136 14.5355 21.0862 14.694 20.8956 14.8936C20.7051 15.0931 20.5553 15.3297 20.4549 15.5894C20.3545 15.8492 20.3056 16.1269 20.311 16.4063V23.3372C20.3117 23.8941 20.5274 24.428 20.9109 24.8219C21.2943 25.2157 21.8143 25.4374 22.3567 25.4383ZM28.4482 21.1414C28.5415 21.1414 28.6346 21.1498 28.7265 21.1666C29.0735 21.2208 29.3909 21.3981 29.6236 21.6678C29.8563 21.9374 29.9895 22.2824 30 22.6425V22.6575C29.9821 23.1043 29.8489 23.5382 29.6139 23.9146L29.0604 25.0503C28.8971 25.4064 28.7216 25.7743 28.5527 26.1398L29.3216 26.159C29.4948 26.159 29.6609 26.2297 29.7834 26.3554C29.9059 26.4811 29.9747 26.6517 29.9747 26.8295C29.9747 27.0073 29.9059 27.1778 29.7834 27.3036C29.6609 27.4293 29.4948 27.5 29.3216 27.5H27.5192C27.4065 27.5013 27.2954 27.4727 27.1967 27.4169C27.098 27.3611 27.0151 27.28 26.9559 27.1816C26.8967 27.0831 26.8634 26.9706 26.8591 26.8551C26.8548 26.7395 26.8797 26.6247 26.9314 26.5219C27.1282 26.1029 27.3314 25.6637 27.529 25.2346C27.6449 24.9832 27.76 24.7318 27.8751 24.4804L28.4645 23.2777C28.579 23.0989 28.6562 22.8978 28.6914 22.6869C28.6871 22.6404 28.6677 22.5968 28.6363 22.5631C28.6049 22.5293 28.5634 22.5074 28.5184 22.5008L28.4939 22.4958C28.4382 22.4807 28.3792 22.4861 28.3271 22.5113C28.275 22.5364 28.2332 22.5796 28.209 22.6332C28.14 22.7968 28.0106 22.9256 27.8492 22.9912C27.6877 23.0568 27.5075 23.0539 27.3482 22.9831C27.1888 22.9123 27.0634 22.7795 26.9995 22.6137C26.9356 22.448 26.9384 22.263 27.0073 22.0994C27.1319 21.814 27.3342 21.5718 27.5899 21.4018C27.8455 21.2318 28.1436 21.1414 28.4482 21.1414Z" fill="white"/>
</g>
</g>
<defs>
<filter id="filter0_i_4582_13390" x="1" y="1" width="40" height="40" filterUnits="userSpaceOnUse" color-interpolation-filters="sRGB">
<feFlood flood-opacity="0" result="BackgroundImageFix"/>
<feBlend mode="normal" in="SourceGraphic" in2="BackgroundImageFix" result="shape"/>
<feColorMatrix in="SourceAlpha" type="matrix" values="0 0 0 0 0 0 0 0 0 0 0 0 0 0 0 0 0 0 127 0" result="hardAlpha"/>
<feOffset dx="2" dy="2"/>
<feGaussianBlur stdDeviation="2"/>
<feComposite in2="hardAlpha" operator="arithmetic" k2="-1" k3="1"/>
<feColorMatrix type="matrix" values="0 0 0 0 0.0666667 0 0 0 0 0.0980392 0 0 0 0 0.117647 0 0 0 0.1 0"/>
<feBlend mode="normal" in2="shape" result="effect1_innerShadow_4582_13390"/>
</filter>
<filter id="filter1_ddii_4582_13390" x="-3.14286" y="-3.14286" width="47.1429" height="47.1429" filterUnits="userSpaceOnUse" color-interpolation-filters="sRGB">
<feFlood flood-opacity="0" result="BackgroundImageFix"/>
<feColorMatrix in="SourceAlpha" type="matrix" values="0 0 0 0 0 0 0 0 0 0 0 0 0 0 0 0 0 0 127 0" result="hardAlpha"/>
<feOffset dx="2.57143" dy="2.57143"/>
<feGaussianBlur stdDeviation="4.71429"/>
<feComposite in2="hardAlpha" operator="out"/>
<feColorMatrix type="matrix" values="0 0 0 0 0.321569 0 0 0 0 0.435294 0 0 0 0 1 0 0 0 1 0"/>
<feBlend mode="normal" in2="BackgroundImageFix" result="effect1_dropShadow_4582_13390"/>
<feColorMatrix in="SourceAlpha" type="matrix" values="0 0 0 0 0 0 0 0 0 0 0 0 0 0 0 0 0 0 127 0" result="hardAlpha"/>
<feOffset dx="-2.57143" dy="-2.57143"/>
<feGaussianBlur stdDeviation="4.28571"/>
<feComposite in2="hardAlpha" operator="out"/>
<feColorMatrix type="matrix" values="0 0 0 0 1 0 0 0 0 1 0 0 0 0 1 0 0 0 0.4 0"/>
<feBlend mode="normal" in2="effect1_dropShadow_4582_13390" result="effect2_dropShadow_4582_13390"/>
<feBlend mode="normal" in="SourceGraphic" in2="effect2_dropShadow_4582_13390" result="shape"/>
<feColorMatrix in="SourceAlpha" type="matrix" values="0 0 0 0 0 0 0 0 0 0 0 0 0 0 0 0 0 0 127 0" result="hardAlpha"/>
<feOffset dy="-1.28571"/>
<feGaussianBlur stdDeviation="0.985714"/>
<feComposite in2="hardAlpha" operator="arithmetic" k2="-1" k3="1"/>
<feColorMatrix type="matrix" values="0 0 0 0 0 0 0 0 0 0.598039 0 0 0 0 1 0 0 0 0.4 0"/>
<feBlend mode="normal" in2="shape" result="effect3_innerShadow_4582_13390"/>
<feColorMatrix in="SourceAlpha" type="matrix" values="0 0 0 0 0 0 0 0 0 0 0 0 0 0 0 0 0 0 127 0" result="hardAlpha"/>
<feOffset dy="-0.428571"/>
<feGaussianBlur stdDeviation="0.557143"/>
<feComposite in2="hardAlpha" operator="arithmetic" k2="-1" k3="1"/>
<feColorMatrix type="matrix" values="0 0 0 0 1 0 0 0 0 1 0 0 0 0 1 0 0 0 0.6 0"/>
<feBlend mode="normal" in2="effect3_innerShadow_4582_13390" result="effect4_innerShadow_4582_13390"/>
</filter>
<linearGradient id="paint0_linear_4582_13390" x1="7.46" y1="11.26" x2="35.96" y2="46.22" gradientUnits="userSpaceOnUse">
<stop stop-color="#11191E" stop-opacity="0.4"/>
<stop offset="0.992881" stop-color="white"/>
</linearGradient>
<linearGradient id="paint1_linear_4582_13390" x1="6.8" y1="10.8" x2="36.8" y2="47.6" gradientUnits="userSpaceOnUse">
<stop stop-color="#11191E" stop-opacity="0.4"/>
<stop offset="0.992881" stop-color="white"/>
</linearGradient>
</defs>
</svg>
