<svg width="6" height="8" viewBox="0 0 6 8" fill="none" xmlns="http://www.w3.org/2000/svg">
<path fill-rule="evenodd" clip-rule="evenodd" d="M1.24376 7.17083C0.839732 7.44018 0.637718 7.57485 0.470199 7.56485C0.324261 7.55614 0.189447 7.48399 0.101245 7.36739C9.13972e-09 7.23356 1.2035e-08 6.99077 1.78255e-08 6.50519L7.75736e-08 1.49481C8.33641e-08 1.00923 8.62593e-08 0.766441 0.101245 0.632606C0.189447 0.516011 0.324261 0.443861 0.470199 0.435147C0.637718 0.425145 0.839732 0.559821 1.24376 0.829174L5.00154 3.33436C5.33538 3.55692 5.5023 3.6682 5.56047 3.80847C5.61133 3.93109 5.61133 4.06891 5.56047 4.19154C5.5023 4.3318 5.33538 4.44308 5.00154 4.66564L1.24376 7.17083Z" fill="#A2AAAF"/>
</svg>
