<svg width="168" height="168" viewBox="0 0 168 168" fill="none" xmlns="http://www.w3.org/2000/svg">
<g filter="url(#filter0_bd_4570_39255)">
<mask id="path-1-inside-1_4570_39255" fill="white">
<path fill-rule="evenodd" clip-rule="evenodd" d="M121.992 87.9988C122.064 87.9997 122.137 88.0001 122.21 88.0001C132.587 88.0001 141 79.3906 141 68.7703C141 58.15 132.587 49.5405 122.21 49.5405C122.137 49.5405 122.064 49.541 121.992 49.5418V49.5405H117.137C117.313 48.2245 117.403 46.8808 117.403 45.5155C117.403 29.2145 104.491 16 88.5629 16C72.6348 16 59.7226 29.2145 59.7226 45.5155C59.7226 47.0536 59.8375 48.5642 60.0591 50.0389C58.6876 49.7128 57.2584 49.5404 55.7899 49.5404C45.4125 49.5404 37 58.1498 37 68.7701C37 79.3905 45.4125 87.9999 55.7899 87.9999C55.8632 87.9999 55.9364 87.9995 56.0095 87.9986L56.0084 88.0001H121.992V87.9988Z"/>
</mask>
<path fill-rule="evenodd" clip-rule="evenodd" d="M121.992 87.9988C122.064 87.9997 122.137 88.0001 122.21 88.0001C132.587 88.0001 141 79.3906 141 68.7703C141 58.15 132.587 49.5405 122.21 49.5405C122.137 49.5405 122.064 49.541 121.992 49.5418V49.5405H117.137C117.313 48.2245 117.403 46.8808 117.403 45.5155C117.403 29.2145 104.491 16 88.5629 16C72.6348 16 59.7226 29.2145 59.7226 45.5155C59.7226 47.0536 59.8375 48.5642 60.0591 50.0389C58.6876 49.7128 57.2584 49.5404 55.7899 49.5404C45.4125 49.5404 37 58.1498 37 68.7701C37 79.3905 45.4125 87.9999 55.7899 87.9999C55.8632 87.9999 55.9364 87.9995 56.0095 87.9986L56.0084 88.0001H121.992V87.9988Z" fill="url(#paint0_linear_4570_39255)" shape-rendering="crispEdges"/>
<path d="M121.992 87.9988L122.003 86.9989C121.736 86.9958 121.479 87.0997 121.289 87.2876C121.099 87.4755 120.992 87.7316 120.992 87.9988H121.992ZM121.992 49.5418H120.992C120.992 49.809 121.099 50.0652 121.289 50.253C121.479 50.4409 121.736 50.5448 122.003 50.5417L121.992 49.5418ZM121.992 49.5405H122.992C122.992 48.9882 122.544 48.5405 121.992 48.5405V49.5405ZM117.137 49.5405L116.146 49.4085C116.108 49.6942 116.195 49.9824 116.385 50.1993C116.575 50.4161 116.849 50.5405 117.137 50.5405V49.5405ZM60.0591 50.0389L59.8278 51.0118C60.151 51.0886 60.4912 50.9999 60.7358 50.7751C60.9804 50.5503 61.0974 50.2188 61.048 49.8903L60.0591 50.0389ZM56.0095 87.9986L56.802 88.6085C57.0357 88.3049 57.0753 87.8945 56.9041 87.5518C56.7329 87.209 56.3809 86.9942 55.9978 86.9987L56.0095 87.9986ZM56.0084 88.0001L55.2159 87.3902C54.9835 87.6921 54.9429 88.0999 55.1112 88.4417C55.2795 88.7836 55.6274 89.0001 56.0084 89.0001V88.0001ZM121.992 88.0001V89.0001C122.544 89.0001 122.992 88.5524 122.992 88.0001H121.992ZM121.98 88.9987C122.057 88.9996 122.133 89.0001 122.21 89.0001V87.0001C122.141 87.0001 122.072 86.9997 122.003 86.9989L121.98 88.9987ZM122.21 89.0001C133.161 89.0001 142 79.921 142 68.7703H140C140 78.8603 132.013 87.0001 122.21 87.0001V89.0001ZM142 68.7703C142 57.6196 133.161 48.5405 122.21 48.5405V50.5405C132.013 50.5405 140 58.6803 140 68.7703H142ZM122.21 48.5405C122.133 48.5405 122.057 48.541 121.98 48.5419L122.003 50.5417C122.072 50.5409 122.141 50.5405 122.21 50.5405V48.5405ZM120.992 49.5405V49.5418H122.992V49.5405H120.992ZM117.137 50.5405H121.992V48.5405H117.137V50.5405ZM118.129 49.6726C118.31 48.3129 118.403 46.9251 118.403 45.5155H116.403C116.403 46.8365 116.316 48.1361 116.146 49.4085L118.129 49.6726ZM118.403 45.5155C118.403 28.6842 105.065 15 88.5629 15V17C103.917 17 116.403 29.7449 116.403 45.5155H118.403ZM88.5629 15C72.0609 15 58.7226 28.6842 58.7226 45.5155H60.7226C60.7226 29.7449 73.2088 17 88.5629 17V15ZM58.7226 45.5155C58.7226 47.1035 58.8413 48.6638 59.0702 50.1875L61.048 49.8903C60.8338 48.4647 60.7226 47.0037 60.7226 45.5155H58.7226ZM60.2905 49.066C58.8438 48.722 57.337 48.5404 55.7899 48.5404V50.5404C57.1799 50.5404 58.5314 50.7035 59.8278 51.0118L60.2905 49.066ZM55.7899 48.5404C44.8386 48.5404 36 57.6195 36 68.7701H38C38 58.6802 45.9865 50.5404 55.7899 50.5404V48.5404ZM36 68.7701C36 79.9208 44.8386 88.9999 55.7899 88.9999V86.9999C45.9865 86.9999 38 78.8601 38 68.7701H36ZM55.7899 88.9999C55.8672 88.9999 55.9443 88.9995 56.0212 88.9986L55.9978 86.9987C55.9286 86.9995 55.8593 86.9999 55.7899 86.9999V88.9999ZM56.8009 88.61L56.802 88.6085L55.2171 87.3887L55.2159 87.3902L56.8009 88.61ZM121.992 87.0001H56.0084V89.0001H121.992V87.0001ZM120.992 87.9988V88.0001H122.992V87.9988H120.992Z" fill="url(#paint1_linear_4570_39255)" mask="url(#path-1-inside-1_4570_39255)"/>
</g>
<g filter="url(#filter1_bd_4570_39255)">
<mask id="path-3-inside-2_4570_39255" fill="white">
<path fill-rule="evenodd" clip-rule="evenodd" d="M112.605 121.998C112.695 121.999 112.784 122 112.874 122C125.646 122 136 111.477 136 98.4967C136 85.5163 125.646 74.9937 112.874 74.9937C112.784 74.9937 112.695 74.9942 112.605 74.9952V74.9937H106.631C106.847 73.3852 106.958 71.7431 106.958 70.0745C106.958 50.1511 91.066 34 71.4622 34C51.8583 34 35.9663 50.1511 35.9663 70.0745C35.9663 71.9544 36.1078 73.8008 36.3806 75.6032C34.6925 75.2046 32.9335 74.9939 31.1261 74.9939C18.3539 74.9939 8 85.5166 8 98.4969C8 111.477 18.3539 122 31.1261 122C31.2162 122 31.3061 122 31.396 121.998L31.3949 122H112.605V121.998Z"/>
</mask>
<path fill-rule="evenodd" clip-rule="evenodd" d="M112.605 121.998C112.695 121.999 112.784 122 112.874 122C125.646 122 136 111.477 136 98.4967C136 85.5163 125.646 74.9937 112.874 74.9937C112.784 74.9937 112.695 74.9942 112.605 74.9952V74.9937H106.631C106.847 73.3852 106.958 71.7431 106.958 70.0745C106.958 50.1511 91.066 34 71.4622 34C51.8583 34 35.9663 50.1511 35.9663 70.0745C35.9663 71.9544 36.1078 73.8008 36.3806 75.6032C34.6925 75.2046 32.9335 74.9939 31.1261 74.9939C18.3539 74.9939 8 85.5166 8 98.4969C8 111.477 18.3539 122 31.1261 122C31.2162 122 31.3061 122 31.396 121.998L31.3949 122H112.605V121.998Z" fill="url(#paint2_linear_4570_39255)" shape-rendering="crispEdges"/>
<path d="M112.605 121.998L112.617 120.998C112.35 120.995 112.092 121.099 111.902 121.287C111.712 121.475 111.605 121.731 111.605 121.998H112.605ZM112.605 74.9952H111.605C111.605 75.2624 111.712 75.5185 111.902 75.7064C112.092 75.8942 112.35 75.9982 112.617 75.9951L112.605 74.9952ZM112.605 74.9937H113.605C113.605 74.4414 113.157 73.9937 112.605 73.9937V74.9937ZM106.631 74.9937L105.64 74.8607C105.601 75.1465 105.688 75.435 105.878 75.6521C106.068 75.8691 106.342 75.9937 106.631 75.9937V74.9937ZM36.3806 75.6032L36.1508 76.5764C36.474 76.6528 36.814 76.5636 37.0582 76.3386C37.3024 76.1135 37.419 75.7819 37.3693 75.4536L36.3806 75.6032ZM31.396 121.998L32.1851 122.613C32.421 122.31 32.4625 121.898 32.2918 121.554C32.1211 121.21 31.7684 120.994 31.3844 120.999L31.396 121.998ZM31.3949 122L30.6058 121.386C30.3712 121.687 30.3288 122.096 30.4965 122.439C30.6643 122.782 31.0129 123 31.3949 123V122ZM112.605 122V123C113.157 123 113.605 122.552 113.605 122H112.605ZM112.594 122.998C112.687 122.999 112.78 123 112.874 123V121C112.788 121 112.702 120.999 112.617 120.998L112.594 122.998ZM112.874 123C126.214 123 137 112.014 137 98.4967H135C135 110.94 125.079 121 112.874 121V123ZM137 98.4967C137 84.9794 126.214 73.9937 112.874 73.9937V75.9937C125.079 75.9937 135 86.0533 135 98.4967H137ZM112.874 73.9937C112.78 73.9937 112.687 73.9942 112.594 73.9953L112.617 75.9951C112.702 75.9942 112.788 75.9937 112.874 75.9937V73.9937ZM111.605 74.9937V74.9952H113.605V74.9937H111.605ZM106.631 75.9937H112.605V73.9937H106.631V75.9937ZM107.622 75.1266C107.844 73.4742 107.958 71.7877 107.958 70.0745H105.958C105.958 71.6985 105.85 73.2962 105.64 74.8607L107.622 75.1266ZM107.958 70.0745C107.958 49.6141 91.6335 33 71.4622 33V35C90.4985 35 105.958 50.6881 105.958 70.0745H107.958ZM71.4622 33C51.2909 33 34.9663 49.6141 34.9663 70.0745H36.9663C36.9663 50.6881 52.4258 35 71.4622 35V33ZM34.9663 70.0745C34.9663 72.0047 35.1116 73.9011 35.3918 75.7528L37.3693 75.4536C37.104 73.7006 36.9663 71.9042 36.9663 70.0745H34.9663ZM36.6104 74.63C34.8476 74.2137 33.0115 73.9939 31.1261 73.9939V75.9939C32.8555 75.9939 34.5374 76.1955 36.1508 76.5764L36.6104 74.63ZM31.1261 73.9939C17.7864 73.9939 7 84.9796 7 98.4969H9C9 86.0535 18.9214 75.9939 31.1261 75.9939V73.9939ZM7 98.4969C7 112.014 17.7864 123 31.1261 123V121C18.9214 121 9 110.94 9 98.4969H7ZM31.1261 123C31.22 123 31.3139 122.999 31.4076 122.998L31.3844 120.999C31.2984 121 31.2123 121 31.1261 121V123ZM32.1841 122.614L32.1851 122.613L30.6069 121.384L30.6058 121.386L32.1841 122.614ZM112.605 121H31.3949V123H112.605V121ZM111.605 121.998V122H113.605V121.998H111.605Z" fill="url(#paint3_linear_4570_39255)" mask="url(#path-3-inside-2_4570_39255)"/>
</g>
<g filter="url(#filter2_bd_4570_39255)">
<mask id="path-5-inside-3_4570_39255" fill="white">
<path fill-rule="evenodd" clip-rule="evenodd" d="M144.281 101.955C144.342 101.955 144.402 101.956 144.462 101.956C153.043 101.956 160 94.9991 160 86.4178C160 77.8365 153.043 70.88 144.462 70.88C144.402 70.88 144.342 70.8804 144.281 70.881V70.88H140.267C140.412 69.8167 140.487 68.7311 140.487 67.628C140.487 54.4567 129.81 43.7793 116.639 43.7793C103.467 43.7793 92.7898 54.4567 92.7898 67.628C92.7898 68.8708 92.8849 70.0913 93.0681 71.2828C91.934 71.0193 90.7522 70.88 89.5378 70.88C80.9565 70.88 74 77.8365 74 86.4178C74 94.9991 80.9565 101.956 89.5378 101.956C89.5984 101.956 89.6589 101.955 89.7193 101.955L89.7184 101.956H144.281V101.955Z"/>
</mask>
<path fill-rule="evenodd" clip-rule="evenodd" d="M144.281 101.955C144.342 101.955 144.402 101.956 144.462 101.956C153.043 101.956 160 94.9991 160 86.4178C160 77.8365 153.043 70.88 144.462 70.88C144.402 70.88 144.342 70.8804 144.281 70.881V70.88H140.267C140.412 69.8167 140.487 68.7311 140.487 67.628C140.487 54.4567 129.81 43.7793 116.639 43.7793C103.467 43.7793 92.7898 54.4567 92.7898 67.628C92.7898 68.8708 92.8849 70.0913 93.0681 71.2828C91.934 71.0193 90.7522 70.88 89.5378 70.88C80.9565 70.88 74 77.8365 74 86.4178C74 94.9991 80.9565 101.956 89.5378 101.956C89.5984 101.956 89.6589 101.955 89.7193 101.955L89.7184 101.956H144.281V101.955Z" fill="url(#paint4_linear_4570_39255)" shape-rendering="crispEdges"/>
<path d="M144.281 101.955L144.293 100.955C144.026 100.952 143.768 101.056 143.578 101.243C143.388 101.431 143.281 101.687 143.281 101.955H144.281ZM144.281 70.881H143.281C143.281 71.1482 143.388 71.4043 143.578 71.5922C143.768 71.78 144.026 71.884 144.293 71.881L144.281 70.881ZM144.281 70.88H145.281C145.281 70.3277 144.834 69.88 144.281 69.88V70.88ZM140.267 70.88L139.277 70.7449C139.238 71.031 139.324 71.3201 139.514 71.5376C139.704 71.7552 139.979 71.88 140.267 71.88V70.88ZM93.0681 71.2828L92.8418 72.2569C93.1651 72.332 93.5046 72.2418 93.748 72.0162C93.9914 71.7905 94.107 71.4588 94.0565 71.1308L93.0681 71.2828ZM89.7193 101.955L90.5045 102.574C90.743 102.271 90.7866 101.859 90.6165 101.513C90.4465 101.167 90.093 100.95 89.7078 100.955L89.7193 101.955ZM89.7184 101.956L88.9332 101.336C88.696 101.637 88.6515 102.047 88.8187 102.392C88.9858 102.737 89.3353 102.956 89.7184 102.956V101.956ZM144.281 101.956V102.956C144.834 102.956 145.281 102.508 145.281 101.956H144.281ZM144.27 102.955C144.334 102.955 144.398 102.956 144.462 102.956V100.956C144.406 100.956 144.349 100.955 144.293 100.955L144.27 102.955ZM144.462 102.956C153.596 102.956 161 95.5514 161 86.4178H159C159 94.4468 152.491 100.956 144.462 100.956V102.956ZM161 86.4178C161 77.2842 153.596 69.88 144.462 69.88V71.88C152.491 71.88 159 78.3888 159 86.4178H161ZM144.462 69.88C144.398 69.88 144.334 69.8804 144.27 69.8811L144.293 71.881C144.349 71.8803 144.406 71.88 144.462 71.88V69.88ZM143.281 70.88V70.881H145.281V70.88H143.281ZM140.267 71.88H144.281V69.88H140.267V71.88ZM141.258 71.0151C141.409 69.9072 141.487 68.7764 141.487 67.628H139.487C139.487 68.6858 139.416 69.7263 139.277 70.7449L141.258 71.0151ZM141.487 67.628C141.487 53.9045 130.362 42.7793 116.639 42.7793V44.7793C129.258 44.7793 139.487 55.009 139.487 67.628H141.487ZM116.639 42.7793C102.915 42.7793 91.7898 53.9045 91.7898 67.628H93.7898C93.7898 55.009 104.02 44.7793 116.639 44.7793V42.7793ZM91.7898 67.628C91.7898 68.9219 91.8888 70.1932 92.0797 71.4348L94.0565 71.1308C93.881 69.9895 93.7898 68.8197 93.7898 67.628H91.7898ZM93.2944 70.3088C92.0866 70.0281 90.8289 69.88 89.5378 69.88V71.88C90.6754 71.88 91.7813 72.0105 92.8418 72.2569L93.2944 70.3088ZM89.5378 69.88C80.4042 69.88 73 77.2842 73 86.4178H75C75 78.3888 81.5088 71.88 89.5378 71.88V69.88ZM73 86.4178C73 95.5514 80.4042 102.956 89.5378 102.956V100.956C81.5088 100.956 75 94.4468 75 86.4178H73ZM89.5378 102.956C89.6022 102.956 89.6665 102.955 89.7307 102.955L89.7078 100.955C89.6512 100.955 89.5946 100.956 89.5378 100.956V102.956ZM90.5037 102.575L90.5045 102.574L88.934 101.335L88.9332 101.336L90.5037 102.575ZM144.281 100.956H89.7184V102.956H144.281V100.956ZM143.281 101.955V101.956H145.281V101.955H143.281Z" fill="url(#paint5_linear_4570_39255)" mask="url(#path-5-inside-3_4570_39255)"/>
</g>
<path d="M98.7726 108.012C100.447 105.862 103.89 106.91 104.084 109.627L104.763 119.141C105.095 123.784 100.667 127.316 96.2138 125.962C91.7605 124.607 90.0498 119.208 92.9106 115.536L98.7726 108.012Z" fill="url(#paint6_linear_4570_39255)" stroke="url(#paint7_linear_4570_39255)" stroke-width="2"/>
<path d="M132.066 108.012C133.741 105.862 137.184 106.91 137.378 109.627L138.057 119.141C138.388 123.784 133.961 127.316 129.508 125.962C125.054 124.607 123.344 119.208 126.204 115.536L132.066 108.012Z" fill="url(#paint8_linear_4570_39255)" stroke="url(#paint9_linear_4570_39255)" stroke-width="2"/>
<path d="M114.067 132.012C115.741 129.862 119.184 130.91 119.378 133.627L120.057 143.141C120.389 147.784 115.961 151.316 111.508 149.962C107.054 148.607 105.344 143.208 108.205 139.536L114.067 132.012Z" fill="url(#paint10_linear_4570_39255)" stroke="url(#paint11_linear_4570_39255)" stroke-width="2"/>
<defs>
<filter id="filter0_bd_4570_39255" x="29" y="8" width="120" height="92" filterUnits="userSpaceOnUse" color-interpolation-filters="sRGB">
<feFlood flood-opacity="0" result="BackgroundImageFix"/>
<feGaussianBlur in="BackgroundImageFix" stdDeviation="4"/>
<feComposite in2="SourceAlpha" operator="in" result="effect1_backgroundBlur_4570_39255"/>
<feColorMatrix in="SourceAlpha" type="matrix" values="0 0 0 0 0 0 0 0 0 0 0 0 0 0 0 0 0 0 127 0" result="hardAlpha"/>
<feOffset dy="4"/>
<feGaussianBlur stdDeviation="4"/>
<feComposite in2="hardAlpha" operator="out"/>
<feColorMatrix type="matrix" values="0 0 0 0 0.0666667 0 0 0 0 0.0980392 0 0 0 0 0.117647 0 0 0 0.2 0"/>
<feBlend mode="normal" in2="effect1_backgroundBlur_4570_39255" result="effect2_dropShadow_4570_39255"/>
<feBlend mode="normal" in="SourceGraphic" in2="effect2_dropShadow_4570_39255" result="shape"/>
</filter>
<filter id="filter1_bd_4570_39255" x="0" y="26" width="144" height="108" filterUnits="userSpaceOnUse" color-interpolation-filters="sRGB">
<feFlood flood-opacity="0" result="BackgroundImageFix"/>
<feGaussianBlur in="BackgroundImageFix" stdDeviation="4"/>
<feComposite in2="SourceAlpha" operator="in" result="effect1_backgroundBlur_4570_39255"/>
<feColorMatrix in="SourceAlpha" type="matrix" values="0 0 0 0 0 0 0 0 0 0 0 0 0 0 0 0 0 0 127 0" result="hardAlpha"/>
<feOffset dy="4"/>
<feGaussianBlur stdDeviation="4"/>
<feComposite in2="hardAlpha" operator="out"/>
<feColorMatrix type="matrix" values="0 0 0 0 0.0666667 0 0 0 0 0.0980392 0 0 0 0 0.117647 0 0 0 0.2 0"/>
<feBlend mode="normal" in2="effect1_backgroundBlur_4570_39255" result="effect2_dropShadow_4570_39255"/>
<feBlend mode="normal" in="SourceGraphic" in2="effect2_dropShadow_4570_39255" result="shape"/>
</filter>
<filter id="filter2_bd_4570_39255" x="58" y="27.7793" width="118" height="90.1763" filterUnits="userSpaceOnUse" color-interpolation-filters="sRGB">
<feFlood flood-opacity="0" result="BackgroundImageFix"/>
<feGaussianBlur in="BackgroundImageFix" stdDeviation="8"/>
<feComposite in2="SourceAlpha" operator="in" result="effect1_backgroundBlur_4570_39255"/>
<feColorMatrix in="SourceAlpha" type="matrix" values="0 0 0 0 0 0 0 0 0 0 0 0 0 0 0 0 0 0 127 0" result="hardAlpha"/>
<feOffset dy="4"/>
<feGaussianBlur stdDeviation="4"/>
<feComposite in2="hardAlpha" operator="out"/>
<feColorMatrix type="matrix" values="0 0 0 0 0.0666667 0 0 0 0 0.0980392 0 0 0 0 0.117647 0 0 0 0.2 0"/>
<feBlend mode="normal" in2="effect1_backgroundBlur_4570_39255" result="effect2_dropShadow_4570_39255"/>
<feBlend mode="normal" in="SourceGraphic" in2="effect2_dropShadow_4570_39255" result="shape"/>
</filter>
<linearGradient id="paint0_linear_4570_39255" x1="89" y1="-7.03106" x2="89" y2="98.0621" gradientUnits="userSpaceOnUse">
<stop stop-color="white"/>
<stop offset="1" stop-color="white" stop-opacity="0"/>
</linearGradient>
<linearGradient id="paint1_linear_4570_39255" x1="89" y1="16" x2="89" y2="88" gradientUnits="userSpaceOnUse">
<stop stop-color="white"/>
<stop offset="1" stop-color="white" stop-opacity="0"/>
</linearGradient>
<linearGradient id="paint2_linear_4570_39255" x1="72" y1="5.85093" x2="72" y2="134.298" gradientUnits="userSpaceOnUse">
<stop stop-color="white"/>
<stop offset="1" stop-color="white" stop-opacity="0"/>
</linearGradient>
<linearGradient id="paint3_linear_4570_39255" x1="72" y1="34" x2="72" y2="122" gradientUnits="userSpaceOnUse">
<stop stop-color="white"/>
<stop offset="1" stop-color="white" stop-opacity="0"/>
</linearGradient>
<linearGradient id="paint4_linear_4570_39255" x1="117" y1="25.1701" x2="117" y2="110.086" gradientUnits="userSpaceOnUse">
<stop stop-color="white"/>
<stop offset="1" stop-color="white" stop-opacity="0"/>
</linearGradient>
<linearGradient id="paint5_linear_4570_39255" x1="117" y1="43.7793" x2="117" y2="101.956" gradientUnits="userSpaceOnUse">
<stop stop-color="white"/>
<stop offset="1" stop-color="white" stop-opacity="0"/>
</linearGradient>
<linearGradient id="paint6_linear_4570_39255" x1="104.344" y1="99.2332" x2="95.9228" y2="126.918" gradientUnits="userSpaceOnUse">
<stop stop-color="#138EFF"/>
<stop offset="1" stop-color="#00E0FF"/>
</linearGradient>
<linearGradient id="paint7_linear_4570_39255" x1="104.344" y1="99.2332" x2="95.9228" y2="126.918" gradientUnits="userSpaceOnUse">
<stop stop-color="white"/>
<stop offset="1" stop-color="white" stop-opacity="0"/>
</linearGradient>
<linearGradient id="paint8_linear_4570_39255" x1="137.638" y1="99.2332" x2="129.217" y2="126.918" gradientUnits="userSpaceOnUse">
<stop stop-color="#138EFF"/>
<stop offset="1" stop-color="#00E0FF"/>
</linearGradient>
<linearGradient id="paint9_linear_4570_39255" x1="137.638" y1="99.2332" x2="129.217" y2="126.918" gradientUnits="userSpaceOnUse">
<stop stop-color="white"/>
<stop offset="1" stop-color="white" stop-opacity="0"/>
</linearGradient>
<linearGradient id="paint10_linear_4570_39255" x1="119.638" y1="123.233" x2="111.217" y2="150.918" gradientUnits="userSpaceOnUse">
<stop stop-color="#138EFF"/>
<stop offset="1" stop-color="#00E0FF"/>
</linearGradient>
<linearGradient id="paint11_linear_4570_39255" x1="119.638" y1="123.233" x2="111.217" y2="150.918" gradientUnits="userSpaceOnUse">
<stop stop-color="white"/>
<stop offset="1" stop-color="white" stop-opacity="0"/>
</linearGradient>
</defs>
</svg>
