<svg width="168" height="168" viewBox="0 0 168 168" fill="none" xmlns="http://www.w3.org/2000/svg">
<g filter="url(#filter0_bd_4570_39252)">
<mask id="path-1-inside-1_4570_39252" fill="white">
<path fill-rule="evenodd" clip-rule="evenodd" d="M78.2815 103.176C78.3416 103.176 78.4018 103.177 78.4622 103.177C87.0435 103.177 94 96.2203 94 87.639C94 79.0577 87.0435 72.1012 78.4622 72.1012C78.4018 72.1012 78.3416 72.1015 78.2815 72.1022V72.1012H74.2674C74.4124 71.0377 74.4873 69.952 74.4873 68.8487C74.4873 55.6774 63.8099 45 50.6386 45C37.4673 45 26.7898 55.6774 26.7898 68.8487C26.7898 70.0917 26.8849 71.3124 27.0682 72.504C25.934 72.2405 24.7522 72.1012 23.5378 72.1012C14.9565 72.1012 8 79.0577 8 87.639C8 96.2203 14.9565 103.177 23.5378 103.177C23.5984 103.177 23.6589 103.176 23.7193 103.176L23.7184 103.177H78.2815V103.176Z"/>
</mask>
<path fill-rule="evenodd" clip-rule="evenodd" d="M78.2815 103.176C78.3416 103.176 78.4018 103.177 78.4622 103.177C87.0435 103.177 94 96.2203 94 87.639C94 79.0577 87.0435 72.1012 78.4622 72.1012C78.4018 72.1012 78.3416 72.1015 78.2815 72.1022V72.1012H74.2674C74.4124 71.0377 74.4873 69.952 74.4873 68.8487C74.4873 55.6774 63.8099 45 50.6386 45C37.4673 45 26.7898 55.6774 26.7898 68.8487C26.7898 70.0917 26.8849 71.3124 27.0682 72.504C25.934 72.2405 24.7522 72.1012 23.5378 72.1012C14.9565 72.1012 8 79.0577 8 87.639C8 96.2203 14.9565 103.177 23.5378 103.177C23.5984 103.177 23.6589 103.176 23.7193 103.176L23.7184 103.177H78.2815V103.176Z" fill="url(#paint0_linear_4570_39252)" shape-rendering="crispEdges"/>
<path d="M78.2815 103.176L78.2929 102.176C78.0257 102.173 77.7684 102.277 77.5784 102.465C77.3884 102.653 77.2815 102.909 77.2815 103.176H78.2815ZM78.2815 72.1022H77.2815C77.2815 72.3694 77.3884 72.6255 77.5784 72.8133C77.7684 73.0012 78.0257 73.1052 78.2928 73.1021L78.2815 72.1022ZM78.2815 72.1012H79.2815C79.2815 71.5489 78.8337 71.1012 78.2815 71.1012V72.1012ZM74.2674 72.1012L73.2766 71.9661C73.2375 72.2522 73.3241 72.5412 73.514 72.7588C73.7039 72.9763 73.9786 73.1012 74.2674 73.1012V72.1012ZM27.0682 72.504L26.8419 73.4781C27.1652 73.5532 27.5047 73.463 27.7481 73.2374C27.9915 73.0117 28.107 72.68 28.0566 72.352L27.0682 72.504ZM23.7193 103.176L24.5045 103.795C24.743 103.493 24.7866 103.08 24.6165 102.734C24.4465 102.389 24.093 102.171 23.7078 102.176L23.7193 103.176ZM23.7184 103.177L22.9332 102.558C22.696 102.858 22.6515 103.268 22.8187 103.613C22.9858 103.958 23.3353 104.177 23.7184 104.177V103.177ZM78.2815 103.177V104.177C78.8337 104.177 79.2815 103.729 79.2815 103.177H78.2815ZM78.2701 104.176C78.334 104.176 78.3981 104.177 78.4622 104.177V102.177C78.4056 102.177 78.3492 102.176 78.2929 102.176L78.2701 104.176ZM78.4622 104.177C87.5957 104.177 95 96.7726 95 87.639H93C93 95.668 86.4912 102.177 78.4622 102.177V104.177ZM95 87.639C95 78.5054 87.5957 71.1012 78.4622 71.1012V73.1012C86.4912 73.1012 93 79.61 93 87.639H95ZM78.4622 71.1012C78.398 71.1012 78.334 71.1016 78.2701 71.1023L78.2928 73.1021C78.3492 73.1015 78.4057 73.1012 78.4622 73.1012V71.1012ZM77.2815 72.1012V72.1022H79.2815V72.1012H77.2815ZM74.2674 73.1012H78.2815V71.1012H74.2674V73.1012ZM75.2582 72.2363C75.4093 71.1282 75.4873 69.9973 75.4873 68.8487H73.4873C73.4873 69.9067 73.4155 70.9473 73.2766 71.9661L75.2582 72.2363ZM75.4873 68.8487C75.4873 55.1252 64.3622 44 50.6386 44V46C63.2576 46 73.4873 56.2297 73.4873 68.8487H75.4873ZM50.6386 44C36.915 44 25.7898 55.1252 25.7898 68.8487H27.7898C27.7898 56.2297 38.0196 46 50.6386 46V44ZM25.7898 68.8487C25.7898 70.1427 25.8888 71.4143 26.0798 72.656L28.0566 72.352C27.881 71.2105 27.7898 70.0406 27.7898 68.8487H25.7898ZM27.2945 71.53C26.0867 71.2493 24.8289 71.1012 23.5378 71.1012V73.1012C24.6755 73.1012 25.7814 73.2317 26.8419 73.4781L27.2945 71.53ZM23.5378 71.1012C14.4042 71.1012 7 78.5054 7 87.639H9C9 79.61 15.5088 73.1012 23.5378 73.1012V71.1012ZM7 87.639C7 96.7726 14.4042 104.177 23.5378 104.177V102.177C15.5088 102.177 9 95.668 9 87.639H7ZM23.5378 104.177C23.6022 104.177 23.6665 104.176 23.7307 104.176L23.7078 102.176C23.6512 102.176 23.5946 102.177 23.5378 102.177V104.177ZM24.5037 103.796L24.5045 103.795L22.934 102.557L22.9332 102.558L24.5037 103.796ZM78.2815 102.177H23.7184V104.177H78.2815V102.177ZM77.2815 103.176V103.177H79.2815V103.176H77.2815Z" fill="url(#paint1_linear_4570_39252)" mask="url(#path-1-inside-1_4570_39252)"/>
</g>
<g filter="url(#filter1_bd_4570_39252)">
<mask id="path-3-inside-2_4570_39252" fill="white">
<path fill-rule="evenodd" clip-rule="evenodd" d="M131.992 95.9988C132.064 95.9997 132.137 96.0001 132.21 96.0001C142.587 96.0001 151 87.3906 151 76.7703C151 66.15 142.587 57.5405 132.21 57.5405C132.137 57.5405 132.064 57.541 131.992 57.5418V57.5405H127.137C127.313 56.2245 127.403 54.8808 127.403 53.5155C127.403 37.2145 114.491 24 98.5629 24C82.6348 24 69.7226 37.2145 69.7226 53.5155C69.7226 55.0536 69.8375 56.5642 70.0591 58.0389C68.6876 57.7128 67.2584 57.5404 65.7899 57.5404C55.4125 57.5404 47 66.1498 47 76.7701C47 87.3905 55.4125 95.9999 65.7899 95.9999C65.8632 95.9999 65.9364 95.9995 66.0095 95.9986L66.0084 96.0001H131.992V95.9988Z"/>
</mask>
<path fill-rule="evenodd" clip-rule="evenodd" d="M131.992 95.9988C132.064 95.9997 132.137 96.0001 132.21 96.0001C142.587 96.0001 151 87.3906 151 76.7703C151 66.15 142.587 57.5405 132.21 57.5405C132.137 57.5405 132.064 57.541 131.992 57.5418V57.5405H127.137C127.313 56.2245 127.403 54.8808 127.403 53.5155C127.403 37.2145 114.491 24 98.5629 24C82.6348 24 69.7226 37.2145 69.7226 53.5155C69.7226 55.0536 69.8375 56.5642 70.0591 58.0389C68.6876 57.7128 67.2584 57.5404 65.7899 57.5404C55.4125 57.5404 47 66.1498 47 76.7701C47 87.3905 55.4125 95.9999 65.7899 95.9999C65.8632 95.9999 65.9364 95.9995 66.0095 95.9986L66.0084 96.0001H131.992V95.9988Z" fill="url(#paint2_linear_4570_39252)" shape-rendering="crispEdges"/>
<path d="M131.992 95.9988L132.003 94.9989C131.736 94.9958 131.479 95.0997 131.289 95.2876C131.099 95.4755 130.992 95.7316 130.992 95.9988H131.992ZM131.992 57.5418H130.992C130.992 57.809 131.099 58.0652 131.289 58.253C131.479 58.4409 131.736 58.5448 132.003 58.5417L131.992 57.5418ZM131.992 57.5405H132.992C132.992 56.9882 132.544 56.5405 131.992 56.5405V57.5405ZM127.137 57.5405L126.146 57.4085C126.108 57.6942 126.195 57.9824 126.385 58.1993C126.575 58.4161 126.849 58.5405 127.137 58.5405V57.5405ZM70.0591 58.0389L69.8278 59.0118C70.151 59.0886 70.4912 58.9999 70.7358 58.7751C70.9804 58.5503 71.0974 58.2188 71.048 57.8903L70.0591 58.0389ZM66.0095 95.9986L66.802 96.6085C67.0357 96.3049 67.0753 95.8945 66.9041 95.5518C66.7329 95.209 66.3809 94.9942 65.9978 94.9987L66.0095 95.9986ZM66.0084 96.0001L65.2159 95.3902C64.9835 95.6921 64.9429 96.0999 65.1112 96.4417C65.2795 96.7836 65.6274 97.0001 66.0084 97.0001V96.0001ZM131.992 96.0001V97.0001C132.544 97.0001 132.992 96.5524 132.992 96.0001H131.992ZM131.98 96.9987C132.057 96.9996 132.133 97.0001 132.21 97.0001V95.0001C132.141 95.0001 132.072 94.9997 132.003 94.9989L131.98 96.9987ZM132.21 97.0001C143.161 97.0001 152 87.921 152 76.7703H150C150 86.8603 142.013 95.0001 132.21 95.0001V97.0001ZM152 76.7703C152 65.6196 143.161 56.5405 132.21 56.5405V58.5405C142.013 58.5405 150 66.6803 150 76.7703H152ZM132.21 56.5405C132.133 56.5405 132.057 56.541 131.98 56.5419L132.003 58.5417C132.072 58.5409 132.141 58.5405 132.21 58.5405V56.5405ZM130.992 57.5405V57.5418H132.992V57.5405H130.992ZM127.137 58.5405H131.992V56.5405H127.137V58.5405ZM128.129 57.6726C128.31 56.3129 128.403 54.9251 128.403 53.5155H126.403C126.403 54.8365 126.316 56.1361 126.146 57.4085L128.129 57.6726ZM128.403 53.5155C128.403 36.6842 115.065 23 98.5629 23V25C113.917 25 126.403 37.7449 126.403 53.5155H128.403ZM98.5629 23C82.0609 23 68.7226 36.6842 68.7226 53.5155H70.7226C70.7226 37.7449 83.2088 25 98.5629 25V23ZM68.7226 53.5155C68.7226 55.1035 68.8413 56.6638 69.0702 58.1875L71.048 57.8903C70.8338 56.4647 70.7226 55.0037 70.7226 53.5155H68.7226ZM70.2905 57.066C68.8438 56.722 67.337 56.5404 65.7899 56.5404V58.5404C67.1799 58.5404 68.5314 58.7035 69.8278 59.0118L70.2905 57.066ZM65.7899 56.5404C54.8386 56.5404 46 65.6195 46 76.7701H48C48 66.6802 55.9865 58.5404 65.7899 58.5404V56.5404ZM46 76.7701C46 87.9208 54.8386 96.9999 65.7899 96.9999V94.9999C55.9865 94.9999 48 86.8601 48 76.7701H46ZM65.7899 96.9999C65.8672 96.9999 65.9443 96.9995 66.0212 96.9986L65.9978 94.9987C65.9286 94.9995 65.8593 94.9999 65.7899 94.9999V96.9999ZM66.8009 96.61L66.802 96.6085L65.2171 95.3887L65.2159 95.3902L66.8009 96.61ZM131.992 95.0001H66.0084V97.0001H131.992V95.0001ZM130.992 95.9988V96.0001H132.992V95.9988H130.992Z" fill="url(#paint3_linear_4570_39252)" mask="url(#path-3-inside-2_4570_39252)"/>
</g>
<g filter="url(#filter2_bd_4570_39252)">
<mask id="path-5-inside-3_4570_39252" fill="white">
<path fill-rule="evenodd" clip-rule="evenodd" d="M112.605 143.998C112.695 143.999 112.784 144 112.874 144C125.646 144 136 133.477 136 120.497C136 107.516 125.646 96.9937 112.874 96.9937C112.784 96.9937 112.695 96.9942 112.605 96.9952V96.9937H106.631C106.847 95.3852 106.958 93.7431 106.958 92.0745C106.958 72.1511 91.066 56 71.4622 56C51.8583 56 35.9663 72.1511 35.9663 92.0745C35.9663 93.9544 36.1078 95.8008 36.3806 97.6032C34.6925 97.2046 32.9335 96.9939 31.1261 96.9939C18.3539 96.9939 8 107.517 8 120.497C8 133.477 18.3539 144 31.1261 144C31.2162 144 31.3061 144 31.396 143.998L31.3949 144H112.605V143.998Z"/>
</mask>
<path fill-rule="evenodd" clip-rule="evenodd" d="M112.605 143.998C112.695 143.999 112.784 144 112.874 144C125.646 144 136 133.477 136 120.497C136 107.516 125.646 96.9937 112.874 96.9937C112.784 96.9937 112.695 96.9942 112.605 96.9952V96.9937H106.631C106.847 95.3852 106.958 93.7431 106.958 92.0745C106.958 72.1511 91.066 56 71.4622 56C51.8583 56 35.9663 72.1511 35.9663 92.0745C35.9663 93.9544 36.1078 95.8008 36.3806 97.6032C34.6925 97.2046 32.9335 96.9939 31.1261 96.9939C18.3539 96.9939 8 107.517 8 120.497C8 133.477 18.3539 144 31.1261 144C31.2162 144 31.3061 144 31.396 143.998L31.3949 144H112.605V143.998Z" fill="url(#paint4_linear_4570_39252)" shape-rendering="crispEdges"/>
<path d="M112.605 143.998L112.617 142.998C112.35 142.995 112.092 143.099 111.902 143.287C111.712 143.475 111.605 143.731 111.605 143.998H112.605ZM112.605 96.9952H111.605C111.605 97.2624 111.712 97.5185 111.902 97.7064C112.092 97.8942 112.35 97.9982 112.617 97.9951L112.605 96.9952ZM112.605 96.9937H113.605C113.605 96.4414 113.157 95.9937 112.605 95.9937V96.9937ZM106.631 96.9937L105.64 96.8607C105.601 97.1465 105.688 97.435 105.878 97.6521C106.068 97.8691 106.342 97.9937 106.631 97.9937V96.9937ZM36.3806 97.6032L36.1508 98.5764C36.474 98.6528 36.814 98.5636 37.0582 98.3386C37.3024 98.1135 37.419 97.7819 37.3693 97.4536L36.3806 97.6032ZM31.396 143.998L32.1851 144.613C32.421 144.31 32.4625 143.898 32.2918 143.554C32.1211 143.21 31.7684 142.994 31.3844 142.999L31.396 143.998ZM31.3949 144L30.6058 143.386C30.3712 143.687 30.3288 144.096 30.4965 144.439C30.6643 144.782 31.0129 145 31.3949 145V144ZM112.605 144V145C113.157 145 113.605 144.552 113.605 144H112.605ZM112.594 144.998C112.687 144.999 112.78 145 112.874 145V143C112.788 143 112.702 142.999 112.617 142.998L112.594 144.998ZM112.874 145C126.214 145 137 134.014 137 120.497H135C135 132.94 125.079 143 112.874 143V145ZM137 120.497C137 106.979 126.214 95.9937 112.874 95.9937V97.9937C125.079 97.9937 135 108.053 135 120.497H137ZM112.874 95.9937C112.78 95.9937 112.687 95.9942 112.594 95.9953L112.617 97.9951C112.702 97.9942 112.788 97.9937 112.874 97.9937V95.9937ZM111.605 96.9937V96.9952H113.605V96.9937H111.605ZM106.631 97.9937H112.605V95.9937H106.631V97.9937ZM107.622 97.1266C107.844 95.4742 107.958 93.7877 107.958 92.0745H105.958C105.958 93.6985 105.85 95.2962 105.64 96.8607L107.622 97.1266ZM107.958 92.0745C107.958 71.6141 91.6335 55 71.4622 55V57C90.4985 57 105.958 72.6881 105.958 92.0745H107.958ZM71.4622 55C51.2909 55 34.9663 71.6141 34.9663 92.0745H36.9663C36.9663 72.6881 52.4258 57 71.4622 57V55ZM34.9663 92.0745C34.9663 94.0047 35.1116 95.9011 35.3918 97.7528L37.3693 97.4536C37.104 95.7006 36.9663 93.9042 36.9663 92.0745H34.9663ZM36.6104 96.63C34.8476 96.2137 33.0115 95.9939 31.1261 95.9939V97.9939C32.8555 97.9939 34.5374 98.1955 36.1508 98.5764L36.6104 96.63ZM31.1261 95.9939C17.7864 95.9939 7 106.98 7 120.497H9C9 108.054 18.9214 97.9939 31.1261 97.9939V95.9939ZM7 120.497C7 134.014 17.7864 145 31.1261 145V143C18.9214 143 9 132.94 9 120.497H7ZM31.1261 145C31.22 145 31.3139 144.999 31.4076 144.998L31.3844 142.999C31.2984 143 31.2123 143 31.1261 143V145ZM32.1841 144.614L32.1851 144.613L30.6069 143.384L30.6058 143.386L32.1841 144.614ZM112.605 143H31.3949V145H112.605V143ZM111.605 143.998V144H113.605V143.998H111.605Z" fill="url(#paint5_linear_4570_39252)" mask="url(#path-5-inside-3_4570_39252)"/>
</g>
<g filter="url(#filter3_bd_4570_39252)">
<mask id="path-7-inside-4_4570_39252" fill="white">
<path fill-rule="evenodd" clip-rule="evenodd" d="M144.281 123.955C144.342 123.955 144.402 123.956 144.462 123.956C153.043 123.956 160 116.999 160 108.418C160 99.8365 153.043 92.88 144.462 92.88C144.402 92.88 144.342 92.8804 144.281 92.881V92.88H140.267C140.412 91.8167 140.487 90.7311 140.487 89.628C140.487 76.4567 129.81 65.7793 116.639 65.7793C103.467 65.7793 92.7898 76.4567 92.7898 89.628C92.7898 90.8708 92.8849 92.0913 93.0681 93.2828C91.934 93.0193 90.7522 92.88 89.5378 92.88C80.9565 92.88 74 99.8365 74 108.418C74 116.999 80.9565 123.956 89.5378 123.956C89.5984 123.956 89.6589 123.955 89.7193 123.955L89.7184 123.956H144.281V123.955Z"/>
</mask>
<path fill-rule="evenodd" clip-rule="evenodd" d="M144.281 123.955C144.342 123.955 144.402 123.956 144.462 123.956C153.043 123.956 160 116.999 160 108.418C160 99.8365 153.043 92.88 144.462 92.88C144.402 92.88 144.342 92.8804 144.281 92.881V92.88H140.267C140.412 91.8167 140.487 90.7311 140.487 89.628C140.487 76.4567 129.81 65.7793 116.639 65.7793C103.467 65.7793 92.7898 76.4567 92.7898 89.628C92.7898 90.8708 92.8849 92.0913 93.0681 93.2828C91.934 93.0193 90.7522 92.88 89.5378 92.88C80.9565 92.88 74 99.8365 74 108.418C74 116.999 80.9565 123.956 89.5378 123.956C89.5984 123.956 89.6589 123.955 89.7193 123.955L89.7184 123.956H144.281V123.955Z" fill="url(#paint6_linear_4570_39252)" shape-rendering="crispEdges"/>
<path d="M144.281 123.955L144.293 122.955C144.026 122.952 143.768 123.056 143.578 123.243C143.388 123.431 143.281 123.687 143.281 123.955H144.281ZM144.281 92.881H143.281C143.281 93.1482 143.388 93.4043 143.578 93.5922C143.768 93.78 144.026 93.884 144.293 93.881L144.281 92.881ZM144.281 92.88H145.281C145.281 92.3277 144.834 91.88 144.281 91.88V92.88ZM140.267 92.88L139.277 92.7449C139.238 93.031 139.324 93.3201 139.514 93.5376C139.704 93.7552 139.979 93.88 140.267 93.88V92.88ZM93.0681 93.2828L92.8418 94.2569C93.1651 94.332 93.5046 94.2418 93.748 94.0162C93.9914 93.7905 94.107 93.4588 94.0565 93.1308L93.0681 93.2828ZM89.7193 123.955L90.5045 124.574C90.743 124.271 90.7866 123.859 90.6165 123.513C90.4465 123.167 90.093 122.95 89.7078 122.955L89.7193 123.955ZM89.7184 123.956L88.9332 123.336C88.696 123.637 88.6515 124.047 88.8187 124.392C88.9858 124.737 89.3353 124.956 89.7184 124.956V123.956ZM144.281 123.956V124.956C144.834 124.956 145.281 124.508 145.281 123.956H144.281ZM144.27 124.955C144.334 124.955 144.398 124.956 144.462 124.956V122.956C144.406 122.956 144.349 122.955 144.293 122.955L144.27 124.955ZM144.462 124.956C153.596 124.956 161 117.551 161 108.418H159C159 116.447 152.491 122.956 144.462 122.956V124.956ZM161 108.418C161 99.2842 153.596 91.88 144.462 91.88V93.88C152.491 93.88 159 100.389 159 108.418H161ZM144.462 91.88C144.398 91.88 144.334 91.8804 144.27 91.8811L144.293 93.881C144.349 93.8803 144.406 93.88 144.462 93.88V91.88ZM143.281 92.88V92.881H145.281V92.88H143.281ZM140.267 93.88H144.281V91.88H140.267V93.88ZM141.258 93.0151C141.409 91.9072 141.487 90.7764 141.487 89.628H139.487C139.487 90.6858 139.416 91.7263 139.277 92.7449L141.258 93.0151ZM141.487 89.628C141.487 75.9045 130.362 64.7793 116.639 64.7793V66.7793C129.258 66.7793 139.487 77.009 139.487 89.628H141.487ZM116.639 64.7793C102.915 64.7793 91.7898 75.9045 91.7898 89.628H93.7898C93.7898 77.009 104.02 66.7793 116.639 66.7793V64.7793ZM91.7898 89.628C91.7898 90.9219 91.8888 92.1932 92.0797 93.4348L94.0565 93.1308C93.881 91.9895 93.7898 90.8197 93.7898 89.628H91.7898ZM93.2944 92.3088C92.0866 92.0281 90.8289 91.88 89.5378 91.88V93.88C90.6754 93.88 91.7813 94.0105 92.8418 94.2569L93.2944 92.3088ZM89.5378 91.88C80.4042 91.88 73 99.2842 73 108.418H75C75 100.389 81.5088 93.88 89.5378 93.88V91.88ZM73 108.418C73 117.551 80.4042 124.956 89.5378 124.956V122.956C81.5088 122.956 75 116.447 75 108.418H73ZM89.5378 124.956C89.6022 124.956 89.6665 124.955 89.7307 124.955L89.7078 122.955C89.6512 122.955 89.5946 122.956 89.5378 122.956V124.956ZM90.5037 124.575L90.5045 124.574L88.934 123.335L88.9332 123.336L90.5037 124.575ZM144.281 122.956H89.7184V124.956H144.281V122.956ZM143.281 123.955V123.956H145.281V123.955H143.281Z" fill="url(#paint7_linear_4570_39252)" mask="url(#path-7-inside-4_4570_39252)"/>
</g>
<defs>
<filter id="filter0_bd_4570_39252" x="0" y="37" width="102" height="78.1768" filterUnits="userSpaceOnUse" color-interpolation-filters="sRGB">
<feFlood flood-opacity="0" result="BackgroundImageFix"/>
<feGaussianBlur in="BackgroundImageFix" stdDeviation="4"/>
<feComposite in2="SourceAlpha" operator="in" result="effect1_backgroundBlur_4570_39252"/>
<feColorMatrix in="SourceAlpha" type="matrix" values="0 0 0 0 0 0 0 0 0 0 0 0 0 0 0 0 0 0 127 0" result="hardAlpha"/>
<feOffset dy="4"/>
<feGaussianBlur stdDeviation="4"/>
<feComposite in2="hardAlpha" operator="out"/>
<feColorMatrix type="matrix" values="0 0 0 0 0.0666667 0 0 0 0 0.0980392 0 0 0 0 0.117647 0 0 0 0.2 0"/>
<feBlend mode="normal" in2="effect1_backgroundBlur_4570_39252" result="effect2_dropShadow_4570_39252"/>
<feBlend mode="normal" in="SourceGraphic" in2="effect2_dropShadow_4570_39252" result="shape"/>
</filter>
<filter id="filter1_bd_4570_39252" x="39" y="16" width="120" height="92" filterUnits="userSpaceOnUse" color-interpolation-filters="sRGB">
<feFlood flood-opacity="0" result="BackgroundImageFix"/>
<feGaussianBlur in="BackgroundImageFix" stdDeviation="4"/>
<feComposite in2="SourceAlpha" operator="in" result="effect1_backgroundBlur_4570_39252"/>
<feColorMatrix in="SourceAlpha" type="matrix" values="0 0 0 0 0 0 0 0 0 0 0 0 0 0 0 0 0 0 127 0" result="hardAlpha"/>
<feOffset dy="4"/>
<feGaussianBlur stdDeviation="4"/>
<feComposite in2="hardAlpha" operator="out"/>
<feColorMatrix type="matrix" values="0 0 0 0 0.0666667 0 0 0 0 0.0980392 0 0 0 0 0.117647 0 0 0 0.2 0"/>
<feBlend mode="normal" in2="effect1_backgroundBlur_4570_39252" result="effect2_dropShadow_4570_39252"/>
<feBlend mode="normal" in="SourceGraphic" in2="effect2_dropShadow_4570_39252" result="shape"/>
</filter>
<filter id="filter2_bd_4570_39252" x="0" y="48" width="144" height="108" filterUnits="userSpaceOnUse" color-interpolation-filters="sRGB">
<feFlood flood-opacity="0" result="BackgroundImageFix"/>
<feGaussianBlur in="BackgroundImageFix" stdDeviation="4"/>
<feComposite in2="SourceAlpha" operator="in" result="effect1_backgroundBlur_4570_39252"/>
<feColorMatrix in="SourceAlpha" type="matrix" values="0 0 0 0 0 0 0 0 0 0 0 0 0 0 0 0 0 0 127 0" result="hardAlpha"/>
<feOffset dy="4"/>
<feGaussianBlur stdDeviation="4"/>
<feComposite in2="hardAlpha" operator="out"/>
<feColorMatrix type="matrix" values="0 0 0 0 0.0666667 0 0 0 0 0.0980392 0 0 0 0 0.117647 0 0 0 0.2 0"/>
<feBlend mode="normal" in2="effect1_backgroundBlur_4570_39252" result="effect2_dropShadow_4570_39252"/>
<feBlend mode="normal" in="SourceGraphic" in2="effect2_dropShadow_4570_39252" result="shape"/>
</filter>
<filter id="filter3_bd_4570_39252" x="58" y="49.7793" width="118" height="90.1763" filterUnits="userSpaceOnUse" color-interpolation-filters="sRGB">
<feFlood flood-opacity="0" result="BackgroundImageFix"/>
<feGaussianBlur in="BackgroundImageFix" stdDeviation="8"/>
<feComposite in2="SourceAlpha" operator="in" result="effect1_backgroundBlur_4570_39252"/>
<feColorMatrix in="SourceAlpha" type="matrix" values="0 0 0 0 0 0 0 0 0 0 0 0 0 0 0 0 0 0 127 0" result="hardAlpha"/>
<feOffset dy="4"/>
<feGaussianBlur stdDeviation="4"/>
<feComposite in2="hardAlpha" operator="out"/>
<feColorMatrix type="matrix" values="0 0 0 0 0.0666667 0 0 0 0 0.0980392 0 0 0 0 0.117647 0 0 0 0.2 0"/>
<feBlend mode="normal" in2="effect1_backgroundBlur_4570_39252" result="effect2_dropShadow_4570_39252"/>
<feBlend mode="normal" in="SourceGraphic" in2="effect2_dropShadow_4570_39252" result="shape"/>
</filter>
<linearGradient id="paint0_linear_4570_39252" x1="51" y1="26.3906" x2="51" y2="111.307" gradientUnits="userSpaceOnUse">
<stop stop-color="white"/>
<stop offset="1" stop-color="white" stop-opacity="0"/>
</linearGradient>
<linearGradient id="paint1_linear_4570_39252" x1="51" y1="45" x2="51" y2="103.177" gradientUnits="userSpaceOnUse">
<stop stop-color="white"/>
<stop offset="1" stop-color="white" stop-opacity="0"/>
</linearGradient>
<linearGradient id="paint2_linear_4570_39252" x1="99" y1="0.968945" x2="99" y2="106.062" gradientUnits="userSpaceOnUse">
<stop stop-color="white"/>
<stop offset="1" stop-color="white" stop-opacity="0"/>
</linearGradient>
<linearGradient id="paint3_linear_4570_39252" x1="99" y1="24" x2="99" y2="96" gradientUnits="userSpaceOnUse">
<stop stop-color="white"/>
<stop offset="1" stop-color="white" stop-opacity="0"/>
</linearGradient>
<linearGradient id="paint4_linear_4570_39252" x1="72" y1="27.8509" x2="72" y2="156.298" gradientUnits="userSpaceOnUse">
<stop stop-color="white"/>
<stop offset="1" stop-color="white" stop-opacity="0"/>
</linearGradient>
<linearGradient id="paint5_linear_4570_39252" x1="72" y1="56" x2="72" y2="144" gradientUnits="userSpaceOnUse">
<stop stop-color="white"/>
<stop offset="1" stop-color="white" stop-opacity="0"/>
</linearGradient>
<linearGradient id="paint6_linear_4570_39252" x1="117" y1="47.1701" x2="117" y2="132.086" gradientUnits="userSpaceOnUse">
<stop stop-color="white"/>
<stop offset="1" stop-color="white" stop-opacity="0"/>
</linearGradient>
<linearGradient id="paint7_linear_4570_39252" x1="117" y1="65.7793" x2="117" y2="123.956" gradientUnits="userSpaceOnUse">
<stop stop-color="white"/>
<stop offset="1" stop-color="white" stop-opacity="0"/>
</linearGradient>
</defs>
</svg>
