<svg width="40" height="40" viewBox="0 0 40 40" fill="none" xmlns="http://www.w3.org/2000/svg">
<g filter="url(#filter0_i_4582_13418)">
<path d="M1 20C1 6.89 6.89 1 20 1C33.11 1 39 6.89 39 20C39 33.11 33.11 39 20 39C6.89 39 1 33.11 1 20Z" fill="#0099FF"/>
</g>
<path d="M2 20C2 13.5723 3.44621 9.1355 6.29086 6.29086C9.1355 3.44621 13.5723 2 20 2C26.4277 2 30.8645 3.44621 33.7091 6.29086C36.5538 9.1355 38 13.5723 38 20C38 26.4277 36.5538 30.8645 33.7091 33.7091C30.8645 36.5538 26.4277 38 20 38C13.5723 38 9.1355 36.5538 6.29086 33.7091C3.44621 30.8645 2 26.4277 2 20Z" stroke="url(#paint0_linear_4582_13418)" stroke-width="2" style="mix-blend-mode:overlay"/>
<mask id="mask0_4582_13418" style="mask-type:alpha" maskUnits="userSpaceOnUse" x="0" y="0" width="40" height="40">
<path d="M1 20C1 13.2273 2.52371 8.5405 5.53211 5.53211C8.5405 2.52371 13.2273 1 20 1C26.7727 1 31.4595 2.52371 34.4679 5.53211C37.4763 8.5405 39 13.2273 39 20C39 26.7727 37.4763 31.4595 34.4679 34.4679C31.4595 37.4763 26.7727 39 20 39C13.2273 39 8.5405 37.4763 5.53211 34.4679C2.52371 31.4595 1 26.7727 1 20Z" fill="#0099FF"/>
<path d="M1 20C1 13.2273 2.52371 8.5405 5.53211 5.53211C8.5405 2.52371 13.2273 1 20 1C26.7727 1 31.4595 2.52371 34.4679 5.53211C37.4763 8.5405 39 13.2273 39 20C39 26.7727 37.4763 31.4595 34.4679 34.4679C31.4595 37.4763 26.7727 39 20 39C13.2273 39 8.5405 37.4763 5.53211 34.4679C2.52371 31.4595 1 26.7727 1 20Z" stroke="url(#paint1_linear_4582_13418)" stroke-width="2"/>
</mask>
<g mask="url(#mask0_4582_13418)">
<g filter="url(#filter1_ddii_4582_13418)">
<path d="M11.1078 17.1132C11.1021 17.3857 11.1487 17.6566 11.2447 17.91C11.3407 18.1634 11.4842 18.3943 11.6668 18.5891C11.8494 18.7839 12.0674 18.9386 12.3081 19.0442C12.5487 19.1499 12.8072 19.2043 13.0682 19.2043C13.3293 19.2043 13.5878 19.1499 13.8284 19.0442C14.0691 18.9386 14.2871 18.7839 14.4697 18.5891C14.6523 18.3943 14.7958 18.1634 14.8918 17.91C14.9878 17.6566 15.0343 17.3857 15.0287 17.1132C15.2075 15.7813 14.1376 15.0209 13.0678 15.0209C12.5432 15.0308 12.0435 15.2559 11.6767 15.6475C11.3099 16.0391 11.1055 16.5656 11.1078 17.1132ZM29.7456 12.2445C29.4377 12.2289 29.136 12.3388 28.9041 12.5509C28.6723 12.7631 28.5284 13.0609 28.5028 13.3816C28.6815 13.9518 29.2154 14.5221 29.7514 14.5221C30.0601 14.536 30.362 14.4253 30.5945 14.2129C30.827 14.0005 30.9723 13.7028 31 13.3816C30.9712 13.0598 30.8251 12.7619 30.5919 12.5494C30.3587 12.3369 30.0561 12.226 29.7468 12.2397L29.7456 12.2445ZM24.3047 13.1854C24.7031 13.1948 25.0951 13.08 25.4307 12.8557C25.7664 12.6315 26.0304 12.3079 26.189 11.9264C26.3477 11.5448 26.3939 11.1226 26.3216 10.7135C26.2494 10.3044 26.062 9.92712 25.7834 9.62971C25.5048 9.3323 25.1476 9.12829 24.7574 9.04372C24.3673 8.95915 23.9618 8.99785 23.5928 9.15488C23.2238 9.31191 22.908 9.58016 22.6857 9.92537C22.4634 10.2706 22.3447 10.6771 22.3447 11.0931C22.1659 12.2289 23.0573 13.1807 24.3047 13.1807V13.1854ZM16.1375 13.7557C17.0286 13.7557 17.92 12.9953 17.92 12.0436C17.92 11.0918 17.2065 10.327 16.1375 10.327C15.2465 10.327 14.3551 11.0899 14.3551 12.0391C14.3551 12.9883 15.0677 13.7513 16.1375 13.7513V13.7557ZM24.9713 18.6664C24.9713 19.623 25.6849 20.3786 26.7538 20.3786C27.6449 20.3786 28.5363 19.6157 28.5363 18.6664C28.5363 17.7172 27.8237 16.9543 26.7538 16.9543C25.867 16.9518 24.9713 17.7099 24.9713 18.6664ZM20.5464 18.5097C20.7365 18.5103 20.9248 18.4711 21.1002 18.3944C21.2756 18.3177 21.4345 18.205 21.5674 18.0631C21.7004 17.9212 21.8047 17.7529 21.8743 17.5682C21.9439 17.3835 21.9773 17.1861 21.9725 16.9877C21.9513 16.597 21.7951 16.2275 21.5329 15.9479C21.2706 15.6683 20.9201 15.4974 20.5464 15.4669C20.3563 15.4663 20.1681 15.5055 19.9927 15.5821C19.8174 15.6587 19.6586 15.7712 19.5257 15.913C19.3927 16.0547 19.2883 16.2229 19.2187 16.4075C19.1491 16.5921 19.1156 16.7894 19.1202 16.9877C19.1417 17.3782 19.2981 17.7473 19.5603 18.0267C19.8225 18.3061 20.1728 18.4769 20.5464 18.5075V18.5097ZM29.3424 21.7646C29.1763 21.7381 29.0066 21.7741 28.8637 21.8663C25.0264 24.7273 21.5714 22.6842 21.4764 22.5838C14.2817 17.879 9.4867 22.8851 9.4867 22.8851C9.42796 22.9344 9.38037 22.9966 9.34731 23.0672C9.31425 23.1379 9.29654 23.2153 9.29544 23.2939C9.31851 23.4471 9.38514 23.5896 9.4867 23.7027C9.67916 24.0089 10.0595 23.9071 10.3504 23.7027C10.4466 23.4983 14.3791 19.5177 20.7111 23.601C21.8776 24.2988 23.2042 24.6518 24.5483 24.6221C26.3746 24.6037 28.1508 23.9969 29.6341 22.8848C29.743 22.7631 29.8111 22.6077 29.8282 22.4422C29.8454 22.2766 29.8106 22.1097 29.7292 21.9664C29.684 21.9039 29.6257 21.8529 29.5588 21.8175C29.4919 21.782 29.418 21.7631 29.343 21.762L29.3424 21.7646ZM10.425 12.2302C10.7583 12.2341 11.0826 12.1172 11.3427 11.8995C11.6027 11.6818 11.7824 11.3767 11.8512 11.0362C11.9199 10.6958 11.8735 10.3409 11.7197 10.0322C11.566 9.72345 11.3144 9.4799 11.0079 9.34303C10.7015 9.20616 10.359 9.18443 10.0389 9.28154C9.71879 9.37865 9.44083 9.5886 9.25238 9.87563C9.06393 10.1627 8.97663 10.509 9.00536 10.8557C9.0341 11.2023 9.17708 11.5279 9.40995 11.7769C9.54233 11.9183 9.70011 12.0311 9.87427 12.1089C10.0484 12.1867 10.2356 12.2279 10.425 12.2302Z" fill="white"/>
<path d="M27.709 31.0001C27.2627 31.0001 26.8659 30.9017 26.5188 30.7048C26.1766 30.5079 25.9064 30.224 25.708 29.8531C25.5097 29.4823 25.4105 29.0313 25.4105 28.5001C25.4105 27.969 25.5097 27.518 25.708 27.1471C25.9064 26.7762 26.1766 26.4923 26.5188 26.2955C26.8659 26.0986 27.2627 26.0001 27.709 26.0001C28.1503 26.0001 28.5421 26.0986 28.8842 26.2955C29.2314 26.4923 29.5041 26.7762 29.7025 27.1471C29.9008 27.518 30 27.969 30 28.5001C30 29.0313 29.9008 29.4823 29.7025 29.8531C29.5041 30.224 29.2314 30.5079 28.8842 30.7048C28.5421 30.9017 28.1503 31.0001 27.709 31.0001ZM27.709 29.8875C27.8676 29.8875 28.0065 29.8417 28.1255 29.7501C28.2495 29.6585 28.3462 29.512 28.4156 29.3106C28.485 29.1045 28.5198 28.8344 28.5198 28.5001C28.5198 28.1613 28.485 27.8911 28.4156 27.6897C28.3462 27.4882 28.2495 27.3417 28.1255 27.2501C28.0065 27.1585 27.8676 27.1128 27.709 27.1128C27.5503 27.1128 27.4089 27.1585 27.285 27.2501C27.166 27.3417 27.0693 27.4882 26.9949 27.6897C26.9254 27.8911 26.8907 28.1613 26.8907 28.5001C26.8907 28.8344 26.9254 29.1045 26.9949 29.3106C27.0693 29.512 27.166 29.6585 27.285 29.7501C27.4089 29.8417 27.5503 29.8875 27.709 29.8875Z" fill="white"/>
<path d="M23.1547 30.904V26.5839L23.787 27.1471H22.1877V26.0963H24.6275V30.904H23.1547Z" fill="white"/>
<path d="M15.4118 30.904V26.0963H16.6242L18.7814 29.3655H18.1417L20.2393 26.0963H21.4518L21.4667 30.904H20.1129L20.098 27.9988H20.3286L18.7591 30.4301H18.1045L16.4903 27.9988H16.773V30.904H15.4118Z" fill="white"/>
<path d="M10 30.904V26.0963H12.3803C12.8564 26.0963 13.2655 26.1672 13.6076 26.3092C13.9548 26.4511 14.2226 26.6572 14.411 26.9273C14.5994 27.1929 14.6937 27.5088 14.6937 27.8751C14.6937 28.2368 14.5994 28.5505 14.411 28.8161C14.2226 29.0816 13.9548 29.2877 13.6076 29.4342C13.2655 29.5761 12.8564 29.6471 12.3803 29.6471H10.8182L11.4728 29.0564V30.904H10ZM11.4728 29.2007L10.8182 28.5757H12.291C12.5985 28.5757 12.8266 28.5139 12.9754 28.3902C13.1291 28.2666 13.206 28.0949 13.206 27.8751C13.206 27.6508 13.1291 27.4768 12.9754 27.3531C12.8266 27.2295 12.5985 27.1677 12.291 27.1677H10.8182L11.4728 26.5427V29.2007Z" fill="white"/>
</g>
</g>
<defs>
<filter id="filter0_i_4582_13418" x="1" y="1" width="40" height="40" filterUnits="userSpaceOnUse" color-interpolation-filters="sRGB">
<feFlood flood-opacity="0" result="BackgroundImageFix"/>
<feBlend mode="normal" in="SourceGraphic" in2="BackgroundImageFix" result="shape"/>
<feColorMatrix in="SourceAlpha" type="matrix" values="0 0 0 0 0 0 0 0 0 0 0 0 0 0 0 0 0 0 127 0" result="hardAlpha"/>
<feOffset dx="2" dy="2"/>
<feGaussianBlur stdDeviation="2"/>
<feComposite in2="hardAlpha" operator="arithmetic" k2="-1" k3="1"/>
<feColorMatrix type="matrix" values="0 0 0 0 0.0666667 0 0 0 0 0.0980392 0 0 0 0 0.117647 0 0 0 0.1 0"/>
<feBlend mode="normal" in2="shape" result="effect1_innerShadow_4582_13418"/>
</filter>
<filter id="filter1_ddii_4582_13418" x="-3.14286" y="-3.14286" width="47.1429" height="47.1429" filterUnits="userSpaceOnUse" color-interpolation-filters="sRGB">
<feFlood flood-opacity="0" result="BackgroundImageFix"/>
<feColorMatrix in="SourceAlpha" type="matrix" values="0 0 0 0 0 0 0 0 0 0 0 0 0 0 0 0 0 0 127 0" result="hardAlpha"/>
<feOffset dx="2.57143" dy="2.57143"/>
<feGaussianBlur stdDeviation="4.71429"/>
<feComposite in2="hardAlpha" operator="out"/>
<feColorMatrix type="matrix" values="0 0 0 0 0.321569 0 0 0 0 0.435294 0 0 0 0 1 0 0 0 1 0"/>
<feBlend mode="normal" in2="BackgroundImageFix" result="effect1_dropShadow_4582_13418"/>
<feColorMatrix in="SourceAlpha" type="matrix" values="0 0 0 0 0 0 0 0 0 0 0 0 0 0 0 0 0 0 127 0" result="hardAlpha"/>
<feOffset dx="-2.57143" dy="-2.57143"/>
<feGaussianBlur stdDeviation="4.28571"/>
<feComposite in2="hardAlpha" operator="out"/>
<feColorMatrix type="matrix" values="0 0 0 0 1 0 0 0 0 1 0 0 0 0 1 0 0 0 0.4 0"/>
<feBlend mode="normal" in2="effect1_dropShadow_4582_13418" result="effect2_dropShadow_4582_13418"/>
<feBlend mode="normal" in="SourceGraphic" in2="effect2_dropShadow_4582_13418" result="shape"/>
<feColorMatrix in="SourceAlpha" type="matrix" values="0 0 0 0 0 0 0 0 0 0 0 0 0 0 0 0 0 0 127 0" result="hardAlpha"/>
<feOffset dy="-1.28571"/>
<feGaussianBlur stdDeviation="0.985714"/>
<feComposite in2="hardAlpha" operator="arithmetic" k2="-1" k3="1"/>
<feColorMatrix type="matrix" values="0 0 0 0 0 0 0 0 0 0.598039 0 0 0 0 1 0 0 0 0.4 0"/>
<feBlend mode="normal" in2="shape" result="effect3_innerShadow_4582_13418"/>
<feColorMatrix in="SourceAlpha" type="matrix" values="0 0 0 0 0 0 0 0 0 0 0 0 0 0 0 0 0 0 127 0" result="hardAlpha"/>
<feOffset dy="-0.428571"/>
<feGaussianBlur stdDeviation="0.557143"/>
<feComposite in2="hardAlpha" operator="arithmetic" k2="-1" k3="1"/>
<feColorMatrix type="matrix" values="0 0 0 0 1 0 0 0 0 1 0 0 0 0 1 0 0 0 0.6 0"/>
<feBlend mode="normal" in2="effect3_innerShadow_4582_13418" result="effect4_innerShadow_4582_13418"/>
</filter>
<linearGradient id="paint0_linear_4582_13418" x1="7.46" y1="11.26" x2="35.96" y2="46.22" gradientUnits="userSpaceOnUse">
<stop stop-color="#11191E" stop-opacity="0.4"/>
<stop offset="0.992881" stop-color="white"/>
</linearGradient>
<linearGradient id="paint1_linear_4582_13418" x1="6.8" y1="10.8" x2="36.8" y2="47.6" gradientUnits="userSpaceOnUse">
<stop stop-color="#11191E" stop-opacity="0.4"/>
<stop offset="0.992881" stop-color="white"/>
</linearGradient>
</defs>
</svg>
