<svg width="40" height="40" viewBox="0 0 40 40" fill="none" xmlns="http://www.w3.org/2000/svg">
<g filter="url(#filter0_i_4582_13423)">
<path d="M1 20C1 6.89 6.89 1 20 1C33.11 1 39 6.89 39 20C39 33.11 33.11 39 20 39C6.89 39 1 33.11 1 20Z" fill="#0099FF"/>
</g>
<path d="M2 20C2 13.5723 3.44621 9.1355 6.29086 6.29086C9.1355 3.44621 13.5723 2 20 2C26.4277 2 30.8645 3.44621 33.7091 6.29086C36.5538 9.1355 38 13.5723 38 20C38 26.4277 36.5538 30.8645 33.7091 33.7091C30.8645 36.5538 26.4277 38 20 38C13.5723 38 9.1355 36.5538 6.29086 33.7091C3.44621 30.8645 2 26.4277 2 20Z" stroke="url(#paint0_linear_4582_13423)" stroke-width="2" style="mix-blend-mode:overlay"/>
<mask id="mask0_4582_13423" style="mask-type:alpha" maskUnits="userSpaceOnUse" x="0" y="0" width="40" height="40">
<path d="M1 20C1 13.2273 2.52371 8.5405 5.53211 5.53211C8.5405 2.52371 13.2273 1 20 1C26.7727 1 31.4595 2.52371 34.4679 5.53211C37.4763 8.5405 39 13.2273 39 20C39 26.7727 37.4763 31.4595 34.4679 34.4679C31.4595 37.4763 26.7727 39 20 39C13.2273 39 8.5405 37.4763 5.53211 34.4679C2.52371 31.4595 1 26.7727 1 20Z" fill="#0099FF"/>
<path d="M1 20C1 13.2273 2.52371 8.5405 5.53211 5.53211C8.5405 2.52371 13.2273 1 20 1C26.7727 1 31.4595 2.52371 34.4679 5.53211C37.4763 8.5405 39 13.2273 39 20C39 26.7727 37.4763 31.4595 34.4679 34.4679C31.4595 37.4763 26.7727 39 20 39C13.2273 39 8.5405 37.4763 5.53211 34.4679C2.52371 31.4595 1 26.7727 1 20Z" stroke="url(#paint1_linear_4582_13423)" stroke-width="2"/>
</mask>
<g mask="url(#mask0_4582_13423)">
<g filter="url(#filter1_ddii_4582_13423)">
<path d="M11.1078 17.1132C11.1021 17.3857 11.1487 17.6566 11.2447 17.91C11.3407 18.1634 11.4842 18.3943 11.6668 18.5891C11.8494 18.7839 12.0674 18.9386 12.3081 19.0442C12.5487 19.1499 12.8072 19.2043 13.0682 19.2043C13.3293 19.2043 13.5878 19.1499 13.8284 19.0442C14.0691 18.9386 14.2871 18.7839 14.4697 18.5891C14.6523 18.3943 14.7958 18.1634 14.8918 17.91C14.9878 17.6566 15.0343 17.3857 15.0287 17.1132C15.2075 15.7813 14.1376 15.0209 13.0678 15.0209C12.5432 15.0308 12.0435 15.2559 11.6767 15.6475C11.3099 16.0391 11.1055 16.5656 11.1078 17.1132ZM29.7456 12.2445C29.4377 12.2289 29.136 12.3388 28.9041 12.5509C28.6723 12.7631 28.5284 13.0609 28.5028 13.3816C28.6815 13.9518 29.2154 14.5221 29.7514 14.5221C30.0601 14.536 30.362 14.4253 30.5945 14.2129C30.827 14.0005 30.9723 13.7028 31 13.3816C30.9712 13.0598 30.8251 12.7619 30.5919 12.5494C30.3587 12.3369 30.0561 12.226 29.7468 12.2397L29.7456 12.2445ZM24.3047 13.1854C24.7031 13.1948 25.0951 13.08 25.4307 12.8557C25.7664 12.6315 26.0304 12.3079 26.189 11.9264C26.3477 11.5448 26.3939 11.1226 26.3216 10.7135C26.2494 10.3044 26.062 9.92712 25.7834 9.62971C25.5048 9.3323 25.1476 9.12829 24.7574 9.04372C24.3673 8.95915 23.9618 8.99785 23.5928 9.15488C23.2238 9.31191 22.908 9.58016 22.6857 9.92537C22.4634 10.2706 22.3447 10.6771 22.3447 11.0931C22.1659 12.2289 23.0573 13.1807 24.3047 13.1807V13.1854ZM16.1375 13.7557C17.0286 13.7557 17.92 12.9953 17.92 12.0436C17.92 11.0918 17.2065 10.327 16.1375 10.327C15.2465 10.327 14.3551 11.0899 14.3551 12.0391C14.3551 12.9883 15.0677 13.7513 16.1375 13.7513V13.7557ZM24.9713 18.6664C24.9713 19.623 25.6849 20.3786 26.7538 20.3786C27.6449 20.3786 28.5363 19.6157 28.5363 18.6664C28.5363 17.7172 27.8237 16.9543 26.7538 16.9543C25.867 16.9518 24.9713 17.7099 24.9713 18.6664ZM20.5464 18.5097C20.7365 18.5103 20.9248 18.4711 21.1002 18.3944C21.2756 18.3177 21.4345 18.205 21.5674 18.0631C21.7004 17.9212 21.8047 17.7529 21.8743 17.5682C21.9439 17.3835 21.9773 17.1861 21.9725 16.9877C21.9513 16.597 21.7951 16.2275 21.5329 15.9479C21.2706 15.6683 20.9201 15.4974 20.5464 15.4669C20.3563 15.4663 20.1681 15.5055 19.9927 15.5821C19.8174 15.6587 19.6586 15.7712 19.5257 15.913C19.3927 16.0547 19.2883 16.2229 19.2187 16.4075C19.1491 16.5921 19.1156 16.7894 19.1202 16.9877C19.1417 17.3782 19.2981 17.7473 19.5603 18.0267C19.8225 18.3061 20.1728 18.4769 20.5464 18.5075V18.5097ZM29.3424 21.7646C29.1763 21.7381 29.0066 21.7741 28.8637 21.8663C25.0264 24.7273 21.5714 22.6842 21.4764 22.5838C14.2817 17.879 9.4867 22.8851 9.4867 22.8851C9.42796 22.9344 9.38037 22.9966 9.34731 23.0672C9.31425 23.1379 9.29654 23.2153 9.29544 23.2939C9.31851 23.4471 9.38514 23.5896 9.4867 23.7027C9.67916 24.0089 10.0595 23.9071 10.3504 23.7027C10.4466 23.4983 14.3791 19.5177 20.7111 23.601C21.8776 24.2988 23.2042 24.6518 24.5483 24.6221C26.3746 24.6037 28.1508 23.9969 29.6341 22.8848C29.743 22.7631 29.8111 22.6077 29.8282 22.4422C29.8454 22.2766 29.8106 22.1097 29.7292 21.9664C29.684 21.9039 29.6257 21.8529 29.5588 21.8175C29.4919 21.782 29.418 21.7631 29.343 21.762L29.3424 21.7646ZM10.425 12.2302C10.7583 12.2341 11.0826 12.1172 11.3427 11.8995C11.6027 11.6818 11.7824 11.3767 11.8512 11.0362C11.9199 10.6958 11.8735 10.3409 11.7197 10.0322C11.566 9.72345 11.3144 9.4799 11.0079 9.34303C10.7015 9.20616 10.359 9.18443 10.0389 9.28154C9.71879 9.37865 9.44083 9.5886 9.25238 9.87563C9.06393 10.1627 8.97663 10.509 9.00536 10.8557C9.0341 11.2023 9.17708 11.5279 9.40995 11.7769C9.54233 11.9183 9.70011 12.0311 9.87427 12.1089C10.0484 12.1867 10.2356 12.2279 10.425 12.2302Z" fill="white"/>
<path d="M28.0241 31.0001C27.7132 31.0001 27.4 30.9589 27.0848 30.8765C26.7695 30.7941 26.4974 30.6773 26.2685 30.5262L26.7285 29.5029C26.9142 29.6311 27.115 29.7295 27.3309 29.7982C27.5512 29.8669 27.7693 29.9012 27.9852 29.9012C28.2012 29.9012 28.3761 29.8577 28.51 29.7707C28.6439 29.6792 28.7108 29.5532 28.7108 29.393C28.7108 29.2968 28.6849 29.2121 28.6331 29.1389C28.5813 29.061 28.4927 29.0038 28.3675 28.9672C28.2422 28.9259 28.063 28.9053 27.8298 28.9053H26.5989L26.8256 26.0963H29.715V27.1471H27.2791L27.9334 26.5496L27.7844 28.4452L27.1301 27.8477H28.1342C28.5834 27.8477 28.944 27.9163 29.2161 28.0537C29.4882 28.1865 29.6869 28.3673 29.8121 28.5963C29.9374 28.8206 30 29.0748 30 29.3586C30 29.6425 29.9287 29.9104 29.7862 30.1622C29.648 30.4095 29.4342 30.6109 29.1449 30.7666C28.8555 30.9223 28.4819 31.0001 28.0241 31.0001Z" fill="white"/>
<path d="M25.2955 30.9658C25.0882 30.9658 24.9133 30.8925 24.7708 30.746C24.6283 30.5995 24.557 30.414 24.557 30.1897C24.557 29.9562 24.6283 29.7707 24.7708 29.6334C24.9133 29.4914 25.0882 29.4205 25.2955 29.4205C25.5028 29.4205 25.6777 29.4914 25.8203 29.6334C25.9628 29.7707 26.034 29.9562 26.034 30.1897C26.034 30.414 25.9628 30.5995 25.8203 30.746C25.6777 30.8925 25.5028 30.9658 25.2955 30.9658Z" fill="white"/>
<path d="M20.6349 30.904V30.0523L22.3322 28.3696C22.4532 28.2506 22.5417 28.1453 22.5978 28.0537C22.6583 27.9621 22.6972 27.8797 22.7144 27.8064C22.736 27.7286 22.7468 27.6576 22.7468 27.5935C22.7468 27.4378 22.6972 27.3165 22.5978 27.2295C22.5028 27.1425 22.3581 27.099 22.1638 27.099C21.9997 27.099 21.8464 27.1379 21.7038 27.2158C21.5613 27.2936 21.4447 27.4104 21.354 27.5661L20.4017 27.0029C20.5701 26.7007 20.8141 26.458 21.1337 26.2748C21.4533 26.0917 21.8356 26.0001 22.2804 26.0001C22.6302 26.0001 22.9369 26.0596 23.2003 26.1787C23.4638 26.2977 23.6689 26.4672 23.8158 26.6869C23.9669 26.9067 24.0425 27.1654 24.0425 27.463C24.0425 27.6187 24.0231 27.7744 23.9842 27.9301C23.9453 28.0812 23.8697 28.2437 23.7575 28.4177C23.6495 28.5871 23.4875 28.7771 23.2716 28.9878L21.9241 30.3064L21.7103 29.8257H24.1656V30.904H20.6349Z" fill="white"/>
<path d="M14.7132 30.904V26.0963H15.7692L17.6479 29.3655H17.0908L18.9176 26.0963H19.9736L19.9866 30.904H18.8075L18.7945 27.9988H18.9954L17.6284 30.4301H17.0584L15.6526 27.9988H15.8987V30.904H14.7132Z" fill="white"/>
<path d="M10 30.904V26.0963H12.0731C12.4877 26.0963 12.844 26.1672 13.142 26.3092C13.4443 26.4511 13.6775 26.6572 13.8416 26.9273C14.0057 27.1929 14.0878 27.5088 14.0878 27.8751C14.0878 28.2368 14.0057 28.5505 13.8416 28.8161C13.6775 29.0816 13.4443 29.2877 13.142 29.4342C12.844 29.5761 12.4877 29.6471 12.0731 29.6471H10.7126L11.2827 29.0564V30.904H10ZM11.2827 29.2007L10.7126 28.5757H11.9953C12.2631 28.5757 12.4618 28.5139 12.5913 28.3902C12.7252 28.2666 12.7921 28.0949 12.7921 27.8751C12.7921 27.6508 12.7252 27.4768 12.5913 27.3531C12.4618 27.2295 12.2631 27.1677 11.9953 27.1677H10.7126L11.2827 26.5427V29.2007Z" fill="white"/>
</g>
</g>
<defs>
<filter id="filter0_i_4582_13423" x="1" y="1" width="40" height="40" filterUnits="userSpaceOnUse" color-interpolation-filters="sRGB">
<feFlood flood-opacity="0" result="BackgroundImageFix"/>
<feBlend mode="normal" in="SourceGraphic" in2="BackgroundImageFix" result="shape"/>
<feColorMatrix in="SourceAlpha" type="matrix" values="0 0 0 0 0 0 0 0 0 0 0 0 0 0 0 0 0 0 127 0" result="hardAlpha"/>
<feOffset dx="2" dy="2"/>
<feGaussianBlur stdDeviation="2"/>
<feComposite in2="hardAlpha" operator="arithmetic" k2="-1" k3="1"/>
<feColorMatrix type="matrix" values="0 0 0 0 0.0666667 0 0 0 0 0.0980392 0 0 0 0 0.117647 0 0 0 0.1 0"/>
<feBlend mode="normal" in2="shape" result="effect1_innerShadow_4582_13423"/>
</filter>
<filter id="filter1_ddii_4582_13423" x="-3.14286" y="-3.14286" width="47.1429" height="47.1429" filterUnits="userSpaceOnUse" color-interpolation-filters="sRGB">
<feFlood flood-opacity="0" result="BackgroundImageFix"/>
<feColorMatrix in="SourceAlpha" type="matrix" values="0 0 0 0 0 0 0 0 0 0 0 0 0 0 0 0 0 0 127 0" result="hardAlpha"/>
<feOffset dx="2.57143" dy="2.57143"/>
<feGaussianBlur stdDeviation="4.71429"/>
<feComposite in2="hardAlpha" operator="out"/>
<feColorMatrix type="matrix" values="0 0 0 0 0.321569 0 0 0 0 0.435294 0 0 0 0 1 0 0 0 1 0"/>
<feBlend mode="normal" in2="BackgroundImageFix" result="effect1_dropShadow_4582_13423"/>
<feColorMatrix in="SourceAlpha" type="matrix" values="0 0 0 0 0 0 0 0 0 0 0 0 0 0 0 0 0 0 127 0" result="hardAlpha"/>
<feOffset dx="-2.57143" dy="-2.57143"/>
<feGaussianBlur stdDeviation="4.28571"/>
<feComposite in2="hardAlpha" operator="out"/>
<feColorMatrix type="matrix" values="0 0 0 0 1 0 0 0 0 1 0 0 0 0 1 0 0 0 0.4 0"/>
<feBlend mode="normal" in2="effect1_dropShadow_4582_13423" result="effect2_dropShadow_4582_13423"/>
<feBlend mode="normal" in="SourceGraphic" in2="effect2_dropShadow_4582_13423" result="shape"/>
<feColorMatrix in="SourceAlpha" type="matrix" values="0 0 0 0 0 0 0 0 0 0 0 0 0 0 0 0 0 0 127 0" result="hardAlpha"/>
<feOffset dy="-1.28571"/>
<feGaussianBlur stdDeviation="0.985714"/>
<feComposite in2="hardAlpha" operator="arithmetic" k2="-1" k3="1"/>
<feColorMatrix type="matrix" values="0 0 0 0 0 0 0 0 0 0.598039 0 0 0 0 1 0 0 0 0.4 0"/>
<feBlend mode="normal" in2="shape" result="effect3_innerShadow_4582_13423"/>
<feColorMatrix in="SourceAlpha" type="matrix" values="0 0 0 0 0 0 0 0 0 0 0 0 0 0 0 0 0 0 127 0" result="hardAlpha"/>
<feOffset dy="-0.428571"/>
<feGaussianBlur stdDeviation="0.557143"/>
<feComposite in2="hardAlpha" operator="arithmetic" k2="-1" k3="1"/>
<feColorMatrix type="matrix" values="0 0 0 0 1 0 0 0 0 1 0 0 0 0 1 0 0 0 0.6 0"/>
<feBlend mode="normal" in2="effect3_innerShadow_4582_13423" result="effect4_innerShadow_4582_13423"/>
</filter>
<linearGradient id="paint0_linear_4582_13423" x1="7.46" y1="11.26" x2="35.96" y2="46.22" gradientUnits="userSpaceOnUse">
<stop stop-color="#11191E" stop-opacity="0.4"/>
<stop offset="0.992881" stop-color="white"/>
</linearGradient>
<linearGradient id="paint1_linear_4582_13423" x1="6.8" y1="10.8" x2="36.8" y2="47.6" gradientUnits="userSpaceOnUse">
<stop stop-color="#11191E" stop-opacity="0.4"/>
<stop offset="0.992881" stop-color="white"/>
</linearGradient>
</defs>
</svg>
