<svg width="40" height="40" viewBox="0 0 40 40" fill="none" xmlns="http://www.w3.org/2000/svg">
<g filter="url(#filter0_i_5826_56975)">
<path d="M1 20C1 6.89 6.89 1 20 1C33.11 1 39 6.89 39 20C39 33.11 33.11 39 20 39C6.89 39 1 33.11 1 20Z" fill="#0099FF"/>
</g>
<path d="M2 20C2 13.5723 3.44621 9.1355 6.29086 6.29086C9.1355 3.44621 13.5723 2 20 2C26.4277 2 30.8645 3.44621 33.7091 6.29086C36.5538 9.1355 38 13.5723 38 20C38 26.4277 36.5538 30.8645 33.7091 33.7091C30.8645 36.5538 26.4277 38 20 38C13.5723 38 9.1355 36.5538 6.29086 33.7091C3.44621 30.8645 2 26.4277 2 20Z" stroke="url(#paint0_linear_5826_56975)" stroke-width="2" style="mix-blend-mode:overlay"/>
<mask id="mask0_5826_56975" style="mask-type:alpha" maskUnits="userSpaceOnUse" x="0" y="0" width="40" height="40">
<path d="M1 20C1 13.2273 2.52371 8.5405 5.53211 5.53211C8.5405 2.52371 13.2273 1 20 1C26.7727 1 31.4595 2.52371 34.4679 5.53211C37.4763 8.5405 39 13.2273 39 20C39 26.7727 37.4763 31.4595 34.4679 34.4679C31.4595 37.4763 26.7727 39 20 39C13.2273 39 8.5405 37.4763 5.53211 34.4679C2.52371 31.4595 1 26.7727 1 20Z" fill="#0099FF"/>
<path d="M1 20C1 13.2273 2.52371 8.5405 5.53211 5.53211C8.5405 2.52371 13.2273 1 20 1C26.7727 1 31.4595 2.52371 34.4679 5.53211C37.4763 8.5405 39 13.2273 39 20C39 26.7727 37.4763 31.4595 34.4679 34.4679C31.4595 37.4763 26.7727 39 20 39C13.2273 39 8.5405 37.4763 5.53211 34.4679C2.52371 31.4595 1 26.7727 1 20Z" stroke="url(#paint1_linear_5826_56975)" stroke-width="2"/>
</mask>
<g mask="url(#mask0_5826_56975)">
<g filter="url(#filter1_ddii_5826_56975)">
<path fill-rule="evenodd" clip-rule="evenodd" d="M19.5485 10.496C20.3245 10.0558 21.2303 9.90197 22.1082 10.0611C22.986 10.2203 23.7802 10.6825 24.3523 11.367C24.9244 12.0516 25.2382 12.9152 25.239 13.8074C25.239 14.8179 24.8376 15.7874 24.1232 16.5019C23.4087 17.2164 22.4397 17.6178 21.4293 17.6178H13.3335C13.2072 17.6178 13.0861 17.6679 12.9968 17.7573C12.9075 17.8466 12.8573 17.9677 12.8573 18.094C12.8573 18.2203 12.9075 18.3414 12.9968 18.4308C13.0861 18.5201 13.2072 18.5702 13.3335 18.5702H26.1914C26.8867 18.5705 27.5688 18.761 28.1636 19.1212C28.7583 19.4813 29.2432 19.9973 29.5656 20.6134C29.888 21.2294 30.0357 21.9219 29.9927 22.6159C29.9497 23.3099 29.7176 23.9788 29.3215 24.5503C28.9255 25.1218 28.3806 25.574 27.746 25.8579C27.1113 26.1419 26.4111 26.2467 25.7211 26.1611C25.0311 26.0755 24.3777 25.8026 23.8317 25.3722C23.2857 24.9417 22.8678 24.37 22.6235 23.7191C22.5791 23.6008 22.5835 23.4698 22.6358 23.3548C22.688 23.2398 22.7838 23.1502 22.902 23.1058L24.6859 22.4363C24.8042 22.3919 24.9352 22.3963 25.0502 22.4485C25.1652 22.5008 25.2547 22.5965 25.2991 22.7148C25.3602 22.8775 25.4646 23.0205 25.6011 23.1281C25.7376 23.2357 25.901 23.304 26.0735 23.3254C26.246 23.3468 26.421 23.3206 26.5797 23.2496C26.7384 23.1787 26.8746 23.0656 26.9736 22.9228C27.0726 22.7799 27.1307 22.6127 27.1415 22.4392C27.1522 22.2657 27.1153 22.0925 27.0347 21.9385C26.9541 21.7845 26.8329 21.6555 26.6842 21.5654C26.5356 21.4754 26.3652 21.4278 26.1914 21.4277H13.3335C12.4494 21.4277 11.6015 21.0765 10.9764 20.4513C10.3512 19.8261 10 18.9782 10 18.094C10 17.2099 10.3512 16.3619 10.9764 15.7367C11.6015 15.1116 12.4494 14.7603 13.3335 14.7603H21.4291C21.6028 14.7602 21.7734 14.7126 21.922 14.6226C22.0707 14.5325 22.1919 14.4035 22.2725 14.2495C22.3531 14.0955 22.39 13.9223 22.3793 13.7488C22.3685 13.5754 22.3105 13.4081 22.2114 13.2652C22.1124 13.1224 21.9762 13.0093 21.8175 12.9384C21.6588 12.8674 21.4838 12.8412 21.3113 12.8626C21.1388 12.8841 20.9754 12.9523 20.8389 13.0599C20.7024 13.1675 20.598 13.3105 20.5369 13.4732C20.4446 13.7194 20.1702 13.8441 19.9239 13.7518L18.14 13.0832C18.0217 13.0388 17.9258 12.9493 17.8736 12.8342C17.8213 12.7191 17.8169 12.5879 17.8614 12.4696C18.1754 11.6345 18.7724 10.9361 19.5485 10.496ZM11.9049 22.8564C11.9049 22.5934 12.1181 22.3802 12.3811 22.3802H18.5719C19.2672 22.3804 19.9493 22.5709 20.5441 22.9311C21.1388 23.2912 21.6237 23.8073 21.9461 24.4233C22.2685 25.0393 22.4162 25.7318 22.3732 26.4258C22.3302 27.1198 22.0981 27.7888 21.702 28.3602C21.306 28.9317 20.7611 29.3839 20.1265 29.6679C19.4918 29.9518 18.7916 30.0566 18.1016 29.971C17.4116 29.8854 16.7582 29.6125 16.2122 29.1821C15.6662 28.7516 15.2483 28.18 15.004 27.529C14.9596 27.4107 14.964 27.2797 15.0163 27.1647C15.0685 27.0497 15.1643 26.9601 15.2825 26.9158L17.0664 26.2462C17.1847 26.2018 17.3157 26.2062 17.4307 26.2584C17.5457 26.3107 17.6352 26.4065 17.6796 26.5247C17.7407 26.6875 17.8451 26.8304 17.9816 26.938C18.1181 27.0457 18.2815 27.1139 18.454 27.1353C18.6265 27.1567 18.8015 27.1305 18.9602 27.0596C19.1189 26.9886 19.2551 26.8756 19.3541 26.7327C19.4531 26.5898 19.5112 26.4226 19.522 26.2491C19.5327 26.0756 19.4958 25.9025 19.4152 25.7484C19.3346 25.5944 19.2134 25.4654 19.0647 25.3754C18.9161 25.2853 18.7457 25.2377 18.5719 25.2376H12.3811C12.1181 25.2376 11.9049 25.0244 11.9049 24.7614V22.8564Z" fill="white"/>
</g>
</g>
<defs>
<filter id="filter0_i_5826_56975" x="1" y="1" width="40" height="40" filterUnits="userSpaceOnUse" color-interpolation-filters="sRGB">
<feFlood flood-opacity="0" result="BackgroundImageFix"/>
<feBlend mode="normal" in="SourceGraphic" in2="BackgroundImageFix" result="shape"/>
<feColorMatrix in="SourceAlpha" type="matrix" values="0 0 0 0 0 0 0 0 0 0 0 0 0 0 0 0 0 0 127 0" result="hardAlpha"/>
<feOffset dx="2" dy="2"/>
<feGaussianBlur stdDeviation="2"/>
<feComposite in2="hardAlpha" operator="arithmetic" k2="-1" k3="1"/>
<feColorMatrix type="matrix" values="0 0 0 0 0.0666667 0 0 0 0 0.0980392 0 0 0 0 0.117647 0 0 0 0.1 0"/>
<feBlend mode="normal" in2="shape" result="effect1_innerShadow_5826_56975"/>
</filter>
<filter id="filter1_ddii_5826_56975" x="-3.14286" y="-3.14286" width="47.1429" height="47.1429" filterUnits="userSpaceOnUse" color-interpolation-filters="sRGB">
<feFlood flood-opacity="0" result="BackgroundImageFix"/>
<feColorMatrix in="SourceAlpha" type="matrix" values="0 0 0 0 0 0 0 0 0 0 0 0 0 0 0 0 0 0 127 0" result="hardAlpha"/>
<feOffset dx="2.57143" dy="2.57143"/>
<feGaussianBlur stdDeviation="4.71429"/>
<feComposite in2="hardAlpha" operator="out"/>
<feColorMatrix type="matrix" values="0 0 0 0 0.321569 0 0 0 0 0.435294 0 0 0 0 1 0 0 0 1 0"/>
<feBlend mode="normal" in2="BackgroundImageFix" result="effect1_dropShadow_5826_56975"/>
<feColorMatrix in="SourceAlpha" type="matrix" values="0 0 0 0 0 0 0 0 0 0 0 0 0 0 0 0 0 0 127 0" result="hardAlpha"/>
<feOffset dx="-2.57143" dy="-2.57143"/>
<feGaussianBlur stdDeviation="4.28571"/>
<feComposite in2="hardAlpha" operator="out"/>
<feColorMatrix type="matrix" values="0 0 0 0 1 0 0 0 0 1 0 0 0 0 1 0 0 0 0.4 0"/>
<feBlend mode="normal" in2="effect1_dropShadow_5826_56975" result="effect2_dropShadow_5826_56975"/>
<feBlend mode="normal" in="SourceGraphic" in2="effect2_dropShadow_5826_56975" result="shape"/>
<feColorMatrix in="SourceAlpha" type="matrix" values="0 0 0 0 0 0 0 0 0 0 0 0 0 0 0 0 0 0 127 0" result="hardAlpha"/>
<feOffset dy="-1.28571"/>
<feGaussianBlur stdDeviation="0.985714"/>
<feComposite in2="hardAlpha" operator="arithmetic" k2="-1" k3="1"/>
<feColorMatrix type="matrix" values="0 0 0 0 0 0 0 0 0 0.598039 0 0 0 0 1 0 0 0 0.4 0"/>
<feBlend mode="normal" in2="shape" result="effect3_innerShadow_5826_56975"/>
<feColorMatrix in="SourceAlpha" type="matrix" values="0 0 0 0 0 0 0 0 0 0 0 0 0 0 0 0 0 0 127 0" result="hardAlpha"/>
<feOffset dy="-0.428571"/>
<feGaussianBlur stdDeviation="0.557143"/>
<feComposite in2="hardAlpha" operator="arithmetic" k2="-1" k3="1"/>
<feColorMatrix type="matrix" values="0 0 0 0 1 0 0 0 0 1 0 0 0 0 1 0 0 0 0.6 0"/>
<feBlend mode="normal" in2="effect3_innerShadow_5826_56975" result="effect4_innerShadow_5826_56975"/>
</filter>
<linearGradient id="paint0_linear_5826_56975" x1="7.46" y1="11.26" x2="35.96" y2="46.22" gradientUnits="userSpaceOnUse">
<stop stop-color="#11191E" stop-opacity="0.4"/>
<stop offset="0.992881" stop-color="white"/>
</linearGradient>
<linearGradient id="paint1_linear_5826_56975" x1="6.8" y1="10.8" x2="36.8" y2="47.6" gradientUnits="userSpaceOnUse">
<stop stop-color="#11191E" stop-opacity="0.4"/>
<stop offset="0.992881" stop-color="white"/>
</linearGradient>
</defs>
</svg>
