<svg width="168" height="168" viewBox="0 0 168 168" fill="none" xmlns="http://www.w3.org/2000/svg">
<g clip-path="url(#clip0_4570_39254)">
<g filter="url(#filter0_ddi_4570_39254)">
<path d="M120.71 69.9126C121.963 67.0626 118.937 64.4347 115.792 64.8654C102.97 66.6212 89.8504 60.4372 83.5931 48.5558C79.7082 41.179 79.1909 32.9775 81.4919 25.6251C82.4186 22.6642 80.2351 19.3458 77.1637 20.1117C74.4873 20.7791 71.8455 21.7487 69.2849 23.0351C50.9313 32.2556 43.7058 54.262 53.1464 72.1879C62.5869 90.1137 85.1185 97.1708 103.472 87.9503C111.504 83.9152 117.405 77.4314 120.71 69.9126Z" fill="url(#paint0_linear_4570_39254)"/>
<path d="M115.928 65.8561C117.198 65.6822 118.434 66.1325 119.206 66.8779C119.953 67.5996 120.224 68.534 119.795 69.5101C116.581 76.8203 110.843 83.1282 103.023 87.0567C85.1451 96.0383 63.212 89.1546 54.0312 71.7219C44.8577 54.3031 51.8685 32.9038 69.7338 23.9286C72.2277 22.6757 74.8002 21.7317 77.4056 21.082C78.4936 20.8107 79.4134 21.2385 80.0222 22.0643C80.65 22.9158 80.9042 24.155 80.5376 25.3264C78.16 32.9234 78.6948 41.4008 82.7083 49.0218C89.1723 61.2956 102.712 67.6658 115.928 65.8561Z" stroke="url(#paint1_linear_4570_39254)" stroke-width="2"/>
</g>
<g filter="url(#filter1_bd_4570_39254)">
<mask id="path-3-inside-1_4570_39254" fill="white">
<path fill-rule="evenodd" clip-rule="evenodd" d="M101.164 143.999C101.244 144 101.323 144 101.403 144C112.779 144 122 135.39 122 124.77C122 114.15 112.779 105.54 101.403 105.54C101.323 105.54 101.244 105.541 101.164 105.541V105.54H95.8429C96.0351 104.224 96.1344 102.881 96.1344 101.516C96.1344 85.2146 81.9806 72 64.521 72C47.0614 72 32.9076 85.2146 32.9076 101.516C32.9076 103.054 33.0336 104.564 33.2765 106.039C31.773 105.713 30.2064 105.54 28.5966 105.54C17.2214 105.54 8 114.15 8 124.77C8 135.39 17.2214 144 28.5966 144C28.6769 144 28.7572 144 28.8373 143.999L28.8362 144H101.164V143.999Z"/>
</mask>
<path fill-rule="evenodd" clip-rule="evenodd" d="M101.164 143.999C101.244 144 101.323 144 101.403 144C112.779 144 122 135.39 122 124.77C122 114.15 112.779 105.54 101.403 105.54C101.323 105.54 101.244 105.541 101.164 105.541V105.54H95.8429C96.0351 104.224 96.1344 102.881 96.1344 101.516C96.1344 85.2146 81.9806 72 64.521 72C47.0614 72 32.9076 85.2146 32.9076 101.516C32.9076 103.054 33.0336 104.564 33.2765 106.039C31.773 105.713 30.2064 105.54 28.5966 105.54C17.2214 105.54 8 114.15 8 124.77C8 135.39 17.2214 144 28.5966 144C28.6769 144 28.7572 144 28.8373 143.999L28.8362 144H101.164V143.999Z" fill="url(#paint2_linear_4570_39254)" shape-rendering="crispEdges"/>
<path d="M101.164 143.999L101.174 142.999C100.907 142.996 100.65 143.1 100.46 143.288C100.271 143.476 100.164 143.732 100.164 143.999H101.164ZM101.164 105.541H100.164C100.164 105.809 100.271 106.064 100.46 106.252C100.65 106.44 100.907 106.544 101.174 106.541L101.164 105.541ZM101.164 105.54H102.164C102.164 104.988 101.716 104.54 101.164 104.54V105.54ZM95.8429 105.54L94.8534 105.396C94.8115 105.683 94.8965 105.975 95.0865 106.194C95.2764 106.414 95.5525 106.54 95.8429 106.54V105.54ZM33.2765 106.039L33.0645 107.016C33.3882 107.086 33.7256 106.992 33.9656 106.763C34.2056 106.535 34.317 106.203 34.2632 105.876L33.2765 106.039ZM28.8373 143.999L29.6018 144.643C29.8538 144.344 29.9085 143.926 29.7418 143.572C29.5751 143.219 29.2176 142.995 28.8266 142.999L28.8373 143.999ZM28.8362 144L28.0717 143.355C27.8209 143.653 27.7654 144.069 27.9294 144.422C28.0934 144.774 28.4471 145 28.8362 145V144ZM101.164 144V145C101.716 145 102.164 144.552 102.164 144H101.164ZM101.153 144.999C101.236 145 101.32 145 101.403 145V143C101.327 143 101.251 143 101.174 142.999L101.153 144.999ZM101.403 145C113.265 145 123 136.006 123 124.77H121C121 134.775 112.292 143 101.403 143V145ZM123 124.77C123 113.534 113.265 104.54 101.403 104.54V106.54C112.292 106.54 121 114.766 121 124.77H123ZM101.403 104.54C101.32 104.54 101.236 104.541 101.153 104.542L101.174 106.541C101.251 106.541 101.327 106.54 101.403 106.54V104.54ZM100.164 105.54V105.541H102.164V105.54H100.164ZM95.8429 106.54H101.164V104.54H95.8429V106.54ZM96.8325 105.685C97.0316 104.321 97.1344 102.929 97.1344 101.516H95.1344C95.1344 102.832 95.0386 104.127 94.8534 105.396L96.8325 105.685ZM97.1344 101.516C97.1344 84.5988 82.4671 71 64.521 71V73C81.4941 73 95.1344 85.8305 95.1344 101.516H97.1344ZM64.521 71C46.5749 71 31.9076 84.5988 31.9076 101.516H33.9076C33.9076 85.8305 47.5479 73 64.521 73V71ZM31.9076 101.516C31.9076 103.108 32.0381 104.673 32.2898 106.201L34.2632 105.876C34.0291 104.455 33.9076 102.999 33.9076 101.516H31.9076ZM33.4885 105.061C31.9156 104.72 30.2779 104.54 28.5966 104.54V106.54C30.1348 106.54 31.6304 106.705 33.0645 107.016L33.4885 105.061ZM28.5966 104.54C16.7349 104.54 7 113.534 7 124.77H9C9 114.766 17.7079 106.54 28.5966 106.54V104.54ZM7 124.77C7 136.006 16.7349 145 28.5966 145V143C17.7079 143 9 134.775 9 124.77H7ZM28.5966 145C28.6805 145 28.7643 145 28.8479 144.999L28.8266 142.999C28.75 143 28.6733 143 28.5966 143V145ZM29.6007 144.645L29.6018 144.643L28.0728 143.354L28.0717 143.355L29.6007 144.645ZM101.164 143H28.8362V145H101.164V143ZM100.164 143.999V144H102.164V143.999H100.164Z" fill="url(#paint3_linear_4570_39254)" mask="url(#path-3-inside-1_4570_39254)"/>
</g>
<g filter="url(#filter2_bd_4570_39254)">
<mask id="path-5-inside-2_4570_39254" fill="white">
<path fill-rule="evenodd" clip-rule="evenodd" d="M143.916 127.999C143.977 128 144.039 128 144.101 128C152.882 128 160 121.304 160 113.044C160 104.783 152.882 98.0869 144.101 98.0869C144.039 98.0869 143.977 98.0872 143.916 98.0879V98.0869H139.809C139.957 97.0635 140.034 96.0186 140.034 94.9568C140.034 82.2781 129.108 72 115.631 72C102.153 72 91.2272 82.2781 91.2272 94.9568C91.2272 96.153 91.3244 97.3277 91.5119 98.4745C90.3512 98.2208 89.1418 98.0867 87.8991 98.0867C79.1183 98.0867 72 104.783 72 113.043C72 121.304 79.1183 128 87.8991 128C87.9612 128 88.0231 128 88.085 127.999L88.084 128H143.916V127.999Z"/>
</mask>
<path fill-rule="evenodd" clip-rule="evenodd" d="M143.916 127.999C143.977 128 144.039 128 144.101 128C152.882 128 160 121.304 160 113.044C160 104.783 152.882 98.0869 144.101 98.0869C144.039 98.0869 143.977 98.0872 143.916 98.0879V98.0869H139.809C139.957 97.0635 140.034 96.0186 140.034 94.9568C140.034 82.2781 129.108 72 115.631 72C102.153 72 91.2272 82.2781 91.2272 94.9568C91.2272 96.153 91.3244 97.3277 91.5119 98.4745C90.3512 98.2208 89.1418 98.0867 87.8991 98.0867C79.1183 98.0867 72 104.783 72 113.043C72 121.304 79.1183 128 87.8991 128C87.9612 128 88.0231 128 88.085 127.999L88.084 128H143.916V127.999Z" fill="url(#paint4_linear_4570_39254)" shape-rendering="crispEdges"/>
<path d="M143.916 127.999L143.927 126.999C143.66 126.997 143.402 127.101 143.213 127.288C143.023 127.476 142.916 127.732 142.916 127.999H143.916ZM143.916 98.0879H142.916C142.916 98.355 143.023 98.611 143.213 98.7988C143.402 98.9866 143.66 99.0907 143.927 99.0878L143.916 98.0879ZM143.916 98.0869H144.916C144.916 97.5346 144.468 97.0869 143.916 97.0869V98.0869ZM139.809 98.0869L138.819 97.9435C138.778 98.2307 138.863 98.5219 139.053 98.7414C139.243 98.9608 139.519 99.0869 139.809 99.0869V98.0869ZM91.5119 98.4745L91.2983 99.4515C91.6219 99.5222 91.9596 99.4281 92.1999 99.2002C92.4403 98.9723 92.5522 98.6401 92.4988 98.3132L91.5119 98.4745ZM88.085 127.999L88.8508 128.642C89.102 128.343 89.156 127.925 88.9891 127.572C88.8222 127.219 88.4648 126.995 88.0742 126.999L88.085 127.999ZM88.084 128L87.3182 127.357C87.0682 127.655 87.0134 128.07 87.1776 128.423C87.3418 128.775 87.6953 129 88.084 129V128ZM143.916 128V129C144.468 129 144.916 128.553 144.916 128H143.916ZM143.905 128.999C143.97 129 144.036 129 144.101 129V127C144.043 127 143.985 127 143.927 126.999L143.905 128.999ZM144.101 129C153.376 129 161 121.913 161 113.044H159C159 120.695 152.388 127 144.101 127V129ZM161 113.044C161 104.174 153.376 97.0869 144.101 97.0869V99.0869C152.388 99.0869 159 105.392 159 113.044H161ZM144.101 97.0869C144.036 97.0869 143.97 97.0873 143.905 97.088L143.927 99.0878C143.985 99.0872 144.043 99.0869 144.101 99.0869V97.0869ZM142.916 98.0869V98.0879H144.916V98.0869H142.916ZM139.809 99.0869H143.916V97.0869H139.809V99.0869ZM140.799 98.2303C140.954 97.1596 141.034 96.0667 141.034 94.9568H139.034C139.034 95.9704 138.961 96.9674 138.819 97.9435L140.799 98.2303ZM141.034 94.9568C141.034 81.6691 129.602 71 115.631 71V73C128.614 73 139.034 82.8871 139.034 94.9568H141.034ZM115.631 71C101.659 71 90.2272 81.6691 90.2272 94.9568H92.2272C92.2272 82.8871 102.647 73 115.631 73V71ZM90.2272 94.9568C90.2272 96.2073 90.3288 97.436 90.525 98.6359L92.4988 98.3132C92.32 97.2195 92.2272 96.0987 92.2272 94.9568H90.2272ZM91.7254 97.4976C90.4949 97.2286 89.2139 97.0867 87.8991 97.0867V99.0867C89.0697 99.0867 90.2076 99.213 91.2983 99.4515L91.7254 97.4976ZM87.8991 97.0867C78.6245 97.0867 71 104.174 71 113.043H73C73 105.392 79.6121 99.0867 87.8991 99.0867V97.0867ZM71 113.043C71 121.913 78.6245 129 87.8991 129V127C79.6121 127 73 120.695 73 113.043H71ZM87.8991 129C87.9648 129 88.0303 129 88.0958 128.999L88.0742 126.999C88.016 127 87.9576 127 87.8991 127V129ZM88.8498 128.643L88.8508 128.642L87.3192 127.356L87.3182 127.357L88.8498 128.643ZM143.916 127H88.084V129H143.916V127ZM142.916 127.999V128H144.916V127.999H142.916Z" fill="url(#paint5_linear_4570_39254)" mask="url(#path-5-inside-2_4570_39254)"/>
</g>
</g>
<defs>
<filter id="filter0_ddi_4570_39254" x="25" y="-4" width="120" height="120" filterUnits="userSpaceOnUse" color-interpolation-filters="sRGB">
<feFlood flood-opacity="0" result="BackgroundImageFix"/>
<feColorMatrix in="SourceAlpha" type="matrix" values="0 0 0 0 0 0 0 0 0 0 0 0 0 0 0 0 0 0 127 0" result="hardAlpha"/>
<feOffset/>
<feGaussianBlur stdDeviation="8"/>
<feComposite in2="hardAlpha" operator="out"/>
<feColorMatrix type="matrix" values="0 0 0 0 0.580392 0 0 0 0 0.301961 0 0 0 0 1 0 0 0 0.2 0"/>
<feBlend mode="normal" in2="BackgroundImageFix" result="effect1_dropShadow_4570_39254"/>
<feColorMatrix in="SourceAlpha" type="matrix" values="0 0 0 0 0 0 0 0 0 0 0 0 0 0 0 0 0 0 127 0" result="hardAlpha"/>
<feOffset/>
<feGaussianBlur stdDeviation="12"/>
<feComposite in2="hardAlpha" operator="out"/>
<feColorMatrix type="matrix" values="0 0 0 0 0.580392 0 0 0 0 0.301961 0 0 0 0 1 0 0 0 0.2 0"/>
<feBlend mode="normal" in2="effect1_dropShadow_4570_39254" result="effect2_dropShadow_4570_39254"/>
<feBlend mode="normal" in="SourceGraphic" in2="effect2_dropShadow_4570_39254" result="shape"/>
<feColorMatrix in="SourceAlpha" type="matrix" values="0 0 0 0 0 0 0 0 0 0 0 0 0 0 0 0 0 0 127 0" result="hardAlpha"/>
<feOffset/>
<feGaussianBlur stdDeviation="24"/>
<feComposite in2="hardAlpha" operator="arithmetic" k2="-1" k3="1"/>
<feColorMatrix type="matrix" values="0 0 0 0 0.580392 0 0 0 0 0.301961 0 0 0 0 1 0 0 0 0.2 0"/>
<feBlend mode="normal" in2="shape" result="effect3_innerShadow_4570_39254"/>
</filter>
<filter id="filter1_bd_4570_39254" x="0" y="64" width="130" height="92" filterUnits="userSpaceOnUse" color-interpolation-filters="sRGB">
<feFlood flood-opacity="0" result="BackgroundImageFix"/>
<feGaussianBlur in="BackgroundImageFix" stdDeviation="4"/>
<feComposite in2="SourceAlpha" operator="in" result="effect1_backgroundBlur_4570_39254"/>
<feColorMatrix in="SourceAlpha" type="matrix" values="0 0 0 0 0 0 0 0 0 0 0 0 0 0 0 0 0 0 127 0" result="hardAlpha"/>
<feOffset dy="4"/>
<feGaussianBlur stdDeviation="4"/>
<feComposite in2="hardAlpha" operator="out"/>
<feColorMatrix type="matrix" values="0 0 0 0 0.0666667 0 0 0 0 0.0980392 0 0 0 0 0.117647 0 0 0 0.2 0"/>
<feBlend mode="normal" in2="effect1_backgroundBlur_4570_39254" result="effect2_dropShadow_4570_39254"/>
<feBlend mode="normal" in="SourceGraphic" in2="effect2_dropShadow_4570_39254" result="shape"/>
</filter>
<filter id="filter2_bd_4570_39254" x="64" y="64" width="104" height="76.0005" filterUnits="userSpaceOnUse" color-interpolation-filters="sRGB">
<feFlood flood-opacity="0" result="BackgroundImageFix"/>
<feGaussianBlur in="BackgroundImageFix" stdDeviation="4"/>
<feComposite in2="SourceAlpha" operator="in" result="effect1_backgroundBlur_4570_39254"/>
<feColorMatrix in="SourceAlpha" type="matrix" values="0 0 0 0 0 0 0 0 0 0 0 0 0 0 0 0 0 0 127 0" result="hardAlpha"/>
<feOffset dy="4"/>
<feGaussianBlur stdDeviation="4"/>
<feComposite in2="hardAlpha" operator="out"/>
<feColorMatrix type="matrix" values="0 0 0 0 0.0666667 0 0 0 0 0.0980392 0 0 0 0 0.117647 0 0 0 0.2 0"/>
<feBlend mode="normal" in2="effect1_backgroundBlur_4570_39254" result="effect2_dropShadow_4570_39254"/>
<feBlend mode="normal" in="SourceGraphic" in2="effect2_dropShadow_4570_39254" result="shape"/>
</filter>
<linearGradient id="paint0_linear_4570_39254" x1="85" y1="20" x2="85" y2="92" gradientUnits="userSpaceOnUse">
<stop offset="0.000100017" stop-color="#EADBFF"/>
<stop offset="0.8" stop-color="#944DFF"/>
<stop offset="1" stop-color="#944DFF"/>
</linearGradient>
<linearGradient id="paint1_linear_4570_39254" x1="106.953" y1="-9.03291" x2="90.1091" y2="76.6105" gradientUnits="userSpaceOnUse">
<stop stop-color="white"/>
<stop offset="1" stop-color="white" stop-opacity="0"/>
</linearGradient>
<linearGradient id="paint2_linear_4570_39254" x1="65" y1="48.9689" x2="65" y2="154.062" gradientUnits="userSpaceOnUse">
<stop stop-color="white"/>
<stop offset="1" stop-color="white" stop-opacity="0"/>
</linearGradient>
<linearGradient id="paint3_linear_4570_39254" x1="65" y1="72" x2="65" y2="144" gradientUnits="userSpaceOnUse">
<stop stop-color="white"/>
<stop offset="1" stop-color="white" stop-opacity="0"/>
</linearGradient>
<linearGradient id="paint4_linear_4570_39254" x1="120.093" y1="73.6845" x2="120.093" y2="134.328" gradientUnits="userSpaceOnUse">
<stop stop-color="white"/>
<stop offset="1" stop-color="white" stop-opacity="0"/>
</linearGradient>
<linearGradient id="paint5_linear_4570_39254" x1="116" y1="72" x2="116" y2="128" gradientUnits="userSpaceOnUse">
<stop stop-color="white"/>
<stop offset="1" stop-color="white" stop-opacity="0"/>
</linearGradient>
<clipPath id="clip0_4570_39254">
<rect width="168" height="168" fill="white"/>
</clipPath>
</defs>
</svg>
