<svg width="40" height="40" viewBox="0 0 40 40" fill="none" xmlns="http://www.w3.org/2000/svg">
<g filter="url(#filter0_i_4582_13405)">
<path d="M1 20C1 6.89 6.89 1 20 1C33.11 1 39 6.89 39 20C39 33.11 33.11 39 20 39C6.89 39 1 33.11 1 20Z" fill="#0099FF"/>
</g>
<path d="M2 20C2 13.5723 3.44621 9.1355 6.29086 6.29086C9.1355 3.44621 13.5723 2 20 2C26.4277 2 30.8645 3.44621 33.7091 6.29086C36.5538 9.1355 38 13.5723 38 20C38 26.4277 36.5538 30.8645 33.7091 33.7091C30.8645 36.5538 26.4277 38 20 38C13.5723 38 9.1355 36.5538 6.29086 33.7091C3.44621 30.8645 2 26.4277 2 20Z" stroke="url(#paint0_linear_4582_13405)" stroke-width="2" style="mix-blend-mode:overlay"/>
<mask id="mask0_4582_13405" style="mask-type:alpha" maskUnits="userSpaceOnUse" x="0" y="0" width="40" height="40">
<path d="M1 20C1 13.2273 2.52371 8.5405 5.53211 5.53211C8.5405 2.52371 13.2273 1 20 1C26.7727 1 31.4595 2.52371 34.4679 5.53211C37.4763 8.5405 39 13.2273 39 20C39 26.7727 37.4763 31.4595 34.4679 34.4679C31.4595 37.4763 26.7727 39 20 39C13.2273 39 8.5405 37.4763 5.53211 34.4679C2.52371 31.4595 1 26.7727 1 20Z" fill="#0099FF"/>
<path d="M1 20C1 13.2273 2.52371 8.5405 5.53211 5.53211C8.5405 2.52371 13.2273 1 20 1C26.7727 1 31.4595 2.52371 34.4679 5.53211C37.4763 8.5405 39 13.2273 39 20C39 26.7727 37.4763 31.4595 34.4679 34.4679C31.4595 37.4763 26.7727 39 20 39C13.2273 39 8.5405 37.4763 5.53211 34.4679C2.52371 31.4595 1 26.7727 1 20Z" stroke="url(#paint1_linear_4582_13405)" stroke-width="2"/>
</mask>
<g mask="url(#mask0_4582_13405)">
<g filter="url(#filter1_ddii_4582_13405)">
<path d="M28.0903 27.2446H11.9098C11.6685 27.2446 11.4371 27.3371 11.2665 27.5017C11.0959 27.6663 11 27.8895 11 28.1223C11 28.355 11.0959 28.5783 11.2665 28.7428C11.4371 28.9074 11.6685 28.9999 11.9098 28.9999H28.0902C28.3315 28.9999 28.5629 28.9074 28.7335 28.7428C28.9041 28.5783 29 28.355 29 28.1223C29 27.8895 28.9041 27.6663 28.7335 27.5017C28.5629 27.3371 28.3316 27.2446 28.0903 27.2446ZM11.851 23.8729C12.4544 24.4547 13.177 24.936 14 25.0951C14.2451 25.1424 14.9139 25.1185 15.1449 25.0264C15.3758 24.9343 15.5732 24.778 15.712 24.5775C15.8508 24.377 15.9247 24.1413 15.9244 23.9002V11.8791C15.9244 11.6463 15.8286 11.4231 15.658 11.2585C15.4873 11.0939 15.2559 11.0015 15.0146 11.0015C14.7733 11.0015 14.5419 11.0939 14.3713 11.2585C14.2006 11.4231 14.1048 11.6463 14.1048 11.8791L13.1048 22.6025L12.5793 22.0956C12.4951 22.0128 12.3948 21.947 12.2842 21.9018C12.1735 21.8567 12.0547 21.8332 11.9345 21.8326C11.8144 21.8321 11.6953 21.8545 11.5842 21.8986C11.4731 21.9427 11.3721 22.0076 11.2871 22.0895C11.2022 22.1715 11.1349 22.2689 11.0892 22.376C11.0435 22.4832 11.0203 22.5981 11.0208 22.714C11.0214 22.8299 11.0458 22.9445 11.0926 23.0513C11.1394 23.158 11.2076 23.2548 11.2934 23.3359C11.4794 23.5148 11.6653 23.6938 11.851 23.8729Z" fill="white"/>
<path d="M24.8 25.0264C25.031 25.1185 25.6998 25.1424 25.9449 25.0951C26.7679 24.936 27.4905 24.4547 28.0938 23.8729C28.2796 23.6938 28.4655 23.5148 28.6515 23.3359C28.7373 23.2548 28.8055 23.158 28.8523 23.0513C28.8991 22.9445 28.9235 22.8299 28.9241 22.714C28.9246 22.5981 28.9014 22.4832 28.8557 22.376C28.81 22.2689 28.7427 22.1715 28.6577 22.0895C28.5728 22.0076 28.4718 21.9427 28.3607 21.8986C28.2496 21.8545 28.1305 21.8321 28.0104 21.8326C27.8902 21.8332 27.7714 21.8567 27.6607 21.9018C27.5501 21.947 27.4498 22.0128 27.3656 22.0956L26.8401 22.6025L25.8401 11.8791C25.8401 11.6463 25.7443 11.4231 25.5736 11.2585C25.403 11.0939 25.1716 11.0015 24.9303 11.0015C24.689 11.0015 24.4576 11.0939 24.2869 11.2585C24.1163 11.4231 24.0205 11.6463 24.0205 11.8791V23.9002C24.0202 24.1413 24.0941 24.377 24.2329 24.5775C24.3717 24.778 24.5691 24.9343 24.8 25.0264Z" fill="white"/>
<path d="M19.2793 26.0264C19.5102 26.1185 20.1791 26.1424 20.4241 26.0951C21.2471 25.936 21.9697 25.4547 22.5731 24.8729C22.7588 24.6938 22.9448 24.5148 23.1307 24.3359C23.2165 24.2548 23.2848 24.158 23.3316 24.0513C23.3783 23.9445 23.4027 23.8299 23.4033 23.714C23.4039 23.5981 23.3807 23.4832 23.3349 23.376C23.2892 23.2689 23.222 23.1715 23.137 23.0895C23.052 23.0076 22.9511 22.9427 22.84 22.8986C22.7289 22.8545 22.6098 22.8321 22.4896 22.8326C22.3695 22.8332 22.2506 22.8567 22.14 22.9018C22.0293 22.947 21.929 23.0128 21.8449 23.0956L21.3194 23.6025L20.8 11.8791C20.8 11.6463 20.7041 11.4231 20.5335 11.2585C20.3629 11.0939 20.1315 11.0015 19.8902 11.0015C19.6489 11.0015 19.4175 11.0939 19.2468 11.2585C19.0762 11.4231 18.9803 11.6463 18.9803 11.8791L18.4997 24.9002C18.4994 25.1413 18.5734 25.377 18.7121 25.5775C18.8509 25.778 19.0483 25.9343 19.2793 26.0264Z" fill="white"/>
<path d="M20.6241 26.0266C20.3931 26.1187 19.7242 26.1426 19.4792 26.0953C18.6562 25.9362 17.9336 25.4549 17.3302 24.8731C17.1445 24.694 16.9586 24.515 16.7726 24.3361C16.6868 24.255 16.6185 24.1582 16.5718 24.0515C16.525 23.9447 16.5006 23.8301 16.5 23.7142C16.4994 23.5983 16.5227 23.4834 16.5684 23.3763C16.6141 23.2691 16.6814 23.1717 16.7663 23.0897C16.8513 23.0078 16.9522 22.9429 17.0634 22.8988C17.1745 22.8547 17.2935 22.8323 17.4137 22.8328C17.5338 22.8334 17.6527 22.8569 17.7633 22.9021C17.874 22.9472 17.9743 23.013 18.0584 23.0958L18.584 23.6027L19 11.8791C19 11.6463 19.0959 11.4231 19.2665 11.2585C19.4371 11.0939 19.6685 11.0015 19.9098 11.0015C20.1511 11.0015 20.3825 11.0939 20.5532 11.2585C20.7238 11.4231 20.8197 11.6463 20.8197 11.8791L21.4036 24.9004C21.4039 25.1415 21.33 25.3773 21.1912 25.5777C21.0524 25.7782 20.855 25.9345 20.6241 26.0266Z" fill="white"/>
</g>
</g>
<defs>
<filter id="filter0_i_4582_13405" x="1" y="1" width="40" height="40" filterUnits="userSpaceOnUse" color-interpolation-filters="sRGB">
<feFlood flood-opacity="0" result="BackgroundImageFix"/>
<feBlend mode="normal" in="SourceGraphic" in2="BackgroundImageFix" result="shape"/>
<feColorMatrix in="SourceAlpha" type="matrix" values="0 0 0 0 0 0 0 0 0 0 0 0 0 0 0 0 0 0 127 0" result="hardAlpha"/>
<feOffset dx="2" dy="2"/>
<feGaussianBlur stdDeviation="2"/>
<feComposite in2="hardAlpha" operator="arithmetic" k2="-1" k3="1"/>
<feColorMatrix type="matrix" values="0 0 0 0 0.0666667 0 0 0 0 0.0980392 0 0 0 0 0.117647 0 0 0 0.1 0"/>
<feBlend mode="normal" in2="shape" result="effect1_innerShadow_4582_13405"/>
</filter>
<filter id="filter1_ddii_4582_13405" x="-3.14286" y="-3.14286" width="47.1429" height="47.1429" filterUnits="userSpaceOnUse" color-interpolation-filters="sRGB">
<feFlood flood-opacity="0" result="BackgroundImageFix"/>
<feColorMatrix in="SourceAlpha" type="matrix" values="0 0 0 0 0 0 0 0 0 0 0 0 0 0 0 0 0 0 127 0" result="hardAlpha"/>
<feOffset dx="2.57143" dy="2.57143"/>
<feGaussianBlur stdDeviation="4.71429"/>
<feComposite in2="hardAlpha" operator="out"/>
<feColorMatrix type="matrix" values="0 0 0 0 0.321569 0 0 0 0 0.435294 0 0 0 0 1 0 0 0 1 0"/>
<feBlend mode="normal" in2="BackgroundImageFix" result="effect1_dropShadow_4582_13405"/>
<feColorMatrix in="SourceAlpha" type="matrix" values="0 0 0 0 0 0 0 0 0 0 0 0 0 0 0 0 0 0 127 0" result="hardAlpha"/>
<feOffset dx="-2.57143" dy="-2.57143"/>
<feGaussianBlur stdDeviation="4.28571"/>
<feComposite in2="hardAlpha" operator="out"/>
<feColorMatrix type="matrix" values="0 0 0 0 1 0 0 0 0 1 0 0 0 0 1 0 0 0 0.4 0"/>
<feBlend mode="normal" in2="effect1_dropShadow_4582_13405" result="effect2_dropShadow_4582_13405"/>
<feBlend mode="normal" in="SourceGraphic" in2="effect2_dropShadow_4582_13405" result="shape"/>
<feColorMatrix in="SourceAlpha" type="matrix" values="0 0 0 0 0 0 0 0 0 0 0 0 0 0 0 0 0 0 127 0" result="hardAlpha"/>
<feOffset dy="-1.28571"/>
<feGaussianBlur stdDeviation="0.985714"/>
<feComposite in2="hardAlpha" operator="arithmetic" k2="-1" k3="1"/>
<feColorMatrix type="matrix" values="0 0 0 0 0 0 0 0 0 0.598039 0 0 0 0 1 0 0 0 0.4 0"/>
<feBlend mode="normal" in2="shape" result="effect3_innerShadow_4582_13405"/>
<feColorMatrix in="SourceAlpha" type="matrix" values="0 0 0 0 0 0 0 0 0 0 0 0 0 0 0 0 0 0 127 0" result="hardAlpha"/>
<feOffset dy="-0.428571"/>
<feGaussianBlur stdDeviation="0.557143"/>
<feComposite in2="hardAlpha" operator="arithmetic" k2="-1" k3="1"/>
<feColorMatrix type="matrix" values="0 0 0 0 1 0 0 0 0 1 0 0 0 0 1 0 0 0 0.6 0"/>
<feBlend mode="normal" in2="effect3_innerShadow_4582_13405" result="effect4_innerShadow_4582_13405"/>
</filter>
<linearGradient id="paint0_linear_4582_13405" x1="7.46" y1="11.26" x2="35.96" y2="46.22" gradientUnits="userSpaceOnUse">
<stop stop-color="#11191E" stop-opacity="0.4"/>
<stop offset="0.992881" stop-color="white"/>
</linearGradient>
<linearGradient id="paint1_linear_4582_13405" x1="6.8" y1="10.8" x2="36.8" y2="47.6" gradientUnits="userSpaceOnUse">
<stop stop-color="#11191E" stop-opacity="0.4"/>
<stop offset="0.992881" stop-color="white"/>
</linearGradient>
</defs>
</svg>
