<svg width="168" height="168" viewBox="0 0 168 168" fill="none" xmlns="http://www.w3.org/2000/svg">
<g clip-path="url(#clip0_4570_39253)">
<g filter="url(#filter0_bd_4570_39253)">
<mask id="path-1-inside-1_4570_39253" fill="white">
<path fill-rule="evenodd" clip-rule="evenodd" d="M121.992 87.9988C122.064 87.9997 122.137 88.0001 122.21 88.0001C132.587 88.0001 141 79.3906 141 68.7703C141 58.15 132.587 49.5405 122.21 49.5405C122.137 49.5405 122.064 49.541 121.992 49.5418V49.5405H117.137C117.313 48.2245 117.403 46.8808 117.403 45.5155C117.403 29.2145 104.491 16 88.5629 16C72.6348 16 59.7226 29.2145 59.7226 45.5155C59.7226 47.0536 59.8375 48.5642 60.0591 50.0389C58.6876 49.7128 57.2584 49.5404 55.7899 49.5404C45.4125 49.5404 37 58.1498 37 68.7701C37 79.3905 45.4125 87.9999 55.7899 87.9999C55.8632 87.9999 55.9364 87.9995 56.0095 87.9986L56.0084 88.0001H121.992V87.9988Z"/>
</mask>
<path fill-rule="evenodd" clip-rule="evenodd" d="M121.992 87.9988C122.064 87.9997 122.137 88.0001 122.21 88.0001C132.587 88.0001 141 79.3906 141 68.7703C141 58.15 132.587 49.5405 122.21 49.5405C122.137 49.5405 122.064 49.541 121.992 49.5418V49.5405H117.137C117.313 48.2245 117.403 46.8808 117.403 45.5155C117.403 29.2145 104.491 16 88.5629 16C72.6348 16 59.7226 29.2145 59.7226 45.5155C59.7226 47.0536 59.8375 48.5642 60.0591 50.0389C58.6876 49.7128 57.2584 49.5404 55.7899 49.5404C45.4125 49.5404 37 58.1498 37 68.7701C37 79.3905 45.4125 87.9999 55.7899 87.9999C55.8632 87.9999 55.9364 87.9995 56.0095 87.9986L56.0084 88.0001H121.992V87.9988Z" fill="url(#paint0_linear_4570_39253)" shape-rendering="crispEdges"/>
<path d="M121.992 87.9988L122.003 86.9989C121.736 86.9958 121.479 87.0997 121.289 87.2876C121.099 87.4755 120.992 87.7316 120.992 87.9988H121.992ZM121.992 49.5418H120.992C120.992 49.809 121.099 50.0652 121.289 50.253C121.479 50.4409 121.736 50.5448 122.003 50.5417L121.992 49.5418ZM121.992 49.5405H122.992C122.992 48.9882 122.544 48.5405 121.992 48.5405V49.5405ZM117.137 49.5405L116.146 49.4085C116.108 49.6942 116.195 49.9824 116.385 50.1993C116.575 50.4161 116.849 50.5405 117.137 50.5405V49.5405ZM60.0591 50.0389L59.8278 51.0118C60.151 51.0886 60.4912 50.9999 60.7358 50.7751C60.9804 50.5503 61.0974 50.2188 61.048 49.8903L60.0591 50.0389ZM56.0095 87.9986L56.802 88.6085C57.0357 88.3049 57.0753 87.8945 56.9041 87.5518C56.7329 87.209 56.3809 86.9942 55.9978 86.9987L56.0095 87.9986ZM56.0084 88.0001L55.2159 87.3902C54.9835 87.6921 54.9429 88.0999 55.1112 88.4417C55.2795 88.7836 55.6274 89.0001 56.0084 89.0001V88.0001ZM121.992 88.0001V89.0001C122.544 89.0001 122.992 88.5524 122.992 88.0001H121.992ZM121.98 88.9987C122.057 88.9996 122.133 89.0001 122.21 89.0001V87.0001C122.141 87.0001 122.072 86.9997 122.003 86.9989L121.98 88.9987ZM122.21 89.0001C133.161 89.0001 142 79.921 142 68.7703H140C140 78.8603 132.013 87.0001 122.21 87.0001V89.0001ZM142 68.7703C142 57.6196 133.161 48.5405 122.21 48.5405V50.5405C132.013 50.5405 140 58.6803 140 68.7703H142ZM122.21 48.5405C122.133 48.5405 122.057 48.541 121.98 48.5419L122.003 50.5417C122.072 50.5409 122.141 50.5405 122.21 50.5405V48.5405ZM120.992 49.5405V49.5418H122.992V49.5405H120.992ZM117.137 50.5405H121.992V48.5405H117.137V50.5405ZM118.129 49.6726C118.31 48.3129 118.403 46.9251 118.403 45.5155H116.403C116.403 46.8365 116.316 48.1361 116.146 49.4085L118.129 49.6726ZM118.403 45.5155C118.403 28.6842 105.065 15 88.5629 15V17C103.917 17 116.403 29.7449 116.403 45.5155H118.403ZM88.5629 15C72.0609 15 58.7226 28.6842 58.7226 45.5155H60.7226C60.7226 29.7449 73.2088 17 88.5629 17V15ZM58.7226 45.5155C58.7226 47.1035 58.8413 48.6638 59.0702 50.1875L61.048 49.8903C60.8338 48.4647 60.7226 47.0037 60.7226 45.5155H58.7226ZM60.2905 49.066C58.8438 48.722 57.337 48.5404 55.7899 48.5404V50.5404C57.1799 50.5404 58.5314 50.7035 59.8278 51.0118L60.2905 49.066ZM55.7899 48.5404C44.8386 48.5404 36 57.6195 36 68.7701H38C38 58.6802 45.9865 50.5404 55.7899 50.5404V48.5404ZM36 68.7701C36 79.9208 44.8386 88.9999 55.7899 88.9999V86.9999C45.9865 86.9999 38 78.8601 38 68.7701H36ZM55.7899 88.9999C55.8672 88.9999 55.9443 88.9995 56.0212 88.9986L55.9978 86.9987C55.9286 86.9995 55.8593 86.9999 55.7899 86.9999V88.9999ZM56.8009 88.61L56.802 88.6085L55.2171 87.3887L55.2159 87.3902L56.8009 88.61ZM121.992 87.0001H56.0084V89.0001H121.992V87.0001ZM120.992 87.9988V88.0001H122.992V87.9988H120.992Z" fill="url(#paint1_linear_4570_39253)" mask="url(#path-1-inside-1_4570_39253)"/>
</g>
<g filter="url(#filter1_bd_4570_39253)">
<mask id="path-3-inside-2_4570_39253" fill="white">
<path fill-rule="evenodd" clip-rule="evenodd" d="M106.067 115.998C106.151 115.999 106.235 116 106.319 116C118.293 116 128 106.359 128 94.4665C128 82.5739 118.293 72.9331 106.319 72.9331C106.235 72.9331 106.151 72.9336 106.067 72.9346V72.9331H100.466C100.669 71.4595 100.773 69.955 100.773 68.4262C100.773 50.1725 85.8744 35.375 67.4958 35.375C49.1172 35.375 34.2184 50.1725 34.2184 68.4262C34.2184 70.1485 34.3511 71.8401 34.6068 73.4914C33.0242 73.1262 31.3751 72.9331 29.6807 72.9331C17.7068 72.9331 8 82.5739 8 94.4665C8 106.359 17.7068 116 29.6807 116C29.7652 116 29.8497 115.999 29.934 115.998L29.9328 116H106.067V115.998Z"/>
</mask>
<path fill-rule="evenodd" clip-rule="evenodd" d="M106.067 115.998C106.151 115.999 106.235 116 106.319 116C118.293 116 128 106.359 128 94.4665C128 82.5739 118.293 72.9331 106.319 72.9331C106.235 72.9331 106.151 72.9336 106.067 72.9346V72.9331H100.466C100.669 71.4595 100.773 69.955 100.773 68.4262C100.773 50.1725 85.8744 35.375 67.4958 35.375C49.1172 35.375 34.2184 50.1725 34.2184 68.4262C34.2184 70.1485 34.3511 71.8401 34.6068 73.4914C33.0242 73.1262 31.3751 72.9331 29.6807 72.9331C17.7068 72.9331 8 82.5739 8 94.4665C8 106.359 17.7068 116 29.6807 116C29.7652 116 29.8497 115.999 29.934 115.998L29.9328 116H106.067V115.998Z" fill="url(#paint2_linear_4570_39253)" shape-rendering="crispEdges"/>
<path d="M106.067 115.998L106.079 114.998C105.812 114.995 105.554 115.099 105.364 115.287C105.174 115.475 105.067 115.731 105.067 115.998H106.067ZM106.067 72.9346H105.067C105.067 73.2017 105.174 73.4578 105.364 73.6456C105.554 73.8335 105.812 73.9375 106.079 73.9345L106.067 72.9346ZM106.067 72.9331H107.067C107.067 72.3809 106.62 71.9331 106.067 71.9331V72.9331ZM100.466 72.9331L99.4756 72.7971C99.4363 73.0834 99.5228 73.3726 99.7127 73.5904C99.9026 73.8082 100.177 73.9331 100.466 73.9331V72.9331ZM34.6068 73.4914L34.3819 74.4658C34.7052 74.5404 35.0445 74.4498 35.2875 74.2239C35.5306 73.998 35.6458 73.6663 35.595 73.3384L34.6068 73.4914ZM29.934 115.998L30.7178 116.619C30.9572 116.317 31.0016 115.904 30.8318 115.558C30.6619 115.212 30.3082 114.994 29.9226 114.998L29.934 115.998ZM29.9328 116L29.149 115.379C28.9108 115.679 28.8656 116.09 29.0325 116.435C29.1995 116.78 29.5493 117 29.9328 117V116ZM106.067 116V117C106.62 117 107.067 116.552 107.067 116H106.067ZM106.056 116.998C106.144 116.999 106.231 117 106.319 117V115C106.239 115 106.159 114.999 106.079 114.998L106.056 116.998ZM106.319 117C118.839 117 129 106.918 129 94.4665H127C127 105.8 117.747 115 106.319 115V117ZM129 94.4665C129 82.0152 118.839 71.9331 106.319 71.9331V73.9331C117.747 73.9331 127 83.1327 127 94.4665H129ZM106.319 71.9331C106.231 71.9331 106.144 71.9336 106.056 71.9346L106.079 73.9345C106.159 73.9336 106.239 73.9331 106.319 73.9331V71.9331ZM105.067 72.9331V72.9346H107.067V72.9331H105.067ZM100.466 73.9331H106.067V71.9331H100.466V73.9331ZM101.457 73.0691C101.666 71.5506 101.773 70.0006 101.773 68.4262H99.7731C99.7731 69.9093 99.6718 71.3684 99.4756 72.7971L101.457 73.0691ZM101.773 68.4262C101.773 49.6138 86.4202 34.375 67.4958 34.375V36.375C85.3285 36.375 99.7731 50.7312 99.7731 68.4262H101.773ZM67.4958 34.375C48.5714 34.375 33.2184 49.6138 33.2184 68.4262H35.2184C35.2184 50.7312 49.663 36.375 67.4958 36.375V34.375ZM33.2184 68.4262C33.2184 70.2 33.355 71.9427 33.6185 73.6444L35.595 73.3384C35.3471 71.7375 35.2184 70.0971 35.2184 68.4262H33.2184ZM34.8316 72.517C33.1758 72.1349 31.4513 71.9331 29.6807 71.9331V73.9331C31.299 73.9331 32.8726 74.1175 34.3819 74.4658L34.8316 72.517ZM29.6807 71.9331C17.1609 71.9331 7 82.0152 7 94.4665H9C9 83.1327 18.2526 73.9331 29.6807 73.9331V71.9331ZM7 94.4665C7 106.918 17.1609 117 29.6807 117V115C18.2526 115 9 105.8 9 94.4665H7ZM29.6807 117C29.769 117 29.8573 116.999 29.9454 116.998L29.9226 114.998C29.8421 114.999 29.7615 115 29.6807 115V117ZM30.7166 116.621L30.7178 116.619L29.1502 115.377L29.149 115.379L30.7166 116.621ZM106.067 115H29.9328V117H106.067V115ZM105.067 115.998V116H107.067V115.998H105.067Z" fill="url(#paint3_linear_4570_39253)" mask="url(#path-3-inside-2_4570_39253)"/>
</g>
<g filter="url(#filter2_ddi_4570_39253)">
<path d="M92.9367 118.182L115.19 82.9323C115.557 82.352 116.195 82 116.881 82H137.753C139.311 82 140.271 83.7026 139.464 85.0355L126.784 105.989C125.977 107.322 126.937 109.024 128.495 109.024H142.056C143.854 109.024 144.739 111.212 143.447 112.462L99.4332 155.04C97.8616 156.561 95.3397 154.818 96.2064 152.81L108.626 124.042C109.196 122.722 108.228 121.249 106.79 121.249H94.6278C93.0529 121.249 92.0959 119.513 92.9367 118.182Z" fill="url(#paint4_linear_4570_39253)"/>
<path d="M93.7823 118.715L116.036 83.4662C116.219 83.176 116.538 83 116.881 83H137.753C138.532 83 139.012 83.8513 138.608 84.5177L125.928 105.471C124.718 107.47 126.158 110.024 128.495 110.024H142.056C142.955 110.024 143.397 111.118 142.751 111.743L98.7379 154.322C97.9521 155.082 96.6912 154.21 97.1245 153.206L109.544 124.438C110.399 122.458 108.947 120.249 106.79 120.249H94.6278C93.8404 120.249 93.3619 119.381 93.7823 118.715Z" stroke="url(#paint5_linear_4570_39253)" stroke-width="2"/>
</g>
<g filter="url(#filter3_bd_4570_39253)">
<mask id="path-7-inside-3_4570_39253" fill="white">
<path fill-rule="evenodd" clip-rule="evenodd" d="M144.281 101.175C144.342 101.176 144.402 101.176 144.462 101.176C153.043 101.176 160 94.2198 160 85.6385C160 77.0572 153.043 70.1007 144.462 70.1007C144.402 70.1007 144.342 70.1011 144.281 70.1017V70.1007H140.267C140.412 69.0374 140.487 67.9518 140.487 66.8487C140.487 53.6774 129.81 43 116.639 43C103.467 43 92.7898 53.6774 92.7898 66.8487C92.7898 68.0915 92.8849 69.312 93.0681 70.5035C91.934 70.24 90.7522 70.1007 89.5378 70.1007C80.9565 70.1007 74 77.0572 74 85.6385C74 94.2198 80.9565 101.176 89.5378 101.176C89.5984 101.176 89.6589 101.176 89.7193 101.175L89.7184 101.176H144.281V101.175Z"/>
</mask>
<path fill-rule="evenodd" clip-rule="evenodd" d="M144.281 101.175C144.342 101.176 144.402 101.176 144.462 101.176C153.043 101.176 160 94.2198 160 85.6385C160 77.0572 153.043 70.1007 144.462 70.1007C144.402 70.1007 144.342 70.1011 144.281 70.1017V70.1007H140.267C140.412 69.0374 140.487 67.9518 140.487 66.8487C140.487 53.6774 129.81 43 116.639 43C103.467 43 92.7898 53.6774 92.7898 66.8487C92.7898 68.0915 92.8849 69.312 93.0681 70.5035C91.934 70.24 90.7522 70.1007 89.5378 70.1007C80.9565 70.1007 74 77.0572 74 85.6385C74 94.2198 80.9565 101.176 89.5378 101.176C89.5984 101.176 89.6589 101.176 89.7193 101.175L89.7184 101.176H144.281V101.175Z" fill="url(#paint6_linear_4570_39253)" shape-rendering="crispEdges"/>
<path d="M144.281 101.175L144.293 100.175C144.026 100.172 143.768 100.276 143.578 100.464C143.388 100.652 143.281 100.908 143.281 101.175H144.281ZM144.281 70.1017H143.281C143.281 70.3689 143.388 70.625 143.578 70.8129C143.768 71.0007 144.026 71.1047 144.293 71.1017L144.281 70.1017ZM144.281 70.1007H145.281C145.281 69.5484 144.834 69.1007 144.281 69.1007V70.1007ZM140.267 70.1007L139.277 69.9656C139.238 70.2517 139.324 70.5408 139.514 70.7583C139.704 70.9759 139.979 71.1007 140.267 71.1007V70.1007ZM93.0681 70.5035L92.8418 71.4776C93.1651 71.5527 93.5046 71.4625 93.748 71.2369C93.9914 71.0112 94.107 70.6795 94.0565 70.3515L93.0681 70.5035ZM89.7193 101.175L90.5045 101.795C90.743 101.492 90.7866 101.079 90.6165 100.734C90.4465 100.388 90.093 100.171 89.7078 100.175L89.7193 101.175ZM89.7184 101.176L88.9332 100.557C88.696 100.858 88.6515 101.268 88.8187 101.613C88.9858 101.957 89.3353 102.176 89.7184 102.176V101.176ZM144.281 101.176V102.176C144.834 102.176 145.281 101.729 145.281 101.176H144.281ZM144.27 102.175C144.334 102.176 144.398 102.176 144.462 102.176V100.176C144.406 100.176 144.349 100.176 144.293 100.175L144.27 102.175ZM144.462 102.176C153.596 102.176 161 94.7721 161 85.6385H159C159 93.6675 152.491 100.176 144.462 100.176V102.176ZM161 85.6385C161 76.5049 153.596 69.1007 144.462 69.1007V71.1007C152.491 71.1007 159 77.6095 159 85.6385H161ZM144.462 69.1007C144.398 69.1007 144.334 69.1011 144.27 69.1018L144.293 71.1017C144.349 71.101 144.406 71.1007 144.462 71.1007V69.1007ZM143.281 70.1007V70.1017H145.281V70.1007H143.281ZM140.267 71.1007H144.281V69.1007H140.267V71.1007ZM141.258 70.2358C141.409 69.1279 141.487 67.9971 141.487 66.8487H139.487C139.487 67.9065 139.416 68.947 139.277 69.9656L141.258 70.2358ZM141.487 66.8487C141.487 53.1252 130.362 42 116.639 42V44C129.258 44 139.487 54.2297 139.487 66.8487H141.487ZM116.639 42C102.915 42 91.7898 53.1252 91.7898 66.8487H93.7898C93.7898 54.2297 104.02 44 116.639 44V42ZM91.7898 66.8487C91.7898 68.1426 91.8888 69.4139 92.0797 70.6555L94.0565 70.3515C93.881 69.2102 93.7898 68.0404 93.7898 66.8487H91.7898ZM93.2944 69.5295C92.0866 69.2488 90.8289 69.1007 89.5378 69.1007V71.1007C90.6754 71.1007 91.7813 71.2312 92.8418 71.4776L93.2944 69.5295ZM89.5378 69.1007C80.4042 69.1007 73 76.5049 73 85.6385H75C75 77.6095 81.5088 71.1007 89.5378 71.1007V69.1007ZM73 85.6385C73 94.7721 80.4042 102.176 89.5378 102.176V100.176C81.5088 100.176 75 93.6675 75 85.6385H73ZM89.5378 102.176C89.6022 102.176 89.6665 102.176 89.7307 102.175L89.7078 100.175C89.6512 100.176 89.5946 100.176 89.5378 100.176V102.176ZM90.5037 101.796L90.5045 101.795L88.934 100.556L88.9332 100.557L90.5037 101.796ZM144.281 100.176H89.7184V102.176H144.281V100.176ZM143.281 101.175V101.176H145.281V101.175H143.281Z" fill="url(#paint7_linear_4570_39253)" mask="url(#path-7-inside-3_4570_39253)"/>
</g>
<path d="M40.7727 110.012C42.4471 107.862 45.8898 108.91 46.0839 111.627L46.7632 121.141C47.0948 125.784 42.6672 129.316 38.2139 127.962C33.7606 126.607 32.0499 121.208 34.9107 117.536L40.7727 110.012Z" fill="url(#paint8_linear_4570_39253)" stroke="url(#paint9_linear_4570_39253)" stroke-width="2"/>
<path d="M74.0664 110.012C75.7408 107.862 79.1835 108.91 79.3776 111.627L80.0569 121.141C80.3885 125.784 75.9609 129.316 71.5076 127.962C67.0543 126.607 65.3436 121.208 68.2044 117.536L74.0664 110.012Z" fill="url(#paint10_linear_4570_39253)" stroke="url(#paint11_linear_4570_39253)" stroke-width="2"/>
<path d="M56.0667 129.012C57.7411 126.862 61.1837 127.91 61.3778 130.627L62.0572 140.141C62.3887 144.784 57.9612 148.316 53.5079 146.962C49.0546 145.607 47.3439 140.208 50.2046 136.536L56.0667 129.012Z" fill="url(#paint12_linear_4570_39253)" stroke="url(#paint13_linear_4570_39253)" stroke-width="2"/>
</g>
<defs>
<filter id="filter0_bd_4570_39253" x="29" y="8" width="120" height="92" filterUnits="userSpaceOnUse" color-interpolation-filters="sRGB">
<feFlood flood-opacity="0" result="BackgroundImageFix"/>
<feGaussianBlur in="BackgroundImageFix" stdDeviation="4"/>
<feComposite in2="SourceAlpha" operator="in" result="effect1_backgroundBlur_4570_39253"/>
<feColorMatrix in="SourceAlpha" type="matrix" values="0 0 0 0 0 0 0 0 0 0 0 0 0 0 0 0 0 0 127 0" result="hardAlpha"/>
<feOffset dy="4"/>
<feGaussianBlur stdDeviation="4"/>
<feComposite in2="hardAlpha" operator="out"/>
<feColorMatrix type="matrix" values="0 0 0 0 0.0666667 0 0 0 0 0.0980392 0 0 0 0 0.117647 0 0 0 0.2 0"/>
<feBlend mode="normal" in2="effect1_backgroundBlur_4570_39253" result="effect2_dropShadow_4570_39253"/>
<feBlend mode="normal" in="SourceGraphic" in2="effect2_dropShadow_4570_39253" result="shape"/>
</filter>
<filter id="filter1_bd_4570_39253" x="0" y="27.375" width="136" height="100.625" filterUnits="userSpaceOnUse" color-interpolation-filters="sRGB">
<feFlood flood-opacity="0" result="BackgroundImageFix"/>
<feGaussianBlur in="BackgroundImageFix" stdDeviation="4"/>
<feComposite in2="SourceAlpha" operator="in" result="effect1_backgroundBlur_4570_39253"/>
<feColorMatrix in="SourceAlpha" type="matrix" values="0 0 0 0 0 0 0 0 0 0 0 0 0 0 0 0 0 0 127 0" result="hardAlpha"/>
<feOffset dy="4"/>
<feGaussianBlur stdDeviation="4"/>
<feComposite in2="hardAlpha" operator="out"/>
<feColorMatrix type="matrix" values="0 0 0 0 0.0666667 0 0 0 0 0.0980392 0 0 0 0 0.117647 0 0 0 0.2 0"/>
<feBlend mode="normal" in2="effect1_backgroundBlur_4570_39253" result="effect2_dropShadow_4570_39253"/>
<feBlend mode="normal" in="SourceGraphic" in2="effect2_dropShadow_4570_39253" result="shape"/>
</filter>
<filter id="filter2_ddi_4570_39253" x="68.6246" y="58" width="99.4355" height="121.617" filterUnits="userSpaceOnUse" color-interpolation-filters="sRGB">
<feFlood flood-opacity="0" result="BackgroundImageFix"/>
<feColorMatrix in="SourceAlpha" type="matrix" values="0 0 0 0 0 0 0 0 0 0 0 0 0 0 0 0 0 0 127 0" result="hardAlpha"/>
<feOffset/>
<feGaussianBlur stdDeviation="8"/>
<feComposite in2="hardAlpha" operator="out"/>
<feColorMatrix type="matrix" values="0 0 0 0 0.929412 0 0 0 0 0.713726 0 0 0 0 0.00392157 0 0 0 0.2 0"/>
<feBlend mode="normal" in2="BackgroundImageFix" result="effect1_dropShadow_4570_39253"/>
<feColorMatrix in="SourceAlpha" type="matrix" values="0 0 0 0 0 0 0 0 0 0 0 0 0 0 0 0 0 0 127 0" result="hardAlpha"/>
<feOffset/>
<feGaussianBlur stdDeviation="12"/>
<feComposite in2="hardAlpha" operator="out"/>
<feColorMatrix type="matrix" values="0 0 0 0 0.929412 0 0 0 0 0.713726 0 0 0 0 0.00392157 0 0 0 0.2 0"/>
<feBlend mode="normal" in2="effect1_dropShadow_4570_39253" result="effect2_dropShadow_4570_39253"/>
<feBlend mode="normal" in="SourceGraphic" in2="effect2_dropShadow_4570_39253" result="shape"/>
<feColorMatrix in="SourceAlpha" type="matrix" values="0 0 0 0 0 0 0 0 0 0 0 0 0 0 0 0 0 0 127 0" result="hardAlpha"/>
<feOffset/>
<feGaussianBlur stdDeviation="24"/>
<feComposite in2="hardAlpha" operator="arithmetic" k2="-1" k3="1"/>
<feColorMatrix type="matrix" values="0 0 0 0 0.929412 0 0 0 0 0.713726 0 0 0 0 0.00392157 0 0 0 0.2 0"/>
<feBlend mode="normal" in2="shape" result="effect3_innerShadow_4570_39253"/>
</filter>
<filter id="filter3_bd_4570_39253" x="58" y="27" width="118" height="90.1763" filterUnits="userSpaceOnUse" color-interpolation-filters="sRGB">
<feFlood flood-opacity="0" result="BackgroundImageFix"/>
<feGaussianBlur in="BackgroundImageFix" stdDeviation="8"/>
<feComposite in2="SourceAlpha" operator="in" result="effect1_backgroundBlur_4570_39253"/>
<feColorMatrix in="SourceAlpha" type="matrix" values="0 0 0 0 0 0 0 0 0 0 0 0 0 0 0 0 0 0 127 0" result="hardAlpha"/>
<feOffset dy="4"/>
<feGaussianBlur stdDeviation="4"/>
<feComposite in2="hardAlpha" operator="out"/>
<feColorMatrix type="matrix" values="0 0 0 0 0.0666667 0 0 0 0 0.0980392 0 0 0 0 0.117647 0 0 0 0.2 0"/>
<feBlend mode="normal" in2="effect1_backgroundBlur_4570_39253" result="effect2_dropShadow_4570_39253"/>
<feBlend mode="normal" in="SourceGraphic" in2="effect2_dropShadow_4570_39253" result="shape"/>
</filter>
<linearGradient id="paint0_linear_4570_39253" x1="89" y1="-7.03106" x2="89" y2="98.0621" gradientUnits="userSpaceOnUse">
<stop stop-color="white"/>
<stop offset="1" stop-color="white" stop-opacity="0"/>
</linearGradient>
<linearGradient id="paint1_linear_4570_39253" x1="89" y1="16" x2="89" y2="88" gradientUnits="userSpaceOnUse">
<stop stop-color="white"/>
<stop offset="1" stop-color="white" stop-opacity="0"/>
</linearGradient>
<linearGradient id="paint2_linear_4570_39253" x1="68" y1="9.58507" x2="68" y2="127.267" gradientUnits="userSpaceOnUse">
<stop stop-color="white"/>
<stop offset="1" stop-color="white" stop-opacity="0"/>
</linearGradient>
<linearGradient id="paint3_linear_4570_39253" x1="68" y1="35.375" x2="68" y2="116" gradientUnits="userSpaceOnUse">
<stop stop-color="white"/>
<stop offset="1" stop-color="white" stop-opacity="0"/>
</linearGradient>
<linearGradient id="paint4_linear_4570_39253" x1="137.5" y1="83.5" x2="91" y2="162" gradientUnits="userSpaceOnUse">
<stop stop-color="#FF8401"/>
<stop offset="0.2" stop-color="#FF8401"/>
<stop offset="1" stop-color="#FFE6CC"/>
</linearGradient>
<linearGradient id="paint5_linear_4570_39253" x1="119" y1="82" x2="119" y2="162" gradientUnits="userSpaceOnUse">
<stop stop-color="white" stop-opacity="0"/>
<stop offset="1" stop-color="white"/>
</linearGradient>
<linearGradient id="paint6_linear_4570_39253" x1="117" y1="24.3908" x2="117" y2="109.307" gradientUnits="userSpaceOnUse">
<stop stop-color="white"/>
<stop offset="1" stop-color="white" stop-opacity="0"/>
</linearGradient>
<linearGradient id="paint7_linear_4570_39253" x1="117" y1="43" x2="117" y2="101.176" gradientUnits="userSpaceOnUse">
<stop stop-color="white"/>
<stop offset="1" stop-color="white" stop-opacity="0"/>
</linearGradient>
<linearGradient id="paint8_linear_4570_39253" x1="46.3442" y1="101.233" x2="37.9229" y2="128.918" gradientUnits="userSpaceOnUse">
<stop stop-color="#138EFF"/>
<stop offset="1" stop-color="#00E0FF"/>
</linearGradient>
<linearGradient id="paint9_linear_4570_39253" x1="46.3442" y1="101.233" x2="37.9229" y2="128.918" gradientUnits="userSpaceOnUse">
<stop stop-color="white"/>
<stop offset="1" stop-color="white" stop-opacity="0"/>
</linearGradient>
<linearGradient id="paint10_linear_4570_39253" x1="79.6379" y1="101.233" x2="71.2166" y2="128.918" gradientUnits="userSpaceOnUse">
<stop stop-color="#138EFF"/>
<stop offset="1" stop-color="#00E0FF"/>
</linearGradient>
<linearGradient id="paint11_linear_4570_39253" x1="79.6379" y1="101.233" x2="71.2166" y2="128.918" gradientUnits="userSpaceOnUse">
<stop stop-color="white"/>
<stop offset="1" stop-color="white" stop-opacity="0"/>
</linearGradient>
<linearGradient id="paint12_linear_4570_39253" x1="61.6381" y1="120.233" x2="53.2168" y2="147.918" gradientUnits="userSpaceOnUse">
<stop stop-color="#138EFF"/>
<stop offset="1" stop-color="#00E0FF"/>
</linearGradient>
<linearGradient id="paint13_linear_4570_39253" x1="61.6381" y1="120.233" x2="53.2168" y2="147.918" gradientUnits="userSpaceOnUse">
<stop stop-color="white"/>
<stop offset="1" stop-color="white" stop-opacity="0"/>
</linearGradient>
<clipPath id="clip0_4570_39253">
<rect width="168" height="168" fill="white"/>
</clipPath>
</defs>
</svg>
