<svg width="20" height="18" viewBox="0 0 20 18" fill="none" xmlns="http://www.w3.org/2000/svg">
<path d="M5.46 16.1225H14.5425C15.1525 16.1225 15.455 16.4 15.455 16.9575V16.9675C15.455 17.525 15.1525 17.8025 14.5425 17.8025H5.46C4.85 17.8025 4.5475 17.525 4.5475 16.9675V16.9575C4.545 16.4 4.85 16.1225 5.46 16.1225ZM17.8525 0.200012H2.15C0.9625 0.200012 0 1.07751 0 2.16251V12.485C0 13.57 0.9625 14.4475 2.15 14.4475H17.85C19.0375 14.4475 20 13.57 20 12.485V2.16251C20.0025 1.07751 19.04 0.200012 17.8525 0.200012ZM5.455 10.3975C5.455 10.8625 5.2 11.095 4.69 11.095H4.4C3.89 11.095 3.635 10.8625 3.635 10.3975V5.92751C3.635 5.46251 3.89 5.23001 4.4 5.23001H4.69C5.2 5.23001 5.455 5.46251 5.455 5.92751V10.3975ZM9.09 10.265C9.09 10.8175 8.7875 11.095 8.1825 11.095C7.575 11.095 7.275 10.8175 7.275 10.265V8.57001C7.275 8.01751 7.5775 7.74001 8.1825 7.74001C8.79 7.74001 9.09 8.01751 9.09 8.57001V10.265ZM12.7275 10.265C12.7275 10.8175 12.425 11.095 11.82 11.095C11.2125 11.095 10.9125 10.8175 10.9125 10.265V4.38251C10.9125 3.83001 11.215 3.55251 11.82 3.55251C12.4275 3.55251 12.7275 3.83001 12.7275 4.38251V10.265ZM16.365 10.265C16.365 10.8175 16.0625 11.095 15.4575 11.095C14.85 11.095 14.55 10.8175 14.55 10.265V7.73501C14.55 7.18251 14.8525 6.90501 15.4575 6.90501C16.065 6.90501 16.365 7.18251 16.365 7.73501V10.265Z" fill="#41494E"/>
</svg>
